<svg width="16" height="17" fill="none" xmlns="http://www.w3.org/2000/svg"><path d="M12.536.857c.797 0 1.476.285 2.039.854.569.562.854 1.242.854 2.039v9.643c0 .797-.285 1.476-.854 2.039a2.762 2.762 0 0 1-2.04.854h-1.888v-5.977h2l.3-2.33h-2.3V6.492c0-.375.077-.656.231-.844.161-.187.47-.28.925-.28l1.225-.01v-2.08c-.422-.06-1.018-.09-1.788-.09-.91 0-1.64.267-2.19.803-.542.536-.813 1.292-.813 2.27V7.98h-2.01v2.33h2.01v5.977H2.893c-.797 0-1.48-.285-2.05-.854A2.778 2.778 0 0 1 0 13.392V3.75c0-.797.281-1.477.844-2.04A2.795 2.795 0 0 1 2.893.858h9.643Z" fill="#000"/></svg>