<svg width="192" height="183" viewBox="0 0 192 183" fill="none" xmlns="http://www.w3.org/2000/svg">
<path fill-rule="evenodd" clip-rule="evenodd" d="M100.3 16.288C100.322 16.3181 100.346 16.3469 100.371 16.374V16.3669C100.762 16.8184 101.316 17.0962 101.912 17.1392C102.507 17.1822 103.095 16.9869 103.547 16.5963C103.998 16.2056 104.276 15.6516 104.319 15.0561C104.362 14.4606 104.167 13.8723 103.776 13.4208L93.3898 0.819554C93.0095 0.358546 92.4618 0.0674585 91.8669 0.0103276C91.2721 -0.0468032 90.6789 0.134702 90.2179 0.514915C89.7569 0.895128 89.4658 1.4429 89.4087 2.03774C89.3516 2.63257 89.5331 3.22573 89.9133 3.68674L100.3 16.288ZM107.345 4.27839C107.447 4.55576 107.603 4.81019 107.804 5.02716L107.833 5.09167L120.219 18.1589C120.63 18.5923 121.196 18.8449 121.793 18.861C122.39 18.8772 122.968 18.6555 123.402 18.2449C123.835 17.8343 124.088 17.2683 124.104 16.6714C124.12 16.0746 123.899 15.4958 123.488 15.0623L111.109 1.96644C110.908 1.74946 110.666 1.5742 110.397 1.45065C110.129 1.3271 109.838 1.25769 109.543 1.24638C109.247 1.23506 108.952 1.28206 108.675 1.3847C108.398 1.48734 108.143 1.64361 107.926 1.84458C107.709 2.04555 107.534 2.28729 107.41 2.55599C107.287 2.8247 107.218 3.1151 107.206 3.41063C107.195 3.70616 107.242 4.00103 107.345 4.27839ZM87.0173 25.3842C86.6458 24.9517 86.4522 24.3944 86.4757 23.8248C86.4992 23.2551 86.738 22.7156 87.1438 22.3152C87.5497 21.9148 88.0924 21.6834 88.6623 21.6676C89.2322 21.6518 89.7868 21.8529 90.2142 22.2303L103.031 34.1864C103.259 34.3845 103.445 34.6267 103.578 34.8984C103.711 35.1701 103.788 35.4657 103.804 35.7678C103.82 36.0698 103.775 36.3719 103.672 36.6562C103.568 36.9404 103.409 37.2009 103.202 37.4221C102.996 37.6433 102.747 37.8207 102.471 37.9436C102.195 38.0665 101.896 38.1325 101.594 38.1376C101.292 38.1427 100.991 38.0868 100.711 37.9732C100.431 37.8596 100.176 37.6907 99.9626 37.4765L87.1535 25.5204C87.1197 25.4914 87.0892 25.4593 87.0598 25.4282L87.0598 25.4282L87.0322 25.3993L87.0173 25.3842ZM66.3449 31.4773C66.3222 32.0732 66.5331 32.6544 66.9327 33.0969L66.947 33.1113L76.079 43.0174C76.4878 43.4556 77.0538 43.7135 77.6527 43.7343C78.2515 43.7552 78.8342 43.5372 79.2724 43.1285C79.7106 42.7198 79.9684 42.1537 79.9893 41.5549C80.0101 40.956 79.7922 40.3734 79.3835 39.9352L70.2586 30.0577L70.2156 30.0147C70.0151 29.8001 69.7743 29.627 69.507 29.5055C69.2396 29.3839 68.9509 29.3162 68.6574 29.3062C68.3638 29.2962 68.0712 29.3442 67.7962 29.4473C67.5212 29.5504 67.2692 29.7067 67.0546 29.9072C66.6223 30.318 66.3677 30.8814 66.3449 31.4773ZM50.6255 40.9745C50.2562 40.529 50.072 39.9587 50.1109 39.3814C50.1499 38.804 50.409 38.2636 50.8349 37.8718C51.2607 37.48 51.8208 37.2666 52.3994 37.2758C52.978 37.2849 53.531 37.5159 53.9443 37.921L59.3131 43.6553C59.6974 44.0976 59.8941 44.6723 59.8615 45.2573C59.8288 45.8423 59.5692 46.3915 59.138 46.7882C58.7068 47.1849 58.1379 47.3978 57.5522 47.3816C56.9665 47.3655 56.4102 47.1216 56.0015 46.7017L50.6255 40.9674V40.9745ZM22.842 42.2085C22.9471 42.4848 23.1056 42.7378 23.3085 42.9529L23.3801 43.0174L42.0169 61.862C42.2249 62.0724 42.4723 62.2397 42.745 62.3545C43.0177 62.4692 43.3104 62.5291 43.6062 62.5308C43.9021 62.5325 44.1954 62.4758 44.4694 62.3642C44.7433 62.2525 44.9926 62.0879 45.203 61.8799C45.4134 61.6719 45.5808 61.4244 45.6955 61.1517C45.8103 60.879 45.8702 60.5864 45.8719 60.2905C45.8735 59.9947 45.8169 59.7014 45.7052 59.4274C45.5935 59.1534 45.429 58.9041 45.2209 58.6937L26.5842 39.8635C26.3814 39.6484 26.1381 39.4754 25.8684 39.3543C25.5987 39.2332 25.3078 39.1664 25.0122 39.1577C24.7167 39.1491 24.4224 39.1987 24.146 39.3038C23.8697 39.4089 23.6167 39.5674 23.4016 39.7703C23.1866 39.9731 23.0135 40.2164 22.8924 40.4861C22.7713 40.7558 22.7046 41.0467 22.6959 41.3423C22.6873 41.6378 22.7369 41.9322 22.842 42.2085ZM23.337 69.5389C22.9226 69.1092 22.6958 68.5326 22.7065 67.9357C22.7173 67.3389 22.9647 66.7707 23.3943 66.3563C23.824 65.9419 24.4006 65.7151 24.9975 65.7258C25.5943 65.7366 26.1625 65.984 26.5769 66.4137L39.0993 78.5992C39.5169 79.021 39.7547 79.5883 39.7627 80.1818C39.7707 80.7753 39.5484 81.3488 39.1424 81.7818C38.726 82.2095 38.1568 82.4543 37.56 82.4624C36.9631 82.4704 36.3875 82.2411 35.9598 81.8248L23.4302 69.6392L23.337 69.5389ZM0.00638669 68.19C-0.0358478 68.7496 0.132498 69.3048 0.478409 69.7467L0.557257 69.8328L16.8859 86.1972C17.0949 86.4067 17.343 86.5729 17.6163 86.6864C17.8895 86.8 18.1824 86.8586 18.4782 86.8589C18.7741 86.8592 19.0671 86.8013 19.3406 86.6884C19.6141 86.5755 19.8626 86.4098 20.0721 86.2008C20.2815 85.9919 20.4477 85.7437 20.5613 85.4705C20.6748 85.1972 20.7334 84.9043 20.7337 84.6085C20.7341 84.3126 20.6761 84.0196 20.5632 83.7461C20.4503 83.4726 20.2846 83.2241 20.0756 83.0147L3.73984 66.6717C3.31902 66.3004 2.77468 66.0997 2.21356 66.109C1.65244 66.1183 1.11503 66.3368 0.706708 66.7218C0.298389 67.1068 0.0486212 67.6304 0.00638669 68.19ZM123.431 44.8094C123.372 44.7433 123.317 44.6739 123.266 44.6015L114.714 32.6095C114.374 32.1235 114.24 31.523 114.34 30.9384C114.441 30.3538 114.768 29.8325 115.25 29.4878C115.733 29.1431 116.332 29.0028 116.918 29.0974C117.503 29.192 118.028 29.514 118.377 29.9932L126.928 41.9852C127.268 42.4521 127.415 43.0316 127.34 43.6039C127.264 44.1761 126.971 44.6975 126.522 45.0601C126.073 45.4228 125.502 45.599 124.926 45.5523C124.351 45.5056 123.815 45.2397 123.431 44.8094ZM133.645 38.7089C133.632 39.3058 133.856 39.8835 134.269 40.3151L134.355 40.4082L141.164 47.1461C141.373 47.3598 141.622 47.5297 141.897 47.6461C142.172 47.7625 142.468 47.823 142.766 47.8241C143.065 47.8252 143.361 47.7668 143.637 47.6524C143.912 47.538 144.163 47.3699 144.373 47.1577C144.583 46.9456 144.749 46.6938 144.861 46.4169C144.973 46.14 145.029 45.8436 145.025 45.545C145.021 45.2464 144.958 44.9515 144.839 44.6775C144.72 44.4035 144.548 44.156 144.333 43.9492L137.523 37.2042C137.11 36.7726 136.543 36.5226 135.947 36.5092C135.35 36.4957 134.772 36.7199 134.34 37.1325C133.909 37.545 133.659 38.1121 133.645 38.7089ZM128.921 68.0193L128.764 67.8258L116.506 50.8377C116.333 50.5976 116.209 50.3258 116.141 50.0378C116.073 49.7497 116.062 49.4511 116.109 49.1589C116.156 48.8667 116.261 48.5867 116.416 48.3348C116.572 48.0829 116.775 47.8641 117.015 47.6909C117.255 47.5177 117.527 47.3935 117.815 47.3253C118.103 47.2572 118.402 47.2464 118.694 47.2937C118.986 47.3409 119.266 47.4453 119.518 47.6008C119.77 47.7562 119.989 47.9598 120.162 48.1999L132.412 65.1879C132.749 65.6542 132.896 66.2319 132.82 66.8025C132.745 67.3731 132.454 67.8931 132.007 68.2556C131.56 68.6182 130.991 68.7957 130.417 68.7518C129.843 68.7078 129.308 68.4457 128.921 68.0193ZM110.851 68.2845L110.915 68.3633C111.307 68.8139 111.862 69.0904 112.457 69.1321C113.053 69.1738 113.64 68.9772 114.091 68.5855C114.541 68.1939 114.818 67.6394 114.86 67.0439C114.901 66.4484 114.705 65.8607 114.313 65.4101L104.952 54.1421C104.56 53.699 104.014 53.4219 103.426 53.3673C102.837 53.3127 102.25 53.4847 101.783 53.8482C101.324 54.2308 101.035 54.7799 100.98 55.3751C100.925 55.9704 101.108 56.5632 101.489 57.0236L110.851 68.2845ZM85.2826 64.2417C84.871 63.8092 84.6481 63.231 84.6629 62.6341C84.6777 62.0373 84.929 61.4707 85.3614 61.0592C85.7939 60.6476 86.3722 60.4247 86.9691 60.4394C87.5659 60.4542 88.1324 60.7055 88.544 61.138L96.5076 69.1231C96.72 69.3301 96.8889 69.5776 97.0041 69.8509C97.1194 70.1242 97.1788 70.4178 97.1788 70.7144C97.1788 71.011 97.1194 71.3046 97.0041 71.5779C96.8889 71.8512 96.72 72.0987 96.5076 72.3057C96.2991 72.5155 96.0512 72.682 95.7781 72.7956C95.505 72.9092 95.2121 72.9677 94.9163 72.9677C94.6206 72.9677 94.3277 72.9092 94.0546 72.7956C93.7815 72.682 93.5336 72.5155 93.3251 72.3057L85.3686 64.3278L85.2826 64.2417ZM75.1115 74.8217L75.2047 74.9292C75.5985 75.3613 76.145 75.6232 76.7286 75.6595C77.3121 75.6958 77.8868 75.5035 78.3311 75.1235C78.7755 74.7435 79.0544 74.2055 79.1091 73.6234C79.1637 73.0412 78.9896 72.4607 78.6238 72.0047L72.9754 64.9657C72.79 64.7351 72.5609 64.5433 72.3014 64.4012C72.0418 64.2591 71.7568 64.1695 71.4626 64.1375C71.1684 64.1056 70.8708 64.1319 70.5867 64.215C70.3027 64.298 70.0378 64.4362 69.8072 64.6217C69.5766 64.8071 69.3847 65.0362 69.2426 65.2957C69.1005 65.5553 69.0109 65.8403 68.979 66.1345C68.947 66.4287 68.9733 66.7263 69.0564 67.0104C69.1395 67.2944 69.2777 67.5593 69.4631 67.7899L75.1115 74.8217ZM58.5102 80.936C58.1016 80.5075 57.8783 79.9353 57.8887 79.3433C57.8991 78.7514 58.1423 78.1873 58.5656 77.7734C58.9889 77.3595 59.5583 77.1291 60.1503 77.132C60.7424 77.135 61.3094 77.3711 61.7286 77.7892L74.4446 89.8457C74.6592 90.0491 74.8316 90.2927 74.9521 90.5626C75.0726 90.8326 75.1387 91.1237 75.1467 91.4192C75.1547 91.7147 75.1044 92.0089 74.9987 92.285C74.893 92.5611 74.7339 92.8137 74.5306 93.0283C74.3272 93.2429 74.0836 93.4154 73.8137 93.5359C73.5437 93.6564 73.2526 93.7225 72.9571 93.7305C72.6616 93.7384 72.3674 93.6881 72.0913 93.5824C71.8152 93.4767 71.5626 93.3177 71.348 93.1143L58.632 81.0578C58.6147 81.0376 58.5985 81.0255 58.5825 81.0136C58.5589 80.996 58.5358 80.9787 58.5102 80.936ZM47.271 90.3762L53.3208 97.0495C53.7219 97.4925 54.2825 97.758 54.8794 97.7875C55.4762 97.8171 56.0604 97.6084 56.5033 97.2072C56.9463 96.8061 57.2117 96.2455 57.2413 95.6486C57.2709 95.0518 57.0622 94.4676 56.661 94.0247L50.6041 87.3513C50.2005 86.9187 49.6429 86.6625 49.0519 86.6379C48.4608 86.6133 47.8839 86.8224 47.4458 87.22C47.0078 87.6175 46.7438 88.1716 46.7111 88.7622C46.6784 89.3529 46.8795 89.9327 47.271 90.3762ZM43.3356 112.181C43.3356 112.152 43.3067 112.127 43.279 112.102C43.2713 112.095 43.2637 112.089 43.2568 112.082C43.2515 112.077 43.2466 112.072 43.2424 112.066L30.2612 95.745C29.8899 95.2782 29.7191 94.683 29.7863 94.0903C29.8535 93.4976 30.1532 92.9558 30.6196 92.5839C31.0931 92.2263 31.6857 92.0641 32.2753 92.1308C32.8648 92.1975 33.4063 92.488 33.7879 92.9423L46.7691 109.264C47.1559 109.719 47.3461 110.309 47.2977 110.905C47.2493 111.5 46.9663 112.052 46.511 112.439C46.0557 112.826 45.4654 113.016 44.8699 112.968C44.2744 112.919 43.7225 112.636 43.3356 112.181ZM86.5317 89.1346C86.5192 89.7118 86.7289 90.2718 87.1176 90.6987L87.2896 90.8636L100.364 102.54C100.585 102.737 100.842 102.888 101.121 102.986C101.401 103.083 101.696 103.124 101.991 103.107C102.287 103.09 102.576 103.015 102.842 102.887C103.108 102.758 103.346 102.578 103.543 102.357C103.74 102.137 103.891 101.879 103.988 101.6C104.086 101.321 104.127 101.025 104.11 100.73C104.093 100.435 104.018 100.146 103.889 99.8797C103.761 99.6134 103.581 99.3752 103.36 99.1784L90.2858 87.509C89.8563 87.1232 89.2949 86.9172 88.7178 86.9337C88.1406 86.9501 87.5919 87.1878 87.185 87.5974C86.7782 88.007 86.5443 88.5573 86.5317 89.1346ZM102.557 85.0432C102.18 84.6158 101.979 84.0612 101.995 83.4913C102.01 82.9214 102.242 82.3787 102.642 81.9728C103.043 81.567 103.582 81.3282 104.152 81.3047C104.721 81.2812 105.279 81.4748 105.711 81.8463L117.18 91.9603C117.608 92.3599 117.864 92.9109 117.893 93.496C117.921 94.0812 117.721 94.6545 117.333 95.094C116.946 95.5336 116.403 95.8049 115.818 95.8501C115.234 95.8954 114.656 95.7111 114.205 95.3364L102.736 85.2224C102.67 85.17 102.61 85.1099 102.557 85.0432ZM156.052 84.183C156.084 84.2289 156.12 84.2721 156.16 84.3121V84.2834C156.558 84.6738 157.087 84.9025 157.644 84.9249C158.202 84.9474 158.748 84.7622 159.176 84.4051C159.604 84.048 159.885 83.5446 159.964 82.9923C160.042 82.4401 159.912 81.8784 159.6 81.4162L143.974 61.4104C143.794 61.1741 143.569 60.9762 143.312 60.8283C143.054 60.6805 142.77 60.5857 142.475 60.5496C142.181 60.5136 141.882 60.5369 141.596 60.6182C141.311 60.6996 141.044 60.8373 140.813 61.0233C140.58 61.2054 140.385 61.4316 140.239 61.689C140.094 61.9465 140 62.2301 139.964 62.5237C139.928 62.8172 139.951 63.115 140.03 63.4C140.109 63.6849 140.244 63.9515 140.426 64.1844L156.052 84.183ZM134.656 79.4594C134.275 79.0226 134.077 78.4556 134.104 77.8766C134.13 77.2976 134.379 76.7512 134.799 76.3511C135.218 75.9511 135.776 75.7283 136.355 75.7291C136.935 75.73 137.492 75.9544 137.91 76.3556L145.537 83.8748C145.961 84.2959 146.2 84.8682 146.202 85.4657C146.204 86.0632 145.969 86.6371 145.548 87.061C145.126 87.4849 144.554 87.7242 143.957 87.7262C143.359 87.7283 142.785 87.4928 142.361 87.0717L134.763 79.5741L134.656 79.4594ZM131.068 95.1207C131.033 95.6959 131.219 96.2629 131.588 96.7055L131.645 96.7771L141.05 106.468C141.255 106.683 141.5 106.854 141.772 106.973C142.044 107.092 142.336 107.156 142.633 107.162C142.93 107.168 143.225 107.114 143.501 107.006C143.777 106.897 144.028 106.735 144.241 106.528C144.455 106.322 144.625 106.075 144.742 105.803C144.86 105.53 144.922 105.237 144.926 104.94C144.93 104.644 144.875 104.349 144.764 104.074C144.654 103.799 144.49 103.548 144.282 103.336L134.878 93.6232C134.46 93.2261 133.907 93.0036 133.33 93.0014C132.754 92.9993 132.199 93.2175 131.778 93.6115C131.358 94.0056 131.104 94.5455 131.068 95.1207ZM128.764 130.467L114.822 114.998C114.422 114.555 114.214 113.971 114.244 113.375C114.274 112.779 114.54 112.219 114.983 111.819C115.426 111.419 116.01 111.211 116.606 111.241C117.202 111.272 117.762 111.537 118.162 111.98L132.104 127.456C132.504 127.899 132.712 128.483 132.682 129.079C132.651 129.675 132.386 130.235 131.943 130.635C131.5 131.035 130.916 131.243 130.32 131.213C129.724 131.183 129.164 130.917 128.764 130.474V130.467ZM77.373 106.5C77.3502 107.097 77.5654 107.679 77.9712 108.117L78.0286 108.153L94.2855 125.306C94.485 125.535 94.7287 125.721 95.0021 125.854C95.2755 125.986 95.5728 126.062 95.8762 126.076C96.1796 126.091 96.4828 126.043 96.7675 125.938C97.0523 125.832 97.3126 125.669 97.5329 125.46C97.7532 125.251 97.9288 124.999 98.0493 124.721C98.1698 124.442 98.2326 124.141 98.2339 123.838C98.2352 123.534 98.175 123.233 98.0569 122.953C97.9389 122.673 97.7654 122.42 97.547 122.209L81.2757 105.056C80.8698 104.618 80.3065 104.359 79.7096 104.336C79.1128 104.313 78.5313 104.528 78.0931 104.934C77.6549 105.34 77.3959 105.904 77.373 106.5ZM58.4171 122.826C58.0046 122.393 57.7807 121.814 57.7948 121.217C57.809 120.619 58.0599 120.052 58.4923 119.639C58.9248 119.227 59.5035 119.003 60.101 119.017C60.6985 119.031 61.266 119.282 61.6785 119.715L70.4234 128.503C70.8445 128.927 71.0799 129.5 71.0779 130.098C71.0759 130.695 70.8366 131.268 70.4127 131.689C69.9887 132.11 69.4149 132.345 68.8174 132.343C68.2198 132.341 67.6476 132.102 67.2265 131.678L58.4888 122.904L58.4171 122.826ZM37.9238 129.965L52.3744 146.552C52.7708 146.998 53.3284 147.269 53.9246 147.305C54.5207 147.341 55.1067 147.138 55.5534 146.742C56.0002 146.345 56.2712 145.788 56.3068 145.191C56.3424 144.595 56.1397 144.009 55.7434 143.563L41.3214 127.005C40.9209 126.568 40.3685 126.302 39.7779 126.261C39.1873 126.22 38.6033 126.406 38.146 126.782C37.695 127.175 37.4182 127.731 37.3766 128.328C37.3349 128.924 37.5317 129.513 37.9238 129.965ZM94.3357 138.86C93.9591 138.438 93.7552 137.89 93.7646 137.324C93.7739 136.759 93.9958 136.218 94.3862 135.808C94.7765 135.399 95.3067 135.152 95.8711 135.116C96.4355 135.079 96.9929 135.257 97.4323 135.613L109.31 145.354C109.538 145.543 109.727 145.774 109.866 146.035C110.005 146.297 110.091 146.583 110.119 146.877C110.147 147.172 110.117 147.469 110.031 147.752C109.944 148.035 109.803 148.298 109.614 148.526C109.426 148.755 109.195 148.944 108.933 149.082C108.672 149.221 108.386 149.307 108.091 149.336C107.797 149.364 107.5 149.334 107.217 149.247C106.934 149.161 106.671 149.019 106.442 148.831L94.5794 139.068C94.4938 139.004 94.4124 138.935 94.3357 138.86ZM77.6502 141.187C77.6361 141.784 77.86 142.363 78.2725 142.796L78.3585 142.882L85.5265 150.05C85.7364 150.258 85.9853 150.423 86.259 150.535C86.5328 150.648 86.8259 150.705 87.1218 150.704C87.4177 150.703 87.7104 150.644 87.9834 150.53C88.2563 150.415 88.5041 150.249 88.7126 150.039C88.9211 149.829 89.0863 149.58 89.1986 149.306C89.3109 149.032 89.3681 148.739 89.3671 148.443C89.3661 148.148 89.3069 147.855 89.1927 147.582C89.0786 147.309 88.9118 147.061 88.7019 146.853L81.5339 139.685C81.1214 139.252 80.5539 139.001 79.9564 138.987C79.3589 138.973 78.7803 139.197 78.3478 139.609C77.9153 140.022 77.6644 140.589 77.6502 141.187ZM129.33 148.157L116.85 134.402C116.459 133.958 116.258 133.379 116.29 132.788C116.323 132.197 116.587 131.643 117.025 131.246C117.463 130.848 118.04 130.639 118.631 130.664C119.222 130.688 119.78 130.944 120.183 131.377L132.67 145.132C133.071 145.575 133.28 146.159 133.25 146.756C133.221 147.353 132.955 147.914 132.512 148.315C132.069 148.716 131.485 148.925 130.888 148.895C130.292 148.866 129.731 148.6 129.33 148.157ZM141.919 123.419C142.023 123.696 142.181 123.95 142.383 124.166L142.419 124.216L152.196 134.352C152.401 134.564 152.646 134.735 152.917 134.853C153.188 134.971 153.479 135.034 153.775 135.039C154.071 135.045 154.364 134.992 154.639 134.884C154.914 134.776 155.165 134.614 155.378 134.409C155.797 133.989 156.038 133.424 156.05 132.831C156.062 132.238 155.844 131.663 155.443 131.226L145.673 121.091C145.471 120.875 145.228 120.701 144.959 120.578C144.69 120.456 144.399 120.388 144.104 120.378C143.808 120.368 143.514 120.416 143.237 120.52C142.96 120.624 142.706 120.781 142.49 120.983C142.274 121.185 142.1 121.428 141.978 121.697C141.855 121.966 141.787 122.257 141.777 122.552C141.767 122.848 141.816 123.143 141.919 123.419ZM159.142 102.11C158.761 101.672 158.564 101.103 158.592 100.523C158.621 99.9434 158.872 99.3969 159.294 98.998C159.716 98.5991 160.276 98.3788 160.857 98.383C161.437 98.3873 161.994 98.6158 162.41 99.0207L174.259 111.07C174.473 111.276 174.643 111.523 174.76 111.797C174.876 112.07 174.936 112.364 174.936 112.661C174.936 112.959 174.876 113.253 174.76 113.526C174.643 113.8 174.473 114.047 174.259 114.253C174.05 114.462 173.802 114.629 173.529 114.743C173.256 114.856 172.963 114.915 172.667 114.915C172.372 114.915 172.079 114.856 171.806 114.743C171.533 114.629 171.285 114.462 171.076 114.253L159.228 102.203L159.142 102.11ZM171.51 88.8015C171.48 89.3821 171.677 89.9515 172.058 90.3905C172.073 90.4131 172.093 90.4325 172.115 90.4478L182.717 101.35C183.133 101.778 183.702 102.023 184.299 102.031C184.896 102.039 185.472 101.81 185.899 101.393C186.124 101.195 186.304 100.952 186.429 100.679C186.554 100.407 186.621 100.111 186.625 99.8115C186.629 99.5119 186.57 99.2147 186.453 98.939C186.335 98.6633 186.161 98.4153 185.942 98.2107L175.334 87.3083C174.919 86.9012 174.362 86.6705 173.781 86.6645C173.2 86.6585 172.639 86.8776 172.215 87.2759C171.792 87.6743 171.539 88.221 171.51 88.8015ZM167.034 132.968C166.647 132.54 166.44 131.979 166.455 131.402C166.47 130.824 166.706 130.275 167.115 129.867C167.524 129.46 168.074 129.225 168.651 129.211C169.228 129.197 169.788 129.405 170.216 129.793L178.595 137.391C178.819 137.588 179.001 137.828 179.131 138.096C179.261 138.365 179.337 138.656 179.353 138.954C179.37 139.252 179.327 139.55 179.227 139.831C179.128 140.112 178.973 140.37 178.773 140.591C178.572 140.812 178.33 140.99 178.06 141.117C177.79 141.243 177.497 141.315 177.199 141.327C176.902 141.339 176.604 141.293 176.324 141.189C176.045 141.085 175.789 140.927 175.571 140.724L167.191 133.126L167.034 132.968ZM147.393 145.455L156.095 155.038C156.293 155.262 156.532 155.444 156.801 155.574C157.069 155.704 157.36 155.78 157.658 155.796C157.956 155.813 158.254 155.77 158.535 155.67C158.816 155.571 159.074 155.416 159.295 155.216C159.516 155.015 159.695 154.773 159.821 154.503C159.948 154.233 160.019 153.94 160.031 153.642C160.044 153.345 159.997 153.047 159.893 152.767C159.79 152.488 159.632 152.232 159.428 152.014L150.726 142.423C150.324 141.981 149.763 141.717 149.166 141.688C148.569 141.66 147.986 141.87 147.544 142.272C147.102 142.674 146.838 143.236 146.809 143.832C146.781 144.429 146.991 145.013 147.393 145.455ZM126.699 164.292C126.297 163.85 126.085 163.268 126.109 162.671C126.133 162.074 126.392 161.51 126.828 161.103C127.043 160.902 127.295 160.745 127.57 160.642C127.846 160.539 128.139 160.491 128.433 160.502C128.726 160.513 129.015 160.581 129.282 160.704C129.549 160.827 129.79 161.001 129.989 161.217L141.028 173.245C141.431 173.686 141.642 174.269 141.615 174.866C141.588 175.463 141.326 176.025 140.885 176.428C140.443 176.831 139.86 177.042 139.264 177.015C138.667 176.988 138.105 176.725 137.702 176.284L126.706 164.299L126.699 164.292ZM109.086 165.966C109.06 166.544 109.258 167.11 109.64 167.547L109.704 167.611L118.521 176.327C118.729 176.537 118.977 176.704 119.25 176.817C119.523 176.931 119.816 176.989 120.112 176.989C120.408 176.989 120.701 176.931 120.974 176.817C121.247 176.704 121.495 176.537 121.703 176.327C121.915 176.121 122.084 175.874 122.199 175.601C122.315 175.329 122.374 175.036 122.374 174.74C122.374 174.444 122.315 174.151 122.199 173.878C122.084 173.605 121.915 173.358 121.703 173.152L112.887 164.436C112.467 164.036 111.91 163.814 111.331 163.814C110.752 163.815 110.195 164.039 109.777 164.44C109.359 164.841 109.111 165.387 109.086 165.966ZM106.184 181.316C106.154 181.289 106.128 181.257 106.105 181.223L94.3787 166.772C94.1923 166.543 94.053 166.28 93.9686 165.997C93.8843 165.714 93.8567 165.417 93.8873 165.123C93.9179 164.83 94.0062 164.545 94.1472 164.286C94.2881 164.026 94.4788 163.797 94.7084 163.611C94.9347 163.417 95.1982 163.271 95.4827 163.182C95.7673 163.094 96.067 163.064 96.3635 163.095C96.66 163.125 96.9471 163.216 97.2073 163.362C97.4674 163.507 97.6952 163.705 97.8767 163.941L109.568 178.385C109.931 178.84 110.103 179.419 110.049 179.999C109.994 180.579 109.717 181.115 109.275 181.495C108.833 181.875 108.261 182.068 107.679 182.035C107.097 182.002 106.551 181.744 106.156 181.316H106.184ZM179.607 124.816C179.605 125.379 179.815 125.922 180.194 126.338C180.284 126.443 180.382 126.542 180.487 126.632L187.741 132.223C187.977 132.403 188.245 132.535 188.532 132.612C188.818 132.688 189.117 132.707 189.411 132.669C189.705 132.63 189.988 132.533 190.244 132.385C190.501 132.236 190.726 132.039 190.906 131.803C191.086 131.568 191.219 131.3 191.295 131.013C191.372 130.727 191.391 130.428 191.352 130.134C191.313 129.84 191.217 129.557 191.068 129.3C190.92 129.044 190.722 128.819 190.487 128.639L183.233 123.041C182.787 122.697 182.229 122.532 181.668 122.58C181.107 122.627 180.584 122.883 180.203 123.297C179.821 123.711 179.609 124.253 179.607 124.816Z" fill="#136E65"/>
</svg>
