<svg width="116" height="96" viewBox="0 0 116 96" fill="none" xmlns="http://www.w3.org/2000/svg">
<path fill-rule="evenodd" clip-rule="evenodd" d="M33.0158 4.73443C33.3289 3.98179 33.6817 3.24629 34.0728 2.53103C34.531 1.75548 35.1845 1.11364 35.9682 0.669542C36.7519 0.225444 37.6384 -0.00538139 38.5391 9.52318e-05C38.9868 -9.24683e-05 39.4325 0.0599988 39.8642 0.17875C40.942 0.484573 41.8917 1.13157 42.5708 2.02272C43.2499 2.91386 43.6218 4.00114 43.6308 5.12152C43.5155 6.95557 43.1447 8.76454 42.5291 10.496C42.1651 12.17 41.5897 13.7908 40.817 15.3197C40.2093 16.3232 39.2962 17.1058 38.2116 17.5529L38.1372 17.6869C38.0993 17.7665 38.0623 17.8461 38.0256 17.9252C37.9181 18.1568 37.8126 18.3842 37.6905 18.595C37.2909 19.2329 36.8377 19.8356 36.3357 20.3965C35.5148 21.215 34.4462 21.7391 33.2965 21.8872C32.1467 22.0353 30.9802 21.7991 29.9786 21.2153C28.7965 20.5185 27.9276 19.3938 27.5519 18.074C27.3136 17.1562 27.3136 16.1928 27.5519 15.275C27.8478 13.9855 28.2717 12.7286 28.8174 11.5233L30.1871 8.12887C30.4285 7.23782 30.901 6.42635 31.5567 5.77659L32.6287 4.94286L33.0158 4.73443ZM2.15317 21.4834C2.7338 20.2924 3.37398 19.146 4.02904 17.9997C4.51042 17.1839 5.19939 16.5102 6.02579 16.0473C6.8522 15.5845 7.78652 15.3488 8.73361 15.3645C9.35103 15.3666 9.96417 15.4671 10.5499 15.6623C11.3165 15.7457 12.057 15.9892 12.7236 16.3769C13.5444 16.8404 14.2277 17.5134 14.7036 18.3272L15.2545 19.6224C15.5074 20.6442 15.5074 21.7122 15.2545 22.734C15.0498 23.3181 14.8112 23.8898 14.5399 24.4461C14.4672 24.5914 14.4087 24.7226 14.3489 24.8568C14.2861 24.9977 14.2217 25.1419 14.1379 25.3096C13.9741 25.6371 13.8253 25.9795 13.6764 26.3219L13.6764 26.322C13.1686 27.7472 12.4833 29.1027 11.6367 30.3566C11.089 31.1626 10.455 31.9064 9.74598 32.5749C9.00458 33.2744 8.09978 33.7772 7.11417 34.0372C6.12856 34.2973 5.09351 34.3064 4.10348 34.0637C3.15145 33.8108 2.28464 33.3072 1.59336 32.6055C0.902084 31.9037 0.411627 31.0294 0.173087 30.0737C-0.0927112 28.7921 -0.0519015 27.4657 0.29219 26.2029C0.72644 24.5626 1.35101 22.9786 2.15317 21.4834ZM7.54273 49.651C7.42813 50.0878 7.31352 50.5239 7.19906 50.9594C6.76332 52.6175 6.32952 54.2682 5.90506 55.9188V56.0379L5.77107 56.2761C5.50309 56.7079 5.26489 57.1545 5.04157 57.6012C4.69915 58.286 4.40139 59.0006 4.11852 59.7152C3.53456 61.1322 3.43511 62.7023 3.83565 64.1816C4.10307 65.1061 4.61784 65.94 5.32444 66.5934C5.93236 67.459 6.77424 68.1335 7.75154 68.538C8.72886 68.9425 9.80116 69.0603 10.843 68.8775C11.8848 68.6948 12.853 68.2191 13.6343 67.5061C14.4156 66.7931 14.9776 65.8723 15.2546 64.8516C16.0479 62.1202 16.7532 59.3617 17.4572 56.6081C17.7969 55.2793 18.1364 53.9516 18.4853 52.6286C18.8662 51.186 18.6664 49.6515 17.9288 48.3544C17.1912 47.0574 15.9746 46.1012 14.54 45.6909C14.056 45.552 13.5548 45.4818 13.0512 45.4824C11.8034 45.4788 10.5889 45.8846 9.59386 46.6376C8.59884 47.3906 7.8783 48.4492 7.54273 49.651ZM34.5938 44.3809C34.8457 44.1399 35.1256 43.93 35.4275 43.7556V43.7854C36.0728 43.4058 36.8078 43.2056 37.5565 43.2056C38.3051 43.2056 39.0402 43.4058 39.6854 43.7854C40.342 44.1674 40.8903 44.7106 41.2784 45.3635L41.3677 45.5124L41.9781 45.9888C42.8327 46.7547 43.4349 47.7618 43.7051 48.877C43.9885 50.1306 43.9578 51.4347 43.6158 52.6735C43.5295 53.1205 43.4202 53.5627 43.2883 53.9985C43.0464 54.7779 42.7681 55.5451 42.4863 56.3222L42.4863 56.3222L42.395 56.5741C42.0178 57.8207 41.1898 58.8822 40.0725 59.5516C39.089 60.1572 37.9284 60.4093 36.7823 60.2663C36.3265 60.3914 35.8554 60.4516 35.3828 60.4449H35.2786C34.8712 60.6829 34.4203 60.8371 33.9524 60.8984C33.4846 60.9598 33.0092 60.9271 32.5541 60.8022C31.6686 60.55 30.9126 59.9697 30.4401 59.1794C30.1927 58.773 30.033 58.3194 29.9715 57.8476C29.91 57.3758 29.9479 56.8963 30.0827 56.4401L30.2167 56.0828C30.038 54.6719 30.2545 53.2391 30.842 51.9439C31.2887 50.872 31.7353 49.8001 32.1968 48.7282L32.3094 48.4728C32.5552 47.9148 32.804 47.35 33.0752 46.8076C33.1759 46.5839 33.2933 46.3518 33.4087 46.124L33.4087 46.1239L33.4087 46.1239L33.4087 46.1238L33.4088 46.1238L33.4088 46.1237L33.4088 46.1237C33.4469 46.0483 33.4849 45.9734 33.5218 45.8995L33.8345 45.3337C34.0328 44.9761 34.2895 44.6541 34.5938 44.3809ZM73.4513 44.7678C73.9554 44.7747 74.4562 44.8498 74.9401 44.9912C76.4397 45.3728 77.7319 46.3233 78.5429 47.6412C78.9532 48.3148 79.2182 49.0667 79.3207 49.8486C79.4233 50.6306 79.3612 51.4254 79.1385 52.182L78.6918 53.2837C78.7522 53.9737 78.6918 54.669 78.5132 55.3382C78.1141 56.9063 77.6169 58.4478 77.0244 59.9535C76.6224 61.0998 76.2056 62.2313 75.744 63.3479V63.4819C75.4697 64.4205 74.9568 65.272 74.2552 65.9533L73.1238 66.8168C72.3508 67.2694 71.48 67.5289 70.5854 67.5732C69.6907 67.6176 68.7986 67.4454 67.9847 67.0713C67.1708 66.6972 66.4591 66.1323 65.9101 65.4245C65.3612 64.7167 64.9911 63.8868 64.8312 63.0055C64.3642 62.3038 64.0568 61.5081 63.9307 60.6747C63.8047 59.8412 63.8631 58.9902 64.1017 58.1818C64.63 56.5545 65.2514 54.9588 65.9627 53.4028L65.9634 53.4012L65.9635 53.4008C66.5588 51.9127 67.154 50.4246 67.7344 49.0258C67.9951 48.0424 68.5083 47.1442 69.2232 46.4204L70.4291 45.4973C71.3541 44.9909 72.3971 44.7391 73.4513 44.7678ZM33.1052 79.2631C33.4676 78.0844 34.2664 77.0886 35.3384 76.4791C36.121 76.0461 37.005 75.8303 37.8991 75.8538C38.3419 75.8537 38.7826 75.9138 39.2092 76.0324C40.1966 76.3153 41.0725 76.8962 41.7173 77.6956C42.3622 78.495 42.7445 79.474 42.8121 80.4988C43.3389 81.4034 43.6211 82.4296 43.6309 83.4764L43.4076 85.0843C43.2488 85.8662 43.0093 86.6296 42.693 87.3621C42.5195 88.001 42.2375 88.6053 41.8593 89.1486L41.6657 89.6995C41.3977 90.4141 41.1 91.099 40.7873 91.7987C40.4117 92.5678 39.9083 93.2675 39.2985 93.8681C38.3928 94.7751 37.2124 95.3569 35.9414 95.5227C34.6704 95.6886 33.3803 95.4292 32.2721 94.7851C31.164 94.1409 30.3001 93.1482 29.8152 91.9616C29.3304 90.7751 29.2518 89.4615 29.5917 88.2256C29.9043 87.2877 30.2467 86.3646 30.604 85.4416C30.7082 85.0991 30.8274 84.7567 30.9465 84.4292C31.0316 84.1597 31.1302 83.8869 31.2294 83.6122L31.2295 83.6121C31.3386 83.3102 31.4484 83.0062 31.542 82.7022C31.6015 82.4193 31.6611 82.1514 31.7355 81.8834C31.9674 81.0305 32.3899 80.2415 32.9712 79.5758L33.1052 79.2631ZM87.6541 12.2827C86.6244 12.5714 85.6862 13.12 84.9296 13.8757C84.1193 14.6468 83.4226 15.529 82.8602 16.496C82.5842 16.9139 82.3307 17.3462 82.1009 17.7912C81.6865 18.5903 81.338 19.4218 81.0588 20.2775C80.7722 21.2819 80.6023 22.316 80.5526 23.3593C80.4031 24.7486 80.6948 26.1498 81.3863 27.3641C81.9094 28.6448 82.8341 29.7211 84.0214 30.431C85.1622 31.0864 86.48 31.3671 87.7888 31.2335C89.0977 31.1 90.3316 30.5589 91.3165 29.6866C91.8336 29.3469 92.2913 28.9244 92.6713 28.436C93.2604 27.7071 93.8025 26.9413 94.2941 26.1433C94.8739 25.1848 95.3103 24.1465 95.5893 23.0615C95.9017 21.9061 95.9017 20.6885 95.5893 19.5331L95.4851 19.2056C95.6243 18.3465 95.5735 17.4673 95.3362 16.63C95.2334 16.3689 95.1264 16.1121 95.0174 15.8506C94.9212 15.6198 94.8235 15.3854 94.7258 15.1412C94.1991 14.2427 93.4507 13.4943 92.5522 12.9675L92.4331 12.8782C91.4881 12.3312 90.4134 12.0484 89.3215 12.0594L87.6541 12.2827ZM103.91 37.6947C104.293 37.1834 104.775 36.7537 105.326 36.4307C106.085 35.9712 106.955 35.7292 107.842 35.731C108.724 35.7486 109.586 35.9948 110.343 36.4456L111.341 37.2198C111.956 37.848 112.393 38.6292 112.606 39.4827L112.83 40.1973C113.78 40.6922 114.586 41.4259 115.167 42.3263C115.713 43.2806 116 44.3608 116 45.4602C116 46.5595 115.713 47.6398 115.167 48.5941C114.656 49.5066 114.251 50.419 113.847 51.3315C113.591 51.9078 113.335 52.4841 113.053 53.0604C112.853 53.4944 112.63 53.9169 112.383 54.3259C112.073 54.8546 111.714 55.353 111.311 55.8147C110.931 56.3564 110.418 56.792 109.822 57.0802C108.882 57.7413 107.756 58.0855 106.606 58.0628C106.011 58.0032 105.401 57.9288 104.805 57.8246C103.828 57.5602 102.935 57.0473 102.215 56.3358C101.349 55.4813 100.736 54.4046 100.443 53.2242C100.167 51.9888 100.167 50.7079 100.443 49.4725L100.562 48.8769C100.904 47.2988 101.292 45.7803 101.723 44.1873C101.824 43.817 101.922 43.4411 102.022 43.0635C102.349 41.8165 102.682 40.551 103.093 39.4083C103.249 38.7885 103.526 38.2059 103.91 37.6947ZM82.786 78.6378C81.0313 79.1369 79.5408 80.3014 78.6323 81.8834C78.1422 82.7104 77.7333 83.5829 77.4115 84.4888C77.248 84.8401 77.128 85.2101 77.0542 85.5905C76.9351 86.32 76.816 87.0793 76.7415 87.7939C76.6056 89.1339 76.9484 90.4788 77.7092 91.5903C78.3288 92.7679 79.3249 93.7041 80.5387 94.2495C81.7524 94.795 83.1139 94.9181 84.4058 94.5994C85.6978 94.2807 86.8457 93.5385 87.6666 92.4912C88.4875 91.4439 88.9339 90.1518 88.9347 88.8211L88.9347 88.821L88.9348 88.8208C89.039 88.4041 89.1431 87.9873 89.2324 87.5705C89.3218 87.1537 89.3962 86.8559 89.4855 86.5135L89.6046 85.9924C89.7503 85.4235 89.8204 84.8378 89.8131 84.2506C89.8454 83.6681 89.78 83.0844 89.6195 82.5236C89.2391 81.1259 88.3248 79.9336 87.0737 79.2036C86.2446 78.7141 85.297 78.4617 84.3343 78.4741C83.8141 78.4785 83.2956 78.5334 82.786 78.6378ZM61.1835 3.61778L62.5234 2.57563C63.5397 1.96491 64.7024 1.64079 65.8881 1.6377C67.3465 1.63649 68.7652 2.11339 69.9268 2.99535C71.0885 3.87731 71.929 5.11572 72.3196 6.52092C72.7047 7.89265 72.6788 9.34723 72.2452 10.7044C72.1261 11.017 72.007 11.3297 71.9028 11.6423L71.7241 12.1485C71.7463 12.4409 71.7463 12.7345 71.7241 13.0269C71.7101 13.6558 71.6202 14.2806 71.4561 14.8879C71.288 15.4097 71.0789 15.9175 70.8308 16.4065C70.414 17.1955 70.0418 17.9995 69.6696 18.8183C69.4388 19.7044 69.2117 20.5904 68.9846 21.4765C68.7576 22.3621 68.5306 23.2477 68.2999 24.1333C68.0814 24.9854 67.6954 25.7855 67.1643 26.4869C66.6333 27.1882 65.9679 27.7768 65.2069 28.2183C64.446 28.6597 63.6047 28.9452 62.7323 29.058C61.8598 29.1709 60.9736 29.1088 60.1254 28.8755C59.2772 28.6422 58.4839 28.2423 57.7919 27.6992C57.0999 27.156 56.523 26.4804 56.0948 25.7119C55.6667 24.9434 55.3959 24.0973 55.2983 23.223C55.2006 22.3487 55.2781 21.4638 55.5261 20.6197L56.0174 18.6247C55.9191 17.7617 55.9847 16.8878 56.211 16.0491C56.5606 14.5154 57.0593 13.0196 57.6997 11.5828L58.4292 9.70692C58.727 8.64988 59.0694 7.62262 59.4714 6.59535C59.7691 5.46904 60.3598 4.44167 61.1835 3.61778Z" fill="#136E65"/>
</svg>
