<svg width="312" height="285" viewBox="0 0 312 285" fill="none" xmlns="http://www.w3.org/2000/svg">
<g opacity="0.7">
<path opacity="0.7" d="M58.7529 0C59.5029 2.52 55.5329 6.56 48.9129 12.92C46.6095 14.9833 44.4604 17.2126 42.4829 19.59C33.7266 32.477 26.8414 46.5402 22.0329 61.36C19.8429 68.44 17.0329 75.47 14.4029 82.26C10.6729 91.76 6.80286 101.58 4.53286 111.56C2.35465 121.104 1.73664 130.938 2.70286 140.68C2.96286 143.29 3.14286 146.07 3.32286 148.91C3.73286 155.45 4.17286 162.22 5.63286 167.99C11.3429 190.4 30.8129 219.84 49.0329 233.62L53.5829 237.07C70.4529 249.86 87.8929 263.07 107.353 270.93C121.663 276.7 140.813 283.19 161.983 282.16L164.983 282.01C177.453 281.4 190.343 280.77 202.793 281.25C204.933 281.34 207.073 281.46 209.223 281.59C216.413 282.02 223.853 282.46 231.013 281.16C269.123 274.24 301.193 237.11 310.113 225.89L311.883 227.3C302.883 238.68 270.313 276.3 231.413 283.39C223.993 284.74 216.413 284.29 209.093 283.85C206.963 283.73 204.833 283.6 202.703 283.52C190.353 283.04 177.513 283.67 165.093 284.28L162.093 284.43C140.483 285.48 121.033 278.89 106.503 273.03C86.7629 265.08 69.2029 251.76 52.2129 238.87L47.6629 235.43C29.0529 221.43 9.21286 191.38 3.44286 168.55C1.93286 162.55 1.49286 155.7 1.06286 149.06C0.882856 146.24 0.712856 143.49 0.452856 140.9C-0.535293 130.918 0.0961797 120.841 2.32286 111.06C4.64286 100.91 8.54286 91.06 12.3229 81.43C14.9829 74.68 17.7329 67.69 19.8929 60.69C24.7606 45.6496 31.7403 31.377 40.6229 18.3C42.6747 15.7931 44.9217 13.4524 47.3429 11.3C50.6629 8.09 56.8629 2.14 56.5829 0.64L58.7529 0Z" fill="#FF4617"/>
<path opacity="0.7" d="M158.723 107.49L160.403 109.02C155.803 114.02 153.333 120.12 153.783 125.22C153.964 127.125 154.552 128.969 155.508 130.627C156.464 132.285 157.765 133.718 159.323 134.83C164.023 138.45 172.773 140.98 178.323 138.98C179.69 138.505 180.905 137.674 181.842 136.571C182.779 135.469 183.404 134.136 183.653 132.71L185.873 133.21C185.539 135.008 184.737 136.685 183.546 138.072C182.355 139.46 180.819 140.508 179.093 141.11C172.663 143.44 163.093 140.59 157.973 136.62C156.16 135.325 154.648 133.654 153.54 131.721C152.432 129.788 151.754 127.639 151.553 125.42C151.033 119.62 153.633 113.08 158.723 107.49Z" fill="#FF4617"/>
<path opacity="0.7" d="M145.093 97.5601L146.533 99.3101C140.963 103.94 140.533 112.8 140.223 119.92C140.173 120.92 140.133 121.86 140.073 122.78C139.403 133.83 144.403 138.62 155.153 144.61C161.343 148.05 180.713 153.8 190.153 149.28C191.472 148.706 192.624 147.805 193.499 146.663C194.373 145.52 194.943 144.174 195.153 142.75L197.383 143.14C197.108 144.925 196.386 146.612 195.285 148.044C194.183 149.476 192.738 150.606 191.083 151.33C181.083 156.08 161.363 150.69 153.993 146.59C142.643 140.27 136.993 134.83 137.753 122.59C137.803 121.69 137.853 120.74 137.893 119.77C138.303 112.25 138.743 102.83 145.093 97.5601Z" fill="#FF4617"/>
<path opacity="0.7" d="M138.563 84L140.183 85.59C132.822 93.3724 127.674 102.981 125.273 113.42C122.013 128.36 122.773 137.42 136.143 148.16C149.513 158.9 183.263 180.6 210.143 149.76L211.853 151.25C192.033 174 163.903 173.55 134.723 149.94C120.593 138.46 119.723 128.49 123.053 112.94C125.555 102.085 130.909 92.094 138.563 84Z" fill="#FF4617"/>
<path opacity="0.7" d="M128.793 68.31C120.063 84.64 115.183 103.16 115.793 117.87C116.543 137.37 123.793 149.25 140.963 158.87C143.193 160.12 145.563 161.52 148.053 163C159.493 169.77 173.723 178.19 185.953 178.53C201.333 178.94 216.953 171.53 227.663 158.79L229.403 160.25C218.223 173.55 201.953 181.25 185.893 180.79C173.073 180.44 158.563 171.85 146.893 164.95C144.423 163.48 142.063 162.09 139.893 160.84C121.983 150.77 114.353 138.34 113.573 117.94C112.993 102.85 117.973 83.94 126.883 67.23L128.793 68.31Z" fill="#FF4617"/>
<path opacity="0.7" d="M119.623 60C118.993 62.79 117.343 65.73 115.743 68.58C114.214 71.0518 112.969 73.6886 112.033 76.44C110.975 80.5732 110.173 84.7679 109.633 89C109.253 91.51 108.853 94.12 108.373 96.57C105.583 110.78 103.443 131.57 109.173 150.04C112.843 161.84 125.263 172.73 142.403 179.19C144.216 179.857 146.036 180.553 147.863 181.28C163.453 187.28 179.573 193.54 195.653 188.53L197.653 187.92C212.803 183.22 229.963 177.92 240.063 165.52L241.823 166.95C231.293 179.85 213.823 185.29 198.323 190.08L196.323 190.69C179.483 195.94 162.993 189.56 147.033 183.4C145.213 182.69 143.393 181.99 141.593 181.31C123.803 174.61 110.873 163.17 107.003 150.71C101.133 131.82 103.293 110.6 106.143 96.13C106.613 93.73 107.003 91.13 107.383 88.66C107.944 84.3461 108.772 80.0712 109.863 75.86C110.84 72.9484 112.145 70.1571 113.753 67.54C115.343 64.72 116.843 62.05 117.403 59.54L119.623 60Z" fill="#FF4617"/>
<path opacity="0.7" d="M113.113 44.8799C113.273 45.7499 112.553 47.3699 108.563 55.0699C107.203 57.6799 105.933 60.1499 105.343 61.4799C103.793 65.0199 102.053 68.3199 100.343 71.4799C96.7029 78.4699 93.2429 84.9999 92.0329 93.2899C87.1129 125.71 88.6129 147.65 96.6329 160.36C104.543 172.91 123.823 185.73 138.793 191.91C161.193 201.16 183.263 209.03 206.983 203.81C215.153 202 222.353 197.47 229.033 193C235.473 188.67 247.153 180.27 253.033 172.69L254.823 174.08C248.733 181.91 236.823 190.48 230.293 194.88C223.433 199.47 216.033 204.13 207.433 206C183.083 211.36 159.723 203 137.883 194C122.593 187.68 102.883 174.51 94.6729 161.56C86.3529 148.37 84.7429 125.92 89.7529 92.9399C91.0529 84.3099 94.6029 77.5799 98.3629 70.4499C100.023 67.2899 101.753 64.0199 103.273 60.5599C103.883 59.1599 105.173 56.6599 106.543 54.0199C108.213 50.7999 110.733 45.9399 110.873 45.0199L113.113 44.8799Z" fill="#FF4617"/>
<path opacity="0.7" d="M103.913 39.73C100.613 46.88 96.583 54.16 92.313 61.87C87.313 70.87 82.173 80.21 78.313 89.29C64.613 121.38 64.593 149.22 78.253 172.05C89.333 190.58 119.003 199.77 140.663 206.48C142.533 207.06 144.343 207.62 146.063 208.17L151.623 209.95C169.863 215.86 194.823 223.95 211.533 216.68C228.243 209.41 252.693 195.11 267.323 180.68L268.913 182.3C254.073 196.89 229.243 211.4 212.443 218.72C194.943 226.33 169.503 218.09 150.933 212.07L145.383 210.29L139.993 208.61C117.993 201.79 87.843 192.45 76.303 173.18C62.303 149.69 62.223 121.18 76.233 88.36C80.153 79.17 85.333 69.8 90.353 60.74C94.603 53.06 98.613 45.82 101.873 38.74L103.913 39.73Z" fill="#FF4617"/>
<path opacity="0.7" d="M99.8027 29.3201L98.6727 31.1001C86.7827 49.8301 75.5527 67.5301 67.5027 89.0001L66.2027 92.4301C62.0827 103.3 58.2027 113.57 58.0927 125.48C58.0327 137.78 60.0327 148.31 62.4327 159.82L62.5527 160.35C64.8827 171.4 66.5527 179.35 75.0227 187.42C84.7727 196.69 96.9327 202.81 108.693 208.74L112.543 210.68C137.783 223.51 172.353 241.07 205.673 236.33C207.493 236.07 209.423 235.85 211.403 235.64C217.623 234.95 224.053 234.24 229.193 231.92C232.483 230.44 235.443 227.83 238.313 225.3C240.312 223.459 242.434 221.755 244.663 220.2C247.443 218.36 250.513 216.48 253.763 214.49C264.053 208.19 275.763 201.05 282.193 192.73L283.983 194.12C277.253 202.77 265.403 210.02 254.983 216.42C251.743 218.42 248.693 220.28 245.983 222.09C243.844 223.587 241.809 225.228 239.893 227C236.893 229.64 233.803 232.37 230.203 234C224.743 236.46 218.123 237.19 211.733 237.9C209.733 238.11 207.873 238.32 206.073 238.58C172.073 243.42 137.073 225.67 111.593 212.71L107.753 210.77C95.8427 204.77 83.5527 198.58 73.5427 189.07C64.5427 180.55 62.8327 172.28 60.4127 160.83L60.2927 160.3C57.8327 148.65 55.7927 137.99 55.9027 125.48C56.0027 113.17 59.9727 102.72 64.1627 91.6501L65.4527 88.2301C73.5927 66.5201 84.8827 48.7301 96.8327 29.9001L97.9627 28.1101L99.8027 29.3201Z" fill="#FF4617"/>
<path opacity="0.7" d="M86.3927 15.5099C81.1827 27.7799 75.0327 40.2299 69.1227 52.2599C61.1227 68.4399 52.9127 85.1699 46.5627 102.08C37.7227 125.64 41.7527 160.08 55.9427 182.08C75.0327 211.8 96.1527 229.29 126.603 240.59C153.113 250.43 186.043 255.19 219.313 253.98C251.223 252.82 273.913 230.49 296.233 205.73L297.923 207.25C275.253 232.39 252.193 255.05 219.393 256.25C185.833 257.47 152.603 252.67 125.813 242.72C94.8727 231.23 73.4027 213.48 54.0327 183.35C39.4827 160.73 35.3527 125.45 44.4327 101.28C50.8127 84.2799 59.0827 67.4899 67.0727 51.2799C72.9927 39.2799 79.0727 26.8599 84.2927 14.6499L86.3927 15.5099Z" fill="#FF4617"/>
<path opacity="0.7" d="M79.0929 3.92994C78.0329 8.83994 74.3329 13.3399 70.7629 17.6899C69.2629 19.5299 67.8329 21.2699 66.6329 23.0099C61.4729 30.4399 57.3629 38.8599 53.3829 47.0099C52.5429 48.7199 51.7129 50.4299 50.8729 52.1199C49.7429 54.4099 48.5829 56.6899 47.4229 58.9799C39.9229 73.7999 32.1629 89.1199 30.2529 105.52C29.5829 111.18 27.8329 116.15 26.1329 120.97C25.2329 123.51 24.3129 126.14 23.5529 128.84C21.2329 137.11 21.5029 149.1 21.8729 155.51C23.3829 182.07 43.2029 205.81 51.6529 214.79C57.8229 221.34 65.4129 226.31 72.7529 231.12C74.4729 232.24 76.1896 233.373 77.9029 234.52C81.5129 237 85.0329 239.7 88.3329 242.34C93.6729 246.55 99.1929 250.91 105.333 254C123.203 263 142.333 264.46 156.923 264.7C164.857 264.665 172.782 264.144 180.653 263.14C191.043 262.02 201.783 260.87 212.573 262.06C223.643 263.28 232.673 263.53 243.453 261C252.033 259 258.293 253.77 264.923 248.24C267.553 246.05 270.273 243.78 273.143 241.73C277.563 238.58 281.983 234.19 286.263 229.94C292.693 223.56 299.343 216.94 306.513 213.94L307.393 216.03C300.623 218.88 294.133 225.33 287.863 231.56C283.523 235.87 279.033 240.33 274.463 243.56C271.663 245.56 268.973 247.8 266.383 249.96C259.833 255.42 253.073 261.06 243.973 263.19C232.913 265.79 223.323 265.51 212.323 264.3C201.783 263.13 191.163 264.3 180.893 265.37C172.933 266.387 164.918 266.915 156.893 266.95C142.023 266.7 122.603 265.24 104.323 256.01C98.0029 252.81 92.3829 248.38 86.9529 244.1C83.6429 241.48 80.2129 238.78 76.6629 236.39C74.9729 235.25 73.2529 234.13 71.5429 233C64.0329 228.14 56.3629 223.1 50.0329 216.35C41.4129 207.19 21.1929 182.95 19.6329 155.65C19.2629 149.1 18.9929 136.83 21.4029 128.24C22.1729 125.46 23.1129 122.8 24.0229 120.24C25.7529 115.33 27.3929 110.69 28.0229 105.24C29.9629 88.4699 37.8129 72.9999 45.4029 57.9999C46.5529 55.7099 47.7129 53.4299 48.8429 51.1599C49.6729 49.4699 50.5129 47.7599 51.3429 46.0499C55.3429 37.8199 59.5129 29.3099 64.7729 21.7399C66.0329 19.8999 67.5429 18.0499 69.0329 16.2499C72.4229 12.1099 75.9329 7.82994 76.9029 3.43994L79.0929 3.92994Z" fill="#FF4617"/>
</g>
</svg>
