<svg width="351" height="343" viewBox="0 0 351 343" fill="none" xmlns="http://www.w3.org/2000/svg">
<path d="M96.4708 268.145C80.3669 251.11 65.4898 232.903 50.4723 214.888C39.2183 201.331 28.2052 186.198 28.3857 166.748C28.8173 132.992 77.553 109.037 102.993 95.7495C144.929 73.848 188.948 58.468 231.611 38.8556C231.927 38.686 232.267 38.5789 232.607 38.5411C232.948 38.5032 233.282 38.5353 233.59 38.6355C245.89 33.3467 258.35 30.041 268.939 32.3515C289.871 36.9217 269.239 83.9096 264.605 96.2445C252.071 129.904 239.912 162.52 229.287 196.71C222.737 217.853 215.353 238.748 207.644 259.625C202.217 274.399 196.077 291.211 184.286 302.924C149.805 337.397 114.719 287.394 96.4708 268.145Z" fill="#00A5CE"/>
<path d="M255.144 79.5162C256.821 82.0075 253.12 90.0902 250.812 86.6817C249.13 84.1755 252.851 76.1014 255.144 79.5162Z" fill="#FFFBE9"/>
<path d="M255.249 63.9735L255.639 64.0625C257.933 64.5498 257.374 67.83 256.762 69.6132C256.608 70.2627 256.284 70.8818 255.823 71.4034C255.362 71.9251 254.782 72.3295 254.147 72.5729C253.922 72.6408 253.691 72.6284 253.496 72.538C253.301 72.4476 253.155 72.2852 253.084 72.0806C252.786 71.8523 252.544 71.56 252.374 71.2209C252.205 70.8818 252.11 70.5027 252.096 70.106L252.074 69.3722C251.963 68.0311 252.845 63.465 255.249 63.9735Z" fill="#FFFBE9"/>
<path d="M234.149 69.7391L234.509 69.5923C236.015 69.162 236.836 70.5545 236.907 71.8373L237.151 71.9539C238.209 72.4033 237.509 75.3284 236.297 75.6225C236.297 75.6225 236.203 75.6609 236.172 75.6736C235.877 76.327 235.453 76.9296 234.929 77.4417C230.387 81.6827 229.495 71.0365 234.149 69.7391Z" fill="#FFFBE9"/>
<path d="M217.94 87.9647C218.055 87.9179 218.174 87.8941 218.292 87.8948C218.409 87.8955 218.522 87.9206 218.623 87.9687C218.794 88.0389 218.955 88.1291 219.102 88.2376C220.189 88.1928 220.401 89.8962 220.316 90.6928C220.249 92.392 219.61 94.0986 218.501 95.5408C218.25 95.8665 217.922 96.1276 217.552 96.2946C217.183 96.4617 216.789 96.528 216.413 96.4859C216.037 96.4439 215.695 96.2953 215.427 96.0569C215.158 95.8185 214.972 95.4999 214.892 95.1372C214.166 93.0463 215.756 88.3234 217.94 87.9647Z" fill="#FFFBE9"/>
<path d="M238.865 88.3785C239.705 88.3505 239.898 89.3101 239.859 90.2483L239.97 90.6314C240.334 91.8838 239.409 96.5082 237.147 95.3346C234.885 94.161 235.594 88.438 238.865 88.3785Z" fill="#FFFBE9"/>
<path d="M243.811 121.124C244.314 122.092 244.531 123.211 244.44 124.369C244.349 125.527 243.955 126.682 243.295 127.718C242.363 129.255 240.238 130.765 239.073 129.022C238.574 128.054 238.361 126.935 238.455 125.778C238.549 124.622 238.947 123.469 239.609 122.436C240.537 120.884 242.654 119.411 243.811 121.124Z" fill="#FFFBE9"/>
<path d="M213.469 145.357C213.614 145.369 213.751 145.41 213.873 145.475C214.313 145.596 214.771 145.593 215.224 145.759C215.677 145.925 215.652 147.253 215.398 147.657C214.586 149.43 213.553 151.119 212.326 152.681C212.073 153.043 211.728 153.338 211.333 153.53C210.939 153.722 210.513 153.801 210.108 153.759C209.702 153.717 209.335 153.555 209.051 153.293C208.768 153.031 208.58 152.68 208.511 152.284C208.187 151.241 208.16 150.092 208.433 148.952C208.707 147.812 209.271 146.722 210.068 145.792C210.27 145.506 210.529 145.262 210.826 145.079C211.123 144.895 211.449 144.778 211.779 144.736C212.109 144.693 212.434 144.728 212.727 144.835C213.02 144.943 213.274 145.122 213.469 145.357Z" fill="#FFFBE9"/>
<path d="M51.6228 146.536C51.7842 148.13 49.9086 154.686 47.1346 152.712C46.9309 152.612 47.0833 152.534 47.4323 152.591C44.4909 153.257 45.9012 148.368 46.8809 147.09C46.5647 147.451 46.4864 147.483 46.6458 147.185C47.7304 144.022 51.2599 142.966 51.6228 146.536Z" fill="#FFFBE9"/>
<path d="M28.488 163.406C31.3715 164.532 28.5219 171.888 26.0243 170.292C24.0528 169.011 25.8142 162.345 28.488 163.406Z" fill="#FFFBE9"/>
<path d="M51.0293 185.053L50.9457 185.551C50.7277 186.916 49.8779 190.03 47.8611 189.824C45.8442 189.617 46.3142 186.458 46.932 185.146C47.0072 184.983 47.0626 184.811 47.1421 184.663C48.413 181.858 51.5504 181.708 51.0293 185.053Z" fill="#FFFBE9"/>
<path d="M88.9455 149.063C89.0179 149.028 89.0923 148.997 89.1679 148.973C89.2791 148.927 89.3903 148.882 89.5173 148.83C90.7245 148.338 91.3421 149.008 91.6516 150.09C91.6731 150.165 91.6817 150.195 91.7032 150.27L91.7848 150.556C92.0216 151.537 92.0025 152.595 91.7293 153.64C91.4561 154.684 90.9371 155.682 90.2175 156.547C88.7672 158.111 87.0485 158.242 85.187 158.431C83.3254 158.62 84.1812 154.916 84.7687 154.055C85.7698 152.129 87.2049 150.414 88.9455 149.063Z" fill="#FFFBE9"/>
<path d="M56.2173 159.511C56.7539 160.562 56.9822 161.775 56.8793 163.027C56.7764 164.279 56.3459 165.527 55.6309 166.647C54.6152 168.318 52.3358 169.956 51.0722 168.055C50.5344 167.008 50.3045 165.8 50.4054 164.551C50.5063 163.302 50.9346 162.057 51.6472 160.94C52.663 159.27 54.9423 157.631 56.2173 159.511Z" fill="#FFFBE9"/>
<path d="M72.3921 172.479C72.8302 173.344 73.0145 174.34 72.9265 175.369C72.8385 176.397 72.4812 177.422 71.8906 178.34C71.0731 179.731 69.2005 181.088 68.1374 179.519C67.6856 178.653 67.4913 177.651 67.5744 176.615C67.6575 175.578 68.0151 174.545 68.6105 173.62C69.5032 172.248 71.3162 170.866 72.3921 172.479Z" fill="#FFFBE9"/>
<path d="M85.1827 170.855L85.0988 171.286C84.7954 172.878 82.8148 176.54 80.7705 175.24C78.7263 173.941 79.8225 169.566 81.3898 167.658L81.6028 167.373C84.4102 163.987 85.5699 168.832 85.1827 170.855Z" fill="#FFFBE9"/>
<path d="M71.8684 140.94C73.3911 143.196 70.0265 150.514 67.9669 147.484C66.4357 145.197 69.796 137.865 71.8684 140.94Z" fill="#FFFBE9"/>
<path d="M163.438 252.109C165.633 251.597 166.118 253.511 165.913 255.558C166.187 257.938 164.58 264.726 161.317 262.687C158.053 260.647 158.968 253.149 163.438 252.109Z" fill="#FFFBE9"/>
<path d="M181.149 241.745L181.119 241.642C181.217 241.671 181.31 241.71 181.396 241.76L181.489 241.722C181.118 241.577 181.997 241.862 182.001 241.877C182.142 241.978 182.251 242.116 182.316 242.28C182.382 242.443 182.403 242.626 182.377 242.812C182.432 243.003 182.488 243.195 182.548 243.401C182.856 244.462 181.632 249.307 179.873 247.781C179.2 247.202 178.787 246.375 178.707 245.446C178.627 244.518 178.886 243.546 179.437 242.703C179.61 242.398 179.868 242.141 180.175 241.969C180.482 241.797 180.822 241.719 181.149 241.745Z" fill="#FFFBE9"/>
<path d="M161.789 220.098C161.849 220.511 161.964 220.907 162.132 221.275C162.517 222.599 161.114 228.465 158.849 226.736C158.631 226.542 158.395 226.368 158.144 226.215C155.68 225.405 156.291 221.686 157.5 219.666C159.083 217.034 161.341 217.549 161.789 220.098Z" fill="#FFFBE9"/>
<path d="M138.154 241.007C139.921 241.942 138.388 246.814 137.419 247.918C136.953 248.519 136.32 248.974 135.618 249.213C133.73 249.666 133.046 247.481 133.281 245.947C133.518 244.416 134.03 242.903 134.792 241.481C134.91 241.119 135.135 240.787 135.435 240.532C135.735 240.277 136.096 240.112 136.466 240.06C136.837 240.008 137.198 240.071 137.501 240.241C137.803 240.411 138.032 240.679 138.154 241.007Z" fill="#FFFBE9"/>
<path d="M157.066 236.831C159.215 236.752 159.143 239.97 158.712 241.457C158.282 242.943 157.54 244.806 155.961 245.283C155.699 245.385 155.428 245.45 155.158 245.477C152.355 246.021 152.887 241.421 154.023 239.829C154.223 239.549 154.402 239.26 154.597 238.965C154.746 238.416 155.07 237.908 155.518 237.521C155.965 237.134 156.51 236.891 157.066 236.831Z" fill="#FFFBE9"/>
<path d="M178.357 221.929C180.975 221.079 180.61 225.501 179.994 226.877C179.448 228.404 178.411 229.767 177.059 230.739C174.805 232.186 175.102 228.918 175.759 227.143C175.659 225.163 176.377 222.569 178.357 221.929Z" fill="#FFFBE9"/>
<path d="M145.395 211.708C146.917 212.446 147.158 214.187 147.492 215.707C147.718 216.492 147.273 219.787 145.688 219.372C144.498 219.061 143.681 219.857 142.531 219.679C140.118 219.303 141.029 215.322 141.962 213.717L142.197 213.323C142.961 212.102 144.168 211.081 145.395 211.708Z" fill="#FFFBE9"/>
<path d="M129.165 261.149C131.51 259.451 132.367 262.475 132.312 264.15C132.335 265.238 132.074 266.352 131.553 267.386C131.032 268.419 130.27 269.337 129.339 270.052C126.678 271.861 126.286 268.401 126.803 265.976C126.824 265.094 127.049 264.201 127.458 263.365C127.867 262.529 128.451 261.771 129.165 261.149Z" fill="#FFFBE9"/>
<path d="M101.585 204.449L101.832 204.464C103.435 204.489 103.44 206.78 103.09 208.324C103.008 210.435 101.868 214.279 99.6779 213.008C98.7036 212.287 98.1033 211.174 98.0043 209.906C97.9053 208.637 98.3154 207.313 99.1477 206.214C99.3745 205.741 99.7239 205.324 100.155 205.011C100.587 204.699 101.082 204.504 101.585 204.449Z" fill="#FFFBE9"/>
<path d="M138.769 171.274C140.203 173.402 137.045 180.24 135.103 177.376C133.698 175.286 136.851 168.434 138.769 171.274Z" fill="#FFFBE9"/>
<path d="M153.072 186.954L153.254 188.185C153.38 189.043 152.583 192.243 151.072 191.832L150.281 191.625C146.041 190.44 152.32 181.706 153.072 186.954Z" fill="#FFFBE9"/>
<path d="M143.128 148.079C143.659 149.079 143.888 150.242 143.791 151.445C143.694 152.648 143.276 153.847 142.579 154.917C141.629 156.511 139.466 158.068 138.248 156.265C137.723 155.264 137.496 154.104 137.589 152.903C137.683 151.703 138.095 150.505 138.782 149.433C139.779 147.82 141.91 146.275 143.128 148.079Z" fill="#FFFBE9"/>
</svg>
