<svg width="16" height="16" viewBox="0 0 16 16" fill="none" xmlns="http://www.w3.org/2000/svg">
<path d="M7.33341 7.33353L7.33341 3.33319C7.33341 2.96506 7.63184 2.66663 7.99997 2.66663C8.36811 2.66663 8.66654 2.96506 8.66654 3.33319V7.33353H12.6669C13.035 7.33353 13.3334 7.63196 13.3334 8.0001C13.3334 8.36823 13.035 8.66666 12.6669 8.66666H8.66654L8.66654 12.667C8.66654 13.0351 8.36811 13.3336 7.99997 13.3336C7.63184 13.3336 7.33341 13.0351 7.33341 12.667L7.33341 8.66666H3.33307C2.96494 8.66666 2.6665 8.36823 2.6665 8.0001C2.6665 7.63196 2.96494 7.33353 3.33307 7.33353H7.33341Z" fill="#F55116"/>
</svg>
