<svg width="97" height="7" fill="none" xmlns="http://www.w3.org/2000/svg"><path fill-rule="evenodd" clip-rule="evenodd" d="M69.425 6.236c-.033-.029-1.375-.008-2.983.047a160.23 160.23 0 0 1-4.173.097c-1.84-.004-2.273.013-2.401.098-.064.042-.143.051-.178.02-.08-.07-1.279-.084-3.53-.041-.987.019-1.836.012-1.886-.014-.05-.027-.547-.06-1.104-.072-.558-.013-1.032-.063-1.054-.113-.022-.05-.15-.047-.284.006-.217.086-.509.108-1.12.084-.137-.006-.176-.067-.13-.203.062-.18.053-.18-.13.011-.16.17-.31.2-.838.169a11.1 11.1 0 0 0-1.18.001c-.331.024-.54-.008-.543-.084-.004-.083-.126-.091-.37-.026-.201.053-.416.094-.479.091-.063-.003-.497.002-.965.013-.468.01-.9-.005-.957-.033-.13-.061-.478-.079-1.89-.094a32.646 32.646 0 0 1-1.421-.04c-.82-.066-1.77-.099-2.56-.089a11.084 11.084 0 0 1-1.482-.086c-.643-.1-2.028-.154-2.722-.108-.212.014-.431-.036-.486-.111-.08-.112-.099-.11-.095.006.005.134-.26.141-1.136.03a18.029 18.029 0 0 0-1.825-.145 57.245 57.245 0 0 1-1.251-.044 50.908 50.908 0 0 0-1.366-.043 9.282 9.282 0 0 1-.74-.027c0-.016-.175-.051-.615-.123a13.966 13.966 0 0 0-1.14-.073c-.936-.031-1.324-.056-1.325-.085 0-.01-.308-.026-.683-.036-1.091-.03-1.553-.06-2.223-.15-.346-.046-.91-.1-1.255-.12l-1.075-.062c-.246-.014-.5-.07-.563-.126-.074-.065-.187-.059-.319.017a.44.44 0 0 1-.416.02c-.117-.052-.49-.094-.828-.09-.34.003-.746-.035-.905-.084a3.128 3.128 0 0 0-.686-.1c-.936-.024-1.775-.115-1.902-.204-.086-.06-.16-.056-.2.013-.041.07-.194.078-.435.021a6.47 6.47 0 0 0-.985-.112c-.338-.013-.66-.049-.716-.079-.057-.03-.32-.066-.585-.079a10.72 10.72 0 0 1-1.625-.182c-.252-.048-.547-.057-.654-.02-.108.038-.198.028-.2-.021-.003-.049-.152-.087-.333-.085a1.973 1.973 0 0 1-.542-.069c-.118-.04-.48-.071-.805-.069-.324.003-.661-.047-.749-.11a.732.732 0 0 0-.38-.111c-.71.015-1.324-.04-1.451-.13-.08-.056-.313-.128-.518-.16-.205-.033-.374-.092-.376-.132-.002-.04-.17-.077-.373-.081-.625-.013-.828-.068-.799-.216.02-.103-.01-.109-.114-.02-.2.17-.82.088-1.107-.146C1.13 2.424.94 2.339.84 2.344c-.249.012-.913-.578-.764-.677.064-.042.081-.168.038-.28-.087-.227.022-.51.142-.366.041.05.193.146.336.215.231.11.26.1.252-.081-.005-.116.09-.237.219-.276.193-.058.218-.031.162.17a.952.952 0 0 1-.242.394c-.153.134-.14.144.106.079.154-.041.317-.077.362-.08.044-.003.048-.078.008-.166-.04-.088-.017-.163.052-.166.07-.004.128.041.131.1.003.057.085.071.183.03.098-.042.227-.01.286.071.087.12.106.115.1-.031-.003-.1.081-.22.188-.27C2.691.876 3.546.87 3.727 1c.12.086.201.07.332-.07.14-.148.176-.153.181-.029.004.085.11.235.233.333.22.174.223.168.112-.222C4.499.71 4.51.569 4.628.444c.21-.223.494-.118.51.19.01.17.041.203.1.105.05-.084.17-.118.29-.08.112.035.235.01.273-.056.08-.136.926.03.933.184.003.049-.042.064-.1.033-.057-.03-.13.02-.162.113-.048.138-.018.145.16.043.12-.07.22-.092.223-.05.001.04.1-.02.22-.134.196-.187.219-.19.226-.027.005.099.085.177.179.172.093-.004.286.094.428.218.167.146.23.166.18.056-.109-.24.012-.321.215-.144.225.198.385.184.374-.032-.004-.095.057-.154.136-.13.08.022.136.153.126.29-.016.221.003.231.164.09.163-.144.177-.125.144.195-.03.283-.009.329.106.228.086-.076.111-.23.062-.387-.076-.243-.053-.26.326-.254.41.007.579.158.483.434-.028.082.026.204.12.273.142.102.182.066.232-.212.046-.257.122-.34.322-.349.28-.013.46.216.3.385-.058.06.002.157.145.234.133.071.206.079.162.017-.048-.067.013-.119.145-.125.125-.006.261.037.302.095.153.215.29.088.205-.188-.067-.214-.05-.273.072-.24.088.023.181.169.208.324.049.284.341.586.453.468.033-.035-.032-.187-.145-.337-.124-.164-.155-.276-.08-.28.07-.002.129.034.131.08.003.048.162.09.354.096.214.005.32-.033.272-.1-.117-.165.117-.137.279.034.079.082.21.122.29.088.082-.035.18-.018.218.036.039.054.192.07.341.036.149-.035.308-.011.353.052.105.149.864.117.857-.036-.003-.064.052-.085.123-.047.093.049.091.094-.004.157-.185.122.037.23.621.305.33.043.5.014.609-.101.211-.224.4-.21.32.023-.06.179-.051.18.11.012.203-.213.614-.187.934.06.301.232.545.261.45.054-.04-.091-.025-.168.035-.17.06-.003.113.049.116.115.003.08.141.09.399.031.341-.078.395-.062.403.125.011.227.587.696.698.568.035-.04 0-.093-.08-.116-.08-.023-.148-.132-.153-.241-.013-.27.383-.187.54.112l.116.223.22-.233c.199-.21.251-.219.527-.095.269.12.307.116.3-.03-.005-.095.09-.172.218-.178.125-.006.23.038.232.098.003.06.133.103.289.096.156-.007.286.04.289.107.003.067.075.092.159.056.092-.04.15.003.147.107-.004.103.095.174.25.18.236.007.244-.01.09-.215-.155-.205-.147-.223.101-.224.148 0 .305.03.348.068.043.037.14.015.213-.05.18-.158.766.064.697.265-.061.178.079.186.242.013.084-.09.184-.094.351-.018.182.083.246.07.29-.058.031-.091.15-.17.266-.175.295-.014.893.558.816.78-.039.113-.017.15.057.101.065-.043.087-.174.05-.291-.083-.256-.006-.524.151-.531.063-.003.088.07.056.161-.065.187.222.221.327.04.036-.063.151-.113.257-.114.118 0 .139.024.053.062-.076.034-.13.168-.12.297.018.229.022.23.106.014.048-.123.094-.16.102-.08.008.078.064.109.125.069.06-.04.115-.009.12.07.007.086.074.053.171-.083.138-.194.177-.204.276-.068.064.087.096.218.072.291-.025.077.021.106.11.069.181-.078.296-.363.2-.498-.09-.126.083-.13.464-.01.203.063.288.152.25.261-.03.09-.007.163.054.16.06-.003.107-.051.105-.107-.01-.225.48-.079.595.176.097.217.139.236.217.103a.478.478 0 0 0 .023-.361c-.064-.171-.026-.19.308-.143.21.029.473.048.583.042.11-.006.173.036.14.094-.034.058.014.102.106.098.092-.004.186-.07.209-.147.032-.108.084-.107.236.002.107.077.297.11.421.072a.463.463 0 0 1 .395.079c.103.09.193.104.233.035.087-.152.606-.124.763.04.096.102.067.137-.118.146-.22.01-.23.036-.093.25.132.207.157.213.185.046.018-.106.128-.197.243-.202a.601.601 0 0 0 .354-.161c.079-.084.447-.177.824-.21.584-.05.73-.023 1.02.196.31.232.73.256.571.032-.037-.052-.017-.097.044-.1.06-.002.139.055.174.129.05.107.064.106.066-.003.004-.214.763-.208.902.007.095.147.147.154.28.037.13-.116.177-.117.23-.006.045.096.092.1.153.016.048-.068.267-.127.485-.133.336-.008.394.026.376.22a.451.451 0 0 0 .166.367c.166.12.178.104.102-.14-.049-.157-.035-.31.033-.355.066-.043.122-.025.125.04.003.07.135.093.315.056.17-.035.309-.072.308-.082 0-.01.145-.048.323-.085.287-.058.319-.038.272.17-.049.22-.039.224.139.054.238-.228.454-.245.464-.038.004.086.069.19.144.23.091.049.11.014.055-.106-.06-.13-.018-.18.156-.189.188-.009.212.02.115.145-.098.125-.066.153.163.143.167-.008.283-.076.279-.164-.01-.2.176-.2.268.001.04.088.138.154.218.145.113-.012.113-.026 0-.064-.079-.026-.146-.095-.149-.152-.003-.061.09-.06.227.002.128.059.23.066.228.017-.01-.21.62-.15.988.095.377.25.392.252.382.037-.013-.281.379-.323.556-.059.07.103.123.125.122.049-.002-.08.145-.144.349-.153.243-.012.337.028.302.128-.065.188.727.214.835.027a.16.16 0 0 1 .211-.06c.099.053.104.113.018.223-.07.09-.074.173-.009.208.06.032.133-.047.16-.174l.052-.232.348.214c.406.251.534.267.437.054-.039-.085-.01-.18.063-.213s.033-.059-.089-.058c-.135.001-.181-.038-.118-.1.056-.057.268-.086.47-.066.293.03.365.086.354.273-.008.138.044.22.127.2.077-.018.144.028.148.103.005.09.042.08.11-.033.056-.093.106-.12.111-.06.005.06.049.042.097-.04.049-.082.298-.186.554-.231.393-.07.503-.045.712.166.223.224.24.227.173.029-.054-.163-.015-.228.153-.253.354-.054.595-.062.964-.035.188.013.495.027.683.03.31.003.324.017.147.16-.184.148-.182.159.038.203.15.03.23-.006.225-.103-.004-.086.064-.127.16-.097.092.03.228.013.302-.036.074-.048.343-.089.597-.09l1.003-.001c.343 0 .542.049.546.135.004.083.162.13.404.118.218-.01.394-.071.391-.135-.003-.063.05-.086.116-.05.067.035.192.002.278-.073.109-.095.255-.111.476-.05.175.047.515.057.754.021.307-.046.413-.027.36.064-.045.079-.007.112.1.086.095-.024.26.051.366.166.19.207.191.207.11-.032-.058-.174-.033-.245.09-.25.094-.005.207.043.251.105.044.062.15.083.236.047.087-.037.16 0 .163.082.013.282.347.266.525-.024.143-.232.253-.28.625-.277.254.003.48.068.517.15.037.08.141.113.233.074.092-.039.249-.012.349.06.156.111.17.095.104-.113-.042-.133-.062-.243-.044-.244.115-.005.693.306.781.42.068.088.076.033.023-.15l-.084-.288.993-.005c.546-.003 1.046.041 1.111.098.065.057.157.284.205.505.049.222.153.42.233.442.11.03.113-.029.012-.253-.072-.16-.107-.317-.078-.348.03-.031-.002-.146-.07-.255-.095-.154-.083-.2.051-.207.096-.004.177.038.18.094.002.057.093.093.202.081a1.49 1.49 0 0 1 .445.045c.148.039.305.006.393-.082.238-.239.588-.193.746.097l.146.267-.006-.304c-.005-.303-.002-.304.65-.282.36.012.893.013 1.185.002.442-.016.546.02.62.213.079.206.1.211.186.045.076-.146.147-.164.323-.084.156.07.225.068.221-.01-.003-.062.071-.116.165-.12.093-.005.168-.056.165-.114-.008-.167 2.113-.16 2.346.008.162.116.205.115.24-.005.033-.108.127-.083.353.092.17.132.234.156.144.054-.203-.231-.094-.375.15-.198.145.105.178.102.176-.02-.003-.101.053-.084.171.052.097.111.208.168.247.127.04-.042.148.006.24.106.124.133.184.144.222.042a.14.14 0 0 1 .188-.082c.074.032.009-.03-.145-.14-.181-.13-.237-.228-.159-.28.067-.045.24.038.386.184.28.282.633.352.52.103-.066-.145.096-.4.258-.408.046-.002.11.105.145.239.06.238.063.238.13.014.062-.208.148-.231.94-.247.48-.01.885-.008.9.004.09.065 1.035.001 1.26-.085.17-.065.327-.057.436.022.114.082.195.085.242.009.131-.212.56-.269.722-.095.13.141.124.157-.048.104-.125-.039-.2-.01-.195.074.011.244.435.165.495-.093.048-.202.076-.215.176-.083.066.088.118.103.115.034-.006-.187.317-.287.563-.174.125.057.242.056.275-.002.07-.12.978-.132 1.198-.015.103.055.126.042.068-.04-.055-.077.007-.123.175-.128.252-.007 1.051-.135 1.05-.167 0-.009.24-.043.536-.075.295-.033.538-.028.54.01.002.039.234.064.514.056.376-.01.508-.056.503-.173-.005-.104.07-.143.216-.114.123.025.245-.012.271-.082.026-.07.056-.038.066.071.017.18.034.182.188.019.16-.17.274-.199 1.115-.284.187-.019.449-.073.582-.12.132-.048.275-.04.317.019.047.067.172.065.342-.006.186-.079.286-.074.329.016.034.07.061.042.061-.063 0-.106.038-.195.085-.2.357-.034 1.02-.195 1.18-.286.157-.09.195-.064.206.139.011.2.034.216.116.08.084-.139.104-.141.111-.014.005.085.04.122.077.082.038-.04.166-.028.286.027.25.114.256.094.088-.278-.097-.215-.089-.276.037-.282.088-.004.193.038.232.093.081.114.417.006.527-.17.039-.062.208-.138.375-.167.167-.03.373-.127.458-.217.124-.132.199-.14.382-.041.125.067.229.155.23.196.006.1.236.043.534-.133.19-.112.25-.116.255-.017.004.077.094.045.224-.08.323-.309.407-.127.162.35-.166.322-.188.48-.095.685.082.183.08.28-.005.312-.069.026-.168.171-.22.324-.052.152-.191.306-.31.342-.117.035-.236.129-.263.207-.054.156-2.105.89-2.294.821-.025-.009-.082.047-.126.124-.045.078-.554.25-1.131.382-.577.133-1.176.276-1.33.318-.154.043-.56.118-.901.168-.341.05-.718.122-.837.162-.12.04-.5.1-.846.135-.346.034-.755.1-.91.147-.153.047-.712.122-1.24.168-.53.046-.962.09-.962.099 0 .008-.215.045-.479.08-.294.04-.482.02-.485-.052-.004-.08-.055-.075-.158.016-.084.074-.565.161-1.07.195-.505.033-.917.088-.915.121.001.033-.826.113-1.838.177-1.012.063-1.917.121-2.01.129-.094.007-.503.01-.909.009-.406-.003-.865.032-1.019.077a1.782 1.782 0 0 1-.652.02c-.205-.034-.37-.021-.368.029.002.05-.137.07-.31.044-.444-.064-4.424.105-4.93.21-.23.048-.445.064-.478.035Zm9.92-2.703c-.001-.043-.075-.048-.162-.01a.17.17 0 0 0-.088.228c.06.13.09.133.163.01a.6.6 0 0 0 .087-.228ZM57.598 4.721c.003-.045.018-.17.034-.276.016-.106-.01-.167-.058-.135-.131.086-.201.503-.083.498.056-.003.105-.042.107-.087Zm13.142-.587c0-.027-.054-.076-.118-.11s-.115-.01-.112.053a.115.115 0 0 0 .12.11c.062-.003.112-.027.11-.053Zm-4.495-.177c.035-.062.01-.11-.056-.107-.066.003-.117.055-.114.115.002.06.027.108.055.107.027-.002.079-.053.115-.115Zm-9.927.311c0-.026-.054-.076-.118-.11s-.114-.01-.111.053a.115.115 0 0 0 .118.11c.063-.002.113-.026.111-.053Zm.65-.048c-.04-.035-.138-.034-.219.001-.088.04-.06.064.072.063.12 0 .185-.03.146-.064Zm.424-.064c.036-.061-.017-.108-.118-.103-.1.004-.15.056-.108.114.041.058.095.105.118.104.024-.001.073-.053.108-.115Zm1.191-.043c-.002-.053-.12-.119-.262-.146-.25-.048-.25-.045-.03.098.265.172.299.178.292.048Zm-4.083.132c-.002-.027-.055-.076-.12-.11-.063-.035-.113-.01-.11.053a.115.115 0 0 0 .119.11c.062-.003.112-.027.11-.053Zm-5.251.12c-.04-.034-.138-.033-.218.002-.089.04-.06.064.072.063.12-.001.185-.03.146-.064Zm1.223-.45c-.04-.084-.066-.057-.066.07.001.115.03.178.067.14.036-.038.035-.132-.001-.21Zm39.822-1.914c-.013-.274-.19-.253-.201.024-.006.156.036.241.099.2.06-.04.106-.14.102-.224Zm-47.102 2.17c.036-.062.01-.11-.055-.107-.066.003-.118.055-.115.115.003.06.028.108.055.107.028-.002.08-.053.115-.115Zm6.25-.355c.03-.089.1-.164.157-.166.163-.008.125.183-.051.258-.108.046-.143.015-.106-.092ZM93.68 1.722c-.134-.141-.13-.185.03-.28.264-.16.237-.363-.03-.21-.113.066-.248.086-.3.046-.05-.04-.055.014-.008.122.046.108.087.266.091.351.004.085.09.151.191.146.156-.007.16-.034.026-.175Zm-56.605 2.39c-.04-.086-.066-.059-.065.068 0 .116.03.179.066.14.036-.037.036-.132 0-.209ZM91.531 1.73c-.001-.027-.055-.076-.119-.11-.064-.035-.114-.01-.111.053a.115.115 0 0 0 .119.11c.062-.003.112-.027.11-.053Zm.337-.077a.112.112 0 0 0-.118-.104.112.112 0 0 0-.109.114c.003.06.056.107.119.104a.112.112 0 0 0 .108-.114ZM36.767 4.037c-.006-.12-.057-.216-.113-.213-.057.002-.072.101-.033.22.038.118.089.214.113.213.024 0 .039-.1.033-.22Zm.68-.032c-.003-.06-.028-.108-.055-.107-.028.001-.08.053-.115.115-.036.062-.01.11.055.107.066-.003.118-.055.115-.115Zm-1.067-.189c-.04-.085-.066-.058-.066.07 0 .114.03.178.067.14.035-.038.035-.133-.001-.21ZM95.118.698c-.004-.08-.084-.141-.177-.137-.18.008-.217.107-.084.223.13.114.268.07.26-.086ZM20.959 2.59c-.044-.062-.057-.137-.029-.167.029-.03.086.02.127.11.086.19.022.226-.098.057ZM9.751 1.681c-.085-.075-.138-.079-.135-.01.003.062.041.144.085.182.043.038.104.042.135.01.03-.033-.008-.115-.085-.182Zm-6.4-.372c-.001-.022-.095-.104-.208-.181-.186-.127-.19-.123-.04.043.156.175.252.228.248.138ZM4.996.726c-.03-.239-.21-.296-.199-.063.006.13.114.286.196.282.017 0 .018-.1.003-.219Z" fill="#F55116"/></svg>