<svg width="95" height="27" viewBox="0 0 95 27" xmlns="http://www.w3.org/2000/svg"><path d="M.778 10.35c.465.03.617-.317.2-.46-.254-.087-.253-.116.007-.18.41-.103.448.015.236.732-.152.514-.213.564-.42.344-.166-.174-.296-.196-.403-.07-.1.118-.13.08-.079-.101.045-.159.25-.278.459-.265Zm-.23 1.099c.466.03.88.414.463.43-.144.006-.396-.094-.56-.222-.288-.226-.285-.233.096-.208ZM1.9 9.055c.2.075.227.13.07.14-.142.008-.29-.048-.329-.125-.038-.077.078-.084.259-.015Zm.828-.659c.453-.353 1-.24 1.021.21.022.475-.031.525-.226.213-.14-.224-.252-.229-.533-.02-.511.38-.766-.01-.262-.403Zm1.776-1.198c.085.028.265-.108.401-.302.24-.341.248-.34.272.042.017.278-.055.388-.245.37-.157-.014-.263.103-.255.281.011.253-.019.253-.178-.003-.218-.35-.217-.462.005-.388Zm1.587-1.796c.387-.21.727-.454.755-.54.029-.085.13-.13.226-.097.096.031.208-.045.25-.171.115-.347 1.04-.793 1.264-.61.11.091.29.02.406-.16.156-.24.29-.262.53-.087.253.184.318.165.306-.086-.015-.345.851-.841 1.94-1.11.346-.085.72-.229.83-.32.111-.09.453-.138.76-.106.307.032.583-.013.612-.102.03-.088.17-.12.314-.073.143.047.287.008.318-.088.032-.096.176-.135.32-.087.143.047.299-.031.347-.175.062-.187.277-.198.76-.037.388.128.804.143.978.034a.85.85 0 0 1 .63-.08c.18.059.352.03.384-.067.032-.095.22-.12.416-.055.197.066.338.035.314-.069-.06-.25.533-.269.736-.023.304.367.72.48 1.088.295.252-.127.335-.269.265-.45-.077-.197.049-.215.486-.07.324.108.55.269.5.358-.049.089.038.237.194.33.155.091.31.083.344-.02.034-.103-.035-.219-.153-.258-.118-.04.13-.131.55-.204.42-.073.843-.107.939-.075.096.032.383-.047.638-.175.498-.25 1.2-.126 1.094.194-.044.133.023.163.21.093.157-.058.405.008.576.154.393.334.723.46.751.287.08-.486.246-.58.61-.35.213.137.463.185.555.109.091-.077.341-.028.555.108.3.19.412.178.488-.052.062-.188.18-.232.317-.12.12.099.276.102.346.008.07-.095.48-.071.912.052.431.123.979.226 1.217.23.299.003.41.075.359.234-.058.18-.023.19.16.039.14-.114.343-.104.5.025.16.13.437.141.697.026.342-.15.485-.127.683.112.188.227.32.268.526.166.213-.105.308-.04.413.284.077.235.17.324.21.2.08-.24.935.088 3.317 1.275 1.416.706 2.055 1.155 1.978 1.39-.087.26 1.103.598 1.416.403.163-.102.506-.116.762-.03.256.084.565.104.686.044.12-.061.522-.046.892.033.766.164 1.326.008 1.31-.364-.009-.175.255-.204.862-.092.48.088 1.05.1 1.265.027.46-.156 1.047.165.932.511-.044.133-.002.267.094.299.096.032.215-.066.265-.216.058-.177.225-.217.471-.112.709.3.827.27 1.002-.255.115-.348.26-.493.434-.436.143.048.235.165.203.261-.032.096.138.239.377.318.24.08.46.066.493-.03.031-.095-.037-.205-.151-.243-.16-.053-.145-.101.063-.206.15-.075.89.04 1.643.256.754.216 1.539.411 1.744.434.204.022.433.055.507.071.074.016.175-.092.225-.241.05-.15.145-.205.213-.124.068.081.506.136.973.123 1.357-.04 2.522.463 2.34 1.01-.047.142.1.301.355.386.27.09.467.046.521-.117.084-.252.39-.242 1.003.033.161.073.318.059.348-.03.03-.09.388-.109.796-.042.56.09.789.214.932.5.176.35.208.356.427.081.198-.247.377-.242 1.061.029.453.179.824.421.824.538 0 .153.088.18.309.092.17-.066.289-.205.264-.308-.024-.103.103-.194.282-.202.18-.009.35.087.38.213.082.344 2.352 1.06 3.294 1.04.13-.003.258.084.284.195.068.284.948.543 1.28.377.215-.109.308-.078.417.138.076.153.324.34.55.415.227.075.525.255.662.4.145.154.54.293.938.332.391.04.625.12.542.19-.08.067.122.154.448.195.407.05.629.17.704.381.106.297 1.185.778 3.36 1.497.467.154.966.404 1.109.554.173.183.425.256.76.22.35-.038.687.065 1.115.338.474.304.719.364 1.08.265.418-.114.459-.097.375.155-.052.155 0 .327.115.38.616.293.734.32.983.238.177-.06.249-.022.207.105-.036.107.13.26.37.34.239.079.46.067.49-.026.036-.108.191-.06.423.129.202.164.901.478 1.555.697 1.896.636 2.136.742 2.077.92-.03.092.225.24.567.329.536.139.625.107.635-.23.007-.216-.235-.909-.538-1.54-.304-.633-.532-1.39-.509-1.685.028-.348-.027-.477-.158-.367-.141.118-.38-.142-.796-.87a30.794 30.794 0 0 0-.644-1.094c-.027-.031.095-.135.27-.232.267-.147.379-.115.68.193.199.203.455.583.57.845.116.261.315.51.444.553.129.043.195.195.147.339-.047.143.013.294.136.335.122.04.4.393.62.785.218.391.44.726.491.743.17.056.885 1.603.825 1.784-.032.098-.163.177-.29.178-.181 0-.196.044-.067.198.092.11.195.112.23.006s.311.176.613.625c.302.45.578.855.613.9.035.045-.061.111-.214.148-.195.046-.233.121-.126.25.352.42-.104.946-1.016 1.172-.504.125-1.003.199-1.11.164-.105-.036-.335.071-.509.236-.227.216-.429.239-.71.082-.287-.161-.418-.142-.488.07-.117.351-.55.59-.797.44-.1-.06-.126-.052-.057.02.07.072-.142.27-.47.44a67.902 67.902 0 0 0-2.697 1.513c-.359.214-.628.245-.853.099-.271-.176-.356-.134-.48.241-.129.386-.229.43-.65.29-.428-.141-.505-.104-.555.271-.038.293-.258.546-.67.773-.335.185-.628.389-.649.452-.02.063-.365-.011-.765-.166-1.403-.54-1.726-1.026-.797-1.2.566-.105.78-.3.59-.537-.121-.152-.083-.225.153-.285.273-.07.283-.127.074-.42-.22-.309-.21-.353.11-.478.195-.076.378-.212.408-.303.03-.091.212-.244.403-.34.207-.104.321-.096.282.022-.036.108.029.174.144.147.115-.027.26-.202.322-.388.066-.2.231-.298.402-.241.16.052.255.027.213-.058-.14-.279 2.132-1.677 2.518-1.549.09.03.58-.153 1.086-.408 1.213-.609 1.21-.97-.009-1.332-1.587-.47-3.997-1.398-4.132-1.591-.073-.103-.854-.486-1.737-.852-.883-.366-1.67-.768-1.749-.894-.078-.126-.202-.199-.276-.162-.219.11-1.94-.418-1.986-.61-.023-.098-.329-.279-.68-.403-.35-.124-.773-.34-.939-.48-.166-.14-.452-.232-.637-.202-.221.035-.378-.056-.461-.27-.087-.222-.235-.305-.471-.264-.438.076-4.242-1.242-4.175-1.446.028-.084-.102-.092-.29-.019-.261.102-.414.057-.66-.194-.175-.18-.672-.438-1.105-.574-.433-.136-1.004-.363-1.27-.506-.264-.142-.669-.226-.898-.186-.23.04-.623.03-.874-.022l-1.172-.236c-.711-.14-1.175-.547-.893-.783.08-.068.072-.148-.02-.178-.09-.03-.242.04-.336.154-.094.115-.563.141-1.043.058-.718-.124-.894-.218-.993-.528-.108-.335-.143-.35-.318-.138-.414.506-1.514.452-2.862-.14-.746-.328-1.331-.694-1.433-.896-.094-.188-.301-.336-.46-.329-.48.022-.44.36.063.552.32.121.36.17.123.155-.191-.013-.535.053-.763.146-.444.181-.726.16-2.202-.172-.653-.147-.968-.136-1.026.036-.09.27-.82-.082-1.123-.542-.114-.173-.188-.162-.254.04-.052.155-.212.243-.355.195-.143-.047-.297.023-.341.156-.063.189-.21.166-.652-.101-.41-.247-.572-.281-.571-.12 0 .235-.97.384-1.456.223-.158-.053-.563.03-.9.184-.337.154-.803.217-1.034.14-.784-.26-1.58-.284-1.657-.048-.044.13.045.228.202.22.404-.018 1.27.87 1.366 1.402.045.25.327.748.626 1.107.3.36.51.756.469.88-.041.125.033.263.166.307.394.13.565 1.127.273 1.588-.166.26-.195.488-.08.628.134.165.103.196-.126.122-.533-.172-.709.623-.322 1.453.306.654.06 1.872-.316 1.564-.139-.114-.349.032-.638.444-.42.6-.626.652-1.348.34-.192-.082-.284-.041-.248.111.039.166-.05.172-.285.02-.189-.122-.363-.162-.387-.088-.048.144-1.586.255-1.935.139-.117-.039-.173-.188-.125-.332.117-.354-.236-.444-.636-.162-.261.184-.355.172-.474-.061-.082-.16-.328-.35-.548-.424-.22-.073-.374-.211-.342-.308.035-.106-.1-.137-.345-.078-.315.077-.444.032-.593-.207-.105-.168-.439-.425-.743-.57-.303-.145-.552-.353-.552-.46 0-.109-.107-.233-.238-.276-.13-.043-.355-.444-.498-.89-.143-.446-.349-.953-.456-1.125-.173-.278-.158-.326.126-.412.27-.082.267-.098-.014-.1-.358-.004-.592-.68-.293-.85.094-.054.038-.07-.124-.036-.218.046-.242-.002-.094-.183.141-.172.117-.241-.083-.232-.376.017-.197-.507.356-1.043.236-.23.438-.61.457-.863.028-.37.1-.43.396-.332.316.104.36.056.342-.372-.018-.422.077-.535.673-.792.381-.164.877-.477 1.1-.695.278-.27.544-.351.837-.254.515.171.69-.152.24-.444-.175-.114-.295-.276-.267-.36.028-.085-.323-.272-.78-.416-1.3-.409-2.398-1.063-2.297-1.369.085-.254-.485-.372-.792-.165-.19.129-.826.042-2.052-.279-.976-.256-1.896-.417-2.044-.36-.148.058-.336.025-.419-.074-.083-.1-.296-.123-.473-.054-.228.09-.304.069-.259-.069.093-.28-.371-.39-.78-.186-.472.238-.55.186-.575-.384-.012-.27-.123-.517-.247-.55-.178-.047-.186-.025-.038.1.427.364-.326.924-.96.714a1.986 1.986 0 0 0-.82-.043c-.247.045-.571.058-.721.03-.15-.027-.735-.1-1.299-.159-.564-.06-1.31-.166-1.66-.236-.933-.188-1.107-.154-1.238.243-.066.197-.27.357-.455.354a9.152 9.152 0 0 0-.836.044c-.274.027-.639.018-.81-.021-.17-.04-.47-.009-.664.067-.295.116-.366.088-.43-.164-.06-.248-.093-.248-.178.002a.36.36 0 0 1-.416.227 96.86 96.86 0 0 0-1.354-.316c-.179-.041-.305.01-.28.116.025.105-.045.301-.156.436-.148.182-.243.178-.364-.016-.12-.193-.251-.2-.5-.026-.392.274-2.295.842-2.543.76-.093-.03-.208.061-.256.205-.104.315-.582.196-.585-.146-.002-.133-.028-.097-.058.08-.076.438-.839.577-.858.156-.02-.447-.361-.483-.39-.04-.013.207-.08.31-.15.228-.069-.082-.177.006-.24.196-.134.406-.79.782-.975.56-.07-.083-.21-.053-.309.069-.1.12-.306.157-.46.08-.153-.077-.192-.074-.086.007.322.246.083.529-.85 1.007-.841.432-1.405.362-1.006-.125.251-.307-.125-.4-.443-.11-.231.212-.265.193-.33-.188-.062-.358.037-.485.63-.809Zm29.797 8.292c.077-.038.134-.187.125-.329-.01-.157-.064-.13-.14.07-.068.182-.061.298.016.26Zm1.314-.989c.116.13.288.426.383.659.095.233.267.454.382.493.116.038.28.206.365.373.128.253.46.611.828.892.042.032.194.165.338.296.144.13.383.195.531.145.382-.13 1.108.099 1.302.41.121.194.35.208.882.055.903-.26 1.543-.874 1.939-1.858.283-.706.36-.768.96-.763.505.004.592-.043.39-.208a2.228 2.228 0 0 0-.593-.324c-.183-.061-.304-.21-.267-.33.093-.307-.318-1.3-.5-1.208-.17.086-.62-.634-.543-.868.095-.286-.345-.983-.873-1.382-.646-.488-1.323-.726-1.4-.493-.032.095-.217.12-.411.056-.195-.064-.438-.014-.54.111-.103.126-.279.198-.391.16-.113-.037-.371.138-.575.39-.248.306-.49.417-.733.336-.267-.089-.4-.01-.501.296-.076.23-.267.423-.423.43-.389.018-.854 1.992-.55 2.332Zm8.123 2.565c.157-.01.13-.064-.07-.14-.181-.068-.298-.06-.26.016.04.077.187.133.33.124Zm12.44-7.638c.216.11.275.095.17-.044-.088-.118-.177-.435-.198-.705-.036-.481-.039-.481-.169.045-.093.378-.036.583.198.704Z" fill="#1E5C5A" fill-rule="evenodd"/></svg>