<svg width="105" height="32" viewBox="0 0 105 32" fill="none" xmlns="http://www.w3.org/2000/svg"><path fill-rule="evenodd" clip-rule="evenodd" d="M43.754.28c-.15.161-.272.179-.417.058-.282-.235-1.531.384-1.731.858-.114.27-.127.202-.052-.271l.1-.633-.715.126c-1.046.184-1.349.204-1.529.1-.232-.135-1.275-.023-1.496.16-.123.102-.213.083-.26-.056-.058-.17-.178-.173-.609-.013-.366.135-.633.147-.838.037-.23-.123-.38-.083-.632.172-.276.277-.449.313-1.024.215-.38-.065-.766-.093-.855-.063-.09.03-.567.077-1.061.105-1.427.08-1.47.086-1.47.218 0 .07-.23.091-.514.05-.46-.068-.504-.039-.423.274.061.235.016.35-.138.35-.126 0-.23-.11-.23-.246 0-.164-.163-.246-.49-.246-.282 0-.489.087-.489.205 0 .127-.253.214-.661.227-.752.025-.99.172-.64.394.163.104.174.154.036.155-.112.002-.204.114-.204.249s-.11.246-.245.246a.246.246 0 0 1-.245-.246c0-.135.074-.246.164-.246.09 0 .163-.074.163-.164 0-.247-.442-.197-.54.062-.053.137-.24.196-.477.15-.36-.069-.384-.03-.322.501.063.548.467.931.673.64.052-.074.297-.148.544-.163.246-.016.54-.037.652-.048.113-.01.37.033.572.095.274.084.367.047.367-.148 0-.213.078-.232.418-.101.63.24 1.214.199 1.214-.086 0-.153.154-.246.408-.246.238 0 .408.094.408.226 0 .31 1.291.33 1.409.022.047-.123.282-.22.521-.215.83.016 1.008-.034 1.008-.286 0-.14.092-.242.204-.227.112.015.371.018.577.007.319-.016.348-.066.2-.343-.141-.265-.127-.307.076-.229.136.053.248.199.248.325 0 .125.103.228.228.228s.269.11.32.243c.136.358 2.105.263 2.553-.123.345-.296.738-.39.583-.139-.049.08.095.18.32.224.226.043.45.014.5-.066a.174.174 0 0 1 .24-.05c.084.052.153.016.153-.08 0-.095.15-.173.336-.173.184 0 .29.074.235.164-.062.1.17.154.602.14.47-.017.557-.048.264-.093-.314-.048-.413-.139-.345-.317.052-.137.14-.188.195-.113.154.212.804.547 1.06.547.126 0 .568-.321.981-.713.515-.488.752-.629.752-.445 0 .147-.222.399-.493.56-.554.329-.507.598.104.598.261 0 .367-.067.294-.185-.081-.132-.03-.138.177-.021.368.206.897.075.897-.223 0-.125.073-.227.163-.227.09 0 .163.098.163.219 0 .343 1.923.303 2.015-.041.057-.214.072-.21.088.027.022.33.353.377.64.09.148-.149.195-.15.195-.003 0 .214 2.866.205 3.21-.01a.18.18 0 0 1 .273.086c.063.157.122.15.248-.032.09-.131.129-.296.085-.367-.043-.071.035-.085.174-.031.14.053.254.184.254.29 0 .212.311.26 1.55.24.449-.007 1.404.004 2.122.025 2.287.065 2.428.057 2.493-.136.043-.132.137-.115.306.054.307.309 1.318.315 2.038.013.475-.2.595-.2.867 0 .385.283.722.31.449.035-.267-.268-.246-.459.049-.459.134 0 .245.11.245.246 0 .135.128.252.285.26.157.007.506.03.775.051.27.022.544-.04.61-.136.08-.117.12-.107.122.03.002.113.168.204.37.202.255-.001.303-.043.156-.137-.17-.109-.165-.174.029-.336.196-.164.274-.14.418.131.106.2.275.295.422.238a.497.497 0 0 1 .446.073c.329.27.867.296 1.156.055.175-.146.27-.16.27-.041 0 .195.527.255.702.08.235-.236 1.405-.22 1.54.02.141.255.84.325 1.885.19.34-.044.835-.017 1.101.06.267.076.484.08.484.007s.184-.132.408-.132c.225 0 .408.093.408.206 0 .246.615.441.689.218.028-.085.326-.217.66-.293.547-.124.61-.104.61.191 0 .291.07.316.612.214.336-.063.555-.057.485.013-.183.185.903.526 1.132.355.111-.083.234-.07.296.03.058.095.382.172.721.172.34 0 .67.053.734.118.183.184 1.79.188 2.018.005.146-.117.204-.086.204.111 0 .22.155.272.775.263a8 8 0 0 1 1.324.096c.354.068.59.036.67-.092.093-.151.174-.146.349.022.33.318 1.074.621 1.204.49.203-.203.89-.13.98.105.069.182.137.189.323.034.235-.196.647-.087.51.136-.064.103.397.126 1.005.05.112-.015.21-.156.217-.313.01-.23.032-.238.108-.041.052.135.205.327.338.426.134.099.196.258.137.353-.066.108.012.143.204.092.171-.045.579.046.905.201.326.156.957.283 1.403.283.445 0 .809.064.809.142 0 .078.11.142.245.142.134 0 .245-.082.245-.181 0-.1.11-.14.244-.087.135.051.245.022.245-.065 0-.26.447-.18.554.1.146.384.136.397-.32.397-.4 0-.406.014-.136.285.202.204.303.228.351.084.046-.137.239-.07.604.21.34.26.64.37.82.302.166-.065.34-.016.423.12a.56.56 0 0 0 .433.229c.16 0 .3.092.311.205.011.112.03.266.04.342.058.384 1.49.69 1.49.317 0-.11.114-.036.254.165.14.2.214.43.165.51-.119.193.212.44.769.573.27.065.633.37.897.754.245.355.535.648.646.652.11.003.251.206.312.451.061.245.246.591.412.77.204.22.262.432.181.661-.066.185-.104.627-.084.983.02.355-.074.813-.208 1.018-.134.206-.243.487-.243.625s-.074.233-.164.21c-.089-.022-.256.144-.37.37-.113.225-.37.482-.571.571-.2.09-.364.288-.364.443a.52.52 0 0 1-.231.412c-.126.072-.255.352-.285.623-.04.358-.144.496-.384.508-.431.022-1.203.434-1.707.912-.223.21-.424.366-.448.346-.12-.102-1.636.582-1.961.886-.114.106-.207.28-.207.388 0 .111-.134.16-.313.112-.173-.045-.542.057-.82.227-.279.17-.612.309-.742.309s-.507.24-.839.532c-.332.293-.738.51-.903.482-.21-.036-.3.05-.3.29 0 .288-.068.324-.434.232-.36-.09-.418-.063-.332.16.07.181.018.271-.154.271-.161 0-.222-.091-.163-.246.064-.167-.009-.246-.227-.246-.177 0-.322.062-.322.137 0 .075-.091.15-.204.165-1.793.245-2.697.592-2.764 1.06-.046.319-.075.328-.289.097-.242-.262-.25-.261-1.666.173-.33.1-.874.219-1.21.262-.337.043-.697.149-.8.235-.103.086-.624.205-1.156.264-.537.06-1.312.291-1.74.52-.619.332-.818.374-1.01.214-.174-.145-.326-.152-.564-.023-.18.096-.577.175-.883.175-.306 0-.785.114-1.063.253-.312.157-1.145.285-2.17.335-.914.044-1.789.148-1.944.232-.155.083-.788.163-1.406.178-.618.015-1.42.125-1.78.246-.361.12-1.133.232-1.714.249-.74.02-1.172.12-1.44.33-.333.26-.415.268-.618.064-.17-.171-.342-.194-.631-.084-.219.084-.675.146-1.015.139-.34-.007-.69.003-.78.023-.09.02-.395.023-.678.007-.282-.015-.562.052-.621.148-.06.096-.278.175-.486.175-.208 0-.468.108-.578.241-.164.2-.237.204-.413.027-.265-.267-2.135-.2-2.48.088-.186.154-.266.15-.37-.021-.1-.163-.592-.21-1.948-.19-1.983.03-2.624.184-2.632.63-.004.269-.018.268-.182-.016-.143-.248-.205-.264-.322-.082-.113.176-.163.152-.235-.11-.063-.227-.246-.347-.572-.372-.263-.02-.48.029-.48.109s-.22.119-.489.087c-.269-.031-.49.01-.49.092 0 .212-.5.293-.992.16-.317-.085-.47-.036-.614.196-.105.17-.316.308-.467.308-.215 0-.233-.043-.08-.196.415-.417.189-.541-.95-.52-.63.01-1.184-.042-1.23-.117-.124-.202-.862.18-.944.487-.057.213-.074.206-.09-.037-.016-.269-.154-.297-1.283-.257-.696.024-1.428.102-1.626.172-.213.075-.404.059-.466-.04-.057-.094-.216-.127-.353-.074-.136.053-.331.032-.432-.047-.53-.413-1.23-.267-1.45.302-.075.195-.097.186-.108-.044-.009-.205-.143-.288-.461-.283a8.188 8.188 0 0 1-.852-.038c-.444-.05-.689.47-.327.695.11.069.15.207.088.307-.162.263-.419.224-.419-.064 0-.135-.076-.246-.169-.246-.112 0-.107-.116.015-.344.177-.332.153-.343-.648-.287-.623.043-.83.001-.83-.167 0-.182-.047-.186-.245-.021-.148.123-.245.137-.245.033 0-.1-.422-.172-1.02-.173-.56-.001-1.84-.026-2.842-.056-1.002-.03-1.788 0-1.746.069.101.164-.417-.033-.895-.341-.278-.179-.457-.2-.653-.078-.15.094-.414.112-.596.041-.48-.189-1.704-.175-2.43.028-.478.133-.664.128-.755-.02-.07-.111-.534-.206-1.08-.218-.793-.02-1.02.04-1.325.346-.457.459-.771.49-.497.048.231-.371.053-.652-.232-.365-.281.282-.53.238-.291-.052.112-.135.176-.25.142-.254-.033-.005-.525-.05-1.092-.1-.925-.081-1.075-.051-1.451.296l-.42.386.108-.45c.117-.492.128-.486-1-.534-.381-.017-.694.037-.694.12 0 .082-.115.034-.256-.108-.141-.142-.386-.258-.544-.258-.158 0-.335-.047-.392-.104-.057-.058-.382-.124-.72-.147-1.566-.106-2.566-.26-2.766-.427-.161-.134-.286-.125-.48.037-.223.186-.295.175-.473-.07-.159-.218-.232-.236-.297-.076-.067.168-.116.17-.228.012-.078-.111-.313-.17-.522-.129-.209.04-.79-.071-1.292-.248-.502-.178-1.044-.281-1.204-.23-.179.057-.293.01-.294-.123-.002-.159-.045-.151-.165.03-.138.21-.202.194-.446-.116-.156-.198-.706-.522-1.223-.719-.516-.197-.938-.407-.938-.466 0-.06-.257-.078-.571-.041-.526.061-.572.032-.572-.365 0-.351-.093-.451-.502-.533-.354-.071-.626-.299-.925-.774-.233-.371-.406-.7-.385-.73.022-.031-.067-.142-.198-.246-.13-.104-.282-.613-.338-1.13-.09-.828-.063-.966.226-1.146a.764.764 0 0 0 .327-.576c0-.204.07-.37.156-.37.085 0 .277-.259.426-.574.15-.316.373-.574.498-.574.124 0 .226-.093.226-.207 0-.113.147-.298.326-.41.18-.114.327-.344.327-.513 0-.175.148-.346.346-.398.279-.074.326-.173.242-.511-.103-.41.108-.584.31-.256.055.09.161.164.236.164.203 0 .353-.494.217-.712-.066-.104-.098-.319-.072-.477.026-.157-.036-.287-.136-.287-.101 0-.14.072-.085.16.053.087-.087.205-.311.262-.225.057-.454.243-.508.414-.054.172-.167.312-.25.312-.084 0-.153.09-.153.2 0 .11-.195.368-.434.574-.238.206-.514.54-.612.743-.099.202-.416.479-.705.614-.29.135-.528.372-.53.528-.002.182-.09.248-.248.187-.284-.11-.309.079-.087.665.13.345.102.447-.168.592-.18.097-.28.249-.225.338.055.09.006.277-.109.415-.154.188-.162.326-.029.54.11.177.123.378.034.52-.198.315-.19 1.133.012 1.133.09 0 .17.203.177.45.007.248.05.36.095.247.107-.266.35-.266.327 0-.03.345.591 1.434.819 1.434.118 0 .215.104.215.23 0 .145.113.2.305.15.21-.054.419.08.664.426.197.278.5.505.674.505.173 0 .315.11.315.246 0 .135.11.246.245.246.134 0 .245.08.245.178 0 .097.092.143.204.102.112-.041.186-.155.165-.254-.022-.098.07-.136.204-.084.133.051.243.188.243.303 0 .204.932.739 1.29.739.098 0 .179.062.179.139 0 .076.227.145.506.153.278.008.636.133.796.279.196.177.432.229.718.156.251-.063.428-.039.428.06 0 .09.147.127.326.08.368-.097.428-.307.122-.431-.112-.046-.038-.089.164-.096.212-.007.367.084.367.217 0 .274.909.664 1.428.614.202-.02.367.032.367.116 0 .254.516.37.755.17.174-.144.224-.13.224.067 0 .19.25.275 1.02.345.562.05 1.23.084 1.486.074.419-.015.456-.063.374-.474-.064-.321-.017-.485.16-.553.381-.147.432-.12.321.169-.078.204-.025.245.228.18.419-.11.422.07.006.37-.296.215-.3.257-.06.523.184.205.341.247.534.143.155-.084.373-.086.502-.006.126.078.281.11.345.07.064-.04.325.007.579.106.254.098.83.211 1.279.252.448.04.953.116 1.122.168.199.061.267.031.194-.087-.167-.272.163-.219.397.064.287.348.49.305.49-.102 0-.254.055-.305.204-.188.112.089.443.241.734.34.498.168.53.155.53-.203 0-.244.118-.413.327-.468.256-.067.296-.032.185.167-.247.442.345.846 1.234.842a7.828 7.828 0 0 1 1.48.156c.405.093.731.099.784.013.05-.08.012-.147-.083-.147s-.172-.058-.172-.128c0-.202.924-.5 1.139-.366.127.08.063.158-.187.228l-.381.108.371.314c.472.398 2.775.456 2.922.074.116-.305.379-.294.379.016 0 .151.153.246.397.246.334 0 .395-.077.383-.484-.01-.353-.102-.497-.342-.532-.287-.043-.297-.076-.082-.254.209-.172.307-.086.639.563l.392.767.093-.481c.05-.265.035-.643-.034-.842-.098-.28-.073-.34.111-.269.131.05.24.176.24.279.002.112.06.096.146-.038.2-.318.539-.059.419.321-.054.173-.026.314.064.314s.21.148.267.328c.057.18.209.328.337.328.129 0 .234.074.234.164 0 .218.591.208 1.01-.017.26-.139.37-.13.477.04.109.173.14.159.143-.064.003-.342.444-.377.805-.063.142.123.533.266.87.317.477.073.612.04.612-.153 0-.247.397-.203.97.107.13.07.404.064.607-.013.222-.085.409-.079.467.016.142.231 1.181.192 1.262-.047.05-.148.132-.157.299-.032.127.095.652.192 1.168.214.83.037.983-.008 1.334-.388l.396-.43.053.38c.05.356.118.377 1.115.343.583-.02 1.134-.043 1.224-.052.09-.01 1.166.033 2.392.095 2.09.106 2.233.095 2.306-.193.07-.27.081-.273.098-.02.016.257.198.36.542.31.248-.037 4.97-.221 5.393-.21.247.006.449-.058.449-.143 0-.093.15-.096.38-.008.21.08.479.085.598.011.12-.074.339-.057.49.038.171.107.516.122.913.04.35-.074.705-.117.786-.097.082.02.2-.05.265-.153.088-.143.203-.144.467-.002.193.104.418.147.5.097.081-.05.608-.128 1.17-.172.562-.044 1.07-.157 1.127-.252.059-.094.246-.169.418-.165.43.008.91.007 1.25-.002.157-.005.286-.114.286-.244s.11-.236.245-.236c.134 0 .244.074.244.164 0 .09.106.164.235.164.167 0 .232-.192.225-.663-.005-.366.037-.71.092-.765.056-.056.101.091.101.328 0 .48.312 1.264.503 1.264.305 0 .64-.218.64-.418 0-.369.364-.468.588-.16.251.345.8.211.658-.16-.055-.144-.001-.245.128-.245.123 0 .265.11.317.245.051.136.261.238.466.227.276-.014.299-.038.087-.094-.332-.087-.388-.378-.072-.378.117 0 .356.104.53.232.223.164.376.182.52.062.144-.12.205-.114.205.02 0 .128.178.159.53.093.567-.107.759-.14 2.408-.411.583-.096 1.207-.243 1.387-.326.18-.083.51-.143.734-.133.584.024 1.687-.194 1.87-.37.084-.084.293-.151.464-.151.17 0 .504-.138.742-.306.295-.209.538-.265.76-.176.516.207.732.175.63-.092-.06-.155.002-.246.168-.246.145 0 .263.074.263.164 0 .09.11.164.244.164.29 0 .292-.018.086-.563-.103-.273-.103-.42 0-.42.088 0 .16.11.16.245 0 .136.14.246.312.246s.337.072.367.16c.032.092.366.046.806-.113.568-.206.796-.394.938-.77l.187-.498.248.356c.237.34.281.345.916.12.367-.13.722-.202.789-.16.067.042.09-.098.049-.31-.072-.379.291-.81.402-.476.031.093.152.3.268.46.187.257.287.268.851.091.352-.11.95-.34 1.331-.513.38-.173.805-.314.942-.314.137 0 .54-.184.896-.41.356-.225.753-.41.883-.41s.333-.092.452-.204c.118-.113.462-.225.763-.25.302-.023.704-.152.894-.286.19-.134.475-.243.635-.243.16 0 .29-.11.29-.246 0-.138.146-.246.332-.246.182 0 .373-.11.425-.246.052-.135.272-.245.489-.245.27 0 .443-.13.55-.41.151-.401.489-.57.489-.246 0 .242.315.199.595-.082.134-.135.369-.246.52-.246.152 0 .349-.16.438-.355.088-.196.307-.436.486-.533.179-.098.487-.343.686-.546.198-.203.419-.372.491-.376.071-.004.313-.239.538-.522.224-.283.61-.708.858-.944.6-.573 1.554-2.498 1.097-2.214-.33.205-.214-.57.207-1.382.253-.488.403-.93.333-.983-.071-.053-.129-.606-.129-1.23 0-.76-.068-1.156-.204-1.202a.32.32 0 0 1-.204-.282c0-.118-.103-.255-.229-.303-.126-.05-.279-.314-.339-.59-.06-.276-.177-.543-.26-.595-.083-.05-.154-.255-.157-.452-.003-.198-.168-.547-.367-.776-.495-.57-1.585-1.36-1.585-1.149 0 .095-.111.172-.245.172-.135 0-.245-.062-.245-.137 0-.076-.184-.222-.408-.325-.225-.102-.41-.317-.412-.477-.004-.296-.932-.864-1.413-.864-.143 0-.365-.129-.493-.287-.16-.197-.258-.226-.314-.092-.055.132-.188.088-.412-.137-.23-.23-.45-.301-.724-.233-.22.056-.394.027-.394-.065 0-.268-1.17-.929-1.877-1.06-.359-.068-.728-.185-.82-.26-.338-.281-2.043-.765-3.234-.918-.374-.047-.918-.15-1.21-.225-.359-.094-.53-.081-.53.04 0 .099-.165.026-.367-.161-.23-.214-.671-.371-1.183-.422a16.388 16.388 0 0 1-1.632-.265 14.093 14.093 0 0 0-1.762-.248c-.52-.035-1.034-.135-1.142-.222-.108-.087-.711-.164-1.34-.173-1.126-.015-1.393-.048-1.877-.234-.439-.17-1.958-.239-1.958-.09 0 .08-.136.073-.301-.016-.208-.112-.36-.103-.49.027-.142.143-.188.133-.188-.039 0-.166-.056-.151-.206.054-.231.318-.888.288-1.097-.05-.09-.146-.303-.183-.647-.114-.35.07-.48.047-.405-.074.068-.112-.03-.103-.265.023-.31.166-.406.157-.559-.053-.166-.228-.204-.226-.37.02-.172.254-.187.253-.195-.012-.006-.158-.028-.294-.05-.302A56.68 56.68 0 0 0 71.08.554c-.893-.04-1.712-.148-1.822-.24-.137-.114-.236-.107-.314.02-.075.122-.322.146-.709.068-1.01-.202-1.654-.186-1.654.043 0 .116-.073.21-.163.21-.09 0-.145-.082-.123-.184.023-.101-.142-.204-.367-.229a4.719 4.719 0 0 1-.775-.162c-.278-.09-.367-.054-.367.147 0 .146.085.265.19.265s.136.055.068.122c-.067.068-.214-.004-.327-.159-.279-.383-1.04-.41-1.705-.06-.432.227-.588.246-.734.087-.14-.153-.135-.174.019-.087.125.071.204.017.204-.14 0-.14-.094-.255-.209-.255-.253 0-.94.447-1.22.793-.177.22-.203.205-.203-.117 0-.296-.066-.35-.327-.266-.232.074-.326.03-.326-.156 0-.19-.142-.25-.53-.228-.292.017-.65.09-.795.16-.145.072-.309.086-.363.031-.055-.055-.773-.12-1.596-.146-1.132-.035-1.59.014-1.88.205-.32.21-.396.215-.469.023-.091-.24-.691-.281-1.029-.072-.109.068-.163.18-.12.25.042.069-.024.27-.146.445-.19.273-.733.373-1.233.228-.137-.04.726-.384.877-.35.079.018.097-.087.041-.233a1.542 1.542 0 0 1-.101-.417c0-.089-.531-.112-1.265-.056-1.492.113-1.466.113-2.04-.024-.344-.083-.45-.048-.45.147 0 .226-.05.229-.448.02-.614-.322-1.836-.3-2.32.04-.279.196-.412.22-.458.082-.095-.286-.941-.238-1.194.068-.197.239-.24.234-.474-.057-.219-.271-.29-.285-.47-.09Zm2.1.458c0 .135-.073.255-.163.266l-.332.041c-.093.011-.239.131-.324.266-.22.35-.211-.088.01-.502.198-.374.81-.427.81-.071Zm-8.65.318c0 .04-.073.118-.163.173-.09.056-.163.024-.163-.072 0-.095.074-.173.163-.173.09 0 .164.032.164.072Zm-4.807.9c-.16.26-.419.048-.305-.251.063-.164.152-.196.257-.091.088.088.11.242.048.341Zm39.897-.235a.244.244 0 0 1-.24.246c-.145 0-.202-.096-.145-.246.051-.135.16-.246.24-.246.08 0 .145.111.145.246Zm1.702-.123a2.011 2.011 0 0 0-.27.287c-.069.094-.122.041-.124-.123a.276.276 0 0 1 .27-.287c.15 0 .206.056.124.123Zm-42.34.37c0 .09-.074.163-.164.163a.164.164 0 0 1 0-.328c.09 0 .164.074.164.164Zm5.178-.066c-.054.055-.195.06-.313.013-.13-.052-.091-.091.099-.099.172-.007.268.032.214.086Zm39.704.242c0 .077-.11.098-.245.046-.135-.052-.245-.158-.245-.235 0-.078.11-.099.245-.047.134.052.245.158.245.236Zm3.427-.177c0 .09-.129.163-.285.162-.245-.003-.25-.026-.041-.162.308-.2.326-.2.326 0Zm-51.329.328c.056.09.023.164-.072.164a.17.17 0 0 1-.173-.164c0-.09.033-.164.072-.164.04 0 .118.074.173.164Zm42.68 0a.17.17 0 0 1-.174.164c-.095 0-.127-.074-.072-.164.056-.09.133-.164.173-.164.04 0 .072.074.072.164Zm4.072.4c.148.18.155.256.022.256-.103 0-.23-.111-.282-.246-.052-.135-.196-.246-.321-.246-.126 0-.228-.076-.228-.17 0-.212.509.044.809.407Zm-2.159-.301c-.054.054-.195.06-.312.013-.13-.052-.092-.091.098-.1.172-.006.269.033.214.087Zm-47.83.502c-.212.214-.104.546.177.544.226-.002.239-.032.06-.146-.123-.078-.174-.225-.112-.325.123-.2.047-.245-.125-.073Zm53.869.482c-.054.054-.195.06-.313.012-.13-.052-.091-.09.099-.099.172-.007.268.032.214.087Zm.534.228c0 .09-.074.164-.163.164a.164.164 0 0 1 0-.328c.09 0 .163.074.163.164Zm1.795.082c0 .136-.073.246-.163.246-.09 0-.163-.11-.163-.246 0-.135.073-.246.163-.246.09 0 .163.111.163.246Zm4.57.338c0 .14-.073.21-.163.154-.09-.056-.163-.17-.163-.255 0-.085.073-.155.163-.155.09 0 .163.115.163.256Zm6.039 1.466c0 .135-.11.245-.245.245a.246.246 0 0 1 0-.491c.135 0 .245.11.245.246Zm5.657 1.434c-.045.113-.082.02-.082-.205 0-.225.037-.318.082-.205a.635.635 0 0 1 0 .41ZM20.965 8.852c-.055.09-.023.164.072.164a.17.17 0 0 0 .173-.164c0-.09-.032-.164-.072-.164-.04 0-.117.074-.173.164Zm-2.177.656c0 .225.037.317.082.205a.634.634 0 0 0 0-.41c-.045-.113-.082-.02-.082.205Zm-3.423.199c-.254.255-.248.504.01.41.113-.041.329.033.48.166.151.132.353.192.449.133.232-.145.22-.416-.018-.416-.105 0-.312-.11-.46-.244-.206-.188-.312-.2-.46-.05Zm-2.195.718c-.054.054-.058.201-.01.327.07.184-.057.21-.643.129-.464-.064-.77-.034-.842.083-.063.1-.035.183.06.183s.172.175.172.39c0 .305.088.389.408.389.288 0 .408-.09.408-.302 0-.332.455-.639.776-.523.136.05.168-.022.095-.213-.075-.195-.05-.249.08-.168.106.065.192.048.192-.038 0-.085-.116-.2-.258-.255-.317-.122-.318-.122-.438-.002Zm1.022.352c0 .302.302.402.611.203.231-.15.236-.17.021-.104a.492.492 0 0 1-.449-.102c-.135-.136-.183-.135-.183.003Zm-3.509.534c-.055.09-.023.164.072.164s.173.104.173.232c0 .337.377.413.592.12.14-.19.132-.304-.029-.466-.253-.254-.666-.28-.808-.05Zm-1.101.44a.405.405 0 0 0-.286.372c0 .162-.124.397-.275.52-.24.196-.263.19-.174-.048.06-.163.007-.31-.132-.364-.13-.05-.235-.019-.235.069 0 .087-.11.158-.245.158-.134 0-.245.072-.245.16 0 .086-.102.118-.228.07-.365-.14-.41.152-.077.496.27.278.305.283.305.04 0-.15.11-.274.245-.274s.245.116.245.258c0 .43.704.213.834-.258.07-.258.119-.303.129-.123.018.32.265.383.433.109.06-.098.247-.142.415-.098.25.065.277.027.15-.21-.085-.16-.11-.335-.055-.39.109-.11-.251-.61-.416-.58-.057.01-.231.053-.388.094Zm1.02.543c-.21.136-.204.16.04.162.158.001.286-.071.286-.162 0-.2-.018-.2-.326 0ZM6.326 13.52c-.84.545-.928.684-.498.79.157.039.047.04-.245.004-.549-.069-.73.164-.267.343.167.064.232.22.178.427-.046.18-.018.326.064.326.08 0 .148-.148.148-.328 0-.357.12-.402.475-.176.267.17.83-.123.83-.432 0-.118.119-.163.286-.109.23.075.24.06.051-.074-.191-.137-.196-.214-.027-.419.169-.204.167-.307-.01-.55-.207-.284-.256-.274-.985.198Zm-3.313 3.53c.056.09-.066.162-.276.16-.304-.001-.33-.033-.132-.16.303-.198.286-.198.408 0Zm95.313 4.261c.056.09-.018.164-.163.164-.145 0-.219-.073-.163-.164.055-.09.129-.163.163-.163s.108.073.163.163Zm-2.8 1.729c-.053.139-.132.218-.174.175-.043-.043-.03-.157.03-.253.16-.262.254-.211.144.078Zm-.49.983c-.053.14-.131.218-.174.175-.043-.043-.03-.157.03-.253.16-.261.255-.21.145.078Zm-3.81.567a.17.17 0 0 1-.172.164c-.095 0-.128-.074-.072-.164.055-.09.133-.164.172-.164.04 0 .072.074.072.164Zm.572 0c.055.09-.014.164-.154.164-.14 0-.254-.074-.254-.164 0-.09.069-.164.153-.164.085 0 .2.074.255.164Zm-10.854 3.279c0 .09-.073.163-.163.163a.164.164 0 0 1 0-.327c.09 0 .163.073.163.163Zm-63.107 1.491c.075.056.02.147-.122.202-.186.072-.259.001-.259-.25 0-.193.056-.284.123-.202.067.081.183.194.258.25Zm2.84.247c-.055.054-.196.06-.313.013-.13-.053-.092-.091.098-.1.172-.006.269.032.214.087Zm40.03.638c0 .142-.148.246-.347.246-.29 0-.313-.04-.143-.246.112-.135.268-.245.346-.245.08 0 .144.11.144.245Zm-17.872.082c.056.09-.018.164-.163.164-.145 0-.219-.073-.163-.164.055-.09.129-.163.163-.163s.108.073.163.163Zm-6.446.062c0 .034-.11.154-.245.266-.2.167-.245.156-.245-.062 0-.146.11-.266.245-.266.134 0 .245.028.245.062Zm10.771.01c0 .04-.073.119-.163.174-.09.056-.163.023-.163-.072s.073-.174.163-.174c.09 0 .163.033.163.073Zm-7.249.42c.127 0 .231.148.231.328 0 .18-.042.328-.093.328-.187 0-.479-.419-.514-.738-.02-.18.005-.235.054-.123a.38.38 0 0 0 .322.205Zm-6.787.328c0 .211.083.328.204.287a.322.322 0 0 0 .204-.287c0-.12-.091-.25-.204-.287-.121-.04-.204.076-.204.287Zm10.394.03c-.052.132-.09.093-.099-.098-.007-.173.032-.27.086-.215.054.054.06.195.013.314Zm.46.462c.055.09-.014.164-.154.164-.14 0-.254-.074-.254-.164 0-.09.069-.164.153-.164.085 0 .2.074.255.164Z" fill="#1E5C5A"/></svg>