<svg width="40" height="40" viewBox="0 0 40 40" fill="none" xmlns="http://www.w3.org/2000/svg">
<path opacity="0.1" d="M0.330116 24.3436C0.926042 29.2764 2.49376 33.8186 6.9665 36.4426C23.5011 46.0961 43.1445 35.1615 39.5756 14.987C38.6675 9.86772 36.0415 5.23816 31.2939 3.10909C26.5463 0.98002 20.6076 0.197758 15.6031 0.0140505C10.5986 -0.169657 6.2076 1.43471 3.36732 5.61608C-0.083231 10.7087 -0.420023 18.1461 0.330116 24.3436Z" fill="#D50404"/>
<path d="M26.6665 14.3333C27.2188 14.3333 27.6665 13.8856 27.6665 13.3333C27.6665 12.781 27.2188 12.3333 26.6665 12.3333V14.3333ZM14.5832 14.3333L26.6665 14.3333V12.3333L14.5832 12.3333V14.3333ZM14.5832 18.5L21.2498 18.5V16.5L14.5832 16.5V18.5ZM13.4998 15.4167C13.4998 14.8184 13.9849 14.3333 14.5832 14.3333V12.3333C12.8803 12.3333 11.4998 13.7138 11.4998 15.4167H13.4998ZM11.4998 15.4167C11.4998 17.1195 12.8803 18.5 14.5832 18.5V16.5C13.9849 16.5 13.4998 16.015 13.4998 15.4167H11.4998Z" fill="#D50404"/>
<path d="M13.5 20V15.4167H11.5V20H13.5Z" fill="#D50404"/>
<path d="M12 17H12.5H25.5L25.5329 17C25.9762 17 26.3581 17 26.6639 17.0411C26.9917 17.0851 27.3058 17.1845 27.5607 17.4393C27.8155 17.6942 27.9149 18.0083 27.9589 18.3361C28 18.6419 28 19.0238 28 19.4671L28 19.5V20V20.5H27.5H25C23.8954 20.5 23 21.3954 23 22.5C23 23.6046 23.8954 24.5 25 24.5H27.5H28V25V25.5C28 25.511 28 25.522 28 25.5329C28 25.9762 28 26.3581 27.9589 26.6639C27.9149 26.9917 27.8155 27.3058 27.5607 27.5607L12 17ZM12 17V17.5M12 17V17.5M12 17.5L12 25.5L12 25.5329C12 25.9762 12 26.3581 12.0411 26.6639C12.0851 26.9917 12.1845 27.3058 12.4393 27.5607C12.6942 27.8155 13.0083 27.9149 13.3361 27.9589C13.6419 28 14.0238 28 14.4671 28L14.5 28L25.5 28M12 17.5L25.5 28M25.5 28C25.511 28 25.522 28 25.5329 28M25.5 28L25.5329 28M25.5329 28C25.9762 28 26.3581 28 26.6639 27.9589M25.5329 28L26.6639 27.9589M26.6639 27.9589C26.9917 27.9149 27.3058 27.8155 27.5607 27.5607L26.6639 27.9589Z" fill="#D50404" stroke="#D50404"/>
</svg>
