<svg width="40" height="40" viewBox="0 0 40 40" fill="none" xmlns="http://www.w3.org/2000/svg">
<path opacity="0.1" d="M0.330116 24.3436C0.926042 29.2764 2.49376 33.8186 6.9665 36.4426C23.5011 46.0961 43.1445 35.1615 39.5756 14.987C38.6675 9.86772 36.0415 5.23816 31.2939 3.10909C26.5463 0.98002 20.6076 0.197758 15.6031 0.0140505C10.5986 -0.169657 6.2076 1.43471 3.36732 5.61608C-0.083231 10.7087 -0.420023 18.1461 0.330116 24.3436Z" fill="#DEAD00"/>
<path d="M13.7091 21.5902L19.5029 27.0329C19.648 27.1693 19.7206 27.2374 19.7995 27.272C19.9274 27.328 20.0729 27.328 20.2008 27.272C20.2797 27.2374 20.3523 27.1693 20.4974 27.0329L26.2913 21.5902C27.9214 20.0589 28.1194 17.5389 26.7483 15.7718L26.4905 15.4395C24.8504 13.3255 21.5582 13.6801 20.4057 16.0947C20.2429 16.4358 19.7574 16.4358 19.5946 16.0947C18.4421 13.6801 15.1499 13.3255 13.5098 15.4395L13.252 15.7718C11.881 17.5389 12.0789 20.0589 13.7091 21.5902Z" fill="#DEAD00" stroke="#DEAD00" stroke-width="2"/>
</svg>
