<svg width="40" height="40" viewBox="0 0 40 40" fill="none" xmlns="http://www.w3.org/2000/svg">
<path opacity="0.1" d="M2.64026 12.9288C0.327824 16.9744 -1.01734 21.2865 0.950496 25.832C8.25144 42.6007 29.5102 45.7072 38.0969 28.5096C40.2739 24.1443 40.8537 19.1571 38.3963 14.8247C35.9389 10.4923 31.8084 6.48478 28.0605 3.46455C24.3126 0.444317 20.0323 -0.880524 15.4977 0.621978C9.98161 2.45696 5.54448 7.84516 2.64026 12.9288Z" fill="#E05794"/>
<path fill-rule="evenodd" clip-rule="evenodd" d="M20.0001 11.3179C19.3427 11.3179 18.7708 11.7395 17.6268 12.5826L16.6484 13.3038L16.6484 13.3038C16.4682 13.4366 16.3781 13.503 16.2814 13.5589C16.1847 13.6147 16.0821 13.6595 15.877 13.7492L14.7632 14.2359C13.461 14.805 12.81 15.0896 12.4812 15.6589C12.1525 16.2283 12.2316 16.9344 12.3899 18.3466L12.5252 19.5545C12.5502 19.777 12.5626 19.8882 12.5626 19.9999C12.5626 20.1117 12.5502 20.2229 12.5252 20.4454L12.3899 21.6533C12.2316 23.0655 12.1525 23.7716 12.4812 24.341C12.81 24.9103 13.461 25.1949 14.7632 25.764L14.7632 25.764L15.877 26.2507C16.0821 26.3404 16.1847 26.3852 16.2814 26.441C16.3781 26.4969 16.4682 26.5633 16.6484 26.6961L16.6484 26.6961L17.6268 27.4173C18.7708 28.2604 19.3427 28.682 20.0001 28.682C20.6576 28.682 21.2295 28.2604 22.3735 27.4173L23.3519 26.6961C23.5321 26.5633 23.6222 26.4969 23.7189 26.441C23.8156 26.3852 23.9182 26.3404 24.1233 26.2507L24.1233 26.2507L25.2371 25.764C26.5393 25.1949 27.1903 24.9103 27.519 24.341C27.8478 23.7716 27.7686 23.0655 27.6104 21.6533L27.4751 20.4454C27.4501 20.2229 27.4377 20.1117 27.4377 19.9999C27.4377 19.8882 27.4501 19.777 27.4751 19.5545L27.6104 18.3466C27.7686 16.9344 27.8478 16.2283 27.519 15.6589C27.1903 15.0896 26.5393 14.805 25.2371 14.2359L24.1233 13.7492L24.1233 13.7492C23.9182 13.6595 23.8156 13.6147 23.7189 13.5589C23.6222 13.503 23.5321 13.4366 23.3519 13.3038L22.3735 12.5826C21.2295 11.7395 20.6576 11.3179 20.0001 11.3179ZM20.0001 23.3333C21.8411 23.3333 23.3335 21.8409 23.3335 19.9999C23.3335 18.159 21.8411 16.6666 20.0001 16.6666C18.1592 16.6666 16.6668 18.159 16.6668 19.9999C16.6668 21.8409 18.1592 23.3333 20.0001 23.3333Z" fill="#E05794"/>
</svg>
