<svg width="20" height="20" viewBox="0 0 20 20" fill="none" xmlns="http://www.w3.org/2000/svg"><path fill-rule="evenodd" clip-rule="evenodd" d="M15 4.167a.833.833 0 0 0-.834.833v9.167A4.171 4.171 0 0 1 10 18.333a4.171 4.171 0 0 1-4.167-4.166v-10c0-1.379 1.122-2.5 2.5-2.5s2.5 1.121 2.5 2.5v7.5c0 .459-.374.833-.833.833a.835.835 0 0 1-.834-.833V5.833a.833.833 0 0 0-1.666 0v5.834a2.5 2.5 0 1 0 5 0v-7.5a4.167 4.167 0 0 0-8.334 0v10a5.833 5.833 0 0 0 11.667 0V5A.833.833 0 0 0 15 4.167Z" fill="#000"/></svg>