<svg width="18" height="18" viewBox="0 0 18 18" xmlns="http://www.w3.org/2000/svg"><path d="M16.5 3.167a.833.833 0 1 1 0 1.666h-.833V16.5a.833.833 0 0 1-.834.833H3.167a.833.833 0 0 1-.834-.833V4.833H1.5a.833.833 0 1 1 0-1.666h15ZM14 4.833H4v10.834h10V4.833Zm-6.667 2.5c.425 0 .776.318.827.73l.007.104v4.166a.833.833 0 0 1-1.66.105l-.007-.105V8.167c0-.46.373-.834.833-.834Zm3.333 0c.46 0 .834.373.834.834v4.166a.833.833 0 0 1-1.667 0V8.167c0-.46.373-.834.833-.834ZM12.333.667a.833.833 0 0 1 0 1.666H5.666a.833.833 0 0 1 0-1.666h6.667Z" fill="#000" fill-rule="nonzero"/></svg>