<svg width="100" height="54" viewBox="0 0 100 54" xmlns="http://www.w3.org/2000/svg"><path d="M58.25 48.626c.563 0 1.076.149 1.54.43l-.232.58c-.38-.248-.861-.414-1.308-.414-.712 0-.994.315-.994.729 0 .496.414.662 1.193.877.712.183 1.44.53 1.44 1.458 0 .845-.695 1.474-1.722 1.474-.58 0-1.16-.166-1.64-.464l.216-.596c.414.281.86.464 1.44.464.613 0 1.06-.348 1.06-.828 0-.497-.38-.696-1.175-.895-.696-.182-1.458-.48-1.458-1.44 0-.829.663-1.375 1.64-1.375Zm39.432.116v.613h-2.435v1.523h2.021v.613h-2.02v1.524h2.434v.629h-3.114v-4.902h3.114Zm-8.994 0v.63h-1.722v4.272h-.646v-4.273h-1.722v-.63h4.09Zm-18.962 0v.63H68.02v4.272h-.663v-4.273h-1.722v-.63h4.09Zm-65.687 0c1.176 0 1.806.563 1.806 1.44 0 .746-.43 1.193-1.11 1.408l1.325 2.054h-.778l-1.193-1.938-.844.05v1.888h-.663v-4.902h1.457Zm11.363 0v.613h-2.435v1.523h2.037v.613h-2.037v1.524h2.435v.629h-3.097v-4.902h3.097Zm8.366 0 1.822 4.902h-.679l-.464-1.292h-2.12l-.463 1.292h-.696l1.838-4.902h.762Zm8.28 0v4.273h2.368v.629h-3.031v-4.902h.662Zm18.219 0v.613h-2.435v1.523h2.038v.613h-2.038v1.524h2.435v.629H47.17v-4.902h3.097Zm27.294 0 1.822 4.902h-.68l-.463-1.292h-2.12l-.464 1.292h-.695l1.838-4.902h.762Zm-.38.695-.845 2.319h1.689l-.845-2.319Zm-53.794 0-.844 2.319h1.689l-.845-2.319Zm-19.414-.082h-.728v1.805l.811-.017c.646-.016 1.126-.331 1.126-.927 0-.58-.463-.861-1.209-.861Zm93.708-5.45v.415H2.615v-.414h95.066Zm-81.684-18.3a7.432 7.432 0 0 1 1.54 1.755c-.463.398-1.01.961-1.606 1.756-1.226 1.656-3.478 4.637-4.406 9.59.431-7.553 2.965-11.428 4.472-13.101Zm56.649 8.794c1.209 0 1.822.398 1.822 1.193v2.335c0 .182.05.265.165.265.166 0 .265-.116.398-.215l.132.149c-.232.33-.712.546-1.11.546-.48 0-.745-.265-.877-.679-.414.381-.895.646-1.375.646-.695 0-1.11-.398-1.11-1.027 0-.596.497-.96 1.59-1.341l.68-.232c.165-.05.231-.133.231-.315v-.58c0-.38-.182-.563-.53-.563-.414 0-.513.298-.596.547-.1.331-.232.662-.679.662-.298 0-.53-.215-.53-.513 0-.514.646-.878 1.789-.878Zm-24.081 0c1.209 0 1.821.398 1.821 1.193v2.335c0 .182.05.265.166.265.166 0 .265-.116.398-.215l.115.149c-.231.33-.712.546-1.11.546-.48 0-.744-.265-.877-.679-.414.381-.91.646-1.375.646-.695 0-1.11-.398-1.11-1.027 0-.596.498-.96 1.59-1.341l.68-.232c.165-.05.248-.133.248-.315v-.58c0-.38-.199-.563-.53-.563-.414 0-.513.298-.596.547-.116.331-.232.662-.68.662-.314 0-.53-.215-.53-.513 0-.514.647-.878 1.79-.878Zm18.544-1.756c.844 0 1.44.2 2.004.613 0 0 .1-.132.165-.248.067-.116.1-.265.1-.265h.198l.05 1.788h-.182c-.215-1.142-1.077-1.606-1.987-1.606-1.143 0-1.855 1.126-1.855 2.832 0 1.54.695 2.6 1.755 2.6.712 0 1.193-.33 1.193-.877v-.713h-.017c0-.397-.215-.58-.662-.58h-.1v-.181h2.948v.182c-.53 0-.695.132-.695.546v1.325h-.067c-.281 0-.612.05-.96.166-.48.149-.96.43-1.855.43-1.872 0-3.163-1.159-3.163-2.865 0-.712.198-1.341.563-1.871.612-.845 1.49-1.276 2.567-1.276Zm16.675-.1v5.218c0 .281.198.38.646.38v.15c-.613.066-1.21.182-1.822.364l-.116-.762c-.331.497-.795.746-1.441.746-1.21 0-1.97-.828-1.97-2.12 0-1.242.893-2.137 2.02-2.137.563 0 1.026.2 1.358.547v-1.507c0-.398-.15-.464-.729-.48v-.15c.994-.033 1.673-.149 2.054-.248Zm-22.686 0v5.218c0 .281.199.38.646.38v.15c-.613.066-1.209.182-1.822.364l-.116-.762c-.331.497-.795.746-1.44.746-1.21 0-1.971-.828-1.971-2.12 0-1.242.894-2.137 2.02-2.137.563 0 1.027.2 1.358.547v-1.507c0-.398-.149-.464-.729-.48v-.15c.994-.033 1.673-.149 2.054-.248Zm25.638 1.823c1.192 0 1.904.696 1.904 1.805v.05h-2.815c0 .066-.017.215-.017.265 0 1.027.464 1.49 1.259 1.49.712 0 1.209-.496 1.391-.695l.149.133c-.166.43-.96 1.225-1.954 1.225-1.342 0-2.286-.878-2.286-2.103 0-1.259.944-2.17 2.368-2.17Zm9.042.017c.53 0 .795.066 1.308.314l.166-.281h.199a5.81 5.81 0 0 0-.016.4l-.001.196c0 .182 0 .38.017.613h-.2c-.215-.762-.778-1.044-1.357-1.044-.398 0-.63.298-.63.646 0 .398.381.447 1.06.663.928.298 1.375.728 1.375 1.407 0 .795-.63 1.342-1.606 1.342-.779 0-.978-.15-1.375-.364l-.133.314h-.215c.013-.225.016-.418.016-.572v-.107c0-.182 0-.414-.016-.679h.199c.199.663.646 1.21 1.408 1.21a.683.683 0 0 0 .712-.696c0-.365-.298-.48-.828-.663-.994-.348-1.508-.58-1.508-1.374 0-.795.547-1.325 1.425-1.325ZM43.426 19.907v.597h-.116c-1.955 0-2.451.662-2.451 2.467v12.34c0 2.003.53 2.682 2.567 2.715v.563c-2.07-.05-3.66-.082-4.77-.082-1.242 0-2.816.033-4.737.082v-.563c2.253-.05 2.567-.58 2.567-2.716v-6.128h-8.165v6.128c0 2.004.547 2.633 2.567 2.716v.563a250.2 250.2 0 0 0-4.77-.082c-1.291 0-2.865.033-4.736.082v-.563h-.017c2.253-.05 2.567-.58 2.567-2.716V22.971c0-1.855-.215-2.467-2.401-2.467h-.166v-.597c1.839.05 3.412.083 4.737.083 1.292 0 2.898-.033 4.77-.082v.596h-.298c-1.69 0-2.253.695-2.253 2.467v5.333h8.165v-5.333c0-1.888-.198-2.434-2.567-2.467v-.597c2.101.071 3.861.082 5.291.083h.688c1.358 0 2.534 0 3.528-.082Zm55.382 17.49c.315 0 .58.265.58.58 0 .314-.265.58-.58.58a.576.576 0 0 1-.58-.58c0-.315.249-.58.58-.58Zm-6.641-3.03c.877 0 1.325.48 1.325 1.457v2.02c0 .398.033.48.563.53v.15c-.448-.017-.845-.034-1.243-.034-.33 0-.745.017-1.192.033v-.149c.447 0 .547-.116.547-.53v-2.17c0-.53-.2-.794-.58-.794-.547 0-.928.447-.928 1.159v1.788c0 .415.1.564.564.564v.149c-.564-.017-1.01-.033-1.325-.033-.365 0-.746.016-1.16.033v-.15c.547-.05.597-.132.597-.53v-2.4c0-.481-.116-.614-.597-.614v-.165a8.644 8.644 0 0 0 1.789-.315l.066.828a1.87 1.87 0 0 1 1.574-.828Zm-37.645 0c.878 0 1.325.48 1.325 1.457v2.02c0 .398.033.48.563.53v.15c-.447-.017-.844-.034-1.242-.034-.331 0-.729.017-1.193.033v-.149c.448 0 .547-.116.547-.53v-2.17c0-.53-.199-.794-.58-.794-.546 0-.927.447-.927 1.159v1.788c0 .415.1.564.563.564v.149c-.563-.017-1.01-.033-1.325-.033-.364 0-.745.016-1.16.033v-.15c.547-.05.597-.132.597-.53v-2.4c0-.481-.116-.614-.596-.614v-.165a8.643 8.643 0 0 0 1.788-.315l.067.828a1.87 1.87 0 0 1 1.573-.828Zm22.44.016.082.86c.183-.413.779-.81 1.193-.81.497 0 .778.231.778.645 0 .331-.232.563-.596.563-.447 0-.53-.662-.762-.662-.248 0-.546.414-.546.878v2.07c0 .38.165.447.662.447v.166a27.17 27.17 0 0 0-.9-.016h-.732c-.256 0-.583.004-.985.016v-.166h.033c.464-.05.597-.133.597-.48v-2.22c0-.596-.1-.828-.597-.828v-.149c.613-.05 1.276-.116 1.773-.314Zm21.846 3.097a.47.47 0 0 0-.48.48c0 .282.199.497.48.497.265 0 .48-.232.48-.497a.48.48 0 0 0-.48-.48ZM17.67 27.56a7.466 7.466 0 0 1 1.044 3.808c0 3.247-2.087 6.012-4.985 7.04.546-6.129 2.633-9.375 3.941-10.849Zm-13.198.628c1.292 1.392 3.395 4.472 4.24 10.22-2.882-1.044-4.952-3.794-4.952-7.04 0-1.142.265-2.22.712-3.18Zm94.37 9.474c.115 0 .231.033.231.166 0 .082-.066.132-.149.148.083.014.12.19.178.247l.037.019v.033h-.132c-.066 0-.083-.067-.116-.133a.284.284 0 0 0-.065-.119l-.034-.013h-.017v.182c0 .037.01.046.035.049h.031v.034h-.281v-.033c.037 0 .056.009.063-.007l.003-.027v-.463c0-.022-.015-.03-.034-.032l-.032-.002v-.05h.281Zm-39.996-2.866c-.63 0-.994.696-.994 1.723 0 .977.298 1.64.91 1.64.63 0 .995-.381.995-1.094v-1.341c0-.596-.332-.928-.911-.928Zm22.685 0c-.63 0-.994.696-.994 1.723 0 .977.315 1.64.911 1.64.63 0 .994-.381.994-1.094v-1.341c0-.596-.331-.928-.91-.928Zm-32.503 1.396.017-.004c-.762.232-1.143.546-1.143 1.16 0 .43.282.629.514.629.347 0 .612-.232.612-.613v-1.172Zm24.098 0 .017-.004c-.762.232-1.143.546-1.143 1.16 0 .43.281.629.513.629.348 0 .613-.232.613-.613v-1.172Zm25.682 1.52h-.033c-.022 0-.03 0-.032.004l-.001.012h.016v.232h.034c.082 0 .132-.05.132-.133a.113.113 0 0 0-.116-.115ZM49.034 36.19l.01-.002h-.016v.004l.006-.002Zm24.098 0 .01-.002h-.016v.004l.006-.002Zm13.52-1.609c-.562 0-.81.73-.844 1.408h1.573v-.199c0-.662-.165-1.209-.728-1.209ZM11.229 23.9c1.723 0 3.33.58 4.588 1.573a11.616 11.616 0 0 0-1.772 1.921c-1.143 1.524-3.064 4.091-4.257 8.1-1.11-2.535-2.434-4.29-3.296-5.45-.712-.96-1.39-1.623-1.92-2.053a7.463 7.463 0 0 1 6.657-4.091Zm81.256-4.29c1.457 0 2.186.2 3.594.928l.447-.795h.53c-.033.613-.033 1.16-.033 1.722 0 .53 0 1.11.033 1.772h-.53c-.596-2.219-2.153-3.03-3.743-3.03-1.093 0-1.74.877-1.74 1.871 0 1.16 1.06 1.292 2.9 1.938 2.55.878 3.759 2.087 3.759 4.074 0 2.286-1.706 3.876-4.422 3.876-2.153 0-2.7-.448-3.76-1.06l-.364.91h-.58c.037-.608.047-1.133.049-1.574v-.413c0-.53 0-1.192-.049-1.987h.53c.547 1.92 1.772 3.478 3.892 3.478 1.21 0 1.971-.96 1.971-2.02s-.845-1.375-2.269-1.905c-2.75-1.01-4.14-1.69-4.14-3.975 0-2.286 1.507-3.81 3.925-3.81Zm-9.954 0c3.296 0 5.25 1.988 5.25 5.234v.149h-7.75c0 .182-.034.63-.034.795 0 2.965 1.259 4.34 3.478 4.34 1.955 0 3.33-1.425 3.826-2.021l.381.314c-.464 1.226-2.666 3.528-5.4 3.528-3.71 0-6.293-2.517-6.293-6.062 0-3.66 2.617-6.277 6.542-6.277Zm-33.788.017c3.76 0 6.41 2.517 6.41 5.995 0 3.793-2.667 6.327-6.642 6.327-3.76 0-6.46-2.567-6.46-6.128-.016-3.56 2.684-6.194 6.692-6.194Zm22.722-.05c2.617 0 3.511 1.408 3.511 4.157v5.68c0 1.409.083 1.69 1.557 1.756v.497a62.604 62.604 0 0 0-3.064-.083c-1.325 0-2.534.034-3.56.083v-.463c1.208-.034 1.506-.398 1.506-1.773v-6.21c0-1.375-.414-2.07-1.44-2.07-1.475 0-2.502 1.358-2.502 3.477v4.72c0 1.375.166 1.806 1.375 1.822v.497a67.62 67.62 0 0 0-3.113-.083c-1.243 0-2.352.034-3.313.083v-.497c1.21-.033 1.474-.347 1.474-1.64v-6.442c0-1.325-.397-1.938-1.474-1.938-1.424 0-2.484 1.375-2.484 3.478v4.72c0 1.292.166 1.756 1.391 1.822v.497a70.696 70.696 0 0 0-3.296-.083c-1.242 0-2.318.034-3.246.083v-.497h-.017c1.375-.165 1.557-.43 1.557-1.64v-6.84c0-1.324-.182-1.771-1.523-1.805v-.414c1.871-.149 3.246-.364 4.852-.894l.166 2.5c.944-1.556 2.418-2.5 4.157-2.5 1.739 0 2.849.911 3.379 2.401.993-1.523 2.418-2.401 4.107-2.401Zm-22.822.646c-1.871 0-2.633 2.153-2.633 5.664.017 3.395.596 5.466 2.617 5.466 1.888 0 2.55-2.187 2.55-5.764 0-3.263-.761-5.366-2.534-5.366Zm33.69-.016c-1.54 0-2.253 2.12-2.32 4.057h4.323v-.58c0-1.937-.48-3.477-2.003-3.477ZM34.217 3.014v3.959h1.705c1.162 0 2.169-.268 2.9-.697 1.018-.64 1.666-1.641 2.203-3.262h.513v3.959h2.766v.695h-2.766v8.513c0 .894.183 1.358.928 1.358.516 0 1.225-.384 1.734-.971-.72-.99-1.124-2.231-1.124-3.633 0-3.66 2.6-6.277 6.542-6.277 3.296 0 5.25 1.987 5.25 5.233v.15h-7.75c0 .182-.034.629-.034.794 0 2.965 1.259 4.34 3.478 4.34 1.955 0 3.33-1.425 3.826-2.02l.38.314c-.463 1.225-2.666 3.528-5.398 3.528-1.979 0-3.637-.717-4.754-1.923l.07-.28c-.895 1.408-2.021 2.203-3.694 2.203-2.352 0-3.031-1.11-3.031-3.627V7.668h-3.744v8.513c0 .894.182 1.358.928 1.358.546 0 1.308-.43 1.821-1.076l.398.33c-.895 1.409-2.02 2.204-3.694 2.204-2.351 0-3.03-1.11-3.03-3.627V7.668H29v-.546c2.6-.464 3.776-1.458 4.654-4.108h.563Zm-9.97 3.644c3.295 0 5.25 1.987 5.25 5.233v.15h-7.752c0 .182-.033.629-.033.794 0 2.965 1.259 4.34 3.478 4.34 1.954 0 3.33-1.425 3.826-2.02l.397.314c-.463 1.225-2.666 3.528-5.399 3.528-3.71 0-6.293-2.518-6.293-6.062 0-3.66 2.6-6.277 6.525-6.277ZM8.197 0C13.3 0 15.8 1.474 15.8 4.455c0 2.27-1.706 3.776-5.035 4.24 4.025.497 6.227 2.087 6.227 5.018 0 3.28-2.749 5.052-8.165 5.052-1.523 0-3.23-.133-5.1-.133-1.127 0-2.369.05-3.727.133v-.646h.017c2.086-.033 2.583-.613 2.583-2.55V2.98C2.6 1.126 2.153.63.017.596V0c1.44.116 2.567.166 3.411.166C5.134.166 6.741 0 8.198 0Zm51.33 6.674.148 2.468c.514-1.209 2.137-2.352 3.296-2.352 1.375 0 2.153.696 2.153 1.888 0 .978-.63 1.623-1.64 1.623-1.208 0-1.457-1.888-2.086-1.888-.68 0-1.524 1.226-1.524 2.518v6.012c0 1.093.48 1.292 1.839 1.292v.463c-1.21-.033-2.352-.05-3.611-.05h-.39c-.762.002-1.77.008-3.088.05v-.48h.033c1.292-.132 1.656-.364 1.656-1.375v-6.442c0-1.723-.265-2.385-1.64-2.418v-.414c1.856-.15 3.446-.398 4.853-.895ZM7.783 9.225c-.281 0-.58 0-.91.033v5.449c0 2.269.496 3.163 2.152 3.163 2.07 0 3.08-1.838 3.08-4.471 0-2.717-1.357-4.174-4.322-4.174Zm41.635-1.97c-1.54 0-2.252 2.136-2.318 4.057h4.322v-.58c0-1.938-.48-3.478-2.004-3.478Zm-25.355 0c-1.54 0-2.253 2.136-2.319 4.057h4.323v-.58c0-1.938-.48-3.478-2.004-3.478ZM7.867.827c-.911 0-.994.116-.994.53v7.105c.232-.016.447.017.646.017 2.733 0 3.743-1.325 3.743-3.925 0-2.17-1.11-3.727-3.395-3.727Z" fill="#409629" fill-rule="nonzero"/></svg>