<svg width="332" height="36" viewBox="0 0 332 36" fill="none" xmlns="http://www.w3.org/2000/svg"><path fill-rule="evenodd" clip-rule="evenodd" d="m288.509 17.554-.165.276-7.735 11.05h10.497v6.794h-23.479l14.474-20.993a8.236 8.236 0 0 0 1.492-3.425v-.276c-.111-2.376-2.1-4.199-4.475-4.143-2.486 0-4.475 1.988-4.475 4.42v.441h-6.795v-.442c.055-2.21.718-4.42 1.933-6.242 3.481-5.193 10.497-6.574 15.635-3.094 5.193 3.48 6.574 10.496 3.093 15.634Zm-118.776 3.48c0 4.365-3.536 7.9-7.9 7.9-4.364 0-7.845-3.535-7.9-7.9V.043h-6.74v20.992c0 8.121 6.574 14.696 14.695 14.696s14.695-6.575 14.695-14.695V.042h-6.85v20.992ZM17.757 6.893c2.817 0 5.47 1.05 7.513 2.983l3.978-5.635C21.734-2.058 10.52-1.119 4.167 6.395c-6.298 7.513-5.359 18.727 2.154 25.08a17.793 17.793 0 0 0 22.927 0l-3.867-5.634a11.07 11.07 0 0 1-7.624 3.038A10.987 10.987 0 0 1 6.763 17.885 10.987 10.987 0 0 1 17.757 6.893ZM77.92.042l16.573 23.976V.042h6.795v35.632h-6.795L77.92 11.754v23.92h-6.795V.042h6.795Zm32.428 0v6.85h10.496v28.782h6.795V6.892h10.552V.042h-27.843Zm187.668 6.85V.042h10.496v35.632h-6.795V6.892h-3.701ZM38.25.042v35.632h23.755V28.88h-16.96v-7.623H58.69V14.46H45.045V6.892h16.96V.042H38.25Zm162.808 0a11.977 11.977 0 0 1 11.988 11.988c0 5.248-3.425 9.888-8.453 11.435l8.398 12.21h-8.066l-8.121-11.712h-4.364v11.711h-6.795V.042h15.413Zm-8.563 17.125h8.563c2.872 0 5.137-2.265 5.137-5.193a5.128 5.128 0 0 0-5.137-5.137h-8.563v10.33ZM244.205.042l-9.999 14.418-10-14.418h-8.065l14.695 21.213v14.42h6.795v-14.42L252.27.043h-8.065Zm72.315 34.97c-.553-.387-.939-1.05-.939-1.713v-.332s0-.11.165-.11h1.16c.111 0 .166 0 .166.11v.276c0 .387.166.774.497.995.387.276.884.442 1.382.387.442 0 .883-.11 1.27-.332.276-.22.497-.552.497-.884 0-.22-.11-.497-.276-.663-.166-.22-.442-.386-.718-.497-.179-.107-.428-.215-.746-.352h-.001c-.172-.075-.365-.159-.579-.255-.181-.083-.358-.16-.526-.235-.397-.174-.749-.329-1.021-.484-.386-.22-.663-.497-.939-.773-.276-.332-.387-.718-.387-1.16 0-.663.332-1.27.884-1.602a3.767 3.767 0 0 1 2.321-.608c.607 0 1.215.11 1.767.276.498.166.884.442 1.216.884.276.387.442.829.442 1.27v.277s0 .11-.166.11h-1.16c-.111 0-.166 0-.166-.11v-.276c0-.387-.166-.774-.497-.995a2.494 2.494 0 0 0-1.381-.386c-.442 0-.829.11-1.216.331-.276.221-.442.552-.442.884 0 .221.056.442.221.663.166.22.387.387.663.497.179.108.428.215.746.352.173.075.366.159.58.256.553.22 1.105.497 1.658.773.386.166.663.442.939.774.221.331.386.718.331 1.105 0 .662-.331 1.325-.884 1.712-.718.442-1.547.663-2.43.663-.884-.11-1.713-.331-2.431-.829Zm7.623-8.122v8.563c0 .056.11.11.11.11h1.215c.166 0 .166-.11.166-.11v-6.021l1.713 2.707H328.231l1.712-2.707v6.021c0 .11.055.11.166.11h1.215c.166 0 .166-.11.166-.11V26.89c0-.11-.166-.11-.166-.11h-1.215c-.055-.055-.166-.055-.221 0l-2.099 3.48-2.1-3.48c-.055-.055-.11-.055-.165 0h-1.216c-.165 0-.165.11-.165.11Z" fill="#BDAF8A"/></svg>