<svg width="138" height="35" viewBox="0 0 138 35" fill="none" xmlns="http://www.w3.org/2000/svg"><path d="M11.051 3.915a11.8 11.8 0 0 1 6.211 1.534 10.454 10.454 0 0 1 4.994 6.79c.723 2.738.5 5.64-.633 8.234-1.475 3.379-4.114 5.364-7.692 6.157-2.289.517-4.679.353-6.876-.472A10.056 10.056 0 0 1 .92 20.13a12.492 12.492 0 0 1 .322-10.132 10.234 10.234 0 0 1 7.429-5.82c.781-.177 1.58-.266 2.381-.263Zm6.136 11.446c-.032-.654-.053-1.448-.113-2.236a21.672 21.672 0 0 0-.31-2.35 10.192 10.192 0 0 0-1.357-3.652 4.747 4.747 0 0 0-8.395.38 9.81 9.81 0 0 0-.847 2.221 21.519 21.519 0 0 0-.638 5.165 23.267 23.267 0 0 0 .536 5.9 9.183 9.183 0 0 0 1.545 3.438 4.677 4.677 0 0 0 7.17.306 8.463 8.463 0 0 0 1.61-3.1c.55-1.976.819-4.02.8-6.072ZM30.929 12.948c.36-.347.742-.67 1.142-.971a7.25 7.25 0 0 1 5.015-1.48c2.36.198 4.254 1.882 4.291 4.457v8.979a.914.914 0 0 0 .29.718c.472.462.922.95 1.378 1.432.102.108.263.193.172.424H34.85c-.124-.193.032-.306.145-.424.455-.488.9-.976 1.362-1.453a.757.757 0 0 0 .236-.569v-8.764a3.8 3.8 0 0 0-.08-.853 2.344 2.344 0 0 0-2.414-1.936 4.125 4.125 0 0 0-2.918.976.642.642 0 0 0-.258.537V24.04a.703.703 0 0 0 .22.536c.467.488.923.987 1.379 1.486.102.112.252.204.193.434h-8.4c-.123-.187.043-.295.156-.413.494-.504.982-1.013 1.486-1.507a.686.686 0 0 0 .22-.536V13.849a.584.584 0 0 0-.236-.537c-.43-.337-.842-.697-1.255-1.072-.108-.086-.263-.15-.231-.333.032-.182.21-.155.338-.188l5.68-1.185c.386-.086.456 0 .456.381.005.644 0 1.293 0 2.033ZM79.18 4.29h9.225c.08.242-.086.366-.198.505a50.954 50.954 0 0 1-1.658 1.995.815.815 0 0 0-.209.58v16.064a.842.842 0 0 0 .215.584c.568.665 1.126 1.347 1.684 2.022.107.13.257.247.155.472h-9.193c-.107-.23.048-.348.156-.477.568-.686 1.137-1.373 1.716-2.054a.772.772 0 0 0 .21-.537V7.355c-.002-.201-.08-.393-.22-.537-.537-.676-1.127-1.346-1.685-2.022-.107-.16-.268-.252-.198-.504ZM59.265 17.657H49.187a9.184 9.184 0 0 0 .799 4.044 4.425 4.425 0 0 0 3.953 2.628 6.913 6.913 0 0 0 4.51-1.276c.167-.118.306-.226.451.048a7.542 7.542 0 0 1-5.658 3.717 8.84 8.84 0 0 1-3.926-.3 6.725 6.725 0 0 1-4.506-4.468 9.52 9.52 0 0 1 .536-7.51A7.16 7.16 0 0 1 50.84 10.6a7.728 7.728 0 0 1 4.038.305 6.436 6.436 0 0 1 4.2 4.962c.144.585.207 1.188.188 1.791Zm-4.656-1.073a15.259 15.259 0 0 0-.225-2.73 5.17 5.17 0 0 0-.536-1.668 1.947 1.947 0 0 0-3.175-.429c-.271.28-.491.605-.65.96a8.625 8.625 0 0 0-.67 2.682 6.021 6.021 0 0 0-.059 1.529l5.315-.344ZM116.232 17.641h-9.993c-.134.113-.08.236-.08.343.001 1.12.206 2.231.606 3.277.665 1.652 1.829 2.757 3.631 3.004a6.85 6.85 0 0 0 4.924-1.153l.134-.102c.107-.08.204-.172.332-.032.129.14 0 .209-.042.3a7.518 7.518 0 0 1-5.557 3.524 8.946 8.946 0 0 1-3.674-.236 6.628 6.628 0 0 1-4.699-4.479 9.4 9.4 0 0 1 .896-8.228 7.12 7.12 0 0 1 5.095-3.282 7.88 7.88 0 0 1 3.755.204 6.397 6.397 0 0 1 4.441 4.827c.159.666.236 1.349.231 2.033Zm-4.667-1.04a19.721 19.721 0 0 0-.187-2.5 6.709 6.709 0 0 0-.483-1.695 1.977 1.977 0 0 0-1.565-1.25 1.976 1.976 0 0 0-1.852.762 3.498 3.498 0 0 0-.536.874 8.38 8.38 0 0 0-.606 2.371c-.077.583-.12 1.17-.129 1.76l5.358-.322ZM126.16 21.31c.461-1.159.912-2.29 1.368-3.417.643-1.61 1.281-3.218 1.93-4.79a.467.467 0 0 0-.085-.574c-.36-.391-.692-.81-1.036-1.217-.101-.118-.219-.23-.123-.43h4.103c.118.237-.043.344-.161.462-.493.504-.981 1.014-1.48 1.513-.151.153-.27.336-.349.536a7639.583 7639.583 0 0 1-6.028 14.369 21.802 21.802 0 0 1-2.816 4.913 7.521 7.521 0 0 1-1.389 1.41c-.25.204-.533.362-.837.467a.453.453 0 0 1-.209-.246c-.585-.993-1.17-1.98-1.744-2.972-.246-.424-.155-.584.328-.633a22.969 22.969 0 0 0 3.218-.423 3.163 3.163 0 0 0 2.306-1.953c.088-.243.194-.48.317-.708a1.013 1.013 0 0 0 0-1.003c-1.86-4.355-3.708-8.716-5.546-13.082a3.163 3.163 0 0 0-.537-.869c-.397-.44-.767-.9-1.153-1.346-.102-.123-.22-.236-.113-.434h8.464c.097.214-.037.322-.139.44-.397.477-.778.965-1.196 1.415a.588.588 0 0 0-.129.72c.912 2.354 1.808 4.72 2.682 7.074.083.274.202.535.354.778Z" fill="#39385B"/><path d="m87.226 15.431 7.782-8.169-2.896-2.51c-.134-.112-.333-.204-.236-.466h7.98c.108.246-.08.332-.224.44-.966.724-1.937 1.442-2.902 2.145a3.214 3.214 0 0 0-.36.306l-5.202 5.412a.65.65 0 0 0-.188.262c.536.746 1.04 1.497 1.56 2.253l5.692 8.174c.192.287.427.542.697.757.745.59 1.47 1.206 2.215 1.786a.54.54 0 0 1 .242.644.399.399 0 0 1-.263.047h-6.651a.536.536 0 0 1-.536-.29c-2.2-3.503-4.402-7.006-6.609-10.507a.536.536 0 0 1-.101-.284Z" fill="#39385B"/><path d="M65.38 26.496a4.597 4.597 0 0 1-1.97-.992 4.077 4.077 0 0 1-1.389-2.95 4.12 4.12 0 0 1 2.741-4.023 4.028 4.028 0 0 1 3.937.666l.161.139a.312.312 0 0 0 .536 0 3.69 3.69 0 0 1 1.813-.939 4.12 4.12 0 0 1 1.963 7.997c-.096 0-.187.065-.332.113a3.82 3.82 0 0 1-1.346 3.481 3.53 3.53 0 0 1-2.425.853c-1.92-.07-3.862-1.48-3.69-4.345Zm.76-5.9a1.777 1.777 0 0 0-1.807 1.786 1.808 1.808 0 0 0 1.797 1.85 1.818 1.818 0 0 0 0-3.636h.01Zm4.163 1.792a1.802 1.802 0 1 0 3.472-.66 1.823 1.823 0 0 0-1.686-1.142 1.793 1.793 0 0 0-1.786 1.796v.006Zm-1.218 3.304a1.421 1.421 0 1 0 .033 2.843 1.502 1.502 0 0 0 1.41-1.406 1.475 1.475 0 0 0-1.443-1.443v.006ZM68.212 2.735l-2.033.397V.88L70.41 0v14.45c.563.059 1.072 0 1.609.026.638 0 .536-.043.75.488.215.531.489 1.127.746 1.722H65.24c-.059-.23.097-.391.166-.568.177-.456.392-.896.569-1.347a.413.413 0 0 1 .45-.3h1.787V2.735Z" fill="#C2A879"/><path d="m102.769 33.383 1.609-3.09h1.175v4.56h-.923V31.87c-.177.059-.193.198-.247.305-.411.805-.82 1.613-1.228 2.425-.08.16-.15.279-.37.284-.22.005-.3-.107-.386-.274-.402-.81-.815-1.609-1.223-2.424a.536.536 0 0 0-.198-.268v2.896a2.684 2.684 0 0 1-1.009.032V30.32c.368-.045.74-.056 1.111-.032.171 0 .193.15.246.258.408.794.812 1.587 1.212 2.381l.231.456ZM111.373 33.404c.182.601.354.74.944.8.245.024.492.002.729-.065a.491.491 0 0 0 .417-.443.493.493 0 0 0-.331-.511 3.729 3.729 0 0 0-.826-.236 5.705 5.705 0 0 1-1.073-.29 1.15 1.15 0 0 1-.821-1.073 1.19 1.19 0 0 1 .773-1.185 2.99 2.99 0 0 1 2.43 0 1.261 1.261 0 0 1 .826 1.26 5.06 5.06 0 0 1-1.025 0 1.11 1.11 0 0 0-.655-.695 1.12 1.12 0 0 0-.954.062.433.433 0 0 0-.29.392.418.418 0 0 0 .274.397c.277.121.57.206.869.252.409.073.81.188 1.196.343a1.14 1.14 0 0 1 .756 1.073 1.192 1.192 0 0 1-.676 1.185 3.295 3.295 0 0 1-2.875 0 1.258 1.258 0 0 1-.734-1.266c.163-.05.335-.062.504-.037.171.027.343.038.542.038ZM106.937 30.294h1.003v3.68h1.609c.061.285.077.578.048.868h-2.639l-.021-4.548ZM137.95 9.386a2.184 2.184 0 1 1-4.202-.793 2.18 2.18 0 0 1 2.024-1.352 2.147 2.147 0 0 1 2.178 2.145Zm-3.825 0a1.657 1.657 0 0 0 1.016 1.574 1.653 1.653 0 0 0 1.281-.003 1.606 1.606 0 0 0 .975-1.555 1.637 1.637 0 0 0-2.288-1.601 1.651 1.651 0 0 0-.892.945 1.63 1.63 0 0 0-.097.656l.005-.016Zm1.304 1.116h-.488V8.389c.269-.047.542-.069.815-.065.255-.021.51.033.735.156a.58.58 0 0 1 .209.467.537.537 0 0 1-.44.493.628.628 0 0 1 .386.536c.022.186.075.368.156.537h-.537a1.864 1.864 0 0 1-.166-.537c-.037-.23-.166-.332-.44-.332h-.23v.858Zm0-1.207h.23c.274 0 .494-.086.494-.31 0-.226-.14-.323-.451-.323a1.25 1.25 0 0 0-.273 0v.633Z" fill="#39385B"/></svg>