<svg width="326" height="264" viewBox="0 0 326 264" fill="none" xmlns="http://www.w3.org/2000/svg"><path d="M245.098 17.426c-25.061-15.262-51.772-24.14-79.93-11.153C61.294 54.46 42.05 194.767 148.581 251.44c27.042 14.368 57.935 18.196 84.772 1.977 26.838-16.219 51.662-43.481 70.371-68.217 18.709-24.736 26.916-52.986 17.609-82.914-11.367-36.406-44.745-65.691-76.235-84.86Z" fill="#00A5CE"/><path fill-rule="evenodd" clip-rule="evenodd" d="M146.4 146.334c1.207.362 2.385.77 3.532 1.223 1.243.53 2.271 1.287 2.983 2.194.712.907 1.082 1.933 1.073 2.975 0 .518-.096 1.034-.286 1.534-.49 1.247-1.527 2.346-2.956 3.132-1.428.786-3.17 1.217-4.966 1.227a42.464 42.464 0 0 1-8.614-1.275 41.18 41.18 0 0 1-7.731-1.982c-1.608-.703-2.862-1.76-3.579-3.015l-.215-.086-.38-.129h-.002c-.371-.125-.735-.247-1.073-.388a22.063 22.063 0 0 1-2.887-1.568c-1.312-.95-2.152-2.187-2.39-3.517-.237-1.331.142-2.681 1.077-3.84 1.117-1.369 2.92-2.374 5.035-2.809a12.256 12.256 0 0 1 4.486 0 40.88 40.88 0 0 1 6.013 1.465l5.44 1.585c1.428.279 2.729.826 3.77 1.585l1.336 1.241.334.448Zm-26.843-35.719c1.909.672 3.746 1.413 5.583 2.171 1.308.557 2.388 1.354 3.129 2.311.742.956 1.12 2.038 1.095 3.134a5.064 5.064 0 0 1-.477 2.102c-.134.887-.524 1.744-1.146 2.515-.743.951-1.821 1.741-3.126 2.292l-2.075.638c-1.638.292-3.35.292-4.987 0a31.59 31.59 0 0 1-2.744-.827 18.258 18.258 0 0 0-.659-.221c-.225-.073-.457-.148-.725-.245-.525-.189-1.074-.361-1.623-.534a34.225 34.225 0 0 1-6.466-2.36 21.165 21.165 0 0 1-3.555-2.189c-1.122-.858-1.927-1.905-2.344-3.046a5.173 5.173 0 0 1-.043-3.484c.406-1.102 1.213-2.105 2.338-2.905 1.124-.8 2.525-1.368 4.057-1.644 2.054-.307 4.18-.26 6.204.138a43.626 43.626 0 0 1 7.564 2.154Zm-45.145 6.237-2.097-.397-.002-.001c-2.657-.504-5.302-1.006-7.946-1.497h-.191l-.382-.155a30.468 30.468 0 0 0-2.123-.844 52.506 52.506 0 0 0-3.389-1.069c-2.27-.675-4.787-.79-7.158-.327-1.482.31-2.818.905-3.866 1.723-1.387.704-2.468 1.678-3.116 2.809-.648 1.131-.837 2.372-.544 3.578.293 1.206 1.055 2.326 2.198 3.231 1.142.904 2.618 1.554 4.254 1.875 4.378.918 8.799 1.734 13.212 2.549a1119 1119 0 0 1 6.378 1.19c2.312.441 4.772.209 6.85-.644 2.08-.854 3.612-2.262 4.27-3.922.222-.56.334-1.14.333-1.723.006-1.444-.644-2.85-1.851-4.002-1.207-1.151-2.904-1.985-4.83-2.374Zm8.447 31.308c.387.292.723.616 1.003.965h-.048c.608.747.93 1.597.93 2.464 0 .866-.322 1.717-.93 2.464-.612.76-1.483 1.394-2.53 1.844l-.238.103-.764.706c-1.227.989-2.841 1.686-4.629 1.999-2.009.328-4.099.293-6.084-.103-.716-.1-1.425-.227-2.124-.379-1.249-.28-2.478-.602-3.724-.928v-.001l-.404-.105c-1.998-.437-3.699-1.395-4.772-2.688-.97-1.138-1.374-2.482-1.145-3.808a4.31 4.31 0 0 1-.286-1.62v-.12a3.421 3.421 0 0 1-.727-1.535 3.01 3.01 0 0 1 .154-1.619c.404-1.024 1.334-1.899 2.6-2.446a6.948 6.948 0 0 1 2.135-.543 7.505 7.505 0 0 1 2.256.129l.573.155c2.261-.207 4.557.044 6.633.724a594.68 594.68 0 0 1 5.154 1.568l.41.13c.894.285 1.799.573 2.668.887.359.116.73.252 1.096.386l.36.13.906.362c.574.23 1.09.527 1.528.879Zm-.62 44.972a4.829 4.829 0 0 1-.358 1.723c-.612 1.735-2.135 3.231-4.247 4.17-1.08.474-2.285.781-3.538.9a12.453 12.453 0 0 1-3.74-.211l-1.765-.517c-1.106.07-2.22 0-3.293-.207a79.877 79.877 0 0 1-7.397-1.723c-1.838-.465-3.65-.948-5.44-1.482h-.215c-1.505-.317-2.87-.911-3.961-1.723l-1.384-1.309c-.726-.895-1.142-1.903-1.213-2.938-.07-1.036.206-2.068.805-3.01.6-.942 1.505-1.766 2.64-2.401 1.134-.635 2.464-1.064 3.876-1.249 1.125-.54 2.4-.896 3.736-1.042 1.336-.146 2.7-.078 3.995.198a89.836 89.836 0 0 1 7.66 2.154l.003.001a777.7 777.7 0 0 1 7.012 2.049c1.576.302 3.015.896 4.175 1.723l1.48 1.396c.812 1.071 1.215 2.278 1.169 3.498Zm-55.286-46.695c1.89.42 3.486 1.344 4.463 2.585.693.906 1.04 1.929 1.002 2.963 0 .513-.096 1.023-.287 1.517-.453 1.142-1.384 2.156-2.665 2.902-1.281.747-2.85 1.189-4.493 1.267-1.45.61-3.094.937-4.772.948l-2.577-.258a23.987 23.987 0 0 1-3.65-.827 11.213 11.213 0 0 1-2.864-.965l-.883-.224a72.667 72.667 0 0 1-3.364-1.017 12.82 12.82 0 0 1-3.317-1.723c-1.454-1.048-2.386-2.414-2.652-3.885-.266-1.471.15-2.964 1.182-4.247 1.033-1.282 2.624-2.282 4.525-2.843a12.671 12.671 0 0 1 5.988-.259c1.503.362 2.983.758 4.462 1.171.549.121 1.098.259 1.623.397.432.098.869.212 1.31.327.483.127.97.254 1.458.362.453.069.883.138 1.312.224 1.367.268 2.631.757 3.698 1.43l.501.155Zm107.351 63.132c-.463-1.191-1.342-2.277-2.553-3.153a19.314 19.314 0 0 0-4.2-2.395 25.848 25.848 0 0 0-2.076-.879 32.923 32.923 0 0 0-3.985-1.206 29.657 29.657 0 0 0-4.939-.586c-2.227-.173-4.472.165-6.418.965-2.053.606-3.778 1.676-4.916 3.05-1.05 1.32-1.5 2.846-1.286 4.36.214 1.515 1.081 2.943 2.479 4.083a7.989 7.989 0 0 0 2.005 1.568 37.574 37.574 0 0 0 3.674 1.878c1.536.671 3.2 1.176 4.939 1.499a14.86 14.86 0 0 0 5.655 0l.525-.12a13.1 13.1 0 0 0 4.128-.173c.418-.119.83-.243 1.249-.369.37-.111.746-.224 1.137-.337 1.44-.61 2.64-1.476 3.484-2.516l.143-.138c.877-1.093 1.33-2.337 1.313-3.601l-.358-1.93Zm-40.729 18.814c.82.444 1.508 1.001 2.026 1.639.736.878 1.124 1.886 1.121 2.912-.028 1.02-.423 2.018-1.145 2.895l-1.24 1.154c-1.008.713-2.26 1.218-3.628 1.465l-1.145.258c-.793 1.1-1.97 2.033-3.412 2.705-1.53.632-3.261.964-5.023.964-1.762 0-3.493-.332-5.023-.964-1.462-.591-2.924-1.059-4.386-1.528-.924-.296-1.848-.591-2.772-.918a23.951 23.951 0 0 1-2.028-.776 16.617 16.617 0 0 1-2.386-1.24c-.868-.44-1.567-1.034-2.028-1.723-1.06-1.088-1.612-2.392-1.575-3.722.095-.689.215-1.396.382-2.085.423-1.131 1.245-2.164 2.386-2.998 1.37-1.002 3.095-1.711 4.987-2.05a19.01 19.01 0 0 1 6.013 0l.954.137c2.53.397 4.963.845 7.516 1.344.594.116 1.196.231 1.801.346 1.999.379 4.027.763 5.859 1.24.993.18 1.927.501 2.746.945Zm-65.618-24.448c-.8-2.03-2.667-3.755-5.202-4.807a28.92 28.92 0 0 0-4.176-1.413 9.82 9.82 0 0 0-1.765-.413 85.225 85.225 0 0 0-3.532-.362c-2.148-.158-4.303.239-6.084 1.12-1.888.717-3.388 1.87-4.262 3.274-.875 1.405-1.072 2.981-.561 4.476.51 1.495 1.7 2.824 3.379 3.774 1.678.95 3.75 1.467 5.882 1.468.668.12 1.336.241 2.004.344.668.104 1.145.19 1.694.293l.835.138c.912.169 1.85.25 2.792.241.934.038 1.87-.038 2.768-.224 2.24-.44 4.15-1.498 5.32-2.946.785-.96 1.19-2.056 1.17-3.171a6.853 6.853 0 0 0-.262-1.792Zm120.234-25.001 1.67 1.55c.979 1.177 1.498 2.522 1.503 3.894.002 1.688-.762 3.33-2.176 4.675-1.413 1.344-3.398 2.317-5.65 2.769-2.198.446-4.53.416-6.705-.086-.501-.138-1.002-.276-1.503-.396l-.811-.207c-.469.026-.94.026-1.408 0a17.002 17.002 0 0 1-2.983-.31 20.886 20.886 0 0 1-2.434-.724 87.308 87.308 0 0 0-3.865-1.344c-1.42-.267-2.84-.53-4.259-.793-1.42-.262-2.84-.525-4.259-.792-1.366-.253-2.649-.7-3.773-1.314-1.124-.615-2.067-1.385-2.775-2.266-.707-.881-1.165-1.854-1.345-2.864a5.62 5.62 0 0 1 .292-3.017c.374-.982 1.015-1.9 1.885-2.701.871-.801 1.954-1.468 3.185-1.964a13.694 13.694 0 0 1 3.989-.922 14.562 14.562 0 0 1 4.173.264l3.197.569a15.16 15.16 0 0 1 4.128.224c2.458.404 4.856.981 7.158 1.723l3.007.844c1.694.345 3.34.741 4.987 1.206 1.805.345 3.451 1.028 4.772 1.982Z" fill="#A9F0F6"/><path d="M161.494 166.025c.951-8.319-.261-16.54.088-24.796.462-10.866-.581-21.739.343-32.602.184-2.133.619-3.903 3.509-4.467 1.239-.241 1.097-1.128 1.294-1.96.885-3.744-1.309-7.263-.765-11.072.909-6.36.801-12.818 1.506-19.204.964-8.737 2.295-17.473 6.687-25.564 2.78-5.118 7.012-9.58 13.368-11.556 9.233-2.871 18.697-5 28.874-4.387 15.517.934 30.174 3.377 42.706 11.931 5.339 3.643 8.523 7.997 9.534 13.497 1.149 6.253 1.444 12.58 1.428 18.908.035 4.348.159 29.909-1.369 34.164-.557 1.549-1.45 2.333-3.31 2.307-4.576-.065-9.144-.111-13.693-.663-3.514-.427-5.276-1.733-4.861-4.941.294-2.254.299-25.767.522-28.04.434-4.431.896-8.948-.555-13.292-1.707-5.11-2.669-10.615-9.011-13.675-10.635-5.127-22.065-5.822-33.209-2.522-6.649 1.97-13.053 6.286-13.087 13.054-.064 13.473-2.222 26.863-1.769 40.336.033 1.028-.084 1.753 1.677 1.688 9.5-.348 18.953 1.154 28.489.428 4.151-.317 8.37-.574 12.545.143 5.108.876 10.272-.056 15.442.311 5.203.369 10.486-.487 15.765.169 3.899.483 6.417 2.565 6.422 5.854.018 11.801-.79 23.573-1.637 35.347-.477 6.612-1.023 13.283-.491 19.868.56 6.896 0 13.618 0 20.82-.979 3.472-8.601 6.618-15.975 4.601-1.131-.309-2.214-.42-3.253-.135-3.459.947-7.143.864-10.604.953-11.355.289-18.143-.927-29.483 0-12.919 1.056-25.568-1.261-38.271-2.723-3.982-.458-7.941 1.666-8.16-1.67-.468-7.037-1.492-14.153-.696-21.11Zm48.029-123.14c8.438-.446 16.707-.661 24.834 2.04 7.368 2.45 12.324 6.378 15.004 12.747 3.107 7.372 3.348 36.035 2.233 43.621-.316 2.148-.369 4.144 2.333 2.795 3.638 2.604 7.574-1.594 11.46.132.508-9.046.181-39.096-1.197-47.626-.738-4.576-3.617-8.016-7.956-11.112-10.559-7.534-23.377-9.693-36.324-11.15-10.668-1.2-21.174.844-31.068 4.335-4.016 1.418-7.017 4.317-9.168 7.504-2.429 3.595-3.928 7.474-5.06 11.585-3.114 11.302-2.999 22.815-4.153 34.247-.312 3.086.918 5.927 1.351 8.885.235 1.592 1.926 2.613 3.972 2.776 1.227.098 2.474.044 3.713.022 6.775-.117 6.91-.232 6.172-6.034-.832-6.527-.036-13.006.541-19.507.423-4.75 1.093-9.6.41-14.28-1.524-10.487 13.456-20.48 22.903-20.98Zm-16.517 65.532.391.212.029-.304c-.139.029-.281.061-.42.092Zm11.791.022c20.113 14.382 38.16 29.987 57.631 44.63.823-1.581-.217-2.244-1.199-3.121-5.928-5.284-12.14-10.354-17.969-15.695-8.335-7.635-17.391-14.646-25.869-22.137-3.361-2.967-6.959-4.333-12.594-3.677Zm46.229 1.124c4.352 3.691 9.39 6.336 13.377 10.318-.268-3.121-9.582-10.324-13.377-10.318Zm8.142.022c1.696 1.999 3.452 3.217 5.312 4.401 1.557-3.814 1.429-3.932-5.312-4.401Zm2.378 11.531c-5.042-3.976-10.792-7.285-15.454-11.607-1.47-1.364-2.786-.282-4.491.079 7.724 6.272 15.73 11.948 22.514 19.202 1.566-3.659.007-5.643-2.569-7.674Zm-1.88 6.879c-6.433-4.682-12.329-9.885-18.423-14.891-5.124-4.207-5.106-4.22-13.417-3.447 12.687 8.844 23.618 18.608 35.75 27.717 1.326-4.166-.343-6.785-3.91-9.379Zm-.369 9.735c-12.265-9.574-25.418-18.325-37.251-28.295-1.141-.962-2.247-1.11-4.215-.517 16.404 11.265 29.542 24.918 44.858 36.727 1.742-3.484-.599-5.734-3.392-7.915Zm1.921 19.894c-7.56-7.294-16.501-13.391-24.674-20.156-10.81-8.945-22.216-17.383-33.012-26.338-3.129-2.592-6.249-2.905-10.009-2.418 1.646 2.207 4.264 3.582 6.486 5.296 12.075 9.326 23.658 19.063 35.124 28.913 8.507 7.309 17.328 14.416 27.352 20.77 1.117-2.44.637-4.23-1.267-6.067Zm-1.66 8.634c-6.077-3.589-11.086-8.228-16.566-12.407-16.411-12.52-30.592-26.902-47.111-39.318-1.924-1.446-3.638-3.104-5.332-4.746-1.63-1.579-3.485-2.052-6.181-1.242 25 22.172 53.116 41.366 77.474 64.335 1.132-3.095.537-4.956-2.284-6.622Zm-2.015 13.768c.971.932 2.004 3.008 3.558 1.925 1.575-1.099 1.163-3.282-.23-4.764-1.448-1.54-3.178-2.891-4.768-4.337-14.221-12.946-29.384-25.065-44.8-37.014-9.936-7.702-20.159-15.306-28.487-24.354-2.497-2.713-5.287-3.198-9.321-2.494 4.496 4.007 8.879 7.734 13.025 11.636 9.553 9 20.676 16.607 31.088 24.845 13.925 11.023 27.335 22.461 39.935 34.557Zm-12.213.155c2.209 1.993 4.809 1.526 8.491 1.631-8.759-8.43-17.432-15.771-25.997-23.213-14.084-12.241-30.09-22.773-43.955-35.191-4.739-4.244-9.1-8.744-13.355-13.323-.504-.543-.721-1.449-1.842-1.253-.997.175-1.15.942-1.376 1.663-.99 3.163-1.132 5.96 2.471 8.343 4.268 2.822 7.969 6.193 11.39 9.763 6.433 6.708 15.365 11.054 22.784 16.834 14.312 11.151 28.085 22.754 41.389 34.746Zm-4.784 1.789c.644-.721.102-1.066-.314-1.425-14.281-12.332-28.151-25.074-44.092-35.906-10.646-7.234-20.12-15.262-28.981-24.587-1.439 5.363.027 8.716 4.803 12.016 12.948 8.942 25.721 18.132 37.707 27.956 7.903 6.477 16.375 12.659 22.817 20.274 2.585 3.056 5.506.945 8.06 1.672Zm-12.089.031c-2.826-2.967-5.213-5.871-8.067-8.402-16.767-14.88-36.272-27.296-53.688-42.031 0 2.07.044 3.784-.016 5.493-.04 1.112.524 1.718 1.53 2.503 11.121 8.681 22.939 16.668 34.489 24.924 6.913 4.943 12.95 10.771 19.109 16.409 2.025 1.859 3.909 1.562 6.643 1.104Zm-12.105-.218c-13.928-15.495-34.319-25.028-49.148-39.806-1.604 4.707.369 7.673 4.31 10.541 12.193 8.874 24.258 17.891 35.932 27.237 2.899 2.32 5.345 2.565 8.906 2.028Zm-11.52-.126c-13.436-9.65-26.322-18.609-37.721-29.305-.883 2.609-.1 4.179 1.802 5.837 7.446 6.488 14.706 13.13 21.981 19.756 3.516 3.2 7.822 4.247 13.938 3.712Zm-14.442-.278c-8.675-6.511-15.4-14.098-23.12-20.79-1.172 3.182-1.132 3.147 1.687 5.499a2301.397 2301.397 0 0 1 16.975 14.307c1.147.973 2.163 2.02 4.458.984Zm-23.335-.612c2.961-1.507 3.229 3.349 6.336 1.26-2.196-2.357-3.773-5.065-6.769-6.884-.988 3.48-.447 6.071.433 5.624Zm1.214-6.822c3.344 1.607 6.544 3.681 8.979 6.381.752.832 1.601 1.903 4.016 1.434-4.823-4.703-10.37-8.391-14.392-13.38-.303 1.992-2.238 3.818 1.397 5.565Z" fill="#fff"/></svg>