<svg width="167" height="245" viewBox="0 0 167 245" fill="none" xmlns="http://www.w3.org/2000/svg"><path d="m159.315 178.406-82.131 53.959.618-55.637 1.236-111.452s28.525 21.284 46.541 42.479c2.208 2.561 4.151 5.122 6.006 7.595l5.387 12.275 22.343 50.781Z" fill="#F45D48"/><path d="M96.26 104.134c2.384-6.094 3.797-12.54 3.532-19.076 0-.971-.088-2.03-.177-3.002-11.304-9.891-20.489-16.78-20.489-16.78l-.706 61.378c8.213-5.21 14.307-13.512 17.84-22.52Z" fill="#222525"/><path d="M134.146 96.628c0 .441-4.151 6.447-8.302 12.364-4.15 5.917 17.222 19.517 17.222 19.517l8.478-24.64-17.398-7.241Z" fill="#FFA79B"/><path d="M126.728 107.754c3.797-5.563 7.418-10.774 7.418-11.215l9.184 4.15c-3.532 4.769-10.244 6.8-16.602 7.065Z" fill="#222525"/><path d="M166.734 80.907c-.265-6.623-10.421-13.158-18.37-13.865-3.444-.353-4.327-3.09-5.917-.706-3.885 5.828-16.603 23.668-15.808 30.468 1.148 9.891 13.159 11.746 20.931 7.86 7.771-3.886 19.517-14.307 19.164-23.757Z" fill="#FFA79B"/><path d="M145.185 61.39c3.621.176 7.595 4.327 8.92 7.065 6.358 2.385 12.452 7.418 12.628 12.452.265 6.27-4.945 13.07-10.686 18.016-1.766-2.208-1.324-4.592-2.031-7.683-5.564-6.447-2.384-12.276-1.06-15.455-2.472.177-11.039-6.359-11.304-9.361-.265-4.24 2.385-5.034 3.533-5.034Z" fill="#C93D29"/><path d="M161.964 98.923c.795-3.621-2.914-8.213-8.036-7.595-2.208 3.444-4.592 6.712-6.977 10.068 1.325 2.031 5.034 4.415 8.302 4.062 3.709-.53 5.917-2.649 6.711-6.535Z" fill="#FFA79B"/><path d="M157.725 97.687c-1.501.265-3.002.441-4.504.706-.618.088-.353 1.06.265.883 1.502-.265 3.003-.441 4.504-.706.619-.089.354-.972-.265-.883ZM140.328 96.362c-.795.707-2.119.795-2.914.088-.442-.353-1.148.265-.707.707 1.237 1.06 3.091 1.06 4.239-.088.442-.442-.176-1.149-.618-.707ZM137.678 85.323c-.706-.176-1.589-.353-2.119-.883-.618-.53-.795-1.678.176-1.943.619-.176.354-1.06-.265-.883-1.148.265-1.677 1.502-1.236 2.561.53 1.325 1.943 1.855 3.179 2.12.619.088.883-.883.265-.972ZM139.003 73.754c-.265-.089-.441-.177-.706-.265-1.148-.354-1.678 1.413-.53 1.766.265.088.441.177.706.265 1.237.441 1.678-1.325.53-1.766ZM148.365 79.14c-.265-.176-.53-.352-.884-.617-.441-.265-1.059-.089-1.324.353-.265.441-.089.971.353 1.236.265.177.53.354.883.619.442.265 1.06.088 1.325-.354.265-.441 0-.883-.353-1.236Z" fill="#C93D29"/><path d="M145.98 81.702c-.442.618-.971 1.237-1.413 1.943-.353.53.442.972.795.442.441-.618.971-1.237 1.413-1.943.441-.442-.442-.972-.795-.442ZM137.149 76.227c-.442.618-.972 1.236-1.414 1.942-.353.53.442.972.795.442.442-.618.972-1.236 1.413-1.943.442-.441-.441-.971-.794-.441Z" fill="#222525"/><path d="m131.673 115.438-1.325 52.635-46.718 15.013c-5.387-6.977-28.613-28.79-40.536-39.83v-.088c-.53-11.039-5.563-21.195-14.218-28.172-1.237-1.06-3.621 0-2.826 1.678 1.325 3.003 3.09 8.655 2.738 8.743-3.268-4.592-6.183-7.33-10.598-11.039-2.208-1.855-6.624-5.299-9.361-4.416-1.678.53-2.12 1.678-1.943 2.915-2.208-1.678-5.564 1.501-3.003 5.387-1.501-.442-4.592 2.031-2.031 5.917-.972 0-3.533 2.031-.177 6.447 3.974 5.298 6.977 9.802 8.302 11.039 2.473 5.564 10.332 14.042 15.19 18.546 4.415 8.301 9.714 17.927 13.6 24.992 33.47 62.173 44.157 57.934 52.282 53.607 8.124-4.328 35.06-19.782 60.936-42.038 24.551-21.283 17.574-40.8-20.312-81.336Z" fill="#FFA79B"/><path d="M151.808 196.775c-25.875 22.255-52.988 40.801-61.2 45.129-8.126 4.327-20.49 12.54-53.96-49.633-2.473-4.592-5.564-10.156-8.567-15.808 5.917-7.242 13.512-21.813 19.076-29.408 9.45 8.831 22.785 21.372 30.733 29.673 2.561 2.649 4.504 4.857 5.652 6.359l46.718-15.014 1.06-40.801.265-11.745c4.239 4.504 8.124 8.831 11.569 12.894 27.554 31.969 30.556 49.455 8.654 68.354Z" fill="#F45D48"/><path d="M21.634 127.272c-3.003-5.829-7.507-10.598-13.07-14.042-.53-.353-.972.53-.442.795a34.48 34.48 0 0 1 12.717 13.688c.265.619 1.06.177.795-.441ZM16.865 131.6c-2.915-5.122-6.712-9.538-11.393-13.159-.441-.353-1.148.265-.706.706a42.766 42.766 0 0 1 11.216 12.983c.353.529 1.148 0 .883-.53ZM13.42 137.34c-2.56-4.769-6.005-8.919-10.42-12.187-.53-.353-.972.442-.442.795 4.24 3.179 7.595 7.153 10.068 11.834.265.618 1.148.088.795-.442Z" fill="#C93D29"/><path d="M88.399 191.742c-1.325-2.826-2.738-5.564-4.063-8.39-.264-.53-1.06-.089-.794.441 1.324 2.826 2.737 5.564 4.062 8.39.265.618 1.06.088.795-.441ZM125.402 162.333l-32.41 17.044c-.53.265-.09 1.148.44.795l32.412-17.045c.53-.264.088-1.059-.442-.794Z" fill="#fff"/><path d="M64.731 3.633C60.67-1.843 51.573-.077 45.567 2.13c-.176.089-.265.089-.353.177-2.296-.088-4.327.353-6.182 1.59-2.738.971-6.888 5.563-6.888 5.563-1.237.884-1.413 4.681 3.355 2.826.177.53.972 3.71 5.653 1.325.088.088 2.649 3.798 7.683-.706 3.003 2.826 7.507.088 9.98-2.738 3.355.088 11.215 0 11.745 0-.53-1.236-1.148-2.473-5.829-6.535Z" fill="#FFA79B"/><path d="M54.398 2.483c-3.002 2.032-4.945 5.034-5.652 8.567-.088.618.795.883.884.265a12.297 12.297 0 0 1 5.21-7.948c.53-.354.088-1.149-.442-.884ZM45.567 3.632c-2.914 1.59-4.769 4.592-4.769 7.948 0 .618.972.618.972 0 0-3.003 1.59-5.652 4.239-7.065.618-.353.088-1.237-.442-.883ZM39.12 4.162c-2.296 1.766-3.62 4.239-3.885 7.065-.089.618.883.618.971 0 .177-2.473 1.413-4.68 3.444-6.27.442-.353 0-1.237-.53-.795ZM63.848 9.55c-.883-1.148-2.473-1.678-3.886-1.148-.53.177-.353 1.148.265.883.972-.353 2.12-.177 2.826.707.265.53 1.148 0 .795-.442Z" fill="#C93D29"/><path d="m143.242 128.243-6.182-.529-5.74-.53-12.276-1.148s4.592-13.071 6.623-18.281c2.208 2.561 4.151 5.122 6.006 7.595 4.239 4.592 8.125 8.919 11.569 12.893Z" fill="#FFA79B"/></svg>