<svg width="682" height="792" fill="none" xmlns="http://www.w3.org/2000/svg"><g filter="url(#a)"><path d="M276 646c0-11.046 8.954-20 20-20h92c11.046 0 20 8.954 20 20s-8.954 20-20 20h-92c-11.046 0-20-8.954-20-20Z" fill="#fff"/><path d="M313.823 644c.409 0 .777.249.928.629l3.6 9a1 1 0 0 1-1.858.743l-.949-2.372h-4.09l-.948 2.371a1 1 0 0 1-1.857-.742l3.6-9a.998.998 0 0 1 .928-.629h.646ZM305 636a1 1 0 0 1 1 1v1h5a1 1 0 0 1 0 2h-.968a18.224 18.224 0 0 1-3.62 6.301c.508.453 1.046.871 1.611 1.25.409.275.587.803.404 1.261-.225.563-.901.809-1.407.476a17.145 17.145 0 0 1-2.02-1.563 16.702 16.702 0 0 1-5.225 3.209c-.528.202-1.102-.115-1.253-.659-.144-.518.148-1.057.648-1.253a14.71 14.71 0 0 0 4.42-2.72 18.082 18.082 0 0 1-2.095-2.909c-.367-.633.112-1.393.844-1.393h.072c.367 0 .703.202.889.518a16.025 16.025 0 0 0 1.7 2.359 16.178 16.178 0 0 0 2.91-4.876L299 640a1 1 0 0 1 0-2h5v-1a1 1 0 0 1 1-1Zm8.5 10.885L312.253 650h2.492l-1.245-3.115Z" fill="#F55116"/><path d="M343.7 639.74h-4.48v-2.2h-1.64v2.2h-4.46v1.32h10.58v-1.32Zm-8.02 5.64c0-1.24 1.1-2.04 2.72-2.04s2.74.8 2.74 2.04c0 1.26-1.12 2.06-2.74 2.06s-2.72-.8-2.72-2.06Zm7.02 0c0-2-1.76-3.32-4.3-3.32s-4.28 1.32-4.28 3.32c0 2.02 1.74 3.34 4.28 3.34s4.3-1.32 4.3-3.34Zm-5.24 4.56h-1.64v5.14h11.96v-1.34h-10.32v-3.8Zm9.52-6.48v-5.92h-1.64V651h1.64v-6.16h2.64v-1.38h-2.64Zm20.758 2.68v-1.34h-2.54c.44-2.12.44-3.76.44-5.1v-1.3h-12.1v1.32h10.48c0 1.34 0 2.92-.48 5.08h-12.08v1.34h7.3v3.28h-5.58v1.32h10.92v4.72h1.64v-6.04h-5.34v-3.28h7.34Zm6.919 3.84c-1.72 0-2.92-1.88-2.92-4.8 0-2.9 1.2-4.78 2.92-4.78 1.7 0 2.9 1.88 2.9 4.78 0 2.92-1.2 4.8-2.9 4.8Zm8.34-12.44v6.84h-3.9c-.26-3.36-2.02-5.46-4.44-5.46-2.62 0-4.48 2.44-4.48 6.26s1.86 6.26 4.48 6.26c2.5 0 4.28-2.2 4.44-5.72h3.9v9.8h1.64v-17.98h-1.64Z" fill="#6C6C72"/></g><g filter="url(#b)"><path d="M368 26c0-11.046 8.954-20 20-20h104c11.046 0 20 8.954 20 20s-8.954 20-20 20H388c-11.046 0-20-8.954-20-20Z" fill="#fff"/><path d="M405.823 24c.409 0 .777.249.928.629l3.6 9a1 1 0 1 1-1.858.743L407.544 32h-4.09l-.948 2.371a1 1 0 0 1-1.857-.742l3.6-9a.998.998 0 0 1 .928-.629h.646ZM397 16a1 1 0 0 1 1 1v1h5a1 1 0 0 1 0 2h-.968a18.223 18.223 0 0 1-3.62 6.301c.508.453 1.046.87 1.611 1.25.409.275.587.803.404 1.26-.225.564-.901.81-1.407.477a17.048 17.048 0 0 1-2.02-1.563 16.682 16.682 0 0 1-5.225 3.208c-.528.203-1.102-.114-1.253-.659-.144-.518.148-1.056.648-1.252a14.693 14.693 0 0 0 4.42-2.72 18.089 18.089 0 0 1-2.095-2.909c-.367-.633.112-1.393.844-1.393h.072c.367 0 .703.202.889.518a16.06 16.06 0 0 0 1.7 2.359 16.173 16.173 0 0 0 2.91-4.876H391A1 1 0 0 1 391 18h5v-1a1 1 0 0 1 1-1Zm8.5 10.885L404.253 30h2.492l-1.245-3.115Z" fill="#F55116"/><path d="M425.761 33h8.892v-1.563h-7.13v-4.943h6.562v-1.562h-6.562v-4.915h7.017v-1.563h-8.779V33Zm13.402-6.563c0-1.903 1.179-2.983 2.784-2.983 1.556 0 2.5 1.016 2.5 2.728V33h1.677v-6.932c0-2.784-1.485-4.12-3.694-4.12-1.647 0-2.67.74-3.181 1.848h-.142V22.09h-1.62V33h1.676v-6.563Zm14.427 10.881c2.613 0 4.716-1.193 4.716-4.005V22.09h-1.62v1.733h-.17c-.369-.568-1.051-1.875-3.182-1.875-2.756 0-4.659 2.187-4.659 5.54 0 3.409 1.989 5.34 4.631 5.34 2.13 0 2.812-1.25 3.182-1.846h.142v2.216c0 1.818-1.279 2.642-3.04 2.642-1.982 0-2.678-1.044-3.125-1.648l-1.335.938c.681 1.143 2.024 2.187 4.46 2.187Zm-.057-5.994c-2.102 0-3.182-1.591-3.182-3.864 0-2.216 1.051-4.006 3.182-4.006 2.045 0 3.125 1.648 3.125 4.006 0 2.415-1.108 3.864-3.125 3.864Zm9.517-12.87h-1.676V33h1.676V18.454ZM466.12 33h1.676V22.09h-1.676V33Zm.852-12.727c.654 0 1.193-.512 1.193-1.137S467.626 18 466.972 18c-.653 0-1.193.511-1.193 1.136 0 .625.54 1.137 1.193 1.137Zm11.621 4.261c-.525-1.548-1.704-2.585-3.863-2.585-2.301 0-4.006 1.307-4.006 3.153 0 1.506.895 2.514 2.898 2.983l1.818.426c1.101.256 1.619.782 1.619 1.535 0 .937-.994 1.704-2.557 1.704-1.37 0-2.23-.59-2.528-1.761l-1.591.397c.391 1.854 1.918 2.841 4.148 2.841 2.535 0 4.261-1.385 4.261-3.267 0-1.52-.951-2.479-2.897-2.954l-1.62-.398c-1.292-.32-1.875-.753-1.875-1.591 0-.938.995-1.62 2.33-1.62 1.463 0 2.067.81 2.358 1.563l1.505-.426Zm4.398 1.904c0-1.904 1.215-2.983 2.87-2.983 1.577 0 2.528.994 2.528 2.727V33h1.676v-6.932c0-2.805-1.491-4.12-3.721-4.12-1.719 0-2.699.718-3.21 1.848h-.143v-5.341h-1.676V33h1.676v-6.563Z" fill="#6C6C72"/></g><g filter="url(#c)"><path d="M51 90c0-11.046 8.954-20 20-20h134c11.046 0 20 8.954 20 20s-8.954 20-20 20H71c-11.046 0-20-8.954-20-20Z" fill="#fff"/><path d="M88.823 88a1 1 0 0 1 .928.629l3.6 9a1 1 0 0 1-1.858.743L90.544 96h-4.09l-.948 2.371a1 1 0 1 1-1.857-.742l3.6-9a1 1 0 0 1 .928-.629h.646ZM80 80a1 1 0 0 1 1 1v1h5a1 1 0 1 1 0 2h-.968a18.222 18.222 0 0 1-3.62 6.301c.508.453 1.046.87 1.61 1.25.41.275.588.803.404 1.26-.225.564-.9.81-1.406.477A17.01 17.01 0 0 1 80 91.725a16.675 16.675 0 0 1-5.225 3.209c-.528.202-1.102-.115-1.253-.66-.144-.517.148-1.056.648-1.252a14.7 14.7 0 0 0 4.42-2.72 18.071 18.071 0 0 1-2.095-2.909c-.367-.633.112-1.393.844-1.393h.072c.367 0 .703.202.89.518A16.027 16.027 0 0 0 80 88.877a16.165 16.165 0 0 0 2.91-4.876H74A1 1 0 0 1 74 82h5v-1a1 1 0 0 1 1-1Zm8.5 10.885L87.253 94h2.492L88.5 90.885Z" fill="#F55116"/><path d="M108.761 97h1.762v-5.313h3.182c3.387 0 4.914-2.06 4.914-4.63 0-2.571-1.527-4.603-4.943-4.603h-4.915V97Zm1.762-6.875v-6.108h3.096c2.365 0 3.267 1.293 3.267 3.04s-.902 3.068-3.238 3.068h-3.125Zm15.021 7.102c2.955 0 4.943-2.244 4.943-5.625 0-3.409-1.988-5.653-4.943-5.653-2.955 0-4.943 2.244-4.943 5.653 0 3.381 1.988 5.625 4.943 5.625Zm0-1.505c-2.244 0-3.267-1.932-3.267-4.12 0-2.187 1.023-4.148 3.267-4.148 2.244 0 3.267 1.96 3.267 4.148 0 2.188-1.023 4.12-3.267 4.12ZM133.046 97h1.676v-6.903c0-1.478 1.165-2.557 2.756-2.557.447 0 .909.085 1.022.113V85.95a16.084 16.084 0 0 0-.88-.028c-1.307 0-2.444.738-2.841 1.818h-.114V86.09h-1.619V97Zm12.869-10.91h-2.329v-2.613h-1.677v2.614h-1.647v1.42h1.647v6.819c0 1.903 1.535 2.812 2.955 2.812.625 0 1.023-.114 1.25-.199l-.341-1.505c-.142.028-.369.085-.739.085-.738 0-1.448-.227-1.448-1.648v-6.364h2.329v-1.42Zm9.396 6.45c0 2.045-1.562 2.983-2.812 2.983-1.392 0-2.386-1.023-2.386-2.614v-6.818h-1.677v6.932c0 2.784 1.478 4.119 3.523 4.119 1.648 0 2.727-.88 3.239-1.989h.113V97h1.677V86.09h-1.677v6.45Zm9.15 8.778c2.614 0 4.716-1.193 4.716-4.005V86.09h-1.619v1.733h-.171c-.369-.568-1.051-1.875-3.182-1.875-2.755 0-4.659 2.187-4.659 5.54 0 3.409 1.989 5.34 4.631 5.34 2.131 0 2.812-1.25 3.182-1.846h.142v2.216c0 1.818-1.279 2.642-3.04 2.642-1.982 0-2.678-1.044-3.125-1.648l-1.335.938c.682 1.143 2.024 2.187 4.46 2.187Zm-.057-5.994c-2.102 0-3.182-1.591-3.182-3.864 0-2.216 1.051-4.005 3.182-4.005 2.046 0 3.125 1.647 3.125 4.005 0 2.415-1.108 3.864-3.125 3.864Zm14.716-2.784c0 2.045-1.562 2.983-2.812 2.983-1.393 0-2.387-1.023-2.387-2.614v-6.818h-1.676v6.932c0 2.784 1.477 4.119 3.523 4.119 1.647 0 2.727-.88 3.238-1.989h.114V97h1.676V86.09h-1.676v6.45Zm9.32 4.687c2.216 0 3.835-1.108 4.347-2.755l-1.62-.455c-.426 1.136-1.413 1.705-2.727 1.705-1.967 0-3.324-1.272-3.402-3.608h7.919v-.71c0-4.063-2.415-5.455-4.687-5.455-2.955 0-4.915 2.33-4.915 5.682 0 3.352 1.932 5.596 5.085 5.596Zm-3.402-6.562c.114-1.698 1.314-3.21 3.232-3.21 1.818 0 2.982 1.363 2.982 3.21h-6.214Zm1.669-5.88 1.477-1.99 1.478 1.99h1.59v-.114l-2.301-2.955h-1.534l-2.301 2.955v.113h1.591Zm16.527 3.75c-.526-1.55-1.705-2.586-3.864-2.586-2.301 0-4.005 1.307-4.005 3.153 0 1.506.895 2.514 2.897 2.983l1.819.426c1.1.256 1.619.782 1.619 1.535 0 .937-.994 1.704-2.557 1.704-1.371 0-2.23-.59-2.528-1.761l-1.591.397c.39 1.854 1.917 2.841 4.148 2.841 2.535 0 4.261-1.385 4.261-3.267 0-1.52-.952-2.478-2.898-2.954l-1.619-.398c-1.293-.32-1.875-.753-1.875-1.591 0-.938.994-1.62 2.329-1.62 1.463 0 2.067.81 2.358 1.563l1.506-.426Z" fill="#6C6C72"/></g><g filter="url(#d)"><path d="M8 198c0-11.046 8.954-20 20-20h166c11.046 0 20 8.954 20 20s-8.954 20-20 20H28c-11.046 0-20-8.954-20-20Z" fill="#fff"/><path d="M45.823 196a1 1 0 0 1 .928.629l3.6 9a1 1 0 0 1-1.858.743L47.544 204h-4.09l-.948 2.371a1 1 0 1 1-1.857-.742l3.6-9a1 1 0 0 1 .928-.629h.646ZM37 188a1 1 0 0 1 1 1v1h5a1 1 0 0 1 0 2h-.968a18.223 18.223 0 0 1-3.62 6.301 14.88 14.88 0 0 0 1.61 1.25c.41.275.588.803.404 1.261-.224.563-.9.809-1.406.476a17.107 17.107 0 0 1-2.02-1.563 16.695 16.695 0 0 1-5.225 3.209c-.528.202-1.102-.115-1.253-.659-.144-.518.148-1.057.648-1.253a14.718 14.718 0 0 0 4.42-2.72 18.065 18.065 0 0 1-2.095-2.909c-.367-.633.112-1.393.845-1.393h.071c.367 0 .703.202.89.518A15.993 15.993 0 0 0 37 196.877a16.17 16.17 0 0 0 2.91-4.876L31 192a1 1 0 0 1 0-2h5v-1a1 1 0 0 1 1-1Zm8.5 10.885L44.253 202h2.492l-1.245-3.115Z" fill="#F55116"/><path d="M65.761 205h1.762v-5.312h3.181c3.388 0 4.915-2.06 4.915-4.631s-1.527-4.602-4.943-4.602h-4.915V205Zm1.762-6.875v-6.108h3.096c2.365 0 3.267 1.293 3.267 3.04s-.902 3.068-3.238 3.068h-3.125Zm15.021 7.102c2.955 0 4.943-2.244 4.943-5.625 0-3.409-1.988-5.653-4.943-5.653-2.954 0-4.943 2.244-4.943 5.653 0 3.381 1.989 5.625 4.943 5.625Zm0-1.505c-2.244 0-3.267-1.932-3.267-4.12 0-2.187 1.023-4.147 3.267-4.147 2.244 0 3.267 1.96 3.267 4.147 0 2.188-1.023 4.12-3.267 4.12ZM90.046 205h1.676v-6.903c0-1.478 1.165-2.557 2.756-2.557.447 0 .909.085 1.022.113v-1.704a16.283 16.283 0 0 0-.88-.029c-1.307 0-2.444.739-2.841 1.819h-.114v-1.648h-1.62V205Zm12.869-10.909h-2.329v-2.614h-1.677v2.614h-1.647v1.42h1.647v6.819c0 1.903 1.535 2.812 2.955 2.812.625 0 1.023-.114 1.25-.199l-.341-1.505c-.142.028-.369.085-.739.085-.738 0-1.448-.228-1.448-1.648v-6.364h2.329v-1.42Zm9.396 6.449c0 2.045-1.562 2.983-2.812 2.983-1.392 0-2.386-1.023-2.386-2.614v-6.818h-1.677v6.932c0 2.784 1.478 4.119 3.523 4.119 1.648 0 2.727-.881 3.239-1.989h.113V205h1.677v-10.909h-1.677v6.449Zm9.15 8.778c2.614 0 4.716-1.193 4.716-4.006v-11.221h-1.619v1.733h-.171c-.369-.568-1.051-1.875-3.182-1.875-2.755 0-4.659 2.187-4.659 5.54 0 3.409 1.989 5.341 4.631 5.341 2.131 0 2.812-1.25 3.182-1.847h.142v2.216c0 1.818-1.279 2.642-3.04 2.642-1.982 0-2.678-1.044-3.125-1.648l-1.335.938c.682 1.143 2.024 2.187 4.46 2.187Zm-.057-5.994c-2.102 0-3.182-1.591-3.182-3.864 0-2.216 1.051-4.005 3.182-4.005 2.046 0 3.125 1.647 3.125 4.005 0 2.415-1.108 3.864-3.125 3.864Zm14.716-2.784c0 2.045-1.562 2.983-2.812 2.983-1.393 0-2.387-1.023-2.387-2.614v-6.818h-1.676v6.932c0 2.784 1.477 4.119 3.523 4.119 1.647 0 2.727-.881 3.238-1.989h.114V205h1.676v-10.909h-1.676v6.449Zm9.32 4.687c2.216 0 3.835-1.108 4.347-2.755l-1.62-.455c-.426 1.136-1.413 1.705-2.727 1.705-1.967 0-3.324-1.272-3.402-3.608h7.919v-.711c0-4.062-2.415-5.454-4.687-5.454-2.955 0-4.915 2.329-4.915 5.682 0 3.352 1.932 5.596 5.085 5.596Zm-3.402-6.562c.114-1.698 1.314-3.21 3.232-3.21 1.818 0 2.982 1.363 2.982 3.21h-6.214Zm1.669-5.881 1.477-1.989 1.478 1.989h1.59v-.114l-2.301-2.954h-1.534l-2.301 2.954v.114h1.591Zm16.527 3.75c-.526-1.548-1.705-2.585-3.864-2.585-2.301 0-4.005 1.307-4.005 3.153 0 1.506.895 2.514 2.897 2.983l1.819.426c1.1.256 1.619.782 1.619 1.534 0 .938-.994 1.705-2.557 1.705-1.371 0-2.23-.589-2.528-1.761l-1.591.397c.39 1.854 1.917 2.841 4.148 2.841 2.535 0 4.261-1.385 4.261-3.267 0-1.52-.952-2.478-2.898-2.954l-1.619-.398c-1.293-.32-1.875-.753-1.875-1.591 0-.937.994-1.619 2.329-1.619 1.463 0 2.067.809 2.358 1.562l1.506-.426Zm8.574 8.466h8.892v-1.562h-7.13v-4.944h6.562v-1.562h-6.562v-4.915h7.017v-1.562h-8.779V205Zm21.499-14.545v9.488c0 2.131-1.463 3.665-3.892 3.665s-3.892-1.534-3.892-3.665v-9.488h-1.762v9.63c0 2.983 2.23 5.171 5.654 5.171 3.423 0 5.653-2.188 5.653-5.171v-9.63h-1.761Z" fill="#6C6C72"/></g><g filter="url(#e)"><path d="M547 97c0-11.046 8.954-20 20-20h87c11.046 0 20 8.954 20 20s-8.954 20-20 20h-87c-11.046 0-20-8.954-20-20Z" fill="#fff"/><path d="M584.823 95c.409 0 .777.249.928.629l3.6 9a1 1 0 0 1-1.858.743l-.949-2.372h-4.09l-.948 2.371a1 1 0 0 1-1.857-.742l3.6-9a.998.998 0 0 1 .928-.629h.646ZM576 87a1 1 0 0 1 1 1v1h5a1 1 0 0 1 0 2h-.968a18.223 18.223 0 0 1-3.62 6.301c.508.453 1.046.87 1.611 1.25.409.275.587.803.404 1.26-.225.564-.901.81-1.407.477a17.082 17.082 0 0 1-2.02-1.563 16.702 16.702 0 0 1-5.225 3.209c-.528.202-1.102-.115-1.253-.659-.144-.518.148-1.057.648-1.253a14.702 14.702 0 0 0 4.42-2.72 18.089 18.089 0 0 1-2.095-2.909c-.367-.633.112-1.393.844-1.393h.072c.367 0 .703.202.889.518a16.06 16.06 0 0 0 1.7 2.359 16.173 16.173 0 0 0 2.91-4.876H570A1 1 0 0 1 570 89h5v-1a1 1 0 0 1 1-1Zm8.5 10.885L583.253 101h2.492l-1.245-3.115Z" fill="#F55116"/><path d="M605.84 103.1c-.36 0-.727-.033-1.1-.1-.36-.053-.613-.093-.76-.12l.22-1.58c1.2.16 2.293.147 3.28-.04 1-.2 1.793-.687 2.38-1.46-.52-.853-1.3-1.887-2.34-3.1-1.04-1.227-2.28-2.487-3.72-3.78l1.08-1.14c1.413 1.333 2.58 2.54 3.5 3.62.92 1.08 1.66 2.02 2.22 2.82.16-.573.253-1.227.28-1.96l-.28-7.54h1.64l.4 10.3c.027.653.087 1.16.18 1.52.107.347.333.587.68.72.36.133.92.2 1.68.2.28 0 .48.08.6.24.133.147.2.327.2.54 0 .213-.093.413-.28.6-.187.173-.427.26-.72.26-.933 0-1.673-.087-2.22-.26-.547-.187-.947-.467-1.2-.84-.253-.387-.42-.88-.5-1.48-.413.733-.92 1.287-1.52 1.66s-1.227.62-1.88.74c-.64.12-1.247.18-1.82.18Zm9.133 0 .2-1.64c.84 0 1.486-.007 1.94-.02.466-.013.806-.027 1.02-.04.213-.027.36-.04.44-.04-.24-.133-.52-.34-.84-.62-.32-.293-.6-.66-.84-1.1-.24-.453-.36-.987-.36-1.6 0-.747.173-1.407.52-1.98.36-.587.846-1.04 1.46-1.36.626-.32 1.34-.48 2.14-.48.64 0 1.3.107 1.98.32l-.34 1.54a6.46 6.46 0 0 0-1.64-.22c-.734 0-1.334.2-1.8.6-.454.387-.68.913-.68 1.58 0 .44.113.833.34 1.18.226.333.506.62.84.86.346.227.7.4 1.06.52.373.12.706.173 1 .16l.58-.18c.186-.067.413-.153.68-.26.28-.107.68-.28 1.2-.52l.56 1.46c-.894.36-1.807.68-2.74.96-.92.28-1.927.5-3.02.66-1.08.147-2.314.22-3.7.22Zm9.63 4.54-.58-1.52c1.294-.427 2.3-.933 3.02-1.52.734-.587 1.247-1.2 1.54-1.84.307-.653.46-1.287.46-1.9 0-.653-.146-1.313-.44-1.98a15.99 15.99 0 0 0-.94-1.92l1.46-.74c.374.707.687 1.387.94 2.04a18.6 18.6 0 0 1 .62 1.72c.187.573.427.967.72 1.18.307.2.72.3 1.24.3.28 0 .48.08.6.24.134.147.2.327.2.54 0 .213-.093.413-.28.6-.186.173-.426.26-.72.26-.506 0-.933-.08-1.28-.24a2.318 2.318 0 0 1-.82-.64 5.085 5.085 0 0 1-.84 2.04 7.416 7.416 0 0 1-1.5 1.6 9.144 9.144 0 0 1-1.76 1.14c-.6.293-1.146.507-1.64.64Zm7.85-4.54.2-1.64c.56 0 1-.047 1.32-.14.32-.107.56-.3.72-.58.173-.293.32-.713.44-1.26s.267-1.26.44-2.14l1.56.3c-.08.36-.173.773-.28 1.24-.093.467-.14.86-.14 1.18 0 .267.06.507.18.72.12.213.373.38.76.5.4.12 1.02.18 1.86.18.28 0 .48.08.6.24.133.147.2.327.2.54 0 .213-.093.413-.28.6-.187.173-.427.26-.72.26-1.053 0-1.833-.113-2.34-.34-.507-.227-.853-.567-1.04-1.02-.4.56-.86.927-1.38 1.1-.52.173-1.22.26-2.1.26Zm3.4 3.72c-.28 0-.52-.1-.72-.3a.925.925 0 0 1-.28-.68.992.992 0 0 1 1-1c.267 0 .493.1.68.3.2.2.3.433.3.7 0 .267-.1.493-.3.68-.187.2-.413.3-.68.3Zm3.456-3.72.2-1.64c.773 0 1.38-.027 1.82-.08.453-.067.773-.22.96-.46.186-.24.28-.633.28-1.18 0-.493-.12-1.127-.36-1.9a29.456 29.456 0 0 0-.78-2.3l1.62-.6c.173.44.333.933.48 1.48.16.533.293 1.067.4 1.6.106.533.16 1 .16 1.4 0 1.347-.374 2.3-1.12 2.86-.747.547-1.967.82-3.66.82Zm3.7 3.78c-.28 0-.52-.1-.72-.3a.925.925 0 0 1-.28-.68.992.992 0 0 1 1-1c.266 0 .493.1.68.3.2.2.3.433.3.7 0 .267-.1.493-.3.68-.187.2-.414.3-.68.3Zm-2.74 0c-.28 0-.52-.1-.72-.3a.925.925 0 0 1-.28-.68.992.992 0 0 1 1-1c.266 0 .493.1.68.3.2.2.3.433.3.7 0 .267-.1.493-.3.68-.187.2-.414.3-.68.3Zm9.056-3.88c-.987 0-1.807-.253-2.46-.76-.653-.52-.98-1.32-.98-2.4 0-.533.187-1.193.56-1.98.387-.8 1.053-1.64 2-2.52l-.58-.52 1.04-1.24a17.339 17.339 0 0 1 1.92 1.76 8.706 8.706 0 0 1 1.42 2c.36.707.54 1.453.54 2.24 0 .307-.053.653-.16 1.04a3.868 3.868 0 0 1-.54 1.14c-.253.36-.607.66-1.06.9-.453.227-1.02.34-1.7.34Zm0-1.64c.667 0 1.173-.167 1.52-.5.347-.347.52-.8.52-1.36a3.57 3.57 0 0 0-.14-.96c-.093-.333-.28-.693-.56-1.08-.28-.4-.7-.84-1.26-1.32-.613.6-1.093 1.22-1.44 1.86-.333.64-.5 1.2-.5 1.68 0 .56.173.98.52 1.26.36.28.807.42 1.34.42Zm1.52-9.56c-.28 0-.52-.093-.72-.28a.992.992 0 0 1-.28-.7.992.992 0 0 1 1-1c.267 0 .493.1.68.3.2.2.3.433.3.7 0 .267-.1.5-.3.7a.926.926 0 0 1-.68.28Zm-2.74 0c-.28 0-.52-.093-.72-.28a.992.992 0 0 1-.28-.7.992.992 0 0 1 1-1c.267 0 .493.1.68.3.2.2.3.433.3.7 0 .267-.1.5-.3.7a.926.926 0 0 1-.68.28Z" fill="#6C6C72"/></g><g filter="url(#f)"><path d="M309 116c0-11.046 8.954-20 20-20h78c11.046 0 20 8.954 20 20s-8.954 20-20 20h-78c-11.046 0-20-8.954-20-20Z" fill="#fff"/><path d="M346.823 114c.409 0 .777.249.928.629l3.6 9a1 1 0 0 1-1.858.743l-.949-2.372h-4.09l-.948 2.371a1 1 0 0 1-1.857-.742l3.6-9a.998.998 0 0 1 .928-.629h.646ZM338 106a1 1 0 0 1 1 1v1h5a1 1 0 0 1 0 2h-.968a18.224 18.224 0 0 1-3.62 6.301c.508.453 1.046.871 1.611 1.25.409.275.587.803.404 1.261-.225.563-.901.809-1.407.476a17.145 17.145 0 0 1-2.02-1.563 16.702 16.702 0 0 1-5.225 3.209c-.528.202-1.102-.115-1.253-.659-.144-.518.148-1.057.648-1.253a14.71 14.71 0 0 0 4.42-2.72 18.082 18.082 0 0 1-2.095-2.909c-.367-.633.112-1.393.844-1.393h.072c.367 0 .703.202.889.518a16.025 16.025 0 0 0 1.7 2.359 16.178 16.178 0 0 0 2.91-4.876L332 110a1 1 0 0 1 0-2h5v-1a1 1 0 0 1 1-1Zm8.5 10.885L345.253 120h2.492l-1.245-3.115Z" fill="#F55116"/><path d="M365.4 122v-1.328h2.592l-1.888-8.144h1.44l1.84 8.064c.917-.171 1.627-.592 2.128-1.264.512-.672.827-1.675.944-3.008l.352-3.792h1.44l-.352 3.792c-.043.48-.117.981-.224 1.504a6.83 6.83 0 0 1-.512 1.536c-.235.491-.56.939-.976 1.344-.405.395-.928.709-1.568.944-.629.235-1.403.352-2.32.352H365.4Zm9.814 0v-1.328h5.104v-4.832c0-.747-.165-1.264-.496-1.552-.33-.288-.789-.432-1.376-.432h-3.232v-1.328h3.328c1.088 0 1.894.24 2.416.72.534.48.8 1.248.8 2.304v5.12h1.248V122h-7.792Zm14.144 0v-6.16c0-.747-.165-1.264-.496-1.552-.33-.288-.789-.432-1.376-.432h-3.84v-1.328h3.936c1.088 0 1.894.24 2.416.72.534.48.8 1.248.8 2.304V122h-1.44Zm3.608-3.408v-6.064h1.44v4.624l-.72 1.44h-.72Zm3.125 3.408v-1.328h.736c.587 0 .88-.491.88-1.472v-5.344h-1.552v-1.328h5.552c1.088 0 1.894.24 2.416.72.534.48.8 1.248.8 2.304V122h-1.44v-6.16c0-.747-.165-1.264-.496-1.552-.33-.288-.789-.432-1.376-.432h-2.464v5.264c0 .96-.186 1.68-.56 2.16-.373.48-.986.72-1.84.72h-.656Z" fill="#6C6C72"/></g><g filter="url(#g)"><path d="M73 426c0-11.046 8.954-20 20-20h101c11.046 0 20 8.954 20 20s-8.954 20-20 20H93c-11.046 0-20-8.954-20-20Z" fill="#fff"/><path d="M110.823 424c.409 0 .777.249.928.629l3.6 9a1 1 0 0 1-1.858.743l-.949-2.372h-4.09l-.948 2.371a1 1 0 0 1-1.857-.742l3.6-9a.998.998 0 0 1 .928-.629h.646ZM102 416a1 1 0 0 1 1 1v1h5a1 1 0 0 1 0 2h-.968a18.224 18.224 0 0 1-3.62 6.301c.508.453 1.046.871 1.611 1.25.409.275.587.803.404 1.261-.225.563-.901.809-1.407.476a17.145 17.145 0 0 1-2.02-1.563 16.7 16.7 0 0 1-5.225 3.209c-.528.202-1.102-.115-1.253-.659-.144-.518.148-1.057.648-1.253a14.718 14.718 0 0 0 4.42-2.72 18.065 18.065 0 0 1-2.095-2.909c-.367-.633.112-1.393.844-1.393h.072c.367 0 .703.202.889.518a16.025 16.025 0 0 0 1.7 2.359 16.178 16.178 0 0 0 2.91-4.876L96 420a1 1 0 0 1 0-2h5v-1a1 1 0 0 1 1-1Zm8.5 10.885L109.253 430h2.492l-1.245-3.115Z" fill="#F55116"/><path d="M129.966 420.017h4.574V433h1.761v-12.983h4.574v-1.562h-10.909v1.562Zm19.259 8.523c0 2.045-1.562 2.983-2.812 2.983-1.392 0-2.386-1.023-2.386-2.614v-6.818h-1.677v6.932c0 2.784 1.478 4.119 3.523 4.119 1.648 0 2.727-.881 3.239-1.989h.113V433h1.677v-10.909h-1.677v6.449Zm-4.63-8.267a1.14 1.14 0 0 0 1.136-1.137c0-.653-.483-1.136-1.136-1.136a1.14 1.14 0 0 0-1.137 1.136c0 .597.54 1.137 1.137 1.137Zm4.091 0a1.14 1.14 0 0 0 1.136-1.137c0-.653-.483-1.136-1.136-1.136a1.14 1.14 0 0 0-1.137 1.136c0 .597.54 1.137 1.137 1.137ZM153.972 433h1.676v-6.903c0-1.478 1.164-2.557 2.755-2.557.448 0 .909.085 1.023.113v-1.704a16.288 16.288 0 0 0-.881-.029c-1.306 0-2.443.739-2.84 1.819h-.114v-1.648h-1.619V433Zm7.441 0h1.676v-4.084l1.172-1.086 4.084 5.17h2.13l-4.95-6.25 4.61-4.659h-2.074l-4.773 4.858h-.199v-8.494h-1.676V433Zm15.408.199c2.11-.206 3.48-1.598 3.743-3.381h-1.676c-.312 1.193-1.307 1.904-2.613 1.904-1.989 0-3.268-1.648-3.268-4.177 0-2.471 1.307-4.09 3.268-4.09 1.477 0 2.357.909 2.613 1.903h1.676c-.284-2.046-2.017-3.409-4.318-3.409-2.954 0-4.915 2.329-4.915 5.653 0 2.955 1.534 5.171 4.105 5.561l-.241 1.172c1.08.085 1.534.256 1.534.909 0 .654-.653.909-1.534.909l.057 1.108c1.96 0 2.983-.852 2.983-2.073 0-1.108-.739-1.563-1.478-1.677l.064-.312Zm10.767.028c2.216 0 3.836-1.108 4.347-2.755l-1.619-.455c-.426 1.136-1.414 1.705-2.728 1.705-1.967 0-3.323-1.272-3.402-3.608h7.919v-.711c0-4.062-2.414-5.454-4.687-5.454-2.955 0-4.915 2.329-4.915 5.682 0 3.352 1.932 5.596 5.085 5.596Zm-3.402-6.562c.114-1.698 1.314-3.21 3.232-3.21 1.818 0 2.983 1.363 2.983 3.21h-6.215Z" fill="#6C6C72"/></g><g filter="url(#h)"><path d="M49 685c0-11.046 8.954-20 20-20h117c11.046 0 20 8.954 20 20s-8.954 20-20 20H69c-11.046 0-20-8.954-20-20Z" fill="#fff"/><path d="M86.823 683a1 1 0 0 1 .928.629l3.6 9a1 1 0 0 1-1.858.743L88.544 691h-4.09l-.948 2.371a1 1 0 1 1-1.857-.742l3.6-9a1 1 0 0 1 .928-.629h.646ZM78 675a1 1 0 0 1 1 1v1h5a1 1 0 0 1 0 2h-.968a18.223 18.223 0 0 1-3.62 6.301 14.88 14.88 0 0 0 1.61 1.25c.41.275.588.803.404 1.261-.225.563-.9.809-1.406.476a17.107 17.107 0 0 1-2.02-1.563 16.695 16.695 0 0 1-5.225 3.209c-.528.202-1.102-.115-1.253-.659-.144-.518.148-1.057.648-1.253a14.718 14.718 0 0 0 4.42-2.72 18.065 18.065 0 0 1-2.095-2.909c-.367-.633.112-1.393.844-1.393h.072c.367 0 .703.202.89.518A15.993 15.993 0 0 0 78 683.877a16.17 16.17 0 0 0 2.91-4.876L72 679a1 1 0 0 1 0-2h5v-1a1 1 0 0 1 1-1Zm8.5 10.885L85.253 689h2.492l-1.245-3.115Z" fill="#F55116"/><path d="M106.761 692h1.762v-5.312h3.182c3.387 0 4.914-2.06 4.914-4.631s-1.527-4.602-4.943-4.602h-4.915V692Zm1.762-6.875v-6.108h3.096c2.365 0 3.267 1.293 3.267 3.04s-.902 3.068-3.238 3.068h-3.125Zm11.786 10.966c1.513 0 2.578-.803 3.21-2.5l4.645-12.472-1.832-.028-3.012 8.693h-.113l-3.012-8.693h-1.818l4.034 10.966-.312.852c-.611 1.662-1.364 1.818-2.586 1.506l-.426 1.477c.171.085.654.199 1.222.199Zm14.114-3.864c2.415 0 4.006-1.477 4.29-3.409h-1.676c-.313 1.193-1.307 1.904-2.614 1.904-1.989 0-3.267-1.648-3.267-4.177 0-2.471 1.307-4.09 3.267-4.09 1.477 0 2.358.909 2.614 1.903h1.676c-.284-2.046-2.017-3.409-4.318-3.409-2.955 0-4.915 2.329-4.915 5.653 0 3.267 1.875 5.625 4.943 5.625Zm11.172 0c2.415 0 4.005-1.477 4.29-3.409h-1.677c-.312 1.193-1.306 1.904-2.613 1.904-1.989 0-3.267-1.648-3.267-4.177 0-2.471 1.307-4.09 3.267-4.09 1.477 0 2.358.909 2.613 1.903h1.677c-.285-2.046-2.017-3.409-4.319-3.409-2.954 0-4.914 2.329-4.914 5.653 0 3.267 1.875 5.625 4.943 5.625Zm6.74-.227h1.676v-4.602h1.506l3.579 4.602h2.159l-4.46-5.653 4.404-5.256h-2.16l-3.92 4.744h-1.108v-4.744h-1.676V692Zm12.418-2.472v-8.437h-1.676V692h1.96l5.228-8.438V692h1.676v-10.909h-1.932l-5.256 8.437Zm11.934 0v-8.437h-1.676V692h1.96l5.227-8.438V692h1.676v-10.909h-1.932l-5.255 8.437Zm4.148-12.073c0 .738-.398 1.392-1.393 1.392-.994 0-1.363-.654-1.363-1.392h-1.563c0 1.534 1.137 2.613 2.926 2.613 1.819 0 2.955-1.079 2.955-2.613h-1.562Z" fill="#6C6C72"/></g><g filter="url(#i)"><path d="M96 306c0-11.046 8.954-20 20-20h116c11.046 0 20 8.954 20 20s-8.954 20-20 20H116c-11.046 0-20-8.954-20-20Z" fill="#fff"/><path d="M133.823 304c.409 0 .777.249.928.629l3.6 9a1 1 0 0 1-1.858.743l-.949-2.372h-4.09l-.948 2.371a1 1 0 0 1-1.857-.742l3.6-9a.998.998 0 0 1 .928-.629h.646ZM125 296a1 1 0 0 1 1 1v1h5a1 1 0 0 1 0 2h-.968a18.224 18.224 0 0 1-3.62 6.301c.508.453 1.046.871 1.611 1.25.409.275.587.803.404 1.261-.225.563-.901.809-1.407.476a17.145 17.145 0 0 1-2.02-1.563 16.702 16.702 0 0 1-5.225 3.209c-.528.202-1.102-.115-1.253-.659-.144-.518.148-1.057.648-1.253a14.71 14.71 0 0 0 4.42-2.72 18.082 18.082 0 0 1-2.095-2.909c-.367-.633.112-1.393.844-1.393h.072c.367 0 .703.202.889.518a16.025 16.025 0 0 0 1.7 2.359 16.178 16.178 0 0 0 2.91-4.876L119 300a1 1 0 0 1 0-2h5v-1a1 1 0 0 1 1-1Zm8.5 10.885L132.253 310h2.492l-1.245-3.115Z" fill="#F55116"/><path d="M153.761 313h1.762v-6.506h6.307v-1.562h-6.307v-4.915h6.96v-1.562h-8.722V313Zm11.394 0h1.676v-6.903c0-1.478 1.165-2.557 2.756-2.557.447 0 .909.085 1.023.113v-1.704a16.288 16.288 0 0 0-.881-.029c-1.307 0-2.443.739-2.841 1.819h-.113v-1.648h-1.62V313Zm10.652.256c1.903 0 2.898-1.023 3.238-1.733h.086V313h1.676v-7.188c0-3.465-2.642-3.863-4.034-3.863-1.648 0-3.523.568-4.375 2.557l1.591.568c.369-.796 1.243-1.648 2.841-1.648 1.541 0 2.301.817 2.301 2.216v.057c0 .81-.824.739-2.813.994-2.024.263-4.233.71-4.233 3.21 0 2.131 1.648 3.353 3.722 3.353Zm.255-1.506c-1.335 0-2.301-.597-2.301-1.761 0-1.279 1.165-1.677 2.472-1.847.71-.085 2.614-.284 2.898-.625v1.534c0 1.364-1.08 2.699-3.069 2.699Zm9.48-5.312c0-1.904 1.179-2.983 2.784-2.983 1.556 0 2.5 1.015 2.5 2.727V313h1.676v-6.932c0-2.784-1.484-4.119-3.693-4.119-1.647 0-2.67.739-3.182 1.846h-.142v-1.704h-1.619V313h1.676v-6.562Zm15.002 6.761c2.109-.206 3.48-1.598 3.743-3.381h-1.676c-.313 1.193-1.307 1.904-2.614 1.904-1.988 0-3.267-1.648-3.267-4.177 0-2.471 1.307-4.09 3.267-4.09 1.477 0 2.358.909 2.614 1.903h1.676c-.284-2.046-2.017-3.409-4.318-3.409-2.955 0-4.915 2.329-4.915 5.653 0 2.955 1.534 5.171 4.105 5.561l-.241 1.172c1.079.085 1.534.256 1.534.909 0 .654-.654.909-1.534.909l.056 1.108c1.961 0 2.983-.852 2.983-2.073 0-1.108-.738-1.563-1.477-1.677l.064-.312Zm9.403.057c1.904 0 2.898-1.023 3.239-1.733h.085V313h1.676v-7.188c0-3.465-2.642-3.863-4.034-3.863-1.647 0-3.522.568-4.375 2.557l1.591.568c.37-.796 1.243-1.648 2.841-1.648 1.541 0 2.301.817 2.301 2.216v.057c0 .81-.824.739-2.812.994-2.024.263-4.233.71-4.233 3.21 0 2.131 1.648 3.353 3.721 3.353Zm.256-1.506c-1.335 0-2.301-.597-2.301-1.761 0-1.279 1.165-1.677 2.472-1.847.71-.085 2.613-.284 2.897-.625v1.534c0 1.364-1.079 2.699-3.068 2.699Zm7.804 1.25h1.676v-10.909h-1.676V313Zm.852-12.727c.653 0 1.193-.512 1.193-1.137s-.54-1.136-1.193-1.136-1.193.511-1.193 1.136c0 .625.54 1.137 1.193 1.137Zm11.621 4.261c-.525-1.548-1.704-2.585-3.864-2.585-2.301 0-4.005 1.307-4.005 3.153 0 1.506.895 2.514 2.898 2.983l1.818.426c1.101.256 1.619.782 1.619 1.534 0 .938-.994 1.705-2.557 1.705-1.371 0-2.23-.589-2.528-1.761l-1.591.397c.391 1.854 1.918 2.841 4.148 2.841 2.535 0 4.261-1.385 4.261-3.267 0-1.52-.952-2.478-2.898-2.954l-1.619-.398c-1.293-.32-1.875-.753-1.875-1.591 0-.937.994-1.619 2.329-1.619 1.464 0 2.067.809 2.358 1.562l1.506-.426Z" fill="#6C6C72"/></g><g filter="url(#j)"><path d="M359 294c0-11.046 8.954-20 20-20h164c11.046 0 20 8.954 20 20s-8.954 20-20 20H379c-11.046 0-20-8.954-20-20Z" fill="#fff"/><path d="M396.823 292c.409 0 .777.249.928.629l3.6 9a1 1 0 0 1-1.858.743l-.949-2.372h-4.09l-.948 2.371a1 1 0 0 1-1.857-.742l3.6-9a.998.998 0 0 1 .928-.629h.646ZM388 284a1 1 0 0 1 1 1v1h5a1 1 0 0 1 0 2h-.968a18.224 18.224 0 0 1-3.62 6.301c.508.453 1.046.871 1.611 1.25.409.275.587.803.404 1.261-.225.563-.901.809-1.407.476a17.145 17.145 0 0 1-2.02-1.563 16.702 16.702 0 0 1-5.225 3.209c-.528.202-1.102-.115-1.253-.659-.144-.518.148-1.057.648-1.253a14.71 14.71 0 0 0 4.42-2.72 18.082 18.082 0 0 1-2.095-2.909c-.367-.633.112-1.393.844-1.393h.072c.367 0 .703.202.889.518a16.025 16.025 0 0 0 1.7 2.359 16.178 16.178 0 0 0 2.91-4.876L382 288a1 1 0 0 1 0-2h5v-1a1 1 0 0 1 1-1Zm8.5 10.885L395.253 298h2.492l-1.245-3.115Z" fill="#F55116"/><path d="M416.761 301h1.762v-6.506h6.307v-1.562h-6.307v-4.915h6.96v-1.562h-8.722V301Zm11.394 0h1.676v-6.903c0-1.478 1.165-2.557 2.756-2.557.447 0 .909.085 1.023.113v-1.704a16.288 16.288 0 0 0-.881-.029c-1.307 0-2.443.739-2.841 1.819h-.113v-1.648h-1.62V301Zm10.652.256c1.903 0 2.898-1.023 3.238-1.733h.086V301h1.676v-7.188c0-3.465-2.642-3.863-4.034-3.863-1.648 0-3.523.568-4.375 2.557l1.591.568c.369-.796 1.243-1.648 2.841-1.648 1.541 0 2.301.817 2.301 2.216v.057c0 .81-.824.739-2.813.994-2.024.263-4.233.71-4.233 3.21 0 2.131 1.648 3.353 3.722 3.353Zm.255-1.506c-1.335 0-2.301-.597-2.301-1.761 0-1.279 1.165-1.677 2.472-1.847.71-.085 2.614-.284 2.898-.625v1.534c0 1.364-1.08 2.699-3.069 2.699Zm9.48-5.312c0-1.904 1.179-2.983 2.784-2.983 1.556 0 2.5 1.015 2.5 2.727V301h1.676v-6.932c0-2.784-1.484-4.119-3.693-4.119-1.647 0-2.67.739-3.182 1.846h-.142v-1.704h-1.619V301h1.676v-6.562Zm15.002 6.761c2.109-.206 3.48-1.598 3.743-3.381h-1.676c-.313 1.193-1.307 1.904-2.614 1.904-1.988 0-3.267-1.648-3.267-4.177 0-2.471 1.307-4.09 3.267-4.09 1.477 0 2.358.909 2.614 1.903h1.676c-.284-2.046-2.017-3.409-4.318-3.409-2.955 0-4.915 2.329-4.915 5.653 0 2.955 1.534 5.171 4.105 5.561l-.241 1.172c1.079.085 1.534.256 1.534.909 0 .654-.654.909-1.534.909l.056 1.108c1.961 0 2.983-.852 2.983-2.073 0-1.108-.738-1.563-1.477-1.677l.064-.312Zm9.403.057c1.904 0 2.898-1.023 3.239-1.733h.085V301h1.676v-7.188c0-3.465-2.642-3.863-4.034-3.863-1.647 0-3.522.568-4.375 2.557l1.591.568c.37-.796 1.243-1.648 2.841-1.648 1.541 0 2.301.817 2.301 2.216v.057c0 .81-.824.739-2.812.994-2.024.263-4.233.71-4.233 3.21 0 2.131 1.648 3.353 3.721 3.353Zm.256-1.506c-1.335 0-2.301-.597-2.301-1.761 0-1.279 1.165-1.677 2.472-1.847.71-.085 2.613-.284 2.897-.625v1.534c0 1.364-1.079 2.699-3.068 2.699Zm7.804 1.25h1.676v-10.909h-1.676V301Zm.852-12.727c.653 0 1.193-.512 1.193-1.137s-.54-1.136-1.193-1.136-1.193.511-1.193 1.136c0 .625.54 1.137 1.193 1.137Zm11.621 4.261c-.525-1.548-1.704-2.585-3.864-2.585-2.301 0-4.005 1.307-4.005 3.153 0 1.506.895 2.514 2.898 2.983l1.818.426c1.101.256 1.619.782 1.619 1.534 0 .938-.994 1.705-2.557 1.705-1.371 0-2.23-.589-2.528-1.761l-1.591.397c.391 1.854 1.918 2.841 4.148 2.841 2.535 0 4.261-1.385 4.261-3.267 0-1.52-.952-2.478-2.898-2.954l-1.619-.398c-1.293-.32-1.875-.753-1.875-1.591 0-.937.994-1.619 2.329-1.619 1.464 0 2.067.809 2.358 1.562l1.506-.426Zm8.944 2.33c0 3.579.966 6.562 2.699 9.091h1.477c-1.364-1.875-2.443-5.711-2.443-9.091 0-3.381 1.079-7.216 2.443-9.091h-1.477c-1.733 2.528-2.699 5.511-2.699 9.091ZM521.005 291c-.54-2.983-2.926-4.744-5.852-4.744-3.722 0-6.421 2.869-6.421 7.471 0 4.603 2.699 7.472 6.421 7.472 2.926 0 5.312-1.761 5.852-4.744h-1.761c-.427 2.017-2.159 3.096-4.091 3.096-2.642 0-4.716-2.045-4.716-5.824 0-3.778 2.074-5.824 4.716-5.824 1.932 0 3.664 1.08 4.091 3.097h1.761Zm3.443 10 1.463-4.119h5.881l1.463 4.119h1.846l-5.341-14.545h-1.818L522.601 301h1.847Zm2.017-5.682 2.329-6.562h.114l2.33 6.562h-4.773Zm14.254-.454c0-3.58-.966-6.563-2.699-9.091h-1.477c1.364 1.875 2.443 5.71 2.443 9.091 0 3.38-1.079 7.216-2.443 9.091h1.477c1.733-2.529 2.699-5.512 2.699-9.091Z" fill="#6C6C72"/></g><g filter="url(#k)"><path d="M438 179c0-11.046 8.954-20 20-20h105c11.046 0 20 8.954 20 20s-8.954 20-20 20H458c-11.046 0-20-8.954-20-20Z" fill="#fff"/><path d="M475.823 177c.409 0 .777.249.928.629l3.6 9a1 1 0 0 1-1.858.743l-.949-2.372h-4.09l-.948 2.371a1 1 0 0 1-1.857-.742l3.6-9a.998.998 0 0 1 .928-.629h.646ZM467 169a1 1 0 0 1 1 1v1h5a1 1 0 0 1 0 2h-.968a18.224 18.224 0 0 1-3.62 6.301c.508.453 1.046.871 1.611 1.25.409.275.587.803.404 1.261-.225.563-.901.809-1.407.476a17.145 17.145 0 0 1-2.02-1.563 16.702 16.702 0 0 1-5.225 3.209c-.528.202-1.102-.115-1.253-.659-.144-.518.148-1.057.648-1.253a14.71 14.71 0 0 0 4.42-2.72 18.082 18.082 0 0 1-2.095-2.909c-.367-.633.112-1.393.844-1.393h.072c.367 0 .703.202.889.518a16.025 16.025 0 0 0 1.7 2.359 16.178 16.178 0 0 0 2.91-4.876L461 173a1 1 0 0 1 0-2h5v-1a1 1 0 0 1 1-1Zm8.5 10.885L474.253 183h2.492l-1.245-3.115Z" fill="#F55116"/><path d="M497.523 171.455h-1.762V186h1.762v-14.545Zm8.048 3.636h-2.329v-2.614h-1.676v2.614h-1.648v1.42h1.648v6.819c0 1.903 1.534 2.812 2.954 2.812.625 0 1.023-.114 1.25-.199l-.341-1.505c-.142.028-.369.085-.738.085-.739 0-1.449-.228-1.449-1.648v-6.364h2.329v-1.42Zm5.732 11.165c1.903 0 2.898-1.023 3.239-1.733h.085V186h1.676v-7.188c0-3.465-2.642-3.863-4.034-3.863-1.648 0-3.523.568-4.375 2.557l1.591.568c.369-.796 1.243-1.648 2.841-1.648 1.541 0 2.301.817 2.301 2.216v.057c0 .81-.824.739-2.813.994-2.024.263-4.233.71-4.233 3.21 0 2.131 1.648 3.353 3.722 3.353Zm.256-1.506c-1.336 0-2.302-.597-2.302-1.761 0-1.279 1.165-1.677 2.472-1.847.71-.085 2.614-.284 2.898-.625v1.534c0 1.364-1.08 2.699-3.068 2.699Zm9.479-13.295h-1.676V186h1.676v-14.545Zm3.07 14.545h1.676v-10.909h-1.676V186Zm.853-12.727c.653 0 1.193-.512 1.193-1.137s-.54-1.136-1.193-1.136c-.654 0-1.194.511-1.194 1.136 0 .625.54 1.137 1.194 1.137Zm7.104 12.983c1.903 0 2.897-1.023 3.238-1.733h.085V186h1.677v-7.188c0-3.465-2.642-3.863-4.034-3.863-1.648 0-3.523.568-4.375 2.557l1.59.568c.37-.796 1.243-1.648 2.841-1.648 1.542 0 2.301.817 2.301 2.216v.057c0 .81-.823.739-2.812.994-2.024.263-4.233.71-4.233 3.21 0 2.131 1.648 3.353 3.722 3.353Zm.255-1.506c-1.335 0-2.301-.597-2.301-1.761 0-1.279 1.165-1.677 2.472-1.847.71-.085 2.613-.284 2.897-.625v1.534c0 1.364-1.079 2.699-3.068 2.699Zm9.48-5.312c0-1.904 1.179-2.983 2.784-2.983 1.556 0 2.5 1.015 2.5 2.727V186h1.676v-6.932c0-2.784-1.484-4.119-3.693-4.119-1.648 0-2.67.739-3.182 1.846h-.142v-1.704h-1.619V186h1.676v-6.562Zm14.455 6.789c2.955 0 4.943-2.244 4.943-5.625 0-3.409-1.988-5.653-4.943-5.653-2.955 0-4.943 2.244-4.943 5.653 0 3.381 1.988 5.625 4.943 5.625Zm0-1.505c-2.244 0-3.267-1.932-3.267-4.12 0-2.187 1.023-4.147 3.267-4.147 2.244 0 3.267 1.96 3.267 4.147 0 2.188-1.023 4.12-3.267 4.12Z" fill="#6C6C72"/></g><g filter="url(#l)"><path d="M249 206c0-11.046 8.954-20 20-20h84c11.046 0 20 8.954 20 20s-8.954 20-20 20h-84c-11.046 0-20-8.954-20-20Z" fill="#fff"/><path d="M286.823 204c.409 0 .777.249.928.629l3.6 9a1 1 0 0 1-1.858.743l-.949-2.372h-4.09l-.948 2.371a1 1 0 0 1-1.857-.742l3.6-9a.998.998 0 0 1 .928-.629h.646ZM278 196a1 1 0 0 1 1 1v1h5a1 1 0 0 1 0 2h-.968a18.224 18.224 0 0 1-3.62 6.301c.508.453 1.046.871 1.611 1.25.409.275.587.803.404 1.261-.225.563-.901.809-1.407.476a17.145 17.145 0 0 1-2.02-1.563 16.702 16.702 0 0 1-5.225 3.209c-.528.202-1.102-.115-1.253-.659-.144-.518.148-1.057.648-1.253a14.71 14.71 0 0 0 4.42-2.72 18.082 18.082 0 0 1-2.095-2.909c-.367-.633.112-1.393.844-1.393h.072c.367 0 .703.202.889.518a16.025 16.025 0 0 0 1.7 2.359 16.178 16.178 0 0 0 2.91-4.876L272 200a1 1 0 0 1 0-2h5v-1a1 1 0 0 1 1-1Zm8.5 10.885L285.253 210h2.492l-1.245-3.115Z" fill="#F55116"/><path d="M309.08 211.832v-4.464h7.936v4.464h-7.936Zm7.936-9.952v4.32h-7.936v-4.32h7.936Zm-9.136-1.168v13.328h1.2V213h7.936v.976h1.248v-13.264H307.88Zm28.064 3.44v-1.184h-6.336v-3.344h-1.232v3.344h-6.288v1.184h4.832c-1.168 2.704-3.136 5.296-5.248 6.592.272.224.656.656.848.944 2.304-1.568 4.368-4.416 5.6-7.536h.256v5.904h-3.712v1.184h3.712v2.976h1.232v-2.976h3.712v-1.184h-3.712v-5.904h.224c1.2 3.12 3.264 6 5.632 7.488.192-.32.608-.752.912-1.008-2.208-1.248-4.224-3.776-5.376-6.48h4.944Zm5.744-2.544c-.224-.576-.752-1.408-1.216-2.064l-.912.464c.416.672.944 1.568 1.184 2.144l.944-.544Zm1.92.72h-5.856v.976h5.856v-.976Zm-.56 2.096h-4.64v.944h4.64v-.944Zm-4.64 3.024h4.64v-.944h-4.64v.944Zm3.712 2.176v2.64h-2.672v-2.64h2.672Zm1.04-.992h-4.752v5.376h1.04v-.752h3.712v-4.624Zm7.024.896v2.96h-4.736v-2.96h4.736Zm-5.84 4.704h1.104v-.704h4.736v.656h1.152v-5.696h-6.992v5.744Zm5.376-10.288v2.4h-2.992c.144-.688.304-1.52.48-2.4h2.512Zm1.104 2.4v-3.392H347.4c.112-.56.208-1.136.304-1.664h4.288v-1.008h-8.144v1.008h2.656c-.08.528-.176 1.104-.272 1.664h-2v.992h1.824c-.176.864-.336 1.712-.496 2.4h-2.112v1.008h8.88v-1.008h-1.504Z" fill="#6C6C72"/></g><g filter="url(#m)"><path d="M214 762c0-11.046 8.954-20 20-20h145c11.046 0 20 8.954 20 20s-8.954 20-20 20H234c-11.046 0-20-8.954-20-20Z" fill="#fff"/><path d="M251.823 760c.409 0 .777.249.928.629l3.6 9a1 1 0 0 1-1.858.743l-.949-2.372h-4.09l-.948 2.371a1 1 0 0 1-1.857-.742l3.6-9a.998.998 0 0 1 .928-.629h.646ZM243 752a1 1 0 0 1 1 1v1h5a1 1 0 0 1 0 2h-.968a18.224 18.224 0 0 1-3.62 6.301c.508.453 1.046.871 1.611 1.25.409.275.587.803.404 1.261-.225.563-.901.809-1.407.476a17.145 17.145 0 0 1-2.02-1.563 16.702 16.702 0 0 1-5.225 3.209c-.528.202-1.102-.115-1.253-.659-.144-.518.148-1.057.648-1.253a14.71 14.71 0 0 0 4.42-2.72 18.082 18.082 0 0 1-2.095-2.909c-.367-.633.112-1.393.844-1.393h.072c.367 0 .703.202.889.518a16.025 16.025 0 0 0 1.7 2.359 16.178 16.178 0 0 0 2.91-4.876L237 756a1 1 0 0 1 0-2h5v-1a1 1 0 0 1 1-1Zm8.5 10.885L250.253 766h2.492l-1.245-3.115Z" fill="#F55116"/><path d="M283.295 754.455h-1.733v11.448h-.142l-7.954-11.448h-1.705V769h1.762v-11.42h.142l7.926 11.42h1.704v-14.545Zm7.872 14.772c2.215 0 3.835-1.108 4.346-2.755l-1.619-.455c-.426 1.136-1.414 1.705-2.727 1.705-1.968 0-3.324-1.272-3.402-3.608h7.919v-.711c0-4.062-2.415-5.454-4.688-5.454-2.954 0-4.915 2.329-4.915 5.682 0 3.352 1.932 5.596 5.086 5.596Zm-3.402-6.562c.113-1.698 1.313-3.21 3.231-3.21 1.818 0 2.983 1.363 2.983 3.21h-6.214Zm14.588 6.562c2.102 0 2.812-1.307 3.181-1.903h.199V769h1.62v-14.545h-1.677v5.369h-.142c-.369-.568-1.022-1.875-3.153-1.875-2.756 0-4.659 2.187-4.659 5.625 0 3.466 1.903 5.653 4.631 5.653Zm.227-1.505c-2.102 0-3.182-1.847-3.182-4.177 0-2.301 1.051-4.09 3.182-4.09 2.045 0 3.125 1.647 3.125 4.09 0 2.472-1.108 4.177-3.125 4.177Zm12.649 1.505c2.216 0 3.835-1.108 4.347-2.755l-1.62-.455c-.426 1.136-1.413 1.705-2.727 1.705-1.967 0-3.324-1.272-3.402-3.608h7.919v-.711c0-4.062-2.415-5.454-4.687-5.454-2.955 0-4.915 2.329-4.915 5.682 0 3.352 1.932 5.596 5.085 5.596Zm-3.402-6.562c.114-1.698 1.314-3.21 3.232-3.21 1.818 0 2.983 1.363 2.983 3.21h-6.215ZM322.296 769h1.676v-6.903c0-1.478 1.165-2.557 2.756-2.557.447 0 .909.085 1.022.113v-1.704a16.249 16.249 0 0 0-.88-.029c-1.307 0-2.444.739-2.841 1.819h-.114v-1.648h-1.619V769Zm9.117-14.545h-1.676V769h1.676v-14.545Zm6.281 14.801c1.903 0 2.897-1.023 3.238-1.733h.085V769h1.677v-7.188c0-3.465-2.643-3.863-4.035-3.863-1.647 0-3.522.568-4.375 2.557l1.591.568c.37-.796 1.243-1.648 2.841-1.648 1.541 0 2.301.817 2.301 2.216v.057c0 .81-.823.739-2.812.994-2.024.263-4.233.71-4.233 3.21 0 2.131 1.648 3.353 3.722 3.353Zm.255-1.506c-1.335 0-2.301-.597-2.301-1.761 0-1.279 1.165-1.677 2.472-1.847.71-.085 2.613-.284 2.897-.625v1.534c0 1.364-1.079 2.699-3.068 2.699Zm9.48-5.312c0-1.904 1.179-2.983 2.784-2.983 1.555 0 2.5 1.015 2.5 2.727V769h1.676v-6.932c0-2.784-1.484-4.119-3.693-4.119-1.648 0-2.67.739-3.182 1.846h-.142v-1.704h-1.619V769h1.676v-6.562Zm14.142 6.789c2.103 0 2.813-1.307 3.182-1.903h.199V769h1.619v-14.545h-1.676v5.369h-.142c-.369-.568-1.023-1.875-3.153-1.875-2.756 0-4.659 2.187-4.659 5.625 0 3.466 1.903 5.653 4.63 5.653Zm.228-1.505c-2.103 0-3.182-1.847-3.182-4.177 0-2.301 1.051-4.09 3.182-4.09 2.045 0 3.125 1.647 3.125 4.09 0 2.472-1.108 4.177-3.125 4.177Zm15.802-7.188c-.525-1.548-1.704-2.585-3.863-2.585-2.302 0-4.006 1.307-4.006 3.153 0 1.506.895 2.514 2.898 2.983l1.818.426c1.101.256 1.619.782 1.619 1.534 0 .938-.994 1.705-2.557 1.705-1.37 0-2.23-.589-2.528-1.761l-1.591.397c.391 1.854 1.918 2.841 4.148 2.841 2.535 0 4.261-1.385 4.261-3.267 0-1.52-.952-2.478-2.898-2.954l-1.619-.398c-1.293-.32-1.875-.753-1.875-1.591 0-.937.994-1.619 2.33-1.619 1.463 0 2.066.809 2.358 1.562l1.505-.426Z" fill="#6C6C72"/></g><g filter="url(#n)"><path d="M83 573c0-11.046 8.954-20 20-20h110c11.046 0 20 8.954 20 20s-8.954 20-20 20H103c-11.046 0-20-8.954-20-20Z" fill="#fff"/><path d="M120.823 571c.409 0 .777.249.928.629l3.6 9a1 1 0 0 1-1.858.743l-.949-2.372h-4.09l-.948 2.371a1 1 0 0 1-1.857-.742l3.6-9a.998.998 0 0 1 .928-.629h.646ZM112 563a1 1 0 0 1 1 1v1h5a1 1 0 0 1 0 2h-.968a18.224 18.224 0 0 1-3.62 6.301c.508.453 1.046.871 1.611 1.25.409.275.587.803.404 1.261-.225.563-.901.809-1.407.476a17.145 17.145 0 0 1-2.02-1.563 16.702 16.702 0 0 1-5.225 3.209c-.528.202-1.102-.115-1.253-.659-.144-.518.148-1.057.648-1.253a14.71 14.71 0 0 0 4.42-2.72 18.082 18.082 0 0 1-2.095-2.909c-.367-.633.112-1.393.844-1.393h.072c.367 0 .703.202.889.518a16.025 16.025 0 0 0 1.7 2.359 16.178 16.178 0 0 0 2.91-4.876L106 567a1 1 0 0 1 0-2h5v-1a1 1 0 0 1 1-1Zm8.5 10.885L119.253 577h2.492l-1.245-3.115Z" fill="#F55116"/><path d="M147.576 574.864v-4.24h4.592v4.24h-4.592Zm-5.808 0v-4.24h4.576v4.24h-4.576Zm5.808-5.408v-2.848h-1.232v2.848H140.6v7.568h1.168v-.992h4.576v5.184h1.232v-5.184h4.592v.912h1.216v-7.488h-5.808Zm16.672-.48c-.224-.672-.768-1.696-1.248-2.448l-1.232.352c.48.784.992 1.856 1.184 2.512l1.296-.416Zm2.096 1.616c-.8 2.16-1.872 3.92-3.296 5.36-1.504-1.504-2.656-3.328-3.488-5.36h6.784Zm3.856 0v-1.168h-14.336v1.168h2.464c.928 2.416 2.192 4.496 3.84 6.192-1.744 1.472-3.888 2.56-6.528 3.312.24.272.592.816.736 1.104 2.656-.848 4.864-2 6.656-3.568 1.776 1.6 3.952 2.768 6.56 3.504.192-.336.528-.832.816-1.104-2.544-.624-4.704-1.76-6.464-3.248 1.6-1.648 2.832-3.664 3.744-6.192h2.512Zm5.114 5.488h4.096v-1.12h-4.096v1.12Zm9.227-7.072c.368.656.752 1.424.912 1.952l1.04-.432c-.144-.4-.432-.992-.736-1.52h2.256V568h-3.888c.176-.384.336-.752.48-1.152l-1.136-.272c-.512 1.504-1.424 2.944-2.512 3.888.288.16.752.48.992.656.56-.56 1.136-1.296 1.632-2.112h.96Zm-2.656 12.192h1.152v-8.432h-1.152v8.432Zm.72-9.808c.672.592 1.44 1.44 1.776 2.016l.912-.656c-.352-.56-1.152-1.376-1.824-1.952l-.864.592Zm3.696 6.976v-1.424h3.728v1.424h-3.728Zm3.728-3.632v1.328h-3.728v-1.328h3.728Zm1.072-.928h-5.84v5.488h5.84v-5.488Zm3.28-2.4h-8.624v1.088h7.456v7.296c0 .224-.064.288-.32.304-.224.016-1.088.016-1.984-.016.176.304.336.736.384 1.056 1.216 0 2-.016 2.464-.192.464-.176.624-.48.624-1.152v-8.384Zm-4.032-3.392c.176-.384.304-.768.416-1.168l-1.12-.256c-.4 1.376-1.136 2.688-2.032 3.552.288.144.768.48.976.672a9.126 9.126 0 0 0 1.264-1.792h1.232c.464.672.944 1.488 1.136 2.032l1.024-.464c-.176-.432-.512-1.024-.896-1.568h2.592v-1.008h-4.592Zm9.84-1.344c-.8 2.416-2.096 4.8-3.504 6.352.208.272.56.896.688 1.168.464-.544.928-1.168 1.36-1.84v8.848h1.136v-10.816a26.976 26.976 0 0 0 1.424-3.376l-1.104-.336Zm11.136 4.304v-1.152h-4.768v-3.152h-1.152v3.152h-4.48v1.152h3.76c-.976 2.704-2.64 5.392-4.384 6.8.272.208.656.624.864.896 1.68-1.536 3.216-4.16 4.24-6.928v5.44h-2.608v1.088h2.608v2.864h1.152v-2.864h2.576v-1.088h-2.576v-5.552c.976 2.784 2.512 5.472 4.192 7.008.208-.32.608-.736.896-.944-1.728-1.392-3.376-4.048-4.32-6.72h4Z" fill="#6C6C72"/></g><g filter="url(#o)"><path d="M472 600c0-11.046 8.954-20 20-20h110c11.046 0 20 8.954 20 20s-8.954 20-20 20H492c-11.046 0-20-8.954-20-20Z" fill="#fff"/><path d="M509.823 598c.409 0 .777.249.928.629l3.6 9a1 1 0 0 1-1.858.743l-.949-2.372h-4.09l-.948 2.371a1 1 0 0 1-1.857-.742l3.6-9a.998.998 0 0 1 .928-.629h.646ZM501 590a1 1 0 0 1 1 1v1h5a1 1 0 0 1 0 2h-.968a18.224 18.224 0 0 1-3.62 6.301c.508.453 1.046.871 1.611 1.25.409.275.587.803.404 1.261-.225.563-.901.809-1.407.476a17.145 17.145 0 0 1-2.02-1.563 16.702 16.702 0 0 1-5.225 3.209c-.528.202-1.102-.115-1.253-.659-.144-.518.148-1.057.648-1.253a14.71 14.71 0 0 0 4.42-2.72 18.082 18.082 0 0 1-2.095-2.909c-.367-.633.112-1.393.844-1.393h.072c.367 0 .703.202.889.518a16.025 16.025 0 0 0 1.7 2.359 16.178 16.178 0 0 0 2.91-4.876L495 594a1 1 0 0 1 0-2h5v-1a1 1 0 0 1 1-1Zm8.5 10.885L508.253 604h2.492l-1.245-3.115Z" fill="#F55116"/><path d="M536.576 601.864v-4.24h4.592v4.24h-4.592Zm-5.808 0v-4.24h4.576v4.24h-4.576Zm5.808-5.408v-2.848h-1.232v2.848H529.6v7.568h1.168v-.992h4.576v5.184h1.232v-5.184h4.592v.912h1.216v-7.488h-5.808Zm16.672-.48c-.224-.672-.768-1.696-1.248-2.448l-1.232.352c.48.784.992 1.856 1.184 2.512l1.296-.416Zm2.096 1.616c-.8 2.16-1.872 3.92-3.296 5.36-1.504-1.504-2.656-3.328-3.488-5.36h6.784Zm3.856 0v-1.168h-14.336v1.168h2.464c.928 2.416 2.192 4.496 3.84 6.192-1.744 1.472-3.888 2.56-6.528 3.312.24.272.592.816.736 1.104 2.656-.848 4.864-2 6.656-3.568 1.776 1.6 3.952 2.768 6.56 3.504.192-.336.528-.832.816-1.104-2.544-.624-4.704-1.76-6.464-3.248 1.6-1.648 2.832-3.664 3.744-6.192h2.512Zm5.114 5.488h4.096v-1.12h-4.096v1.12Zm9.579 2.336c-.944.688-2.464 1.344-3.872 1.76.288.192.704.592.896.816 1.36-.496 2.976-1.296 4.032-2.128l-1.056-.448Zm-2.016-5.408c.048-.432.128-.944.176-1.456h1.264l-.384.352c.512.304 1.088.752 1.376 1.104l.448-.432c-.272-.336-.816-.736-1.312-1.024h2.176a28.094 28.094 0 0 1-.176 1.456h-3.568Zm3.92-3.472c-.032.432-.064.912-.112 1.376h-1.216l.416-.416c-.272-.32-.832-.704-1.312-.96l-.416.4c.448.256.992.64 1.248.976h-2.288c.064-.464.112-.944.16-1.376h3.52Zm6.08 8.016c.416.336.752.64 1.008.912l.832-.64c-.72-.736-2.176-1.744-3.36-2.416l-.784.576c.4.224.816.496 1.232.784l-5.984.352c1.808-.608 3.616-1.344 5.36-2.272l-.704-.784c-.576.336-1.2.64-1.808.944l-3.024.128c.624-.256 1.28-.576 1.888-.912l-.592-.496h1.312v-.72h-.864c.064-.4.112-.896.16-1.392h1.184v-.768h-1.12c.064-.704.128-1.408.176-2.032h-5.264a5.11 5.11 0 0 0 .512-.688h5.36v-.816h-4.848c.096-.176.192-.368.256-.528l-.96-.224a6.745 6.745 0 0 1-2.112 2.624c.256.128.672.4.864.56.272-.224.528-.48.784-.768a46.622 46.622 0 0 1-.192 1.872h-1.264v.768h1.184a50.95 50.95 0 0 1-.304 2.112h4.768c-.96.64-2.16 1.136-2.528 1.264a3.978 3.978 0 0 1-.96.24c.096.256.24.736.288.944.256-.08.672-.144 3.312-.288-1.216.48-2.24.832-2.72.992-.864.304-1.536.48-2.064.528.112.272.256.8.304 1.008.416-.144 1.024-.224 5.568-.528v2.048c0 .192-.064.256-.304.256-.224.016-1.008.016-1.92 0 .16.288.336.672.416.992 1.136 0 1.888.016 2.384-.16.48-.16.608-.432.608-1.056v-2.16l3.92-.256Zm-2.656 1.456c1.376.512 3.088 1.328 3.952 1.888l.896-.672c-.944-.592-2.672-1.36-4.016-1.84l-.832.624Zm.192-10.208h2.64a6.257 6.257 0 0 1-1.312 2.32 8.315 8.315 0 0 1-1.392-2.208l.064-.112Zm4.784 0v-.896h-4.352c.144-.352.272-.704.384-1.088l-1.04-.192c-.368 1.344-1.056 2.56-1.984 3.376.24.16.624.528.768.704.288-.256.544-.56.8-.896a8.783 8.783 0 0 0 1.28 1.984c-.768.64-1.696 1.12-2.736 1.504.224.192.544.576.672.8 1.04-.432 1.936-.96 2.72-1.616.864.8 1.92 1.408 3.12 1.808a3.43 3.43 0 0 1 .688-.896c-1.184-.336-2.24-.88-3.072-1.616a7.618 7.618 0 0 0 1.664-2.976h1.088Zm14.688 1.04h-1.28v-1.136h1.28v1.136Zm0 1.984h-1.28v-1.184h1.28v1.184Zm-5.296-1.184h1.216v1.184h-1.216v-1.184Zm0-1.936h1.216v1.136h-1.216v-1.136Zm3.216 1.936v1.184h-1.2v-1.184h1.2Zm-1.2-.8v-1.136h1.2v1.136h-1.2Zm4.224-1.984h-2.096v-1.216h-.976v1.216h-1.152v-1.216h-.976v1.216h-1.968v4.816h7.168v-4.816Zm-8.48 5.504h-4.256v-1.056h4.256v1.056Zm-3.344 2.096v-1.136h2.368v1.136h-2.368Zm0 2.032v-1.184h2.368v1.184h-2.368Zm-.128-7.52h.992v1.472h-.992v-1.472Zm2.544-1.824v3.296h-.848v-2.288h-1.696v-1.008h2.544Zm1.904 5.376v.88h7.904v-.896h-7.872v-2.064h-.928v-4.272h-4.512v4.272h-.8v2.176h.864v7.68h1.024v-2.944h2.368v1.536c0 .176-.064.224-.208.224-.128.016-.624.016-1.136-.016.128.304.288.736.336 1.04.752 0 1.248 0 1.584-.176.336-.192.448-.48.448-1.056v-6.384h.928Zm1.824 2.464h4.208v1.344h-4.208v-1.344Zm5.312 2.144v-2.96h-6.368v2.96h6.368Zm-1.456 1.856c.224-.448.512-.992.784-1.504l-1.072-.304c-.16.496-.432 1.248-.688 1.808h-1.552a14.25 14.25 0 0 0-.688-1.76l-.912.256c.208.464.416 1.024.576 1.504h-2.32v.928h8.256v-.928h-2.384Z" fill="#6C6C72"/></g><g filter="url(#p)"><path d="M252 505c0-11.046 8.954-20 20-20h260c11.046 0 20 8.954 20 20s-8.954 20-20 20H272c-11.046 0-20-8.954-20-20Z" fill="#fff"/><path d="M289.823 503c.409 0 .777.249.928.629l3.6 9a1 1 0 0 1-1.858.743l-.949-2.372h-4.09l-.948 2.371a1 1 0 0 1-1.857-.742l3.6-9a.998.998 0 0 1 .928-.629h.646ZM281 495a1 1 0 0 1 1 1v1h5a1 1 0 0 1 0 2h-.968a18.224 18.224 0 0 1-3.62 6.301c.508.453 1.046.871 1.611 1.25.409.275.587.803.404 1.261-.225.563-.901.809-1.407.476a17.145 17.145 0 0 1-2.02-1.563 16.702 16.702 0 0 1-5.225 3.209c-.528.202-1.102-.115-1.253-.659-.144-.518.148-1.057.648-1.253a14.71 14.71 0 0 0 4.42-2.72 18.082 18.082 0 0 1-2.095-2.909c-.367-.633.112-1.393.844-1.393h.072c.367 0 .703.202.889.518a16.025 16.025 0 0 0 1.7 2.359 16.178 16.178 0 0 0 2.91-4.876L275 499a1 1 0 0 1 0-2h5v-1a1 1 0 0 1 1-1Zm8.5 10.885L288.253 509h2.492l-1.245-3.115Z" fill="#F55116"/><path d="M309.761 512h8.892v-1.562h-7.13v-4.944h6.562v-1.562h-6.562v-4.915h7.017v-1.562h-8.779V512Zm19.453-8.466c-.525-1.548-1.704-2.585-3.863-2.585-2.301 0-4.006 1.307-4.006 3.153 0 1.506.895 2.514 2.898 2.983l1.818.426c1.101.256 1.619.782 1.619 1.534 0 .938-.994 1.705-2.556 1.705-1.371 0-2.231-.589-2.529-1.761l-1.591.397c.391 1.854 1.918 2.841 4.148 2.841 2.536 0 4.261-1.385 4.261-3.267 0-1.52-.951-2.478-2.897-2.954l-1.62-.398c-1.292-.32-1.875-.753-1.875-1.591 0-.937.995-1.619 2.33-1.619 1.463 0 2.067.809 2.358 1.562l1.505-.426Zm2.722 12.557h1.677v-5.767h.142c.369.596 1.079 1.903 3.181 1.903 2.728 0 4.631-2.187 4.631-5.653 0-3.438-1.903-5.625-4.659-5.625-2.131 0-2.784 1.307-3.153 1.875h-.199v-1.733h-1.62v15Zm1.648-9.546c0-2.443 1.08-4.09 3.125-4.09 2.131 0 3.182 1.789 3.182 4.09 0 2.33-1.08 4.177-3.182 4.177-2.017 0-3.125-1.705-3.125-4.177Zm13.75 5.711c1.904 0 2.898-1.023 3.239-1.733h.085V512h1.676v-7.188c0-3.465-2.642-3.863-4.034-3.863-1.648 0-3.523.568-4.375 2.557l1.591.568c.369-.796 1.243-1.648 2.841-1.648 1.541 0 2.301.817 2.301 2.216v.057c0 .81-.824.739-2.812.994-2.025.263-4.233.71-4.233 3.21 0 2.131 1.647 3.353 3.721 3.353Zm.256-1.506c-1.335 0-2.301-.597-2.301-1.761 0-1.279 1.164-1.677 2.471-1.847.711-.085 2.614-.284 2.898-.625v1.534c0 1.364-1.08 2.699-3.068 2.699Zm9.48-5.312c0-1.904 1.179-2.983 2.784-2.983 1.555 0 2.5 1.015 2.5 2.727V512h1.676v-6.932c0-2.784-1.485-4.119-3.693-4.119-1.648 0-2.671.739-3.182 1.846h-.142v-1.704h-1.62V512h1.677v-6.562Zm.454-5.654c0-.596.398-1.079.938-1.079 1.079 0 1.278.909 2.585.909 1.221 0 2.159-.938 2.159-2.415l-1.278-.114c0 .597-.427 1.08-.966 1.08-1.023 0-1.506-.909-2.586-.909-1.221 0-2.159 1.022-2.159 2.471l1.307.057Zm14.001 12.443c2.954 0 4.943-2.244 4.943-5.625 0-3.409-1.989-5.653-4.943-5.653-2.955 0-4.944 2.244-4.944 5.653 0 3.381 1.989 5.625 4.944 5.625Zm0-1.505c-2.245 0-3.268-1.932-3.268-4.12 0-2.187 1.023-4.147 3.268-4.147 2.244 0 3.267 1.96 3.267 4.147 0 2.188-1.023 4.12-3.267 4.12Zm9.177-13.267h-1.676V512h1.676v-14.545Zm9.292 8.409c0 3.579.966 6.562 2.699 9.091h1.477c-1.364-1.875-2.443-5.711-2.443-9.091 0-3.381 1.079-7.216 2.443-9.091h-1.477c-1.733 2.528-2.699 5.511-2.699 9.091Zm6.877 6.136h8.522v-1.562h-6.761v-12.983h-1.761V512Zm14.233.256c1.903 0 2.897-1.023 3.238-1.733h.086V512h1.676v-7.188c0-3.465-2.642-3.863-4.034-3.863-1.648 0-3.523.568-4.375 2.557l1.591.568c.369-.796 1.242-1.648 2.84-1.648 1.542 0 2.302.817 2.302 2.216v.057c0 .81-.824.739-2.813.994-2.024.263-4.233.71-4.233 3.21 0 2.131 1.648 3.353 3.722 3.353Zm.255-1.506c-1.335 0-2.301-.597-2.301-1.761 0-1.279 1.165-1.677 2.472-1.847.71-.085 2.613-.284 2.898-.625v1.534c0 1.364-1.08 2.699-3.069 2.699Zm12.548-9.659h-2.329v-2.614h-1.676v2.614h-1.648v1.42h1.648v6.819c0 1.903 1.534 2.812 2.954 2.812.625 0 1.023-.114 1.25-.199l-.341-1.505c-.142.028-.369.085-.738.085-.739 0-1.449-.228-1.449-1.648v-6.364h2.329v-1.42ZM426.429 512h1.676v-10.909h-1.676V512Zm.852-12.727c.653 0 1.193-.512 1.193-1.137s-.54-1.136-1.193-1.136c-.654 0-1.193.511-1.193 1.136 0 .625.539 1.137 1.193 1.137Zm5.57 6.165c0-1.904 1.179-2.983 2.784-2.983 1.555 0 2.5 1.015 2.5 2.727V512h1.676v-6.932c0-2.784-1.484-4.119-3.693-4.119-1.648 0-2.671.739-3.182 1.846h-.142v-1.704h-1.619V512h1.676v-6.562ZM449.323 512l1.463-4.119h5.881L458.13 512h1.846l-5.341-14.545h-1.818L447.476 512h1.847Zm2.017-5.682 2.329-6.562h.114l2.33 6.562h-4.773ZM462.015 512h1.676v-6.818c0-1.598 1.164-2.727 2.471-2.727 1.272 0 2.159.831 2.159 2.073V512h1.705v-7.102c0-1.407.881-2.443 2.415-2.443 1.193 0 2.216.632 2.216 2.244V512h1.676v-7.301c0-2.564-1.378-3.75-3.324-3.75-1.563 0-2.706.717-3.267 1.846h-.114c-.54-1.164-1.491-1.846-2.926-1.846-1.42 0-2.472.682-2.926 1.846h-.142v-1.704h-1.619V512Zm21.956.227c2.216 0 3.835-1.108 4.347-2.755l-1.619-.455c-.427 1.136-1.414 1.705-2.728 1.705-1.967 0-3.324-1.272-3.402-3.608h7.919v-.711c0-4.062-2.414-5.454-4.687-5.454-2.955 0-4.915 2.329-4.915 5.682 0 3.352 1.932 5.596 5.085 5.596Zm-3.402-6.562c.114-1.698 1.314-3.21 3.232-3.21 1.818 0 2.983 1.363 2.983 3.21h-6.215ZM491.038 512h1.676v-6.903c0-1.478 1.165-2.557 2.756-2.557.447 0 .909.085 1.023.113v-1.704a16.323 16.323 0 0 0-.881-.029c-1.307 0-2.443.739-2.841 1.819h-.114v-1.648h-1.619V512Zm7.441 0h1.677v-10.909h-1.677V512Zm.853-12.727c.653 0 1.193-.512 1.193-1.137s-.54-1.136-1.193-1.136c-.654 0-1.194.511-1.194 1.136 0 .625.54 1.137 1.194 1.137Zm8.325 12.954c2.415 0 4.006-1.477 4.29-3.409h-1.676c-.313 1.193-1.307 1.904-2.614 1.904-1.988 0-3.267-1.648-3.267-4.177 0-2.471 1.307-4.09 3.267-4.09 1.478 0 2.358.909 2.614 1.903h1.676c-.284-2.046-2.017-3.409-4.318-3.409-2.955 0-4.915 2.329-4.915 5.653 0 3.267 1.875 5.625 4.943 5.625Zm9.951.029c1.903 0 2.897-1.023 3.238-1.733h.085V512h1.677v-7.188c0-3.465-2.642-3.863-4.034-3.863-1.648 0-3.523.568-4.375 2.557l1.59.568c.37-.796 1.243-1.648 2.841-1.648 1.542 0 2.301.817 2.301 2.216v.057c0 .81-.823.739-2.812.994-2.024.263-4.233.71-4.233 3.21 0 2.131 1.648 3.353 3.722 3.353Zm.255-1.506c-1.335 0-2.301-.597-2.301-1.761 0-1.279 1.165-1.677 2.472-1.847.71-.085 2.613-.284 2.897-.625v1.534c0 1.364-1.079 2.699-3.068 2.699Zm11.383-4.886c0-3.58-.965-6.563-2.698-9.091h-1.478c1.364 1.875 2.443 5.71 2.443 9.091 0 3.38-1.079 7.216-2.443 9.091h1.478c1.733-2.529 2.698-5.512 2.698-9.091Z" fill="#6C6C72"/></g><g filter="url(#q)"><path d="M450 413c0-11.046 8.954-20 20-20h92c11.046 0 20 8.954 20 20s-8.954 20-20 20h-92c-11.046 0-20-8.954-20-20Z" fill="#fff"/><path d="M487.823 411c.409 0 .777.249.928.629l3.6 9a1 1 0 0 1-1.858.743l-.949-2.372h-4.09l-.948 2.371a1 1 0 0 1-1.857-.742l3.6-9a.998.998 0 0 1 .928-.629h.646ZM479 403a1 1 0 0 1 1 1v1h5a1 1 0 0 1 0 2h-.968a18.224 18.224 0 0 1-3.62 6.301c.508.453 1.046.871 1.611 1.25.409.275.587.803.404 1.261-.225.563-.901.809-1.407.476a17.145 17.145 0 0 1-2.02-1.563 16.702 16.702 0 0 1-5.225 3.209c-.528.202-1.102-.115-1.253-.659-.144-.518.148-1.057.648-1.253a14.71 14.71 0 0 0 4.42-2.72 18.082 18.082 0 0 1-2.095-2.909c-.367-.633.112-1.393.844-1.393h.072c.367 0 .703.202.889.518a16.025 16.025 0 0 0 1.7 2.359 16.178 16.178 0 0 0 2.91-4.876L473 407a1 1 0 0 1 0-2h5v-1a1 1 0 0 1 1-1Zm8.5 10.885L486.253 417h2.492l-1.245-3.115Z" fill="#F55116"/><path d="M507.761 420h1.762v-5.312h3.182c3.387 0 4.914-2.06 4.914-4.631s-1.527-4.602-4.943-4.602h-4.915V420Zm1.762-6.875v-6.108h3.096c2.365 0 3.267 1.293 3.267 3.04s-.902 3.068-3.238 3.068h-3.125Zm15.021 7.102c2.955 0 4.943-2.244 4.943-5.625 0-3.409-1.988-5.653-4.943-5.653-2.955 0-4.943 2.244-4.943 5.653 0 3.381 1.988 5.625 4.943 5.625Zm0-1.505c-2.244 0-3.267-1.932-3.267-4.12 0-2.187 1.023-4.147 3.267-4.147 2.244 0 3.267 1.96 3.267 4.147 0 2.188-1.023 4.12-3.267 4.12Zm9.178-13.267h-1.676V420h1.676v-14.545Zm10.797 6.079c-.525-1.548-1.704-2.585-3.863-2.585-2.302 0-4.006 1.307-4.006 3.153 0 1.506.895 2.514 2.898 2.983l1.818.426c1.101.256 1.619.782 1.619 1.534 0 .938-.994 1.705-2.557 1.705-1.37 0-2.23-.589-2.528-1.761l-1.591.397c.391 1.854 1.918 2.841 4.148 2.841 2.535 0 4.261-1.385 4.261-3.267 0-1.52-.952-2.478-2.898-2.954l-1.619-.398c-1.293-.32-1.875-.753-1.875-1.591 0-.937.994-1.619 2.33-1.619 1.463 0 2.066.809 2.357 1.562l1.506-.426Zm2.722 8.466h1.676v-4.084l1.172-1.086 4.084 5.17h2.131l-4.951-6.25 4.61-4.659h-2.074l-4.773 4.858h-.199v-8.494h-1.676V420Zm10.879 0h1.676v-10.909h-1.676V420Zm.852-12.727c.654 0 1.193-.512 1.193-1.137s-.539-1.136-1.193-1.136c-.653 0-1.193.511-1.193 1.136 0 .625.54 1.137 1.193 1.137Z" fill="#6C6C72"/></g><g filter="url(#r)"><path d="M450 695c0-11.046 8.954-20 20-20h143c11.046 0 20 8.954 20 20s-8.954 20-20 20H470c-11.046 0-20-8.954-20-20Z" fill="#fff"/><path d="M487.823 693c.409 0 .777.249.928.629l3.6 9a1 1 0 0 1-1.858.743l-.949-2.372h-4.09l-.948 2.371a1 1 0 0 1-1.857-.742l3.6-9a.998.998 0 0 1 .928-.629h.646ZM479 685a1 1 0 0 1 1 1v1h5a1 1 0 0 1 0 2h-.968a18.224 18.224 0 0 1-3.62 6.301c.508.453 1.046.871 1.611 1.25.409.275.587.803.404 1.261-.225.563-.901.809-1.407.476a17.145 17.145 0 0 1-2.02-1.563 16.702 16.702 0 0 1-5.225 3.209c-.528.202-1.102-.115-1.253-.659-.144-.518.148-1.057.648-1.253a14.71 14.71 0 0 0 4.42-2.72 18.082 18.082 0 0 1-2.095-2.909c-.367-.633.112-1.393.844-1.393h.072c.367 0 .703.202.889.518a16.025 16.025 0 0 0 1.7 2.359 16.178 16.178 0 0 0 2.91-4.876L473 689a1 1 0 0 1 0-2h5v-1a1 1 0 0 1 1-1Zm8.5 10.885L486.253 699h2.492l-1.245-3.115Z" fill="#F55116"/><path d="M507.761 702h8.892v-1.562h-7.13v-4.944h6.562v-1.562h-6.562v-4.915h7.017v-1.562h-8.779V702Zm19.453-8.466c-.525-1.548-1.704-2.585-3.863-2.585-2.301 0-4.006 1.307-4.006 3.153 0 1.506.895 2.514 2.898 2.983l1.818.426c1.101.256 1.619.782 1.619 1.534 0 .938-.994 1.705-2.556 1.705-1.371 0-2.231-.589-2.529-1.761l-1.591.397c.391 1.854 1.918 2.841 4.148 2.841 2.536 0 4.261-1.385 4.261-3.267 0-1.52-.951-2.478-2.897-2.954l-1.62-.398c-1.292-.32-1.875-.753-1.875-1.591 0-.937.995-1.619 2.33-1.619 1.463 0 2.067.809 2.358 1.562l1.505-.426Zm2.722 12.557h1.677v-5.767h.142c.369.596 1.079 1.903 3.181 1.903 2.728 0 4.631-2.187 4.631-5.653 0-3.438-1.903-5.625-4.659-5.625-2.131 0-2.784 1.307-3.153 1.875h-.199v-1.733h-1.62v15Zm1.648-9.546c0-2.443 1.08-4.09 3.125-4.09 2.131 0 3.182 1.789 3.182 4.09 0 2.33-1.08 4.177-3.182 4.177-2.017 0-3.125-1.705-3.125-4.177Zm13.75 5.711c1.904 0 2.898-1.023 3.239-1.733h.085V702h1.676v-7.188c0-3.465-2.642-3.863-4.034-3.863-1.648 0-3.523.568-4.375 2.557l1.591.568c.369-.796 1.243-1.648 2.841-1.648 1.541 0 2.301.817 2.301 2.216v.057c0 .81-.824.739-2.812.994-2.025.263-4.233.71-4.233 3.21 0 2.131 1.647 3.353 3.721 3.353Zm.256-1.506c-1.335 0-2.301-.597-2.301-1.761 0-1.279 1.164-1.677 2.471-1.847.711-.085 2.614-.284 2.898-.625v1.534c0 1.364-1.08 2.699-3.068 2.699Zm9.48-5.312c0-1.904 1.179-2.983 2.784-2.983 1.555 0 2.5 1.015 2.5 2.727V702h1.676v-6.932c0-2.784-1.485-4.119-3.693-4.119-1.648 0-2.671.739-3.182 1.846h-.142v-1.704h-1.62V702h1.677v-6.562Zm.454-5.654c0-.596.398-1.079.938-1.079 1.079 0 1.278.909 2.585.909 1.221 0 2.159-.938 2.159-2.415l-1.278-.114c0 .597-.427 1.08-.966 1.08-1.023 0-1.506-.909-2.586-.909-1.221 0-2.159 1.022-2.159 2.471l1.307.057Zm14.001 12.443c2.954 0 4.943-2.244 4.943-5.625 0-3.409-1.989-5.653-4.943-5.653-2.955 0-4.944 2.244-4.944 5.653 0 3.381 1.989 5.625 4.944 5.625Zm0-1.505c-2.245 0-3.268-1.932-3.268-4.12 0-2.187 1.023-4.147 3.268-4.147 2.244 0 3.267 1.96 3.267 4.147 0 2.188-1.023 4.12-3.267 4.12Zm9.177-13.267h-1.676V702h1.676v-14.545ZM587.625 702h8.892v-1.562h-7.131v-4.944h6.563v-1.562h-6.563v-4.915h7.017v-1.562h-8.778V702Zm21.498-14.545v9.488c0 2.131-1.463 3.665-3.892 3.665s-3.892-1.534-3.892-3.665v-9.488h-1.761v9.63c0 2.983 2.23 5.171 5.653 5.171 3.423 0 5.654-2.188 5.654-5.171v-9.63h-1.762Z" fill="#6C6C72"/></g><g filter="url(#s)"><path d="M232 381c0-11.046 8.954-20 20-20h143c11.046 0 20 8.954 20 20s-8.954 20-20 20H252c-11.046 0-20-8.954-20-20Z" fill="#fff"/><path d="M269.823 379c.409 0 .777.249.928.629l3.6 9a1 1 0 0 1-1.858.743l-.949-2.372h-4.09l-.948 2.371a1 1 0 0 1-1.857-.742l3.6-9a.998.998 0 0 1 .928-.629h.646ZM261 371a1 1 0 0 1 1 1v1h5a1 1 0 0 1 0 2h-.968a18.224 18.224 0 0 1-3.62 6.301c.508.453 1.046.871 1.611 1.25.409.275.587.803.404 1.261-.225.563-.901.809-1.407.476a17.145 17.145 0 0 1-2.02-1.563 16.702 16.702 0 0 1-5.225 3.209c-.528.202-1.102-.115-1.253-.659-.144-.518.148-1.057.648-1.253a14.71 14.71 0 0 0 4.42-2.72 18.082 18.082 0 0 1-2.095-2.909c-.367-.633.112-1.393.844-1.393h.072c.367 0 .703.202.889.518a16.025 16.025 0 0 0 1.7 2.359 16.178 16.178 0 0 0 2.91-4.876L255 375a1 1 0 0 1 0-2h5v-1a1 1 0 0 1 1-1Zm8.5 10.885L268.253 385h2.492l-1.245-3.115Z" fill="#F55116"/><path d="M288.966 375.017h4.574V388h1.761v-12.983h4.574v-1.562h-10.909v1.562Zm13.4 12.983h1.676v-10.909h-1.676V388Zm.852-12.727c.654 0 1.194-.512 1.194-1.137s-.54-1.136-1.194-1.136c-.653 0-1.193.511-1.193 1.136 0 .625.54 1.137 1.193 1.137Zm8.468 12.954c2.216 0 3.835-1.108 4.347-2.755l-1.62-.455c-.426 1.136-1.413 1.705-2.727 1.705-1.967 0-3.324-1.272-3.402-3.608h7.919v-.711c0-4.062-2.415-5.454-4.687-5.454-2.955 0-4.915 2.329-4.915 5.682 0 3.352 1.932 5.596 5.085 5.596Zm-3.402-6.562c.114-1.698 1.314-3.21 3.232-3.21 1.818 0 2.983 1.363 2.983 3.21h-6.215Zm-.518-5.938h2.073l1.62-1.505 1.619 1.505h2.046l-2.898-2.585h-1.563l-2.897 2.585Zm6.591-1.733h1.477l1.988-2.556h-2.073l-1.392 2.556Zm6.072 7.444c0-1.904 1.179-2.983 2.784-2.983 1.555 0 2.5 1.015 2.5 2.727V388h1.676v-6.932c0-2.784-1.484-4.119-3.693-4.119-1.648 0-2.67.739-3.182 1.846h-.142v-1.704h-1.619V388h1.676v-6.562Zm14.426 10.88c2.614 0 4.716-1.193 4.716-4.006v-11.221h-1.619v1.733h-.17c-.37-.568-1.052-1.875-3.182-1.875-2.756 0-4.659 2.187-4.659 5.54 0 3.409 1.988 5.341 4.63 5.341 2.131 0 2.813-1.25 3.182-1.847h.142v2.216c0 1.818-1.278 2.642-3.04 2.642-1.981 0-2.677-1.044-3.125-1.648l-1.335.938c.682 1.143 2.024 2.187 4.46 2.187Zm-.056-5.994c-2.103 0-3.182-1.591-3.182-3.864 0-2.216 1.051-4.005 3.182-4.005 2.045 0 3.125 1.647 3.125 4.005 0 2.415-1.108 3.864-3.125 3.864Zm14.289-12.869h-1.846L352.583 388h1.818l5.341-14.545h-1.847l-4.318 12.244h-.17l-4.319-12.244ZM361.78 388h1.676v-10.909h-1.676V388Zm.852-12.727c.654 0 1.194-.512 1.194-1.137s-.54-1.136-1.194-1.136c-.653 0-1.193.511-1.193 1.136 0 .625.54 1.137 1.193 1.137Zm8.468 12.954c2.216 0 3.835-1.108 4.347-2.755l-1.62-.455c-.426 1.136-1.413 1.705-2.727 1.705-1.967 0-3.324-1.272-3.402-3.608h7.919v-.711c0-4.062-2.415-5.454-4.687-5.454-2.955 0-4.915 2.329-4.915 5.682 0 3.352 1.932 5.596 5.085 5.596Zm-3.402-6.562c.114-1.698 1.314-3.21 3.232-3.21 1.818 0 2.983 1.363 2.983 3.21h-6.215Zm1.669-5.881 1.477-1.989 1.478 1.989h1.591v-.114l-2.301-2.954h-1.535l-2.301 2.954v.114h1.591Zm1.477 15.824c.654 0 1.194-.511 1.194-1.136 0-.625-.54-1.137-1.194-1.137-.653 0-1.193.512-1.193 1.137s.54 1.136 1.193 1.136Zm12.067-14.517h-2.329v-2.614h-1.676v2.614h-1.648v1.42h1.648v6.819c0 1.903 1.534 2.812 2.954 2.812.625 0 1.023-.114 1.25-.199l-.341-1.505c-.142.028-.369.085-.738.085-.739 0-1.449-.228-1.449-1.648v-6.364h2.329v-1.42Z" fill="#6C6C72"/></g><defs><filter id="a" x="268" y="620" width="148" height="56" filterUnits="userSpaceOnUse" color-interpolation-filters="sRGB"><feFlood flood-opacity="0" result="BackgroundImageFix"/><feColorMatrix in="SourceAlpha" values="0 0 0 0 0 0 0 0 0 0 0 0 0 0 0 0 0 0 127 0" result="hardAlpha"/><feOffset dy="2"/><feGaussianBlur stdDeviation="4"/><feColorMatrix values="0 0 0 0 0 0 0 0 0 0 0 0 0 0 0 0 0 0 0.08 0"/><feBlend in2="BackgroundImageFix" result="effect1_dropShadow_2696:20977"/><feBlend in="SourceGraphic" in2="effect1_dropShadow_2696:20977" result="shape"/></filter><filter id="b" x="360" y="0" width="160" height="56" filterUnits="userSpaceOnUse" color-interpolation-filters="sRGB"><feFlood flood-opacity="0" result="BackgroundImageFix"/><feColorMatrix in="SourceAlpha" values="0 0 0 0 0 0 0 0 0 0 0 0 0 0 0 0 0 0 127 0" result="hardAlpha"/><feOffset dy="2"/><feGaussianBlur stdDeviation="4"/><feColorMatrix values="0 0 0 0 0 0 0 0 0 0 0 0 0 0 0 0 0 0 0.08 0"/><feBlend in2="BackgroundImageFix" result="effect1_dropShadow_2696:20977"/><feBlend in="SourceGraphic" in2="effect1_dropShadow_2696:20977" result="shape"/></filter><filter id="c" x="43" y="64" width="190" height="56" filterUnits="userSpaceOnUse" color-interpolation-filters="sRGB"><feFlood flood-opacity="0" result="BackgroundImageFix"/><feColorMatrix in="SourceAlpha" values="0 0 0 0 0 0 0 0 0 0 0 0 0 0 0 0 0 0 127 0" result="hardAlpha"/><feOffset dy="2"/><feGaussianBlur stdDeviation="4"/><feColorMatrix values="0 0 0 0 0 0 0 0 0 0 0 0 0 0 0 0 0 0 0.08 0"/><feBlend in2="BackgroundImageFix" result="effect1_dropShadow_2696:20977"/><feBlend in="SourceGraphic" in2="effect1_dropShadow_2696:20977" result="shape"/></filter><filter id="d" x="0" y="172" width="222" height="56" filterUnits="userSpaceOnUse" color-interpolation-filters="sRGB"><feFlood flood-opacity="0" result="BackgroundImageFix"/><feColorMatrix in="SourceAlpha" values="0 0 0 0 0 0 0 0 0 0 0 0 0 0 0 0 0 0 127 0" result="hardAlpha"/><feOffset dy="2"/><feGaussianBlur stdDeviation="4"/><feColorMatrix values="0 0 0 0 0 0 0 0 0 0 0 0 0 0 0 0 0 0 0.08 0"/><feBlend in2="BackgroundImageFix" result="effect1_dropShadow_2696:20977"/><feBlend in="SourceGraphic" in2="effect1_dropShadow_2696:20977" result="shape"/></filter><filter id="e" x="539" y="71" width="143" height="56" filterUnits="userSpaceOnUse" color-interpolation-filters="sRGB"><feFlood flood-opacity="0" result="BackgroundImageFix"/><feColorMatrix in="SourceAlpha" values="0 0 0 0 0 0 0 0 0 0 0 0 0 0 0 0 0 0 127 0" result="hardAlpha"/><feOffset dy="2"/><feGaussianBlur stdDeviation="4"/><feColorMatrix values="0 0 0 0 0 0 0 0 0 0 0 0 0 0 0 0 0 0 0.08 0"/><feBlend in2="BackgroundImageFix" result="effect1_dropShadow_2696:20977"/><feBlend in="SourceGraphic" in2="effect1_dropShadow_2696:20977" result="shape"/></filter><filter id="f" x="301" y="90" width="134" height="56" filterUnits="userSpaceOnUse" color-interpolation-filters="sRGB"><feFlood flood-opacity="0" result="BackgroundImageFix"/><feColorMatrix in="SourceAlpha" values="0 0 0 0 0 0 0 0 0 0 0 0 0 0 0 0 0 0 127 0" result="hardAlpha"/><feOffset dy="2"/><feGaussianBlur stdDeviation="4"/><feColorMatrix values="0 0 0 0 0 0 0 0 0 0 0 0 0 0 0 0 0 0 0.08 0"/><feBlend in2="BackgroundImageFix" result="effect1_dropShadow_2696:20977"/><feBlend in="SourceGraphic" in2="effect1_dropShadow_2696:20977" result="shape"/></filter><filter id="g" x="65" y="400" width="157" height="56" filterUnits="userSpaceOnUse" color-interpolation-filters="sRGB"><feFlood flood-opacity="0" result="BackgroundImageFix"/><feColorMatrix in="SourceAlpha" values="0 0 0 0 0 0 0 0 0 0 0 0 0 0 0 0 0 0 127 0" result="hardAlpha"/><feOffset dy="2"/><feGaussianBlur stdDeviation="4"/><feColorMatrix values="0 0 0 0 0 0 0 0 0 0 0 0 0 0 0 0 0 0 0.08 0"/><feBlend in2="BackgroundImageFix" result="effect1_dropShadow_2696:20977"/><feBlend in="SourceGraphic" in2="effect1_dropShadow_2696:20977" result="shape"/></filter><filter id="h" x="41" y="659" width="173" height="56" filterUnits="userSpaceOnUse" color-interpolation-filters="sRGB"><feFlood flood-opacity="0" result="BackgroundImageFix"/><feColorMatrix in="SourceAlpha" values="0 0 0 0 0 0 0 0 0 0 0 0 0 0 0 0 0 0 127 0" result="hardAlpha"/><feOffset dy="2"/><feGaussianBlur stdDeviation="4"/><feColorMatrix values="0 0 0 0 0 0 0 0 0 0 0 0 0 0 0 0 0 0 0.08 0"/><feBlend in2="BackgroundImageFix" result="effect1_dropShadow_2696:20977"/><feBlend in="SourceGraphic" in2="effect1_dropShadow_2696:20977" result="shape"/></filter><filter id="i" x="88" y="280" width="172" height="56" filterUnits="userSpaceOnUse" color-interpolation-filters="sRGB"><feFlood flood-opacity="0" result="BackgroundImageFix"/><feColorMatrix in="SourceAlpha" values="0 0 0 0 0 0 0 0 0 0 0 0 0 0 0 0 0 0 127 0" result="hardAlpha"/><feOffset dy="2"/><feGaussianBlur stdDeviation="4"/><feColorMatrix values="0 0 0 0 0 0 0 0 0 0 0 0 0 0 0 0 0 0 0.08 0"/><feBlend in2="BackgroundImageFix" result="effect1_dropShadow_2696:20977"/><feBlend in="SourceGraphic" in2="effect1_dropShadow_2696:20977" result="shape"/></filter><filter id="j" x="351" y="268" width="220" height="56" filterUnits="userSpaceOnUse" color-interpolation-filters="sRGB"><feFlood flood-opacity="0" result="BackgroundImageFix"/><feColorMatrix in="SourceAlpha" values="0 0 0 0 0 0 0 0 0 0 0 0 0 0 0 0 0 0 127 0" result="hardAlpha"/><feOffset dy="2"/><feGaussianBlur stdDeviation="4"/><feColorMatrix values="0 0 0 0 0 0 0 0 0 0 0 0 0 0 0 0 0 0 0.08 0"/><feBlend in2="BackgroundImageFix" result="effect1_dropShadow_2696:20977"/><feBlend in="SourceGraphic" in2="effect1_dropShadow_2696:20977" result="shape"/></filter><filter id="k" x="430" y="153" width="161" height="56" filterUnits="userSpaceOnUse" color-interpolation-filters="sRGB"><feFlood flood-opacity="0" result="BackgroundImageFix"/><feColorMatrix in="SourceAlpha" values="0 0 0 0 0 0 0 0 0 0 0 0 0 0 0 0 0 0 127 0" result="hardAlpha"/><feOffset dy="2"/><feGaussianBlur stdDeviation="4"/><feColorMatrix values="0 0 0 0 0 0 0 0 0 0 0 0 0 0 0 0 0 0 0.08 0"/><feBlend in2="BackgroundImageFix" result="effect1_dropShadow_2696:20977"/><feBlend in="SourceGraphic" in2="effect1_dropShadow_2696:20977" result="shape"/></filter><filter id="l" x="241" y="180" width="140" height="56" filterUnits="userSpaceOnUse" color-interpolation-filters="sRGB"><feFlood flood-opacity="0" result="BackgroundImageFix"/><feColorMatrix in="SourceAlpha" values="0 0 0 0 0 0 0 0 0 0 0 0 0 0 0 0 0 0 127 0" result="hardAlpha"/><feOffset dy="2"/><feGaussianBlur stdDeviation="4"/><feColorMatrix values="0 0 0 0 0 0 0 0 0 0 0 0 0 0 0 0 0 0 0.08 0"/><feBlend in2="BackgroundImageFix" result="effect1_dropShadow_2696:20977"/><feBlend in="SourceGraphic" in2="effect1_dropShadow_2696:20977" result="shape"/></filter><filter id="m" x="206" y="736" width="201" height="56" filterUnits="userSpaceOnUse" color-interpolation-filters="sRGB"><feFlood flood-opacity="0" result="BackgroundImageFix"/><feColorMatrix in="SourceAlpha" values="0 0 0 0 0 0 0 0 0 0 0 0 0 0 0 0 0 0 127 0" result="hardAlpha"/><feOffset dy="2"/><feGaussianBlur stdDeviation="4"/><feColorMatrix values="0 0 0 0 0 0 0 0 0 0 0 0 0 0 0 0 0 0 0.08 0"/><feBlend in2="BackgroundImageFix" result="effect1_dropShadow_2696:20977"/><feBlend in="SourceGraphic" in2="effect1_dropShadow_2696:20977" result="shape"/></filter><filter id="n" x="75" y="547" width="166" height="56" filterUnits="userSpaceOnUse" color-interpolation-filters="sRGB"><feFlood flood-opacity="0" result="BackgroundImageFix"/><feColorMatrix in="SourceAlpha" values="0 0 0 0 0 0 0 0 0 0 0 0 0 0 0 0 0 0 127 0" result="hardAlpha"/><feOffset dy="2"/><feGaussianBlur stdDeviation="4"/><feColorMatrix values="0 0 0 0 0 0 0 0 0 0 0 0 0 0 0 0 0 0 0.08 0"/><feBlend in2="BackgroundImageFix" result="effect1_dropShadow_2696:20977"/><feBlend in="SourceGraphic" in2="effect1_dropShadow_2696:20977" result="shape"/></filter><filter id="o" x="464" y="574" width="166" height="56" filterUnits="userSpaceOnUse" color-interpolation-filters="sRGB"><feFlood flood-opacity="0" result="BackgroundImageFix"/><feColorMatrix in="SourceAlpha" values="0 0 0 0 0 0 0 0 0 0 0 0 0 0 0 0 0 0 127 0" result="hardAlpha"/><feOffset dy="2"/><feGaussianBlur stdDeviation="4"/><feColorMatrix values="0 0 0 0 0 0 0 0 0 0 0 0 0 0 0 0 0 0 0.08 0"/><feBlend in2="BackgroundImageFix" result="effect1_dropShadow_2696:20977"/><feBlend in="SourceGraphic" in2="effect1_dropShadow_2696:20977" result="shape"/></filter><filter id="p" x="244" y="479" width="316" height="56" filterUnits="userSpaceOnUse" color-interpolation-filters="sRGB"><feFlood flood-opacity="0" result="BackgroundImageFix"/><feColorMatrix in="SourceAlpha" values="0 0 0 0 0 0 0 0 0 0 0 0 0 0 0 0 0 0 127 0" result="hardAlpha"/><feOffset dy="2"/><feGaussianBlur stdDeviation="4"/><feColorMatrix values="0 0 0 0 0 0 0 0 0 0 0 0 0 0 0 0 0 0 0.08 0"/><feBlend in2="BackgroundImageFix" result="effect1_dropShadow_2696:20977"/><feBlend in="SourceGraphic" in2="effect1_dropShadow_2696:20977" result="shape"/></filter><filter id="q" x="442" y="387" width="148" height="56" filterUnits="userSpaceOnUse" color-interpolation-filters="sRGB"><feFlood flood-opacity="0" result="BackgroundImageFix"/><feColorMatrix in="SourceAlpha" values="0 0 0 0 0 0 0 0 0 0 0 0 0 0 0 0 0 0 127 0" result="hardAlpha"/><feOffset dy="2"/><feGaussianBlur stdDeviation="4"/><feColorMatrix values="0 0 0 0 0 0 0 0 0 0 0 0 0 0 0 0 0 0 0.08 0"/><feBlend in2="BackgroundImageFix" result="effect1_dropShadow_2696:20977"/><feBlend in="SourceGraphic" in2="effect1_dropShadow_2696:20977" result="shape"/></filter><filter id="r" x="442" y="669" width="199" height="56" filterUnits="userSpaceOnUse" color-interpolation-filters="sRGB"><feFlood flood-opacity="0" result="BackgroundImageFix"/><feColorMatrix in="SourceAlpha" values="0 0 0 0 0 0 0 0 0 0 0 0 0 0 0 0 0 0 127 0" result="hardAlpha"/><feOffset dy="2"/><feGaussianBlur stdDeviation="4"/><feColorMatrix values="0 0 0 0 0 0 0 0 0 0 0 0 0 0 0 0 0 0 0.08 0"/><feBlend in2="BackgroundImageFix" result="effect1_dropShadow_2696:20977"/><feBlend in="SourceGraphic" in2="effect1_dropShadow_2696:20977" result="shape"/></filter><filter id="s" x="224" y="355" width="199" height="56" filterUnits="userSpaceOnUse" color-interpolation-filters="sRGB"><feFlood flood-opacity="0" result="BackgroundImageFix"/><feColorMatrix in="SourceAlpha" values="0 0 0 0 0 0 0 0 0 0 0 0 0 0 0 0 0 0 127 0" result="hardAlpha"/><feOffset dy="2"/><feGaussianBlur stdDeviation="4"/><feColorMatrix values="0 0 0 0 0 0 0 0 0 0 0 0 0 0 0 0 0 0 0.08 0"/><feBlend in2="BackgroundImageFix" result="effect1_dropShadow_2696:20977"/><feBlend in="SourceGraphic" in2="effect1_dropShadow_2696:20977" result="shape"/></filter></defs></svg>