<svg width="53" height="64" viewBox="0 0 53 64" fill="none" xmlns="http://www.w3.org/2000/svg"><path d="m5.163 63.958-.839-1.259h-.67v1.259h-.84v-3.9h1.762c.923 0 1.468.502 1.468 1.3 0 .628-.336 1.006-.839 1.216l.965 1.384H5.163Zm.042-2.559c0-.377-.252-.545-.671-.545h-.839v1.132h.88c.378-.042.63-.251.63-.587ZM7.594 63.958v-3.9h2.936v.754H8.433v.797h1.845v.755H8.433v.797h2.097v.755H7.594v.042ZM14.976 63.958l-.335-.881h-1.636l-.335.88h-.88l1.635-3.9h.797l1.635 3.9h-.88Zm-1.174-2.894-.503 1.258h1.048l-.545-1.258ZM17.242 63.958v-3.9h.839v3.103h1.93v.797h-2.769ZM23.867 63.958v-3.9h2.936v.754h-2.097v.797h1.845v.755h-1.845v.797h2.097v.755h-2.936v.042ZM29.737 64c-.587 0-1.174-.21-1.635-.63l.503-.586c.335.293.713.461 1.174.461.336 0 .545-.126.545-.377 0-.21-.126-.336-.797-.504-.796-.21-1.3-.419-1.3-1.174 0-.713.546-1.174 1.342-1.174.546 0 1.049.168 1.426.503l-.461.63c-.335-.252-.671-.378-1.006-.378-.336 0-.504.167-.504.335 0 .252.168.336.839.503.797.21 1.216.504 1.216 1.175.084.797-.503 1.216-1.342 1.216ZM34.435 60.854v3.104h-.839v-3.104h-1.174v-.797h3.23v.797h-1.217ZM39.974 63.958l-.335-.881h-1.636l-.335.88h-.88l1.635-3.9h.797l1.635 3.9h-.88Zm-1.216-2.894-.503 1.258h1.048l-.545-1.258ZM43.958 60.854v3.104h-.838v-3.104h-1.175v-.797h3.23v.797h-1.217ZM46.557 63.958v-3.9h2.935v.754h-2.097v.797h1.846v.755h-1.846v.797h2.097v.755h-2.935v.042ZM2.81 51.04V35.145h11.995v3.104H6.292v3.23h7.507v3.103H6.292v3.355h8.64v3.103H2.81ZM30.323 49.32l-1.342-1.97-1.342-1.971c2.013-.755 3.397-2.349 3.397-4.95v-.041c0-3.271-2.265-5.243-5.997-5.243h-7.256v14.511c0 1.09.88 1.426 1.93 1.426h1.551v-5.074h2.768l2.81 4.236.042.084c.336.503.923.796 1.552.796h3.061l-1.174-1.803Zm-2.852-8.68c0 1.341-.964 2.264-2.684 2.264h-3.523v-4.613h3.481c1.72 0 2.768.755 2.768 2.265v.084h-.042ZM42.739 35.145H39.55l-5.159 12.12-1.132 2.643-.461 1.132h2.223a2 2 0 0 0 1.803-1.174l.965-2.349h6.668l1.426 3.565h3.649l-6.794-15.937Zm-3.733 9.227 2.097-5.117 2.097 5.117h-4.194Z" fill="#250E62"/><path d="M49.53 53.976H2.808v3.188h46.72v-3.188ZM0 33.677l26.17-11.826V0L0 18.83v14.847Z" fill="#C8102E"/><path d="M52.34 33.677 26.17 21.851V0l26.17 18.83v14.847Z" fill="#903"/><path d="M46.594 36.278c0-.587.503-1.09 1.09-1.09.63 0 1.09.502 1.09 1.09a1.11 1.11 0 0 1-1.09 1.09c-.587 0-1.09-.461-1.09-1.09Zm2.055 0a.95.95 0 0 0-.965-.965.976.976 0 0 0-.964.965c0 .545.419.964.964.964.545.042.965-.42.965-.964Zm-1.426-.587h.545c.168 0 .294.041.377.125.084.084.084.168.084.252 0 .168-.084.294-.251.336l.293.419h-.377l-.252-.336h-.126v.336h-.335V35.69h.042Zm.545.545c.126 0 .168-.042.168-.126 0-.084-.084-.126-.168-.126h-.21v.294h.21v-.042Z" fill="#250E62"/></svg>