<svg width="333" height="275" viewBox="0 0 333 275" fill="none" xmlns="http://www.w3.org/2000/svg"><path d="M313.66 88.885c16.939 27.814 26.792 57.459 12.378 88.71-53.48 115.285-209.2 136.642-272.098 18.409-15.946-30.012-20.194-64.299-2.193-94.084 18-29.785 48.257-57.337 75.71-78.101 27.454-20.764 58.807-29.873 92.022-19.543 40.406 12.616 72.908 49.66 94.181 84.61Z" fill="#00A5CE"/><path fill-rule="evenodd" clip-rule="evenodd" d="M82.984 167.734a23.07 23.07 0 0 0-1.057-2.203A5.146 5.146 0 0 0 77.461 163c-.448 0-.894.06-1.325.179a5.183 5.183 0 0 0-3.767 4.943 19.734 19.734 0 0 0 1.102 5.374c.364 1.674.94 3.295 1.712 4.824a5.495 5.495 0 0 0 2.605 2.233l.075.134c.038.079.075.159.111.238.108.232.213.459.335.67.4.638.853 1.241 1.355 1.801a5.252 5.252 0 0 0 6.357.819 5.342 5.342 0 0 0 2.427-3.141 5.569 5.569 0 0 0 0-2.799 19.88 19.88 0 0 0-1.265-3.752l-1.37-3.394a5.236 5.236 0 0 0-1.37-2.352l-1.072-.834-.387-.209Zm30.863 16.749c-.581-1.191-1.221-2.337-1.876-3.483a5.354 5.354 0 0 0-4.705-2.635 5.81 5.81 0 0 0-1.816.297 5.52 5.52 0 0 0-2.174.715 5.33 5.33 0 0 0-1.98 1.95l-.55 1.295a6.475 6.475 0 0 0 0 3.112c.204.584.443 1.156.714 1.712.073.145.131.277.191.411.063.141.127.285.211.453.164.327.313.67.462 1.012a18.015 18.015 0 0 0 2.039 4.035 13.435 13.435 0 0 0 1.891 2.218 6.105 6.105 0 0 0 5.643 1.489 5.512 5.512 0 0 0 3.93-3.99 8.307 8.307 0 0 0-.119-3.871 21.788 21.788 0 0 0-1.861-4.72Zm-5.39 28.168.344 1.308c.436 1.658.869 3.309 1.294 4.96v.119l.134.238c.268.432.506.879.729 1.325.343.685.641 1.4.923 2.114a6.951 6.951 0 0 1 .283 4.467 5.283 5.283 0 0 1-1.488 2.411 5.568 5.568 0 0 1-9.931-1.741c-.793-2.732-1.498-5.49-2.202-8.244a540.89 540.89 0 0 0-1.028-3.979 5.704 5.704 0 0 1 3.945-6.938 5.393 5.393 0 0 1 1.489-.209 5.705 5.705 0 0 1 5.508 4.169Zm-27.05-5.27a4.345 4.345 0 0 0-.834-.625v.029a4.204 4.204 0 0 0-4.258 0 4.467 4.467 0 0 0-1.593 1.579l-.09.148-.61.477a5.673 5.673 0 0 0-1.727 2.888 7.8 7.8 0 0 0 .09 3.796c.085.447.195.89.327 1.325.242.78.52 1.547.802 2.324l.091.252a5.242 5.242 0 0 0 2.322 2.978 5.08 5.08 0 0 0 3.29.714c.457.125.928.186 1.4.179h.104a3.535 3.535 0 0 0 2.725.357 3.614 3.614 0 0 0 2.114-1.623 3.407 3.407 0 0 0 .357-2.739l-.134-.357a7.682 7.682 0 0 0-.625-4.139c-.447-1.072-.893-2.144-1.355-3.216l-.112-.255c-.246-.558-.495-1.123-.766-1.665-.1-.224-.218-.456-.334-.684l-.113-.225-.313-.565a3.668 3.668 0 0 0-.759-.953Zm-38.858.387a5.6 5.6 0 0 0-1.49.223 5.956 5.956 0 0 0-3.602 2.65 5.661 5.661 0 0 0-.596 4.541l.447 1.102c-.06.69 0 1.385.179 2.054.399 1.568.896 3.11 1.489 4.615a66.151 66.151 0 0 0 1.28 3.395v.134c.274.938.787 1.79 1.489 2.471l1.131.864a5.572 5.572 0 0 0 7.214-1.393 5.562 5.562 0 0 0 1.079-2.419 5.758 5.758 0 0 0 .73-4.823 44.62 44.62 0 0 0-1.862-4.779v-.002c-.596-1.488-1.191-2.976-1.771-4.375a5.835 5.835 0 0 0-1.49-2.606l-1.205-.923a5.957 5.957 0 0 0-3.022-.729Zm40.346 34.495a4.839 4.839 0 0 0-2.233-2.784 5.011 5.011 0 0 0-2.561-.625c-.443 0-.884.06-1.31.178a4.985 4.985 0 0 0-3.603 4.467 6.027 6.027 0 0 0-.819 2.977l.223 1.608c.16.782.399 1.546.715 2.278.174.639.456 1.243.834 1.787l.193.55c.268.715.566 1.4.879 2.1a7.553 7.553 0 0 0 1.489 2.069 5.807 5.807 0 0 0 9.706-5.642 62.068 62.068 0 0 0-1.012-2.784 20.15 20.15 0 0 0-.343-1.013c-.085-.269-.183-.542-.282-.817a20.16 20.16 0 0 1-.313-.91c-.06-.283-.12-.551-.194-.819a5.835 5.835 0 0 0-1.235-2.307l-.134-.313Zm-54.55-66.98a6.229 6.229 0 0 1 2.725 1.593c.81.771 1.507 1.653 2.07 2.62.276.418.53.85.76 1.295.413.799.762 1.631 1.041 2.486.287 1.005.457 2.039.506 3.082a6.653 6.653 0 0 1-.833 4.005 6.386 6.386 0 0 1-2.635 3.067 6.288 6.288 0 0 1-7.295-.744 5.656 5.656 0 0 1-1.355-1.251 22.044 22.044 0 0 1-1.623-2.293 11.478 11.478 0 0 1-1.295-3.081 6.761 6.761 0 0 1 0-3.529l.104-.327a5.954 5.954 0 0 1 .149-2.576c.103-.261.21-.518.319-.779.096-.231.194-.466.291-.71a6.086 6.086 0 0 1 2.174-2.173l.119-.09a6.089 6.089 0 0 1 3.111-.819l1.668.224ZM12.09 200.695a4.798 4.798 0 0 0-1.416-1.264 4.832 4.832 0 0 0-2.516-.7 5.093 5.093 0 0 0-2.501.715l-.998.774a4.939 4.939 0 0 0-1.265 2.263l-.224.714a6.182 6.182 0 0 0-2.337 2.129 6.316 6.316 0 0 0 0 6.268c.511.913.916 1.825 1.32 2.738.256.576.512 1.152.794 1.728.2.434.423.857.67 1.266a9.81 9.81 0 0 0 1.072 1.489c.38.541.893.977 1.489 1.265a5.404 5.404 0 0 0 3.216.983c.595-.06 1.205-.134 1.8-.238a5.877 5.877 0 0 0 2.591-1.489 6.612 6.612 0 0 0 1.772-3.112 8.623 8.623 0 0 0 0-3.752l-.119-.595a93.57 93.57 0 0 0-1.161-4.69c-.1-.37-.2-.746-.299-1.124-.327-1.246-.66-2.512-1.07-3.655a4.805 4.805 0 0 0-.818-1.713Zm21.124 40.943a6.996 6.996 0 0 1 4.154 3.245c.49.827.899 1.7 1.22 2.606.164.351.284.721.358 1.101.119.73.238 1.489.313 2.204a5.7 5.7 0 0 1-.968 3.796 5.958 5.958 0 0 1-6.697 3.009 5.953 5.953 0 0 1-4.529-5.778 38.588 38.588 0 0 1-.297-1.25c-.09-.417-.164-.715-.253-1.057l-.12-.522a6.681 6.681 0 0 1-.208-1.741 5.221 5.221 0 0 1 .194-1.727 5.522 5.522 0 0 1 2.545-3.32 5.255 5.255 0 0 1 2.74-.73c.52.005 1.038.059 1.548.164Zm21.602-75.02-1.34-1.042a6.562 6.562 0 0 0-3.364-.938 6.664 6.664 0 0 0-6.432 4.883 7.279 7.279 0 0 0 .075 4.183c.119.313.238.626.342.938l.179.507a5.796 5.796 0 0 0 0 .878c.014.629.104 1.254.268 1.861.168.522.377 1.03.625 1.518.417.79.79 1.593 1.161 2.412.231.886.458 1.772.685 2.658.227.886.454 1.772.685 2.657a6.624 6.624 0 1 0 12.774-3.513l-.491-1.995a6.895 6.895 0 0 0-.194-2.576 24.155 24.155 0 0 0-1.489-4.466l-.73-1.876a33.258 33.258 0 0 0-1.041-3.112 6.595 6.595 0 0 0-1.713-2.977Z" fill="#F68A22"/></svg>