<svg width="293" height="322" viewBox="0 0 293 322" fill="none" xmlns="http://www.w3.org/2000/svg"><path d="M273.66 88.885c16.939 27.814 26.792 57.459 12.378 88.71-53.48 115.285-209.2 136.642-272.098 18.409-15.946-30.012-20.194-64.299-2.193-94.084 18-29.785 48.257-57.337 75.71-78.101C114.911 3.055 146.264-6.054 179.48 4.276c40.406 12.616 72.908 49.66 94.181 84.61Z" fill="#EF8683"/><path fill-rule="evenodd" clip-rule="evenodd" d="M200.984 230.734a23.07 23.07 0 0 0-1.057-2.203 5.148 5.148 0 0 0-4.466-2.531c-.448 0-.894.06-1.325.179a5.183 5.183 0 0 0-3.767 4.943 19.746 19.746 0 0 0 1.102 5.374 20.208 20.208 0 0 0 1.712 4.824 5.499 5.499 0 0 0 2.605 2.233l.075.134c.038.079.075.159.111.238.108.232.213.459.335.67.4.638.853 1.241 1.355 1.801a5.254 5.254 0 0 0 6.357.819 5.34 5.34 0 0 0 2.427-3.141 5.576 5.576 0 0 0 0-2.799 19.936 19.936 0 0 0-1.265-3.752l-1.37-3.394a5.23 5.23 0 0 0-1.37-2.352l-1.072-.834-.387-.209Zm30.863 16.749c-.581-1.191-1.221-2.337-1.876-3.483a5.354 5.354 0 0 0-4.705-2.635 5.81 5.81 0 0 0-1.816.297 5.52 5.52 0 0 0-2.174.715 5.33 5.33 0 0 0-1.98 1.95l-.55 1.295a6.475 6.475 0 0 0 0 3.112c.204.584.443 1.156.714 1.712.073.145.131.277.191.411.063.141.127.285.211.453.164.327.313.67.462 1.012a18.015 18.015 0 0 0 2.039 4.035 13.435 13.435 0 0 0 1.891 2.218 6.105 6.105 0 0 0 5.643 1.489 5.512 5.512 0 0 0 3.93-3.99 8.307 8.307 0 0 0-.119-3.871 21.788 21.788 0 0 0-1.861-4.72Zm-5.39 28.168.344 1.308c.436 1.658.869 3.309 1.294 4.96v.119l.134.238c.268.432.506.879.729 1.325.343.685.641 1.4.923 2.114a6.951 6.951 0 0 1 .283 4.467 5.283 5.283 0 0 1-1.488 2.411 5.568 5.568 0 0 1-9.931-1.741c-.793-2.732-1.498-5.49-2.202-8.244-.34-1.329-.679-2.656-1.028-3.979a5.7 5.7 0 0 1 3.945-6.938 5.393 5.393 0 0 1 1.489-.209 5.705 5.705 0 0 1 5.508 4.169Zm-27.051-5.27a4.371 4.371 0 0 0-.833-.625v.029a4.208 4.208 0 0 0-4.258 0 4.463 4.463 0 0 0-1.593 1.579l-.09.148-.61.477a5.669 5.669 0 0 0-1.727 2.888 7.792 7.792 0 0 0 .089 3.796c.087.447.196.89.328 1.325.242.78.52 1.547.802 2.324l.091.252a5.242 5.242 0 0 0 2.322 2.978 5.083 5.083 0 0 0 3.291.714c.455.125.927.186 1.399.179h.104a3.542 3.542 0 0 0 2.725.357 3.617 3.617 0 0 0 2.114-1.623 3.405 3.405 0 0 0 .357-2.739l-.134-.357a7.684 7.684 0 0 0-.625-4.139c-.447-1.072-.893-2.144-1.355-3.216l-.112-.255c-.246-.558-.495-1.123-.766-1.665a16.475 16.475 0 0 0-.334-.684l-.113-.225-.312-.565a3.67 3.67 0 0 0-.76-.953Zm-38.857.387a5.603 5.603 0 0 0-1.489.223 5.955 5.955 0 0 0-3.603 2.65 5.661 5.661 0 0 0-.595 4.541l.446 1.102c-.06.69 0 1.385.179 2.054.399 1.568.896 3.11 1.489 4.615a65.776 65.776 0 0 0 1.28 3.395v.134a5.65 5.65 0 0 0 1.489 2.471l1.131.864a5.573 5.573 0 0 0 7.214-1.393 5.563 5.563 0 0 0 1.079-2.419 5.756 5.756 0 0 0 .729-4.823 44.41 44.41 0 0 0-1.861-4.779v-.002h-.001c-.595-1.488-1.19-2.976-1.77-4.375a5.838 5.838 0 0 0-1.489-2.606l-1.206-.923a5.957 5.957 0 0 0-3.022-.729Zm40.346 34.495a4.84 4.84 0 0 0-2.233-2.784 5.014 5.014 0 0 0-2.561-.625c-.443 0-.884.06-1.31.178a4.983 4.983 0 0 0-2.508 1.664 4.98 4.98 0 0 0-1.095 2.803 6.028 6.028 0 0 0-.819 2.977l.223 1.608c.159.782.399 1.546.715 2.278.174.639.456 1.243.834 1.787l.193.55c.268.715.566 1.4.879 2.1a7.555 7.555 0 0 0 1.488 2.069 5.81 5.81 0 0 0 7.027.917 5.809 5.809 0 0 0 2.68-6.559 61.694 61.694 0 0 0-1.012-2.784 20.047 20.047 0 0 0-.342-1.013 24.147 24.147 0 0 0-.283-.817c-.11-.302-.219-.606-.313-.91-.06-.283-.119-.551-.194-.819a5.826 5.826 0 0 0-1.235-2.307l-.134-.313Zm-54.549-66.98a6.222 6.222 0 0 1 2.724 1.593 11.816 11.816 0 0 1 2.07 2.62c.276.418.529.85.759 1.295.414.799.763 1.631 1.042 2.486.287 1.005.457 2.039.506 3.082a6.653 6.653 0 0 1-.833 4.005 6.387 6.387 0 0 1-2.635 3.067 6.288 6.288 0 0 1-7.296-.744 5.655 5.655 0 0 1-1.354-1.251 22.122 22.122 0 0 1-1.623-2.293 11.471 11.471 0 0 1-1.295-3.081 6.749 6.749 0 0 1 0-3.529l.104-.327a5.962 5.962 0 0 1 .149-2.576c.103-.261.21-.518.319-.779.096-.231.193-.466.291-.71a6.085 6.085 0 0 1 2.174-2.173l.119-.09a6.09 6.09 0 0 1 3.111-.819l1.668.224Zm-16.256 25.412a4.797 4.797 0 0 0-1.416-1.264 4.832 4.832 0 0 0-2.516-.7 5.089 5.089 0 0 0-2.501.715l-.998.774a4.945 4.945 0 0 0-1.265 2.263l-.224.714a6.183 6.183 0 0 0-2.337 2.129 6.314 6.314 0 0 0 0 6.268c.511.913.916 1.825 1.32 2.738.256.576.512 1.152.794 1.728.2.434.423.857.67 1.266.31.529.669 1.027 1.072 1.489.38.541.893.977 1.489 1.265a5.403 5.403 0 0 0 3.216.983c.595-.06 1.205-.134 1.801-.238a5.876 5.876 0 0 0 2.59-1.489 6.608 6.608 0 0 0 1.772-3.112 8.604 8.604 0 0 0 0-3.752l-.119-.595a94.004 94.004 0 0 0-1.161-4.69c-.101-.37-.199-.746-.299-1.124-.327-1.246-.66-2.512-1.071-3.655a4.798 4.798 0 0 0-.817-1.713Zm21.124 40.943a6.997 6.997 0 0 1 4.154 3.245c.49.827.899 1.7 1.221 2.606.163.351.283.721.357 1.101.119.73.238 1.489.312 2.204a5.699 5.699 0 0 1-.967 3.796 5.955 5.955 0 0 1-11.226-2.769c-.104-.417-.208-.834-.297-1.25-.09-.417-.164-.715-.254-1.057l-.119-.522a6.724 6.724 0 0 1-.208-1.741 5.242 5.242 0 0 1 .193-1.727 5.525 5.525 0 0 1 2.546-3.32 5.256 5.256 0 0 1 2.74-.73c.52.005 1.038.059 1.548.164Zm21.603-75.02-1.34-1.042a6.564 6.564 0 0 0-3.365-.938 6.664 6.664 0 0 0-6.432 4.883 7.276 7.276 0 0 0 .075 4.183c.119.313.238.626.342.938l.179.507a5.848 5.848 0 0 0 0 .878c.014.629.104 1.254.268 1.861.168.522.377 1.03.625 1.518.417.79.789 1.593 1.161 2.412.231.886.458 1.772.685 2.658.227.886.454 1.772.685 2.657a6.635 6.635 0 0 0 3.093 4.085 6.617 6.617 0 0 0 5.082.658 6.64 6.64 0 0 0 4.03-3.164 6.637 6.637 0 0 0 .569-5.092l-.491-1.995a6.908 6.908 0 0 0-.194-2.576 24.141 24.141 0 0 0-1.489-4.466l-.729-1.876a33.315 33.315 0 0 0-1.042-3.112 6.604 6.604 0 0 0-1.712-2.977Z" fill="#136E65"/></svg>