<svg width="275" height="293" viewBox="0 0 275 293" fill="none" xmlns="http://www.w3.org/2000/svg"><path d="M88.885 273.66c27.814 16.939 57.459 26.792 88.71 12.378 115.285-53.48 136.642-209.2 18.409-272.098-30.012-15.946-64.299-20.194-94.084-2.193-29.785 18-57.337 48.257-78.101 75.71C3.055 114.911-6.054 146.264 4.276 179.48c12.616 40.406 49.66 72.908 84.61 94.181Z" fill="#EF8683"/><path fill-rule="evenodd" clip-rule="evenodd" d="M27.734 251.984a23.041 23.041 0 0 1-2.203-1.057 5.154 5.154 0 0 1-2.352-5.791 5.182 5.182 0 0 1 4.943-3.767c1.834.116 3.643.486 5.374 1.102 1.674.364 3.295.939 4.824 1.712a5.497 5.497 0 0 1 2.233 2.605l.134.075.238.111c.232.108.46.213.67.335.638.4 1.24.853 1.802 1.355a5.257 5.257 0 0 1 .818 6.357 5.343 5.343 0 0 1-3.141 2.427 5.576 5.576 0 0 1-2.799 0 19.928 19.928 0 0 1-3.752-1.265l-3.394-1.37a5.235 5.235 0 0 1-2.352-1.37l-.834-1.072-.209-.387Zm16.75 30.863c-1.192-.581-2.338-1.221-3.484-1.876a5.353 5.353 0 0 1-2.636-4.705c.003-.617.103-1.23.298-1.816a5.51 5.51 0 0 1 .715-2.174 5.336 5.336 0 0 1 1.95-1.98l1.295-.55a6.473 6.473 0 0 1 3.112 0c.584.204 1.156.443 1.712.714.145.073.277.131.41.191.142.063.286.127.454.211.327.164.67.313 1.012.462a18.006 18.006 0 0 1 4.035 2.039c.806.548 1.55 1.182 2.218 1.891a6.1 6.1 0 0 1 1.489 5.643 5.513 5.513 0 0 1-3.99 3.93 8.306 8.306 0 0 1-3.871-.119 21.762 21.762 0 0 1-4.72-1.861Zm28.167-5.39 1.308.344c1.659.436 3.31.869 4.96 1.294h.119l.238.134c.432.268.879.506 1.325.729.685.343 1.4.641 2.114.923a6.95 6.95 0 0 0 4.467.283 5.285 5.285 0 0 0 2.411-1.488 5.567 5.567 0 0 0 .913-8.31 5.564 5.564 0 0 0-2.654-1.621c-2.732-.793-5.49-1.498-8.244-2.202-1.329-.34-2.656-.679-3.98-1.028a5.704 5.704 0 0 0-6.937 3.945c-.139.484-.21.985-.209 1.489a5.7 5.7 0 0 0 4.169 5.508Zm-5.27-27.051a4.39 4.39 0 0 1-.625-.833h.03a4.203 4.203 0 0 1 0-4.258 4.462 4.462 0 0 1 1.578-1.593l.148-.09.477-.61a5.668 5.668 0 0 1 2.888-1.727 7.794 7.794 0 0 1 3.796.089c.448.087.89.196 1.326.328.779.242 1.546.52 2.323.802l.252.091a5.24 5.24 0 0 1 2.978 2.322 5.08 5.08 0 0 1 .714 3.291c.125.455.186.927.179 1.399v.104a3.548 3.548 0 0 1 .357 2.725 3.62 3.62 0 0 1-1.623 2.114 3.406 3.406 0 0 1-2.739.357l-.357-.134a7.684 7.684 0 0 1-4.14-.625c-1.071-.447-2.143-.893-3.215-1.355l-.255-.112a38.316 38.316 0 0 1-1.665-.766 16.524 16.524 0 0 1-.684-.334l-.224-.113-.566-.312a3.68 3.68 0 0 1-.953-.76Zm.387-38.857a5.583 5.583 0 0 1 .223-1.489 5.954 5.954 0 0 1 2.65-3.603 5.663 5.663 0 0 1 4.54-.595l1.103.446c.69-.06 1.385 0 2.054.179a38.5 38.5 0 0 1 4.615 1.489c1.147.402 2.278.818 3.395 1.28h.134a5.65 5.65 0 0 1 2.471 1.489l.864 1.131a5.57 5.57 0 0 1-3.811 8.293 5.76 5.76 0 0 1-4.824.729 44.467 44.467 0 0 1-4.78-1.861l-.001-.001c-1.488-.595-2.976-1.19-4.375-1.77a5.838 5.838 0 0 1-2.606-1.489l-.923-1.206a5.955 5.955 0 0 1-.73-3.022Zm34.495 40.346a4.84 4.84 0 0 1-2.784-2.233 5.02 5.02 0 0 1-.625-2.561c0-.443.06-.884.178-1.31a4.983 4.983 0 0 1 4.467-3.603 6.028 6.028 0 0 1 2.977-.819l1.608.223c.782.159 1.546.399 2.278.715a5.78 5.78 0 0 1 1.787.834l.55.193c.715.268 1.4.566 2.1.879a7.555 7.555 0 0 1 2.069 1.488 5.81 5.81 0 0 1 .917 7.027 5.809 5.809 0 0 1-6.559 2.68 61.694 61.694 0 0 1-2.784-1.012 20.047 20.047 0 0 1-1.013-.342 24.147 24.147 0 0 1-.817-.283c-.302-.11-.606-.219-.91-.313-.283-.06-.551-.119-.819-.194a5.826 5.826 0 0 1-2.307-1.235l-.313-.134Zm-66.98-54.549a6.232 6.232 0 0 0 1.593 2.724 11.82 11.82 0 0 0 2.62 2.07c.418.276.85.529 1.295.759.8.414 1.63.763 2.487 1.042 1.004.287 2.038.457 3.081.506 1.39.15 2.79-.142 4.005-.833a6.388 6.388 0 0 0 3.067-2.635 6.284 6.284 0 0 0-.744-7.296 5.639 5.639 0 0 0-1.251-1.354 22.107 22.107 0 0 0-2.293-1.623 11.47 11.47 0 0 0-3.081-1.295 6.747 6.747 0 0 0-3.529 0l-.327.104a5.961 5.961 0 0 0-2.576.149c-.261.103-.518.21-.78.319-.23.096-.465.193-.709.291a6.09 6.09 0 0 0-2.173 2.174l-.09.119a6.089 6.089 0 0 0-.819 3.111l.224 1.668Zm25.412-16.256a4.806 4.806 0 0 1-1.264-1.416 4.838 4.838 0 0 1-.7-2.516 5.086 5.086 0 0 1 .715-2.501l.774-.998a4.949 4.949 0 0 1 2.263-1.265l.714-.224a6.18 6.18 0 0 1 2.13-2.337 6.31 6.31 0 0 1 6.267 0c.913.511 1.825.916 2.738 1.32.576.256 1.152.512 1.728.794.434.2.857.423 1.266.67a9.81 9.81 0 0 1 1.489 1.072c.541.38.977.893 1.265 1.489a5.404 5.404 0 0 1 .983 3.216c-.06.595-.134 1.205-.239 1.801a5.864 5.864 0 0 1-1.488 2.59 6.607 6.607 0 0 1-3.112 1.772 8.603 8.603 0 0 1-3.752 0l-.595-.119a93.962 93.962 0 0 1-4.69-1.161c-.37-.101-.746-.199-1.123-.299-1.247-.327-2.513-.66-3.656-1.071a4.804 4.804 0 0 1-1.713-.817Zm40.943 21.124a6.997 6.997 0 0 0 3.245 4.154c.827.49 1.7.899 2.606 1.221.351.163.721.283 1.101.357.73.119 1.489.238 2.204.312a5.699 5.699 0 0 0 3.796-.967 5.955 5.955 0 0 0-2.769-11.226c-.417-.104-.834-.208-1.25-.297-.417-.09-.715-.164-1.057-.254l-.522-.119a6.724 6.724 0 0 0-1.741-.208 5.242 5.242 0 0 0-1.727.193 5.525 5.525 0 0 0-3.32 2.546 5.256 5.256 0 0 0-.73 2.74c.005.52.059 1.038.164 1.548Zm-75.02 21.603-1.042-1.34a6.568 6.568 0 0 1-.938-3.365 6.67 6.67 0 0 1 4.883-6.432 7.278 7.278 0 0 1 4.183.075c.313.119.626.238.938.342l.506.179c.293-.022.586-.022.879 0a7.804 7.804 0 0 1 1.86.268c.523.168 1.03.377 1.52.625.789.417 1.593.789 2.411 1.161.886.231 1.772.458 2.659.685.885.227 1.77.454 2.656.685a6.636 6.636 0 0 1 4.085 3.093 6.624 6.624 0 0 1-4.995 9.909c-.874.097-1.76.02-2.603-.228l-1.995-.491a6.905 6.905 0 0 1-2.576-.194 24.147 24.147 0 0 1-4.466-1.489l-1.876-.729a33.228 33.228 0 0 1-3.112-1.042 6.604 6.604 0 0 1-2.977-1.712Z" fill="#136E65"/></svg>