<svg width="329" height="1197" xmlns="http://www.w3.org/2000/svg"><path d="M230.026 1172.05a7.227 7.227 0 0 1 4.069-.16 7.257 7.257 0 0 1 3.517 2.05 29.625 29.625 0 0 1 5.319 7.58c1.749 3.24 3.079 6.96 1.581 10.54a7.26 7.26 0 0 1-3.533 4.09 7.293 7.293 0 0 1-5.383.53c-4.073-1.22-6.144-4.52-7.67-8.21a30.98 30.98 0 0 1-2.589-10.14h-.07c-.126-2.84 2.295-5.37 4.759-6.28Zm-23.432-61.92c-11.211-5.32 6.089-20.82 10.204-9.21l.406 1.13c2.211 6.42-3.388 11.51-9.532 8.6l-1.078-.5Zm-53.888-49.36c4.115-.05 7.419 2.92 9.238 6.39 2.016 3.89 2.212 10.01-1.805 12.81a7.678 7.678 0 0 1-2.873 1.52 7.562 7.562 0 0 1-3.244.17 6.623 6.623 0 0 1-3.063-1.25 6.733 6.733 0 0 1-2.102-2.55 10.289 10.289 0 0 1-.896-4.06l.025-.26c-.022-.61-.003-1.22.059-1.83l.001-.05-.057-.08a4.315 4.315 0 0 1-.615-.95l-.476-.89-.07.04c-2.52-4.28 1.763-8.95 5.878-9.01Zm69.453-7.84a6.475 6.475 0 0 1 4.065.52 6.492 6.492 0 0 1 2.934 2.86 20.718 20.718 0 0 1 2.141 5.59 11.55 11.55 0 0 1-1.399 7.77c-1.918 3.86-7.517 3.58-10.106.85-3.191-3.3-3.401-7.36-2.688-11.69l-.014.01c.127-1.39.682-2.7 1.59-3.76a6.736 6.736 0 0 1 3.477-2.15Zm40.647-12.71c4.165-1.36 7.407 1.21 8.699 4.65 1.491 2.75 1.317 6.23-1.771 9.02-.319.29-.657.54-1.008.76-2.788 1.91-5.776 1.62-8.076.09-3.299-1.63-5.542-5.13-3.807-9.09l.014-.08.126-.61a6.673 6.673 0 0 1 1.93-3.09 6.624 6.624 0 0 1 3.263-1.61h.446c.061-.02.123-.03.184-.04Zm-145.08-9.02c1.455-.02 2.864.5 3.963 1.45a6.1 6.1 0 0 1 1.218 7.78c-.317.59-.6 1.2-.883 1.8-.392.85-.785 1.69-1.273 2.5a10.528 10.528 0 0 1-5.976 4.62c-.91.2-1.856.18-2.756-.07a5.745 5.745 0 0 1-2.409-1.33 6.257 6.257 0 0 1-2.198-4.94c-.158-3.71 2.764-6.65 5.287-9.2.378-.38.747-.75 1.096-1.12v.05a5.904 5.904 0 0 1 3.931-1.54Zm50.085-55.17a6.736 6.736 0 0 1 3.694.994 21.579 21.579 0 0 1 7.726 8.656 8.023 8.023 0 0 1-2.695 10.123 8.036 8.036 0 0 1-10.42-1.159 21.554 21.554 0 0 1-4.759-10.614h.014a6.846 6.846 0 0 1 2.799-6.824 6.742 6.742 0 0 1 3.641-1.176Zm39.861-14.919c.516.283 1.053.571 1.602.866 3.548 1.905 7.619 4.091 10.043 7.021a7.568 7.568 0 0 1 .112 9.914c-2.575 3.049-6.41 3.286-9.797 1.538-1.685-.851-3.101-2.287-4.472-3.677-.429-.435-.854-.866-1.281-1.273a65.943 65.943 0 0 1-4.451-4.642v.042c-5.039-5.678 2.043-13.173 8.244-9.789Zm-103.409-46.216c9 2.462 9.728 15.662 1.54 19.577a8.167 8.167 0 0 1-10.327-2.712 8.148 8.148 0 0 1-.606-8.171c-.35-1.92.085-4.05.995-5.631a7.517 7.517 0 0 1 8.398-3.063Zm45.551-14.038a6.84 6.84 0 0 1 4.614.852 63.724 63.724 0 0 1 7.124 4.754c.647.497 1.33.981 2.02 1.469v.001l.001.001c1.951 1.382 3.949 2.798 5.314 4.626 5.389 7.314-2.086 16.431-10.246 12.11-2.149-1.138-3.919-2.991-5.643-4.796v-.001h-.001a81.46 81.46 0 0 0-1.494-1.538 61.811 61.811 0 0 1-5.767-6.348 6.822 6.822 0 0 1 4.078-11.13ZM96.677 921.16c-1.102.946-1.223 1.228-1.065 1.195.313-.43.669-.83 1.065-1.195Zm-45.018-45.246a6.872 6.872 0 0 1 4.138 2.46 6.86 6.86 0 0 1 1.506 4.569 95.11 95.11 0 0 0-.064 2.551v.002c-.061 3.813-.126 7.827-2.133 11.053-3.514 5.649-13.031 4.125-14.193-2.587-.66-3.863.767-7.582 2.152-11.19.289-.754.577-1.504.843-2.248a6.866 6.866 0 0 1 3.012-3.753 6.88 6.88 0 0 1 4.739-.857Zm145.479-19.075a5.29 5.29 0 0 1 2.682.094 43.706 43.706 0 0 1 7.489 3.734c4.409 2.573 4.675 9.061 1.035 12.362-3.639 3.3-10.105 2.363-12.219-2.294a44.225 44.225 0 0 1-3.009-7.803l-.014.056a5.273 5.273 0 0 1 1.653-4.917 5.284 5.284 0 0 1 2.383-1.232Zm43.553-46.988c1.918-2.07 5.879-2.182 8.118-.671a10.47 10.47 0 0 1 4.074 12.836 51.763 51.763 0 0 0-2.548 8.195h.07c-.644 3.216-5.529 3.328-6.788.531a52.857 52.857 0 0 0-4.199-7.131 11.32 11.32 0 0 1-2.086-7.398 10.767 10.767 0 0 1 3.359-6.362Zm-194.767 2.013a44.573 44.573 0 0 1 6.998 5.79 7.541 7.541 0 0 1 2.308 5.561 7.556 7.556 0 0 1-2.486 5.483 7.574 7.574 0 0 1-11.019-.906 43.928 43.928 0 0 1-5.053-7.523l-.07-.014c-3.275-5.454 4.213-12.152 9.322-8.391Zm130.787-19.031c-8.189-9.076 5.878-21.773 14.081-12.711 8.202 9.061-5.893 21.758-14.081 12.711Zm60.439-43.685a8.021 8.021 0 0 1 4.146 3.033 8.006 8.006 0 0 1 1.453 4.924 16.69 16.69 0 0 1-1.68 5.789v-.056c-1.778 3.692-7.04 4.531-10.386 2.964a8.275 8.275 0 0 1-4.381-9.788 11.19 11.19 0 0 1 1.834-3.552 8.29 8.29 0 0 1 9.014-3.314Zm-143.441 3.216c-6.97-7.719 5.011-18.514 11.982-10.809 6.97 7.705-4.983 18.5-11.982 10.809Zm-76.464-18.095c3.142 2.8 5.087 7.055 6.86 10.931l.002.003.002.005.004.007c.199.436.396.867.592 1.29a4.63 4.63 0 0 1-1.081 5.411 4.641 4.641 0 0 1-5.497.532c-.394-.234-.795-.47-1.2-.708-3.681-2.164-7.714-4.535-10.236-7.962-2.281-3.118-2.519-7.257.518-10.026s7.166-2.042 10.036.517Zm158.892-23.856c4.871.252 9.14 5.552 7.208 10.404a26.552 26.552 0 0 1-2.393 4.922 38.372 38.372 0 0 0-2.338 3.259l-.014.056c-1.399 2.587-5.906 2.433-6.998-.364a35.915 35.915 0 0 0-1.89-3.524 27.308 27.308 0 0 1-1.819-5.132c-1.316-5.034 3.373-9.872 8.244-9.621Zm-64.887-55.42.306.004a7.688 7.688 0 0 1 3.569 1.146c3.569 2.028 4.157 6.824 2.253 10.124a24.352 24.352 0 0 1-7.138 8.39 3.807 3.807 0 0 1-5.095-1.678c-1.484-3.37-1.484-7.369-1.302-10.991a7.474 7.474 0 0 1 7.713-6.991ZM5.264 635.503a7.987 7.987 0 0 1 6.941.728c5.109 3.51 6.551 10.543 6.341 16.374-.224 6.265-8.482 8.712-12.443 4.419-3.961-4.293-7.279-10.557-5.697-16.514a7.958 7.958 0 0 1 1.852-3.062 7.962 7.962 0 0 1 3.006-1.945Zm93.803-172.288a7.254 7.254 0 0 1 4.069.165c2.464.909 4.885 3.44 4.759 6.279h-.07a30.95 30.95 0 0 1-2.589 10.138c-1.526 3.691-3.597 6.992-7.67 8.208a7.284 7.284 0 0 1-5.382-.525 7.273 7.273 0 0 1-3.534-4.089c-1.498-3.58-.168-7.3 1.581-10.544a29.689 29.689 0 0 1 5.319-7.579 7.247 7.247 0 0 1 3.517-2.053Zm77.246-37.443c4.115.056 8.398 4.727 5.879 9.006l-.07-.042-.476.894a4.134 4.134 0 0 1-.616.951l-.057.082a.66.66 0 0 1 .001.044c.062.611.082 1.225.059 1.838l.012.116.006.059.007.085a10.261 10.261 0 0 1-.896 4.055 6.762 6.762 0 0 1-5.164 3.804 7.61 7.61 0 0 1-6.117-1.692c-4.017-2.797-3.821-8.922-1.806-12.809 1.82-3.468 5.123-6.447 9.238-6.391Zm4.633 10.666c.007.033.012.068.017.103l.011-.03-.028-.073ZM57.514 409.871c1.293-3.44 4.535-6.012 8.7-4.655l.183.042h.446a6.673 6.673 0 0 1 5.193 4.699l.126.615.014.073c1.735 3.97-.508 7.461-3.806 9.097-2.301 1.532-5.288 1.82-8.076-.093a6.992 6.992 0 0 1-1.009-.757c-3.088-2.791-3.262-6.27-1.771-9.021Zm153.78-13.675a5.955 5.955 0 0 1 3.931 1.539v-.042c.348.365.718.737 1.096 1.119 2.523 2.544 5.445 5.492 5.286 9.201a6.257 6.257 0 0 1-2.197 4.936 5.755 5.755 0 0 1-5.165 1.398 10.537 10.537 0 0 1-5.977-4.614c-.487-.812-.881-1.657-1.273-2.5-.283-.608-.565-1.215-.882-1.807a6.092 6.092 0 0 1 1.218-7.775 5.952 5.952 0 0 1 3.963-1.455Zm-50.085-55.166a6.738 6.738 0 0 1 3.64 1.176 6.848 6.848 0 0 1 2.8 6.824h.014a21.563 21.563 0 0 1-4.759 10.614 8.04 8.04 0 0 1-10.421 1.159 8.028 8.028 0 0 1-2.695-10.123 21.574 21.574 0 0 1 7.727-8.656 6.734 6.734 0 0 1 3.694-.994Zm74.862-6.989a7.739 7.739 0 0 1 3.088 1.704 7.708 7.708 0 0 1 2.518 6.386 7.72 7.72 0 0 1-3.568 5.864 9.08 9.08 0 0 1-5.123 1.832 7.099 7.099 0 0 1-4.892-1.826 7.087 7.087 0 0 1-2.316-4.676 8.925 8.925 0 0 1 1.288-5.3 7.729 7.729 0 0 1 9.005-3.984Zm-116.723-7.93c6.2-3.384 13.283 4.111 8.244 9.789v-.042a66.401 66.401 0 0 1-4.451 4.642c-.428.407-.853.838-1.282 1.273-1.371 1.39-2.787 2.826-4.471 3.677-3.387 1.748-7.222 1.511-9.798-1.538a7.578 7.578 0 0 1 .112-9.914c2.424-2.93 6.496-5.116 10.043-7.02.55-.295 1.086-.584 1.603-.867Zm110.112-46.067a7.509 7.509 0 0 1 3.694 2.914c.911 1.581 1.345 3.711.996 5.631a8.143 8.143 0 0 1-.607 8.171 8.16 8.16 0 0 1-10.327 2.712c-8.188-3.915-7.46-17.115 1.54-19.577a7.517 7.517 0 0 1 4.704.149Zm-50.254-14.187a6.835 6.835 0 0 1 4.075 2.324 6.82 6.82 0 0 1 .003 8.806 61.926 61.926 0 0 1-5.767 6.348c-.5.496-.995 1.015-1.494 1.537v.001h-.001c-1.725 1.805-3.495 3.658-5.644 4.797-8.16 4.321-15.634-4.796-10.245-12.11 1.364-1.828 3.363-3.244 5.312-4.626h.001l.002-.001v-.001a64.967 64.967 0 0 0 2.019-1.469 63.736 63.736 0 0 1 7.125-4.754 6.839 6.839 0 0 1 4.614-.852Zm53.136 20.303c.396.365.753.765 1.066 1.195.158.033.037-.249-1.066-1.195Zm49.757-44.389a6.866 6.866 0 0 1 3.012 3.753c.267.745.554 1.494.844 2.248l.296.775c1.281 3.365 2.469 6.828 1.856 10.415-1.162 6.712-10.68 8.236-14.193 2.587-2.008-3.225-2.072-7.24-2.134-11.053v-.002c-.014-.865-.027-1.719-.064-2.551a6.868 6.868 0 0 1 5.645-7.029 6.876 6.876 0 0 1 4.738.857Zm-150.218-19.932a5.292 5.292 0 0 1 3.856 3.474c.289.862.352 1.783.181 2.675l-.014-.056a44.303 44.303 0 0 1-3.009 7.803c-2.114 4.657-8.581 5.594-12.22 2.294-3.639-3.301-3.373-9.789 1.036-12.362a43.62 43.62 0 0 1 7.488-3.733 5.291 5.291 0 0 1 2.682-.095Zm75.015-43.968c1.47-2.083 5.375-1.636 6.509.546l-.028-.056c.188.362.428.71.694 1.096.269.389.564.817.859 1.337a13.494 13.494 0 0 1 1.498 4.992c.704 3.07.47 6.28-.672 9.215-2.491 5.887-11.981 4.95-13.619-1.077a15.762 15.762 0 0 1 .644-9.201 13.385 13.385 0 0 1 2.058-4.517c.435-.496.902-.963 1.399-1.398.156-.155.272-.269.357-.351-.087.05-.091-.026.301-.586ZM80.21 174.179c2.24-1.51 6.201-1.398 8.118.672a10.763 10.763 0 0 1 3.36 6.362 11.32 11.32 0 0 1-2.086 7.398 52.857 52.857 0 0 0-4.199 7.131c-1.26 2.797-6.145 2.685-6.789-.531h.07a51.656 51.656 0 0 0-2.547-8.195 10.464 10.464 0 0 1-.302-7.159 10.48 10.48 0 0 1 4.375-5.678Zm212.208 11.075-.07.014a43.994 43.994 0 0 1-5.053 7.524 7.586 7.586 0 0 1-5.313 2.84 7.589 7.589 0 0 1-5.707-1.934 7.553 7.553 0 0 1-2.486-5.484 7.55 7.55 0 0 1 2.308-5.56 44.48 44.48 0 0 1 6.999-5.79c5.109-3.761 12.597 2.937 9.322 8.39Zm-140.109-27.421c-8.188 9.047-22.283-3.65-14.081-12.711 8.202-9.062 22.269 3.635 14.081 12.711Zm-55.403-43.466a8.287 8.287 0 0 1 3.978 3.095 11.197 11.197 0 0 1 1.833 3.552 8.278 8.278 0 0 1-4.381 9.788c-3.345 1.567-8.608.728-10.385-2.964v.056a16.646 16.646 0 0 1-1.68-5.789 8.013 8.013 0 0 1 5.599-7.957 8.293 8.293 0 0 1 5.036.219Zm138.404 2.997c-6.998 7.691-18.952-3.104-11.981-10.809 6.97-7.705 18.952 3.09 11.981 10.809Zm86.5-18.612c3.038 2.769 2.8 6.908.518 10.026-2.522 3.427-6.555 5.798-10.236 7.962-.405.238-.805.474-1.199.708a4.634 4.634 0 0 1-6.933-3.059 4.623 4.623 0 0 1 .354-2.884c.197-.423.394-.854.593-1.29l.004-.007.002-.005.001-.003c1.773-3.876 3.719-8.131 6.861-10.93 2.869-2.56 6.998-3.287 10.035-.518ZM161.127 85.034a27.312 27.312 0 0 1-1.82 5.132 36.153 36.153 0 0 0-1.889 3.524c-1.092 2.797-5.599 2.95-6.999.364l-.014-.056a38.508 38.508 0 0 0-2.337-3.258 26.65 26.65 0 0 1-2.394-4.923c-1.931-4.852 2.338-10.152 7.209-10.403 4.871-.252 9.56 4.586 8.244 9.62Zm56.337-65.037a7.476 7.476 0 0 1 7.712 6.991c.182 3.622.182 7.621-1.302 10.992a3.805 3.805 0 0 1-5.094 1.678 24.357 24.357 0 0 1-7.139-8.39c-1.903-3.3-1.316-8.097 2.254-10.125a7.687 7.687 0 0 1 3.569-1.146ZM320.201.068a7.987 7.987 0 0 1 6.561 2.38 7.975 7.975 0 0 1 1.852 3.062c1.581 5.957-1.736 12.221-5.697 16.514-3.961 4.293-12.219 1.846-12.443-4.419-.21-5.83 1.231-12.864 6.34-16.374a7.985 7.985 0 0 1 3.387-1.163Z" fill="#00A5CE" fill-rule="evenodd"/></svg>