<svg width="116" height="96" fill="none" xmlns="http://www.w3.org/2000/svg"><path fill-rule="evenodd" clip-rule="evenodd" d="M33.016 4.734c.313-.752.666-1.488 1.057-2.203a5.151 5.151 0 0 1 4.466-2.53c.448-.001.893.059 1.325.178a5.181 5.181 0 0 1 3.767 4.943 19.74 19.74 0 0 1-1.102 5.374 20.218 20.218 0 0 1-1.712 4.824 5.494 5.494 0 0 1-2.605 2.233l-.075.134-.111.238c-.108.232-.213.46-.336.67-.4.638-.852 1.24-1.354 1.802a5.255 5.255 0 0 1-6.357.818 5.345 5.345 0 0 1-2.427-3.141 5.569 5.569 0 0 1 0-2.799c.296-1.29.72-2.546 1.265-3.752l1.37-3.394a5.241 5.241 0 0 1 1.37-2.352l1.072-.834.387-.209ZM2.153 21.484c.58-1.192 1.221-2.338 1.876-3.484a5.36 5.36 0 0 1 4.705-2.636c.617.003 1.23.103 1.816.298a5.509 5.509 0 0 1 2.174.715 5.33 5.33 0 0 1 1.98 1.95l.55 1.295a6.476 6.476 0 0 1 0 3.112 15.911 15.911 0 0 1-.714 1.712 9.742 9.742 0 0 0-.191.41c-.063.142-.127.286-.211.454-.164.327-.313.67-.462 1.012a18.016 18.016 0 0 1-2.04 4.035 13.4 13.4 0 0 1-1.89 2.218 6.104 6.104 0 0 1-5.643 1.489 5.51 5.51 0 0 1-3.93-3.99 8.307 8.307 0 0 1 .12-3.871 21.766 21.766 0 0 1 1.86-4.72Zm5.39 28.167-.344 1.308c-.436 1.658-.87 3.31-1.294 4.96v.119l-.134.238c-.268.432-.506.878-.73 1.325-.342.685-.64 1.4-.922 2.114a6.953 6.953 0 0 0-.283 4.467 5.285 5.285 0 0 0 1.488 2.411 5.568 5.568 0 0 0 9.93-1.741c.794-2.732 1.5-5.49 2.203-8.244.34-1.329.68-2.656 1.028-3.98a5.702 5.702 0 0 0-3.945-6.937 5.374 5.374 0 0 0-1.489-.209 5.702 5.702 0 0 0-5.508 4.169Zm27.05-5.27c.253-.241.533-.451.834-.625v.03a4.199 4.199 0 0 1 4.258 0 4.466 4.466 0 0 1 1.593 1.578l.09.148.61.477a5.672 5.672 0 0 1 1.727 2.888 7.802 7.802 0 0 1-.09 3.796c-.086.447-.195.89-.327 1.325-.242.78-.52 1.547-.802 2.324l-.091.252a5.24 5.24 0 0 1-2.323 2.978 5.076 5.076 0 0 1-3.29.714 5.019 5.019 0 0 1-1.4.179h-.103a3.541 3.541 0 0 1-2.725.357 3.617 3.617 0 0 1-2.114-1.623 3.408 3.408 0 0 1-.357-2.739l.134-.357a7.683 7.683 0 0 1 .625-4.14c.447-1.071.893-2.143 1.355-3.215l.112-.255c.246-.558.495-1.123.766-1.665.1-.224.218-.456.334-.684l.113-.224.313-.566c.198-.358.454-.68.759-.953Zm38.858.387a5.58 5.58 0 0 1 1.49.223 5.955 5.955 0 0 1 3.602 2.65 5.657 5.657 0 0 1 .595 4.541l-.446 1.102c.06.69 0 1.385-.179 2.054-.399 1.568-.896 3.11-1.489 4.615a66.236 66.236 0 0 1-1.28 3.395v.134a5.657 5.657 0 0 1-1.489 2.471l-1.131.864a5.57 5.57 0 0 1-8.293-3.811 5.763 5.763 0 0 1-.73-4.824 44.677 44.677 0 0 1 1.862-4.78V53.4c.596-1.488 1.191-2.976 1.771-4.375a5.835 5.835 0 0 1 1.49-2.606l1.205-.923a5.956 5.956 0 0 1 3.022-.73ZM33.105 79.263a4.838 4.838 0 0 1 2.233-2.784 5.017 5.017 0 0 1 2.561-.625c.443 0 .884.06 1.31.178a4.987 4.987 0 0 1 3.603 4.467c.527.904.81 1.93.819 2.977l-.223 1.608a11.54 11.54 0 0 1-.715 2.278 5.777 5.777 0 0 1-.834 1.787l-.193.55c-.268.715-.566 1.4-.879 2.1a7.563 7.563 0 0 1-1.489 2.07 5.806 5.806 0 0 1-9.706-5.643c.312-.938.655-1.861 1.012-2.784.104-.343.223-.685.343-1.013.085-.27.183-.542.282-.817.11-.302.22-.606.313-.91.06-.283.12-.55.193-.819a5.836 5.836 0 0 1 1.236-2.307l.134-.313Zm54.55-66.98a6.239 6.239 0 0 0-2.725 1.593 11.82 11.82 0 0 0-2.07 2.62c-.276.418-.53.85-.76 1.295-.413.8-.762 1.63-1.041 2.486a13.588 13.588 0 0 0-.506 3.082c-.15 1.39.142 2.79.833 4.005a6.387 6.387 0 0 0 2.635 3.067 6.282 6.282 0 0 0 7.296-.744 5.64 5.64 0 0 0 1.354-1.251 22.03 22.03 0 0 0 1.623-2.293 11.476 11.476 0 0 0 1.295-3.082 6.76 6.76 0 0 0 0-3.528l-.104-.327c.14-.86.088-1.739-.149-2.576-.103-.261-.21-.518-.319-.78-.096-.23-.194-.465-.291-.709a6.09 6.09 0 0 0-2.174-2.174l-.119-.089a6.089 6.089 0 0 0-3.112-.819l-1.667.224Zm16.255 25.412a4.806 4.806 0 0 1 1.416-1.264 4.838 4.838 0 0 1 2.516-.7 5.086 5.086 0 0 1 2.501.715l.998.774a4.948 4.948 0 0 1 1.265 2.263l.224.714a6.18 6.18 0 0 1 2.337 2.13 6.31 6.31 0 0 1 0 6.267c-.511.913-.916 1.825-1.32 2.737a51.067 51.067 0 0 1-.794 1.73c-.2.433-.423.856-.67 1.265a9.81 9.81 0 0 1-1.072 1.489c-.38.541-.893.977-1.489 1.265a5.404 5.404 0 0 1-3.216.983 24.963 24.963 0 0 1-1.801-.238 5.865 5.865 0 0 1-2.59-1.49 6.607 6.607 0 0 1-1.772-3.11 8.603 8.603 0 0 1 0-3.753l.119-.595c.342-1.578.73-3.097 1.161-4.69.101-.37.199-.746.299-1.123.327-1.248.66-2.513 1.071-3.656.156-.62.433-1.202.817-1.713ZM82.786 78.638a6.997 6.997 0 0 0-4.154 3.245c-.49.827-.899 1.7-1.22 2.606a4.76 4.76 0 0 0-.358 1.102c-.119.729-.238 1.488-.313 2.203a5.703 5.703 0 0 0 .968 3.796 5.955 5.955 0 0 0 11.226-2.769c.104-.417.208-.834.297-1.25.09-.417.164-.715.254-1.058l.119-.52a6.686 6.686 0 0 0 .208-1.742 5.225 5.225 0 0 0-.194-1.727 5.523 5.523 0 0 0-2.545-3.32 5.255 5.255 0 0 0-2.74-.73c-.52.004-1.038.06-1.548.164ZM61.184 3.618l1.34-1.042a6.566 6.566 0 0 1 3.364-.938A6.67 6.67 0 0 1 72.32 6.52a7.28 7.28 0 0 1-.075 4.183c-.119.313-.238.626-.342.938l-.179.507c.022.292.022.586 0 .878a7.799 7.799 0 0 1-.268 1.86c-.168.523-.377 1.03-.625 1.52a44.978 44.978 0 0 0-1.161 2.411c-.231.886-.458 1.772-.685 2.659-.227.885-.454 1.77-.685 2.656a6.625 6.625 0 1 1-12.774-3.513l.491-1.995a6.893 6.893 0 0 1 .194-2.576 24.16 24.16 0 0 1 1.489-4.466l.73-1.876c.297-1.057.64-2.084 1.041-3.112a6.595 6.595 0 0 1 1.713-2.977Z" fill="#F68A22"/></svg>