<svg width="330" height="557" xmlns="http://www.w3.org/2000/svg"><path d="M193.603 475.302c-1.629-3.295-1.293-7.419 2.543-9.534l.156-.105.305-.326a6.684 6.684 0 0 1 6.979-.583l.535.328.063.041c4.084 1.444 5.102 5.467 4.044 8.993-.453 2.727-2.283 5.106-5.585 5.835-.406.11-.822.184-1.242.219-4.147.349-6.808-1.901-7.798-4.868Zm129.007 57.45a30.937 30.937 0 0 1 5.635 8.816c1.654 3.636 2.649 7.404.755 11.209a7.282 7.282 0 0 1-9.461 3.36c-3.637-1.352-5.445-4.864-6.619-8.358a29.68 29.68 0 0 1-1.902-9.062 7.258 7.258 0 0 1 3.804-6.83c2.346-1.178 5.849-1.217 7.836.814l-.048.051Zm-74.951-77.696c-.23-4.585-3.048-7.509-6.702-9.949h.02a6.721 6.721 0 0 0-7.781-.341 6.472 6.472 0 0 0-2.31 7.423 20.66 20.66 0 0 0 2.622 5.385 11.527 11.527 0 0 0 6.625 4.279c4.128 1.236 7.748-3.044 7.526-6.797Zm-58.522-76.531a66.42 66.42 0 0 0-.35-6.422l.031.029c-.705-7.559-11.016-7.506-12.781-.666-.146.57-.302 1.159-.462 1.762-1.032 3.892-2.217 8.358-1.733 12.13a7.576 7.576 0 0 0 7.164 6.854c3.986.202 6.779-2.436 7.816-6.104.529-1.812.448-3.827.369-5.778v-.008a55.648 55.648 0 0 1-.054-1.797Zm35.277-25.228a21.558 21.558 0 0 1 4.5 10.726 8.035 8.035 0 0 1-1.578 5.363 8.034 8.034 0 0 1-10.23 2.28 8.015 8.015 0 0 1-3.697-4.188 21.568 21.568 0 0 1-1.044-11.556 6.74 6.74 0 0 1 5.143-5.232 6.854 6.854 0 0 1 6.896 2.617l.01-.01Zm-41.944-60.621c.43 2.829.663 5.686.697 8.548.021.703.061 1.418.102 2.139v.004c.14 2.492.284 5.051-.352 7.397-2.419 8.912-14.183 8.142-15.843-.789-.403-2.246-.072-4.672.251-7.04v-.004c.114-.836.227-1.666.307-2.478.275-2.844.74-5.668 1.394-8.45a6.832 6.832 0 0 1 11.329-3.512 6.824 6.824 0 0 1 2.115 4.185Zm-68.191 1.092a44.239 44.239 0 0 1 3.643 7.528c1.957 4.724-1.776 10.087-6.672 10.49-4.896.404-9.453-4.223-8.32-9.2a43.624 43.624 0 0 1 2.388-8.02 5.304 5.304 0 0 1 4.291-2.922 5.28 5.28 0 0 1 4.721 2.152l-.051-.028Zm17.995-90.201c-.464-.069-.882-.132-1.275-.242l.06.018c-2.368-.662-5.362 1.884-4.844 4.381.14.669.199.718.222.62.001.118.005.281.012.5-.022.66 0 1.321.065 1.978.34 1.634.982 3.19 1.894 4.588a15.747 15.747 0 0 0 6.28 6.755c5.52 2.922 12.687-3.369 10.089-9.21a15.72 15.72 0 0 0-6.271-6.786 13.49 13.49 0 0 0-4.669-2.316c-.581-.14-1.095-.216-1.563-.286Zm98.995-5.83c3.581 1.453 7.272 2.951 9.642 6.072 4.109 5.434-1.28 13.426-7.805 12.132-3.728-.737-6.704-3.432-9.53-5.992l-.002-.001a91.095 91.095 0 0 0-1.906-1.696 6.86 6.86 0 0 1-2.308-4.221 6.875 6.875 0 0 1 9.691-7.214c.725.314 1.468.615 2.216.919h.001l.001.001Zm-5.579 65.716a8.152 8.152 0 0 1 4.766 11.665 8.168 8.168 0 0 1-4.286 3.754c-8.453 3.305-17.596-6.244-13.245-14.498a7.52 7.52 0 0 1 7.973-4.041c1.777.415 3.629 1.552 4.792 3.12Zm-1.408-.302c.133-.092-.156-.197-1.6-.038a8.213 8.213 0 0 1 1.6.038Zm-34.293-112.78a43.962 43.962 0 0 1 2.043 8.829 7.593 7.593 0 0 1-1.555 5.821 7.592 7.592 0 0 1-5.311 2.846 7.562 7.562 0 0 1-8.188-7.414 44.53 44.53 0 0 1 .553-9.066c.743-6.301 10.75-7.194 12.496-1.077l-.038.061Zm-88.554-4.731c.836 10.365-15.213 11.72-16.079 1.366-.865-10.354 15.203-11.73 16.079-1.366ZM74.29 233.902c1.014 12.16-17.887 13.78-18.902 1.6-1.014-12.18 17.868-13.78 18.902-1.6Zm222.593 167.382.328.959c.141.352.233.722.274 1.099l.021.097.033.03c.488.372.95.777 1.382 1.212l.05.038.029.021.128.1a10.252 10.252 0 0 1 2.349 3.425 6.761 6.761 0 0 1-.75 6.37 7.608 7.608 0 0 1-5.414 3.311c-4.787 1.023-9.126-3.304-10.588-7.431-1.29-3.698-1.208-8.145 1.644-11.112 2.851-2.967 9.188-2.905 10.592 1.858l-.078.023Zm-27.264-95.149a9.089 9.089 0 0 0 2.162-4.993 7.728 7.728 0 0 0-1.846-6.612 7.728 7.728 0 0 0-12.98 7.866 8.927 8.927 0 0 0 2.991 4.561 7.088 7.088 0 0 0 4.997 1.503 7.102 7.102 0 0 0 4.676-2.325ZM79.924 22.601c-4.402-3.83-8.554-9.688-7.627-15.817A7.984 7.984 0 0 1 83.482 1.09c5.431 2.914 7.74 9.616 8.17 15.442.429 5.825-7 10.185-11.728 6.069Zm63.826 67.312.002.004c.184.447.365.889.542 1.325a4.625 4.625 0 0 0 4.69 2.907 4.634 4.634 0 0 0 4.144-3.651c.098-.448.2-.902.302-1.36.934-4.167 1.958-8.732 1.178-12.914-.719-3.797-3.579-6.798-7.676-6.471-4.097.327-6.387 3.839-6.478 7.683-.101 4.207 1.676 8.534 3.296 12.476v.001ZM33.393 104.63c-3.66.67-7.425.492-11.004-.518-3.71-.864-6.812-4.57-5.854-8.562a7.69 7.69 0 0 1 1.6-3.39 7.478 7.478 0 0 1 5.016-2.532 7.464 7.464 0 0 1 5.359 1.676c2.77 2.341 5.69 5.073 7.138 8.459a3.806 3.806 0 0 1-2.255 4.867Zm-10.999 86.537a38.26 38.26 0 0 1 3.976.519l.05.028c2.846.745 5.813-2.652 4.516-5.36a36.159 36.159 0 0 1-1.283-3.787 27.337 27.337 0 0 0-2.505-4.835c-2.778-4.399-9.514-4.28-12.658-.551-3.143 3.73-2.189 10.468 2.674 12.372a26.641 26.641 0 0 0 5.23 1.614Zm28.901 122.037a51.703 51.703 0 0 0-7.725-3.738 10.464 10.464 0 0 1-6.592-11.743c.427-2.667 3.214-5.484 6.036-5.471a10.77 10.77 0 0 1 6.941 1.893 11.32 11.32 0 0 1 3.978 6.577 52.893 52.893 0 0 0 2.34 7.938c1.182 2.83-2.237 6.322-5.026 4.595l.048-.051Zm-48.208-55.48a16.693 16.693 0 0 0 5.375 2.728l-.04-.039c3.91 1.224 8.118-2.046 9.26-5.559a8.274 8.274 0 0 0-4.156-9.887 11.203 11.203 0 0 0-3.847-1.087 8.294 8.294 0 0 0-8.578 4.319 8.008 8.008 0 0 0 1.986 9.525Zm282.53 214.763-.368 1.131c-2.074 6.475-9.616 7.087-12.792 1.087l-.55-1.07c-5.666-10.934 17.468-12.985 13.7-1.157l.01.009Zm8.391-120.719c-.537.016-1.061.031-1.565.036l.031.029c-3 .248-5.343 2.7-5.454 5.708a6.093 6.093 0 0 0 4.846 6.2c.649.173 1.285.382 1.923.59.883.29 1.769.58 2.695.778 2.548.531 5.203.099 7.453-1.212a5.744 5.744 0 0 0 2.506-4.728 6.264 6.264 0 0 0-2.103-4.976c-2.601-2.65-6.75-2.529-10.332-2.425Z" fill="#FFF" fill-rule="evenodd"/></svg>