<svg width="823" height="557" viewBox="0 0 823 557" xmlns="http://www.w3.org/2000/svg"><g fill="#FFF" fill-rule="nonzero"><path d="m696.561 464.903.591.208c7.68 2.68 4.593 14.435-2.751 15.059-8.479.713-10.743-9.435-5.224-14.373l.43-.46a6.684 6.684 0 0 1 6.979-.583l.535.328c6.257 3.936 5.728 14.347-2.75 15.06-7.304.623-12.419-10.408-5.225-14.374a7.96 7.96 0 0 1 7.385-.893l.03.028ZM815.66 532.701l-.05.051a30.974 30.974 0 0 1 5.64 8.816c1.65 3.636 2.64 7.404.75 11.209a7.27 7.27 0 0 1-4.06 3.572c-1.76.626-3.7.549-5.4-.212-3.64-1.352-5.45-4.864-6.62-8.358a29.68 29.68 0 0 1-1.902-9.062 7.255 7.255 0 0 1 3.802-6.83c2.35-1.178 5.85-1.217 7.84.814ZM48.257 518.802a6.633 6.633 0 0 1 3.56 1.688 6.766 6.766 0 0 1 1.99 3.431 29.783 29.783 0 0 1 .796 9.212c-.109 3.705-.813 7.648-3.865 10.189-1.394 1.312-3.2 2.057-5.044 2.08-1.844.023-3.585-.677-4.861-1.956-2.88-2.932-3.017-6.832-2.495-10.838a32.904 32.904 0 0 1 2.53-9.664l.274-.616-.06-.031c1.297-2.608 4.619-3.79 7.175-3.495Zm730.35-46.324.01.009-.368 1.131c-2.074 6.475-9.616 7.086-12.792 1.087l-.55-1.07c-5.666-10.934 17.468-12.985 13.7-1.157Zm-48.465-28.782a6.727 6.727 0 0 1 3.835 1.41l-.02.001c3.654 2.44 6.472 5.364 6.702 9.949.222 3.753-3.398 8.033-7.526 6.797a11.522 11.522 0 0 1-6.624-4.279 20.632 20.632 0 0 1-2.623-5.385 6.472 6.472 0 0 1 2.31-7.423 6.735 6.735 0 0 1 3.946-1.07Zm-660.118 5.755-.06.364-.215 1.205c-1.275 6.706-8.44 8.795-12.306 3.643l-.147-.202-.675-.943.007-.012c-6.905-9.786 15.123-15.902 13.396-4.055Zm27.767-39.235a5.888 5.888 0 0 1 3.213 2.303 6.276 6.276 0 0 1 1.091 3.891 21.613 21.613 0 0 1-.936 5.988 12.547 12.547 0 0 1-5.032 6.338c-3.546 2.601-8.189-.174-9.052-3.79-1.064-4.283.634-7.937 3.263-11.42l.221-.289-.019.006a7.238 7.238 0 0 1 3.219-2.663 6.602 6.602 0 0 1 4.032-.364Zm692.17-8.955-.078.023.328.959c.141.352.233.722.274 1.099l.02.098.034.029c.476.362.927.756 1.349 1.179l.026.028.002.001c.05.036.12.09.212.163a10.27 10.27 0 0 1 2.35 3.425 6.757 6.757 0 0 1-.751 6.37 7.608 7.608 0 0 1-5.414 3.311c-4.786 1.023-9.126-3.304-10.588-7.431-1.29-3.698-1.208-8.145 1.644-11.112 2.852-2.967 9.188-2.905 10.592 1.858Zm2.538 4.042a13.203 13.203 0 0 0-.3-.333l-.283-.293-.002-.001-.052-.037c-.247-.164.442.48.637.664ZM32.97 384.099c3.548 1.808 4.899 5.978 4.738 9.918-.201 4.406-3.066 10.003-7.888 10.704a7.377 7.377 0 0 1-3.207.065 6.975 6.975 0 0 1-2.863-1.305 6.229 6.229 0 0 1-2.001-2.508 6.696 6.696 0 0 1-.534-3.245 10.971 10.971 0 0 1 1.242-4.051c.044-.068.082-.123.113-.168l.04-.06-.183.375a14.52 14.52 0 0 0-.189.419c.135-.245.612-1.112.406-.838l-.032.04.017-.034c.21-.41.438-.81.685-1.198l.254-.385.021-.037-.007-.101a4.236 4.236 0 0 1-.07-.848l.014-.286.036-1.019-.08.006c-.036-4.986 5.94-7.252 9.488-5.444Zm757.563 19.465.019.09.258.528c.087-.056-.098-.37-.262-.597l-.015-.021Zm-.015.116.06.094-.026-.12-.091-.185-.02-.024c-.129-.158-.183-.173.077.235Zm0-.186.003.017.031.042c.153.21.163.205.008-.003l-.042-.056Zm-.108-.13.05.105.015.018.036.047.022.03-.012-.053-.014-.02a14.008 14.008 0 0 1-.052-.073l-.032-.044-.013-.01Zm.018.013-.032-.042.118.154.004.005-.012-.054-.017-.015a1.362 1.362 0 0 0-.051-.041l-.01-.007Zm-.017-.021.012.018.005.003-.003-.003-.008-.01-.006-.008Zm-.09-.052.011.007c.018.01.035.023.053.035l.025.018-.014-.029-.017-.007-.043-.018-.014-.006Zm.086.045Zm-.111-.055.026.01-.042-.025c-.256-.152-.441-.178.016.015ZM23.599 391.915l-.007.026c-.09.272-.174.632-.076.655l.091-.585-.008-.096Zm658.219-19.783-.031-.029a66.42 66.42 0 0 1 .35 6.422c.022 2.474.379 5.203-.315 7.583-1.037 3.667-3.83 6.306-7.816 6.104a7.57 7.57 0 0 1-7.164-6.854c-.559-4.356 1.108-9.639 2.195-13.892 1.765-6.84 12.077-6.893 12.781.666Zm-658.165 19.64-.012.028-.034.211.011.119c.165-.59.118-.567.035-.358Zm-.059.075-.023.066c-.087.25-.076.25.009 0l.015-.049v-.017Zm.065-.163-.01.014-.016.053-.028.087-.01.026.004.051.014-.035a3.16 3.16 0 0 1 .02-.057l.008-.023.018-.116Zm-.014.019-.006.01a1.488 1.488 0 0 0-.037.056l-.013.022.005.055.018-.049.017-.046.016-.048Zm.012-.031-.012.031.004-.005.008-.026Zm.068-.074-.06.054-.006.032.02-.026c.013-.017.026-.035.04-.051l.006-.009Zm.033-.04-.033.04.023-.02c.376-.34.21-.252.01-.02Zm690.581-40.567a6.854 6.854 0 0 1 3.065 2.316l.01-.01a21.558 21.558 0 0 1 4.5 10.726 8.042 8.042 0 0 1-6.272 8.402 8.026 8.026 0 0 1-9.233-4.947 21.568 21.568 0 0 1-1.044-11.556 6.735 6.735 0 0 1 5.143-5.232 6.86 6.86 0 0 1 3.831.301Zm83.001 3.201a6.264 6.264 0 0 1 2.104 4.977 5.757 5.757 0 0 1-2.507 4.728 10.54 10.54 0 0 1-7.453 1.212c-1.595-.342-3.07-.955-4.618-1.368a6.09 6.09 0 0 1-4.846-6.2 5.95 5.95 0 0 1 5.454-5.708l-.031-.029c3.869-.042 8.906-.658 11.897 2.388Zm-597.51-18.547a5.977 5.977 0 0 1 2.446 3.558c1.4 4.84 1.35 10.075-.144 15.059-1.386 4.595-8.159 5.746-10.164 1.44-2.172-4.51-2.945-9.653-2.22-14.781a6.939 6.939 0 0 1 1.864-4.148c1.073-1.143 2.489-1.884 3.994-2.09a6.041 6.041 0 0 1 4.224.962Zm-183.71 5.73a5.48 5.48 0 0 1 2.673 3.102c.466 1.343.439 2.837-.076 4.22a6.643 6.643 0 0 1-2.736 3.332c-1.348.93-2.57 2.024-3.983 2.904-2.262 1.39-4.901 1.908-7.408 1.453a5.254 5.254 0 0 1-2.329-1.302 5.358 5.358 0 0 1-1.402-2.293 6.26 6.26 0 0 1-.321-2.748c.098-.941.401-1.86.886-2.69 1.907-3.82 6.65-5.034 10.293-6.304l.293-.103-.021.038c1.407-.392 2.877-.252 4.131.391Zm112.558-18.9c2.258 3.654 5.363 8.082 6.086 12.41.359 1.78.068 3.67-.82 5.324a8.24 8.24 0 0 1-4.017 3.685c-3.731 1.586-7.146.061-9.188-3.056-1.344-2.014-1.79-4.728-2.481-7.082a64.633 64.633 0 0 1-1.306-5.172l-.21-1.043-.021.038c-1.506-7.416 8.312-10.975 11.957-5.104Zm-42.135-5.766a6.155 6.155 0 0 1 2.671 2.566c1.788 3.414 2.593 7.317 2.326 11.286a8.668 8.668 0 0 1-2.301 5.248c-1.344 1.449-3.128 2.388-5.026 2.647-1.899.26-3.786-.179-5.318-1.235-1.532-1.056-2.608-2.659-3.033-4.519-.633-3.715-.282-7.589 1.013-11.233l.174-.474.012.006a7.478 7.478 0 0 1 2.239-3.258 7.162 7.162 0 0 1 3.542-1.62 6.363 6.363 0 0 1 3.701.586Zm582.495-30.047a6.828 6.828 0 0 1 4.317 1.829 6.824 6.824 0 0 1 2.115 4.185c.43 2.829.663 5.685.697 8.548.094 3.134.571 6.513-.25 9.54-2.419 8.911-14.183 8.142-15.843-.789-.545-3.04.254-6.413.558-9.522a63.94 63.94 0 0 1 1.394-8.451 6.833 6.833 0 0 1 7.012-5.34Zm-126.083 7.483a11.323 11.323 0 0 1 3.978 6.577 52.858 52.858 0 0 0 2.34 7.938c1.182 2.83-2.237 6.322-5.026 4.595l.048-.051a51.715 51.715 0 0 0-7.724-3.738 10.46 10.46 0 0 1-5.435-4.669 10.473 10.473 0 0 1-1.158-7.074c.427-2.668 3.214-5.484 6.036-5.471a10.77 10.77 0 0 1 6.941 1.893Zm62.297-2.044c.827.377 1.543.96 2.078 1.695l-.051-.028a44.239 44.239 0 0 1 3.643 7.528c1.957 4.724-1.776 10.087-6.672 10.49-4.896.404-9.453-4.223-8.32-9.2a43.624 43.624 0 0 1 2.388-8.02 5.304 5.304 0 0 1 4.291-2.922 5.28 5.28 0 0 1 2.643.457Zm154.788.419a7.702 7.702 0 0 1 4.593 5.099 7.728 7.728 0 0 1 .148 3.523 9.092 9.092 0 0 1-2.162 4.993 7.089 7.089 0 0 1-9.673.822 8.927 8.927 0 0 1-2.991-4.561 7.727 7.727 0 0 1 6.596-10.389 7.725 7.725 0 0 1 3.489.513ZM23.92 275.029a7.104 7.104 0 0 1 3.102 1.457 7.156 7.156 0 0 1 2.059 2.748 7.67 7.67 0 0 1 .588 3.466 9.531 9.531 0 0 1-1.528 5.363c-1.02 1.553-2.562 2.686-4.311 3.169-1.749.483-3.574.28-5.105-.568a8.374 8.374 0 0 1-3.486-3.973 7.55 7.55 0 0 1-.872-3.387 8.172 8.172 0 0 1 .724-3.518 8.446 8.446 0 0 1 2.17-2.915 8.166 8.166 0 0 1 3.163-1.704 7.546 7.546 0 0 1 3.496-.138Zm689.978-14.696c1.711.4 3.491 1.469 4.66 2.946l.133.176.175.054a8.148 8.148 0 0 1 4.59 11.609 8.168 8.168 0 0 1-4.286 3.754c-8.453 3.305-17.596-6.244-13.245-14.498a7.517 7.517 0 0 1 7.973-4.041Zm-607.332-18.292a6.26 6.26 0 0 1 3.541 2.861 60.228 60.228 0 0 1 3.755 7.523c1.183 2.841 2.913 5.758 3.269 8.831.992 9.047-9.963 13.89-14.824 6.289-1.65-2.582-2.169-5.952-2.982-8.956a61.155 61.155 0 0 1-1.796-8.348c-.282-1.583.004-3.251.806-4.706a7.412 7.412 0 0 1 3.575-3.244c1.506-.639 3.156-.728 4.656-.25Zm610.271 21.29c.407.078.787.255 1.106.517.218.15.364.252.442.302l.03.018.548.576c.03.048.891 3.443.968 2.303l.005-.109-.06.002c.027-1.283-.432-2.467-1.176-3.474l-.01-.011-.13-.041a8.16 8.16 0 0 0-1.26-.26l-.02-.002-.016.01c-.132.074-.518.132-.774.033l-.044-.019c-.417-.065-.287-.02.391.155Zm1.305.55c.27.253.368.344.276.29l-.003-.003-.273-.287Zm-2.46-.768c.434-.032.868-.03 1.297.007l.3.032c.132-.095-.163-.197-1.597-.039ZM502.679 243.88a11.2 11.2 0 0 1 3.846 1.087 8.274 8.274 0 0 1 4.156 9.887c-1.141 3.512-5.349 6.783-9.259 5.559l.04.038a16.66 16.66 0 0 1-5.375-2.728 8.003 8.003 0 0 1-2.604-4.424 8.024 8.024 0 0 1 .618-5.1 8.29 8.29 0 0 1 8.578-4.319Zm-447.23-13.228a6.894 6.894 0 0 1 4.099 1.992c6.483 6.279.566 18.483-8.381 18.307-1.934-.019-3.756-.747-5.132-2.052-1.376-1.305-2.214-3.098-2.362-5.053-.147-1.954.406-3.939 1.559-5.59a8.876 8.876 0 0 1 1.82-1.92l.15-.114.027-.076c.635-1.778 1.957-3.402 3.423-4.413l.192-.128c1.424-.806 3.038-1.14 4.605-.953Zm113.536-4.833a4.835 4.835 0 0 1 2.254 1.299 40.491 40.491 0 0 1 4.57 6.758c2.505 4.316-.489 10.287-5.25 11.615-4.761 1.328-9.843-2.444-9.344-7.6.155-2.537.521-5.07 1.095-7.568l.199-.831-.04.044a5.77 5.77 0 0 1 1.484-2.33 5.6 5.6 0 0 1 2.376-1.355 5.148 5.148 0 0 1 2.656-.032Zm398.305 8.083c1.014 12.16-17.887 13.78-18.901 1.6-1.015-12.18 17.867-13.78 18.901-1.6Zm-518.043 1.277c-.204.206-.623.296-.778.272l-.02-.005-.016.009a8.674 8.674 0 0 0-1.118.684l-.113.083-.052.157c-.375 1.168-.448 2.394-.07 3.549l-.057.019c.444 1.355.276-2.354.292-2.411l.352-.735.008-.007c.054-.065.168-.22.348-.459a2.69 2.69 0 0 1 .898-.874c.593-.401.703-.489.326-.282Zm-1.403 1.256-.177.366-.012.016c-.047.051.003-.045.14-.293l.049-.089Zm2.108-1.582c-1.402.35-1.652.55-1.506.592l.003.001.278-.135c.197-.092.399-.176.603-.253l.309-.108.313-.097Zm186.957-26.607c1.123 2.121 1.451 4.62.928 7.06a11.348 11.348 0 0 1-3.79 6.283 55.948 55.948 0 0 0-5.572 5.463l-.643.737.06.031c-2.136 2.594-6.355.495-6.049-2.579a53.753 53.753 0 0 0-.06-8.284c-.25-2.618.412-5.295 1.873-7.571 1.509-2.03 3.628-3.51 6.002-4.192 2.656-.992 6.087.69 7.251 3.052Zm387.15-4.903-.06-.018c.789.221 1.681.25 2.838.528a13.49 13.49 0 0 1 4.669 2.316 15.72 15.72 0 0 1 6.271 6.786c2.598 5.841-4.569 12.131-10.089 9.21a15.753 15.753 0 0 1-6.28-6.755 13.366 13.366 0 0 1-1.893-4.588c-.066-.657-.088-1.318-.066-1.978l-.012-.463-.001-.037c-.024.096-.084.036-.221-.62-.518-2.497 2.476-5.043 4.844-4.381Zm97.992-6.526c4.197 1.817 8.995 3.219 11.861 6.992 4.108 5.434-1.281 13.426-7.806 12.132-4.573-.904-8.016-4.756-11.438-7.689a6.872 6.872 0 0 1 2.585-11.799 6.863 6.863 0 0 1 4.798.364Zm-102.616 11.461v.066l.006-.022c.021-.145-.01-.466-.006-.044ZM31.76 173.317c1.246.998 2.068 2.444 2.315 4.069.247 1.626-.098 3.322-.971 4.777-2.39 3.95-4.536 8.773-8.591 11.213-5.785 3.485-13.149-2.169-10.826-8.712 1.625-4.548 5.749-7.534 9.188-10.703 1.219-1.178 2.789-1.891 4.422-2.01 1.632-.118 3.218.367 4.463 1.366Zm488.389 4.415a27.317 27.317 0 0 1 2.505 4.835 36.114 36.114 0 0 0 1.283 3.787c1.297 2.708-1.67 6.105-4.515 5.36l-.051-.028a37.96 37.96 0 0 0-3.976-.519 26.645 26.645 0 0 1-5.23-1.614c-4.863-1.904-5.817-8.643-2.674-12.372 3.144-3.729 9.881-3.848 12.658.551Zm-396.47-26.373c.058.665.018.742-.03.665l-.004-.007.012.037.074.267.047.174c.209.614.377 1.243.503 1.884a13.823 13.823 0 0 1-.475 4.976 17.016 17.016 0 0 1-3.992 8.541c-4.371 4.666-12.923 1.234-12.142-5.166a16.97 16.97 0 0 1 3.975-8.566 14.639 14.639 0 0 1 3.741-3.802c.899-.59 1.657-.921 2.292-1.326l.233-.156-.052.037c2.043-1.445 5.593-.088 5.818 2.442Zm559.349-1.049-.038.061a43.962 43.962 0 0 1 2.043 8.829 7.576 7.576 0 0 1-12.569 6.737 7.55 7.55 0 0 1-2.484-5.485c-.126-3.032.06-6.07.552-9.065.743-6.301 10.75-7.194 12.496-1.077Zm-88.592-4.67c.836 10.365-15.213 11.72-16.079 1.366-.865-10.354 15.203-11.73 16.079-1.366Zm-470.8 6.36.01.017-.017-.06c-.117-.399-.054-.086.008.043ZM57.17 114.297a42.733 42.733 0 0 1 3.129 8.389c.282.987.358 2.033.224 3.076a8.148 8.148 0 0 1-1.005 2.984 8.271 8.271 0 0 1-2.068 2.399 7.99 7.99 0 0 1-2.789 1.42 7.433 7.433 0 0 1-3.049.204 6.933 6.933 0 0 1-4.907-3.165 7.287 7.287 0 0 1-1.047-2.846 44.334 44.334 0 0 1-.62-8.239l.022-.833-.053-.044c-.102-6.401 9.649-9.05 12.163-3.345ZM521.51 91.304c2.769 2.341 5.69 5.073 7.138 8.459a3.809 3.809 0 0 1-2.255 4.867c-3.66.67-7.424.492-11.004-.518-3.71-.864-6.812-4.57-5.854-8.562a7.687 7.687 0 0 1 1.6-3.39 7.481 7.481 0 0 1 5.016-2.532 7.463 7.463 0 0 1 5.359 1.676Zm126.098-15.08c.865 4.642-.491 9.756-1.48 14.274a4.64 4.64 0 0 1-4.144 3.651 4.625 4.625 0 0 1-4.69-2.907c-1.735-4.286-3.953-9.121-3.84-13.807.091-3.843 2.381-7.355 6.478-7.682 4.097-.327 6.957 2.674 7.676 6.471ZM68.74 32.368c1.453 4.394.737 9.744.323 14.406a4.995 4.995 0 0 1-1.127 2.76 4.948 4.948 0 0 1-2.486 1.627 4.464 4.464 0 0 1-2.865-.145 4.244 4.244 0 0 1-2.114-1.863c-2.235-3.93-4.99-8.295-5.502-12.99-.409-3.844 1.442-7.683 5.421-8.804 3.98-1.12 7.16 1.403 8.35 5.009ZM189.44 7.45a7.02 7.02 0 0 1 2.481 2.638c2.045 3.43.176 8-3.08 10.105-3.091 2.197-6.594 3.672-10.241 4.314a3.5 3.5 0 0 1-2.574-1.116 3.657 3.657 0 0 1-.946-2.687c.399-3.694 2.375-7.284 4.32-10.454 1.063-1.685 2.706-2.92 4.581-3.443 1.874-.523 3.833-.292 5.459.643ZM572.981.35a7.966 7.966 0 0 1 3.501.74c5.431 2.914 7.74 9.616 8.17 15.442.429 5.825-6.999 10.185-11.728 6.069-4.402-3.83-8.554-9.688-7.627-15.817a7.983 7.983 0 0 1 7.684-6.433Z"/></g></svg>