<svg width="295" height="205" viewBox="0 0 295 205" fill="none" xmlns="http://www.w3.org/2000/svg"><path fill-rule="evenodd" clip-rule="evenodd" d="M207.451 16.576c.064-.037.277-.121.762-.11.473.012 1.096.112 1.878.324 1.562.424 3.555 1.24 5.884 2.378 4.644 2.272 10.393 5.715 16.281 9.477 5.88 3.756 11.857 7.804 16.955 11.27l1.329.905c4.482 3.05 8.202 5.581 10.353 6.885l1.555-2.566c-2.078-1.26-5.729-3.743-10.254-6.822l-.003-.002-1.293-.88c-5.097-3.467-11.107-7.536-17.027-11.318-5.911-3.776-11.775-7.294-16.578-9.643-2.396-1.172-4.585-2.083-6.417-2.58-.915-.248-1.792-.408-2.591-.427-.786-.019-1.617.095-2.337.513-.733.423-1.296 1.169-1.742 1.911-.47.784-.925 1.768-1.368 2.89-.889 2.246-1.794 5.211-2.708 8.615-1.741 6.484-3.56 14.731-5.383 23.001l-.28 1.267c-1.922 8.715-3.846 17.357-5.705 24.009-.93 3.33-1.83 6.11-2.688 8.132-.43 1.012-.83 1.789-1.192 2.334-.18.27-.336.46-.461.587a.88.88 0 0 1-.19.158c-.001 0-.001 0 0 0-.083.038-.372.114-1.006.067-.603-.043-1.38-.186-2.331-.438-1.899-.502-4.318-1.39-7.11-2.56-5.577-2.34-12.454-5.728-19.29-9.165l-4.313-2.176c-5.305-2.68-10.4-5.252-14.58-7.203-2.649-1.235-4.978-2.243-6.786-2.873-.899-.313-1.722-.551-2.419-.669a5.134 5.134 0 0 0-1.056-.08c-.332.014-.768.078-1.181.317l-.047.027-.045.03c-.358.244-.621.579-.803.848a8.335 8.335 0 0 0-.568 1.003c-.36.737-.743 1.692-1.141 2.808-.8 2.236-1.717 5.255-2.711 8.77-1.567 5.543-3.35 12.402-5.201 19.525l-.002.008c-.497 1.914-1 3.848-1.505 5.78-2.387 9.141-4.822 18.253-7.021 25.261-1.1 3.508-2.129 6.449-3.051 8.589-.463 1.073-.881 1.903-1.248 2.49-.345.551-.552.733-.591.768a.095.095 0 0 0-.007.006.81.81 0 0 1-.173.038 3.08 3.08 0 0 1-.582.009c-.52-.033-1.204-.156-2.06-.381-1.707-.45-3.905-1.255-6.472-2.321-4.224-1.752-9.292-4.141-14.573-6.631l-3.425-1.612c-6.458-3.031-13.026-6.039-18.44-7.987-2.702-.973-5.18-1.706-7.25-2.034-1.036-.165-2.017-.237-2.9-.168-.875.069-1.75.282-2.484.772-1.288.859-2.265 2.528-3.058 4.387-.825 1.934-1.573 4.379-2.256 7.124-1.367 5.498-2.52 12.388-3.49 19.229-.85 5.983-1.566 11.965-2.167 16.986-.086.724-.17 1.429-.253 2.11a365.255 365.255 0 0 1-.868 6.853c-.263 1.868-.473 3.01-.616 3.44l2.845.952c.25-.747.49-2.193.742-3.973.26-1.841.55-4.209.876-6.914l.253-2.114c.601-5.023 1.313-10.97 2.158-16.919.967-6.814 2.102-13.582 3.431-18.925.666-2.675 1.369-4.947 2.104-6.672.768-1.8 1.462-2.734 1.963-3.068.16-.106.477-.232 1.053-.277.57-.044 1.299-.003 2.196.139 1.796.286 4.07.946 6.706 1.895 5.262 1.894 11.708 4.842 18.18 7.88 1.133.532 2.267 1.066 3.395 1.598 5.282 2.49 10.433 4.918 14.728 6.7 2.604 1.081 4.952 1.949 6.86 2.451.952.251 1.844.423 2.63.474.754.048 1.594-.002 2.313-.37.754-.385 1.332-1.145 1.775-1.853.482-.77.969-1.756 1.46-2.895.983-2.282 2.048-5.339 3.159-8.878 2.223-7.087 4.675-16.267 7.061-25.401.508-1.946 1.014-3.89 1.513-5.812 1.85-7.118 3.622-13.934 5.179-19.442.99-3.5 1.884-6.44 2.648-8.577.384-1.072.723-1.908 1.012-2.5.113-.23.209-.405.289-.535.061.007.133.016.218.03.455.077 1.096.254 1.931.544 1.659.578 3.875 1.533 6.504 2.76 4.133 1.927 9.17 4.471 14.468 7.147 1.434.724 2.887 1.458 4.346 2.192 6.828 3.434 13.792 6.867 19.477 9.251 2.838 1.19 5.406 2.14 7.504 2.695 1.047.277 2.022.467 2.88.53.826.06 1.708.015 2.463-.328.809-.367 1.429-1.094 1.909-1.816.506-.762.99-1.725 1.456-2.823.933-2.2 1.874-5.127 2.816-8.497 1.885-6.748 3.827-15.477 5.745-24.17l.272-1.234c1.83-8.3 3.635-16.486 5.358-22.902.905-3.37 1.776-6.204 2.6-8.29.414-1.046.8-1.862 1.152-2.45.175-.292.329-.505.458-.654a1.578 1.578 0 0 1 .198-.194l.016-.01Zm-82.013 48.21h-.001.01a.1.1 0 0 0-.009 0Zm89.588-36.534c-.485-.011-.698.073-.763.11l-.015.01a1.715 1.715 0 0 0-.199.194 4.738 4.738 0 0 0-.457.654c-.353.588-.739 1.404-1.152 2.45-.825 2.086-1.695 4.92-2.6 8.29-1.724 6.417-3.53 14.605-5.361 22.908v.001l-.27 1.224c-1.918 8.692-3.86 17.421-5.745 24.17-.942 3.37-1.883 6.296-2.816 8.497-.466 1.098-.949 2.062-1.455 2.824-.48.722-1.1 1.449-1.908 1.817-.755.344-1.637.39-2.464.33-.857-.062-1.832-.252-2.88-.529-2.098-.554-4.665-1.503-7.504-2.693-5.684-2.384-12.648-5.818-19.476-9.252-1.467-.738-2.927-1.476-4.368-2.204l-.004-.002h-.002c-5.287-2.672-10.313-5.211-14.438-7.137-2.628-1.226-4.844-2.182-6.502-2.76-.834-.29-1.475-.468-1.93-.544a3.742 3.742 0 0 0-.217-.03c-.081.129-.178.305-.291.535-.291.591-.63 1.427-1.015 2.498-.767 2.137-1.664 5.076-2.657 8.576-1.578 5.563-3.375 12.461-5.249 19.655l-1.461 5.599c-2.39 9.134-4.845 18.313-7.065 25.399-1.109 3.539-2.171 6.595-3.15 8.876-.488 1.137-.973 2.123-1.451 2.892-.439.705-1.013 1.467-1.762 1.853-.719.37-1.558.419-2.308.371-.784-.051-1.673-.224-2.623-.475-1.903-.502-4.247-1.37-6.85-2.45-4.276-1.775-9.403-4.19-14.666-6.669l-.004-.002c-1.148-.54-2.301-1.084-3.454-1.624-6.476-3.036-12.928-5.983-18.194-7.876-2.638-.947-4.914-1.607-6.712-1.892-.898-.143-1.629-.184-2.198-.139-.578.045-.895.171-1.054.277-.5.334-1.195 1.268-1.963 3.068-.736 1.725-1.439 3.997-2.104 6.672-1.33 5.343-2.464 12.111-3.432 18.925-.844 5.949-1.556 11.896-2.157 16.918v.001l-.001.011-.003.018c-.085.715-.168 1.411-.25 2.085a367.753 367.753 0 0 1-.876 6.914c-.25 1.78-.492 3.226-.742 3.973l-2.845-.952c.144-.43.353-1.572.617-3.44.255-1.806.542-4.145.868-6.853l.253-2.11v-.001c.6-5.02 1.317-11.002 2.166-16.985.971-6.84 2.123-13.731 3.49-19.229.684-2.745 1.432-5.19 2.257-7.124.793-1.859 1.77-3.528 3.057-4.387.735-.49 1.61-.703 2.485-.772.883-.069 1.865.002 2.901.167 2.072.328 4.552 1.06 7.257 2.032 5.418 1.947 11.992 4.953 18.453 7.983 1.168.547 2.33 1.095 3.484 1.638l.006.003c5.261 2.477 10.307 4.854 14.511 6.599 2.566 1.065 4.761 1.871 6.466 2.321.853.225 1.535.348 2.051.381.255.016.443.009.576-.008a.878.878 0 0 0 .162-.035l.007-.007.001-.001c.041-.037.245-.221.582-.763.365-.588.782-1.419 1.242-2.491.918-2.14 1.945-5.082 3.044-8.59 2.196-7.008 4.633-16.12 7.026-25.262.487-1.862.973-3.726 1.454-5.573v-.001l.001-.002v-.004c1.875-7.197 3.683-14.136 5.271-19.733.997-3.515 1.916-6.534 2.719-8.77.401-1.115.784-2.07 1.146-2.808.181-.368.37-.71.569-1.002.184-.27.447-.604.806-.847l.043-.029.046-.026c.413-.24.85-.303 1.181-.317a5.14 5.14 0 0 1 1.056.08c.696.118 1.519.357 2.417.67 1.808.63 4.135 1.639 6.784 2.875 4.172 1.947 9.256 4.516 14.551 7.191l.014.007c1.431.723 2.878 1.454 4.326 2.183 6.836 3.438 13.712 6.827 19.289 9.165 2.792 1.171 5.21 2.058 7.109 2.56.951.25 1.727.393 2.33.437.634.045.923-.03 1.005-.068-.001 0-.001 0 0 0a.897.897 0 0 0 .191-.159c.125-.127.28-.317.461-.588.362-.546.762-1.322 1.192-2.336.858-2.022 1.758-4.802 2.688-8.133 1.858-6.652 3.783-15.294 5.705-24.009l.278-1.257v-.001c1.824-8.272 3.643-16.522 5.385-23.007.915-3.404 1.82-6.368 2.708-8.615.444-1.121.899-2.105 1.369-2.889.445-.742 1.009-1.488 1.741-1.911.721-.418 1.551-.532 2.338-.513.798.02 1.675.179 2.591.427 1.831.497 4.02 1.407 6.416 2.578 4.803 2.349 10.667 5.866 16.578 9.642 5.92 3.781 11.929 7.85 17.027 11.318l1.34.912h.001c4.504 3.065 8.138 5.538 10.21 6.795l-1.556 2.565c-2.144-1.3-5.845-3.82-10.305-6.855l-1.378-.937c-5.097-3.467-11.074-7.514-16.954-11.27-5.888-3.761-11.636-7.203-16.281-9.475-2.328-1.138-4.321-1.954-5.884-2.378-.781-.212-1.404-.311-1.877-.323Zm-82.769 48.319Zm89.583-36.54c-.483-.01-.694.076-.757.113-.056.033-.299.236-.677.867-.352.59-.738 1.409-1.151 2.455-.825 2.089-1.695 4.924-2.6 8.293-1.721 6.402-3.524 14.564-5.353 22.842v.001l-.282 1.276c-1.92 8.686-3.864 17.407-5.751 24.148-.942 3.367-1.884 6.291-2.818 8.49-.467 1.097-.95 2.06-1.456 2.821-.48.722-1.1 1.448-1.908 1.816-.755.344-1.636.389-2.463.33-.858-.062-1.832-.252-2.88-.529-2.098-.554-4.666-1.503-7.504-2.694-5.685-2.384-12.649-5.817-19.476-9.252-1.461-.734-2.914-1.468-4.348-2.193l-.017-.008-.008-.005h-.003c-5.287-2.672-10.312-5.21-14.436-7.136-2.628-1.227-4.844-2.182-6.503-2.76-.834-.291-1.475-.468-1.93-.545a3.58 3.58 0 0 0-.211-.03c-.081.132-.178.31-.291.541-.29.595-.628 1.434-1.011 2.508-.764 2.142-1.658 5.085-2.647 8.587-1.551 5.495-3.315 12.287-5.158 19.38l-.003.011-.001.003c-.503 1.939-1.013 3.9-1.525 5.864-2.385 9.134-4.835 18.311-7.057 25.396-1.11 3.539-2.175 6.595-3.158 8.877-.49 1.138-.978 2.124-1.459 2.894-.443.708-1.02 1.469-1.773 1.854-.719.369-1.559.42-2.313.372-.787-.049-1.678-.221-2.631-.471-1.909-.501-4.256-1.369-6.862-2.449-4.3-1.782-9.455-4.211-14.744-6.702v-.001c-1.124-.529-2.254-1.061-3.384-1.591-6.474-3.037-12.922-5.984-18.186-7.878-2.636-.948-4.911-1.608-6.708-1.893-.897-.143-1.627-.184-2.196-.14-.577.046-.894.171-1.053.278-.501.333-1.195 1.267-1.963 3.067-.736 1.725-1.439 3.997-2.104 6.672-1.33 5.344-2.465 12.111-3.432 18.926-.845 5.948-1.556 11.895-2.157 16.918l-.254 2.115a369.666 369.666 0 0 1-.876 6.914c-.251 1.779-.492 3.226-.742 3.972l-2.845-.951c.144-.431.353-1.573.616-3.441.255-1.806.543-4.144.869-6.852l.253-2.11V189c.6-5.02 1.316-11.002 2.166-16.986.97-6.84 2.123-13.731 3.49-19.228.683-2.746 1.431-5.19 2.256-7.125.793-1.859 1.77-3.527 3.058-4.386.735-.49 1.61-.704 2.484-.772.883-.069 1.865.002 2.9.167 2.07.328 4.55 1.061 7.254 2.033 5.414 1.948 11.984 4.955 18.444 7.985 1.143.536 2.282 1.072 3.41 1.604l.004.001c5.287 2.491 10.362 4.881 14.589 6.634 2.568 1.064 4.766 1.869 6.475 2.318.855.225 1.539.347 2.058.379.257.016.447.009.582-.009a.772.772 0 0 0 .172-.038l.007-.006c.039-.035.247-.217.592-.769.368-.588.786-1.418 1.248-2.491.921-2.14 1.95-5.08 3.05-8.588 2.197-7.006 4.631-16.115 7.017-25.256.511-1.956 1.019-3.915 1.523-5.853v-.001c1.844-7.098 3.619-13.933 5.18-19.461.993-3.518 1.909-6.54 2.708-8.78.398-1.117.78-2.074 1.14-2.813.18-.37.367-.712.565-1.005.181-.27.441-.604.793-.849l.051-.035.053-.03c.413-.24.85-.303 1.181-.317.348-.015.708.021 1.056.08.696.118 1.519.356 2.418.67 1.807.63 4.135 1.638 6.783 2.875 4.171 1.947 9.254 4.514 14.548 7.189h.001l.002.002 4.341 2.19c6.835 3.438 13.712 6.826 19.288 9.165 2.792 1.171 5.211 2.058 7.11 2.56.95.251 1.727.393 2.33.437.633.045.922-.031 1.004-.068.005-.003.07-.037.191-.159.126-.127.281-.317.462-.588.362-.545.763-1.321 1.193-2.333.858-2.02 1.759-4.798 2.69-8.125 1.86-6.646 3.786-15.28 5.711-23.987l.288-1.306c1.823-8.25 3.64-16.474 5.378-22.945.915-3.403 1.82-6.368 2.708-8.616.443-1.122.897-2.106 1.366-2.892.445-.743 1.006-1.489 1.733-1.916.72-.422 1.551-.54 2.339-.524.799.017 1.676.175 2.592.422 1.832.494 4.021 1.403 6.417 2.574 4.803 2.347 10.668 5.866 16.58 9.645 5.92 3.785 11.931 7.859 17.029 11.329l1.28.871h.001l.002.003c4.533 3.086 8.188 5.575 10.268 6.835l-1.554 2.566c-2.153-1.304-5.876-3.84-10.362-6.894l-.005-.004-1.318-.897c-5.099-3.47-11.077-7.522-16.957-11.28-5.89-3.766-11.638-7.21-16.282-9.48-2.327-1.137-4.319-1.95-5.88-2.372-.78-.21-1.402-.308-1.874-.318Zm-82.78 48.291h.009H139.06Z" fill="#6C84F5"/></svg>