<svg width="132" height="18" viewBox="0 0 132 18" fill="none" xmlns="http://www.w3.org/2000/svg"><path fill-rule="evenodd" clip-rule="evenodd" d="M94.589 12.914c-.045-.034-1.856.002-4.026.08-2.17.077-4.704.143-5.631.146-2.483.01-3.067.034-3.24.135-.086.05-.194.062-.24.026-.109-.083-1.726-.09-4.764-.022-1.332.03-2.476.03-2.544-.002-.067-.031-.738-.066-1.49-.076-.751-.01-1.39-.067-1.42-.126-.03-.058-.201-.054-.383.01-.294.104-.688.132-1.513.108-.184-.006-.236-.078-.173-.239.085-.215.072-.214-.175.014-.219.201-.42.238-1.132.206a17.07 17.07 0 0 0-1.592.011c-.448.031-.728-.006-.732-.096-.005-.097-.17-.107-.5-.028-.271.065-.562.116-.646.112a54.5 54.5 0 0 0-1.303.023c-.631.015-1.213.001-1.291-.031-.173-.072-.643-.09-2.548-.097a50.286 50.286 0 0 1-1.918-.036 44.912 44.912 0 0 0-3.454-.085c-.632.01-1.53-.03-1.998-.09-.867-.113-2.736-.167-3.671-.108-.287.019-.582-.039-.655-.127-.109-.131-.133-.13-.128.008.005.16-.354.17-1.534.045a27.587 27.587 0 0 0-2.46-.157 88.207 88.207 0 0 1-1.69-.043 77.795 77.795 0 0 0-1.84-.04c-.55-.005-.998-.017-.999-.027 0-.019-.236-.059-.829-.14-.2-.028-.892-.063-1.537-.078-1.263-.03-1.787-.056-1.788-.09 0-.012-.415-.029-.922-.038-1.471-.026-2.094-.059-2.997-.16a31.12 31.12 0 0 0-1.693-.131l-1.45-.065c-.332-.015-.674-.08-.758-.145-.1-.077-.253-.069-.431.022a.667.667 0 0 1-.562.028c-.157-.062-.66-.108-1.116-.101-.457.006-1.006-.035-1.22-.092a4.764 4.764 0 0 0-.925-.112c-1.263-.023-2.395-.123-2.565-.228-.115-.071-.216-.065-.27.017-.056.084-.262.094-.587.029a9.847 9.847 0 0 0-1.328-.126c-.455-.012-.89-.052-.966-.087-.076-.035-.43-.075-.788-.089a16.362 16.362 0 0 1-2.191-.203c-.34-.055-.737-.063-.883-.018-.145.045-.267.034-.27-.024-.003-.058-.204-.101-.447-.097a2.998 2.998 0 0 1-.732-.078c-.159-.047-.647-.08-1.085-.075-.437.005-.892-.051-1.01-.125a1.082 1.082 0 0 0-.513-.129c-.956.024-1.784-.036-1.955-.141-.108-.066-.422-.15-.698-.187-.276-.036-.504-.105-.506-.152-.003-.048-.229-.09-.503-.093-.843-.011-1.116-.075-1.076-.25.029-.122-.013-.129-.154-.023-.27.203-1.106.111-1.493-.164-.178-.127-.435-.225-.57-.219-.336.016-1.228-.677-1.025-.795.086-.05.11-.2.053-.333-.115-.267.034-.602.194-.434.055.058.259.172.453.252.31.13.35.118.34-.098-.007-.137.124-.28.297-.328.26-.07.295-.038.218.201-.051.156-.2.367-.33.467-.208.16-.19.172.142.093.208-.05.428-.094.489-.097.06-.004.066-.093.013-.197-.054-.104-.022-.193.072-.197.093-.005.172.048.175.117.003.068.114.084.247.034s.306-.013.385.083c.117.141.142.134.136-.039-.004-.116.11-.26.255-.32.395-.161 1.549-.177 1.792-.023.16.102.27.08.449-.084.19-.177.237-.184.244-.036.005.1.145.277.312.392.295.204.299.197.152-.264-.113-.357-.098-.524.062-.673.287-.265.668-.143.688.221.011.202.053.24.133.123.068-.1.232-.14.392-.096.151.04.318.01.37-.068.107-.163 1.249.028 1.257.21.003.057-.058.075-.135.04-.077-.036-.176.025-.22.135-.065.163-.025.172.216.05.163-.084.298-.112.3-.063.002.05.137-.022.3-.159.265-.223.295-.226.304-.034.006.117.114.209.24.203.126-.006.385.108.575.254.225.172.31.195.244.065-.146-.283.018-.38.29-.171.303.231.518.214.506-.041-.005-.113.078-.183.184-.157.107.027.182.182.168.344-.023.261.002.273.22.105.222-.172.24-.15.193.23-.043.335-.014.389.141.269.117-.09.152-.273.087-.46-.1-.286-.07-.307.442-.303.554.006.78.183.648.51-.038.097.034.242.16.322.19.12.244.078.314-.252.064-.304.168-.403.438-.416.379-.017.617.253.4.454-.077.072.003.185.195.275.18.084.277.093.218.019-.064-.078.019-.14.198-.148.168-.008.35.041.406.11.204.253.392.102.278-.224-.089-.254-.065-.323.098-.286.119.027.244.199.279.382.064.336.456.692.608.55.045-.04-.042-.22-.194-.397-.165-.193-.207-.325-.104-.33.094-.004.173.038.175.094.003.056.217.105.477.11.289.005.431-.041.368-.12-.157-.195.158-.164.376.037.105.098.281.143.391.102.11-.041.242-.023.294.041.051.064.258.082.46.04.2-.042.414-.016.475.06.141.175 1.165.13 1.156-.05-.003-.076.072-.101.167-.057.124.057.122.11-.007.186-.25.146.048.273.836.357.446.047.674.012.822-.125.287-.266.54-.252.432.025-.083.212-.071.213.147.013.277-.254.83-.226 1.26.063.405.273.734.306.608.06-.055-.107-.033-.197.048-.201a.146.146 0 0 1 .155.136c.005.094.19.106.538.034.462-.096.534-.077.544.144.013.268.786.819.937.667.048-.048 0-.11-.107-.137-.107-.027-.199-.154-.205-.284-.015-.319.52-.224.727.129l.156.263.299-.277c.27-.25.34-.262.712-.118.361.14.412.135.404-.038-.005-.111.124-.204.297-.212.168-.008.308.044.312.115.003.07.178.12.388.11.21-.01.386.047.39.126.003.078.1.107.213.064.125-.047.204.003.198.125-.006.123.127.207.337.211.318.008.328-.013.121-.254-.207-.242-.196-.263.139-.266.2-.002.41.032.47.077.057.045.187.018.287-.06.245-.189 1.033.07.938.308-.084.21.105.22.326.014.115-.107.25-.114.474-.025.245.097.331.08.392-.071.043-.108.205-.202.36-.209.399-.019 1.2.653 1.095.918-.053.133-.024.177.076.119.088-.052.12-.207.069-.346-.11-.302-.004-.62.21-.63.083-.004.117.082.073.19-.088.222.298.26.441.045.049-.074.205-.135.348-.136.16-.001.187.026.07.072-.103.04-.177.2-.164.353.024.27.028.271.144.015.065-.145.127-.188.138-.096.01.093.086.13.168.082.082-.048.155-.011.162.082.008.102.099.062.231-.1.188-.23.24-.242.373-.082.085.102.128.257.095.344-.035.09.027.125.147.08.245-.093.403-.431.274-.59-.12-.149.113-.155.627-.017.272.074.387.179.336.308-.044.108-.012.193.07.189.081-.004.145-.062.142-.128-.012-.265.649-.097.802.205.13.255.185.278.292.119a.504.504 0 0 0 .034-.427c-.086-.203-.033-.224.417-.172.283.033.637.053.786.045.149-.008.233.042.188.11-.046.07.018.121.142.116.124-.006.252-.085.283-.176.044-.128.114-.128.318 0 .145.091.4.128.569.082.168-.045.407-.005.532.09.138.107.259.122.313.04.12-.18.82-.151 1.029.043.129.119.09.16-.16.173-.297.014-.31.044-.127.297.176.243.21.25.25.053.025-.126.173-.235.329-.242a.877.877 0 0 0 .478-.194c.107-.099.605-.213 1.114-.254.789-.064.985-.033 1.375.223.416.273.983.298.77.035-.05-.062-.023-.115.06-.12.081-.003.187.065.233.152.068.126.086.125.09-.005.007-.253 1.03-.252 1.216.002.127.173.197.18.378.041.178-.137.24-.139.31-.009.06.114.123.12.207.018.066-.08.36-.152.656-.16.453-.013.53.027.504.258a.502.502 0 0 0 .222.432c.223.141.24.122.139-.166-.065-.187-.045-.368.047-.421.089-.052.164-.03.168.047.004.082.181.108.425.063.23-.043.417-.088.416-.1 0-.011.197-.058.437-.102.387-.072.43-.049.365.2-.067.26-.054.264.187.062.323-.272.615-.295.627-.05a.353.353 0 0 0 .192.271c.123.058.148.017.075-.125-.08-.155-.023-.214.212-.225.255-.012.286.023.154.17-.133.15-.09.183.22.168.224-.01.381-.092.376-.196-.011-.237.24-.238.362 0 .054.104.186.18.293.17.153-.016.154-.032.001-.076-.107-.031-.197-.112-.2-.18-.003-.072.122-.071.307.002.172.068.31.076.307.018-.011-.249.837-.182 1.332.105.506.293.527.295.515.04-.016-.333.514-.385.751-.074.092.121.165.147.164.057-.002-.094.196-.171.472-.184.328-.015.454.03.407.15-.09.222.98.247 1.126.025.057-.086.186-.118.286-.072.132.062.138.133.022.263-.096.107-.101.206-.013.246.08.038.178-.056.217-.207l.072-.276.467.252c.546.294.718.311.589.06-.051-.1-.012-.214.086-.253.1-.04.046-.07-.119-.067-.182.002-.244-.044-.159-.119.077-.067.363-.103.636-.08.394.033.491.098.475.32-.012.163.057.26.169.236.104-.023.194.031.2.12.006.107.056.094.149-.04.076-.11.144-.142.15-.071.006.07.065.049.131-.048.066-.098.403-.223.749-.279.531-.086.68-.056.96.19.299.265.32.269.233.034-.072-.193-.02-.27.208-.3a5.905 5.905 0 0 1 1.3-.05c.254.015.669.029.922.03.42.002.437.019.197.19-.25.176-.246.189.05.24.202.034.31-.01.304-.124-.005-.103.088-.152.217-.117a.612.612 0 0 0 .408-.044c.1-.059.463-.108.807-.11l1.353-.011c.462-.004.73.053.736.156.004.098.216.151.543.136.294-.014.532-.087.529-.162-.004-.075.067-.103.157-.061.09.041.259.002.376-.089.147-.113.344-.133.642-.063.236.055.694.064 1.017.02.414-.057.558-.035.486.072-.062.094-.01.133.133.101.13-.028.35.06.493.195.254.243.256.242.15-.04-.078-.205-.043-.289.122-.296.127-.007.279.049.338.122.06.073.203.097.318.053.117-.044.215 0 .22.097.015.333.466.313.708-.032.195-.276.343-.335.845-.333.343 0 .648.076.697.172.048.095.19.133.314.087.124-.047.335-.017.47.067.21.131.23.112.141-.134-.056-.157-.082-.287-.057-.288.155-.007.932.356 1.05.492.09.103.102.037.032-.178l-.111-.341 1.34-.014c.737-.007 1.412.041 1.498.108.087.066.21.335.274.596.063.262.202.496.31.52.149.036.153-.034.018-.299-.096-.189-.142-.374-.102-.41.04-.038-.002-.173-.092-.302-.128-.181-.112-.237.07-.245.13-.006.238.043.24.11.004.066.127.109.273.094.147-.015.417.007.6.049.2.045.412.005.532-.1.323-.284.794-.233 1.005.11l.195.314-.005-.36c-.005-.358 0-.36.878-.339.485.012 1.205.009 1.6-.006.596-.023.736.018.834.247.105.243.133.249.251.052.104-.174.2-.196.437-.102.21.082.302.078.298-.014-.004-.073.097-.138.223-.144.126-.006.227-.067.224-.135-.01-.198 2.852-.207 3.165-.01.218.137.276.135.325-.007.044-.128.172-.099.474.107.228.154.315.182.195.061-.272-.271-.125-.442.203-.235.196.124.24.12.237-.025-.002-.12.074-.1.231.06.13.132.279.198.333.149.053-.05.199.006.323.123.166.157.246.17.299.048.04-.091.154-.135.254-.098.1.038.012-.037-.195-.165-.243-.151-.318-.268-.212-.33.091-.053.325.044.519.215.375.332.851.412.701.118-.088-.171.132-.475.352-.486.061-.002.148.125.193.282.08.281.083.282.175.016.085-.247.202-.275 1.27-.3.647-.015 1.195-.016 1.216-.002.12.076 1.395-.007 1.7-.111.229-.078.441-.07.588.023.153.097.263.1.327.009.178-.252.758-.323.974-.119.176.167.166.185-.066.124-.168-.045-.268-.01-.264.09.014.289.586.191.67-.114.065-.24.104-.256.238-.1.088.103.158.12.155.04-.007-.222.429-.343.761-.212.168.067.325.065.371-.003.094-.144 1.321-.165 1.616-.028.138.064.169.048.093-.047-.075-.092.009-.147.237-.154.339-.01 1.419-.167 1.417-.206-.001-.01.325-.052.724-.093.398-.041.727-.037.729.008.003.046.314.074.693.062.507-.015.686-.07.679-.209-.005-.122.096-.17.293-.136.166.029.331-.016.367-.099.036-.083.075-.045.088.084.021.213.044.215.254.02.217-.202.371-.237 1.507-.344.252-.024.605-.09.785-.148.179-.057.372-.048.427.02.064.08.233.076.462-.01.252-.093.386-.088.443.017.046.083.083.05.084-.075.001-.125.053-.231.116-.237.482-.043 1.378-.239 1.593-.348.214-.107.265-.077.279.163.013.238.043.256.155.094.115-.165.141-.168.15-.018.006.1.053.144.104.097.051-.047.224-.034.385.03.336.133.345.11.121-.33-.129-.254-.117-.327.052-.335.119-.005.26.044.313.11.108.133.562.002.711-.205.054-.075.282-.166.508-.202.225-.036.504-.154.62-.26.168-.157.269-.167.515-.052.168.079.308.182.31.23.006.119.318.049.721-.162.256-.134.338-.14.344-.022.004.092.126.054.303-.095.438-.37.55-.155.215.412-.225.383-.256.57-.134.811.11.216.107.332-.009.37-.092.031-.227.204-.298.385-.072.18-.261.364-.42.407-.16.043-.321.155-.358.248-.074.184-2.847 1.069-3.102.99-.033-.01-.11.056-.171.148-.061.092-.749.299-1.529.46-.78.162-1.588.336-1.797.387a15.32 15.32 0 0 1-1.217.206c-.461.06-.97.15-1.131.198-.161.049-.675.123-1.142.166-.467.043-1.019.125-1.227.182-.209.056-.963.15-1.677.209-.714.058-1.298.114-1.298.124.001.01-.29.055-.647.099-.397.05-.65.027-.654-.059-.004-.094-.073-.087-.213.021-.113.088-.764.195-1.445.239-.682.043-1.238.111-1.236.15.002.04-1.114.14-2.481.224-1.366.084-2.587.16-2.713.169-.126.009-.678.017-1.226.017-.548.001-1.167.046-1.375.1-.209.054-.605.067-.881.029-.276-.039-.499-.023-.496.036.002.06-.186.084-.419.056-.598-.073-5.97.159-6.652.287-.311.059-.602.079-.646.045Zm13.404-3.277c-.001-.051-.099-.056-.218-.012-.119.045-.173.167-.119.272.079.154.12.156.218.01.067-.097.12-.22.119-.27Zm-29.35 1.576c.004-.054.025-.2.048-.327.022-.125-.013-.197-.078-.16-.178.104-.275.598-.116.59.076-.003.142-.05.146-.103Zm17.736-.798c0-.031-.073-.09-.159-.13-.086-.04-.154-.01-.15.065.003.075.075.133.16.13.083-.005.151-.034.15-.065Zm-6.064-.174c.049-.073.015-.13-.074-.126-.089.004-.159.066-.156.137.004.07.037.128.074.126.037-.002.107-.063.156-.137Zm-13.395.446c-.002-.031-.073-.09-.16-.13-.086-.04-.154-.01-.15.065.004.075.075.133.16.13.084-.005.151-.034.15-.065Zm.875-.062c-.052-.04-.185-.04-.293.003-.12.047-.083.076.096.074.161-.002.25-.037.197-.077Zm.575-.079c.048-.073-.023-.128-.16-.121-.135.006-.202.067-.146.136.055.068.127.123.159.122.032-.002.098-.063.147-.137Zm1.607-.06c-.003-.063-.162-.14-.353-.171-.336-.055-.337-.051-.042.116.357.202.402.208.395.055Zm-5.511.188c-.001-.032-.073-.09-.16-.13-.086-.04-.153-.01-.15.064.004.075.075.134.16.13.084-.004.151-.033.15-.064Zm-7.086.184c-.053-.04-.185-.04-.294.003-.12.047-.082.076.097.074.161-.002.25-.037.197-.077Zm1.654-.542c-.054-.1-.089-.068-.089.082 0 .137.04.211.089.166.048-.045.049-.157 0-.248Zm53.745-2.578c-.016-.325-.255-.3-.272.029-.009.186.047.285.132.236a.321.321 0 0 0 .14-.265Zm-63.57 2.937c.05-.074.016-.13-.073-.126-.089.004-.159.066-.156.137.004.07.037.127.074.126.037-.002.107-.064.156-.137Zm8.436-.47c.042-.105.138-.194.213-.197.22-.01.167.216-.071.306-.146.055-.193.019-.142-.109Zm59.704-2.825c-.179-.166-.172-.218.043-.332.358-.19.322-.43-.038-.247-.153.078-.336.104-.405.056-.069-.048-.075.018-.013.145s.116.314.121.415c.005.1.12.178.257.171.21-.01.215-.042.035-.208Zm-76.392 3.272c-.053-.1-.088-.068-.089.083 0 .136.04.21.089.165.049-.045.049-.157 0-.248Zm73.493-3.244c-.002-.032-.073-.09-.16-.13-.086-.04-.154-.01-.15.064.004.075.075.134.159.13.085-.004.152-.033.151-.064Zm.455-.094c-.003-.071-.075-.126-.159-.122-.084.004-.15.065-.147.136.004.071.075.126.159.122.085-.004.151-.065.147-.136Zm-74.363 3.253c-.007-.142-.075-.256-.151-.252-.076.004-.097.121-.047.26.051.14.12.254.151.253.033-.002.053-.12.047-.261Zm.918-.044c-.004-.07-.037-.127-.074-.126-.037.002-.107.064-.156.137-.048.073-.015.13.074.126.089-.004.16-.066.156-.137Zm-1.439-.215c-.054-.1-.089-.068-.089.083 0 .136.04.21.089.165.048-.045.049-.157 0-.248Zm79.276-4.15c-.004-.095-.111-.168-.237-.162-.242.012-.293.128-.116.264.176.135.362.08.353-.102ZM29.225 8.977c-.06-.073-.076-.162-.038-.198.039-.036.115.023.17.13.114.223.028.267-.132.068ZM14.11 7.989c-.114-.087-.186-.091-.182-.01.003.073.054.17.112.214.058.045.14.05.182.01.042-.038-.009-.134-.112-.214ZM5.477 7.6c-.001-.026-.127-.122-.279-.213-.25-.149-.255-.144-.055.052.21.206.339.268.334.162ZM7.7 6.898c-.038-.283-.28-.35-.268-.074.008.154.152.338.262.333.023-.001.026-.118.006-.26Z" fill="#F55116"/></svg>