<svg width="54" height="7" fill="none" xmlns="http://www.w3.org/2000/svg"><path fill-rule="evenodd" clip-rule="evenodd" d="M39.156 6.433c-.02-.028-.768.004-1.661.073-.893.068-1.938.128-2.322.132-1.027.012-1.267.033-1.332.118-.032.042-.076.053-.098.023-.05-.07-.72-.074-1.973-.012-.55.028-1.023.028-1.053.002-.03-.026-.31-.054-.621-.061-.312-.008-.58-.055-.596-.104-.017-.05-.087-.045-.158.009-.115.087-.276.112-.62.092-.076-.004-.103-.064-.087-.2.021-.181.016-.18-.072.012-.077.17-.158.2-.454.175a3.468 3.468 0 0 0-.659.012c-.183.027-.302-.004-.31-.08-.007-.082-.076-.09-.208-.023a.832.832 0 0 1-.26.095 10.91 10.91 0 0 0-.538.021c-.26.014-.502.004-.536-.024-.077-.06-.272-.074-1.061-.077a10.31 10.31 0 0 1-.796-.028 9.27 9.27 0 0 0-1.436-.067c-.26.01-.635-.023-.832-.073-.367-.093-1.144-.136-1.527-.084-.118.016-.244-.032-.28-.107-.053-.11-.063-.108-.052.008.013.134-.135.143-.632.04a5.89 5.89 0 0 0-1.029-.129c-.192-.005-.508-.02-.701-.034a16.11 16.11 0 0 0-.765-.03 2.953 2.953 0 0 1-.415-.021c-.002-.016-.101-.05-.352-.118a4.523 4.523 0 0 0-.642-.063c-.524-.022-.743-.044-.746-.072 0-.01-.173-.024-.384-.03-.61-.02-.87-.048-1.25-.131a6.734 6.734 0 0 0-.71-.109l-.604-.052c-.139-.012-.284-.066-.324-.121-.046-.064-.109-.057-.176.02-.07.078-.15.086-.231.024-.07-.052-.28-.09-.469-.084-.189.006-.418-.028-.51-.075a1.097 1.097 0 0 0-.39-.093c-.525-.017-1-.1-1.077-.188-.053-.06-.094-.054-.11.015-.019.07-.104.08-.242.025a2.19 2.19 0 0 0-.558-.104c-.19-.01-.372-.043-.405-.072-.034-.03-.184-.063-.332-.074a3.618 3.618 0 0 1-.92-.167c-.145-.046-.31-.052-.367-.014-.057.038-.108.03-.113-.02-.005-.048-.092-.085-.192-.081a.682.682 0 0 1-.308-.064c-.069-.04-.273-.068-.454-.062-.18.005-.372-.042-.426-.104a.317.317 0 0 0-.22-.107c-.395.02-.742-.029-.82-.117a.716.716 0 0 0-.3-.156c-.117-.03-.215-.087-.22-.127-.004-.04-.1-.075-.214-.078-.35-.008-.467-.06-.461-.208.004-.103-.014-.109-.066-.02-.098.172-.45.096-.628-.136C.769 3.222.656 3.14.6 3.145c-.138.014-.553-.568-.476-.667.032-.043.032-.17 0-.281C.06 1.972.1 1.69.177 1.83a.965.965 0 0 0 .204.212c.137.108.152.098.134-.083-.011-.115.033-.237.102-.276.103-.06.12-.033.103.168-.01.132-.058.309-.106.394-.076.135-.067.145.065.078a1.08 1.08 0 0 1 .196-.083c.025-.003.021-.078-.008-.165-.029-.088-.021-.163.017-.167.039-.004.075.04.08.099.006.057.053.07.105.028.052-.042.126-.011.165.07.057.118.067.112.053-.033-.009-.099.03-.22.085-.27.153-.137.63-.151.74-.022.074.085.118.067.18-.072.068-.15.087-.155.1-.03a.788.788 0 0 0 .154.33c.135.17.137.164.046-.224-.07-.3-.075-.44-.018-.566.101-.224.267-.121.299.185.018.17.038.203.063.103.022-.084.087-.118.156-.081.065.034.132.008.149-.058.034-.137.518.022.534.175.005.048-.02.064-.054.034s-.071.021-.082.114c-.016.137 0 .145.093.04.062-.07.116-.093.12-.052.004.042.055-.019.113-.134.096-.188.108-.191.124-.03.01.1.061.176.113.171.052-.005.166.09.254.213.104.144.141.164.106.055-.08-.238-.018-.32.109-.145.14.194.228.18.206-.035-.01-.095.02-.154.066-.132.046.022.088.152.092.289.008.22.019.23.098.088.08-.145.09-.126.095.193.004.282.02.328.076.226.042-.076.045-.23.006-.386-.06-.242-.05-.26.163-.256.23.003.334.152.302.428-.01.082.03.204.087.27.086.102.106.066.113-.212.007-.256.043-.34.154-.35.156-.016.273.211.196.38-.028.062.013.157.098.232.08.07.12.077.092.016-.032-.066-.002-.118.072-.126.069-.006.148.035.175.093.101.212.169.085.1-.19-.053-.213-.047-.271.023-.24.05.022.114.167.14.321.048.283.234.581.287.463.016-.035-.031-.186-.106-.335-.08-.162-.106-.273-.064-.277.038-.004.074.031.078.078.005.047.097.089.205.092.12.004.176-.035.145-.1-.078-.165.054-.14.157.03.05.081.126.12.169.085.043-.035.099-.02.124.034.026.054.112.068.193.033.08-.036.17-.014.2.049.07.147.491.108.476-.044-.006-.063.023-.085.066-.048.055.049.057.093.008.157-.094.123.038.23.37.299.187.04.28.01.332-.106.101-.225.207-.213.18.02-.02.178-.015.18.062.01.098-.213.33-.19.526.052.185.23.323.256.255.05-.03-.09-.026-.166.007-.17.034-.003.067.049.073.115.008.08.086.089.225.027.185-.08.216-.065.235.121.022.226.378.688.43.56.017-.04-.006-.093-.052-.115-.046-.022-.093-.13-.104-.239-.027-.268.2-.19.31.107l.081.222.106-.234c.095-.21.124-.22.287-.1.159.117.18.113.165-.033-.01-.094.038-.172.109-.179.069-.007.13.036.136.096.006.06.082.102.168.093.087-.009.163.038.17.105.006.066.048.09.092.054.05-.04.085.002.09.105.006.103.066.173.153.177.133.006.135-.012.034-.214-.101-.204-.098-.221.04-.225.083-.002.173.027.2.065.026.037.078.014.115-.05.089-.16.432.055.408.256-.021.178.058.185.136.012.04-.09.096-.096.195-.022.107.081.142.068.157-.06.01-.09.072-.17.136-.177.163-.016.539.548.513.771-.014.112 0 .15.039.1.033-.043.035-.174.006-.291-.065-.254-.042-.522.045-.53.035-.004.054.068.043.16-.022.187.14.218.186.036.015-.062.076-.113.135-.114.066-.002.079.022.034.06-.04.035-.06.169-.045.298.027.227.029.228.06.012.018-.122.04-.159.051-.08.01.077.044.108.075.067.03-.04.063-.01.072.069.01.086.045.053.09-.084.062-.194.083-.204.149-.07.041.086.07.216.061.29-.008.076.02.105.066.067.096-.079.139-.364.075-.498-.059-.125.037-.13.259-.014.117.061.172.15.159.258-.011.091.008.163.04.16.034-.004.057-.053.052-.109-.023-.223.262-.082.345.171.07.215.095.234.128.1a.825.825 0 0 0-.013-.36c-.049-.17-.029-.188.161-.145.12.028.267.044.328.037.061-.007.1.035.085.093-.014.058.016.102.067.097.05-.005.098-.072.105-.148.01-.108.04-.108.132 0 .066.075.174.106.24.067.067-.038.17-.004.227.075.064.09.115.103.132.034.038-.152.33-.129.429.034.061.1.048.135-.055.145-.122.013-.125.038-.033.25.088.205.103.211.106.045.003-.106.057-.198.12-.204.065-.007.149-.08.186-.164.038-.083.237-.18.445-.216.322-.055.405-.028.584.186.19.23.426.25.32.028-.024-.051-.016-.096.017-.1.034-.003.082.054.107.127.036.106.044.105.037-.004-.014-.213.41-.214.503 0 .064.145.094.151.16.033.064-.115.09-.117.127-.007.032.095.059.1.087.014.022-.067.14-.129.26-.136.188-.011.223.023.227.217.002.126.056.29.12.364.101.118.107.102.046-.14-.039-.157-.042-.31-.008-.355.034-.044.066-.026.073.04.007.068.082.09.18.052a.54.54 0 0 0 .166-.085c-.001-.01.077-.049.174-.087.155-.06.175-.041.164.167-.011.22-.005.224.081.053.116-.23.236-.249.256-.042a.402.402 0 0 0 .098.227c.054.048.062.014.023-.105-.043-.13-.024-.18.073-.19.104-.01.12.019.075.143-.046.126-.026.154.101.14.093-.008.152-.077.144-.164-.02-.2.084-.201.15-.002.028.088.088.152.132.143.062-.013.061-.027-.005-.064a.216.216 0 0 1-.094-.15c-.006-.061.045-.061.127 0 .075.057.133.064.128.015-.02-.21.334-.154.558.086.229.246.238.248.216.034-.028-.28.188-.326.306-.064.046.102.078.123.072.048-.007-.08.07-.144.183-.156.135-.013.19.026.178.125-.022.188.422.207.468.02.018-.072.07-.1.113-.06.06.05.067.11.027.22-.033.09-.029.174.01.208.036.031.07-.048.077-.175l.012-.232.21.21c.245.248.317.262.247.05-.028-.083-.019-.18.02-.212.038-.034.013-.059-.054-.057-.076.002-.104-.036-.074-.1.028-.056.144-.087.258-.068.165.027.21.082.217.268.006.138.041.22.086.2.041-.02.082.025.09.1.01.09.03.08.06-.033.024-.093.05-.12.057-.061.007.06.03.041.051-.041.021-.082.152-.188.292-.236.214-.073.277-.048.41.16.14.222.15.225.098.027-.042-.162-.025-.226.067-.253.193-.057.327-.067.535-.043.106.012.278.022.383.023.174.002.182.016.094.16-.091.148-.09.159.036.201.086.03.128-.008.118-.104-.008-.086.027-.128.083-.098a.137.137 0 0 0 .165-.039c.038-.049.185-.091.327-.094l.56-.01c.19-.004.306.043.314.13.009.082.1.127.234.113.12-.012.215-.074.208-.137-.006-.063.022-.087.062-.052.04.035.107.002.15-.075.053-.095.133-.112.26-.054a.717.717 0 0 0 .423.015c.168-.048.229-.03.206.06-.02.08.004.113.062.085.051-.024.149.05.216.163.122.205.122.204.06-.033-.046-.173-.037-.243.031-.25.052-.005.119.04.148.102.03.062.09.082.135.045.046-.037.089-.001.097.08.028.281.214.263.292-.027.062-.233.12-.282.328-.282.142 0 .273.063.3.144.026.08.086.112.135.073.048-.04.138-.015.199.056.095.11.102.094.05-.113-.034-.133-.053-.242-.043-.243.064-.006.41.299.467.413.044.086.044.031.001-.15l-.068-.287.554-.014c.305-.007.587.033.627.089.04.055.109.281.152.501.043.22.116.418.162.438.064.03.062-.029-.011-.252-.053-.159-.084-.315-.07-.346.014-.031-.011-.145-.057-.253-.065-.153-.062-.2.013-.207a.1.1 0 0 1 .107.092c.005.057.059.092.119.08a.499.499 0 0 1 .251.04c.086.038.171.004.214-.085.115-.24.313-.197.423.09l.1.265-.024-.303c-.026-.301-.024-.303.341-.287.202.01.5.006.662-.008.245-.02.306.015.361.207.06.205.072.21.107.043.032-.146.07-.165.175-.086.091.07.13.066.122-.012-.006-.061.031-.116.083-.122.052-.005.09-.056.084-.114-.017-.166 1.167-.178 1.31-.013.098.115.122.114.133-.006.01-.108.065-.084.204.089.104.13.142.153.084.052-.13-.229-.08-.373.069-.199.09.104.107.1.097-.021-.01-.1.023-.084.1.05.061.11.127.166.146.125.02-.042.083.004.142.103.08.132.113.142.127.04.01-.077.055-.114.099-.083.044.032.003-.031-.092-.139-.11-.126-.149-.225-.109-.277.035-.045.137.036.23.18.176.279.378.345.297.098-.048-.144.024-.4.114-.409.025-.002.07.104.098.237.051.237.053.237.074.013.019-.208.066-.231.506-.254.267-.014.493-.016.503-.004.055.064.577-.008.697-.096.09-.066.178-.059.245.019.069.08.115.083.135.006.058-.212.293-.272.396-.1.083.14.08.155-.02.103-.072-.037-.111-.008-.103.077.025.243.255.16.27-.098.011-.201.026-.215.092-.083.043.086.073.1.067.032-.017-.186.155-.288.301-.179.074.056.139.055.153-.003.03-.12.536-.14.667-.026.062.054.074.04.036-.04-.037-.077-.006-.123.088-.13.14-.009.576-.143.573-.175 0-.009.131-.044.294-.08.162-.035.298-.032.302.006.004.039.135.062.291.051.209-.013.28-.06.268-.176-.01-.104.028-.143.112-.115.07.023.136-.014.145-.084.01-.07.029-.039.042.07.023.18.032.18.107.016.076-.17.138-.2.6-.292.104-.02.246-.077.316-.125.07-.049.151-.041.178.017.032.066.102.063.191-.01.098-.079.154-.075.185.014.024.07.037.041.03-.064-.009-.105.006-.194.032-.2.197-.036.555-.202.637-.294.081-.091.105-.066.126.136.02.2.034.216.07.08.037-.14.048-.143.061-.016.01.085.031.121.05.081.017-.04.09-.029.16.024.148.112.15.092.03-.277-.07-.213-.07-.275 0-.282.048-.005.11.036.136.091.053.113.233.002.28-.173.018-.063.107-.14.198-.17a.47.47 0 0 0 .24-.221c.06-.132.1-.14.21-.044.074.066.139.153.143.193.01.1.134.04.288-.137.097-.113.13-.118.14-.02.008.078.056.046.12-.08.157-.311.218-.131.116.347-.069.322-.07.48-.003.683.06.182.066.279.02.311-.036.027-.08.172-.098.325-.018.152-.084.306-.148.343a.313.313 0 0 0-.132.209c-.018.155-1.108.905-1.22.838-.014-.009-.041.048-.06.125-.02.077-.291.253-.603.39-.313.137-.636.285-.72.329a3.309 3.309 0 0 1-.49.174 2.376 2.376 0 0 0-.455.17c-.063.04-.271.104-.462.14-.19.038-.413.107-.496.155-.082.048-.389.128-.68.179-.292.05-.53.098-.53.106.001.009-.116.047-.26.085-.162.042-.268.023-.276-.049-.007-.079-.035-.073-.086.018-.041.074-.304.165-.583.203-.28.038-.505.096-.502.129.004.033-.452.12-1.012.192-.56.072-1.06.138-1.112.146-.052.007-.28.015-.507.016-.226.002-.48.04-.562.086a.563.563 0 0 1-.363.026c-.117-.032-.208-.018-.203.031.005.05-.072.071-.17.047-.252-.06-2.46.144-2.735.252-.125.05-.244.067-.264.039Zm5.336-2.779c-.004-.043-.045-.047-.092-.009-.046.038-.06.14-.031.229.042.13.06.131.09.009a.905.905 0 0 0 .032-.229Zm-12.047 1.37a7.345 7.345 0 0 1-.001-.274c0-.106-.018-.167-.043-.135-.067.088-.075.504-.01.498.032-.004.056-.043.054-.088Zm7.29-.697c-.003-.026-.036-.075-.075-.109-.038-.033-.064-.009-.058.054.007.064.04.113.075.11.034-.004.06-.029.058-.055Zm-2.522-.138c.016-.061-.002-.11-.038-.105-.037.003-.062.055-.056.115.006.06.023.107.039.106.015-.002.04-.054.055-.116Zm-5.515.396c-.003-.026-.036-.075-.075-.109-.038-.033-.064-.009-.058.054.007.064.04.113.075.11.034-.004.06-.029.058-.055Zm.358-.054c-.024-.034-.08-.032-.121.004-.047.04-.03.064.044.061.067-.002.102-.03.077-.065Zm.233-.067c.015-.062-.018-.108-.074-.102-.056.006-.08.057-.052.115.027.058.06.104.074.102.013-.001.036-.053.052-.115Zm.661-.053c-.005-.053-.076-.118-.157-.144-.143-.045-.143-.042-.01.098.16.17.18.175.167.046Zm-2.269.166c-.003-.026-.036-.075-.074-.109-.039-.033-.065-.009-.058.055.006.063.04.112.074.108.035-.003.06-.027.058-.054Zm-2.92.166c-.025-.034-.08-.033-.122.003-.047.04-.03.064.044.062.067-.002.102-.031.077-.065Zm.649-.459c-.03-.084-.042-.057-.032.07.009.115.03.177.047.14.018-.04.01-.133-.015-.21Zm22.078-2.25c-.027-.274-.125-.252-.11.025.008.156.037.24.07.198.03-.04.048-.141.04-.224ZM24.366 4.6c.016-.062-.002-.11-.038-.106-.037.004-.062.056-.056.115.006.06.024.108.039.106.015-.001.04-.053.055-.115Zm3.461-.408c.01-.088.045-.163.076-.167.09-.009.083.183-.01.259-.057.046-.079.016-.066-.092Zm24.53-2.468c-.085-.139-.086-.183-.004-.279.136-.16.105-.363-.032-.208-.058.066-.132.088-.164.048-.031-.04-.03.015.004.122s.069.264.077.349c.009.085.061.15.117.144.087-.009.087-.036.002-.176Zm-31.408 2.87c-.029-.085-.041-.058-.031.069.008.115.03.177.047.139.017-.038.01-.132-.016-.209Zm30.21-2.842c-.003-.026-.037-.075-.075-.109-.038-.033-.064-.009-.058.055.006.063.04.112.074.108.035-.003.061-.027.058-.054Zm.182-.08c-.006-.06-.04-.105-.074-.102-.035.004-.058.055-.052.115.006.06.04.106.074.102.035-.003.058-.055.052-.115Zm-30.57 2.85c-.012-.12-.047-.215-.078-.212-.032.003-.033.102-.003.22.03.118.066.213.08.212.012-.002.014-.1.002-.22Zm.378-.038c-.006-.06-.024-.107-.039-.106-.015.002-.04.054-.056.115-.015.062.002.11.039.106.037-.003.062-.055.056-.115Zm-.61-.179c-.029-.085-.041-.057-.031.07.009.114.03.177.047.139.017-.038.01-.132-.016-.209ZM53.084.694c-.008-.08-.057-.141-.11-.136-.099.01-.112.108-.03.223.082.113.155.067.14-.087Zm-41.24 2.522c-.029-.061-.041-.136-.028-.166.014-.03.05.019.079.11.062.186.029.224-.05.056Zm-6.32-.808c-.053-.074-.083-.077-.076-.01a.442.442 0 0 0 .06.181c.027.038.062.042.076.01.015-.034-.012-.115-.06-.181Zm-3.599-.315a.665.665 0 0 0-.129-.18c-.113-.125-.115-.12-.02.044.1.173.158.225.15.136Zm.875-.596c-.034-.238-.139-.293-.115-.061.013.13.085.284.13.28.01-.001.003-.1-.015-.219Z" fill="#F55116"/></svg>