<svg width="303" height="86" viewBox="0 0 303 86" fill="none" xmlns="http://www.w3.org/2000/svg"><path fill-rule="evenodd" clip-rule="evenodd" d="M239.327 85.765c.238-.183 5.363-.502 21.638-.505.534 0 .972-.092.972-.204 0-.112 1.112-.199 2.469-.193 3.329.013 25.058-.17 26.558-.792.695-.287 1.466-.535 1.712-.55l.934-.064c.372-.026.493-.31.519-1.217.031-1.08-.018-1.17-.561-1.036-.393.097-.656.023-.775-.218-.099-.201-.308-.303-.466-.227-.158.076-.556-.052-.885-.284-.513-.363-.637-.374-.873-.082-.228.283-.392.238-.954-.263-.628-.56-.748-.582-1.577-.303-1.057.356-22.308.439-21.659.117.29-.143.165-.235-.449-.329-.467-.071-.968-.041-1.111.068-.144.108-.452.14-.686.07-.233-.07-.403-.036-.377.076.117.499-.057.789-.472.789-.247 0-.449-.164-.449-.365 0-.2-.138-.297-.307-.216-.17.082-.565-.096-.879-.395-.547-.521-.588-.526-.98-.114-.371.391-.446.396-.804.059-.217-.204-.648-.372-.957-.372-.626 0-14.282.602-.188.771.207.06-.015.23-.494.378-14.582.332-15.324.168-14.287-.172.738-.243.739-.246.064-.26-.376-.009-.995-.175-1.376-.37-.631-.323-.757-.313-1.446.11-.414.255-.846.39-.959.302-.114-.088-.332-.006-.485.183-.233.287-.279.275-.283-.072-.006-.518-.777-.775-1.304-.433-.261.17-.711.184-1.338.043-.617-.138-1.012-.127-1.137.03-.126.159-20.532.145-20.68-.042-.169-.214-.417-.184-1.01.119-.432.221-.785.501-.785.623 0 .121-.142.152-.314.069-.215-.104-.203-.256.036-.481.278-.261.249-.33-.135-.33-.267 0-.485-.095-.485-.212 0-.308-15.974 0-16.445.367-.54.422-.675.393-.446-.097.167-.36.103-.353-.533.056-.399.256-.625.37-.503.255.367-.347-.388-.837-1.288-.837-.864 0-1.563.485-.935.648.239.062.197.21-.133.468-.444.347-14.022.345-14.363-.019-.203-.217-.647-.395-.986-.395-.338 0-.668-.124-.732-.275-.144-.337-3.237-.323-3.505.016-.117.147-.348.153-.626.016-.587-.29-2.005-.284-2.237.009-.283.358-22.089.277-22.509-.117-.478-.45-1.189-.446-2.028.013-.366.2-.665.256-.665.124s-.202-.179-.449-.105c-.262.079-.453.002-.458-.182-.008-.238-.101-.224-.375.056-.348.358-.539.44-1.037.448-.124.002-.023.107.224.234.374.191.38.265.041.436-.344.173-.344.222 0 .318.224.062.3.203.167.314-.293.244-.796-.328-.802-.913-.002-.234-.197-.576-.432-.76-.546-.426-14.911-.439-14.704-.018.132.267-1.008 1.087-1.51 1.087-.435 0-.084-.429.438-.535.799-.163.76-.602-.074-.848-.82-.242-1.153-.12-.928.338.287.584-21.316.402-22.086-.247l-.701-.59-.743.69-.743.689-.377-.551c-.476-.695-1.512-1.02-3.516-1.102-.864-.036-1.57-.156-1.57-.267 0-.11-.438-.15-.973-.089-.535.063-21.833-.026-22.56-.196-.728-.17-1.435-.255-1.572-.19-.136.066-.248.014-.248-.115 0-.22-.61-.268-3.816-.304-.699-.008-21.536-.106-21.536-.219 0-.112-.185-.204-.412-.204-.227 0-.569-.147-.76-.327-.19-.18-.595-.275-.9-.213-.305.062-.644-.001-.755-.141-.11-.14-14.506-.254-15.478-.254-1.525 0-1.904-.093-2.76-.68-.91-.625-1.17-.679-3.153-.655-1.281.015-2.164.126-2.17.271-.012.332-.63-.518-.73-1.003-.043-.213-.299-.373-.567-.355-.328.022-.49-.152-.49-.526 0-.65-.783-.768-.99-.15-.13.39-.139.39-.171 0-.027-.307-.299-.408-1.098-.408-.932 0-1.117-.101-1.5-.818-.241-.45-.638-.819-.883-.819s-.445-.089-.445-.197c0-.11-.27-.441-.598-.737-.717-.646-.736-.79-.15-1.17.481-.311.613-.934.197-.934-.42 0-1.063-1.956-.677-2.057.563-.146.364-.514-.279-.514-.483 0-.553-.085-.34-.41.338-.513.134-.993-.422-.993-.648 0-.522-1.26.174-1.753.808-.571.792-1.146-.027-.978-.601.122-.605.11-.104-.324.477-.411.48-.451.028-.451-.312 0-.498-.195-.502-.526-.004-.29-.27-.789-.592-1.11-.678-.678-.754-1.09-.224-1.228.298-.079.297-.172-.005-.458-.21-.197-.296-.529-.194-.737.114-.232 0-.434-.294-.522-.704-.211-.586-.795.16-.795.588 0 1.423-.574 1.445-.994.006-.096-.26-.175-.589-.175-.399 0-.598-.156-.598-.468 0-.26-.2-.467-.45-.467-.246 0-.443-.079-.438-.175.02-.312.834-1.346 1.013-1.286.833.28 1.06-.4.297-.894-.426-.276-.41-.327.17-.494.353-.102.56-.292.457-.422-.103-.129-.081-.367.048-.527.366-.458.3-.955-.194-1.437-.315-.307-.349-.472-.112-.537.468-.128.138-1.007-.377-1.007-.534 0-.514-.461.044-1.038.572-.59.554-.774-.084-.904-.493-.1-.493-.109.006-.134.465-.024.518-.23.425-1.664-.08-1.247-.01-1.636.293-1.636.47 0 .53-.376.094-.586-.426-.206-.034-.626.4-.43.194.09-.017-.133-.47-.495-.85-.678-1.063-1.384-.5-1.656.179-.086.245-.401.149-.7-.096-.3-.04-.61.126-.69.187-.09.226-.776.103-1.807-.172-1.45-.138-1.644.27-1.521.328.098.584-.075.847-.572.328-.618.312-.742-.121-.931-.697-.305-.638-1.418.094-1.775.555-.27.634-.844.334-2.435-.017-.087-.25-.192-.52-.234-.618-.095-.804-1.24-.26-1.594.307-.198.477-.16.717.162.212.284.317.316.323.097.005-.179-.227-.462-.514-.629-.495-.286-.49-.323.074-.66.33-.198.767-.362.973-.366.382-.008.485-.272.39-1-.03-.226.074-.41.23-.41.269 0 .697-.734.774-1.327a.784.784 0 0 1 .256-.448c.403-.315.228-1.237-.276-1.457-.442-.193-.422-.249.178-.5.454-.19.625-.428.524-.73-.082-.246-.034-.392.107-.323.394.19.942-.784.731-1.301-.138-.34-.046-.46.358-.462.435-.003.46-.046.122-.212-.232-.115-.602-.155-.823-.089-.691.207-.437-.325.347-.726.412-.21.748-.591.748-.845s.17-.462.376-.462c.207 0 .56-.324.784-.72.224-.395.627-.78.896-.855.268-.076.845-.33 1.282-.567.437-.236 1.086-.43 1.442-.43.356 0 .873-.093 1.15-.206.278-.115 1.633-.27 3.011-.347 1.903-.105 2.604-.238 2.909-.552.22-.228.406-.492.411-.589.019-.347 14.182-.165 14.695.33.555.535 1.308.416 1.024-.162-.221-.45.165-.437.823.028.608.43 22.03.25 22.03-.275 0-.292.103-.288.712.024.639.327.73.327.889.005.226-.461.793-.467.793-.008 0 .48.793.442 1.205-.059.32-.39.33-.39.174 0-.122.307.007.41.516.41.373 0 .81-.103.97-.228.16-.124 1.063-.263 22.272-.309 1.261-.06 1.834-.203 2.154-.533.248-.255.44-.323.446-.158.005.16.272.292.593.292.321 0 .692.15.823.332.205.283.381.284 1.212.01.535-.175.973-.482.973-.681 0-.2.15-.362.334-.362.187 0 .265.206.178.467-.116.347-.01.468.414.468.314 0 .57-.092.57-.204 0-.113.438-.133.973-.046.848.137 1.018.08 1.323-.44.338-.577.35-.579.374-.07.018.404 20.467.526 21.056.526.422 0 1.015-.103 1.317-.23.401-.167.592-.141.708.095.109.221.476.289 1.152.212 1.911-.217 17.199-.23 17.537-.03.553.327 1.969-.295 1.802-.793-.179-.536.334-.543 1.082-.013.469.331 21.39.407 23.73.4 1.587-.004 3.291-.039 3.784-.077.494-.038 15.939-.062 17.809-.054 1.872.009 3.614-.077 3.872-.19.282-.123.749-.106 14.68.044.504.18.795.176 1.035-.012.185-.144.715-.202 1.18-.13.465.073 1.085.047 1.378-.057.293-.105 21.403-.211 22.144-.237.741-.025 2.29-.116 3.442-.201 1.152-.085 2.449-.148 2.882-.14.433.007 1.099-.183 14.99-.424.665-.421.725-.422 1.564-.024.764.363.989.375 1.828.102.534-.175 1.129-.229 1.347-.123.48.231 1.523.044 1.523-.274 0-.128.31-.171.689-.097.479.094.817-.005 1.113-.325.499-.541 21.296-.616 21.047-.11-.121.247.026.352.492.354.365.002.988.07 1.384.154.424.088.648.059.546-.07-.106-.134.381-.172 1.225-.096 1.165.105 1.416.214 1.496.652.052.289.284.526.514.526.256 0 .349.14.24.363-.099.2-.371.307-.605.237-.234-.07-.36-.044-.279.058.081.102.032.582-.108 1.066-.193.67-.135 1.046.243 1.57.379.523.411.731.135.867-.433.214-.168 1.213.323 1.218.192.002.156.094-.084.213-.27.133-.457.735-.519 1.667-.079 1.173.005 1.518.422 1.76.445.259.464.373.128.802-.292.374-.306.58-.054.817.235.221.245.453.033.762-.347.506-.122 1.455.344 1.455.171 0 .088.193-.184.428-.591.51-.633 1.006-.121 1.41.299.236.265.343-.172.536-.495.218-.502.277-.082.64.458.395.54 1.894.104 1.895-.398 0-.22 2.44.211 2.884.256.264.355.724.257 1.197-.09.432-.019.836.161.923.208.1.227.348.054.704-.147.302-.228 1.087-.179 1.745.049.658-.029 1.196-.173 1.196-.292 0 .326.956.791 1.223.169.097.071.174-.224.176-.603.004-.704.375-.15.55.227.071.172.125-.14.136-.33.012-.453.144-.342.369.099.202.006.35-.219.35-.304 0-.311.063-.032.281.197.154.359.47.359.701 0 .232.186.421.414.421.571 0 .797 1.103.292 1.43-.492.32-.537.908-.069.908.225 0 .275.306.149.921-.16.78-.086.981.485 1.314.455.265.503.348.151.255-.433-.114-.524.004-.524.68 0 .451.217 1.08.483 1.396.297.354.355.576.15.576-.184 0-.334.105-.334.234 0 .128.19.233.421.233.265 0 .366.164.273.441-.081.243-.003.512.175.597.209.102.114.33-.273.655-.609.51-.795 1.112-.344 1.112.138 0 .432.43.653.953.325.767.329.989.023 1.136-.292.141-.27.217.094.326.261.078.475.04.475-.084 0-.125.211-.227.469-.227.348 0 .416.136.262.526-.113.29-.322.64-.463.778-.143.14-.138.574.011.98.147.4.196 1.14.109 1.645-.095.553-.025.983.176 1.08.183.089.333.523.333.965 0 .443.14.805.31.805.202 0 .213.143.032.409-.192.282-.149.502.139.71.343.248.417.238.417-.058 0-.198.202-.36.449-.36.557 0 .587.554.05.903-.421.272-.438.798-.05 1.513.188.345.443.401 1.314.286 1.009-.132 1.042-.118.499.214-.319.196-.791.356-1.047.356-.375 0-.446.233-.362 1.185.08.897.207 1.154.524 1.06.238-.072.626.123.902.451.594.708 1.501.75 1.773.08.226-.555-.317-.966-1.089-.823-.355.066-.471-.077-.449-.558.017-.356.12-.604.23-.551.111.052.432-.085.714-.305.331-.259.393-.432.174-.49-.187-.048-.34-.394-.34-.77 0-.448-.152-.681-.446-.681-.53 0-.455-1.26.099-1.693.463-.361.438-.664-.129-1.553-.262-.41-.401-.9-.309-1.087.092-.188.044-.342-.108-.342-.151 0-.248-.63-.215-1.4.034-.77.162-1.402.285-1.403.356-.003.039-1.906-.348-2.093-.193-.093-.411-.791-.486-1.551-.075-.76-.278-1.42-.452-1.465-.174-.045-.076-.22.219-.389.491-.28.496-.341.061-.736-.261-.236-.564-.627-.674-.867-.161-.353-.083-.414.404-.314.508.104.603.01.603-.598 0-.525-.26-.89-.961-1.347-.901-.587-.93-.652-.459-1.02.387-.302.492-.78.46-2.078-.027-1.074.106-1.87.368-2.194.338-.421.342-.622.02-1.169-.59-1.004-.665-2.883-.13-3.3.326-.255.353-.395.099-.518-.191-.092-.314-.524-.272-.96.042-.434-.023-1.527-.144-2.427-.124-.924-.092-2.076.074-2.648.225-.777.187-1.257-.165-2.064-.339-.777-.371-1.12-.123-1.313.5-.391.418-1.795-.114-1.954-.581-.175-.581-.552 0-.552.585 0 .568-.212-.062-.755-.428-.37-.449-.517-.128-.917.318-.399.3-.546-.111-.9-.458-.396-.451-.435.097-.57.62-.154 1.119-1.066.583-1.066-.172 0-.496.184-.721.41-.379.38-.393.375-.212-.06.108-.256.401-.652.65-.88.496-.45.566-1.649.218-3.702-.186-1.097-.143-1.334.262-1.456.4-.12.422-.224.122-.599-.287-.36-.281-.53.03-.823.326-.307.323-.37-.021-.37-.227 0-.59-.22-.805-.49-.33-.413-.318-.553.078-.895.482-.416.632-1.817.24-2.243-.121-.132-.579-.418-1.017-.635-.551-.274-.751-.536-.647-.848.083-.248-.021-.698-.231-1-.211-.303-.346-.9-.302-1.328.073-.695.007-.77-.617-.701-.514.056-.687-.032-.656-.333.026-.257-.169-.41-.524-.41-.311 0-.565-.104-.565-.233 0-.128-.149-.234-.332-.234-.182 0-.248.17-.145.38.141.285.047.35-.384.262-.313-.064-.745-.032-.96.072-.257.124-.501.014-.715-.321-.254-.397-.578-.505-1.466-.488-.63.011-1.261.168-1.409.35-.146.181-.269.238-.271.126-.003-.112-.173-.095-.379.038-.562.363-22.359.071-22.148-.359.146-.296-.132-.325-1.853-.196-1.113.084-2.456.15-2.983.146-.527-.004-1.066.123-1.197.284-.131.16-14.421.306-15.244.326l-3.517.079c-1.111.024-2.02.14-2.02.257 0 .29-1.116.272-1.347-.021-.202-.254-22.75-.062-23.267.253-.17.103-.507.09-.748-.029a2.415 2.415 0 0 0-.873-.22c-.338-.003-.354.059-.075.277.198.154.359.357.359.451 0 .18-1.026.123-1.795-.097-14.583-.308-15.605-.327-15.605-.039 0 .346-3.538.585-3.68.25-.097-.23-14.788-.26-16.488-.078-.618.067-1.123.03-1.123-.08 0-.302-2.193-.106-2.328.208-.141.332-1.263.367-1.263.04 0-.268-.99-.319-1.31-.068-.118.091.096.352.473.579.378.227.519.415.313.418-.206.003-.374.216-.374.473 0 .916-20.797.547-21.276-.701-.191-.498-.687-.702-1.707-.702-1.181 0-1.185.004-1.069.828.076.539 0 .796-.218.739-.184-.049-.5.079-.702.283-.312.314-.411.32-.646.042-.152-.182-.204-.48-.114-.663.135-.274.209-.277.417-.021.141.174.255.199.258.056.007-.39-1.11-1.108-1.241-.8-.077.18-.454.147-1.219-.102-15.135-.53-15.642-.488-15.211.141.298.434.275.482-.163.351-.28-.084-.632-.152-.784-.152-.151 0-.274-.145-.274-.322 0-.253-.52-.302-2.469-.233-23.398.111-23.6.128-23.781.298-.082.077-.466.279-.852.448-.767.337-1.35.153-.636-.2.33-.164.223-.219-.433-.222-.48-.002-.787.063-.683.144.103.082.047.355-.126.607-.311.455-.32.455-.884-.018-.454-.38-.822-.453-1.816-.36-.837.08-1.334.017-1.51-.188-.162-.19-.189-.062-.07.336l.19.642-21.386-.367c-.617-.201-1.44-.303-1.828-.227-.388.076-.706.057-.706-.042s-.536-.208-1.19-.243c-.955-.051-1.156.005-1.017.287.143.291-.18.354-1.878.365-3.392.021-37.723.092-38.155.553-.4.427-.433.424-1.058-.1-.693-.58-1.286-.471-.657.122.26.243.273.356.043.356-.185 0-.336-.117-.336-.259 0-.142-.217-.194-.482-.114-.325.097-.432.043-.329-.169.129-.261-.099-.262-1.378-.002-.843.17-2.042.31-2.665.31-.777 0-1.131.104-1.131.331 0 .182.168.378.374.436.205.058-.367.125-1.272.15-2.163.057-2.941.133-3.166.309-.102.08-.355.093-.564.03-1.047-.313-5.032 2.257-4.923 3.176.083.7-.035.828-.794.862-1.002.045-1.077.121-1.152 1.177-.035.49-.257 1.132-.493 1.425-.377.466-.374.564.018.782.393.217.39.234-.021.133-.262-.064-.628.081-.826.329-.29.362-.272.444.097.444.28 0 .451.218.451.577 0 .415-.125.54-.447.443-.592-.178-.88.457-.475 1.048.38.554.133 1.204-.457 1.204-.293 0-.417.304-.417 1.023 0 .625-.175 1.137-.449 1.314-.769.5-.49 3.04.335 3.04.253 0 .412.249.409.642-.004.504-.068.567-.3.292-.261-.311-.326-.311-.586 0-.223.268-.145.369.328.428.474.06.579.197.446.585-.096.278-.176.598-.179.71-.002.113-.198.078-.436-.076-.347-.225-.508-.184-.82.205-.214.267-.584.486-.822.486-.317 0-.282.087.13.322.53.302.533.346.057.717-.583.456-.671 1.216-.157 1.35.599.156.5 1.072-.13 1.2-.428.088-.522.243-.372.613.112.276.042.645-.16.835-.284.268-.264.496.097 1.078.547.882.357 1.448-.433 1.287-.514-.105-.56.017-.51 1.325.036.974.2 1.524.505 1.699.526.301.25 1.149-.29.889-.43-.208-.093 2.461.356 2.812.452.353.337.832-.2.832-.417 0-.459.197-.29 1.368.159 1.09.104 1.429-.269 1.67-.42.273-.405.349.14.746.821.597.818 1.592-.005 1.592-.537 0-.588.1-.415.819.128.536.082.818-.136.818-.433 0-.433 1.092 0 1.301.183.089.45.016.594-.161.314-.387.3-.442.34 1.372.017.82.165 1.461.336 1.461.168 0-.08.315-.552.699-.785.64-.823.748-.454 1.285.221.323.51.588.643.588s.114.262-.042.582c-.288.592-.118 1.287.38 1.549.151.08-.07.572-.494 1.095l-.768.951.814.478c.615.36.72.527.427.678-.31.16-.296.26.075.501.576.373.592.803.043 1.159-.322.209-.456.202-.575-.03-.085-.166-.166-.062-.178.231-.013.294.174.593.417.666.568.17.935 1.68.53 2.186-.34.424-.156 1.64.247 1.64.138 0 .34.395.447.877.108.482.423 1.192.7 1.578.277.386.744 1.2 1.039 1.812.295.61.66 1.11.81 1.11.151 0 .275.158.275.35 0 .193.139.351.309.351.17 0 .397.181.506.402.109.222.542.67.963.996.421.327.941.859 1.155 1.182.214.324.986.902 1.714 1.283.73.383 1.329.774 1.332.87.004.097.217.176.473.176.257 0 .388.1.291.222-.097.122.08.329.392.46.613.255.952.134.825-.296-.045-.148-.024-.19.045-.094.07.096.31.175.535.175.729 0 1.935.534 1.935.856 0 .172.19.313.424.313.233 0 .492.131.576.292.119.23.21.227.428-.014.218-.243.46-.187 1.145.263.478.314 1.003.597 1.168.63.165.031.434.089.599.128.164.038.636.051 1.047.028.562-.03.726.06.66.368-.052.242.1.409.374.409.254 0 .462-.113.462-.25 0-.138.202-.093.45.1.246.192.448.464.448.602 0 .168.214.154.638-.041.51-.235.665-.236.773-.002.075.16.394.292.709.292.316 0 .574.158.574.35 0 .244 13.823.351 14.54.351 1.132 0 1.674-.392 1.028-.745-.339-.185-.332-.207.036-.124.247.056.43.274.408.485-.023.212.111.391.299.4a38 38 0 0 1 1.33.116c.545.056 21.187.015 21.104-.09-.083-.105.246-.145.73-.09.666.077.883.009.883-.276 0-.317.095-.302.598.09.33.258.599.561.599.674 0 .114.272.263.605.33.799.164 1.052.153.987-.042-.029-.088.207-.16.524-.16.318 0 .577.135.577.3a.3.3 0 0 0 .3.301c.164 0 .299-.151.299-.337 0-.185.14-.404.311-.487.2-.096.247.052.13.413-.118.368-.016.67 20.56.872.406.262.59.227 1.217-.234l.74-.542v.508c0 .35.183.508.589.508.351 0 .53.12.444.295-.176.359 2.906.374 4.011.02.929-.298 2.438-.114 2.438.296 0 .178.258.324.573.324.316 0 20.883.089 20.938.198.055.108.597.258 1.204.333.876.108 1.132.055 1.238-.256.123-.364.135-.363.167.004.03.345.3.378 15.639.258 1.221-.08 2.095-.046 2.095.08 0 .127.773.16 1.83.082 1.107-.083 2.082-.034 2.47.123.833.338 24.379.37 24.891.044.291-.184.478-.162.702.084.249.275.276.266.145-.054-.088-.215.082-.607.376-.873.634-.57 1.041-.397.54.23-.267.333-.266.502.005.713.42.328 1.277-.109 1.277-.651 0-.181.209-.392.466-.47.256-.076.395-.283.308-.46-.086-.176-.022-.32.143-.32.314 0 .244 1.041-.087 1.3-.105.082-.118.296-.029.476.195.399 16.3.463 16.3.07 0-.143.198-.2.44-.127.242.072.622-.01.843-.184.277-.216.562-.246.907-.095.315.137.503.137.503 0 0-.122.207-.283.461-.36.32-.095.434-.014.374.268-.057.268.082.383.415.34.275-.035.586.044.691.176.282.358 15.034.29 15.454-.106.277-.26.824-.32 2.207-.242 1.95.11 23.292.25 23.702.448.138.067.373.027.523-.089Zm49.554-2.153c.095-.186.166-.13.18.142.013.246-.057.384-.157.307-.099-.078-.11-.28-.023-.449Zm-115.869.278c0-.128.059-.234.132-.234.073 0 .215.106.317.234.102.129.042.234-.132.234-.174 0-.317-.105-.317-.234Zm-1.496-1.77c0-.56.034-.574.497-.212.421.328.432.42.075.597-.579.287-.572.291-.572-.384Zm20.842-.567c-.102-.129.033-.234.299-.234s.401.105.299.234c-.102.128-.236.234-.299.234s-.198-.106-.299-.234Zm-165.35-.141c.1-.078 13.868-.087 14.083-.019.24.075.168.13-.18.141-.316.01-14.002-.045-13.903-.123Zm118.339-.702c.099-.077.358-.086.573-.018.239.074.168.13-.18.141-.316.01-.492-.045-.393-.123Zm-22.27-.326c0-.129.059-.234.132-.234.073 0 .215.105.317.234.102.129.042.234-.132.234-.174 0-.317-.105-.317-.234Zm-29.692-1.636a.7.7 0 0 1 .485-.234c.164 0 .216.105.114.234a.7.7 0 0 1-.484.233c-.165 0-.216-.105-.115-.233Zm209.57-6.906c-.196-.398-.748-.35-.932.083-.066.154.154.278.495.278.431 0 .561-.108.437-.36Zm-.71-1.5c.242-.12.371-.272.286-.338-.232-.18-1.475.12-1.475.356 0 .268.629.259 1.189-.018Zm.083-.963c.612-.524.666-.84.167-.97-.207-.054-.383-.626-.42-1.363a57.214 57.214 0 0 0-.091-1.563c-.017-.161-.367-.292-.778-.292-.557 0-.748.123-.748.483 0 .265-.14.686-.31.934-.214.312-.214.453 0 .453.17 0 .31-.106.31-.234 0-.447.529-.23.703.286.102.305-.05.817-.367 1.236-.434.575-.466.77-.161.992.293.214.413.212.527-.008.085-.163.158-.11.172.123.03.516.329.493.996-.077Zm-2.514-3.921c.286-.394.308-.623.078-.803-.46-.359-.692-.08-.577.69l.099.664.4-.551ZM2.69 63.716c-.002-.104.13-.124.295-.045.164.08.297.322.295.54-.005.34-.045.347-.295.045-.16-.193-.292-.436-.295-.54Zm1.193-2.836c0-.057.134-.168.299-.248.165-.079.3-.032.3.104s-.135.247-.3.247c-.165 0-.3-.046-.3-.103Zm4.489-2.693c0-.807-.155-.891-.556-.301-.192.283-.15.502.139.71.35.253.417.187.417-.409Zm292.684-1.879c0-.128-.134-.233-.299-.233-.165 0-.299.105-.299.233 0 .129.134.234.299.234.165 0 .299-.105.299-.234Zm-3.159-3.454c.25-.195.765.217.755.605-.008.347-.062.34-.445-.056-.24-.247-.38-.494-.31-.549Zm-3.031-12.017c.096-.186.167-.13.181.141.013.247-.058.385-.157.307-.099-.077-.11-.28-.024-.448Zm2.861-2.122c.296-.23.33-.202.168.13-.113.231-.28.361-.372.29-.092-.073-.001-.261.204-.42ZM293.37 27.28c.095-.186.166-.131.181.141.013.247-.058.385-.157.307-.1-.078-.111-.28-.024-.448ZM5.978 24.986c0-.128.059-.233.132-.233.072 0 .215.105.317.233.101.129.042.234-.132.234-.175 0-.317-.105-.317-.234Zm-1.946-.7c-.101-.13-.244-.235-.317-.235-.072 0-.132.106-.132.234 0 .129.143.234.317.234.175 0 .234-.105.132-.234Zm290.445-2.722c-.003-.147.172-.32.388-.385.286-.086.357.072.26.583-.093.5-.205.61-.387.385-.141-.174-.259-.436-.261-.583ZM6.982 16.688c-.385-.3-.387-.35-.015-.35.239 0 .601.158.806.35.282.265.286.351.016.351-.197 0-.56-.158-.807-.35Zm-1.304-.818c0-.128.135-.233.3-.233.164 0 .299.105.299.233 0 .129-.135.234-.3.234-.164 0-.299-.105-.299-.234Zm21.25-5.843c0-.129-.135-.234-.3-.234-.165 0-.3.105-.3.234 0 .128.135.233.3.233.165 0 .3-.105.3-.233ZM43.13 8.624c0-.26.2-.467.45-.467.249 0 .448.208.448.467 0 .26-.2.468-.449.468a.457.457 0 0 1-.449-.468Zm22.06-.701c0-.29.198-.466.524-.464.448.003.46.037.075.234-.4.205-.4.255 0 .46.384.197.373.23-.075.234-.326.002-.524-.173-.524-.464Zm60.581-.701c0-.129.059-.234.132-.234.072 0 .215.105.317.234.101.128.042.233-.132.233-.175 0-.317-.105-.317-.233Zm-111.413 0c0-.129.134-.234.299-.234.164 0 .3.105.3.234 0 .128-.136.233-.3.233-.165 0-.3-.105-.3-.233Zm56.92-1.461c.082-.161.15-.03.15.292 0 .321-.068.453-.15.292a.715.715 0 0 1 0-.584Zm76.102-.741c-.289-.273-.242-.31.263-.207.338.07.616.219.616.332 0 .315-.483.247-.879-.125Zm-127.785.098c-.102-.129-.042-.234.132-.234.174 0 .317.105.317.234s-.06.234-.132.234c-.073 0-.215-.105-.317-.234Zm75.333-.594c.098-.199.242-.311.32-.25.079.061.054.224-.055.36-.295.374-.467.301-.265-.11Zm-29.364-.268c.288-.06.524-.222.524-.363 0-.14.081-.192.18-.115.299.233-.181.64-.721.612-.457-.025-.455-.038.017-.134Zm76.305-.416c-.175-.357.309-.744.623-.498.099.077.006.14-.206.14-.309 0-.311.07-.013.35.215.203.244.351.069.351-.167 0-.38-.154-.473-.343Zm52.173-.335c-.226-.112-.36-.305-.299-.43.061-.124.37-.031.687.207.591.445.345.586-.388.223Zm-22.826-.374c-.305-.287-.284-.35.114-.35.267 0 .485.157.485.35 0 .193-.051.35-.113.35-.062 0-.281-.157-.486-.35Zm-104.23.117c0-.129.202-.234.449-.234s.449.106.449.234c0 .129-.202.234-.45.234-.246 0-.448-.105-.448-.234Zm56.989-.234c0-.128.143-.233.317-.233.174 0 .234.105.132.233-.102.129-.244.234-.317.234-.073 0-.132-.105-.132-.234Z" fill="#F0AD2C"/></svg>