<svg width="160" height="29" viewBox="0 0 160 29" xmlns="http://www.w3.org/2000/svg"><path d="M144 1a11.96 11.96 0 0 1 8.485 3.515l2.829-2.829a16.002 16.002 0 0 1 0 22.628 16 16 0 0 1-22.628 0l2.829-2.829-.23-.236A11.957 11.957 0 0 1 132 13c0-6.626 5.373-12 12-12Zm8.485 3.515-16.97 16.97A11.96 11.96 0 0 0 144 25c6.628 0 12-5.373 12-12a11.96 11.96 0 0 0-3.515-8.485ZM98.602.53 101 1.5V25h-4V7.963l-11.5 11.95L74 7.963V25h-4V1.5l2.677-.681L85.5 14.144 98.602.53ZM4.939 1l7.03 8.84L19.06 1H24v.032l-9.625 11.936 9.625 12V25h-4.876l-7.156-8.872L4.876 25H0v-.032l9.594-12L0 1.032V1h4.94ZM119 1v24h-4V1h4ZM47 1c6.627 0 12 5.373 12 12s-5.373 12-12 12-12-5.373-12-12S40.373 1 47 1Zm0 4a8 8 0 1 0 0 16 8 8 0 0 0 0-16Z" fill="#0A0B09" fill-rule="evenodd"/></svg>