<svg width="315" height="275" viewBox="0 0 315 275" fill="none" xmlns="http://www.w3.org/2000/svg"><path d="M41.34 88.885C24.4 116.7 14.548 146.344 28.962 177.595c53.48 115.285 209.2 136.642 272.098 18.409 15.946-30.012 20.194-64.299 2.193-94.084-18-29.785-48.257-57.337-75.71-78.101-27.454-20.764-58.807-29.873-92.022-19.543-40.406 12.616-72.908 49.66-94.181 84.61Z" fill="#EF8683"/><path fill-rule="evenodd" clip-rule="evenodd" d="M33.016 175.734a23.07 23.07 0 0 1 1.057-2.203A5.146 5.146 0 0 1 38.539 171c.448 0 .893.06 1.325.179a5.183 5.183 0 0 1 3.767 4.943 19.734 19.734 0 0 1-1.102 5.374 20.222 20.222 0 0 1-1.712 4.824 5.495 5.495 0 0 1-2.605 2.233l-.075.134c-.038.079-.075.159-.111.238a8.335 8.335 0 0 1-.336.67c-.4.638-.852 1.241-1.354 1.801a5.252 5.252 0 0 1-6.357.819 5.342 5.342 0 0 1-2.427-3.141 5.569 5.569 0 0 1 0-2.799 19.88 19.88 0 0 1 1.265-3.752l1.37-3.394a5.236 5.236 0 0 1 1.37-2.352l1.072-.834.387-.209ZM2.153 192.483c.58-1.191 1.221-2.337 1.876-3.483a5.36 5.36 0 0 1 4.705-2.635 5.81 5.81 0 0 1 1.816.297 5.514 5.514 0 0 1 2.174.715 5.324 5.324 0 0 1 1.98 1.95l.55 1.295a6.477 6.477 0 0 1 0 3.112 15.893 15.893 0 0 1-.714 1.712c-.073.145-.131.277-.191.411-.063.141-.127.285-.211.453-.164.327-.313.67-.462 1.012a18.026 18.026 0 0 1-2.04 4.035 13.418 13.418 0 0 1-1.89 2.218 6.108 6.108 0 0 1-5.643 1.489 5.509 5.509 0 0 1-3.93-3.99 8.308 8.308 0 0 1 .12-3.871 21.792 21.792 0 0 1 1.86-4.72Zm5.39 28.168-.344 1.308c-.436 1.658-.87 3.309-1.294 4.96v.119l-.134.238c-.268.432-.506.879-.73 1.325-.342.685-.64 1.4-.922 2.114a6.954 6.954 0 0 0-.283 4.467 5.283 5.283 0 0 0 1.488 2.411 5.57 5.57 0 0 0 9.93-1.741c.794-2.732 1.5-5.49 2.203-8.244.34-1.329.68-2.656 1.028-3.979a5.704 5.704 0 0 0-3.945-6.938 5.393 5.393 0 0 0-1.489-.209 5.707 5.707 0 0 0-5.508 4.169Zm27.05-5.27c.253-.241.533-.451.834-.625v.029a4.204 4.204 0 0 1 4.258 0 4.467 4.467 0 0 1 1.593 1.579l.09.148.61.477a5.673 5.673 0 0 1 1.727 2.888 7.8 7.8 0 0 1-.09 3.796c-.086.447-.195.89-.327 1.325-.242.78-.52 1.547-.802 2.324l-.091.252a5.242 5.242 0 0 1-2.323 2.978 5.08 5.08 0 0 1-3.29.714 5.012 5.012 0 0 1-1.4.179h-.103a3.535 3.535 0 0 1-2.725.357 3.614 3.614 0 0 1-2.114-1.623 3.407 3.407 0 0 1-.357-2.739l.134-.357a7.682 7.682 0 0 1 .625-4.139c.447-1.072.893-2.144 1.355-3.216l.112-.255c.246-.558.495-1.123.766-1.665.1-.224.218-.456.334-.684l.113-.225.313-.565c.198-.358.454-.68.759-.953Zm38.858.387a5.6 5.6 0 0 1 1.49.223 5.956 5.956 0 0 1 3.602 2.65 5.661 5.661 0 0 1 .595 4.541l-.446 1.102c.06.69 0 1.385-.179 2.054-.399 1.568-.896 3.11-1.489 4.615a66.151 66.151 0 0 1-1.28 3.395v.134a5.657 5.657 0 0 1-1.489 2.471l-1.131.864a5.572 5.572 0 0 1-7.214-1.393 5.562 5.562 0 0 1-1.079-2.419 5.758 5.758 0 0 1-.73-4.823 44.62 44.62 0 0 1 1.862-4.779v-.002c.596-1.488 1.191-2.976 1.771-4.375a5.835 5.835 0 0 1 1.49-2.606l1.205-.923a5.957 5.957 0 0 1 3.022-.729Zm-40.346 34.495a4.839 4.839 0 0 1 2.233-2.784 5.011 5.011 0 0 1 2.561-.625c.443 0 .884.06 1.31.178a4.985 4.985 0 0 1 3.603 4.467c.527.904.81 1.931.819 2.977l-.223 1.608a11.529 11.529 0 0 1-.715 2.278 5.786 5.786 0 0 1-.834 1.787l-.193.55c-.268.715-.566 1.4-.879 2.1a7.553 7.553 0 0 1-1.489 2.069 5.807 5.807 0 0 1-9.706-5.642c.312-.938.655-1.861 1.012-2.784.104-.343.223-.685.343-1.013.085-.269.183-.542.282-.817.11-.302.22-.606.313-.91.06-.283.12-.551.193-.819a5.835 5.835 0 0 1 1.236-2.307l.134-.313Zm54.55-66.98a6.229 6.229 0 0 0-2.725 1.593 11.817 11.817 0 0 0-2.07 2.62c-.276.418-.53.85-.76 1.295a16.579 16.579 0 0 0-1.041 2.486 13.598 13.598 0 0 0-.506 3.082 6.653 6.653 0 0 0 .833 4.005 6.386 6.386 0 0 0 2.635 3.067 6.288 6.288 0 0 0 7.295-.744c.518-.34.975-.763 1.355-1.251a22.044 22.044 0 0 0 1.623-2.293 11.478 11.478 0 0 0 1.295-3.081 6.761 6.761 0 0 0 0-3.529l-.104-.327c.14-.86.088-1.739-.149-2.576-.103-.261-.21-.518-.319-.779a55.29 55.29 0 0 1-.291-.71 6.086 6.086 0 0 0-2.174-2.173l-.119-.09a6.089 6.089 0 0 0-3.112-.819l-1.667.224Zm16.255 25.412a4.797 4.797 0 0 1 1.416-1.264 4.832 4.832 0 0 1 2.516-.7 5.089 5.089 0 0 1 2.501.715l.998.774a4.945 4.945 0 0 1 1.265 2.263l.224.714a6.183 6.183 0 0 1 2.337 2.129 6.314 6.314 0 0 1 0 6.268c-.511.913-.916 1.825-1.32 2.738-.256.576-.512 1.152-.794 1.728-.2.434-.423.857-.67 1.266a9.811 9.811 0 0 1-1.072 1.489c-.38.541-.893.977-1.489 1.265a5.403 5.403 0 0 1-3.216.983 25.303 25.303 0 0 1-1.801-.238 5.876 5.876 0 0 1-2.59-1.489 6.608 6.608 0 0 1-1.772-3.112 8.604 8.604 0 0 1 0-3.752l.119-.595c.342-1.578.73-3.097 1.161-4.69.101-.37.199-.746.299-1.124.327-1.246.66-2.512 1.071-3.655.156-.62.433-1.202.817-1.713Zm-21.124 40.943a6.996 6.996 0 0 0-4.154 3.245c-.49.827-.899 1.7-1.22 2.606a4.755 4.755 0 0 0-.358 1.101c-.119.73-.238 1.489-.313 2.204a5.7 5.7 0 0 0 .968 3.796 5.958 5.958 0 0 0 6.697 3.009 5.953 5.953 0 0 0 4.529-5.778c.104-.417.208-.834.297-1.25.09-.417.164-.715.254-1.057l.119-.522a6.681 6.681 0 0 0 .208-1.741 5.221 5.221 0 0 0-.194-1.727 5.522 5.522 0 0 0-2.545-3.32 5.255 5.255 0 0 0-2.74-.73 8.054 8.054 0 0 0-1.548.164Zm-21.602-75.02 1.34-1.042a6.562 6.562 0 0 1 3.364-.938 6.664 6.664 0 0 1 6.432 4.883 7.279 7.279 0 0 1-.075 4.183c-.119.313-.238.626-.342.938l-.179.507c.022.292.022.586 0 .878a7.796 7.796 0 0 1-.268 1.861c-.168.522-.377 1.03-.625 1.518a45.28 45.28 0 0 0-1.161 2.412c-.231.886-.458 1.772-.685 2.658-.227.886-.454 1.772-.685 2.657a6.624 6.624 0 1 1-12.774-3.513l.491-1.995a6.895 6.895 0 0 1 .194-2.576c.35-1.534.848-3.029 1.489-4.466l.73-1.876c.297-1.057.64-2.084 1.041-3.112a6.595 6.595 0 0 1 1.713-2.977Z" fill="#136E65"/></svg>