<svg width="355" height="349" xmlns="http://www.w3.org/2000/svg"><g fill="none" fill-rule="evenodd"><path d="M114.743 325.964c35.905 20.176 74.174 31.912 114.516 14.743 148.822-63.701 176.392-249.183 23.764-324.102C214.28-2.39 170.019-7.45 131.569 13.992c-38.45 21.44-74.017 57.48-100.821 90.18C3.943 136.873-7.815 174.218 5.52 213.782c16.285 48.128 64.106 86.842 109.223 112.182Z" fill="#EF8683" fill-rule="nonzero"/><path d="M246.984 307.837a22.954 22.954 0 0 1-1.057 2.203 5.151 5.151 0 0 1-4.466 2.531c-.448.001-.894-.059-1.325-.178a5.183 5.183 0 0 1-3.767-4.943 19.76 19.76 0 0 1 1.102-5.375 20.216 20.216 0 0 1 1.712-4.823 5.493 5.493 0 0 1 2.605-2.233l.075-.134.111-.239c.108-.231.213-.459.335-.67.4-.637.853-1.24 1.355-1.801a5.26 5.26 0 0 1 6.357-.819 5.345 5.345 0 0 1 2.427 3.142 5.572 5.572 0 0 1 0 2.798 19.912 19.912 0 0 1-1.265 3.752l-1.37 3.395a5.236 5.236 0 0 1-1.37 2.352l-1.072.834-.387.208Zm30.863-16.749c-.581 1.191-1.221 2.338-1.876 3.484a5.355 5.355 0 0 1-4.705 2.635 5.812 5.812 0 0 1-1.816-.298 5.52 5.52 0 0 1-2.174-.714 5.34 5.34 0 0 1-1.98-1.951l-.55-1.295a6.47 6.47 0 0 1 0-3.111c.204-.585.443-1.156.714-1.713.073-.145.131-.276.191-.41.063-.141.127-.285.211-.453.164-.328.313-.67.462-1.012a17.994 17.994 0 0 1 2.039-4.035 13.394 13.394 0 0 1 1.891-2.218 6.096 6.096 0 0 1 5.643-1.489 5.51 5.51 0 0 1 3.93 3.99 8.307 8.307 0 0 1-.119 3.871 21.76 21.76 0 0 1-1.861 4.719Zm-5.39-28.168.344-1.308c.436-1.658.869-3.309 1.294-4.959v-.119l.134-.239c.268-.431.506-.878.729-1.325.343-.684.641-1.399.923-2.114a6.948 6.948 0 0 0 .283-4.466 5.281 5.281 0 0 0-1.488-2.412 5.566 5.566 0 0 0-5.519-2.284 5.566 5.566 0 0 0-4.412 4.026c-.793 2.731-1.498 5.49-2.202 8.243-.34 1.329-.679 2.657-1.028 3.98a5.703 5.703 0 0 0 3.945 6.938c.484.139.985.209 1.489.208a5.698 5.698 0 0 0 5.508-4.169Zm-27.051 5.271a4.371 4.371 0 0 1-.833.625v-.03a4.199 4.199 0 0 1-4.258 0 4.46 4.46 0 0 1-1.593-1.578l-.09-.149-.61-.476a5.667 5.667 0 0 1-1.727-2.889 7.793 7.793 0 0 1 .089-3.796c.087-.447.196-.889.328-1.325.242-.779.52-1.547.802-2.324l.091-.252a5.237 5.237 0 0 1 2.323-2.977 5.073 5.073 0 0 1 3.29-.715 5.006 5.006 0 0 1 1.399-.178h.104a3.543 3.543 0 0 1 2.725-.358 3.625 3.625 0 0 1 2.114 1.623 3.403 3.403 0 0 1 .357 2.739l-.134.358a7.686 7.686 0 0 1-.625 4.139c-.447 1.072-.893 2.143-1.355 3.215l-.112.256c-.246.558-.495 1.123-.766 1.665-.101.224-.218.456-.334.684l-.113.224-.312.566a3.704 3.704 0 0 1-.76.953Zm-38.857-.387a5.563 5.563 0 0 1-1.489-.224 5.951 5.951 0 0 1-3.603-2.65 5.664 5.664 0 0 1-.595-4.54l.446-1.102c-.06-.69 0-1.385.179-2.055a38.525 38.525 0 0 1 1.489-4.615 65.742 65.742 0 0 1 1.28-3.394v-.134a5.654 5.654 0 0 1 1.489-2.472l1.131-.863a5.574 5.574 0 0 1 5.139-.255 5.567 5.567 0 0 1 3.154 4.066 5.76 5.76 0 0 1 .729 4.824 44.491 44.491 0 0 1-1.861 4.779v.001l-.001.001c-.595 1.488-1.19 2.976-1.77 4.375a5.84 5.84 0 0 1-1.489 2.605l-1.206.923a5.957 5.957 0 0 1-3.022.73Zm40.346-34.496a4.838 4.838 0 0 1-2.233 2.784 5.025 5.025 0 0 1-2.561.626 4.87 4.87 0 0 1-1.31-.179 4.988 4.988 0 0 1-3.603-4.466 6.031 6.031 0 0 1-.819-2.978l.223-1.608c.159-.782.399-1.545.715-2.278a5.797 5.797 0 0 1 .834-1.786l.193-.551c.268-.715.566-1.399.879-2.099a7.574 7.574 0 0 1 1.488-2.07 5.81 5.81 0 0 1 9.484 1.907c.485 1.186.563 2.5.223 3.736a61.694 61.694 0 0 1-1.012 2.784c-.104.342-.223.685-.342 1.012-.086.27-.184.543-.283.817-.11.302-.219.606-.313.91-.06.283-.119.551-.194.819a5.83 5.83 0 0 1-1.235 2.308l-.134.312Zm-54.549 66.981a6.232 6.232 0 0 0 2.724-1.593 11.84 11.84 0 0 0 2.07-2.62c.276-.418.529-.851.759-1.296.414-.799.763-1.63 1.042-2.486.287-1.004.457-2.038.506-3.082a6.656 6.656 0 0 0-.833-4.005 6.385 6.385 0 0 0-2.635-3.066 6.277 6.277 0 0 0-7.296.744 5.65 5.65 0 0 0-1.354 1.25 22.122 22.122 0 0 0-1.623 2.293 11.478 11.478 0 0 0-1.295 3.082 6.745 6.745 0 0 0 0 3.528l.104.328a5.964 5.964 0 0 0 .149 2.576c.103.261.21.517.319.779.096.231.193.465.291.709a6.088 6.088 0 0 0 2.174 2.174l.119.089a6.09 6.09 0 0 0 3.111.819l1.668-.223Zm-16.256-25.412a4.81 4.81 0 0 1-1.416 1.264 4.85 4.85 0 0 1-2.516.7 5.089 5.089 0 0 1-2.501-.715l-.998-.774a4.955 4.955 0 0 1-1.265-2.263l-.224-.715a6.175 6.175 0 0 1-2.337-2.129 6.308 6.308 0 0 1 0-6.268c.511-.912.916-1.825 1.32-2.737.256-.576.512-1.153.794-1.729.2-.434.423-.856.67-1.265a9.811 9.811 0 0 1 1.072-1.489c.38-.542.893-.978 1.489-1.266a5.402 5.402 0 0 1 3.216-.982 24.74 24.74 0 0 1 1.801.238c.977.264 1.87.777 2.59 1.489a6.605 6.605 0 0 1 1.772 3.111 8.604 8.604 0 0 1 0 3.752l-.119.596a93.968 93.968 0 0 1-1.161 4.689c-.101.371-.199.746-.299 1.124-.327 1.247-.66 2.513-1.071 3.655a4.803 4.803 0 0 1-.817 1.714Zm21.124-40.943a6.999 6.999 0 0 0 4.154-3.246c.49-.827.899-1.699 1.221-2.605.163-.352.283-.722.357-1.102.119-.729.238-1.489.312-2.203a5.703 5.703 0 0 0-.967-3.797 5.958 5.958 0 0 0-9.958-.901 5.964 5.964 0 0 0-1.268 3.67v.001c-.104.416-.208.833-.297 1.25-.09.417-.164.715-.254 1.057l-.119.521a6.731 6.731 0 0 0-.208 1.742 5.248 5.248 0 0 0 .193 1.727 5.525 5.525 0 0 0 2.546 3.32 5.255 5.255 0 0 0 2.74.729 8.055 8.055 0 0 0 1.548-.163Zm21.603 75.02-1.34 1.042a6.564 6.564 0 0 1-3.365.938 6.672 6.672 0 0 1-6.432-4.883 7.28 7.28 0 0 1 .075-4.184c.119-.313.238-.625.342-.938l.179-.506a5.848 5.848 0 0 1 0-.878 7.801 7.801 0 0 1 .268-1.861c.168-.522.377-1.03.625-1.519.417-.789.789-1.593 1.161-2.412.231-.886.458-1.772.685-2.658.227-.886.454-1.771.685-2.657a6.63 6.63 0 0 1 5.568-4.925 6.621 6.621 0 0 1 7.434 5.836c.097.874.02 1.759-.228 2.603l-.491 1.995a6.901 6.901 0 0 1-.194 2.575 24.15 24.15 0 0 1-1.489 4.467l-.729 1.876a33.199 33.199 0 0 1-1.042 3.111 6.607 6.607 0 0 1-1.712 2.978Z" fill="#FFF"/></g></svg>