<svg width="315" height="275" viewBox="0 0 315 275" xmlns="http://www.w3.org/2000/svg"><g fill="none" fill-rule="evenodd"><path d="M273.66 186.115c16.939-27.814 26.792-57.459 12.378-88.71C232.558-17.88 76.838-39.237 13.94 78.996c-15.946 30.012-20.194 64.299-2.193 94.084 18 29.785 48.257 57.337 75.71 78.101 27.454 20.764 58.807 29.873 92.022 19.543 40.406-12.616 72.908-49.659 94.181-84.609Z" fill="#EF8683" fill-rule="nonzero"/><path d="M281.984 99.266a23.03 23.03 0 0 1-1.057 2.203 5.148 5.148 0 0 1-4.466 2.531 4.98 4.98 0 0 1-1.325-.179 5.183 5.183 0 0 1-3.767-4.942 19.753 19.753 0 0 1 1.102-5.375 20.205 20.205 0 0 1 1.712-4.824 5.497 5.497 0 0 1 2.605-2.233l.075-.134.111-.238c.108-.232.213-.46.335-.67.4-.638.853-1.24 1.355-1.802a5.257 5.257 0 0 1 6.357-.818 5.343 5.343 0 0 1 2.427 3.141 5.576 5.576 0 0 1 0 2.799 19.928 19.928 0 0 1-1.265 3.752l-1.37 3.394a5.235 5.235 0 0 1-1.37 2.352l-1.072.834-.387.209Zm30.863-16.75c-.581 1.192-1.221 2.338-1.876 3.484a5.353 5.353 0 0 1-4.705 2.635 5.809 5.809 0 0 1-1.816-.297 5.515 5.515 0 0 1-2.174-.715 5.336 5.336 0 0 1-1.98-1.95l-.55-1.295a6.473 6.473 0 0 1 0-3.112c.204-.584.443-1.156.714-1.712.073-.145.131-.277.191-.41.063-.142.127-.286.211-.454.164-.327.313-.67.462-1.012a18.006 18.006 0 0 1 2.039-4.035 13.417 13.417 0 0 1 1.891-2.218 6.1 6.1 0 0 1 5.643-1.489 5.513 5.513 0 0 1 3.93 3.99 8.306 8.306 0 0 1-.119 3.871 21.762 21.762 0 0 1-1.861 4.72Zm-5.39-28.167.344-1.308c.436-1.658.869-3.31 1.294-4.96v-.119l.134-.238c.268-.432.506-.878.729-1.325.343-.685.641-1.4.923-2.114a6.95 6.95 0 0 0 .283-4.467 5.285 5.285 0 0 0-1.488-2.411 5.567 5.567 0 0 0-8.31-.913 5.564 5.564 0 0 0-1.621 2.654c-.793 2.732-1.498 5.49-2.202 8.244-.34 1.329-.679 2.656-1.028 3.98a5.704 5.704 0 0 0 3.945 6.937c.484.139.985.21 1.489.209a5.7 5.7 0 0 0 5.508-4.169Zm-27.051 5.27a4.39 4.39 0 0 1-.833.625v-.03a4.203 4.203 0 0 1-4.258 0 4.462 4.462 0 0 1-1.593-1.578l-.09-.148-.61-.477a5.668 5.668 0 0 1-1.727-2.888 7.794 7.794 0 0 1 .089-3.796c.087-.447.196-.89.328-1.325.242-.78.52-1.547.802-2.324l.091-.252a5.237 5.237 0 0 1 2.323-2.978 5.075 5.075 0 0 1 3.29-.714 5.014 5.014 0 0 1 1.399-.179h.104a3.548 3.548 0 0 1 2.725-.357 3.62 3.62 0 0 1 2.114 1.623 3.406 3.406 0 0 1 .357 2.739l-.134.357a7.684 7.684 0 0 1-.625 4.14c-.447 1.071-.893 2.143-1.355 3.215l-.112.255a38.316 38.316 0 0 1-.766 1.665c-.101.224-.218.456-.334.684l-.113.224-.312.566a3.68 3.68 0 0 1-.76.953Zm-38.857-.387a5.583 5.583 0 0 1-1.489-.223 5.954 5.954 0 0 1-3.603-2.65 5.663 5.663 0 0 1-.595-4.54l.446-1.103c-.06-.69 0-1.385.179-2.054.399-1.568.896-3.11 1.489-4.615a65.86 65.86 0 0 1 1.28-3.395v-.134a5.65 5.65 0 0 1 1.489-2.471l1.131-.864a5.57 5.57 0 0 1 8.293 3.812 5.761 5.761 0 0 1 .729 4.823 44.467 44.467 0 0 1-1.861 4.78l-.001.001c-.595 1.488-1.19 2.976-1.77 4.375a5.838 5.838 0 0 1-1.489 2.606l-1.206.923a5.956 5.956 0 0 1-3.022.73Zm40.346-34.495a4.84 4.84 0 0 1-2.233 2.784 5.02 5.02 0 0 1-2.561.625c-.443 0-.884-.06-1.31-.178a4.985 4.985 0 0 1-3.603-4.467 6.03 6.03 0 0 1-.819-2.977l.223-1.608c.159-.782.399-1.546.715-2.278a5.794 5.794 0 0 1 .834-1.787l.193-.55c.268-.715.566-1.4.879-2.1a7.564 7.564 0 0 1 1.488-2.07 5.81 5.81 0 0 1 7.027-.916 5.808 5.808 0 0 1 2.68 6.56 61.739 61.739 0 0 1-1.012 2.783c-.104.343-.223.685-.342 1.013-.086.27-.184.542-.283.817-.11.302-.219.606-.313.91-.06.283-.119.55-.194.819a5.827 5.827 0 0 1-1.235 2.307l-.134.313Zm-54.549 66.98a6.232 6.232 0 0 0 2.724-1.593 11.82 11.82 0 0 0 2.07-2.62c.276-.418.529-.85.759-1.295.414-.8.763-1.63 1.042-2.487.287-1.004.457-2.038.506-3.081a6.654 6.654 0 0 0-.833-4.005 6.388 6.388 0 0 0-2.635-3.067 6.284 6.284 0 0 0-7.296.744c-.517.34-.974.763-1.354 1.251a22.107 22.107 0 0 0-1.623 2.293 11.47 11.47 0 0 0-1.295 3.082 6.747 6.747 0 0 0 0 3.528l.104.327a5.961 5.961 0 0 0 .149 2.576c.103.261.21.518.319.78.096.23.193.465.291.709a6.088 6.088 0 0 0 2.174 2.173l.119.09c.945.547 2.02.83 3.111.819l1.668-.224ZM211.09 66.305a4.806 4.806 0 0 1-1.416 1.264 4.84 4.84 0 0 1-2.516.7 5.087 5.087 0 0 1-2.501-.715l-.998-.774a4.948 4.948 0 0 1-1.265-2.263l-.224-.714a6.18 6.18 0 0 1-2.337-2.13 6.31 6.31 0 0 1 0-6.267c.511-.913.916-1.825 1.32-2.737.256-.577.512-1.153.794-1.73.2-.433.423-.856.67-1.265a9.81 9.81 0 0 1 1.072-1.489c.38-.541.893-.977 1.489-1.265a5.404 5.404 0 0 1 3.216-.983c.595.06 1.205.134 1.801.238.977.265 1.87.778 2.59 1.49a6.607 6.607 0 0 1 1.772 3.11 8.603 8.603 0 0 1 0 3.753l-.119.595a93.939 93.939 0 0 1-1.161 4.69c-.101.37-.199.746-.299 1.123-.327 1.248-.66 2.513-1.071 3.656a4.804 4.804 0 0 1-.817 1.713Zm21.124-40.943a6.999 6.999 0 0 0 4.154-3.245c.49-.827.899-1.7 1.221-2.606.163-.351.283-.721.357-1.101.119-.73.238-1.49.312-2.204a5.7 5.7 0 0 0-.967-3.796 5.958 5.958 0 0 0-9.958-.901 5.962 5.962 0 0 0-1.268 3.67c-.104.417-.208.834-.297 1.25-.09.417-.164.715-.254 1.058l-.119.52a6.728 6.728 0 0 0-.208 1.742 5.246 5.246 0 0 0 .193 1.727 5.526 5.526 0 0 0 2.546 3.32c.829.49 1.777.742 2.74.73a8.056 8.056 0 0 0 1.548-.164Zm21.603 75.02-1.34 1.042a6.564 6.564 0 0 1-3.365.938 6.664 6.664 0 0 1-6.432-4.883 7.278 7.278 0 0 1 .075-4.183c.119-.313.238-.626.342-.938l.179-.507a5.854 5.854 0 0 1 0-.878 7.804 7.804 0 0 1 .268-1.86c.168-.523.377-1.03.625-1.52.417-.788.789-1.593 1.161-2.411.231-.886.458-1.772.685-2.659.227-.885.454-1.77.685-2.656a6.636 6.636 0 0 1 3.093-4.085 6.624 6.624 0 0 1 9.909 4.995c.097.874.02 1.76-.228 2.603l-.491 1.995a6.906 6.906 0 0 1-.194 2.576 24.149 24.149 0 0 1-1.489 4.466l-.729 1.876a33.228 33.228 0 0 1-1.042 3.112 6.602 6.602 0 0 1-1.712 2.977Z" fill="#136E65"/></g></svg>