<svg width="287" height="229" viewBox="0 0 287 229" xmlns="http://www.w3.org/2000/svg"><g fill="none" fill-rule="evenodd"><path d="M286.106 140.878c-2.317 28.188-10.54 54.056-36.607 68.695C153.123 263.42 32.974 199.14 49.213 83.953c4.135-29.229 18.66-55.507 46.495-67.289C123.543 4.883 158.836.914 188.696.29c29.861-.623 56.507 8.938 74.535 33.119 21.906 29.449 25.795 72.055 22.875 107.469Z" fill="#F68A22" fill-rule="nonzero"/><path d="M83.741 78.658c.164-.689.292-1.386.382-2.089a4.476 4.476 0 0 0-1.849-4.06 4.324 4.324 0 0 0-1.024-.551 4.503 4.503 0 0 0-5.172 1.553 17.147 17.147 0 0 0-1.97 4.343 17.562 17.562 0 0 0-1.258 4.266 4.775 4.775 0 0 0 .692 2.901l-.016.132-.043.225a7.271 7.271 0 0 0-.106.642c-.045.653-.034 1.308.033 1.959a4.566 4.566 0 0 0 4.053 3.821 4.646 4.646 0 0 0 3.311-.97 4.845 4.845 0 0 0 1.429-1.969c.45-1.058.793-2.158 1.025-3.284l.77-3.087c.285-.75.367-1.562.237-2.354l-.328-1.133-.166-.345Zm13.155 27.537c.2-1.134.335-2.267.46-3.408a4.665 4.665 0 0 0-1.964-4.255 5.048 5.048 0 0 0-1.429-.718 4.774 4.774 0 0 0-1.894-.607 4.625 4.625 0 0 0-2.388.361l-1.049.629a5.63 5.63 0 0 0-1.589 2.189c-.154.515-.278 1.04-.371 1.569-.022.13-.047.258-.076.386-.027.131-.056.266-.082.426-.052.314-.122.631-.193.948a15.696 15.696 0 0 0-.625 3.879c-.026.846.04 1.693.197 2.525a5.313 5.313 0 0 0 3.209 3.928 4.785 4.785 0 0 0 4.801-.799 7.23 7.23 0 0 0 1.893-2.784 18.9 18.9 0 0 0 1.1-4.269Zm-18.171 17.059-.427 1.096a835.55 835.55 0 0 1-1.621 4.149l-.061.083-.028.236a14.31 14.31 0 0 1-.163 1.305 23.227 23.227 0 0 1-.43 1.958 6.042 6.042 0 0 1-2.082 3.286 4.6 4.6 0 0 1-2.278.936 4.838 4.838 0 0 1-6.095-6.295c.837-2.326 1.749-4.626 2.66-6.923.44-1.108.878-2.215 1.308-3.323a4.954 4.954 0 0 1 6.317-2.865c.412.149.8.355 1.154.613a4.957 4.957 0 0 1 1.746 5.744ZM62.39 105.737a3.8 3.8 0 0 0-.267-.866l-.016.021a3.648 3.648 0 0 0-2.994-2.174 3.888 3.888 0 0 0-1.926.297l-.14.059-.672.024a4.93 4.93 0 0 0-2.689 1.149 6.78 6.78 0 0 0-1.875 2.716c-.168.358-.317.725-.446 1.099a45.345 45.345 0 0 0-.623 2.044l-.064.224a4.555 4.555 0 0 0 .113 3.28 4.413 4.413 0 0 0 1.95 2.182c.256.321.557.604.892.84l.074.053c.333.76.958 1.352 1.734 1.643a3.15 3.15 0 0 0 2.315-.062 2.977 2.977 0 0 0 1.65-1.745l.088-.319a6.678 6.678 0 0 0 1.673-3.231c.233-.981.466-1.963.69-2.953l.05-.237c.112-.518.226-1.042.312-1.562.043-.209.08-.432.114-.651l.035-.216.07-.557c.043-.353.027-.71-.048-1.058ZM34.863 86.17a4.884 4.884 0 0 0-1.161-.603 5.176 5.176 0 0 0-3.887.025 4.907 4.907 0 0 0-2.737 2.889l-.249 1.003a5.179 5.179 0 0 0-.923 1.536 33.585 33.585 0 0 0-1.309 4.006 57.956 57.956 0 0 0-.833 3.041l-.068.095c-.286.8-.36 1.661-.215 2.498l.355 1.185a4.84 4.84 0 0 0 7.779 1.553 5.016 5.016 0 0 0 2.975-3.02 38.82 38.82 0 0 0 1.131-4.311v-.001c.342-1.351.683-2.702.989-3.982a5.075 5.075 0 0 0 .283-2.593l-.377-1.265a5.179 5.179 0 0 0-1.753-2.056Zm10.765 44.86a4.205 4.205 0 0 0-.15-3.098 4.361 4.361 0 0 0-1.481-1.747 4.236 4.236 0 0 0-1.013-.543 4.335 4.335 0 0 0-4.814 1.301 5.242 5.242 0 0 0-2.096 1.677l-.664 1.244c-.287.631-.509 1.29-.66 1.967a5.023 5.023 0 0 0-.326 1.682l-.145.487a31.855 31.855 0 0 0-.454 1.925 6.568 6.568 0 0 0-.01 2.215 5.049 5.049 0 0 0 4.474 4.232 5.044 5.044 0 0 0 5.234-3.245c.26-.819.49-1.643.71-2.474.101-.294.192-.596.275-.887.078-.233.148-.476.219-.719.077-.268.155-.538.244-.8.103-.229.198-.448.282-.675a5.074 5.074 0 0 0 .31-2.254l.065-.288Zm-4.169-74.958a5.416 5.416 0 0 1 1.103 2.511c.176.956.216 1.932.118 2.899-.02.435-.062.869-.128 1.299a14.396 14.396 0 0 1-.536 2.281c-.311.852-.72 1.666-1.217 2.426a5.786 5.786 0 0 1-2.631 2.391 5.555 5.555 0 0 1-3.42.811 5.457 5.457 0 0 1-4.75-4.248 4.902 4.902 0 0 1-.315-1.571 19.156 19.156 0 0 1 .03-2.441 9.95 9.95 0 0 1 .662-2.829 5.872 5.872 0 0 1 1.801-2.481l.24-.177a5.171 5.171 0 0 1 1.42-1.736c.206-.131.412-.257.622-.385h.001v-.001a47 47 0 0 0 .567-.349 5.284 5.284 0 0 1 2.638-.419l.13-.002a5.285 5.285 0 0 1 2.606 1.012l1.06 1.009h-.001Zm-24.407 9.573a4.182 4.182 0 0 0-.35-1.612 4.212 4.212 0 0 0-1.413-1.777 4.433 4.433 0 0 0-2.124-.774l-1.097.035a4.297 4.297 0 0 0-2.045.946l-.522.388a5.377 5.377 0 0 0-2.731.304 5.492 5.492 0 0 0-3.2 4.409c-.107.902-.288 1.751-.469 2.599-.114.536-.229 1.072-.324 1.621-.082.407-.14.819-.175 1.232a8.533 8.533 0 0 0-.006 1.595c-.01.575.128 1.143.4 1.65a4.7 4.7 0 0 0 1.76 2.333c.45.262.917.521 1.39.752a5.095 5.095 0 0 0 2.581.275 5.74 5.74 0 0 0 2.835-1.284 7.491 7.491 0 0 0 1.915-2.638l.22-.48a81.299 81.299 0 0 0 1.578-3.891c.119-.312.241-.627.364-.943.406-1.044.819-2.104 1.113-3.118a4.18 4.18 0 0 0 .3-1.622Zm-6.047 39.581a6.08 6.08 0 0 1 1.265 4.403 12.931 12.931 0 0 1-.472 2.456c-.064.33-.168.652-.31.957a34.216 34.216 0 0 1-.906 1.71 4.963 4.963 0 0 1-2.619 2.176 5.176 5.176 0 0 1-6.481-7.679c.14-.347.279-.693.429-1.032.15-.338.25-.586.362-.872l.182-.428a5.81 5.81 0 0 1 .743-1.331 4.552 4.552 0 0 1 1.017-1.116 4.796 4.796 0 0 1 3.486-1.035 4.569 4.569 0 0 1 2.3.885c.363.269.7.572 1.004.906ZM64.5 63.492l-.41-1.417a5.706 5.706 0 0 0-1.888-2.378 5.801 5.801 0 0 0-7.016.151 6.328 6.328 0 0 0-2.084 2.981c-.076.28-.151.561-.238.834l-.133.447a5.099 5.099 0 0 0-.448.618 6.79 6.79 0 0 0-.762 1.446 9.07 9.07 0 0 0-.335 1.387 38.96 38.96 0 0 1-.415 2.289c-.29.741-.582 1.48-.875 2.219-.293.739-.585 1.478-.875 2.219a5.756 5.756 0 0 0 5.57 7.872 5.758 5.758 0 0 0 5.208-3.822l.673-1.654c.51-.557.91-1.205 1.179-1.91.537-1.257.95-2.564 1.233-3.901l.445-1.692c.33-.896.614-1.793.855-2.721a5.73 5.73 0 0 0 .316-2.968Z" fill="#388172"/></g></svg>