<svg width="239" height="540" xmlns="http://www.w3.org/2000/svg"><path d="M189.748 334.921c-.725 5.128.048 10.271 2.22 14.781 2.005 4.306 8.778 3.155 10.164-1.44 1.494-4.984 1.544-10.219.144-15.059a5.977 5.977 0 0 0-2.446-3.558 6.041 6.041 0 0 0-4.224-.962c-1.505.206-2.921.947-3.994 2.09a6.939 6.939 0 0 0-1.864 4.148Zm-73.006-13.38c.403 2.095.909 4.17 1.516 6.215.165.561.316 1.143.468 1.731.487 1.878.99 3.818 2.013 5.351 2.042 3.116 5.457 4.642 9.187 3.056a8.246 8.246 0 0 0 4.018-3.685c.888-1.654 1.179-3.544.82-5.324-.626-3.748-3.038-7.57-5.139-10.9-.326-.516-.644-1.02-.947-1.51-3.646-5.871-13.463-2.312-11.957 5.104l.021-.038Zm-40.88 5.161c-.661-3.877-.25-7.926 1.187-11.707l.012.006a7.481 7.481 0 0 1 2.239-3.258 7.166 7.166 0 0 1 3.542-1.62 6.366 6.366 0 0 1 3.701.586 6.15 6.15 0 0 1 2.671 2.566c1.788 3.414 2.593 7.317 2.326 11.286a8.668 8.668 0 0 1-2.3 5.248c-1.345 1.448-3.13 2.388-5.027 2.647-1.899.26-3.786-.179-5.318-1.235-1.532-1.056-2.609-2.659-3.033-4.519Zm23.463-74.114a61.035 61.035 0 0 1-1.796-8.347c-.282-1.583.004-3.251.806-4.706a7.412 7.412 0 0 1 3.575-3.244c1.506-.639 3.156-.728 4.656-.25a6.26 6.26 0 0 1 3.541 2.861 60.228 60.228 0 0 1 3.755 7.523c.309.743.656 1.49 1.005 2.245.988 2.131 2 4.316 2.264 6.586.992 9.047-9.963 13.89-14.824 6.289-1.28-2.002-1.879-4.478-2.462-6.89-.17-.698-.337-1.392-.52-2.067Zm61.89-20.697c.172-2.82.605-5.632 1.293-8.399l-.039.044a5.76 5.76 0 0 1 1.484-2.33 5.6 5.6 0 0 1 2.376-1.355 5.148 5.148 0 0 1 2.656-.032 4.835 4.835 0 0 1 2.254 1.299 40.491 40.491 0 0 1 4.57 6.758c2.505 4.316-.49 10.287-5.25 11.615-4.761 1.328-9.843-2.444-9.344-7.6Zm-43.303-89.011c-.339.24-.716.444-1.133.67h-.001v.001h-.001c-.421.228-.883.478-1.391.811a14.65 14.65 0 0 0-3.74 3.802 16.966 16.966 0 0 0-3.975 8.566c-.781 6.4 7.771 9.832 12.142 5.166a17.016 17.016 0 0 0 3.992-8.541c.46-1.632.622-3.32.475-4.976a14.361 14.361 0 0 0-.504-1.884 23.54 23.54 0 0 0-.13-.476c.049.085.091.018.032-.66-.225-2.53-3.775-3.887-5.818-2.442l.052-.037Zm-96.867 26.718v-.001c.62-.546 1.234-1.088 1.83-1.636 1.218-1.178 2.788-1.891 4.42-2.01 1.633-.118 3.218.367 4.464 1.366 1.246.998 2.068 2.444 2.315 4.069.246 1.626-.098 3.322-.971 4.777-.442.729-.875 1.489-1.313 2.257v.002h-.001v.001h-.001c-1.934 3.392-3.971 6.964-7.276 8.953-5.785 3.485-13.149-2.169-10.826-8.712 1.344-3.761 4.398-6.454 7.359-9.066Zm24.187 62.658a8.883 8.883 0 0 1 1.97-2.035c.652-1.885 2.079-3.604 3.642-4.616 1.423-.806 3.038-1.14 4.605-.953a6.894 6.894 0 0 1 4.099 1.992c6.483 6.279.566 18.483-8.381 18.307-1.934-.019-3.756-.747-5.132-2.052-1.376-1.305-2.215-3.098-2.362-5.053-.148-1.954.406-3.939 1.559-5.59Zm3.217-2.81c-.152-.041.09-.24 1.503-.593a8.422 8.422 0 0 0-1.503.593Zm-2.792-108.688a44.43 44.43 0 0 1-.598-9.072l-.053-.044c-.102-6.401 9.649-9.05 12.163-3.345a42.75 42.75 0 0 1 3.129 8.389c.283 1 .36 2.046.224 3.076a8.13 8.13 0 0 1-1.006 2.984 8.26 8.26 0 0 1-2.067 2.399 7.99 7.99 0 0 1-2.789 1.42 7.435 7.435 0 0 1-3.05.204 6.927 6.927 0 0 1-4.907-3.165 7.271 7.271 0 0 1-1.046-2.846Zm41.418 298.188c-1.094-4.402.731-8.139 3.484-11.709l-.02.006a7.24 7.24 0 0 1 3.22-2.663 6.604 6.604 0 0 1 4.032-.364 5.892 5.892 0 0 1 3.213 2.303 6.276 6.276 0 0 1 1.091 3.891 21.578 21.578 0 0 1-.937 5.988 12.54 12.54 0 0 1-5.032 6.338c-3.545 2.601-8.188-.174-9.052-3.79h.001Zm-63.513-35.409-.036 1.019c-.032.382-.013.763.056 1.134l.008.099-.017.029-.005.01c-.355.52-.676 1.064-.96 1.626l-.084.121-.034.052-.033.049a10.97 10.97 0 0 0-1.242 4.052 6.691 6.691 0 0 0 .534 3.245 6.224 6.224 0 0 0 2.001 2.508 6.99 6.99 0 0 0 2.863 1.305 7.38 7.38 0 0 0 3.207-.065c4.822-.701 7.687-6.298 7.888-10.704.16-3.94-1.19-8.11-4.738-9.918-3.548-1.808-9.524.458-9.488 5.444l.08-.006Zm-4.837-98.873a8.368 8.368 0 0 1-3.486-3.973 7.547 7.547 0 0 1-.872-3.387 8.162 8.162 0 0 1 .724-3.518 8.446 8.446 0 0 1 2.17-2.915 8.164 8.164 0 0 1 3.163-1.704 7.548 7.548 0 0 1 3.496-.138 7.1 7.1 0 0 1 3.101 1.457c.896.729 1.6 1.67 2.06 2.748a7.66 7.66 0 0 1 .587 3.466 9.53 9.53 0 0 1-1.527 5.363c-1.02 1.553-2.562 2.686-4.31 3.169-1.75.483-3.575.28-5.106-.568Zm22.416 231.664a32.939 32.939 0 0 0-2.803 10.28c-.522 4.006-.385 7.906 2.495 10.838 1.276 1.279 3.016 1.979 4.86 1.956 1.845-.023 3.65-.768 5.045-2.08 3.051-2.542 3.755-6.484 3.865-10.189a29.81 29.81 0 0 0-.796-9.212 6.774 6.774 0 0 0-1.99-3.431 6.633 6.633 0 0 0-3.56-1.688c-2.556-.295-5.878.887-7.175 3.495l.06.031h-.001ZM69.198 39.326c-.046.488-.091.971-.134 1.448a4.996 4.996 0 0 1-1.127 2.76 4.945 4.945 0 0 1-2.486 1.627 4.462 4.462 0 0 1-2.865-.146 4.238 4.238 0 0 1-2.114-1.862c-.221-.39-.448-.783-.677-1.18-2.082-3.618-4.364-7.58-4.825-11.81-.409-3.844 1.442-7.683 5.421-8.804 3.98-1.12 7.16 1.403 8.35 5.009 1.304 3.946.86 8.66.457 12.957v.001ZM178.6 18.507c3.647-.642 7.15-2.117 10.241-4.314 3.256-2.105 5.125-6.676 3.08-10.105a7.019 7.019 0 0 0-2.481-2.638c-1.626-.935-3.585-1.166-5.459-.643-1.875.523-3.518 1.758-4.581 3.443-1.945 3.17-3.921 6.76-4.32 10.454-.061.987.28 1.956.946 2.687a3.5 3.5 0 0 0 2.574 1.116Zm55.447 197.082a55.976 55.976 0 0 0-6.215 6.2l.06.031c-2.136 2.594-6.355.495-6.049-2.579a53.753 53.753 0 0 0-.06-8.284c-.25-2.618.412-5.295 1.872-7.571 1.51-2.03 3.629-3.51 6.003-4.192 2.656-.992 6.087.69 7.251 3.052 1.123 2.121 1.451 4.62.928 7.06a11.36 11.36 0 0 1-3.79 6.283ZM56.621 447.518l.675.943c3.828 5.407 11.162 3.351 12.453-3.441l.215-1.205c2.234-12.334-20.311-6.194-13.336 3.691l-.007.012ZM10.516 335.457c.5-.166.997-.336 1.493-.511l-.02.037c1.407-.391 2.877-.252 4.13.392a5.48 5.48 0 0 1 2.674 3.102c.466 1.342.439 2.837-.076 4.22a6.647 6.647 0 0 1-2.737 3.332c-.565.39-1.108.809-1.652 1.229-.754.581-1.51 1.164-2.33 1.675-2.262 1.39-4.9 1.908-7.409 1.453a5.26 5.26 0 0 1-2.329-1.302 5.367 5.367 0 0 1-1.402-2.293c-.31-.88-.42-1.82-.32-2.748.098-.941.4-1.86.886-2.69 1.704-3.412 5.669-4.745 9.092-5.896Z" fill="#FFF" fill-rule="evenodd"/></svg>