<svg width="157" height="306" viewBox="0 0 157 306" xmlns="http://www.w3.org/2000/svg"><g fill="#FCCEC8" fill-rule="nonzero"><path d="M127.351 292.343c.731.182 1.395.57 1.913 1.118a16.188 16.188 0 0 1 2.893 4.127c.952 1.767 1.675 3.792.861 5.741a3.96 3.96 0 0 1-4.851 2.513c-2.216-.662-3.343-2.459-4.173-4.469a16.868 16.868 0 0 1-1.363-5.045l-.045-.476h-.038c-.069-1.546 1.248-2.924 2.589-3.419a3.945 3.945 0 0 1 2.214-.09Zm-9.48-38.83.07.185.221.616c1.182 3.434-1.737 6.17-5.01 4.762l-.176-.079-.586-.274v-.007c-6.038-2.873 3.125-11.17 5.482-5.203Zm-34.797-21.677c2.239-.03 4.036 1.591 5.026 3.48 1.096 2.117 1.203 5.452-.983 6.975a4.138 4.138 0 0 1-3.327.921 3.673 3.673 0 0 1-2.81-2.071 5.588 5.588 0 0 1-.487-2.208 3.73 3.73 0 0 1 .014-.147v-.007l-.006-.257c0-.122.003-.244.01-.366l.027-.365v-.024l-.03-.045a2.299 2.299 0 0 1-.24-.335l-.095-.183-.26-.487-.037.023c-1.371-2.33.96-4.874 3.198-4.904Zm-2.561 6.91-.006.033.003.109.027.364v-.187l-.001-.129c-.003-.146-.01-.267-.023-.19Zm42.556-10.897a3.519 3.519 0 0 1 1.596 1.558c.534.953.926 1.979 1.165 3.046a6.282 6.282 0 0 1-.762 4.226c-1.043 2.101-4.089 1.949-5.497.464-1.673-1.73-1.84-3.842-1.503-6.103l.041-.262-.008.007a3.665 3.665 0 0 1 2.756-3.221 3.523 3.523 0 0 1 2.212.285Zm-42.492 9.974.01.042c.03.145.083.312.134.299l-.115-.299-.029-.042Zm-.022-.032.006.032c.027.148.033.144.005-.002l-.005-.021-.006-.009Zm.007-.068.004.036-.022-.058v.009l.01.05.007.04.016.023-.001-.01-.009-.049.04.101.038.055c-.074-.298-.094-.297-.083-.197Zm-.02-.009-.002.027-.002.026.017.024-.004-.03-.009-.047Zm-.002-.013.002.013.001-.004-.003-.009Zm.013-.058-.015.041.006.016.001-.01.008-.047Zm.01-.045-.01.042.013-.03c.08-.22.031-.154-.003-.012Zm-16.519-21.867a3.232 3.232 0 0 1 2.156.792 3.322 3.322 0 0 1 .662 4.234c-.41.769-.715 1.583-1.172 2.345a5.736 5.736 0 0 1-3.252 2.513 3.135 3.135 0 0 1-2.81-.762 3.407 3.407 0 0 1-1.195-2.688c-.099-2.322 2.018-4.096 3.472-5.619v.023a3.231 3.231 0 0 1 2.139-.838ZM91.29 185.69a3.668 3.668 0 0 1 2.01.542 11.74 11.74 0 0 1 4.203 4.714 4.37 4.37 0 0 1-7.135 4.88 11.74 11.74 0 0 1-2.523-5.382l-.066-.397c-.12-.7-.043-1.422.227-2.08a3.73 3.73 0 0 1 1.304-1.636 3.663 3.663 0 0 1 1.98-.641Zm-38.808-3.889a4.199 4.199 0 0 1 2.982 2.253c.528.866.773 1.875.7 2.886a3.864 3.864 0 0 1-3.921 3.541 4.945 4.945 0 0 1-2.787-.997 4.21 4.21 0 0 1-1.941-3.194 4.201 4.201 0 0 1 4.967-4.489Zm60.494-4.234c2.094 1.15 4.813 2.452 6.336 4.294a4.126 4.126 0 0 1 .061 5.399c-1.402 1.66-3.488 1.79-5.331.838-1.203-.609-2.155-1.767-3.129-2.696a35.805 35.805 0 0 1-1.96-2.006l-.462-.522v.023c-2.741-3.092 1.112-7.173 4.485-5.33Zm37.45-12.104a3.503 3.503 0 0 1 2.169 1.062 14.222 14.222 0 0 1 4.013 7.097c.564 2.498-2.459 4.714-4.614 3.191a14.103 14.103 0 0 1-5.102-6.381 3.502 3.502 0 0 1 3.534-4.969ZM56.719 152.4c4.896 1.34 5.292 8.529.838 10.661a4.44 4.44 0 0 1-5.968-5.885l.02-.041-.026-.162a4.738 4.738 0 0 1 .476-2.738l.091-.167a4.085 4.085 0 0 1 4.57-1.668Zm-4.386 3.739a.6.6 0 0 1-.317.323l-.002-.001-.062.086c-.092.133-.177.271-.254.413l-.089.175.007.037c.127.66.425 1.271.938 1.731l-.023.023c.586.525-.502-1.173-.51-1.203l-.026-.432c.01-.052.025-.152.049-.307.014-.224.085-.441.205-.632.183-.335.213-.403.084-.213ZM84.01 145.22a34.66 34.66 0 0 1 3.876 2.589c1.348 1.035 2.985 1.972 3.99 3.32 2.932 3.982-1.134 8.947-5.574 6.594-1.507-.8-2.672-2.246-3.883-3.449a33.81 33.81 0 0 1-3.137-3.457 3.717 3.717 0 0 1 4.728-5.597Zm-32.027 11.856.012.215-.003.014c-.006.022-.008-.01-.009-.098v-.131Zm.609-1.264c-.567.487-.657.65-.592.652l.014-.003.082-.11.155-.188.165-.18.176-.171Zm-24.49-24.639a3.744 3.744 0 0 1 3.07 3.828c-.106 2.452.145 5.254-1.195 7.409-1.911 3.076-7.09 2.246-7.721-1.409-.434-2.543.792-4.972 1.63-7.317a3.737 3.737 0 0 1 4.216-2.511Zm80.602-10.335a23.681 23.681 0 0 1 4.074 2.033c2.399 1.401 2.543 4.934.563 6.731-1.979 1.797-5.497 1.287-6.647-1.249a24.12 24.12 0 0 1-1.453-3.624l-.184-.625-.008.031a2.873 2.873 0 0 1 .899-2.678 2.887 2.887 0 0 1 2.756-.619ZM66.436 96.844c.19.272.208.334.177.325l-.015-.007.022.021.076.075.097.096c.27.237.525.491.762.762a7.28 7.28 0 0 1 1.12 2.459 8.591 8.591 0 0 1 .35 5.011c-.892 3.282-6.054 3.792-7.41.586a8.566 8.566 0 0 1-.365-5.018c.093-.95.37-1.874.815-2.718.274-.483.548-.82.75-1.157l.095-.168-.015.03c.616-1.188 2.74-1.431 3.54-.297Zm68.92-2.01a5.703 5.703 0 0 1 2.215 6.99c-.5 1.24-.913 2.514-1.233 3.811l-.152.651h.038c-.351 1.752-3.008 1.813-3.693.29a28.81 28.81 0 0 0-2.285-3.884 6.165 6.165 0 0 1-1.134-4.028 5.864 5.864 0 0 1 1.827-3.465c1.043-1.126 3.198-1.187 4.417-.365ZM24.982 96.296a24.23 24.23 0 0 1 3.807 3.152 4.117 4.117 0 0 1-1.54 6.863 4.127 4.127 0 0 1-3.267-.269 4.117 4.117 0 0 1-1.284-1.073 23.907 23.907 0 0 1-2.453-3.555l-.296-.542-.038-.007c-1.782-2.97 2.292-6.617 5.07-4.57Zm41.615.865.001.001-.034-.033c-.159-.15-.03-.006.033.032Zm37.196-18.15c4.463 4.934-3.205 11.848-7.66 6.921-4.454-4.942 3.198-11.856 7.66-6.921Zm25.219-16.866a4.365 4.365 0 0 1 3.046 4.332 9.086 9.086 0 0 1-.756 2.82l-.158.333v-.03c-.967 2.01-3.83 2.466-5.65 1.614a4.51 4.51 0 0 1-2.383-5.33c.214-.7.552-1.355.997-1.935a4.509 4.509 0 0 1 4.904-1.804ZM57.497 58.01c3.792 4.195-2.711 10.074-6.519 5.886-3.792-4.203 2.727-10.082 6.519-5.886ZM9.379 54.043c1.904 1.698 3 4.378 4.059 6.662a2.521 2.521 0 0 1-3.579 3.237c-2.162-1.287-4.698-2.65-6.221-4.721-1.241-1.698-1.37-3.952.282-5.46 1.652-1.508 3.898-1.112 5.46.282Zm86.265-12.996.176.005c2.65.137 4.973 3.023 3.922 5.665a14.523 14.523 0 0 1-1.302 2.68c-.34.427-.665.867-.971 1.319l-.3.456-.008.03c-.762 1.409-3.214 1.325-3.808-.198a19.685 19.685 0 0 0-1.028-1.919 14.892 14.892 0 0 1-.99-2.794c-.683-2.62 1.615-5.142 4.133-5.241l.176-.003Zm-35.2-30.173.243.001a4.18 4.18 0 0 1 1.941.625c1.942 1.104 2.262 3.716 1.226 5.513a13.264 13.264 0 0 1-3.883 4.568 2.071 2.071 0 0 1-2.772-.913c-.807-1.835-.807-4.013-.708-5.985a4.067 4.067 0 0 1 3.71-3.795l.242-.014ZM4.795.024A4.34 4.34 0 0 1 6.64.657c2.779 1.91 3.563 5.741 3.449 8.916-.122 3.412-4.614 4.744-6.77 2.406C1.165 9.643-.64 6.23.22 2.987A4.34 4.34 0 0 1 4.796.024ZM139.871 223.27l-.137.312c-1.789 4.051 4.028 7.196 7.005 4.508 3.435-3.107.244-7.782-3.769-7.425h-.342a3.636 3.636 0 0 0-2.825 2.559l-.069.335c-.761 3.952 3.571 7.615 7.005 4.508 2.963-2.673.48-8.81-3.769-7.424a4.332 4.332 0 0 0-3.099 2.604v.023Z"/></g></svg>