<svg width="242" height="1021" xmlns="http://www.w3.org/2000/svg"><path d="M10.518 994.64c1.296-.3 2.665-.2 3.945.3 2.404 1 4.798 3.67 4.73 6.56h-.067a32.03 32.03 0 0 1-2.315 10.29c-1.408 3.72-3.352 7.03-7.274 8.15-1.73.48-3.6.22-5.224-.71-1.625-.93-2.879-2.46-3.502-4.29-1.52-3.7-.302-7.46 1.331-10.73 1.27-2.8 2.96-5.36 5.008-7.58.903-1 2.071-1.69 3.367-1.99Zm28.149-61.12v.02l-1.04.48c-5.933 2.8-11.487-2.61-9.456-9.14l.374-1.15c3.787-11.8 20.946 4.67 10.122 9.79Zm53.458-49.588.29.008c3.993.19 8.237 5.1 5.875 9.4l-.069-.04-.444.9c-.15.34-.345.66-.58.95l-.053.08.002.05c.072.62.102 1.25.092 1.88l.009.07.02.2c.009 1.43-.26 2.83-.791 4.12a6.338 6.338 0 0 1-1.99 2.54 6.01 6.01 0 0 1-2.947 1.19c-1.045.14-2.12.05-3.15-.28-1.029-.34-1.99-.9-2.815-1.64-3.95-2.99-3.877-9.25-1.996-13.17 1.698-3.49 4.845-6.43 8.838-6.25Zm-69.112-8.104a6.945 6.945 0 0 1 3.404 2.302 7.433 7.433 0 0 1 1.61 3.9l-.014-.02c.773 4.45.647 8.58-2.377 11.85-2.453 2.71-7.863 2.82-9.791-1.18-1.365-2.43-1.896-5.26-1.502-7.97a20.624 20.624 0 0 1 1.965-5.64c.597-1.26 1.574-2.25 2.783-2.83a5.841 5.841 0 0 1 3.922-.412ZM97.113 895l.019.11.01-.03-.028-.08Zm30.3-40.58.264.006c1.414.061 2.784.666 3.85 1.7v-.043c.346.385.712.778 1.087 1.181 2.5 2.688 5.398 5.801 5.315 9.598a6.546 6.546 0 0 1-.471 2.768 5.965 5.965 0 0 1-1.57 2.223 5.18 5.18 0 0 1-2.317 1.294 5.314 5.314 0 0 1-2.676-.022c-2.44-.845-4.54-2.596-5.899-4.918-.49-.847-.888-1.726-1.285-2.602-.287-.632-.573-1.263-.892-1.88a6.713 6.713 0 0 1-.871-4.239c.189-1.452.864-2.76 1.905-3.693a5.347 5.347 0 0 1 3.824-1.367Zm25.23-61.903a7.927 7.927 0 0 1 3.041 1.847 8.522 8.522 0 0 1 2.013 3.041 8.502 8.502 0 0 1 .563 3.6 7.89 7.89 0 0 1-1.002 3.408 7.187 7.187 0 0 1-2.36 2.506 8.173 8.173 0 0 1-4.957 1.722c-1.757-.021-3.474-.747-4.802-2.03a7.867 7.867 0 0 1-2.347-4.878c-.166-1.913.237-3.802 1.153-5.405a7.298 7.298 0 0 1 2.144-2.715 6.938 6.938 0 0 1 3.116-1.365 7.226 7.226 0 0 1 3.437.269Zm-114.719-8.536c5.99-3.292 13.051 4.654 8.24 10.346l-.001-.044a61.88 61.88 0 0 1-4.258 4.644c-.41.406-.816.837-1.227 1.272-1.312 1.389-2.667 2.824-4.296 3.649-3.274 1.695-7.024 1.329-9.598-1.893a8.443 8.443 0 0 1-1.845-5.186c-.015-1.875.611-3.659 1.764-5.026 2.31-2.944 6.245-5.068 9.673-6.919.53-.287 1.05-.567 1.548-.843Zm108.26-45.489c1.479.612 2.755 1.698 3.642 3.099.914 1.648 1.376 3.841 1.073 5.796.406.858.678 1.782.798 2.734.251 2-.185 3.992-1.23 5.611-1.044 1.62-2.626 2.76-4.457 3.21-1.83.451-3.788.183-5.513-.756-8.022-4.263-7.568-17.754 1.12-19.992 1.489-.418 3.09-.313 4.568.298Zm-54.826-13.687a6.223 6.223 0 0 1 4.486-.731c1.557.327 2.982 1.22 4.022 2.52a7.596 7.596 0 0 1 1.658 4.582c.032 1.659-.495 3.247-1.487 4.482a58.146 58.146 0 0 1-5.505 6.354 74.64 74.64 0 0 0-1.429 1.536c-1.648 1.804-3.34 3.655-5.414 4.76-7.88 4.191-15.349-5.428-10.231-12.787 1.296-1.839 3.219-3.233 5.095-4.595l.66-.48c.438-.321.87-.643 1.284-.97a57.827 57.827 0 0 1 6.86-4.671Zm57.741 20.039c.391.386.745.807 1.057 1.256.154.039.031-.253-1.057-1.256Zm49.887-44.405a7.438 7.438 0 0 1 2.977 3.919c.271.768.563 1.54.856 2.318v.001h.001l.312.829c1.294 3.46 2.497 7.018 1.975 10.646-.994 6.808-10.149 8.068-13.646 2.199-1.998-3.351-2.136-7.446-2.267-11.336-.029-.882-.059-1.754-.109-2.605-.095-1.689.391-3.327 1.367-4.611a6.163 6.163 0 0 1 3.946-2.381c1.569-.249 3.198.113 4.588 1.021Zm-149.618 1.477a5.408 5.408 0 0 1 2.346 1.341 5.837 5.837 0 0 1 1.476 2.349 5.77 5.77 0 0 1 .228 2.754l-.014-.058a44.785 44.785 0 0 1-2.781 7.92c-1.97 4.717-8.25 5.476-11.858 1.973-3.608-3.504-3.474-10.161.771-12.665a39.099 39.099 0 0 1 7.222-3.6 4.88 4.88 0 0 1 2.61-.014Zm74.888-65.8c1.379-2.078 5.153-1.501 6.287.757l-.028-.058c.189.375.427.737.69 1.139.267.405.56.851.855 1.389a14.934 14.934 0 0 1 1.538 5.135c.737 3.151.571 6.416-.475 9.372-2.292 5.924-11.461 4.676-13.154-1.518-.74-3.144-.584-6.403.448-9.359a13.268 13.268 0 0 1 1.9-4.54c.41-.493.852-.954 1.323-1.382.147-.154.257-.266.337-.347-.083.048-.089-.03.28-.588Zm85.39 8.242-.068.012a42.339 42.339 0 0 1-4.777 7.57 6.935 6.935 0 0 1-2.262 1.95 6.818 6.818 0 0 1-2.858.801 7.166 7.166 0 0 1-2.982-.482 7.796 7.796 0 0 1-2.613-1.684 8.326 8.326 0 0 1-1.814-2.608 8.41 8.41 0 0 1-.714-3.102 7.942 7.942 0 0 1 .504-3.084c.368-.97.925-1.84 1.637-2.556a40.776 40.776 0 0 1 6.706-5.727c4.903-3.704 12.326 3.411 9.241 8.91ZM86.893 586.283c1.471-.114 2.96.329 4.199 1.251a7.051 7.051 0 0 1 2.567 3.782c.419 1.519.318 3.119-.284 4.513-1.754 4.799-4.843 8.872-8.88 11.706-3.791 2.74-9.264-1.6-8.347-6.264 1.005-5.055 3.407-9.614 6.912-13.115a5.778 5.778 0 0 1 3.833-1.873Zm152.354-28.547c3.01 2.938 2.858 7.18.697 10.309-2.389 3.439-6.27 5.747-9.812 7.853-.389.232-.775.461-1.154.689-.819.5-1.783.7-2.749.57a4.665 4.665 0 0 1-2.613-1.288 5.128 5.128 0 0 1-1.446-2.639 4.902 4.902 0 0 1 .29-2.95c.185-.434.37-.875.558-1.321 1.652-3.924 3.464-8.231 6.469-11.006 2.744-2.538 6.75-3.155 9.76-.217ZM14.461 517.069c2.404 1.006 4.798 3.668 4.73 6.566l-.067-.002a31.96 31.96 0 0 1-2.314 10.284c-1.407 3.726-3.35 7.036-7.272 8.153-1.729.478-3.6.226-5.224-.704-1.624-.93-2.878-2.466-3.501-4.291-1.52-3.706-.303-7.467 1.33-10.729a28.356 28.356 0 0 1 5.006-7.583 6.516 6.516 0 0 1 3.367-1.99 6.736 6.736 0 0 1 3.945.296Zm120.985-38.747c1.877-.006 3.72.76 5.137 2.138a8.232 8.232 0 0 1 2.452 5.239c.244 3.703.32 7.786-1.05 11.18a3.488 3.488 0 0 1-2.093 1.859c-.917.291-1.924.182-2.801-.304a26.433 26.433 0 0 1-7.06-8.787c-1.904-3.428-1.427-8.306 1.986-10.265a6.866 6.866 0 0 1 3.429-1.06Zm-96.779-22.665v.014l-1.04.484c-5.932 2.797-11.486-2.61-9.455-9.138l.373-1.152c3.786-11.801 20.944 4.666 10.122 9.792Zm53.747-49.582c3.992.185 8.236 5.098 5.875 9.398l-.069-.046-.444.901c-.15.347-.345.668-.58.954l-.053.082.002.034v.011c.072.627.103 1.256.092 1.882.009.063.019.15.03.267a10.667 10.667 0 0 1-.791 4.122 6.373 6.373 0 0 1-1.99 2.547 6.046 6.046 0 0 1-2.946 1.184 7.068 7.068 0 0 1-3.149-.283 7.728 7.728 0 0 1-2.815-1.639c-3.95-2.987-3.878-9.248-1.998-13.163 1.698-3.492 4.844-6.437 8.836-6.251Zm-73.323-7.707a5.857 5.857 0 0 1 3.921-.409 6.929 6.929 0 0 1 3.404 2.304 7.442 7.442 0 0 1 1.61 3.894l-.014-.015c.773 4.449.647 8.583-2.376 11.855-2.452 2.704-7.862 2.816-9.79-1.185-1.364-2.434-1.896-5.255-1.502-7.969a20.788 20.788 0 0 1 1.964-5.645 5.965 5.965 0 0 1 2.783-2.83Zm78.022 18.765.005.029c.005.025.01.051.013.077l.01-.03a8.39 8.39 0 0 1-.028-.076Zm30.299-40.581.264.005c1.414.061 2.784.666 3.85 1.7v-.043c.346.385.712.778 1.087 1.181 2.501 2.688 5.398 5.801 5.316 9.598a6.551 6.551 0 0 1-.471 2.769 5.972 5.972 0 0 1-1.57 2.223 5.178 5.178 0 0 1-2.316 1.294 5.302 5.302 0 0 1-2.677-.022c-2.439-.844-4.54-2.596-5.898-4.917-.49-.848-.888-1.726-1.285-2.602a39.898 39.898 0 0 0-.893-1.881 6.711 6.711 0 0 1-.871-4.238c.19-1.452.864-2.761 1.905-3.694a5.351 5.351 0 0 1 3.823-1.368Zm21.792-62.173a7.225 7.225 0 0 1 3.437.269 7.94 7.94 0 0 1 3.042 1.847 8.523 8.523 0 0 1 2.013 3.041 8.502 8.502 0 0 1 .564 3.6 7.896 7.896 0 0 1-1.003 3.409 7.185 7.185 0 0 1-2.36 2.506 8.171 8.171 0 0 1-4.955 1.722c-1.757-.021-3.474-.746-4.802-2.029a7.873 7.873 0 0 1-2.347-4.878c-.166-1.913.236-3.803 1.152-5.406a7.296 7.296 0 0 1 2.144-2.715 6.938 6.938 0 0 1 3.115-1.366Zm-103.041 2.078-.001-.043a62.1 62.1 0 0 1-4.257 4.645c-.41.406-.816.836-1.227 1.271-1.312 1.389-2.667 2.824-4.295 3.65-3.274 1.695-7.023 1.33-9.597-1.892a8.448 8.448 0 0 1-1.846-5.186c-.015-1.876.61-3.66 1.764-5.027 2.31-2.944 6.244-5.069 9.671-6.92.53-.287 1.05-.567 1.548-.843 5.99-3.293 13.05 4.652 8.24 10.345Zm95.453-56.132c1.489-.418 3.09-.313 4.568.298 1.477.612 2.753 1.698 3.64 3.099.914 1.648 1.377 3.841 1.075 5.796.405.858.678 1.782.797 2.735.252 1.999-.184 3.991-1.228 5.611-1.044 1.62-2.627 2.76-4.457 3.211-1.83.451-3.788.183-5.512-.756-8.022-4.263-7.57-17.755 1.117-19.994Zm-45.774-14.121c1.557.327 2.982 1.22 4.022 2.52a7.597 7.597 0 0 1 1.658 4.582c.032 1.659-.495 3.247-1.486 4.482a58.054 58.054 0 0 1-5.504 6.355c-.478.495-.951 1.014-1.429 1.536-1.647 1.804-3.339 3.656-5.413 4.761-7.879 4.192-15.348-5.427-10.231-12.786 1.21-1.716 2.964-3.047 4.718-4.323l.376-.273c.664-.482 1.322-.959 1.944-1.451a57.812 57.812 0 0 1 6.86-4.671 6.217 6.217 0 0 1 4.485-.732Zm53.256 20.771c.391.386.745.807 1.057 1.256.154.04.031-.253-1.057-1.256Zm45.3-45.425c1.568-.25 3.197.112 4.587 1.02 1.39.908 2.447 2.3 2.977 3.919.271.768.563 1.541.856 2.319 1.404 3.721 2.852 7.558 2.288 11.476-.993 6.808-10.147 8.068-13.643 2.2-1.998-3.351-2.136-7.447-2.268-11.336-.03-.884-.059-1.755-.11-2.605-.095-1.689.391-3.328 1.367-4.613a6.16 6.16 0 0 1 3.946-2.38Zm-147.641 2.511a4.88 4.88 0 0 1 2.61-.014 5.397 5.397 0 0 1 2.345 1.341 5.837 5.837 0 0 1 1.477 2.349c.299.894.377 1.842.228 2.754l-.015-.058a44.828 44.828 0 0 1-2.78 7.921c-1.968 4.717-8.248 5.477-11.856 1.973-3.608-3.503-3.474-10.16.77-12.665a39.095 39.095 0 0 1 7.22-3.601Zm83.694-65.223.087.162-.025-.054c.141.281.31.555.498.844l.193.295c.266.406.559.851.853 1.389a14.938 14.938 0 0 1 1.539 5.135c.737 3.151.572 6.416-.474 9.373-2.291 5.924-11.46 4.676-13.152-1.517-.74-3.144-.585-6.403.447-9.36a13.266 13.266 0 0 1 1.898-4.54c.41-.493.852-.955 1.323-1.383l.082-.084.048-.05.088-.091.12-.122c-.083.049-.089-.029.279-.587 1.343-2.027 4.964-1.53 6.196.59Zm69.953-1.259c4.903-3.704 12.325 3.411 9.241 8.91l-.068.013a42.37 42.37 0 0 1-4.776 7.57 6.956 6.956 0 0 1-2.261 1.951 6.82 6.82 0 0 1-2.858.8 7.168 7.168 0 0 1-2.982-.481 7.806 7.806 0 0 1-2.613-1.684 8.323 8.323 0 0 1-1.813-2.608 8.375 8.375 0 0 1-.714-3.103 7.908 7.908 0 0 1 .503-3.084c.368-.97.925-1.84 1.637-2.556a40.768 40.768 0 0 1 6.704-5.728ZM91.09 109.665a7.052 7.052 0 0 1 2.568 3.782c.418 1.519.318 3.119-.284 4.513-1.753 4.8-4.842 8.874-8.878 11.708-3.79 2.74-9.263-1.6-8.346-6.265 1.003-5.054 3.405-9.614 6.909-13.116a5.786 5.786 0 0 1 3.833-1.873c1.47-.114 2.959.329 4.198 1.251Zm138.396-29.581c2.744-2.537 6.749-3.155 9.759-.217 3.01 2.937 2.859 7.179.698 10.31-2.388 3.439-6.268 5.747-9.81 7.854-.39.232-.775.461-1.154.689-.819.5-1.783.7-2.748.57a4.662 4.662 0 0 1-2.613-1.288 5.133 5.133 0 0 1-1.447-2.639 4.91 4.91 0 0 1 .29-2.95c.185-.434.371-.875.558-1.322 1.651-3.924 3.463-8.231 6.467-11.007ZM93.646 9.833c2.13-1.47 5.95-1.234 7.838.935a11.853 11.853 0 0 1 3.358 6.588c.232 2.689-.43 5.333-1.87 7.474a51.29 51.29 0 0 0-3.914 7.139c-1.161 2.812-5.872 2.547-6.554-.751l.068.003a57.255 57.255 0 0 0-2.61-8.43c-.95-2.35-1.1-4.936-.427-7.306.674-2.369 2.129-4.371 4.11-5.652ZM135.444.454c1.877-.007 3.72.76 5.136 2.137a8.236 8.236 0 0 1 2.452 5.24c.245 3.703.322 7.785-1.048 11.18a3.487 3.487 0 0 1-2.092 1.859c-.917.291-1.924.182-2.802-.304a26.433 26.433 0 0 1-7.06-8.786c-1.903-3.428-1.426-8.307 1.985-10.266a6.855 6.855 0 0 1 3.429-1.06Z" fill="#00A5CE" fill-rule="evenodd"/></svg>