<svg width="121" height="143" viewBox="0 0 121 143" fill="none" xmlns="http://www.w3.org/2000/svg"><path fill-rule="evenodd" clip-rule="evenodd" d="M34.44 7.084a42.486 42.486 0 0 1 1.102-3.297c.478-1.16 1.16-2.12 1.978-2.785C38.337.337 39.262-.008 40.2 0c.467 0 .932.09 1.382.267 1.125.458 2.115 1.426 2.824 2.76.708 1.333 1.096 2.96 1.105 4.636a40.965 40.965 0 0 1-1.149 8.042 39.62 39.62 0 0 1-1.786 7.217c-.634 1.502-1.586 2.673-2.717 3.342l-.078.2-.116.357c-.112.346-.223.686-.35 1.002a20.88 20.88 0 0 1-1.413 2.695c-.856 1.225-1.971 2.01-3.17 2.23-1.2.223-2.416-.131-3.461-1.004-1.233-1.043-2.14-2.726-2.531-4.7a11.856 11.856 0 0 1 0-4.189c.308-1.93.75-3.81 1.32-5.613l1.428-5.08c.252-1.332.745-2.547 1.429-3.519l1.118-1.247.404-.312ZM2.246 32.144c.606-1.781 1.273-3.496 1.957-5.212.502-1.22 1.22-2.228 2.082-2.921.863-.693 1.837-1.045 2.825-1.022a4.424 4.424 0 0 1 1.895.446c.8.125 1.572.489 2.267 1.07.856.693 1.569 1.7 2.065 2.917l.575 1.938a13.793 13.793 0 0 1 0 4.656c-.214.874-.463 1.73-.746 2.562-.075.217-.136.413-.199.614-.065.211-.132.427-.22.678-.17.49-.326 1.002-.481 1.515a32.704 32.704 0 0 1-2.128 6.036 19.935 19.935 0 0 1-1.972 3.32c-.773 1.046-1.717 1.798-2.745 2.188a4.512 4.512 0 0 1-3.14.04c-.994-.38-1.898-1.133-2.619-2.183-.721-1.05-1.233-2.358-1.481-3.788a17.691 17.691 0 0 1 .124-5.792 41.886 41.886 0 0 1 1.941-7.061Zm5.622 42.147L7.51 76.25c-.455 2.48-.907 4.95-1.35 7.42v.178l-.14.357c-.28.646-.528 1.314-.76 1.983a50.344 50.344 0 0 0-.963 3.163c-.61 2.12-.713 4.47-.295 6.683.279 1.383.816 2.63 1.553 3.608.634 1.295 1.512 2.305 2.531 2.91 1.02.605 2.138.781 3.225.508 1.087-.274 2.097-.985 2.912-2.052.814-1.067 1.4-2.445 1.69-3.972.827-4.087 1.563-8.214 2.297-12.334.355-1.989.709-3.975 1.073-5.955.397-2.158.188-4.454-.58-6.395-.77-1.94-2.04-3.371-3.536-3.985a4.047 4.047 0 0 0-1.553-.312c-1.301-.006-2.568.602-3.606 1.728-1.038 1.127-1.79 2.71-2.14 4.51Zm28.217-7.886c.263-.36.555-.674.87-.935v.044c.673-.568 1.44-.867 2.22-.867.782 0 1.549.3 2.222.867.684.572 1.256 1.385 1.661 2.362l.093.222.637.713c.892 1.146 1.52 2.653 1.802 4.322a16.606 16.606 0 0 1-.094 5.68c-.09.669-.204 1.33-.341 1.983a103.284 103.284 0 0 1-.837 3.476l-.095.377c-.394 1.865-1.257 3.454-2.423 4.455-1.026.906-2.236 1.284-3.432 1.07a3.76 3.76 0 0 1-1.46.267H36.8a3.034 3.034 0 0 1-1.383.678 2.623 2.623 0 0 1-1.46-.143c-.923-.378-1.711-1.246-2.204-2.428a6.67 6.67 0 0 1-.489-1.993 7.242 7.242 0 0 1 .116-2.106l.14-.535c-.187-2.11.04-4.255.652-6.193.466-1.603.932-3.207 1.413-4.811l.118-.382c.256-.835.515-1.68.798-2.492.105-.335.228-.682.348-1.023v-.001l.004-.009.114-.326.326-.846a5.638 5.638 0 0 1 .792-1.426Zm40.533.58a4.22 4.22 0 0 1 1.553.334c1.564.57 2.912 1.993 3.758 3.965.428 1.008.704 2.133.811 3.303.108 1.17.043 2.36-.19 3.491l-.465 1.648c.063 1.033 0 2.073-.187 3.075a76.898 76.898 0 0 1-1.553 6.905c-.42 1.715-.854 3.408-1.335 5.08v.2c-.287 1.404-.822 2.678-1.553 3.697l-1.18 1.292c-.807.678-1.715 1.066-2.648 1.132-.934.067-1.864-.191-2.713-.751s-1.591-1.405-2.164-2.464c-.573-1.059-.959-2.3-1.125-3.62a11.085 11.085 0 0 1-.94-3.487c-.131-1.247-.07-2.52.179-3.73a86.216 86.216 0 0 1 1.94-7.15l.001-.002c.621-2.228 1.242-4.454 1.848-6.547.272-1.472.807-2.816 1.553-3.899l1.258-1.38c.965-.759 2.053-1.135 3.152-1.092Zm-42.087 51.613c.378-1.763 1.211-3.253 2.33-4.165.816-.648 1.738-.971 2.67-.936.462 0 .922.09 1.367.267 1.03.424 1.944 1.293 2.616 2.489.673 1.196 1.072 2.661 1.142 4.194.55 1.354.844 2.889.855 4.455l-.233 2.406a23.068 23.068 0 0 1-.746 3.409c-.18.955-.475 1.86-.87 2.673l-.201.824a70.122 70.122 0 0 1-.917 3.141 12.103 12.103 0 0 1-1.553 3.096c-.944 1.357-2.176 2.228-3.501 2.476-1.326.248-2.672-.14-3.828-1.104-1.156-.964-2.057-2.449-2.563-4.224a12.26 12.26 0 0 1-.233-5.59c.326-1.404.683-2.785 1.056-4.166.109-.512.233-1.025.357-1.515.09-.403.192-.811.295-1.222v-.001c.114-.451.229-.906.327-1.361.062-.423.124-.824.201-1.225.242-1.276.683-2.457 1.29-3.453l.14-.468Zm56.9-100.22c-1.074.432-2.053 1.253-2.842 2.384a18.207 18.207 0 0 0-2.158 3.92 24.333 24.333 0 0 0-.792 1.938 31.474 31.474 0 0 0-1.087 3.72 28.538 28.538 0 0 0-.529 4.611c-.155 2.08.149 4.176.87 5.993.546 1.916 1.51 3.526 2.749 4.588 1.19.981 2.564 1.401 3.93 1.201 1.365-.2 2.652-1.01 3.68-2.314a7.428 7.428 0 0 0 1.413-1.871 35.65 35.65 0 0 0 1.692-3.431 21.788 21.788 0 0 0 1.351-4.611c.326-1.729.326-3.55 0-5.28l-.108-.49c.145-1.285.092-2.6-.156-3.853-.107-.39-.219-.775-.332-1.166v-.001c-.1-.345-.203-.696-.304-1.06-.55-1.345-1.33-2.465-2.268-3.253l-.124-.134c-.986-.818-2.107-1.241-3.246-1.225l-1.739.334Zm16.957 38.023c.4-.765.902-1.408 1.477-1.891.792-.688 1.7-1.05 2.625-1.047.919.026 1.818.395 2.609 1.069l1.04 1.158c.643.94 1.098 2.11 1.32 3.386l.233 1.07c.992.74 1.832 1.838 2.438 3.185.57 1.428.869 3.044.869 4.69 0 1.644-.299 3.26-.869 4.688-.533 1.366-.955 2.731-1.377 4.096-.267.863-.533 1.725-.828 2.587-.208.65-.441 1.282-.699 1.894a15.646 15.646 0 0 1-1.118 2.227c-.397.81-.931 1.463-1.553 1.894-.98.989-2.155 1.504-3.354 1.47a18.59 18.59 0 0 1-1.879-.356c-1.02-.396-1.951-1.163-2.702-2.228-.903-1.279-1.543-2.89-1.848-4.656a18.344 18.344 0 0 1 0-5.613l.124-.891c.357-2.362.761-4.634 1.211-7.017.105-.554.208-1.117.311-1.682.342-1.866.689-3.76 1.118-5.469a8.83 8.83 0 0 1 .852-2.564Zm-22.033 61.261c-1.83.747-3.385 2.49-4.333 4.857a27.597 27.597 0 0 0-1.273 3.898 9.479 9.479 0 0 0-.373 1.648 82.954 82.954 0 0 0-.326 3.297c-.142 2.005.216 4.018 1.01 5.681.646 1.762 1.685 3.163 2.95 3.979 1.267.816 2.687 1 4.035.523 1.347-.477 2.545-1.587 3.401-3.154.856-1.567 1.322-3.501 1.323-5.492.108-.623.217-1.247.31-1.871.094-.624.171-1.069.264-1.581l.125-.78c.152-.851.225-1.728.217-2.606a11.065 11.065 0 0 0-.202-2.584c-.397-2.092-1.35-3.876-2.655-4.968-.865-.732-1.854-1.11-2.858-1.092a5.998 5.998 0 0 0-1.615.245ZM63.818 5.413l1.398-1.559c1.06-.914 2.273-1.399 3.51-1.403 1.521-.002 3.001.711 4.213 2.031 1.211 1.32 2.088 3.173 2.496 5.275a15.452 15.452 0 0 1-.078 6.26c-.124.468-.249.936-.357 1.403l-.187.758c.023.437.023.877 0 1.314a16.454 16.454 0 0 1-.28 2.785c-.175.78-.393 1.54-.651 2.272a82.806 82.806 0 0 0-1.212 3.608c-.24 1.326-.477 2.651-.714 3.977-.237 1.325-.474 2.65-.714 3.976a12.144 12.144 0 0 1-1.185 3.522c-.554 1.05-1.248 1.93-2.042 2.59-.793.66-1.671 1.088-2.581 1.257a4.903 4.903 0 0 1-2.72-.273c-.884-.35-1.712-.948-2.433-1.76-.722-.813-1.324-1.824-1.77-2.974a13.151 13.151 0 0 1-.831-3.724 14.061 14.061 0 0 1 .237-3.895l.513-2.985a14.67 14.67 0 0 1 .202-3.854 47.86 47.86 0 0 1 1.553-6.683l.76-2.807c.311-1.581.668-3.118 1.088-4.655.31-1.686.926-3.223 1.785-4.456Z" fill="#EF8683"/></svg>