<svg width="112" height="146" viewBox="0 0 112 146" xmlns="http://www.w3.org/2000/svg"><path d="M74.241 118.036v.001c-1.318.933-2.626 1.86-3.918 2.873-.411.318-.845.609-1.276.898-1.452.971-2.858 1.912-3.139 3.775a1.62 1.62 0 0 0 1.459 1.765c2.267.083 3.956-1.807 5.443-3.47.188-.212.374-.419.557-.619.328-.346.715-.7 1.116-1.066 1.046-.955 2.186-1.997 2.616-3.224a1.345 1.345 0 0 0-.501-1.508 1.344 1.344 0 0 0-1.589.031l-.768.544Zm19.984-26.93.184.081.023-.019c1.767.894.811 3.304.248 4.724l-.076.193c-.237.608-.431 1.289-.629 1.987-.407 1.435-.834 2.938-1.696 4.007a2.377 2.377 0 0 1-4.186-1.002 2.38 2.38 0 0 1 .298-1.726c.407-.716.728-1.49 1.049-2.265.238-.573.475-1.147.748-1.698a14.724 14.724 0 0 1 2.218-3.972 1.794 1.794 0 0 1 1.819-.31Zm15.371-21.211c-1.285.65-2.051 2.301-2.706 3.712-.151.326-.297.64-.441.925-.354.707-.656 1.437-.959 2.169-.163.391-.325.783-.496 1.173-.176.412-.33.928-.473 1.408-.123.411-.237.796-.351 1.064-.905 2.044 2.068 4.323 3.687 2.609a3.805 3.805 0 0 0 .978-2.741c.203-.967.457-1.922.762-2.861.19-.753.348-1.53.507-2.314.259-1.281.522-2.575.933-3.793a1.086 1.086 0 0 0-.276-1.182 1.088 1.088 0 0 0-1.198-.194l.033.025ZM79.53 82.05c-.959.846-1.485 2.107-2 3.341-.242.582-.483 1.157-.764 1.681a65 65 0 0 0-1.677 3.419c-.135.291-.272.584-.387.881.011-.009-.025.074-.077.2-.158.373-.471 1.119-.204.923a2.436 2.436 0 0 0 .024 3.541 2.451 2.451 0 0 0 1.884.648 2.439 2.439 0 0 0 1.739-.972 5.783 5.783 0 0 0 .951-2.381 29.11 29.11 0 0 1 1.251-3.525c.178-.448.389-.901.602-1.357.29-.624.585-1.255.801-1.891.156-.87.363-1.73.621-2.576.729-1.614-1.517-3.092-2.795-1.97l.031.038Zm-17.088 21.346c-1.521.454-2.35 2.25-3.056 3.779-.183.397-.357.775-.534 1.108-.186.352-.387.703-.59 1.058-.728 1.274-1.48 2.591-1.694 4.137-.389 2.669 3.979 3.056 4.119.385.054-1.052.538-1.999 1.017-2.935.194-.378.386-.755.549-1.136.66-1.556 1.337-3.232 1.866-4.837a1.255 1.255 0 0 0-.339-1.317 1.258 1.258 0 0 0-1.338-.242Zm-18.504-1.951c.445-1.793.892-3.59 1.742-5.226l.03-.025a1.66 1.66 0 0 1 3.08.79c.047 1.057-.265 2.152-.568 3.214-.13.458-.26.91-.357 1.35a32.688 32.688 0 0 1-.942 4.45 2.109 2.109 0 0 1-2.506 1.487 2.077 2.077 0 0 1-1.488-2.506c.416-1.144.712-2.338 1.01-3.534Zm-6.752-30.78a190.916 190.916 0 0 1-.35 4.952c-.165 2.078-.33 4.152-.407 6.22-.14 3.708 5.465 3.474 4.994-.236-.058-.415-.085-.823-.113-1.231v-.001c-.04-.576-.078-1.15-.2-1.738a24.133 24.133 0 0 1-.44-3.53c-.017-.27-.029-.554-.04-.844-.068-1.647-.145-3.518-1.431-4.594a1.289 1.289 0 0 0-2.006.931l-.007.07ZM53.47 55.004c.002-1.598.223-3.765 1.232-5.04a1.42 1.42 0 0 1 .996-.459 1.428 1.428 0 0 1 1.028.382c1.241 1.383 1.135 3.21 1.028 5.061-.076 1.32-.154 2.651.257 3.84.985 2.857-3.747 4.29-4.483 1.357-.292-1.18-.208-2.428-.129-3.615.035-.524.07-1.036.071-1.526Zm8.978-30.434.02.193c.087.875.232 1.741.391 2.608.183.997.278 1.998.372 2.997.079.84.159 1.68.29 2.514.395 2.723 4.834 1.909 4.156-.67-.142-.517-.28-1.03-.418-1.54l-.001-.005-.001-.002c-.487-1.807-.966-3.585-1.56-5.418a14.59 14.59 0 0 1-.232-.761c-.333-1.165-.669-2.338-2.031-2.636-.975-.206-1.401 1.067-.91 1.725l-.023.02c-.182-.22-.098.554-.053.975Zm15.294-5.579c-.233-1.265-.561-3.052.116-3.987l.023-.02c1.303-1.829 3.188 2.697 3.402 3.286.22.608.532 1.238.85 1.877 1.007 2.027 2.061 4.15.342 5.986-1.272 1.349-3.445.148-3.727-1.37-.054-.277-.014-.552.026-.82.013-.093.027-.186.036-.277-.098-.21-.333-1.131-.333-1.131a61.09 61.09 0 0 0-.21-.922v-.001a27.749 27.749 0 0 1-.419-2.02 28.76 28.76 0 0 0-.106-.6Zm-4.021 22.263a7.37 7.37 0 0 1-.605 1.2 18.781 18.781 0 0 0-.989 3.23 26.309 26.309 0 0 0-1.032 5.925 2.004 2.004 0 0 0 1.794 1.76 2 2 0 0 0 2.098-1.383c.159-1.164.252-2.336.277-3.511.054-.683.143-1.363.232-2.042.079-.605.159-1.209.213-1.815.017-.187.042-.39.069-.605.158-1.266.362-2.892-.934-3.441a.843.843 0 0 0-1.111.697l-.012-.015Zm16.232-4.06c-.562-1.3-1-2.65-1.307-4.032a.74.74 0 0 1 .259-.66.726.726 0 0 1 .697-.13c1.06.514 1.883 1.615 2.649 2.64.25.335.494.661.738.957 1.12 1.293 2.214 2.71 1.618 4.5a1.996 1.996 0 0 1-1.776 1.217 2 2 0 0 1-1.851-1.1c-.21-.534-.349-1.081-.488-1.631-.15-.59-.3-1.18-.539-1.762Zm-44.637 95.181c.915-.509 2.86-1.326 3.438.079a.499.499 0 0 1-.27.663c-.644.218-1.343.982-1.966 1.663-.327.358-.634.693-.9.913a38.303 38.303 0 0 1-5.58 4.235c-2.271 1.397-4.333-2.763-1.747-3.888a76.76 76.76 0 0 0 7.025-3.665Zm-9.454-9.557a34.487 34.487 0 0 0-5.68 2.294 19.488 19.488 0 0 0-4.418 2.677 2.167 2.167 0 0 0-.649 2.271 2.17 2.17 0 0 0 1.809 1.518c1.64.167 2.825-.907 3.98-1.953.352-.319.7-.635 1.059-.913.41-.319.9-.649 1.415-.997 1.41-.952 3.015-2.036 3.745-3.371a1.068 1.068 0 0 0-.638-1.557 1.061 1.061 0 0 0-.636.016l.013.015Zm-22.882-2.906c1.786-1.392 3.56-2.776 5.7-3.444l.017-.027a1.06 1.06 0 0 1 1.274 1.542c-1.064 2.003-2.785 3.49-4.507 4.979-1.358 1.175-2.718 2.351-3.756 3.781-2.57 3.499-7.044-1.962-3.185-3.854 1.618-.763 3.04-1.873 4.457-2.977Zm27.893-65.033a2.58 2.58 0 0 0 .786-1.765c.07-.391.146-.781.222-1.17.151-.78.303-1.56.411-2.35a30.56 30.56 0 0 0 .09-5.652c-.087-2.225-3.363-2.202-4.055-.386a3.23 3.23 0 0 0 .06 2.286c.206 1.025.3 2.07.28 3.116.005.358-.002.737-.01 1.128-.027 1.497-.058 3.162.61 4.42a1 1 0 0 0 1.606.373Zm7.613-21.121a6.49 6.49 0 0 0-.763-3.934 24.887 24.887 0 0 0-3.171-5.408c-1.773-2.427-5.704.821-3.6 2.975a37.086 37.086 0 0 1 3.968 4.504l.125.181v.001h.001c.614.892 1.48 2.15 2.62 2.153a.8.8 0 0 0 .82-.472Zm12.561-24.75c-.422-1.071-1.574-1.815-2.637-2.501a16.79 16.79 0 0 1-1.103-.752 14.28 14.28 0 0 0-3.974-2.424c-3.837-1.33-4.804 5.176-1.153 5.104a7.003 7.003 0 0 1 3.268.893c.225.105.448.212.672.32.407.195.814.39 1.232.572.344.15.713.231 1.082.313.327.073.654.145.965.265a1.341 1.341 0 0 0 1.654-1.782l-.006-.008Zm38.66 16.74a16.83 16.83 0 0 1-.432-4.197c-.035-1.566 1.959-2.15 3.077-1.426.935.605 1.209 1.522 1.492 2.468.122.408.245.82.423 1.215.265.596.539 1.182.813 1.768.415.888.83 1.776 1.214 2.694 1.432 3.382-4.015 5.613-5.067 2.267-.177-.563-.364-1.123-.551-1.684-.343-1.031-.686-2.062-.969-3.106Zm7.353 20.828c-.015.627-.1 1.239-.184 1.849-.094.678-.188 1.355-.186 2.05.145 1.331.172 2.672.08 4.007-.599 3.31 4.926 3.92 5.252.5a8.647 8.647 0 0 0-.21-2.357c-.072-.428-.107-.861-.142-1.295-.039-.488-.078-.976-.171-1.455-.038-.19-.072-.379-.107-.566-.275-1.495-.531-2.88-1.843-3.881a1.597 1.597 0 0 0-2.196.388 1.6 1.6 0 0 0-.293.76ZM62.226 75.49a16.996 16.996 0 0 1 2.55-5.816l-.044.01a1.516 1.516 0 0 1 1.563-.58 1.52 1.52 0 0 1 1.155 1.2c.279 1.208-.157 2.417-.585 3.603-.197.548-.393 1.091-.516 1.627-.133.577-.247 1.161-.361 1.745v.001c-.114.584-.228 1.168-.361 1.744a4.821 4.821 0 0 1-.164.505c-.124.345-.262.73-.239.97.302 2.643-3.825 3.316-4.084.663-.135-1.339.298-2.849.701-4.25.141-.491.278-.97.385-1.422Zm25.063-18.854c.068.455-.042.912-.153 1.378-.053.221-.106.443-.141.668-.048.766-.05 1.534-.006 2.3-.001.852-.135 1.689-.269 2.522-.129.807-.258 1.611-.265 2.421a2.073 2.073 0 0 0 4.125.393 18.04 18.04 0 0 0-.186-6.333c-.052-.278-.092-.585-.134-.905-.178-1.356-.385-2.933-1.643-3.49a1 1 0 0 0-1.303 1.077l-.025-.031Zm-57.904 44.669a8.688 8.688 0 0 1 2.704-2.52l-.038.032c1.35-.753 2.176 1.173 1.3 2.091a14.68 14.68 0 0 0-1.583 2.904c-.287.506-.643.974-.996 1.438-.308.406-.615.809-.87 1.232-1.302 2.178-4.844-.382-3.198-2.3.374-.44.782-.845 1.189-1.25.523-.52 1.045-1.038 1.492-1.627ZM12.64 139.894c-1.477-1.393-3.589-.837-5.42-.354-.213.056-.423.111-.628.163-.259.058-.518.122-.779.188-.455.114-.917.23-1.4.315a8.624 8.624 0 0 0-.595.096c-.264-.029-1.26-.054-1.385-.029a2.63 2.63 0 0 0-1.958 3.628l.096.116a2.718 2.718 0 0 0 2.234 1.604 7.65 7.65 0 0 0 4.039-1.391 26.804 26.804 0 0 1 5.271-2.177 1.391 1.391 0 0 0 .51-2.146l.015-.013ZM78.23 1.167a16.189 16.189 0 0 1 4.69 3.635l.013.016a1.25 1.25 0 0 1-1.394 1.956c-.876-.191-1.74-.435-2.587-.73l-.538-.228a42.102 42.102 0 0 0-1.437-.591 8.741 8.741 0 0 0-1.675-.614 7.273 7.273 0 0 0-.61-.097c-.512-.065-.964-.123-1.447-.525a2.002 2.002 0 0 1-.483-2.767c1.448-1.78 3.719-1.088 5.468-.055Z" fill="#FFC300" fill-rule="evenodd"/></svg>