<svg width="257" height="241" viewBox="0 0 257 241" xmlns="http://www.w3.org/2000/svg"><path d="M231.312 154.217a1.404 1.404 0 0 0-.142.065l.01.003a3.138 3.138 0 0 0-1.461 4.195 3.143 3.143 0 0 0 4.195 1.46l20.742-9.423a3.145 3.145 0 0 0 1.56-4.163 3.142 3.142 0 0 0-4.162-1.56l-20.742 9.423Zm13.625 13.845a3.15 3.15 0 0 0-1.176.348l-.097.015-22.095 11.949a3.14 3.14 0 1 0 2.987 5.526l22.13-11.929a3.135 3.135 0 0 0 1.538-1.848 3.145 3.145 0 0 0-.22-2.395 3.147 3.147 0 0 0-1.848-1.538 3.143 3.143 0 0 0-1.219-.128Zm-21.063-35.037a3.144 3.144 0 0 1 4.089 1.284 3.138 3.138 0 0 1-.999 4.167l-20.754 12.93a3.148 3.148 0 0 1-2.411.469 3.14 3.14 0 0 1-.909-5.795l20.751-12.92c.051-.035.106-.065.158-.093a2.52 2.52 0 0 0 .075-.042Zm-.713-30.058a3.193 3.193 0 0 0-2.395.205l-.025.014-16.656 8.71a3.154 3.154 0 0 0 .553 5.798 3.15 3.15 0 0 0 2.401-.228l16.615-8.712.074-.042a3.12 3.12 0 0 0 1.291-4.219 3.192 3.192 0 0 0-1.858-1.526Zm-7.095-24.62a3.15 3.15 0 0 1 2.911 5.578l-9.672 5.154a3.143 3.143 0 0 1-4.157-1.372 3.14 3.14 0 0 1 1.254-4.194l9.674-5.163-.01-.003Zm8.412-37.876a3.136 3.136 0 0 0-1.172.359l-.113.073-32.144 18.274a3.146 3.146 0 0 0-1.566 3.122 3.146 3.146 0 0 0 3.508 2.729c.41-.051.806-.182 1.164-.386l32.125-18.28a3.144 3.144 0 0 0 1.638-3.082 3.14 3.14 0 0 0-3.44-2.809ZM187.48 31.23a3.139 3.139 0 1 1 3.035 5.497l-20.956 12.452a3.199 3.199 0 0 1-4.303-1.096 3.139 3.139 0 0 1 1.096-4.303l20.959-12.461.169-.09ZM197.756.288a3.14 3.14 0 0 0-2.268.071l-.145.075-27.966 16.064a3.15 3.15 0 0 0-1.551 3.129 3.153 3.153 0 0 0 1.198 2.086 3.14 3.14 0 0 0 3.484.236l27.94-16.081a3.138 3.138 0 0 0 1.032-4.104 3.136 3.136 0 0 0-1.724-1.476Zm-13.253 174.749c.11-.056.224-.105.34-.147l19.255-7.172a3.14 3.14 0 0 1 2.197 5.883l-19.256 7.172a3.143 3.143 0 0 1-2.33-.033 3.144 3.144 0 0 1-1.749-3.958 3.137 3.137 0 0 1 1.543-1.745Zm4.514 15.972a3.14 3.14 0 0 0-2.39.258l-.156.082-11.546 6.73a3.151 3.151 0 0 0-1.495 1.913 3.152 3.152 0 0 0 .316 2.406 3.133 3.133 0 0 0 3.172 1.527 3.153 3.153 0 0 0 1.165-.418l11.555-6.728a3.142 3.142 0 0 0-.621-5.77Zm-37.773-16.991.318-.142 27.33-10.353a3.141 3.141 0 0 1 4.257 3.036 3.148 3.148 0 0 1-2.029 2.845l-27.327 10.343a3.14 3.14 0 0 1-2.549-5.729Zm6.195-24.44-.129.059a3.14 3.14 0 1 0 2.746 5.647l18.574-8.525a3.242 3.242 0 0 0 1.545-4.162 3.153 3.153 0 0 0-4.171-1.547l-18.565 8.528Zm14.717-32.978a3.14 3.14 0 1 1 2.998 5.519l-13.644 7.833a3.1 3.1 0 0 1-3.487-.222 3.09 3.09 0 0 1-.801-.932 3.133 3.133 0 0 1 1.154-4.288l13.633-7.826.147-.084Zm-10.565-17.539-.179.087a3.138 3.138 0 0 0-1.395 4.141 3.134 3.134 0 0 0 1.739 1.592 3.135 3.135 0 0 0 2.356-.067l11.531-5.057a3.147 3.147 0 0 0 1.877-2.945 3.15 3.15 0 0 0-.968-2.203 3.155 3.155 0 0 0-2.243-.872 3.13 3.13 0 0 0-1.197.265l-11.521 5.059Zm-2.218-24.581a3.144 3.144 0 0 1 4.241 1.221 3.14 3.14 0 0 1-1.168 4.256l-20.853 12.759a3.138 3.138 0 0 1-2.374.375 3.147 3.147 0 0 1-1.945-1.413 3.164 3.164 0 0 1-.424-1.15 3.158 3.158 0 0 1 .562-2.338c.243-.333.549-.616.9-.831L159.165 74.6a.321.321 0 0 0 .077-.051c.033-.025.064-.05.131-.069Zm-8.642-18.564-11.184 5.731a3.143 3.143 0 0 0 2.864 5.596l11.187-5.74a3.138 3.138 0 0 0 1.322-4.207 3.142 3.142 0 0 0-4.189-1.38ZM122.783 42.71c.039.01.084-.02.127-.048a.443.443 0 0 1 .061-.036l26.695-11.57a3.14 3.14 0 0 1 4.128 1.629 3.228 3.228 0 0 1-1.631 4.138l-26.695 11.57a3.141 3.141 0 0 1-4.301-3.902 3.144 3.144 0 0 1 1.616-1.781Zm15.386 66.548a3.14 3.14 0 0 0-2.32.222l-.284.172-20.471 13.379a3.152 3.152 0 0 0-1.354 1.987 3.142 3.142 0 0 0 4.796 3.269l20.461-13.382a3.14 3.14 0 0 0-.828-5.647Zm-.3 23.072a3.142 3.142 0 0 1 4.459 3.504 3.144 3.144 0 0 1-1.295 1.904l-17.784 11.783a3.138 3.138 0 0 1-4.746-3.244 3.129 3.129 0 0 1 1.277-1.987l17.783-11.784c.095-.07.198-.13.306-.176Zm-18.237 72.378a1.413 1.413 0 0 0-.213.098l.039.01a3.14 3.14 0 0 0 2.615 5.675l32.617-13.797a3.109 3.109 0 0 0 1.93-2.917 3.103 3.103 0 0 0-.263-1.202 3.15 3.15 0 0 0-1.713-1.687 3.133 3.133 0 0 0-2.405.02l-32.607 13.8Zm14.122-27.112a3.142 3.142 0 0 1 4.409 3.642 3.144 3.144 0 0 1-1.408 1.868l-12.895 7.548a3.144 3.144 0 0 1-3.155-5.437l12.855-7.517.194-.104Zm-19.798-10.511a3.15 3.15 0 0 0-2.323.125l-.118.051-16.465 9.156a3.129 3.129 0 0 0-1.509 1.881 3.149 3.149 0 0 0 1.067 3.335 3.136 3.136 0 0 0 3.49.275l16.494-9.148a3.153 3.153 0 0 0-.636-5.675Zm-46.78-15.921 25.893-13.173a3.144 3.144 0 0 1 4.224 1.37 3.138 3.138 0 0 1-1.37 4.224L70.02 156.755a3.142 3.142 0 0 1-4.224-1.37 3.141 3.141 0 0 1 1.37-4.224l.01.002Zm50.919-60.541a3.143 3.143 0 0 0-2.395.22l-.069.064-29.002 15.681a3.145 3.145 0 0 0-1.751 3.115 3.132 3.132 0 0 0 1.174 2.168 3.149 3.149 0 0 0 2.379.651 3.15 3.15 0 0 0 1.187-.417l29.007-15.701a3.14 3.14 0 0 0 1.318-4.243 3.14 3.14 0 0 0-1.848-1.538Zm-15.12-31.456a3.146 3.146 0 0 1 4.52 3.65 3.145 3.145 0 0 1-1.512 1.872l-15.009 8.594a3.144 3.144 0 1 1-3.119-5.458l14.988-8.59.132-.068Zm-2.187-30.196L73.204 42.423a3.142 3.142 0 0 0 2.805 5.623l27.535-13.425a3.227 3.227 0 0 0 1.451-4.197 3.15 3.15 0 0 0-4.207-1.454ZM68.35 101.74a3.14 3.14 0 0 1 3.252 5.349l-17.43 12.469a3.142 3.142 0 0 1-4.92-3.085 3.143 3.143 0 0 1 1.277-2.038l17.453-12.442c.117-.092.24-.176.368-.253Zm2.916-23.321a3.142 3.142 0 0 0-2.393.255l-.147.085-12.255 7.057a3.141 3.141 0 0 0-.33 5.216 3.136 3.136 0 0 0 2.325.618 3.15 3.15 0 0 0 1.16-.397l12.256-7.058a3.14 3.14 0 0 0 1.256-4.264 3.143 3.143 0 0 0-1.872-1.512Zm-28.128 67.093 23.055-11.824a3.14 3.14 0 0 1 2.867 5.587l-23.058 11.833a3.143 3.143 0 1 1-2.864-5.596Zm28.76 25.93c-.41.039-.808.159-1.173.353l-.08.03-17.2 9.496a3.143 3.143 0 0 0-1.231 4.267 3.208 3.208 0 0 0 4.264 1.241l17.197-9.487a3.15 3.15 0 0 0 1.529-1.855 3.147 3.147 0 0 0-.23-2.393 3.14 3.14 0 0 0-3.075-1.652Zm22.464 30.927a3.137 3.137 0 0 1 4.137 1.334 3.143 3.143 0 0 1-1.161 4.189L76.81 219.485a3.085 3.085 0 0 1-2.39.336 3.082 3.082 0 0 1-1.898-1.49 3.128 3.128 0 0 1 1.154-4.287l20.529-11.593.157-.082Zm13.444 21.487a3.143 3.143 0 0 0-2.34.162.311.311 0 0 0-.098.057l-18.531 10.329a3.14 3.14 0 0 0-1.212 4.271 2.988 2.988 0 0 0 1.868 1.551 2.992 2.992 0 0 0 2.404-.339l18.534-10.338a3.143 3.143 0 0 0 1.174-4.189 3.14 3.14 0 0 0-1.799-1.504Zm-57.877-22.044a3.141 3.141 0 0 1 3.124 5.439l-13.274 8.533a3.134 3.134 0 0 1-2.38.454 3.13 3.13 0 0 1-1.995-1.375 3.145 3.145 0 0 1 .082-3.515c.24-.34.547-.628.9-.847l13.274-8.534.27-.155Zm-9.7-30.986-16.065 8.248a3.147 3.147 0 0 0-1.588 1.831 3.139 3.139 0 0 0 4.454 3.756l16.075-8.245a3.146 3.146 0 0 0 1.357-4.233 3.142 3.142 0 0 0-4.233-1.357Zm-17.873-34.708a3.168 3.168 0 0 1 4.601 2.497 3.11 3.11 0 0 1-1.652 3.05L5.1 152.175a3.141 3.141 0 0 1-4.235-1.347 3.144 3.144 0 0 1 1.347-4.236l20.132-10.467.012-.007Zm4.131-24.335a3.144 3.144 0 0 0-2.33.173l-.11.064-14.94 8.717a3.114 3.114 0 0 0-1.468 1.903 3.134 3.134 0 0 0 .315 2.384 3.083 3.083 0 0 0 1.896 1.479 3.083 3.083 0 0 0 2.382-.328l14.939-8.717a3.14 3.14 0 0 0-.683-5.675ZM6.86 102.309a.682.682 0 0 1 .154-.073l23.719-10.558a3.13 3.13 0 0 1 4.139 1.59 3.06 3.06 0 0 1-1.593 4.149L9.582 107.929a3.136 3.136 0 0 1-4.084-1.522 3.139 3.139 0 0 1 1.372-4.137l-.01.039Zm49.493 119.397a3.14 3.14 0 0 0-2.263.239c-.175.083-.343.18-.502.289l-10.163 7.745a3.154 3.154 0 0 0-1.125 3.313 3.143 3.143 0 0 0 1.467 1.913 3.145 3.145 0 0 0 3.491-.228l10.172-7.743a3.138 3.138 0 0 0 .753-4.174 3.144 3.144 0 0 0-1.83-1.354Z" fill="#388172" fill-rule="evenodd"/></svg>