<svg width="192" height="183" viewBox="0 0 192 183" fill="none" xmlns="http://www.w3.org/2000/svg"><path fill-rule="evenodd" clip-rule="evenodd" d="M100.3 16.288c.022.03.046.059.071.086v-.007a2.253 2.253 0 0 0 3.948-1.31 2.25 2.25 0 0 0-.543-1.636L93.39.82a2.253 2.253 0 0 0-3.477 2.867L100.3 16.288Zm7.045-12.01c.102.278.258.532.459.75l.029.064 12.386 13.067a2.253 2.253 0 0 0 3.885-1.488 2.25 2.25 0 0 0-.616-1.609L111.109 1.966a2.251 2.251 0 0 0-3.764 2.312ZM87.017 25.384a2.25 2.25 0 0 1 3.197-3.154l12.817 11.956a2.259 2.259 0 0 1 .641 2.47 2.252 2.252 0 0 1-3.71.82L87.154 25.52a1.258 1.258 0 0 1-.093-.092l-.028-.029-.015-.015Zm-20.672 6.093a2.287 2.287 0 0 0 .588 1.62l.014.014 9.132 9.906a2.26 2.26 0 0 0 3.305-3.082l-9.125-9.877-.043-.043a2.236 2.236 0 0 0-3.161-.108c-.433.411-.687.974-.71 1.57Zm-15.72 9.497a2.258 2.258 0 0 1 3.32-3.053l5.368 5.734a2.252 2.252 0 0 1-3.312 3.047l-5.375-5.735v.008ZM22.843 42.21c.105.276.264.529.466.744l.072.064 18.637 18.845a2.253 2.253 0 1 0 3.204-3.168l-18.637-18.83a2.251 2.251 0 0 0-3.742 2.345Zm.495 27.33a2.251 2.251 0 0 1 3.24-3.125l12.522 12.185a2.293 2.293 0 0 1 .043 3.183 2.251 2.251 0 0 1-3.182.043L23.43 69.639l-.093-.1ZM.007 68.19a2.25 2.25 0 0 0 .471 1.557l.08.086 16.328 16.364a2.251 2.251 0 0 0 3.675-.727 2.253 2.253 0 0 0-.485-2.455L3.74 66.672A2.25 2.25 0 0 0 .006 68.19ZM123.43 44.81a2.308 2.308 0 0 1-.165-.209l-8.552-11.992a2.252 2.252 0 0 1 2.204-3.512 2.25 2.25 0 0 1 1.459.896l8.551 11.992a2.252 2.252 0 0 1-.406 3.075 2.25 2.25 0 0 1-3.091-.25Zm10.214-6.101a2.252 2.252 0 0 0 .624 1.606l.086.093 6.809 6.738a2.254 2.254 0 0 0 3.209.012 2.255 2.255 0 0 0 .466-2.48 2.26 2.26 0 0 0-.506-.729l-6.81-6.745a2.252 2.252 0 0 0-3.878 1.505Zm-4.724 29.31-.157-.193-12.258-16.988a2.254 2.254 0 0 1 3.656-2.638l12.25 16.988a2.25 2.25 0 0 1-3.491 2.831Zm-18.07.265.064.08a2.253 2.253 0 0 0 3.176.221 2.253 2.253 0 0 0 .222-3.175l-9.361-11.268a2.325 2.325 0 0 0-3.169-.294 2.259 2.259 0 0 0-.294 3.176l9.362 11.26Zm-25.568-4.042a2.25 2.25 0 1 1 3.261-3.104l7.964 7.985a2.221 2.221 0 0 1 0 3.183 2.243 2.243 0 0 1-3.183 0l-7.956-7.978-.086-.086Zm-10.171 10.58.093.107a2.25 2.25 0 0 0 3.419-2.924l-5.649-7.04a2.254 2.254 0 0 0-3.512 2.825l5.649 7.032ZM58.51 80.936a2.25 2.25 0 0 1 3.219-3.147l12.716 12.057a2.253 2.253 0 0 1-.631 3.69 2.251 2.251 0 0 1-2.466-.422L58.632 81.058a.275.275 0 0 0-.05-.044.238.238 0 0 1-.072-.078Zm-11.239 9.44 6.05 6.673a2.252 2.252 0 1 0 3.34-3.024l-6.057-6.674a2.25 2.25 0 0 0-3.333 3.025Zm-3.935 21.805c0-.029-.03-.054-.057-.079l-.022-.02a.104.104 0 0 1-.015-.016l-12.98-16.321a2.25 2.25 0 0 1 .358-3.161 2.315 2.315 0 0 1 3.168.358l12.981 16.322a2.252 2.252 0 1 1-3.433 2.917Zm43.196-23.046a2.25 2.25 0 0 0 .586 1.564l.172.165 13.074 11.676a2.258 2.258 0 0 0 3.179-.183c.197-.22.348-.478.445-.757a2.237 2.237 0 0 0-.099-1.72 2.237 2.237 0 0 0-.529-.702L90.286 87.51a2.25 2.25 0 0 0-3.754 1.626Zm16.025-4.092a2.25 2.25 0 0 1 3.154-3.197L117.18 91.96a2.25 2.25 0 0 1-2.975 3.376l-11.469-10.114a1.111 1.111 0 0 1-.179-.179Zm53.495-.86c.032.046.068.09.108.13v-.03a2.249 2.249 0 0 0 3.016.122c.428-.357.709-.86.788-1.413a2.254 2.254 0 0 0-.364-1.576L143.974 61.41a2.232 2.232 0 0 0-1.499-.86 2.226 2.226 0 0 0-1.662.473 2.26 2.26 0 0 0-.849 1.5 2.254 2.254 0 0 0 .462 1.661l15.626 19.999Zm-21.396-4.724a2.249 2.249 0 0 1 .143-3.108 2.25 2.25 0 0 1 3.111.005l7.627 7.519a2.253 2.253 0 1 1-3.176 3.197l-7.598-7.498-.107-.115Zm-3.588 15.662a2.26 2.26 0 0 0 .52 1.585l.057.071 9.405 9.691a2.26 2.26 0 0 0 2.451.538c.276-.109.527-.271.74-.478a2.25 2.25 0 0 0 .041-3.192l-9.404-9.713a2.259 2.259 0 0 0-3.81 1.498Zm-2.304 35.346-13.942-15.469a2.253 2.253 0 0 1 .161-3.179 2.253 2.253 0 0 1 3.179.161l13.942 15.476a2.253 2.253 0 0 1-.161 3.179 2.253 2.253 0 0 1-3.179-.161v-.007ZM77.373 106.5a2.253 2.253 0 0 0 .598 1.617l.058.036 16.257 17.153a2.262 2.262 0 0 0 1.59.77 2.255 2.255 0 0 0 1.657-.616 2.256 2.256 0 0 0 .7-1.622 2.252 2.252 0 0 0-.686-1.629l-16.271-17.153a2.253 2.253 0 0 0-3.903 1.444Zm-18.956 16.326a2.256 2.256 0 0 1 .075-3.187 2.256 2.256 0 0 1 3.187.076l8.744 8.788a2.252 2.252 0 0 1-1.606 3.84 2.252 2.252 0 0 1-1.59-.665l-8.738-8.774-.072-.078Zm-20.493 7.139 14.45 16.587a2.256 2.256 0 0 0 3.18.19 2.253 2.253 0 0 0 .19-3.179L41.32 127.005a2.31 2.31 0 0 0-3.175-.223 2.259 2.259 0 0 0-.222 3.183Zm56.412 8.895a2.25 2.25 0 0 1 3.096-3.247l11.878 9.741a2.252 2.252 0 0 1-2.093 3.893 2.256 2.256 0 0 1-.775-.416l-11.863-9.763a2.422 2.422 0 0 1-.243-.208Zm-16.686 2.327c-.014.597.21 1.176.622 1.609l.087.086 7.168 7.168a2.253 2.253 0 0 0 3.175-3.197l-7.168-7.168a2.251 2.251 0 0 0-3.186-.076c-.433.413-.684.98-.698 1.578Zm51.68 6.97-12.48-13.755a2.25 2.25 0 0 1 3.333-3.025l12.487 13.755a2.252 2.252 0 0 1-.158 3.183 2.252 2.252 0 0 1-3.182-.158Zm12.589-24.738c.104.277.262.531.464.747l.036.05 9.777 10.136a2.259 2.259 0 0 0 1.579.687 2.237 2.237 0 0 0 1.603-.63 2.3 2.3 0 0 0 .065-3.183l-9.77-10.135a2.257 2.257 0 0 0-3.183-.108 2.25 2.25 0 0 0-.571 2.436Zm17.223-21.309a2.253 2.253 0 0 1 .152-3.112 2.251 2.251 0 0 1 3.116.023l11.849 12.049a2.216 2.216 0 0 1 .677 1.591 2.211 2.211 0 0 1-.677 1.592 2.255 2.255 0 0 1-2.453.49 2.27 2.27 0 0 1-.73-.49l-11.848-12.05-.086-.093Zm12.368-13.308c-.03.58.167 1.15.548 1.588a.217.217 0 0 0 .057.058l10.602 10.902a2.248 2.248 0 0 0 3.182.043 2.148 2.148 0 0 0 .043-3.182l-10.608-10.903a2.252 2.252 0 0 0-3.824 1.493Zm-4.476 44.166a2.248 2.248 0 0 1 .081-3.101 2.256 2.256 0 0 1 3.101-.074l8.379 7.598a2.241 2.241 0 0 1 .758 1.563 2.246 2.246 0 0 1-2.154 2.373 2.253 2.253 0 0 1-1.628-.603l-8.38-7.598-.157-.158Zm-19.641 12.487 8.702 9.583a2.245 2.245 0 0 0 1.563.758 2.246 2.246 0 0 0 2.373-2.154 2.235 2.235 0 0 0-.603-1.628l-8.702-9.591a2.253 2.253 0 0 0-3.333 3.032Zm-20.694 18.837a2.273 2.273 0 0 1 .129-3.189 2.235 2.235 0 0 1 1.605-.601 2.23 2.23 0 0 1 1.556.715l11.039 12.028a2.252 2.252 0 0 1-3.326 3.039l-10.996-11.985-.007-.007Zm-17.613 1.674a2.248 2.248 0 0 0 .554 1.581l.064.064 8.817 8.716a2.224 2.224 0 0 0 1.591.662 2.236 2.236 0 0 0 1.591-.662 2.208 2.208 0 0 0 .671-1.587 2.203 2.203 0 0 0-.671-1.588l-8.816-8.716a2.25 2.25 0 0 0-3.801 1.53Zm-2.902 15.35a.505.505 0 0 1-.079-.093l-11.726-14.451a2.242 2.242 0 0 1 .33-3.161 2.198 2.198 0 0 1 1.654-.516 2.194 2.194 0 0 1 1.513.846l11.692 14.444a2.253 2.253 0 0 1-.293 3.11 2.252 2.252 0 0 1-3.119-.179h.028Zm73.423-56.5a2.249 2.249 0 0 0 .587 1.522c.09.105.188.204.293.294l7.254 5.591a2.275 2.275 0 0 0 1.67.446 2.258 2.258 0 0 0 1.076-4.03l-7.254-5.598a2.248 2.248 0 0 0-3.03.256 2.25 2.25 0 0 0-.596 1.519Z" fill="#136E65"/></svg>