<svg width="255" height="228" xmlns="http://www.w3.org/2000/svg"><path d="M26.1 70.609c.05-.014.1-.03.149-.05l-.01-.004a3.14 3.14 0 1 0-2.098-5.92l-21.65 7.097a3.145 3.145 0 0 0-.439 5.792 3.14 3.14 0 0 0 2.4.181L26.1 70.609ZM14.073 55.356a3.15 3.15 0 0 0 1.206-.218l.099-.004 23.27-9.459a3.138 3.138 0 0 0 1.727-4.091 3.141 3.141 0 0 0-4.091-1.728L12.98 49.29a3.135 3.135 0 0 0-1.73 1.669 3.148 3.148 0 0 0 .618 3.436c.579.6 1.372.945 2.205.961Zm17.101 37.131a3.14 3.14 0 0 1-2.475-5.756L50.744 76.15a3.116 3.116 0 0 1 1.203-.35 3.125 3.125 0 0 1 2.332.771 3.148 3.148 0 0 1 1.063 2.214 3.149 3.149 0 0 1-.855 2.302c-.29.306-.64.551-1.026.72l-22.04 10.572c-.055.029-.113.052-.168.075l-.079.033Zm-2.58 29.955a3.184 3.184 0 0 0 2.403.059l.026-.011 17.509-6.835a3.152 3.152 0 1 0-2.327-5.859l-17.468 6.84-.078.034a3.127 3.127 0 0 0-1.746 4.053 3.19 3.19 0 0 0 1.68 1.719h.001Zm4.357 25.249a3.152 3.152 0 0 1-3.925-1.848 3.148 3.148 0 0 1 1.643-4.015l10.178-4.064a3.14 3.14 0 0 1 2.276 5.85l-10.181 4.073.01.004h-.001Zm-12.506 36.728c.412.004.822-.074 1.204-.228l.12-.06 33.951-14.647a3.143 3.143 0 0 0-2.49-5.772l-33.932 14.654a3.133 3.133 0 0 0-1.715 1.684 3.138 3.138 0 0 0 2.862 4.37Zm35.764 13.236a3.137 3.137 0 0 1-4.106-1.69 3.142 3.142 0 0 1 1.69-4.107l22.194-10.083a3.2 3.2 0 0 1 4.157 1.561 3.138 3.138 0 0 1-1.561 4.157l-22.196 10.092-.178.07Zm-13.6 29.631a3.14 3.14 0 0 0 2.262.177l.151-.059 29.556-12.906a3.154 3.154 0 0 0 1.669-1.734 3.142 3.142 0 0 0-4.184-4.027l-29.532 12.926a3.143 3.143 0 0 0 .077 5.623h.001ZM74.907 55.037c-.116.043-.234.08-.354.109l-19.925 5.021a3.14 3.14 0 0 1-1.539-6.088l19.925-5.021a3.14 3.14 0 0 1 1.893 5.979Zm-2.739-16.37c.769.32 1.633.322 2.404.005l.164-.065 12.214-5.426a3.147 3.147 0 0 0 1.694-1.737 3.133 3.133 0 0 0-.05-2.427 3.143 3.143 0 0 0-4.189-1.577l-12.223 5.423a3.143 3.143 0 0 0-.014 5.803v.001Zm35.686 21.023-.331.106-28.299 7.3a3.148 3.148 0 0 1-3.494-4.643 3.144 3.144 0 0 1 1.923-1.447l28.295-7.29a3.142 3.142 0 0 1 3.618 4.402 3.144 3.144 0 0 1-1.712 1.572Zm-8.832 23.614.135-.043a3.145 3.145 0 0 0 1.782-1.613 3.14 3.14 0 0 0-3.894-4.302L77.65 83.788a3.237 3.237 0 0 0-1.991 3.967 3.15 3.15 0 0 0 3.977 1.995l19.386-6.446Zm-18.238 31.17a3.141 3.141 0 0 1-2.376-5.814l14.42-6.292a3.098 3.098 0 0 1 4.135 1.616 3.131 3.131 0 0 1-1.616 4.135l-14.407 6.287-.156.068Zm8.582 18.589.187-.066a3.139 3.139 0 0 0-2.063-5.928l-12.015 3.765a3.152 3.152 0 0 0-2.189 2.722 3.15 3.15 0 0 0 1.678 3.064 3.136 3.136 0 0 0 2.397.212l12.005-3.769Zm-.486 24.677a3.142 3.142 0 0 1-4.081-1.678 3.137 3.137 0 0 1 1.627-4.102l22.124-10.4a3.142 3.142 0 0 1 4.474 2.693 3.14 3.14 0 0 1-1.8 2.99l-22.123 10.4c-.036.013-.059.028-.083.042a.334.334 0 0 1-.138.055Zm6.559 19.398 11.744-4.472a3.144 3.144 0 1 0-2.235-5.877l-11.747 4.482a3.137 3.137 0 0 0-1.774 4.037c.294.771.88 1.395 1.63 1.738a3.146 3.146 0 0 0 2.382.092Zm26.334 16.187c-.037-.015-.085.01-.131.033a.46.46 0 0 1-.065.03l-27.8 8.579a3.138 3.138 0 0 1-3.925-2.072 3.226 3.226 0 0 1 2.074-3.934l27.8-8.579a3.143 3.143 0 1 1 2.047 5.943Zm-8.009-67.832c.744.31 1.578.321 2.33.033l.301-.14 21.812-11.059a3.143 3.143 0 0 0 .619-5.187 3.142 3.142 0 0 0-3.465-.413l-21.803 11.062a3.142 3.142 0 0 0 .206 5.704Zm2.822-22.901a3.14 3.14 0 0 1-2.552-5.722L133 87.104a3.14 3.14 0 0 1 2.876 5.58l-18.966 9.766c-.102.06-.21.108-.324.142Zm26.049-69.947c.076-.019.151-.044.223-.074l-.038-.015a3.138 3.138 0 0 0 .255-5.598 3.142 3.142 0 0 0-2.233-.329l-33.931 10.145a3.102 3.102 0 0 0-2.108 3.91c.238.8.784 1.47 1.519 1.865a3.136 3.136 0 0 0 2.392.244l33.921-10.148Zm-17.003 25.403a3.144 3.144 0 0 1-3.967-1.764 3.142 3.142 0 0 1 1.586-4.041l13.644-6.091a3.143 3.143 0 1 1 2.541 5.749l-13.601 6.065-.203.082Zm18.528 12.615c.729.338 1.56.384 2.323.13l.122-.038 17.369-7.299a3.147 3.147 0 0 0 1.705-1.705 3.141 3.141 0 0 0-4.134-4.086l-17.396 7.287a3.152 3.152 0 0 0 .011 5.711Zm44.757 20.945-27.179 10.26a3.143 3.143 0 0 1-4.049-1.824 3.143 3.143 0 0 1 1.824-4.049l27.189-10.257a3.14 3.14 0 0 1 2.225 5.873l-.01-.003Zm-57.239 54.604a3.14 3.14 0 0 0 2.404.044l.076-.056 30.544-12.413a3.145 3.145 0 0 0 1.809-1.676 3.14 3.14 0 0 0-4.177-4.135l-30.551 12.432a3.144 3.144 0 0 0-.105 5.804Zm11.586 32.922a3.141 3.141 0 0 1-4.094-4.122c.322-.77.936-1.38 1.708-1.696l15.86-6.9a3.143 3.143 0 0 1 2.502 5.767l-15.837 6.898-.139.053Zm-1.131 30.254 28.891-10.353a3.143 3.143 0 0 0-2.173-5.896l-28.839 10.331a3.23 3.23 0 0 0-1.902 4.013 3.15 3.15 0 0 0 4.023 1.905Zm40.207-68.783a3.138 3.138 0 0 1-3.94-1.615 3.138 3.138 0 0 1 1.293-4.058l18.69-10.486c.36-.201.757-.329 1.167-.376a3.143 3.143 0 0 1 1.894 5.867l-18.71 10.457c-.127.079-.258.15-.394.211Zm-5.451 22.862c.77.322 1.635.325 2.407.009l.155-.068 12.954-5.674a3.153 3.153 0 0 0 1.661-1.741 3.144 3.144 0 0 0-4.202-4.009l-12.954 5.674a3.144 3.144 0 0 0-.021 5.809Zm35.303-63.611-24.211 9.23a3.142 3.142 0 0 1-3.953-4.213 3.14 3.14 0 0 1 1.715-1.654l24.214-9.24a3.147 3.147 0 0 1 3.987 4.227 3.14 3.14 0 0 1-1.752 1.65Zm-25.751-28.922c.413.006.822-.07 1.205-.223l.084-.021 18.135-7.557c.77-.32 1.38-.932 1.696-1.703a3.133 3.133 0 0 0-.005-2.403 3.215 3.215 0 0 0-4.103-1.7l-18.131 7.548a3.151 3.151 0 0 0-1.724 1.676 3.152 3.152 0 0 0-.032 2.405 3.13 3.13 0 0 0 2.875 1.978Zm-18.943-33.2a3.141 3.141 0 0 1-2.354-5.816l21.674-9.276a3.078 3.078 0 0 1 4.135 1.616 3.125 3.125 0 0 1-1.616 4.136l-21.674 9.276-.165.064Zm-11.011-22.83a3.14 3.14 0 0 0 2.343.096.294.294 0 0 0 .103-.046l19.551-8.238a3.142 3.142 0 0 0 1.672-4.114A2.998 2.998 0 0 0 176.042.93l-19.554 8.248a3.142 3.142 0 0 0-.001 5.727v-.001Zm55.116 28.247a3.14 3.14 0 0 1-2.51-5.748l14.128-7.03a3.14 3.14 0 1 1 2.795 5.624l-14.128 7.029-.285.125Zm6.25 31.861 16.872-6.44c.39-.143.749-.362 1.054-.645a3.134 3.134 0 0 0 .142-4.469 3.143 3.143 0 0 0-3.434-.753l-16.881 6.436a3.143 3.143 0 0 0 2.247 5.871Zm13.968 36.456a3.168 3.168 0 0 1-4.301-2.986 3.11 3.11 0 0 1 1.976-2.851l21.235-8.235a3.14 3.14 0 0 1 4.062 1.803 3.14 3.14 0 0 1-1.802 4.062l-21.157 8.201-.013.006Zm-6.771 23.737c.74.327 1.576.356 2.336.083l.117-.052 15.803-7.029a3.136 3.136 0 0 0 1.616-4.136 3.088 3.088 0 0 0-4.126-1.612l-15.803 7.029a3.142 3.142 0 0 0 .057 5.717Zm18.473 11.565a.652.652 0 0 1-.161.055l-24.732 7.899a3.13 3.13 0 0 1-3.94-2.034 3.062 3.062 0 0 1 2.038-3.949l24.704-7.856a3.138 3.138 0 0 1 3.785 4.308 3.14 3.14 0 0 1-1.708 1.614l.014-.037ZM207.394 22.673a3.14 3.14 0 0 0 2.276.01c.183-.063.361-.14.531-.232l10.949-6.586a3.15 3.15 0 1 0-3.263-5.388l-10.958 6.583a3.14 3.14 0 0 0 .465 5.613Z" fill="#6C84F5" fill-rule="evenodd"/></svg>