<svg width="254" height="232" viewBox="0 0 254 232" xmlns="http://www.w3.org/2000/svg"><path d="M47.81 0c.61 2.05-2.621 5.338-8.008 10.514a51.506 51.506 0 0 0-5.232 5.427 134.145 134.145 0 0 0-16.641 33.99c-1.782 5.761-4.069 11.482-6.209 17.007-3.035 7.73-6.184 15.721-8.031 23.842a73.772 73.772 0 0 0-1.49 23.696c.212 2.124.358 4.386.505 6.697.334 5.322.692 10.831 1.88 15.526 4.646 18.236 20.49 42.193 35.316 53.406l3.702 2.807c13.728 10.408 27.92 21.157 43.755 27.553 11.644 4.696 27.227 9.977 44.454 9.139l2.441-.123c10.148-.496 20.637-1.009 30.768-.618 1.741.073 3.482.171 5.232.277 5.851.35 11.905.708 17.731-.35 31.012-5.631 57.108-35.845 64.367-44.975l1.44 1.147c-7.324 9.26-33.827 39.873-65.481 45.642-6.038 1.099-12.206.733-18.163.375-1.733-.098-3.466-.204-5.2-.269-10.049-.39-20.498.122-30.604.619l-2.441.122c-17.585.854-33.412-4.508-45.236-9.277-16.063-6.469-30.352-17.308-44.178-27.797l-3.702-2.799C23.64 180.185 7.497 155.733 2.802 137.155c-1.23-4.882-1.587-10.456-1.937-15.86-.147-2.294-.285-4.532-.496-6.64A75.766 75.766 0 0 1 1.89 90.373c1.888-8.259 5.062-16.274 8.137-24.11 2.165-5.493 4.403-11.181 6.16-16.877a135.821 135.821 0 0 1 16.87-34.495 49.976 49.976 0 0 1 5.468-5.696c2.701-2.612 7.746-7.454 7.519-8.674L47.809 0Zm14.769 2.8 1.782.398c-.863 3.995-3.874 7.657-6.779 11.197-1.22 1.497-2.384 2.913-3.36 4.329-4.2 6.046-7.544 12.898-10.782 19.53-.684 1.391-1.36 2.783-2.043 4.158-.92 1.863-1.863 3.719-2.807 5.582-6.103 12.06-12.418 24.526-13.972 37.871-.545 4.606-1.97 8.65-3.353 12.573-.732 2.066-1.48 4.206-2.099 6.404-1.888 6.729-1.668 16.486-1.367 21.702 1.229 21.613 17.357 40.931 24.233 48.238 5.02 5.33 11.197 9.374 17.17 13.288 1.4.912 2.796 1.834 4.19 2.767 2.938 2.018 5.802 4.215 8.488 6.364 4.345 3.425 8.837 6.973 13.833 9.488 14.542 7.323 30.108 8.511 41.981 8.707a158.23 158.23 0 0 0 19.31-1.27c8.455-.911 17.194-1.847 25.974-.879 9.008.993 16.356 1.197 25.128-.862 6.982-1.628 12.076-5.883 17.471-10.383 2.14-1.783 4.354-3.63 6.689-5.298 3.597-2.563 7.194-6.135 10.676-9.594 5.233-5.191 10.644-10.578 16.479-13.02l.716 1.701c-5.509 2.319-10.791 7.568-15.893 12.637-3.531 3.508-7.185 7.137-10.904 9.765-2.278 1.628-4.467 3.451-6.575 5.208-5.33 4.443-10.83 9.033-18.235 10.766-9 2.116-16.804 1.888-25.755.903-8.577-.952-17.219 0-25.576.871a159.6 159.6 0 0 1-19.53 1.286c-12.1-.204-27.903-1.392-42.778-8.903-5.142-2.604-9.716-6.209-14.134-9.691-2.694-2.132-5.485-4.329-8.374-6.274-1.375-.928-2.774-1.839-4.166-2.759-6.111-3.955-12.352-8.056-17.503-13.548-7.015-7.454-23.468-27.179-24.738-49.394-.3-5.33-.52-15.315 1.44-22.305.627-2.262 1.392-4.426 2.133-6.51 1.407-3.995 2.742-7.77 3.254-12.206 1.579-13.646 7.967-26.234 14.143-38.44.936-1.864 1.88-3.72 2.8-5.566.675-1.376 1.358-2.767 2.034-4.159 3.255-6.697 6.648-13.622 10.928-19.782 1.026-1.497 2.254-3.002 3.467-4.467l.592-.724c2.564-3.143 5.079-6.383 5.812-9.7Zm6.013 9.121 1.709.7c-4.24 9.984-9.244 20.115-14.053 29.905-6.51 13.166-13.19 26.78-18.358 40.54-7.194 19.172-3.914 47.197 7.633 65.099 15.534 24.184 32.72 38.416 57.498 47.611 21.572 8.008 48.369 11.881 75.442 10.896 25.966-.944 44.43-19.114 62.592-39.262l1.375 1.237c-18.447 20.457-37.212 38.896-63.902 39.873-27.309.992-54.35-2.914-76.15-11.01-25.177-9.35-42.648-23.794-58.41-48.312-11.84-18.406-15.2-47.115-7.811-66.783 5.191-13.834 11.92-27.496 18.423-40.687 4.817-9.765 9.764-19.871 14.012-29.807Zm11.124 10.953 1.497.985-.92 1.448C70.618 40.548 61.48 54.952 54.93 72.422l-1.058 2.792c-3.352 8.845-6.51 17.202-6.6 26.894-.048 10.008 1.58 18.577 3.532 27.943l.098.431c1.896 8.992 3.255 15.461 10.147 22.028 7.934 7.544 17.83 12.524 27.399 17.349l3.133 1.579c20.538 10.44 48.669 24.729 75.783 20.872 1.481-.211 3.051-.391 4.663-.561 5.061-.562 10.293-1.14 14.476-3.027 2.677-1.205 5.086-3.329 7.421-5.387a49.034 49.034 0 0 1 5.167-4.15c2.263-1.498 4.761-3.028 7.405-4.647 8.374-5.126 17.903-10.936 23.135-17.707l1.457 1.131c-5.477 7.039-15.12 12.939-23.599 18.147-2.636 1.627-5.118 3.141-7.323 4.613a47.093 47.093 0 0 0-4.956 3.996c-2.441 2.148-4.956 4.37-7.885 5.696-4.443 2.002-9.83 2.596-15.03 3.174a119.46 119.46 0 0 0-4.606.553c-27.667 3.938-56.147-10.505-76.881-21.051l-3.125-1.579-1.618-.816c-9.18-4.634-18.527-9.533-26.22-16.842-7.324-6.933-8.715-13.663-10.684-22.98l-.098-.431c-2.002-9.48-3.662-18.155-3.572-28.334.081-10.017 3.312-18.521 6.721-27.53l1.05-2.782c6.624-17.666 15.81-32.143 25.535-47.465l.92-1.457Zm3.182 8.65 1.66.806c-2.686 5.818-5.965 11.742-9.44 18.016-4.068 7.323-8.25 14.924-11.392 22.312-11.148 26.113-11.164 48.768-.049 67.345 9.016 15.079 33.16 22.557 50.785 28.017 1.522.472 2.995.928 4.395 1.375l4.524 1.449c14.843 4.809 35.153 11.392 48.751 5.476 13.597-5.916 33.493-17.552 45.398-29.294l1.294 1.318c-12.076 11.872-32.281 23.68-45.952 29.636-14.24 6.193-34.941-.513-50.052-5.411l-4.517-1.449-4.386-1.367c-17.902-5.549-42.436-13.15-51.827-28.83-11.392-19.115-11.457-42.315-.057-69.021 3.19-7.479 7.406-15.103 11.49-22.476 3.459-6.25 6.722-12.14 9.375-17.902Zm9.146 4.996c.13.708-.456 2.027-3.703 8.292-1.106 2.124-2.14 4.134-2.62 5.216-1.261 2.881-2.677 5.566-4.068 8.138-2.962 5.688-5.778 11.001-6.763 17.747-4.003 26.382-2.782 44.235 3.744 54.578 6.436 10.212 22.125 20.644 34.307 25.673 18.227 7.527 36.187 13.931 55.488 9.683 6.649-1.473 12.507-5.159 17.943-8.796 5.241-3.524 14.745-10.359 19.53-16.527l1.456 1.131c-4.955 6.372-14.647 13.345-19.961 16.926-5.582 3.735-11.603 7.527-18.602 9.048-19.814 4.362-38.823-2.441-56.595-9.764-12.442-5.143-28.48-15.86-35.161-26.398-6.77-10.733-8.08-29.002-4.004-55.839 1.058-7.022 3.947-12.498 7.006-18.3 1.351-2.572 2.759-5.233 3.996-8.048.496-1.14 1.546-3.174 2.66-5.322 1.36-2.62 3.41-6.575 3.524-7.324l1.823-.114Zm3.491 11.93 1.806.374c-.512 2.27-1.855 4.663-3.157 6.982a31.371 31.371 0 0 0-3.019 6.396 84.22 84.22 0 0 0-1.953 10.22c-.309 2.043-.634 4.167-1.025 6.16-2.27 11.564-4.012 28.481.651 43.511 2.986 9.602 13.093 18.464 27.04 23.72 1.476.543 2.957 1.11 4.443 1.701 12.687 4.882 25.804 9.976 38.889 5.9l1.627-.497c12.328-3.824 26.292-8.137 34.511-18.228l1.432 1.164c-8.569 10.497-22.785 14.924-35.398 18.822l-1.627.496c-13.703 4.272-27.122-.919-40.109-5.932a449.89 449.89 0 0 0-4.427-1.701c-14.476-5.452-24.998-14.761-28.147-24.9-4.776-15.371-3.019-32.639-.7-44.414.383-1.953.7-4.068 1.01-6.078a85.449 85.449 0 0 1 2.017-10.416 33.004 33.004 0 0 1 3.166-6.77c1.294-2.295 2.514-4.468 2.97-6.51Zm7.714 6.257 1.555.88C97.7 68.873 93.729 83.944 94.225 95.914c.61 15.868 6.51 25.535 20.482 33.363a266.415 266.415 0 0 1 5.769 3.361c9.309 5.509 20.889 12.36 30.841 12.637 12.515.334 25.225-5.696 33.941-16.063l1.415 1.188c-9.097 10.823-22.337 17.088-35.405 16.714-10.432-.285-22.24-7.275-31.736-12.889a458.934 458.934 0 0 0-5.696-3.345c-14.574-8.194-20.783-18.309-21.418-34.91-.472-12.278 3.58-27.666 10.831-41.264Zm9.504 13.647 1.319 1.294a48.912 48.912 0 0 0-12.133 22.646c-2.653 12.157-2.034 19.529 8.845 28.269 10.88 8.74 38.343 26.398 60.217 1.302l1.391 1.212c-16.128 18.513-39.019 18.147-62.763-1.066-11.498-9.341-12.206-17.454-9.497-30.108a50.922 50.922 0 0 1 12.621-23.55Zm5.314 11.034 1.172 1.424c-4.533 3.768-4.883 10.977-5.135 16.771-.041.814-.073 1.579-.122 2.328-.545 8.991 3.524 12.889 12.271 17.763 5.037 2.8 20.799 7.479 28.481 3.8a6.885 6.885 0 0 0 4.069-5.313l1.814.317a8.728 8.728 0 0 1-5.126 6.665c-8.138 3.865-24.185-.521-30.182-3.858-9.236-5.142-13.833-9.569-13.215-19.53.041-.731.082-1.505.114-2.294.334-6.12.692-13.785 5.859-18.073Zm11.091 8.08 1.367 1.245c-3.743 4.07-5.753 9.033-5.387 13.183.148 1.55.627 3.051 1.404 4.4a10.89 10.89 0 0 0 3.104 3.42c3.825 2.946 10.945 5.004 15.461 3.377a6.592 6.592 0 0 0 4.338-5.102l1.806.407a8.435 8.435 0 0 1-5.517 6.428c-5.232 1.896-13.02-.423-17.186-3.654a12.605 12.605 0 0 1-5.224-9.113c-.423-4.72 1.692-10.042 5.834-14.59Z" fill="#136E65" fill-rule="nonzero" opacity=".7"/></svg>