<svg width="256" height="283" viewBox="0 0 256 283" xmlns="http://www.w3.org/2000/svg"><g fill-rule="nonzero" fill="none"><path d="M69.892 237.885c-15.933-16.343-30.614-33.873-45.44-51.211-11.109-13.049-21.95-27.655-21.47-46.806.953-33.242 50.331-58.11 76.119-71.863 42.51-22.667 87.013-38.97 130.219-59.404.32-.175.663-.29 1.006-.336.343-.046.679-.024.987.067 12.451-5.531 25.032-9.115 35.645-7.12 20.979 3.946-.491 50.747-5.341 63.012-13.123 33.466-25.852 65.895-37.062 99.832-6.912 20.986-14.659 41.751-22.733 62.506-5.684 14.687-12.117 31.398-24.155 43.241-35.205 34.846-69.721-13.451-87.775-31.918Z" fill="#00A5CE"/><path d="M230.346 48.43c1.655 2.42-2.206 10.52-4.484 7.207-1.659-2.436 2.222-10.526 4.484-7.208ZM230.446 32.933l.393.077c2.31.422 1.694 3.685 1.048 5.468a4.313 4.313 0 0 1-.976 1.797 4.605 4.605 0 0 1-1.71 1.203.938.938 0 0 1-.657-.017.73.73 0 0 1-.409-.442 2.311 2.311 0 0 1-.704-.832 2.571 2.571 0 0 1-.265-1.097l-.01-.726c-.091-1.325.87-5.87 3.29-5.431ZM209.339 38.725l.366-.155c1.524-.465 2.331.889 2.383 2.155l.244.108c1.059.416.309 3.325-.917 3.648l-.127.054a6.145 6.145 0 0 1-1.281 1.78c-4.645 4.311-5.38-6.185-.668-7.59ZM193.135 56.935a.971.971 0 0 1 .356-.078.78.78 0 0 1 .333.064c.172.065.333.15.479.253 1.098-.073 1.285 1.606 1.188 2.396-.095 1.682-.766 3.387-1.906 4.842a2.688 2.688 0 0 1-.969.771 2.298 2.298 0 0 1-1.153.22 1.738 1.738 0 0 1-.988-.398 1.598 1.598 0 0 1-.525-.896c-.7-2.048.976-6.761 3.185-7.174ZM214.057 57.324c.849-.05 1.028.895.975 1.826l.106.377c.349 1.231-.657 5.839-2.925 4.736-2.269-1.102-1.464-6.793 1.844-6.94ZM219.021 90.037c.492.944.694 2.046.584 3.194-.109 1.148-.525 2.302-1.207 3.345-.964 1.546-3.132 3.096-4.282 1.402-.488-.945-.686-2.046-.574-3.193.113-1.146.533-2.298 1.217-3.338.96-1.56 3.121-3.074 4.262-1.41ZM188.662 114.299c.145.009.283.045.405.106.441.108.902.093 1.356.244.453.152.408 1.463.146 1.868a25.972 25.972 0 0 1-3.171 5.037 2.78 2.78 0 0 1-1.013.864c-.399.2-.83.289-1.237.258a1.77 1.77 0 0 1-1.057-.432 1.652 1.652 0 0 1-.529-.981c-.31-1.02-.319-2.153-.026-3.284.293-1.132.877-2.222 1.695-3.161a2.77 2.77 0 0 1 .774-.724 2.55 2.55 0 0 1 .965-.363c.333-.05.659-.025.953.073.293.099.546.268.739.495ZM26.81 115.418c.137 1.571-1.855 8.1-4.622 6.223-.204-.093-.049-.175.302-.128-2.976.737-1.479-4.133-.471-5.423-.324.366-.404.399-.238.101 1.142-3.155 4.717-4.292 5.028-.773ZM3.678 132.348c2.894 1.037-.096 8.394-2.593 6.88-1.97-1.215-.09-7.86 2.593-6.88ZM26.194 153.941l-.092.495c-.241 1.355-1.146 4.457-3.178 4.306-2.03-.151-1.508-3.286-.865-4.6.079-.164.137-.335.22-.484 1.325-2.807 4.492-3.038 3.915.283ZM64.151 118.041c.074-.037.149-.069.225-.095l.354-.15c1.222-.516 1.833.128 2.127 1.185l.05.176.077.279c.223.959.188 2.002-.103 3.038a7.779 7.779 0 0 1-1.565 2.902c-1.483 1.579-3.214 1.753-5.09 1.989-1.874.235-.957-3.435-.353-4.298a16.053 16.053 0 0 1 4.278-5.026ZM31.434 128.422c.526 1.026.738 2.219.614 3.461-.123 1.242-.576 2.489-1.315 3.616-1.051 1.68-3.377 3.361-4.623 1.514-.527-1.021-.74-2.211-.62-3.449.122-1.239.573-2.482 1.31-3.607 1.05-1.679 3.377-3.361 4.634-1.535ZM47.593 141.393c.428.844.6 1.825.494 2.846-.104 1.02-.48 2.043-1.09 2.967-.847 1.398-2.758 2.791-3.807 1.266-.443-.844-.624-1.83-.524-2.858.1-1.028.477-2.06 1.092-2.991.922-1.381 2.773-2.798 3.835-1.23ZM60.338 139.716l-.091.428c-.33 1.585-2.387 5.263-4.432 4.031-2.044-1.232-.87-5.593.742-7.524l.22-.288c2.887-3.427 3.984 1.339 3.561 3.353ZM47.064 109.855c1.502 2.193-2.007 9.526-4.04 6.581-1.51-2.222 1.995-9.569 4.04-6.581ZM138.655 221.083c2.225-.566 2.686 1.317 2.447 3.35.24 2.349-1.488 9.116-4.753 7.183-3.265-1.933-2.225-9.384 2.306-10.533ZM156.329 210.697l-.029-.101c.098.026.191.063.278.11l.094-.04c-.373-.135.511.125.516.139a.857.857 0 0 1 .312.391c.064.16.082.341.053.526l.164.579c.295 1.043-1.017 5.877-2.771 4.412-.672-.556-1.077-1.364-1.143-2.282-.066-.919.21-1.888.78-2.738.18-.308.444-.569.757-.747a1.82 1.82 0 0 1 .989-.249ZM136.983 188.988a4.1 4.1 0 0 0 .328 1.158c.369 1.302-1.139 7.155-3.403 5.501a4.723 4.723 0 0 0-.704-.497c-2.48-.738-1.805-4.441-.551-6.476 1.641-2.652 3.916-2.201 4.33.314ZM113.356 209.923c1.77.878.147 5.74-.848 6.859a4.134 4.134 0 0 1-1.839 1.329c-1.913.499-2.569-1.645-2.308-3.169a14.232 14.232 0 0 1 1.594-4.461c.125-.362.357-.696.664-.956a2.19 2.19 0 0 1 1.048-.495 1.649 1.649 0 0 1 1.042.152c.303.16.529.419.647.741ZM132.268 205.789c2.169-.135 2.046 3.046 1.59 4.527-.457 1.481-1.234 3.341-2.834 3.855a3.247 3.247 0 0 1-.812.213c-2.835.612-2.227-3.948-1.058-5.551.206-.283.391-.573.593-.87a3.069 3.069 0 0 1 .95-1.451 3.045 3.045 0 0 1 1.571-.723ZM153.557 190.895c2.654-.911 2.218 3.473 1.576 4.851-.575 1.524-1.642 2.9-3.022 3.897-2.295 1.491-1.946-1.749-1.255-3.522-.07-1.956.694-4.541 2.701-5.226ZM120.6 180.652c1.524.69 1.74 2.405 2.053 3.9.217.771-.283 4.041-1.877 3.673-1.195-.276-2.032.533-3.19.388-2.428-.308-1.448-4.27-.482-5.882l.244-.396c.79-1.228 2.022-2.27 3.252-1.683ZM104.358 230.133c2.394-1.742 3.213 1.227 3.131 2.886.007 1.077-.274 2.187-.816 3.223a8.267 8.267 0 0 1-2.277 2.699c-2.714 1.861-3.056-1.553-2.497-3.967a6.335 6.335 0 0 1 .701-2.602 7.451 7.451 0 0 1 1.758-2.239ZM76.788 173.406l.249.009c1.619-.018 1.589 2.251 1.212 3.79-.115 2.093-1.327 5.931-3.52 4.731-.973-.689-1.562-1.775-1.643-3.029-.08-1.254.355-2.576 1.212-3.687a3.394 3.394 0 0 1 1.037-1.219c.44-.321.944-.527 1.453-.595ZM113.961 140.191c1.414 2.068-1.879 8.92-3.795 6.137-1.387-2.031 1.902-8.897 3.795-6.137ZM128.246 155.853l.165 1.214c.115.846-.739 4.034-2.258 3.668l-.795-.184c-4.263-1.06 2.21-9.871 2.888-4.698ZM118.34 116.991c.52.976.734 2.12.617 3.313-.116 1.193-.557 2.391-1.276 3.469-.984 1.602-3.191 3.201-4.393 1.448-.514-.976-.726-2.118-.613-3.308.113-1.191.547-2.387 1.257-3.467 1.032-1.622 3.207-3.207 4.408-1.455Z" fill="#FFFBE9"/></g></svg>