<svg width="277" height="222" xmlns="http://www.w3.org/2000/svg"><g fill="none" fill-rule="evenodd"><path d="M244.989 119.377c-12.509-23.566-26.302-46.591-39.897-69.65-10.239-17.308-21.949-35.195-39.604-44.913C134.825-11.942 104.27 21 87.61 37.797 60.15 65.488 38.22 98.421 12.7 127.949a1.86 1.86 0 0 0-.465.762 2.324 2.324 0 0 0-.093.958C5.116 138.368-.142 148.222.028 159.199c.338 21.7 46.658 26.482 58.675 28.461 32.774 5.503 64.533 10.824 97.44 18.364 20.345 4.682 40.619 8.466 60.934 11.94 14.371 2.485 30.718 5.345 43.472.383 37.497-14.4-1.434-72.294-15.56-98.97Z" fill="#F68A22" fill-rule="nonzero"/><path d="M157.437 20.705c.506 3.29 7.844 4.4 6.831 1.231-.819-2.513-7.316-4.291-6.831-1.231Zm-22.014 10.768c1.437.97 7.812 2.583 6.507-1.029a.321.321 0 0 0-.042-.113c.595-2.19-3.789-3.263-5.083-3.015.391-.11.434-.167.132-.17-3.11-.611-4.731 2.152-1.514 4.327Zm-28.34 130.789a1.287 1.287 0 0 1-.035-.438 2.577 2.577 0 0 1-.34-.958 2.017 2.017 0 0 1 .082-.934c.099-.286.266-.53.488-.713.221-.183.491-.3.789-.341.995-.267 2.093-.234 3.184.094 1.091.329 2.135.943 3.028 1.779.349.267.635.621.822 1.02.188.398.269.824.233 1.223-.036.4-.186.756-.433 1.025-.247.269-.58.44-.957.49-1.65.344-3.381.442-5.148.291-.415.03-1.632-.628-1.701-1.135-.039-.29-.027-.553-.016-.814.008-.194.017-.388.004-.589Zm-30.922 12.395a8.42 8.42 0 0 0 2.883 2.261c1.087.511 2.229.735 3.309.65 1.594-.085 3.384-1.303 1.989-3.295a8.387 8.387 0 0 0-2.884-2.25c-1.086-.507-2.226-.727-3.304-.637-1.607.072-3.362 1.303-1.993 3.271Zm-30.777-37.438a.687.687 0 0 0-.13.294.877.877 0 0 0 .008.348c.032.197.086.394.159.588-.242.996 1.289 2.071 2.04 2.402 1.578.81 3.27 1.089 4.805.791a1.51 1.51 0 0 0 .87-.502c.222-.26.356-.596.387-.97a2.332 2.332 0 0 0-.213-1.146 2.73 2.73 0 0 0-.75-.974c-1.793-1.756-6.442-2.695-7.176-.831Zm-22.3 4.426.201-.262c2.049-3.69 11.67 2.615 6.936 4.688a4.007 4.007 0 0 1-1.854.255l-.07.091c-.493.983-3.31.134-3.529-1.086l-.062-.289c-1.166-.725-2.295-2.21-1.622-3.397Zm6.901 21.83c1.994 2.86 10.163 3.544 7.438-.381-2.007-2.872-10.172-3.533-7.438.381Zm-16.438-7.738.01.413c.024 2.411 3.172 3.574 4.94 3.917.632.19 1.267.203 1.837.038a2.612 2.612 0 0 0 1.398-.974.884.884 0 0 0 .09-.631 1.229 1.229 0 0 0-.348-.623 3.955 3.955 0 0 0-.665-1.111 3.921 3.921 0 0 0-.983-.837l-.677-.399c-1.223-.795-5.625-2.318-5.602.207Zm30.173.607c-.88-.446-1.738-1.122-1.554-1.9.67-3.053 6.13-.772 6.797 1.966.667 2.738-3.81 1.225-4.908.237l-.335-.303Zm132.583-106.58.475.178c1.298.497 4.325 1.302 4.506-.695.182-1.997-2.815-3.181-4.138-3.277a2.741 2.741 0 0 1-.203-.024c-.097-.013-.192-.026-.282-.027-2.819-.251-3.536 2.613-.358 3.845ZM132.118 62.82c.036-.057.077-.111.122-.16 1.542-.926 3.359-1.383 5.287-1.33.888-.106 4.403.987 3.892 2.617l-.044.142c-.492 1.576-.946 3.031-2.58 3.563-.915.226-1.914.199-2.911-.079a7.494 7.494 0 0 1-2.807-1.52l-.244-.221-.154-.14c-.925-.838-1.42-1.752-.754-2.621l.193-.251Zm16.586-21.378a9.133 9.133 0 0 0 3.127 2.432c1.177.548 2.411.787 3.579.692 1.732-.095 3.669-1.392 2.146-3.558a9.091 9.091 0 0 0-3.115-2.43c-1.173-.548-2.403-.787-3.568-.693-1.733.095-3.67 1.392-2.169 3.557Zm13.519 21.402a7.484 7.484 0 0 1-2.572-1.99c-1.292-1.841.322-2.832 1.756-2.964.966-.084 1.988.113 2.961.568a7.48 7.48 0 0 1 2.58 2.024c1.254 1.807-.348 2.867-1.786 2.919-.958.082-1.972-.11-2.939-.557Zm-6.95 7.757.414.143c1.533.535 5.297.558 4.473-2.035-.823-2.592-5.083-3.815-7.144-3.323l-.304.053c-3.663.897.613 4.484 2.561 5.162Zm-29.081-25.612c1.806 2.594 9.205 3.2 6.783-.297-1.831-2.617-9.243-3.234-6.783.297Zm102.962 128.319c-.886 1.802.801 3.246 2.739 4.107 2.158 1.484 8.761 3.47 7.477-.654-1.283-4.123-8.415-7.126-10.216-3.453Zm-14.425 9.249.09.081c.037-.321.174-.602.392-.803.217-.201.505-.312.822-.317.887-.085 1.84.172 2.69.726a5.36 5.36 0 0 1 1.953 2.302c1.09 2.445-3.649 1.101-4.579.264l-.516-.465a1.439 1.439 0 0 1-.799-.836c-.013-.011-.114-.987-.048-.562l.053-.068a1.652 1.652 0 0 1-.058-.322Zm-19.762-25.895c.373.269.721.581 1.033.93 1.162 1.046 6.897 2.746 5.712-.284a7.265 7.265 0 0 1-.353-.932c-.29-2.744-3.874-4.084-5.986-3.985-2.754.137-2.699 2.534-.406 4.271Zm32.917-6.144c-1.202.341-5.995-.727-6.531-2.869a2.309 2.309 0 0 1-.588-1.008 1.769 1.769 0 0 1 .025-1.066c.117-.321.337-.575.628-.725.292-.151.641-.192.998-.116 1.457.016 2.953.314 4.414.88 1.463.569 3.357 2.337 2.587 3.877-.351.537-.89.898-1.533 1.027Zm-14.009 10.258c-.468 1.971 2.503 3.557 3.949 3.918 1.446.362 3.295.624 4.024-.609.142-.193.252-.412.326-.651 1.016-2.345-3.311-4.211-4.983-3.965-.202.029-.407.047-.615.066l-.285.027c-.532-.143-1.059-.1-1.497.12-.438.22-.761.605-.919 1.094Zm-15.173 13.99c-1.383-.131-5.53-2.064-4.262-4.082.956-1.528 3.483-.867 5.291.246 1.759.296 4.828 1.699 3.077 3.069-1.147.768-2.596 1.039-4.106.767Zm-9.588-35.691c.366 1.653 1.702 2.732 2.954 3.742l.349.283c.683.617 3.805 1.895 3.716.194-.036-.679.198-1.097.432-1.517.206-.369.413-.739.436-1.288.099-2.457-3.743-3.651-5.397-3.601l-.407.018c-1.269.088-2.434.695-2.083 2.169Zm57.503 15.33c-1.561-.811-4.2-3.174-2.193-4.504a4.74 4.74 0 0 1 2.37-.463c.85.046 1.718.295 2.538.729 2.341.763 5.471 2.913 3.302 4.482-.835.508-1.827.751-2.88.709-1.054-.043-2.134-.371-3.137-.953ZM188.82 99.938l-.033.24c-.276 1.523 1.85 2.708 3.349 3.174 1.976 1.011 5.759 1.918 4.989-.799a6.606 6.606 0 0 0-2.568-3.175c-1.16-.747-2.466-1.043-3.643-.826a2.11 2.11 0 0 0-1.305.329 1.983 1.983 0 0 0-.789 1.057Zm-41.731 14.084c1.703 2.443 8.617 2.997 6.328-.303-1.673-2.396-8.6-2.962-6.328.303Zm14.073 19.313 1.106.806c.77.56 3.88 1.459 3.781-.173l-.045-.85c-.308-4.596-9.559-3.192-4.842.217Zm-36.333-24.717a8.596 8.596 0 0 1-2.989-2.355c-1.442-2.073.382-3.28 2.059-3.386 1.119-.093 2.303.137 3.43.667a8.678 8.678 0 0 1 2.986 2.349c1.442 2.073-.4 3.303-2.05 3.375-1.119.103-2.306-.121-3.436-.65Z" fill="#FFF"/></g></svg>