<svg width="288" height="235" viewBox="0 0 288 235" xmlns="http://www.w3.org/2000/svg"><g fill-rule="nonzero" fill="none"><path d="M18.373 88.541c-5.944 24.902-10.24 49.942-14.753 74.919-3.354 18.764-5.735 38.664 3.824 54.568 16.696 27.524 71.175 14.379 99.992 8.164 47.502-10.249 93.685-27.276 140.721-39.901a3.154 3.154 0 0 0 1.848-1.154c13.384-3.942 25.95-9.625 34.155-18.673 16.217-17.888-24.655-42.685-34.696-49.722-27.302-19.278-53.77-37.949-79.648-58.952-15.984-13.002-32.584-25.238-49.46-37.238C108.438 12.04 94.908 2.33 78.867.634c-47.015-5.14-53.734 59.735-60.494 87.907Z" fill="#F68A22" opacity=".4"/><path d="M62.257 215.832c1.446 3.262-2.269 4.813-4.822 2.894-.292-.14-.205-.168.26-.082-1.437-.379-4.82-3.209-2.673-4.762l.062-.043.004-.022a.246.246 0 0 1 .015-.04l.027-.051c1.527-3.584 6.48.649 7.127 2.106Zm-27-2.466c-1.91 2.768-6.875-1.672-5.718-4.137 1.48-3.1 7.789 1.168 5.719 4.137Zm20.202.256c-.11.055-.212.111-.305.17l-.07.047c.007.077.16 0 .375-.217Zm24.403-4.595c-.347 4.061-7.111.169-6.862-2.843.357-4.014 7.118-.139 6.862 2.843ZM53.578 194.51c1.214.453 2.234 1.213 2.957 2.205a6.126 6.126 0 0 1 1.161 3.446c-.219 2.484-3.12 2.68-4.886 1.969-1.211-.452-2.227-1.211-2.946-2.201a6.099 6.099 0 0 1-1.151-3.439c.198-2.494 3.1-2.691 4.865-1.98Zm30.853-10.973c1.053.228 1.994.701 2.74 1.378a5.248 5.248 0 0 1 1.462 2.247l.079.262.066.291.042.183c.25 1.102.03 2.073-1.273 2.483l-.377.118a1.87 1.87 0 0 1-.241.076c-2.188.061-4.284-.385-6.099-1.299-.934-.313-3.481-2.793-1.747-3.895 1.733-1.102 3.312-2.155 5.348-1.844Zm-45.72-5.207.076.086.324.363c2.141 2.467-.779 4.516-3.33 3.025-.146-.07-.282-.177-.432-.263-1.215-.681-3.216-3.026-1.49-4.599 1.677-1.53 3.92.36 4.851 1.388Zm196.112-4.847c.727.07 1.408.285 1.999.632l.139-.044c1.204-.572 3.205 1.282 2.647 2.405l-.056.097-.163.267c.552 1.088.525 2.743-.882 3.468l-.168.08-.399.125c-4.845 2.122-9.322-7.466-3.117-7.03Zm-176.558-.257c.999.368 1.84.989 2.437 1.801.597.812.929 1.787.963 2.826-.171 2.12-2.519 2.209-4.023 1.665-1.007-.37-1.853-.999-2.45-1.821a5.017 5.017 0 0 1-.944-2.858c.182-2.073 2.572-2.225 4.017-1.613Zm13.62-1.534.077.079.294.308c1.354 1.428 2.714 6.226-1.311 5.51l-.213-.041-.339-.094c-2.401-.53-5.616-3.491-4.398-6.027 1.191-2.478 4.719-.878 5.89.265Zm181.553-5.062a3.411 3.411 0 0 1 1.769.87c1.428 1.065 3.533 3.381 1.907 5.37l-.129.149-.313.349c-1.91 2.072-4.94-1.024-5.609-2.301l-.04-.081-.351-.641a2.604 2.604 0 0 1-.308-1.146 3.037 3.037 0 0 1 .217-1.23.971.971 0 0 1 .147-.679c.133-.213.339-.386.58-.485a4.328 4.328 0 0 1 2.13-.175Zm-41.062-.961c1.727.452 3.159 1.452 4.069 2.843.475.616 1.133 2.204.124 2.921-.079.193-.18.381-.301.56-.067.11-.157.21-.263.292a1.153 1.153 0 0 1-.354.185c-2.163 1.212-5.965-1.682-6.35-3.955a1.938 1.938 0 0 1 .026-1.149c.125-.388.361-.751.681-1.047.32-.297.712-.514 1.13-.629a2.411 2.411 0 0 1 1.238-.021Zm-94.052-10.4c.205-2.38 2.961-2.564 4.629-1.872 1.174.423 2.158 1.15 2.851 2.105a5.768 5.768 0 0 1 1.086 3.32c-.205 2.381-2.927 2.553-4.647 1.878-1.166-.432-2.143-1.163-2.832-2.117a5.816 5.816 0 0 1-1.087-3.314Zm129.463 2.897c-.377 4.503-7.844.233-7.568-3.072.395-4.508 7.847-.217 7.568 3.072Zm-17.31-1.468.021.08.093.406c.514.776.825 1.733.035 2.299-3.053 2.248-6.623-2.153-5.131-4.747 1.463-2.543 4.577.588 4.982 1.962ZM110.069 138.99c-.323 3.752-6.653.125-6.421-2.631.334-3.789 6.66-.178 6.421 2.631Zm-47.162-14.35c1.07 1.038 2.187 2.907.933 4.063l-.133.113-.22.186a3.45 3.45 0 0 1-1.6.522 2.824 2.824 0 0 1-1.537-.321c-1.323-.355-2.371-1.198-2.923-2.351-.552-1.152-.564-2.522-.034-3.821 1.371-2.62 4.369-.137 5.514 1.609Zm148.44-5.573c1.122.421 2.062 1.127 2.726 2.047a5.648 5.648 0 0 1 1.056 3.193c-.195 2.26-2.867 2.484-4.492 1.813-1.123-.416-2.065-1.118-2.732-2.034a5.641 5.641 0 0 1-1.065-3.185c.189-2.291 2.885-2.489 4.507-1.834Zm-37.11-5.327a20.02 20.02 0 0 1 5.201 2.093c.425.163 1.097 1.255.775 1.703-.323.448-.733.758-1.066 1.16-.078.138-.18.266-.303.375a2.31 2.31 0 0 1-.407.943 2.715 2.715 0 0 1-1.815 1.096c-.354.05-.705.024-1.025-.077-1.167-.231-2.204-.755-3.006-1.52a5.357 5.357 0 0 1-1.564-2.833 1.95 1.95 0 0 1-.011-1.212 2.5 2.5 0 0 1 .714-1.111c.341-.312.76-.537 1.205-.647a2.41 2.41 0 0 1 1.302.03Zm-63.467.178.032.073.453 1.174c1.931 4.927-7.941 2.012-5.016-1.883l.113-.143.619-.728c1.141-1.363 3.382.641 3.799 1.507ZM90.71 90.53c.457 1.52 1.109 3.161.095 4.845-.77 1.328-2.284 1.357-3.559.911l-.158-.058-.411-.17c-1.652-.712-4.471-3.452-2.466-5.447.957-.95 2.099-.843 3.025-1.933 1.234-1.453 3.287 1.029 3.474 1.852Zm7.089-14.392c.033.435.128.855.284 1.251.889 2.503-.941 4.535-3.756 3.392-2.155-.881-4.624-3.641-2.754-6.072.155-.308.284-.623.387-.943 1.216-3.08 5.518.965 5.839 2.372ZM64.41 65.795c1.44.263 5.292 3.336 4.148 5.362a1.79 1.79 0 0 1-.211 1.107c-.191.356-.49.662-.855.875a2.268 2.268 0 0 1-1.179.318 1.784 1.784 0 0 1-1.066-.358 11.2 11.2 0 0 1-3.627-2.743c-.987-1.14-1.461-3.474.492-4.405.761-.287 1.57-.342 2.298-.156Zm42.921-5.618c1.247.739 3.79 4.23.986 5.328-2.119.833-4.068-.865-4.967-2.611-1.485-1.047-3.389-3.608-.618-3.948 1.715-.116 3.339.319 4.599 1.231ZM83.49 58.738c1.126.956 2.789 3.618.809 5.037a3.149 3.149 0 0 1-1.741.487c-.596-.017-1.141-.221-1.547-.581-.323-.114-.629-.233-.948-.332-1.816-.557-4.58-4.066-1.778-5.545.257-.164.533-.295.82-.391 1.663-.689 3.258.369 4.385 1.325Zm-34.727-8.681a5.572 5.572 0 0 1 2.324 2.222c.893 1.387 1.632 4.555-1.367 4.748a6.072 6.072 0 0 1-2.677-.694 5.073 5.073 0 0 1-1.914-1.763c-1.693-1.702-3.077-4.918.267-5.236 1.211-.042 2.37.207 3.367.723Zm31.5-9.784c1.226 1.603 1.749 3.576-.527 4.676-4.637 2.243-9.278-3.515-7.311-7.542 1.967-4.026 6.884.643 7.838 2.866Zm18.938 2.005.142.625a.947.947 0 0 1 .216.498c.022.185-.007.38-.086.566.003.014-.587.78-.433.548l.038-.056-.105.033a1.783 1.783 0 0 1-.123.2l-.072.096-.025-.11a2.142 2.142 0 0 1-1.014.493c-.371.069-.74.03-1.056-.11-.938-.334-1.672-.984-2.071-1.835-.4-.851-.439-1.849-.112-2.817.847-2.542 4.446.745 4.701 1.869Z" fill="#FFF"/></g></svg>