<svg width="160" height="57" viewBox="0 0 160 57" xmlns="http://www.w3.org/2000/svg"><path d="M81.559 44.264c.102 0 .17.045.204.136l1.92 6.409c.012.023.029.034.052.034.022 0 .04-.011.05-.034L85.69 44.4c.034-.09.102-.136.204-.136h1.343c.124 0 .17.062.136.187l-3.094 9.061c-.261.782-.522 1.36-.782 1.734-.261.385-.601.657-1.02.816-.42.159-1.009.238-1.768.238h-.12c-.079 0-.118-.057-.118-.17v-1.003c0-.113.056-.17.17-.17h.034c.453-.011.81-.068 1.07-.17.261-.102.477-.295.647-.578.17-.272.334-.686.493-1.241.011-.011.011-.028 0-.051v-.051l-2.84-8.415-.016-.068c0-.08.05-.119.153-.119h1.377Zm-46.082-.136c1.144 0 2 .289 2.567.867.566.567.912 1.405 1.037 2.516.045.465.062.986.05 1.564 0 .113-.056.17-.17.17H33.54c-.046 0-.069.023-.069.068 0 .385.035.68.102.884.125.453.374.81.748 1.071.386.25.867.374 1.446.374.838 0 1.484-.346 1.938-1.037.056-.113.13-.13.22-.051l.97.646c.079.068.096.142.05.221-.317.51-.77.912-1.36 1.207-.578.295-1.235.442-1.972.442-.827 0-1.524-.181-2.09-.544-.567-.363-.992-.878-1.276-1.547-.272-.669-.408-1.479-.408-2.431 0-.827.063-1.456.188-1.887.203-.782.611-1.4 1.223-1.853.612-.453 1.355-.68 2.227-.68Zm16.09 0c1.144 0 2 .289 2.567.867.566.567.912 1.405 1.037 2.516.045.465.062.986.05 1.564 0 .113-.056.17-.17.17H49.63c-.046 0-.068.023-.068.068 0 .385.034.68.102.884.124.453.374.81.748 1.071.385.25.867.374 1.445.374.838 0 1.484-.346 1.938-1.037.056-.113.13-.13.22-.051l.97.646c.079.068.096.142.05.221-.317.51-.77.912-1.36 1.207-.577.295-1.235.442-1.971.442-.828 0-1.525-.181-2.091-.544-.567-.363-.992-.878-1.275-1.547-.272-.669-.408-1.479-.408-2.431 0-.827.062-1.456.187-1.887.204-.782.612-1.4 1.224-1.853.612-.453 1.354-.68 2.227-.68Zm98.099 0c1.144 0 2 .289 2.567.867.566.567.912 1.405 1.037 2.516.045.465.062.986.051 1.564 0 .113-.057.17-.17.17h-5.423c-.046 0-.068.023-.068.068 0 .385.034.68.102.884.124.453.374.81.748 1.071.385.25.867.374 1.445.374.838 0 1.484-.346 1.938-1.037.056-.113.13-.13.221-.051l.969.646c.079.068.096.142.051.221-.318.51-.771.912-1.36 1.207-.578.295-1.236.442-1.972.442-.828 0-1.525-.181-2.091-.544-.567-.363-.992-.878-1.275-1.547-.272-.669-.408-1.479-.408-2.431 0-.827.062-1.456.187-1.887.204-.782.612-1.4 1.224-1.853.612-.453 1.354-.68 2.227-.68ZM72.76 41.017c.113 0 .17.057.17.17v3.791c0 .023.005.04.017.051.022.011.045.006.068-.017.249-.283.544-.499.884-.646.35-.159.72-.238 1.105-.238.85 0 1.547.21 2.09.629.545.42.936 1.003 1.174 1.751.181.578.272 1.264.272 2.057 0 .85-.108 1.575-.323 2.176-.25.737-.646 1.309-1.19 1.717-.533.397-1.207.595-2.023.595a2.58 2.58 0 0 1-1.105-.238 2.671 2.671 0 0 1-.884-.663c-.023-.023-.046-.028-.068-.017-.012.011-.017.028-.017.051v.561c0 .113-.057.17-.17.17h-1.292c-.114 0-.17-.057-.17-.17v-11.56c0-.113.056-.17.17-.17h1.292Zm-8.245 0c.113 0 .17.057.17.17v11.56c0 .113-.057.17-.17.17h-1.292c-.114 0-.17-.057-.17-.17v-.561c0-.023-.011-.04-.034-.051-.011-.011-.029-.006-.051.017a2.67 2.67 0 0 1-.884.663 2.58 2.58 0 0 1-1.105.238c-.816 0-1.496-.198-2.04-.595-.533-.408-.924-.98-1.173-1.717-.215-.6-.323-1.326-.323-2.176 0-.793.09-1.479.272-2.057.238-.748.629-1.332 1.173-1.751.544-.42 1.24-.629 2.09-.629.386 0 .749.08 1.089.238.351.147.651.363.9.646.023.023.04.028.052.017.023-.011.034-.028.034-.051v-3.791c0-.113.056-.17.17-.17h1.292Zm73.533 0c.113 0 .17.057.17.17v3.791c0 .023.006.04.017.051.023.011.045.006.068-.017.249-.283.544-.499.884-.646.351-.159.72-.238 1.105-.238.85 0 1.547.21 2.091.629.544.42.935 1.003 1.173 1.751.181.578.272 1.264.272 2.057 0 .85-.108 1.575-.323 2.176-.249.737-.646 1.309-1.19 1.717-.533.397-1.207.595-2.023.595-.397 0-.765-.08-1.105-.238a2.667 2.667 0 0 1-.884-.663c-.023-.023-.045-.028-.068-.017-.011.011-.017.028-.017.051v.561c0 .113-.057.17-.17.17h-1.292c-.113 0-.17-.057-.17-.17v-11.56c0-.113.057-.17.17-.17h1.292ZM13.546 44.128c.816 0 1.525.215 2.125.646.612.42 1.049.997 1.31 1.734.203.578.305 1.258.305 2.04 0 .793-.102 1.49-.306 2.091-.249.76-.68 1.354-1.292 1.785-.612.42-1.331.629-2.159.629-.838 0-1.57-.21-2.193-.629-.623-.43-1.06-1.026-1.309-1.785-.204-.612-.306-1.303-.306-2.074 0-.805.097-1.485.29-2.04.249-.748.685-1.332 1.308-1.751.624-.43 1.366-.646 2.227-.646Zm116.746 0c.816 0 1.525.215 2.125.646.612.42 1.049.997 1.309 1.734.204.578.306 1.258.306 2.04 0 .793-.102 1.49-.306 2.091-.249.76-.68 1.354-1.292 1.785-.612.42-1.331.629-2.159.629-.838 0-1.569-.21-2.193-.629-.623-.43-1.059-1.026-1.309-1.785-.204-.612-.306-1.303-.306-2.074 0-.805.097-1.485.289-2.04.25-.748.686-1.332 1.309-1.751.624-.43 1.366-.646 2.227-.646Zm-110.102.136c.102 0 .164.051.187.153l1.615 6.171c.01.023.022.034.034.034.022 0 .04-.011.05-.034l1.65-6.171c.022-.102.085-.153.187-.153h1.173c.102 0 .164.051.187.153l1.683 6.154c.01.023.022.034.034.034.022 0 .04-.011.05-.034l1.684-6.154c.022-.102.085-.153.187-.153l1.309.017c.056 0 .096.017.119.051.034.034.045.08.034.136l-2.465 8.313c-.034.09-.097.136-.187.136h-1.326c-.091 0-.153-.045-.187-.136l-1.666-5.746c-.012-.023-.029-.034-.051-.034-.012 0-.023.011-.034.034l-1.581 5.729c-.023.102-.085.153-.187.153h-1.343c-.091 0-.153-.045-.187-.136l-2.448-8.33-.017-.051c0-.09.056-.136.17-.136h1.326Zm137.052-3.247c.113 0 .17.057.17.17v11.56c0 .113-.057.17-.17.17h-1.292c-.113 0-.17-.057-.17-.17v-11.56c0-.113.057-.17.17-.17h1.292Zm-35.855 3.128c.861 0 1.541.26 2.04.782.499.51.748 1.224.748 2.142v5.678c0 .113-.057.17-.17.17h-1.275c-.113 0-.17-.057-.17-.17v-5.338c0-.567-.159-1.014-.476-1.343-.306-.34-.72-.51-1.241-.51-.521 0-.946.164-1.275.493-.329.329-.493.77-.493 1.326v5.372c0 .113-.057.17-.17.17h-1.275c-.113 0-.17-.057-.17-.17v-5.338c0-.567-.159-1.014-.476-1.343-.306-.34-.72-.51-1.241-.51-.521 0-.941.164-1.258.493-.306.329-.459.77-.459 1.326v5.372c0 .113-.057.17-.17.17h-1.292c-.113 0-.17-.057-.17-.17v-8.313c0-.113.057-.17.17-.17h1.292c.113 0 .17.057.17.17v.578c0 .023.006.04.017.051.023.011.045.006.068-.017.499-.6 1.224-.901 2.176-.901.578 0 1.071.113 1.479.34.408.215.725.538.952.969.034.045.068.045.102 0 .272-.442.629-.77 1.071-.986a3.441 3.441 0 0 1 1.496-.323Zm-26.588-3.128c.113 0 .17.057.17.17v11.56c0 .113-.057.17-.17.17h-1.292c-.113 0-.17-.057-.17-.17v-11.56c0-.113.057-.17.17-.17h1.292ZM4.76 41c.691 0 1.298.147 1.819.442.533.283.94.686 1.224 1.207.295.521.442 1.122.442 1.802 0 .68-.147 1.275-.442 1.785-.295.51-.714.907-1.258 1.19-.533.283-1.15.425-1.853.425H1.7c-.045 0-.068.023-.068.068v4.828c0 .113-.057.17-.17.17H.17c-.113 0-.17-.057-.17-.17V41.17c0-.113.057-.17.17-.17h4.59Zm102.182 3.145c.861 0 1.541.26 2.04.782.499.51.748 1.224.748 2.142v5.678c0 .113-.057.17-.17.17h-1.275c-.113 0-.17-.057-.17-.17v-5.338c0-.567-.159-1.014-.476-1.343-.306-.34-.72-.51-1.241-.51-.521 0-.946.164-1.275.493-.329.329-.493.77-.493 1.326v5.372c0 .113-.057.17-.17.17h-1.275c-.113 0-.17-.057-.17-.17v-5.338c0-.567-.159-1.014-.476-1.343-.306-.34-.72-.51-1.241-.51-.521 0-.941.164-1.258.493-.306.329-.459.77-.459 1.326v5.372c0 .113-.057.17-.17.17h-1.292c-.113 0-.17-.057-.17-.17v-8.313c0-.113.057-.17.17-.17h1.292c.113 0 .17.057.17.17v.578c0 .023.006.04.017.051.023.011.045.006.068-.017.499-.6 1.224-.901 2.176-.901.578 0 1.071.113 1.479.34.408.215.725.538.952.969.034.045.068.045.102 0 .272-.442.629-.77 1.071-.986a3.441 3.441 0 0 1 1.496-.323Zm-61.56.034c.362 0 .691.074.986.221.08.034.107.102.085.204l-.272 1.275c-.012.102-.08.136-.204.102a1.78 1.78 0 0 0-.68-.119l-.238.017c-.533.023-.975.21-1.326.561-.34.34-.51.788-.51 1.343v4.964c0 .113-.057.17-.17.17H41.76c-.114 0-.17-.057-.17-.17v-8.313c0-.113.056-.17.17-.17h1.292c.113 0 .17.057.17.17v.901c0 .034.005.057.017.068.022 0 .04-.011.05-.034.51-.793 1.208-1.19 2.092-1.19Zm-31.887 1.36c-.464 0-.867.13-1.207.391-.34.25-.583.606-.73 1.071-.125.397-.188.924-.188 1.581 0 .657.063 1.19.187 1.598.136.465.374.827.714 1.088.352.25.771.374 1.258.374.454 0 .85-.125 1.19-.374.34-.26.584-.623.731-1.088.125-.43.187-.963.187-1.598 0-.635-.056-1.162-.17-1.581-.147-.465-.39-.822-.73-1.071-.34-.26-.754-.391-1.242-.391Zm47.654 0c-.68 0-1.184.272-1.513.816-.363.567-.544 1.315-.544 2.244 0 .873.142 1.575.425 2.108.328.623.867.935 1.615.935.657 0 1.156-.306 1.496-.918.26-.476.39-1.19.39-2.142s-.14-1.677-.424-2.176c-.329-.578-.81-.867-1.445-.867Zm13.685 0c-.635 0-1.117.289-1.445.867-.295.521-.442 1.247-.442 2.176 0 .93.136 1.643.408 2.142.34.612.838.918 1.496.918.748 0 1.286-.312 1.615-.935.283-.533.425-1.235.425-2.108 0-.93-.182-1.677-.544-2.244-.329-.544-.833-.816-1.513-.816Zm65.288 0c-.635 0-1.116.289-1.445.867-.295.521-.442 1.247-.442 2.176 0 .93.136 1.643.408 2.142.34.612.839.918 1.496.918.748 0 1.286-.312 1.615-.935.283-.533.425-1.235.425-2.108 0-.93-.181-1.677-.544-2.244-.329-.544-.833-.816-1.513-.816Zm-9.881 0c-.464 0-.867.13-1.207.391-.34.25-.583.606-.731 1.071-.124.397-.187.924-.187 1.581 0 .657.063 1.19.187 1.598.136.465.374.827.714 1.088.352.25.771.374 1.258.374.454 0 .85-.125 1.19-.374.34-.26.584-.623.731-1.088.125-.43.187-.963.187-1.598 0-.635-.056-1.162-.17-1.581-.147-.465-.391-.822-.731-1.071-.34-.26-.753-.391-1.241-.391Zm-78.674 0c-.488 0-.89.125-1.207.374a1.76 1.76 0 0 0-.646.969c-.08.25-.13.567-.153.952 0 .045.022.068.068.068h3.893c.045 0 .068-.023.068-.068a4.984 4.984 0 0 0-.102-.833 1.87 1.87 0 0 0-.68-1.054c-.33-.272-.743-.408-1.241-.408Zm-16.09 0c-.488 0-.89.125-1.207.374a1.762 1.762 0 0 0-.647.969c-.079.25-.13.567-.152.952 0 .045.022.068.068.068h3.892c.046 0 .069-.023.069-.068a4.973 4.973 0 0 0-.102-.833 1.87 1.87 0 0 0-.68-1.054c-.33-.272-.743-.408-1.242-.408Zm114.189 0c-.488 0-.89.125-1.207.374a1.756 1.756 0 0 0-.646.969c-.08.25-.131.567-.153.952 0 .045.022.068.068.068h3.893c.045 0 .068-.023.068-.068a5.049 5.049 0 0 0-.102-.833 1.873 1.873 0 0 0-.68-1.054c-.329-.272-.743-.408-1.241-.408ZM4.539 42.411H1.7c-.045 0-.068.023-.068.068v3.978c0 .045.023.068.068.068h2.839c.623 0 1.122-.187 1.496-.561.385-.374.578-.867.578-1.479 0-.623-.193-1.122-.578-1.496-.374-.385-.873-.578-1.496-.578ZM144 1c3.196 0 6.1 1.249 8.25 3.285l.235.23 2.829-2.829a16.002 16.002 0 0 1 0 22.628 16 16 0 0 1-22.334.286l-.294-.286 2.829-2.829-.23-.236A11.957 11.957 0 0 1 132 13c0-6.626 5.373-12 12-12Zm8.485 3.515-16.97 16.97A11.96 11.96 0 0 0 144 25c6.628 0 12-5.373 12-12a11.96 11.96 0 0 0-3.515-8.485ZM98.602.53 101 1.5V25h-4V7.963l-11.5 11.95L74 7.963V25h-4V1.5l2.677-.681L85.5 14.144 98.602.53ZM4.939 1l7.03 8.84L19.06 1H24v.032l-9.625 11.936 9.625 12V25h-4.876l-7.156-8.872L4.876 25H0v-.032l9.594-12L0 1.032V1h4.94ZM119 1v24h-4V1h4ZM47 1c6.627 0 12 5.373 12 12s-5.373 12-12 12-12-5.373-12-12S40.373 1 47 1Zm0 4a8 8 0 1 0 0 16 8 8 0 0 0 0-16Z" fill="#FFF" fill-rule="evenodd"/></svg>