<svg width="255" height="323" viewBox="0 0 255 323" xmlns="http://www.w3.org/2000/svg"><g fill="none" fill-rule="evenodd"><path d="M15.644 173.432C1.942 195.784-6.028 219.608 5.632 244.723c43.258 92.646 169.216 109.81 220.092 14.793 12.899-24.118 16.334-51.673 1.774-75.609-14.56-23.936-39.033-46.078-61.24-62.765-22.206-16.687-47.567-24.006-74.434-15.705-32.683 10.138-58.973 39.908-76.18 67.995Z" fill="#FFC300" fill-rule="nonzero"/><path d="M143.794 83.813c.761-2.002 1.517-3.989 2.192-6.059.216-.654.48-1.296.742-1.931.881-2.142 1.734-4.217.667-6.476a2.147 2.147 0 0 0-2.91-.867c-2.559 1.584-3.022 4.913-3.43 7.843-.052.372-.103.738-.157 1.093-.105.624-.27 1.299-.441 1.998-.446 1.825-.933 3.814-.499 5.483a1.771 1.771 0 0 0 1.665 1.291 1.776 1.776 0 0 0 1.727-1.208l.444-1.167Zm-2.111 44.419-.263.047-.012.038c-2.606.321-3.334-3.039-3.762-5.018l-.059-.27c-.188-.844-.479-1.738-.776-2.653-.611-1.88-1.251-3.851-1.093-5.665a3.16 3.16 0 0 1 3.211-2.887 3.159 3.159 0 0 1 3.087 3.018c.081 1.09.3 2.18.518 3.27.162.807.324 1.614.43 2.422.474 1.967.641 3.995.493 6.013a2.376 2.376 0 0 1-.655 1.087 2.377 2.377 0 0 1-1.119.598Zm-1.257 34.713c.934-1.666.558-4.049.237-6.086a37.342 37.342 0 0 1-.197-1.346c-.133-1.039-.339-2.066-.546-3.096a82.252 82.252 0 0 1-.322-1.658c-.109-.584-.321-1.266-.518-1.9-.169-.544-.327-1.052-.4-1.431-.514-2.92-5.471-3.234-5.987-.15a5.025 5.025 0 0 0 .947 3.741 36.881 36.881 0 0 1 1.275 3.714c.346.969.747 1.942 1.151 2.922.66 1.603 1.327 3.222 1.774 4.866a1.447 1.447 0 0 0 2.011.985c.26-.12.48-.314.629-.559l-.054-.002Zm24.127-35.598c.431-1.64.079-3.417-.266-5.157-.162-.819-.323-1.63-.4-2.415a86.293 86.293 0 0 0-.568-4.32c-.039-.226-.075-.455-.111-.683v-.003h-.001v-.001c-.065-.42-.131-.841-.223-1.253-.006.018-.029-.1-.063-.277-.103-.527-.308-1.58-.457-1.167a3.236 3.236 0 1 0-6.393-.849 7.648 7.648 0 0 0 .712 3.325 38.413 38.413 0 0 1 1.225 4.806c.136.625.238 1.279.341 1.938.14.903.282 1.815.514 2.675a29.263 29.263 0 0 1 1.219 3.296c.39 2.315 3.955 2.284 4.534.104l-.063-.019Zm3.048-36.13c1.34-1.623.926-4.213.574-6.419-.091-.571-.179-1.117-.23-1.614-.055-.525-.093-1.06-.132-1.6v-.001c-.14-1.94-.284-3.947-1.191-5.807-1.544-3.227-6.639-.427-4.82 2.619.717 1.199.884 2.598 1.048 3.983.066.559.132 1.116.235 1.656.423 2.201.915 4.548 1.518 6.706a1.671 1.671 0 0 0 2.998.477Zm21.818-11.52c.834 2.302 1.67 4.61 1.943 7.04l-.015.051a2.201 2.201 0 0 1-3.974 1.404c-.834-1.127-1.299-2.564-1.75-3.958a30.818 30.818 0 0 0-.604-1.75 43.314 43.314 0 0 1-2.25-5.596 2.801 2.801 0 0 1 1.661-3.49 2.759 2.759 0 0 1 3.49 1.661c.387 1.566.943 3.1 1.499 4.637Zm30.175 28.906c-1.123-1.883-2.199-3.798-3.273-5.711v-.001c-1.354-2.41-2.705-4.815-4.146-7.149-2.586-4.188-8.586.211-5.326 3.948.37.415.702.844 1.034 1.273l.001.001c.468.604.935 1.207 1.505 1.765a32.03 32.03 0 0 1 3.09 3.563c.22.284.441.587.668.898h.001v.001c1.292 1.765 2.758 3.768 4.97 4.003a1.714 1.714 0 0 0 1.47-.823 1.717 1.717 0 0 0 .051-1.685l-.045-.083Zm-6.362 29.277c1.177 1.762 2.535 4.31 2.366 6.46a1.904 1.904 0 0 1-.758 1.241 1.893 1.893 0 0 1-1.415.34c-2.387-.606-3.621-2.697-4.87-4.814-.891-1.51-1.79-3.033-3.12-4.04-3.196-2.417.957-7.49 3.935-4.805 1.193 1.084 2.022 2.519 2.811 3.885.349.603.69 1.193 1.051 1.733Zm13.258 41.261c.363.108-.302-.683-.662-1.113a15.432 15.432 0 0 1-.165-.198c-.742-.899-1.542-1.746-2.358-2.584-.937-.962-1.78-1.994-2.622-3.024v-.001h-.001c-.708-.867-1.416-1.733-2.177-2.554-2.446-2.707-6.732 1.469-4.08 3.808.54.466 1.073.93 1.603 1.393h.001c1.871 1.63 3.712 3.235 5.721 4.813.276.21.547.439.818.668 1.227 1.036 2.463 2.08 4.183 1.402 1.226-.493.755-2.21-.272-2.572l.011-.038Zm-13.383 16.328c1.191 1.222 2.872 2.947 2.818 4.477l-.011.038c-.084 2.977-5.504-.614-6.174-1.104-.691-.508-1.501-.97-2.322-1.439-2.607-1.49-5.336-3.049-4.799-6.34.404-2.425 3.684-2.708 5.116-1.244.263.264.422.597.577.921.054.113.108.225.165.333.264.159 1.203.999 1.203.999.3.289.606.574.912.86v.001h.001c.668.624 1.337 1.248 1.954 1.916.165.177.355.372.56.582Zm-12.018-27.486a9.65 9.65 0 0 1-.221-1.767 24.756 24.756 0 0 0-1.297-4.288 34.918 34.918 0 0 0-3.241-7.288 2.652 2.652 0 0 0-4.564 2.46 40.62 40.62 0 0 0 2.288 4.071c.446.792.85 1.606 1.254 2.421v.001l.001.001c.358.723.717 1.446 1.105 2.154.119.217.242.461.371.717.76 1.511 1.738 3.452 3.571 3.098a1.109 1.109 0 0 0 .735-.624 1.107 1.107 0 0 0-.028-.963l.026.007Zm-14.876 16.463a29.511 29.511 0 0 1 4.417 3.474.974.974 0 0 1 .204.918.973.973 0 0 1-.673.658c-1.546.218-3.265-.387-4.868-.951-.522-.183-1.031-.363-1.519-.508-2.188-.596-4.44-1.349-5.106-3.761a2.65 2.65 0 0 1 3.907-2.808c.626.434 1.184.934 1.744 1.436.6.538 1.202 1.079 1.894 1.542Zm-21.161-137.79c-.631 1.236-2.171 3.573-3.843 2.453a.67.67 0 0 1-.293-.424.664.664 0 0 1 .099-.506c.548-.716.754-2.074.936-3.283.097-.637.187-1.232.317-1.67a50.782 50.782 0 0 1 3.017-8.787c1.469-3.216 6.812-.158 4.796 2.99a101.983 101.983 0 0 0-5.029 9.226Zm17.472 3.54a45.724 45.724 0 0 0 4.561-6.723 25.848 25.848 0 0 0 2.886-6.21 2.872 2.872 0 0 0-.963-2.981 2.875 2.875 0 0 0-3.114-.336c-1.928 1.027-2.44 3.086-2.939 5.091-.152.611-.302 1.217-.492 1.787-.217.655-.511 1.38-.822 2.144-.849 2.09-1.815 4.469-1.633 6.478a1.418 1.418 0 0 0 2.542.757l-.026-.008Zm27.344-13.705c-.938 2.853-1.87 5.688-3.732 8.004l.001.042a1.408 1.408 0 0 1-2.244.043 1.41 1.41 0 0 1-.298-.8c-.308-2.99.488-5.9 1.284-8.812.628-2.298 1.257-4.597 1.343-6.939.246-5.751 9.207-3.042 6.355 1.892-1.218 2.036-1.965 4.309-2.709 6.57Zm17.327 92.222a3.424 3.424 0 0 0 .438 2.524c.212.483.416.968.621 1.453.409.971.818 1.941 1.283 2.891a40.545 40.545 0 0 0 4.076 6.291c1.739 2.385 5.331-.06 4.75-2.571a4.287 4.287 0 0 0-1.754-2.473 19.082 19.082 0 0 1-2.61-3.225c-.27-.39-.542-.812-.822-1.247l-.001-.001v-.001c-1.076-1.669-2.272-3.525-3.938-4.416a1.32 1.32 0 0 0-1.225-.15c-.201.076-.381.2-.523.362a1.317 1.317 0 0 0-.295.563Zm7.219 28.883-.01-.021.031.115a1.425 1.425 0 0 1-.021-.094Zm0 0a8.611 8.611 0 0 0 3.746 3.768 32.97 32.97 0 0 0 7.489 3.612c3.745 1.364 5.674-5.118 1.767-5.935a49.172 49.172 0 0 1-7.698-2.028l-.085-.034-.189-.075c-1.334-.528-3.218-1.274-4.476-.434a1.064 1.064 0 0 0-.554 1.126Zm4.453 36.533c1.256.868 3.074.836 4.752.806.621-.011 1.222-.021 1.769.014 2.056.249 4.14.159 6.167-.267 5.209-1.369 1.466-9.249-2.501-6.472a9.285 9.285 0 0 1-4.258 1.43c-.324.051-.649.098-.974.145h-.003c-.591.086-1.184.172-1.778.28-.49.089-.956.272-1.424.454-.413.162-.827.323-1.258.422a1.773 1.773 0 0 0-1.143 2.419c.135.31.357.576.638.765l.013.004Zm-54.939 10.128a22.235 22.235 0 0 1 3.575 4.301c1.197 1.699-.568 3.816-2.334 3.844-1.477.024-2.457-.784-3.467-1.617-.435-.358-.875-.721-1.363-1.025-.732-.46-1.467-.903-2.201-1.346-1.113-.671-2.226-1.342-3.327-2.07-4.076-2.666.274-9.147 3.905-6.24.61.489 1.23.969 1.85 1.448 1.14.882 2.28 1.764 3.362 2.705Zm-24.647-19.678c-.398-.816-.795-1.631-1.31-2.396a29.978 29.978 0 0 1-3.049-4.352c-1.786-4.088-8.321-.679-6.152 3.329.543.9 1.206 1.721 1.972 2.441.396.417.754.869 1.112 1.321.404.508.808 1.017 1.265 1.476.181.182.359.364.536.545 1.407 1.442 2.711 2.778 4.896 2.912a2.122 2.122 0 0 0 1.892-3.103c-.446-.703-.804-1.439-1.162-2.173Zm29.174-62.79a22.547 22.547 0 0 1 1.49 8.288l.04-.043a2.013 2.013 0 0 1-1.291 1.794 2.02 2.02 0 0 1-2.161-.469c-1.198-1.124-1.611-2.777-2.017-4.399-.187-.75-.373-1.493-.634-2.174a68.23 68.23 0 0 0-.891-2.188 70.681 70.681 0 0 1-.891-2.189c-.067-.172-.128-.416-.193-.676-.118-.472-.25-.998-.453-1.245-2.285-2.687 1.762-6.477 4.007-3.747 1.138 1.374 1.776 3.357 2.369 5.198.207.645.409 1.272.625 1.85Zm-13.67 39.277c-.411-.451-.628-1.036-.85-1.631-.105-.282-.21-.566-.338-.839a25.332 25.332 0 0 0-1.693-2.538c-.627-.938-1.098-1.959-1.567-2.975-.454-.984-.906-1.965-1.497-2.862a2.746 2.746 0 1 0-4.832 2.615 23.932 23.932 0 0 0 4.883 6.836c.263.268.535.577.817.898 1.198 1.361 2.591 2.945 4.387 2.629a1.335 1.335 0 0 0 .911-.898 1.33 1.33 0 0 0-.272-1.25l.051.015ZM205.55 69.1a11.534 11.534 0 0 1-1.117 4.773l.019-.063c-.931 1.826-3.262.316-2.976-1.343a19.467 19.467 0 0 0-.402-4.367c-.058-.77-.012-1.548.034-2.32.04-.674.079-1.345.048-2-.176-3.359 5.616-3.157 5.221.17-.087.762-.237 1.51-.386 2.256-.192.96-.383 1.916-.441 2.894Zm-10.067-54.865c2.656.443 4.57-1.73 6.23-3.614.194-.22.384-.436.572-.643.242-.256.479-.518.718-.783.418-.462.841-.93 1.309-1.38-.082.08.391-.35.585-.547.312-.163 1.428-.871 1.547-.991a3.494 3.494 0 0 0 1.053-2.848 3.484 3.484 0 0 0-1.578-2.594l-.19-.056a3.61 3.61 0 0 0-3.646-.117 10.143 10.143 0 0 0-3.42 4.516 35.525 35.525 0 0 1-4.197 6.291 1.85 1.85 0 0 0 .301 2.32c.206.194.454.338.724.42l-.008.026Zm30.255 201.222a21.474 21.474 0 0 1-7.85-.538l-.026-.008a1.662 1.662 0 0 1-1.151-1.625 1.662 1.662 0 0 1 1.241-1.558 29.796 29.796 0 0 1 3.388-1.109l.76-.146a55.122 55.122 0 0 0 2.02-.41 11.577 11.577 0 0 0 2.298-.561c.271-.108.512-.229.743-.344.613-.307 1.153-.577 1.982-.491a2.652 2.652 0 0 1 2.575 2.69c-.279 3.03-3.291 3.945-5.98 4.1Z" fill="#FF4617"/></g></svg>