<svg width="123" height="216" fill="none" xmlns="http://www.w3.org/2000/svg"><path fill-rule="evenodd" clip-rule="evenodd" d="M11.794 83.813c.761-2.002 1.518-3.989 2.192-6.059.216-.654.48-1.296.742-1.931.88-2.142 1.734-4.217.667-6.476a2.149 2.149 0 0 0-2.91-.867c-2.559 1.584-3.022 4.912-3.43 7.843-.052.372-.103.738-.157 1.093-.105.624-.27 1.299-.441 1.998-.446 1.825-.933 3.814-.5 5.483a1.777 1.777 0 0 0 3.393.083l.444-1.167Zm-2.111 44.419-.263.047-.012.038c-2.606.321-3.334-3.039-3.762-5.018l-.06-.271c-.187-.843-.478-1.737-.775-2.652-.61-1.881-1.251-3.851-1.093-5.665a3.157 3.157 0 0 1 5.351-1.989c.574.561.912 1.319.947 2.12.081 1.09.3 2.18.518 3.27.162.807.324 1.614.43 2.422.474 1.967.64 3.995.493 6.013a2.381 2.381 0 0 1-1.774 1.685Zm-1.257 34.713c.934-1.666.558-4.049.237-6.086-.075-.472-.146-.925-.197-1.346-.133-1.04-.34-2.066-.546-3.096a82.883 82.883 0 0 1-.322-1.658c-.11-.584-.321-1.266-.518-1.9-.17-.544-.327-1.052-.4-1.431-.514-2.921-5.47-3.234-5.987-.15a5.04 5.04 0 0 0 .947 3.741c.49 1.214.916 2.454 1.275 3.714.346.969.747 1.942 1.151 2.922.66 1.603 1.327 3.222 1.774 4.866a1.443 1.443 0 0 0 1.177 1.098 1.44 1.44 0 0 0 1.463-.672l-.054-.002Zm24.127-35.598c.431-1.64.08-3.417-.266-5.157-.162-.819-.323-1.631-.4-2.415a87.238 87.238 0 0 0-.568-4.32c-.04-.226-.075-.455-.111-.684v-.003c-.066-.42-.132-.841-.224-1.253-.006.018-.029-.1-.063-.277-.103-.527-.308-1.58-.457-1.168a3.23 3.23 0 0 0-1.384-3.39 3.222 3.222 0 0 0-2.608-.424 3.227 3.227 0 0 0-2.054 1.661c-.206.406-.325.85-.347 1.305a7.65 7.65 0 0 0 .712 3.325 38.433 38.433 0 0 1 1.225 4.806c.136.625.238 1.279.34 1.938.141.902.284 1.814.515 2.675a29.324 29.324 0 0 1 1.219 3.295c.39 2.316 3.955 2.285 4.534.105l-.063-.019Zm3.048-36.13c1.34-1.623.926-4.213.574-6.419a30.643 30.643 0 0 1-.23-1.614 51.007 51.007 0 0 1-.132-1.6v-.001c-.14-1.94-.284-3.947-1.191-5.808-1.544-3.226-6.639-.426-4.82 2.62.718 1.199.884 2.598 1.048 3.983.066.559.133 1.116.234 1.656.424 2.201.916 4.547 1.519 6.705a1.672 1.672 0 0 0 2.998.478Zm21.818-11.52c.834 2.302 1.67 4.61 1.943 7.04l-.015.05a2.2 2.2 0 0 1-3.974 1.405c-.834-1.128-1.299-2.564-1.75-3.958-.194-.601-.386-1.194-.604-1.751a43.343 43.343 0 0 1-2.25-5.595 2.798 2.798 0 0 1 1.661-3.49 2.758 2.758 0 0 1 3.49 1.661c.387 1.566.943 3.1 1.5 4.637Zm30.175 28.906c-1.123-1.883-2.199-3.798-3.273-5.711v-.001c-1.354-2.41-2.705-4.816-4.146-7.15-2.587-4.187-8.586.212-5.326 3.95.37.414.702.843 1.034 1.272v.001h.001c.468.604.935 1.207 1.505 1.765a32.012 32.012 0 0 1 3.09 3.563c.22.284.441.587.668.898l.001.001c1.292 1.765 2.758 3.768 4.97 4.003a1.718 1.718 0 0 0 1.47-.824 1.708 1.708 0 0 0 .05-1.684l-.044-.083Zm-6.362 29.277c1.177 1.762 2.535 4.31 2.366 6.46a1.9 1.9 0 0 1-2.173 1.581c-2.387-.606-3.621-2.697-4.87-4.814-.891-1.51-1.79-3.033-3.12-4.04-3.196-2.418.957-7.49 3.935-4.805 1.193 1.084 2.022 2.519 2.811 3.885.35.603.69 1.193 1.05 1.733Zm13.258 41.261c.363.108-.302-.684-.662-1.113-.07-.082-.127-.152-.165-.198-.742-.899-1.542-1.746-2.358-2.584-.937-.962-1.78-1.994-2.622-3.024v-.001c-.71-.867-1.417-1.733-2.178-2.554-2.446-2.707-6.732 1.468-4.08 3.807.54.467 1.073.931 1.603 1.394h.001c1.87 1.63 3.712 3.234 5.721 4.813.276.21.547.439.818.668 1.227 1.036 2.463 2.08 4.183 1.402 1.226-.493.755-2.211-.272-2.572l.011-.038Zm-13.383 16.328c1.191 1.222 2.872 2.946 2.818 4.477l-.011.038c-.084 2.977-5.504-.614-6.174-1.104-.691-.508-1.5-.97-2.322-1.44-2.607-1.489-5.336-3.048-4.799-6.339.404-2.425 3.684-2.708 5.116-1.244.264.264.422.597.577.921.054.113.108.225.165.333.264.159 1.203.999 1.203.999.3.289.606.574.911.86h.001v.001c.669.624 1.338 1.248 1.955 1.916.165.176.355.372.56.582Zm-12.018-27.486a9.746 9.746 0 0 1-.221-1.768 24.807 24.807 0 0 0-1.297-4.287 34.911 34.911 0 0 0-3.24-7.288 2.655 2.655 0 0 0-3.276-.613 2.655 2.655 0 0 0-1.29 3.073 40.803 40.803 0 0 0 2.29 4.071c.445.792.849 1.606 1.252 2.421h.001v.002c.36.723.718 1.446 1.106 2.153.12.218.242.462.37.718.761 1.511 1.739 3.452 3.572 3.098a1.11 1.11 0 0 0 .83-1.109 1.116 1.116 0 0 0-.123-.479l.026.008Zm-14.876 16.463a29.53 29.53 0 0 1 4.417 3.474.968.968 0 0 1-.469 1.576c-1.547.217-3.265-.387-4.867-.951a32.947 32.947 0 0 0-1.52-.508c-2.188-.596-4.44-1.349-5.106-3.761a2.652 2.652 0 0 1 3.907-2.808c.626.434 1.184.934 1.744 1.436.6.538 1.202 1.079 1.894 1.542ZM33.052 46.656c-.631 1.236-2.17 3.573-3.843 2.452a.663.663 0 0 1-.194-.929c.548-.716.754-2.074.936-3.284.097-.636.187-1.231.317-1.67a50.806 50.806 0 0 1 3.017-8.786c1.469-3.216 6.813-.158 4.796 2.99a101.96 101.96 0 0 0-5.03 9.226Zm17.472 3.54a45.737 45.737 0 0 0 4.56-6.723 25.86 25.86 0 0 0 2.887-6.211 2.878 2.878 0 0 0-4.076-3.316c-1.929 1.027-2.44 3.086-2.94 5.09a24.568 24.568 0 0 1-.492 1.788c-.217.654-.511 1.38-.822 2.144-.849 2.09-1.815 4.469-1.633 6.478a1.42 1.42 0 0 0 2.541.757l-.025-.008ZM77.868 36.49c-.938 2.853-1.87 5.688-3.732 8.004l.001.042a1.405 1.405 0 0 1-2.542-.756c-.308-2.992.488-5.901 1.284-8.813.628-2.298 1.256-4.597 1.343-6.939.246-5.752 9.207-3.043 6.355 1.892-1.218 2.035-1.965 4.309-2.709 6.57Zm17.327 92.222a3.422 3.422 0 0 0 .439 2.524c.21.483.415.968.62 1.453.41.97.818 1.941 1.282 2.891a40.592 40.592 0 0 0 4.077 6.291c1.739 2.385 5.331-.06 4.75-2.571a4.287 4.287 0 0 0-1.754-2.473 19.05 19.05 0 0 1-2.61-3.226c-.27-.389-.542-.811-.822-1.246l-.001-.001v-.001c-1.076-1.669-2.272-3.525-3.938-4.416a1.332 1.332 0 0 0-1.225-.15 1.323 1.323 0 0 0-.818.925Zm7.219 28.883-.01-.021.031.115a1.425 1.425 0 0 1-.021-.094Zm0 0a8.604 8.604 0 0 0 3.746 3.767 32.973 32.973 0 0 0 7.489 3.613c3.745 1.364 5.674-5.118 1.767-5.935a49.175 49.175 0 0 1-7.698-2.029l-.085-.033-.189-.075c-1.334-.528-3.218-1.274-4.476-.434a1.064 1.064 0 0 0-.554 1.126Zm4.453 36.533c1.256.868 3.074.836 4.752.806.621-.011 1.222-.022 1.769.014 2.056.249 4.14.159 6.167-.267 5.209-1.369 1.466-9.249-2.501-6.473a9.275 9.275 0 0 1-4.258 1.431c-.324.051-.649.098-.974.145h-.003c-.591.086-1.184.171-1.778.28-.49.089-.956.272-1.424.454-.413.162-.827.323-1.258.422a1.774 1.774 0 0 0-.505 3.184l.013.004Zm-54.94 10.127a22.275 22.275 0 0 1 3.576 4.302c1.197 1.698-.568 3.816-2.334 3.844-1.477.024-2.457-.784-3.467-1.617-.435-.358-.875-.721-1.363-1.025-.732-.46-1.467-.903-2.2-1.346a92.88 92.88 0 0 1-3.328-2.07c-4.076-2.666.274-9.147 3.905-6.24.61.489 1.23.969 1.85 1.448 1.14.882 2.28 1.764 3.361 2.704Zm-24.646-19.677c-.398-.816-.795-1.631-1.31-2.396a30 30 0 0 1-3.05-4.352c-1.785-4.088-8.32-.679-6.15 3.329.542.9 1.205 1.721 1.97 2.441.397.417.755.869 1.113 1.32.404.509.808 1.018 1.265 1.477.181.182.36.364.536.545 1.407 1.442 2.71 2.778 4.896 2.912a2.123 2.123 0 0 0 1.892-3.104c-.446-.702-.804-1.438-1.162-2.172Zm29.174-62.79a22.542 22.542 0 0 1 1.49 8.288l.04-.043a2.018 2.018 0 0 1-2.442 1.882 2.015 2.015 0 0 1-1.01-.558c-1.198-1.123-1.611-2.776-2.017-4.398-.187-.75-.373-1.493-.633-2.174a70.636 70.636 0 0 0-.892-2.188c-.306-.728-.611-1.455-.891-2.189-.067-.172-.128-.416-.193-.676-.118-.472-.25-.998-.452-1.245-2.286-2.687 1.761-6.477 4.006-3.747 1.138 1.374 1.776 3.357 2.369 5.197.207.646.409 1.273.625 1.851Zm-13.67 39.277c-.41-.451-.628-1.036-.85-1.631-.105-.282-.21-.566-.338-.839a25.405 25.405 0 0 0-1.693-2.538c-.627-.939-1.098-1.959-1.567-2.975-.454-.984-.906-1.965-1.497-2.862a2.748 2.748 0 1 0-4.832 2.615 23.951 23.951 0 0 0 4.883 6.835c.263.269.535.578.817.899 1.198 1.361 2.59 2.945 4.387 2.629a1.33 1.33 0 0 0 .936-1.558 1.331 1.331 0 0 0-.297-.59l.051.015ZM73.55 69.1a11.524 11.524 0 0 1-1.117 4.773l.02-.063c-.932 1.826-3.263.315-2.977-1.343a19.49 19.49 0 0 0-.402-4.367c-.058-.77-.012-1.548.034-2.32.04-.675.08-1.345.048-2-.176-3.359 5.616-3.157 5.22.17-.086.762-.236 1.51-.385 2.256-.192.959-.383 1.915-.441 2.894ZM63.483 14.235c2.656.443 4.57-1.73 6.23-3.614.194-.22.384-.436.572-.643.242-.256.48-.518.718-.783.418-.462.841-.93 1.31-1.38-.083.08.39-.35.584-.547.312-.164 1.428-.871 1.547-.991A3.488 3.488 0 0 0 73.92.835l-.19-.057a3.606 3.606 0 0 0-3.646-.116 10.145 10.145 0 0 0-3.42 4.516 35.595 35.595 0 0 1-4.196 6.291 1.842 1.842 0 0 0 1.024 2.74l-.008.026Zm30.255 201.222c-2.627.305-5.289.123-7.85-.539l-.026-.007a1.656 1.656 0 0 1-1.151-1.625 1.659 1.659 0 0 1 1.241-1.558 29.624 29.624 0 0 1 3.388-1.109l.76-.146a55.127 55.127 0 0 0 2.02-.41 11.57 11.57 0 0 0 2.298-.561c.27-.109.512-.229.743-.344.613-.307 1.153-.577 1.982-.491a2.649 2.649 0 0 1 2.575 2.69c-.28 3.029-3.291 3.945-5.98 4.1Z" fill="#fff"/></svg>