<svg width="149" height="151" viewBox="0 0 149 151" fill="none" xmlns="http://www.w3.org/2000/svg"><path fill-rule="evenodd" clip-rule="evenodd" d="M25.266 65.66c-.362-.731-.684-1.48-.966-2.246a5.15 5.15 0 0 1 1.027-5.03 4.993 4.993 0 0 1 1.006-.88 5.18 5.18 0 0 1 6.2.409 19.74 19.74 0 0 1 3.328 4.362 20.226 20.226 0 0 1 2.51 4.46 5.494 5.494 0 0 1-.029 3.432l.052.144.107.24c.104.234.206.463.284.694.218.72.375 1.458.468 2.205a5.255 5.255 0 0 1-3.56 5.33 5.345 5.345 0 0 1-3.963-.236 5.568 5.568 0 0 1-2.11-1.84 19.876 19.876 0 0 1-1.996-3.419l-1.659-3.263a5.24 5.24 0 0 1-.872-2.578l.076-1.356.097-.429Zm-7.658 34.268c-.516-1.22-.96-2.456-1.393-3.703a5.36 5.36 0 0 1 1.105-5.278c.408-.464.886-.86 1.418-1.173a5.507 5.507 0 0 1 1.968-1.169 5.33 5.33 0 0 1 2.77-.21l1.339.436a6.477 6.477 0 0 1 2.345 2.044c.306.538.58 1.094.821 1.664.062.15.122.28.184.414.065.14.132.283.203.457.14.338.3.675.46 1.013a18.017 18.017 0 0 1 1.7 4.189c.248.942.392 1.909.43 2.883a6.104 6.104 0 0 1-2.586 5.231 5.514 5.514 0 0 1-5.59.34 8.31 8.31 0 0 1-2.84-2.633 21.785 21.785 0 0 1-2.334-4.505Zm24.772 14.449.76 1.119c.964 1.418 1.923 2.83 2.889 4.235l.09.078.09.258c.15.485.33.958.52 1.42.291.708.634 1.402.987 2.085a6.954 6.954 0 0 0 3.18 3.149c.873.406 1.84.566 2.797.463a5.572 5.572 0 0 0 6.149-5.664 5.57 5.57 0 0 0-.936-2.966c-1.538-2.393-3.153-4.737-4.766-7.077-.779-1.13-1.556-2.258-2.324-3.391a5.7 5.7 0 0 0-7.822-1.585 5.357 5.357 0 0 0-1.135.985 5.7 5.7 0 0 0-.479 6.891Zm13.806-23.852a4.36 4.36 0 0 1 .076-1.04l.023.02a4.198 4.198 0 0 1 2.798-3.21c.72-.243 1.49-.3 2.236-.163l.171.03.76-.147a5.672 5.672 0 0 1 3.312.597 7.801 7.801 0 0 1 2.803 2.562c.28.36.542.732.784 1.118.428.694.824 1.408 1.224 2.131l.13.235a5.24 5.24 0 0 1 .718 3.707 5.076 5.076 0 0 1-1.624 2.95c-.205.425-.47.82-.785 1.172l-.068.078a3.542 3.542 0 0 1-1.522 2.289 3.617 3.617 0 0 1-2.612.527 3.42 3.42 0 0 1-2.3-1.531l-.18-.336a7.679 7.679 0 0 1-2.71-3.191 297.683 297.683 0 0 1-1.533-3.135l-.118-.252c-.26-.552-.522-1.111-.752-1.672-.103-.223-.2-.464-.296-.7l-.095-.233-.221-.608a3.677 3.677 0 0 1-.22-1.198ZM82.014 61.49a5.58 5.58 0 0 1 1.147-.975 5.955 5.955 0 0 1 4.365-.975 5.658 5.658 0 0 1 3.814 2.536l.536 1.06c.56.408 1.045.91 1.432 1.485a38.598 38.598 0 0 1 2.5 4.155 66.382 66.382 0 0 1 1.717 3.196l.1.088c.528.824.833 1.77.885 2.747l-.092 1.42a5.57 5.57 0 0 1-8.323 3.746 5.761 5.761 0 0 1-4.115-2.62 44.665 44.665 0 0 1-2.38-4.544v-.002c-.73-1.427-1.46-2.853-2.134-4.21a5.836 5.836 0 0 1-.985-2.834l.097-1.516a5.957 5.957 0 0 1 1.436-2.757Zm-.515 53.08a4.84 4.84 0 0 1-.63-3.513 5.012 5.012 0 0 1 1.211-2.341 4.86 4.86 0 0 1 .996-.87 4.985 4.985 0 0 1 5.734.219 6.03 6.03 0 0 1 2.782 1.34l1.065 1.225c.485.634.903 1.316 1.248 2.036.367.55.637 1.16.798 1.802l.288.508c.363.672.683 1.346 1.005 2.042.333.788.53 1.627.582 2.482a5.806 5.806 0 0 1-10.633 3.608 62.07 62.07 0 0 1-1.433-2.593 19.87 19.87 0 0 1-.538-.923c-.147-.241-.288-.495-.43-.75a19.65 19.65 0 0 0-.48-.834 13.308 13.308 0 0 1-.49-.684 5.834 5.834 0 0 1-.927-2.448l-.148-.306ZM66.863 29.437a6.238 6.238 0 0 0-.59 3.1c.049 1.118.256 2.223.615 3.282.133.483.293.958.477 1.424.33.837.728 1.646 1.19 2.42a13.592 13.592 0 0 0 1.99 2.406 6.655 6.655 0 0 0 3.566 2.004 6.387 6.387 0 0 0 4.043.029 6.283 6.283 0 0 0 4.233-5.988 5.642 5.642 0 0 0-.052-1.843 22.053 22.053 0 0 0-.661-2.73 11.48 11.48 0 0 0-1.472-3.001 6.758 6.758 0 0 0-2.66-2.32l-.315-.136a5.954 5.954 0 0 0-2.04-1.58 42.081 42.081 0 0 0-.796-.272c-.237-.08-.478-.16-.726-.247a6.09 6.09 0 0 0-3.067.21l-.146.031a6.09 6.09 0 0 0-2.662 1.808l-.927 1.403Zm29.836 4.448a4.808 4.808 0 0 1-.022-1.898 4.838 4.838 0 0 1 1.127-2.356 5.092 5.092 0 0 1 2.182-1.416l1.239-.243a4.941 4.941 0 0 1 2.537.533l.686.302a6.175 6.175 0 0 1 3.14-.363 6.316 6.316 0 0 1 4.725 4.119c.352.985.773 1.89 1.195 2.794.267.572.533 1.143.782 1.735.196.435.367.882.513 1.336.195.581.335 1.18.418 1.787.158.642.15 1.315-.025 1.953a5.402 5.402 0 0 1-1.372 3.07c-.437.41-.894.82-1.364 1.201a5.86 5.86 0 0 1-2.824.974 6.61 6.61 0 0 1-3.51-.71 8.622 8.622 0 0 1-2.828-2.465l-.37-.48a93.085 93.085 0 0 1-2.772-3.958c-.213-.32-.431-.64-.65-.963-.725-1.067-1.46-2.15-2.052-3.21a4.807 4.807 0 0 1-.755-1.742Zm16.978 42.829a6.999 6.999 0 0 0-.283 5.264c.301.912.69 1.794 1.161 2.632.158.354.358.688.596.993.471.57.965 1.158 1.455 1.684a5.704 5.704 0 0 0 3.498 1.765 5.953 5.953 0 0 0 6.669-3.07 5.96 5.96 0 0 0-1.379-7.21h-.001a37.573 37.573 0 0 0-.746-1.047 22.9 22.9 0 0 1-.631-.885l-.314-.432a6.695 6.695 0 0 0-1.176-1.302 5.232 5.232 0 0 0-1.429-.99 5.522 5.522 0 0 0-4.175-.262 5.26 5.26 0 0 0-2.351 1.585 8.073 8.073 0 0 0-.894 1.275Zm-70.741-33.02L43.03 42a6.566 6.566 0 0 1 1.504-3.153 6.67 6.67 0 0 1 7.907-1.638 7.28 7.28 0 0 1 3.105 2.805c.157.295.314.59.482.874l.264.468c.235.175.456.368.662.577.464.424.876.902 1.226 1.425.283.47.528.961.734 1.47.32.832.682 1.641 1.055 2.46.516.756 1.034 1.51 1.553 2.263.518.753 1.037 1.506 1.552 2.262a6.624 6.624 0 1 1-11.043 7.319l-1.18-1.681a6.893 6.893 0 0 1-1.814-1.839 24.158 24.158 0 0 1-2.388-4.057l-.935-1.783a33.176 33.176 0 0 1-1.66-2.83 6.595 6.595 0 0 1-1.12-3.248Z" fill="#F68A22"/></svg>