<svg width="239" height="609" xmlns="http://www.w3.org/2000/svg"><path d="M79.709 478.687c-.059-3.675 2.014-7.256 6.386-7.521.062-.011.125-.02.187-.029l.415-.163a6.674 6.674 0 0 1 6.554 2.466l.343.527.02.031.02.032c3.069 3.056 2.263 7.127-.205 9.859-1.579 2.268-4.252 3.632-7.548 2.875a6.987 6.987 0 0 1-1.216-.334c-3.896-1.464-5.334-4.638-4.956-7.743Zm91.898 107.23a30.956 30.956 0 0 1 1.309 10.381c-.066 3.994-.783 7.824-4.126 10.45a7.275 7.275 0 0 1-9.987-1.024c-2.706-2.781-2.833-6.729-2.395-10.389a29.677 29.677 0 0 1 2.168-9.001 7.255 7.255 0 0 1 6.366-4.539c2.625-.058 5.806 1.409 6.73 4.096l-.065.026Zm-34.382-102.335c1.759-4.24.467-8.09-1.787-11.861l.018.008a6.731 6.731 0 0 0-6.883-3.645 6.471 6.471 0 0 0-5.27 5.715 20.618 20.618 0 0 0 .059 5.989 11.528 11.528 0 0 0 4.148 6.707c3.2 2.887 8.306.574 9.715-2.913Zm-20.042-94.234a66.687 66.687 0 0 0 2.438-5.951l.015.039c2.606-7.13-6.732-11.506-11.259-6.083-.375.451-.767.914-1.168 1.387l-.005.006h-.001v.001c-2.602 3.073-5.588 6.599-6.768 10.214a7.578 7.578 0 0 0 3.532 9.264c3.514 1.892 7.169.706 9.679-2.162 1.254-1.41 2.045-3.265 2.811-5.061.24-.562.477-1.119.726-1.654Zm42.688-7.659c.89 3.849.705 7.868-.535 11.62a8.044 8.044 0 0 1-9.269 4.9 8.022 8.022 0 0 1-6.219-8.43 21.572 21.572 0 0 1 4.013-10.886 6.733 6.733 0 0 1 6.89-2.521 6.856 6.856 0 0 1 5.107 5.322l.013-.005Zm-11.889-72.752a61.96 61.96 0 0 1-3.036 8.021c-.284.656-.56 1.315-.827 1.978v.002c-.942 2.311-1.91 4.684-3.491 6.531-6.007 7.012-16.304 1.272-13.973-7.509.599-2.201 1.939-4.251 3.246-6.251l.001-.001v-.002h.001a64.92 64.92 0 0 0 1.339-2.107 63.818 63.818 0 0 1 4.885-7.036 6.833 6.833 0 0 1 8.624-1.817 6.813 6.813 0 0 1 3.231 8.191Zm-62.069-28.261c.285 2.779.305 5.579.062 8.363-.259 5.107-5.931 8.35-10.527 6.615-4.596-1.736-6.728-7.87-3.57-11.88a43.59 43.59 0 0 1 5.598-6.22 5.29 5.29 0 0 1 8.471 3.169l-.034-.047Zm54.945-73.765c-.39-.261-.741-.497-1.048-.765l.046.042c-1.855-1.614-5.652-.598-6.255 1.879-.16.665-.127.734-.065.656-.07.152-.137.304-.203.457a14.974 14.974 0 0 0-.79 1.815 13.36 13.36 0 0 0-.257 4.956 15.75 15.75 0 0 0 2.775 8.796c3.734 5.007 12.906 2.398 13.065-3.993a15.717 15.717 0 0 0-2.754-8.819 13.513 13.513 0 0 0-3.225-4.095c-.465-.375-.897-.665-1.289-.929Zm90.318 35.411c.53.6 1.066 1.195 1.609 1.783 2.611 2.848 5.303 5.785 6.106 9.621 1.381 6.67-6.915 11.579-12.255 7.611-3.051-2.264-4.583-5.976-6.039-9.5v-.002c-.33-.799-.656-1.589-.995-2.35a6.863 6.863 0 0 1 2.673-8.609 6.87 6.87 0 0 1 8.901 1.446Zm-31.616 58.754a8.149 8.149 0 0 1-.699 12.582 8.165 8.165 0 0 1-5.481 1.553c-9.054-.64-13.218-13.188-5.747-18.778a7.52 7.52 0 0 1 8.936-.231c1.427 1.138 2.612 2.959 2.991 4.874Zm-1.143-.876c.159-.027-.056-.245-1.429-.721.502.194.98.436 1.429.721Zm17.394-116.589c-.34 3.01-.99 5.976-1.942 8.852a7.561 7.561 0 0 1-3.901 4.591 7.57 7.57 0 0 1-10.342-3.896 7.555 7.555 0 0 1 .108-6.02 44.474 44.474 0 0 1 4.388-7.952c3.373-5.373 12.796-1.888 11.749 4.387l-.06.038Zm-77.968-42.255c-3.69 9.722-18.769 4.062-15.11-5.662 3.659-9.725 18.764-4.075 15.11 5.662Zm-62.375 68.088c-4.3 11.42-22.069 4.777-17.761-6.661 4.307-11.438 22.051-4.784 17.761 6.661ZM204.755 456.12l-.115 1.008a4.17 4.17 0 0 1-.224 1.11l-.023.097.009.021.008.02c.282.545.525 1.109.729 1.687.029.055.068.131.118.233.496 1.308.718 2.704.654 4.101a6.758 6.758 0 0 1-3.41 5.433 7.59 7.59 0 0 1-3.083 1.024 7.587 7.587 0 0 1-3.228-.355c-4.763-1.128-6.827-6.898-6.377-11.254.421-3.894 2.402-7.876 6.251-9.333 3.848-1.457 9.546 1.317 8.771 6.222l-.08-.014Zm16.18-97.646a9.082 9.082 0 0 0 4.094-3.583 7.716 7.716 0 0 0-7.014-12.234 7.731 7.731 0 0 0-6.916 7.009 8.932 8.932 0 0 0 .745 5.402 7.097 7.097 0 0 0 9.091 3.406ZM171.186 20.983c-2.333-5.348-3.572-12.42-.106-17.56a7.982 7.982 0 0 1 12.547-.346c3.656 4.962 2.867 12.007.756 17.453-2.111 5.447-10.691 6.199-13.197.453Zm28.786 88.181-.001.003c-.025.483-.051.961-.079 1.431a4.631 4.631 0 0 0 8.3 3.117c.281-.362.567-.729.856-1.098 2.631-3.364 5.514-7.049 6.603-11.162.979-3.738-.317-7.676-4.159-9.138-3.841-1.461-7.415.729-9.146 4.162-1.896 3.757-2.147 8.429-2.374 12.685ZM93.969 75.126a24.362 24.362 0 0 1-9.718-5.188c-2.981-2.372-4.194-7.05-1.617-10.245a7.691 7.691 0 0 1 2.9-2.376 7.479 7.479 0 0 1 5.617-.136 7.461 7.461 0 0 1 4.122 3.813c1.498 3.302 2.965 7.023 2.82 10.702a3.805 3.805 0 0 1-4.124 3.43Zm-47.053 73.455a38.436 38.436 0 0 1 3.369 2.174l.034.047c2.251 1.894 6.387.098 6.377-2.905a36.28 36.28 0 0 1 .466-3.971 27.353 27.353 0 0 0-.189-5.442c-.622-5.165-6.759-7.947-11.198-5.927-4.44 2.021-6.468 8.517-2.891 12.323a26.59 26.59 0 0 0 4.032 3.701ZM20.682 271.219a51.76 51.76 0 0 0-5.376-6.689 10.47 10.47 0 0 1-.918-13.437c1.53-2.226 5.256-3.575 7.799-2.352 2.303.89 4.23 2.545 5.458 4.687a11.317 11.317 0 0 1 .773 7.647 52.894 52.894 0 0 0-1.291 8.174c-.146 3.064-4.732 4.751-6.511 1.995l.066-.025ZM.929 200.424a16.662 16.662 0 0 0 3.685 4.77l-.02-.052c3.008 2.783 8.211 1.633 10.749-1.051a8.278 8.278 0 0 0 .486-10.713 11.174 11.174 0 0 0-3.008-2.632 8.293 8.293 0 0 0-9.602.223 8.011 8.011 0 0 0-2.29 9.455ZM164.037 515.61l-.818.864c-4.649 4.959-11.725 2.277-12.021-4.505l-.038-1.203c-.428-12.307 21.349-4.237 12.872 4.831l.005.013Zm59.359-105.453a87.988 87.988 0 0 1-1.43-.638l.015.039a5.956 5.956 0 0 0-7.375 2.817 6.093 6.093 0 0 0 1.719 7.68c.512.434.997.895 1.484 1.357.673.64 1.349 1.282 2.101 1.859a10.537 10.537 0 0 0 7.252 2.101 5.744 5.744 0 0 0 2.54-1.069 5.745 5.745 0 0 0 1.752-2.126 6.265 6.265 0 0 0 .234-5.398c-1.213-3.509-5.012-5.179-8.292-6.622Z" fill="#00A5CE" fill-rule="evenodd"/></svg>