<svg width="170" height="556" fill="none" xmlns="http://www.w3.org/2000/svg"><path fill-rule="evenodd" clip-rule="evenodd" d="M25.623 534.934a30.916 30.916 0 0 1-1.091 10.401c-.973 3.861-2.542 7.401-6.388 9.125a7.234 7.234 0 0 1-5.391.158 7.465 7.465 0 0 1-4.081-3.617c-1.997-3.368-1.222-7.232.037-10.677a29.096 29.096 0 0 1 4.157-8.202 7.055 7.055 0 0 1 3.175-2.485 7.191 7.191 0 0 1 4.043-.35c2.564.592 5.322 2.801 5.608 5.638l-.07.009ZM16.445 427.36c2.673-3.681 2.294-7.736.963-11.952l.015.012a6.902 6.902 0 0 0-2.113-3.539 6.845 6.845 0 0 0-3.744-1.697 6.354 6.354 0 0 0-3.937 1.033 6.3 6.3 0 0 0-2.482 3.212 20.48 20.48 0 0 0-1.305 5.827 11.757 11.757 0 0 0 2.503 7.532c2.451 3.592 7.938 2.607 10.1-.428Zm6.448-101.476a64.727 64.727 0 0 1-3.73 5.188c-.365.459-.723.942-1.085 1.43-1.154 1.558-2.348 3.167-3.89 4.229-3.098 2.17-6.927 2.419-9.916-.291a7.788 7.788 0 0 1-2.494-4.732 7.54 7.54 0 0 1 1.168-5.158c1.974-3.225 5.686-5.918 8.92-8.264l.001-.002c.5-.363.99-.717 1.458-1.064 5.645-4.156 13.737 2.412 9.574 8.705l-.006-.041Zm36.323 18.966a21.343 21.343 0 0 0 3.167-11.156l-.014.002a6.972 6.972 0 0 0-.95-3.748 7.044 7.044 0 0 0-2.804-2.684 6.775 6.775 0 0 0-3.767-.709 6.58 6.58 0 0 0-3.507 1.456 21.076 21.076 0 0 0-6.383 9.584 8.083 8.083 0 0 0 .277 5.597 8.251 8.251 0 0 0 3.85 4.128 8.046 8.046 0 0 0 5.558.659 7.826 7.826 0 0 0 4.573-3.129Zm3.988-77.582a60.57 60.57 0 0 0 4.785-7.052 6.79 6.79 0 0 0 .956-4.588 7.009 7.009 0 0 0-2.233-4.179 6.946 6.946 0 0 0-4.368-1.798 6.705 6.705 0 0 0-4.441 1.432 62.018 62.018 0 0 0-6.36 5.636c-.568.577-1.174 1.146-1.786 1.721-1.728 1.622-3.5 3.285-4.585 5.278-4.271 7.965 4.442 16.096 11.888 10.761 1.961-1.406 3.444-3.475 4.888-5.49.418-.584.834-1.164 1.256-1.721Zm-47.106-19.304a44.022 44.022 0 0 0 1.846-8.145l.022.054a5.37 5.37 0 0 0-.567-2.639 5.445 5.445 0 0 0-1.78-2.045 5.37 5.37 0 0 0-2.534-.924 5.229 5.229 0 0 0-2.639.433 42.456 42.456 0 0 0-6.864 4.663c-3.987 3.118-3.31 9.608.766 12.431 4.076 2.824 10.334 1.073 11.75-3.828Zm68.114-89.663c.238.336.525.651.843 1.001.322.353.675.74 1.041 1.219a13.826 13.826 0 0 1 2.199 4.768 15.846 15.846 0 0 1 .668 9.234c-1.607 6.16-11.103 6.427-13.589.649a15.892 15.892 0 0 1-.694-9.217 13.209 13.209 0 0 1 1.377-4.744 14.49 14.49 0 0 1 1.178-1.565c.131-.174.23-.302.302-.394-.079.061-.094-.014.212-.619 1.149-2.254 5.065-2.303 6.499-.28l-.036-.052Zm81.435 58.832c-.394-.713-.786-1.42-1.156-2.126a7.05 7.05 0 0 0-3.515-3.347 6.854 6.854 0 0 0-4.798-.253 6.678 6.678 0 0 0-3.727 2.965 6.828 6.828 0 0 0-.826 4.727c.156.822.293 1.668.432 2.525v.002c.612 3.778 1.255 7.757 3.702 10.706 4.283 5.166 13.452 2.452 13.628-4.36.093-3.919-1.853-7.432-3.74-10.839Zm-44.542 50.098a8.334 8.334 0 0 0-1.143-2.535c.068-1.953-.67-4.015-1.798-5.472a7.686 7.686 0 0 0-4.071-2.43 7.448 7.448 0 0 0-4.669.447c-8.536 3.585-7.345 16.799 1.311 19.656a8.111 8.111 0 0 0 5.682-.155 7.94 7.94 0 0 0 4.128-3.847 8.137 8.137 0 0 0 .56-5.664Zm-2.055-3.668c.161.013.001-.252-1.225-1.053.444.313.854.666 1.225 1.053Zm40.493-101.056a43.21 43.21 0 0 0 3.907-8.125l.067-.023c2.449-5.841-5.925-11.559-10.432-7.169a43.315 43.315 0 0 0-6.082 6.646 7.438 7.438 0 0 0-1.344 2.748 7.598 7.598 0 0 0-.133 3.078 7.78 7.78 0 0 0 3.252 5.141 7.71 7.71 0 0 0 2.848 1.216 7.565 7.565 0 0 0 3.075-.013 7.388 7.388 0 0 0 4.842-3.499ZM41.59 122.796a25.35 25.35 0 0 1-7.57 12.835c-3.51 3.282-9.589-.061-9.229-4.752a25.719 25.719 0 0 1 5.403-13.889 6.273 6.273 0 0 1 3.657-2.444 6.455 6.455 0 0 1 4.41.541 6.611 6.611 0 0 1 3.065 3.268 6.48 6.48 0 0 1 .264 4.441Zm46.878 293.8-.34.95c-.11.361-.269.705-.472 1.023l-.044.088.007.044c.15.599.258 1.207.324 1.819.016.059.037.143.063.255a10.267 10.267 0 0 1-.299 4.144 6.582 6.582 0 0 1-4.552 4.433 7.527 7.527 0 0 1-3.23.233 7.693 7.693 0 0 1-3.056-1.142c-4.373-2.272-5.065-8.384-3.637-12.503 1.296-3.676 4.128-7.054 8.201-7.519 4.073-.464 8.98 3.637 7.11 8.208l-.075-.033Zm-.877 1.91-.007.031-.008-.027-.008-.028-.008-.024-.007-.022.038.07Zm39.711-93.042a8.874 8.874 0 0 0 4.801-2.471 7.557 7.557 0 0 0 2.08-2.815c.465-1.091.67-2.28.598-3.473a7.871 7.871 0 0 0-1.008-3.406 7.945 7.945 0 0 0-2.406-2.63 7.85 7.85 0 0 0-3.301-1.305 7.668 7.668 0 0 0-3.507.293 7.525 7.525 0 0 0-4.82 4.811 8.934 8.934 0 0 0-.506 5.437 7.29 7.29 0 0 0 2.967 4.361 7.16 7.16 0 0 0 5.102 1.198Zm3.405-221.69c-.135.464-.269.923-.404 1.375a4.663 4.663 0 0 0 .067 2.914 4.77 4.77 0 0 0 1.786 2.332c.825.57 1.807.861 2.8.831a4.536 4.536 0 0 0 2.711-.997c.356-.283.717-.567 1.083-.855l.001-.001c3.326-2.619 6.97-5.488 8.967-9.216 1.805-3.391 1.441-7.54-1.963-9.91s-7.381-1.124-9.847 1.785c-2.701 3.183-4.009 7.661-5.201 11.742ZM70.694 20.181a25.022 25.022 0 0 1-8.259-7.433c-2.355-3.038-2.468-7.876.761-10.34a7.494 7.494 0 0 1 3.358-1.59 7.524 7.524 0 0 1 5.486 1.254 7.664 7.664 0 0 1 3.136 4.717c.704 3.574 1.282 7.547.304 11.082a3.705 3.705 0 0 1-1.9 2.153 3.776 3.776 0 0 1-2.886.157ZM24.278 29.34a52.975 52.975 0 0 1 3.696 7.814l-.069.009c1.1 3.112 5.934 2.607 6.773-.329a51.961 51.961 0 0 1 3.111-7.61 11.284 11.284 0 0 0 .988-7.608 11.055 11.055 0 0 0-4.232-5.893c-2.19-1.813-6.114-1.424-8.105.358a10.248 10.248 0 0 0-3.495 6.189 10.611 10.611 0 0 0 1.333 7.07ZM34.95 464.803l-.993.637c-5.655 3.672-11.929-.685-10.67-7.352l.236-1.179c2.39-12.072 21.74 1.159 11.425 7.88l.002.014Zm82.443-88.555c-.429-.332-.848-.655-1.245-.974l.006.042a6.002 6.002 0 0 0-4.108-1.033 5.803 5.803 0 0 0-3.707 1.948 6.011 6.011 0 0 0-1.478 3.901 6.227 6.227 0 0 0 1.4 3.984c.399.549.766 1.117 1.134 1.686.509.788 1.02 1.579 1.62 2.325a10.765 10.765 0 0 0 6.574 3.833 5.687 5.687 0 0 0 2.714-.411 5.589 5.589 0 0 0 2.188-1.633 6.144 6.144 0 0 0 1.319-2.416 6.288 6.288 0 0 0 .139-2.77c-.38-3.709-3.695-6.27-6.556-8.482Z" fill="#00A5CE"/></svg>