<svg width="102" height="89" viewBox="0 0 102 89" fill="none" xmlns="http://www.w3.org/2000/svg"><path fill-rule="evenodd" clip-rule="evenodd" d="M41.342 4.636a13.423 13.423 0 0 1 1.65-1.72 11.893 11.893 0 0 1 1.84-1.42l.29-.17a9.61 9.61 0 0 1 2.76-1.08 16.42 16.42 0 0 1 1.85-.24 10.54 10.54 0 0 1 3.39.44 11.19 11.19 0 0 1 3 1.31 28.224 28.224 0 0 1 2.87 2 3.52 3.52 0 0 1-2.44 6.1 3.61 3.61 0 0 1-1.73-.43c-.79-.378-1.53-.855-2.2-1.42a12.06 12.06 0 0 0-1.56-.91c-.26-.08-.52-.15-.78-.21h-.86l-.6.17a9.481 9.481 0 0 0-.83.48c-.49.437-.947.908-1.37 1.41-.15.25-.29.5-.42.76-.088.3-.162.603-.22.91a24.825 24.825 0 0 0 0 3.11c.04.705.085 1.41.13 2.115.045.705.09 1.41.13 2.115a3.43 3.43 0 0 1-5.8 2.51 3.55 3.55 0 0 1-1.06-2.44c-.07-1.24-.15-2.479-.23-3.719v-.001c-.09-.91-.09-1.83-.09-2.74-.018-.984.076-1.967.28-2.93a10.68 10.68 0 0 1 2-4Zm37.93 1.08a14.469 14.469 0 0 0-2.76 4.68 24.626 24.626 0 0 0-1 3.78 4.1 4.1 0 0 0 .44 3 3.92 3.92 0 0 0 2.47 1.83 4 4 0 0 0 4.79-2.86c.194-1.125.454-2.237.78-3.33.212-.457.456-.898.73-1.32.358-.443.746-.86 1.16-1.25.247-.178.504-.342.77-.49l.86-.22a9.45 9.45 0 0 1 1.19 0c.732.127 1.453.304 2.16.53.35.16.7.32 1 .51.416.232.816.489 1.2.77.63.49 1.23 1 1.82 1.54a4 4 0 1 0 5.5-5.75 25.486 25.486 0 0 0-4.75-3.63 20.002 20.002 0 0 0-3-1.22 12.669 12.669 0 0 0-2.59-.53 13.87 13.87 0 0 0-2.73-.11 12.09 12.09 0 0 0-3.09.61c-.694.246-1.364.557-2 .93a13.381 13.381 0 0 0-2.95 2.53Zm-37.91 26.64c.582-.507 1.19-.984 1.82-1.43.26-.19.53-.37.81-.53a10.29 10.29 0 0 1 6.36-1.39c1.288.152 2.558.434 3.79.84 1.169.383 2.292.892 3.35 1.52a11.481 11.481 0 0 1 2.91 2.27 3.78 3.78 0 0 1 1.11 2.56 3.59 3.59 0 0 1-1 2.52 3.63 3.63 0 0 1-4.33.67c-.356-.21-.712-.436-1.072-.663a52.06 52.06 0 0 0-.928-.577c-.447-.257-.908-.49-1.38-.7a18.01 18.01 0 0 0-2.39-.57 8.688 8.688 0 0 0-1 0l-.22.06c-.3.16-.59.34-.88.53-.47.408-.918.842-1.34 1.3l-.1.19-.1.39v.48c.184.8.425 1.585.72 2.35.38.78.77 1.55 1.17 2.32a4.45 4.45 0 0 1 .47 3.23 4.26 4.26 0 0 1-7.79 1.15 26 26 0 0 1-2.88-7.24 10.07 10.07 0 0 1-.06-4.09c.08-.35.16-.68.27-1 .197-.678.476-1.33.83-1.94.525-.824 1.15-1.58 1.86-2.25Zm37.72 7.84.31-.19a13.593 13.593 0 0 1 3.09-1.24 8 8 0 0 1 3.86.08 8.79 8.79 0 0 1 4.36 3.16c.821.905 1.52 1.913 2.08 3a3.93 3.93 0 0 1 .55 2l-.12 1a3.87 3.87 0 0 1-1 1.76 4 4 0 0 1-2.76 1.24 3.93 3.93 0 0 1-1.93-.49 7.72 7.72 0 0 1-1.79-1.47l-.66-.82a32.95 32.95 0 0 1-.105-.13l-.097-.12c-.33-.41-.66-.818-1.018-1.15l-.21.06c-.344.181-.678.381-1 .6-.528.468-1.02.976-1.47 1.52l-.26.45v.89a55.868 55.868 0 0 0 2 6.92 4 4 0 0 1-7.67 2.12 54.013 54.013 0 0 1-1.8-6 13.18 13.18 0 0 1-.3-5.55 11.56 11.56 0 0 1 2.88-5.09c.315-.352.649-.685 1-1a15.337 15.337 0 0 1 2.06-1.55Zm-44.09 22.43c.323-.199.657-.38 1-.54a8.757 8.757 0 0 1 2-.81c.53-.11 1-.19 1.59-.25a8.32 8.32 0 0 1 2.63.14c1.107.241 2.179.62 3.19 1.13a24.925 24.925 0 0 1 3.12 1.93 23.997 23.997 0 0 1 3.61 3 4.57 4.57 0 0 1 1.36 3.14 4.4 4.4 0 0 1-7.45 3.22c-.232-.213-.464-.43-.697-.65-.774-.724-1.565-1.464-2.433-2.14a17.353 17.353 0 0 0-2.16-1.29l-.48-.12-.22.06a8.05 8.05 0 0 0-1.2.71l-.32.24a9.176 9.176 0 0 0-1 1 9.608 9.608 0 0 0-.7 1.2 13.664 13.664 0 0 0-.4 1.65c-.028.734-.011 1.468.05 2.2a51.387 51.387 0 0 0 1.84 6.44 4.12 4.12 0 0 1-6 4.71 4.25 4.25 0 0 1-2-2.52c-.077-.235-.155-.47-.234-.704-.365-1.096-.73-2.192-1.036-3.296a31.675 31.675 0 0 1-.87-4.42 14.51 14.51 0 0 1 2.35-9.82 14.25 14.25 0 0 1 4.46-4.21Zm-32.97-7c.456-.717.982-1.387 1.57-2a11.998 11.998 0 0 1 2.27-1.79l.51-.28a8.465 8.465 0 0 1 2.33-.85 16.516 16.516 0 0 1 4.38-.24c1.74.16 3.45.38 5.16.68a3.53 3.53 0 0 1 2.24 1.66 3.64 3.64 0 0 1-1.26 5 3.77 3.77 0 0 1-2.75.41l-2.24-.36a21.546 21.546 0 0 0-3.5-.09l-.73.2-.52.31a9.568 9.568 0 0 0-.69.73 7.892 7.892 0 0 0-.46.77 35.817 35.817 0 0 0-1.11 5.47 3.51 3.51 0 0 1-1.66 2.23 3.64 3.64 0 0 1-5.5-3.09 13.07 13.07 0 0 1 .48-5c.249-.866.546-1.717.89-2.55.163-.42.36-.824.59-1.21Zm9.04-32.47a10.51 10.51 0 0 1 6.32-1.56c.88.058 1.754.196 2.61.41.87.243 1.722.547 2.55.91a3.299 3.299 0 0 1 1.67 2.09 3.36 3.36 0 0 1-.3 2.54 3.4 3.4 0 0 1-3.8 1.65c-.227-.059-.453-.12-.68-.18-.66-.177-1.32-.353-1.99-.48h-1.09l-.52.15c-.31.168-.61.351-.9.55-.443.398-.854.829-1.23 1.29l-.19.3c.446.9.94 1.774 1.48 2.62a3.893 3.893 0 1 1-6.68 4l-.219-.356c-.309-.502-.62-1.006-.91-1.524a12.32 12.32 0 0 1-1.39-3.39 7.25 7.25 0 0 1 0-3c.136-.376.287-.745.44-1.118l.08-.192c.14-.277.312-.539.51-.78a14.12 14.12 0 0 1 3.39-3.42l.85-.51Z" fill="#E05794"/></svg>