<svg width="267" height="254" viewBox="0 0 267 254" fill="none" xmlns="http://www.w3.org/2000/svg"><path fill-rule="evenodd" clip-rule="evenodd" d="M139.928 22.723c.03.042.064.082.1.12v-.01a3.14 3.14 0 0 0 4.75-4.11l-14.49-17.58a3.145 3.145 0 0 0-4.425-.425 3.14 3.14 0 0 0-.425 4.425l14.49 17.58Zm9.828-16.754c.143.387.361.741.641 1.044l.04.09 17.28 18.23a3.142 3.142 0 0 0 5.42-2.075 3.143 3.143 0 0 0-.86-2.245l-17.27-18.27a3.134 3.134 0 0 0-2.184-1.004 3.142 3.142 0 0 0-3.067 4.23Zm-28.359 29.444a3.14 3.14 0 0 1 4.46-4.4l17.88 16.68a3.133 3.133 0 0 1 1.079 2.206 3.131 3.131 0 0 1-.839 2.308 3.147 3.147 0 0 1-2.244.998 3.14 3.14 0 0 1-2.276-.922l-17.87-16.68c-.047-.04-.089-.085-.13-.128a2.704 2.704 0 0 0-.06-.062Zm-28.84 8.5a3.19 3.19 0 0 0 .82 2.26l.02.02 12.74 13.82a3.154 3.154 0 0 0 5.456-2.04 3.15 3.15 0 0 0-.846-2.26l-12.73-13.78-.06-.06a3.12 3.12 0 0 0-4.41-.15 3.19 3.19 0 0 0-.99 2.19Zm-21.93 13.25a3.15 3.15 0 0 1 4.63-4.26l7.49 8a3.14 3.14 0 0 1-4.62 4.25l-7.5-8v.01Zm-38.76 1.722c.146.385.367.738.65 1.038l.1.09 26 26.29a3.143 3.143 0 1 0 4.47-4.42l-26-26.27a3.141 3.141 0 0 0-5.22 3.272Zm.69 38.128a3.14 3.14 0 1 1 4.52-4.36l17.47 17a3.201 3.201 0 0 1 .06 4.44 3.138 3.138 0 0 1-4.44.06l-17.48-17-.13-.14ZM.01 95.132a3.14 3.14 0 0 0 .658 2.171l.11.12 22.78 22.83a3.16 3.16 0 0 0 2.221.924 3.146 3.146 0 0 0 2.229-5.364l-22.79-22.8A3.14 3.14 0 0 0 .01 95.132Zm172.188-32.619a3.273 3.273 0 0 1-.23-.29l-11.93-16.73a3.14 3.14 0 0 1 5.11-3.65l11.93 16.73a3.141 3.141 0 0 1-4.88 3.94Zm14.251-8.51a3.138 3.138 0 0 0 .87 2.24l.12.13 9.5 9.4a3.135 3.135 0 0 0 3.449.707 3.133 3.133 0 0 0 1.708-1.724 3.148 3.148 0 0 0-.031-2.426 3.135 3.135 0 0 0-.706-1.017l-9.5-9.41a3.142 3.142 0 0 0-5.41 2.1Zm-6.591 40.89-.22-.27-17.1-23.7a3.155 3.155 0 0 1-.554-2.341 3.145 3.145 0 0 1 5.654-1.338l17.09 23.7a3.14 3.14 0 0 1-4.87 3.95Zm-25.21.37.09.11a3.142 3.142 0 0 0 5.503-1.84 3.138 3.138 0 0 0-.763-2.28l-13.06-15.72a3.239 3.239 0 0 0-4.42-.41 3.153 3.153 0 0 0-.41 4.43l13.06 15.71Zm-35.67-5.64a3.14 3.14 0 0 1 2.353-5.304 3.14 3.14 0 0 1 2.197.974l11.11 11.14a3.093 3.093 0 0 1 .937 2.22 3.097 3.097 0 0 1-.937 2.22 3.132 3.132 0 0 1-2.22.924 3.14 3.14 0 0 1-2.22-.924l-11.1-11.13-.12-.12Zm-14.189 14.76.13.15a3.14 3.14 0 0 0 4.77-4.08l-7.88-9.82a3.152 3.152 0 0 0-2.11-1.155 3.145 3.145 0 0 0-2.79 5.095l7.88 9.81Zm-23.16 8.53a3.14 3.14 0 0 1 4.49-4.39l17.739 16.82a3.14 3.14 0 0 1-4.32 4.56l-17.74-16.82a.365.365 0 0 0-.069-.061c-.033-.025-.065-.049-.1-.109Zm-15.68 13.17 8.44 9.31a3.143 3.143 0 1 0 4.66-4.22l-8.45-9.31a3.14 3.14 0 0 0-4.65 4.22Zm-5.49 30.42c0-.04-.041-.076-.08-.11-.019-.017-.038-.033-.05-.05l-18.11-22.77a3.138 3.138 0 0 1 .5-4.41 3.23 3.23 0 0 1 4.42.5l18.11 22.77a3.143 3.143 0 0 1-4.79 4.07Zm60.262-32.152a3.138 3.138 0 0 0 .817 2.182l.24.23 18.24 16.29c.308.275.667.486 1.057.621a3.13 3.13 0 0 0 2.4-.138 3.13 3.13 0 0 0 1.6-1.794 3.15 3.15 0 0 0-.877-3.379l-18.24-16.28a3.139 3.139 0 0 0-5.237 2.268Zm22.357-5.707a3.137 3.137 0 0 1 2.225-5.216 3.135 3.135 0 0 1 2.175.756l16 14.11a3.138 3.138 0 0 1-1.899 5.426 3.145 3.145 0 0 1-2.251-.716l-16-14.11a1.516 1.516 0 0 1-.25-.25Zm74.631-1.2c.045.064.095.124.15.18v-.04a3.143 3.143 0 0 0 4.208.169 3.14 3.14 0 0 0 .592-4.169l-21.8-27.91a3.106 3.106 0 0 0-2.091-1.201 3.102 3.102 0 0 0-2.319.66 3.13 3.13 0 0 0-1.184 2.094 3.12 3.12 0 0 0 .644 2.317l21.8 27.9Zm-29.85-6.591a3.138 3.138 0 0 1 2.371-5.204 3.149 3.149 0 0 1 2.169.874l10.64 10.49a3.147 3.147 0 0 1 .015 4.445 3.144 3.144 0 0 1-4.445.015l-10.6-10.46-.15-.16Zm-5.005 21.85c-.05.802.21 1.593.725 2.211l.08.1 13.12 13.52a3.131 3.131 0 0 0 2.209.967 3.13 3.13 0 0 0 2.244-.884 3.146 3.146 0 0 0 .729-3.424 3.144 3.144 0 0 0-.672-1.029l-13.12-13.55a3.147 3.147 0 0 0-4.325-.017 3.148 3.148 0 0 0-.99 2.106Zm-3.216 49.311-19.449-21.58a3.14 3.14 0 1 1 4.66-4.21l19.45 21.59a3.14 3.14 0 1 1-4.661 4.21v-.01Zm-71.694-33.436a3.144 3.144 0 0 0 .834 2.256l.08.049 22.68 23.931a3.13 3.13 0 0 0 3.463.881 3.151 3.151 0 0 0 1.788-1.698 3.145 3.145 0 0 0 .011-2.466 3.153 3.153 0 0 0-.712-1.038l-22.7-23.929a3.14 3.14 0 0 0-4.44-.17 3.142 3.142 0 0 0-1.004 2.184Zm-26.446 22.776a3.146 3.146 0 0 1 2.35-5.314c.833.02 1.625.37 2.2.974l12.2 12.26a3.142 3.142 0 1 1-4.46 4.43l-12.19-12.24-.1-.11Zm-28.59 9.959 20.16 23.14a3.144 3.144 0 0 0 4.435.265 3.142 3.142 0 0 0 .265-4.435l-20.12-23.1a3.233 3.233 0 0 0-4.43-.31 3.151 3.151 0 0 0-.31 4.44Zm78.7 12.41a3.14 3.14 0 0 1 4.32-4.53l16.57 13.59a3.151 3.151 0 0 1 1.129 2.125 3.128 3.128 0 0 1-.704 2.3 3.127 3.127 0 0 1-2.124 1.129 3.147 3.147 0 0 1-2.301-.704l-16.55-13.62a3.47 3.47 0 0 1-.34-.29Zm-23.278 3.246a3.144 3.144 0 0 0 .869 2.244l.12.12 10 10c.292.291.64.522 1.022.678a3.14 3.14 0 0 0 4.336-2.918 3.14 3.14 0 0 0-.928-2.22l-10-10a3.147 3.147 0 0 0-5.419 2.096Zm72.098 9.725-17.41-19.19a3.145 3.145 0 0 1 .244-4.404 3.141 3.141 0 0 1 4.406.184l17.42 19.19a3.141 3.141 0 0 1-2.485 5.249 3.143 3.143 0 0 1-2.175-1.029Zm17.564-34.512c.145.386.365.74.646 1.041l.05.07 13.64 14.14a3.138 3.138 0 0 0 4.44.08 3.206 3.206 0 0 0 .09-4.44l-13.63-14.14a3.15 3.15 0 0 0-2.189-.994 3.135 3.135 0 0 0-2.966 1.84 3.151 3.151 0 0 0-.081 2.403Zm24.027-29.729a3.14 3.14 0 0 1 4.56-4.31l16.53 16.81a3.085 3.085 0 0 1 .699 3.427 3.1 3.1 0 0 1-.699 1.013 3.136 3.136 0 0 1-2.22.924 3.122 3.122 0 0 1-2.22-.924l-16.53-16.81-.12-.13Zm17.255-18.566c-.041.81.233 1.604.764 2.217a.338.338 0 0 0 .08.08l14.79 15.21a3.142 3.142 0 0 0 4.44.06 3.01 3.01 0 0 0 1.013-2.207 3.009 3.009 0 0 0-.953-2.233l-14.8-15.21a3.142 3.142 0 0 0-4.35-.046 3.136 3.136 0 0 0-.984 2.129Zm-6.245 61.616a3.137 3.137 0 0 1 .113-4.326 3.146 3.146 0 0 1 4.327-.104l11.69 10.6a3.148 3.148 0 0 1 .881 3.404 3.15 3.15 0 0 1-1.628 1.794 3.144 3.144 0 0 1-2.422.101 3.126 3.126 0 0 1-1.051-.649l-11.69-10.6-.22-.22Zm-27.4 17.42 12.14 13.37a3.136 3.136 0 0 0 4.464.247 3.142 3.142 0 0 0 .186-4.467l-12.14-13.38a3.14 3.14 0 0 0-2.177-1.024 3.141 3.141 0 0 0-2.473 5.254Zm-28.871 26.28a3.173 3.173 0 0 1 .18-4.45 3.128 3.128 0 0 1 2.239-.837 3.101 3.101 0 0 1 2.171.997l15.4 16.78a3.144 3.144 0 0 1-2.461 5.26 3.144 3.144 0 0 1-2.179-1.02l-15.34-16.72-.01-.01Zm-24.572 2.335a3.137 3.137 0 0 0 .773 2.205l.09.09 12.3 12.16a3.132 3.132 0 0 0 2.22.924 3.14 3.14 0 0 0 2.22-.924 3.097 3.097 0 0 0 .935-2.215 3.103 3.103 0 0 0-.935-2.215l-12.3-12.16a3.143 3.143 0 0 0-4.339.006 3.14 3.14 0 0 0-.964 2.129Zm-4.048 21.415a.653.653 0 0 1-.11-.13l-16.36-20.16a3.135 3.135 0 0 1-.685-2.3 3.125 3.125 0 0 1 1.145-2.11 3.062 3.062 0 0 1 4.42.46l16.31 20.15a3.143 3.143 0 0 1-.408 4.34 3.138 3.138 0 0 1-4.352-.25h.04Zm102.432-78.823a3.133 3.133 0 0 0 .818 2.123c.126.147.263.284.41.41l10.12 7.8a3.15 3.15 0 0 0 4.958-1.687 3.17 3.17 0 0 0-.317-2.39 3.144 3.144 0 0 0-.811-.923l-10.12-7.81a3.138 3.138 0 0 0-5.058 2.477Z" fill="#7D50B2"/></svg>