<svg width="190" height="183" viewBox="0 0 190 183" fill="none" xmlns="http://www.w3.org/2000/svg">
<path fill-rule="evenodd" clip-rule="evenodd" d="M122.241 133.036L122.241 133.037C120.923 133.97 119.615 134.897 118.323 135.91C117.912 136.228 117.478 136.519 117.047 136.808C115.595 137.779 114.189 138.72 113.908 140.583C113.868 141.01 113.998 141.436 114.272 141.767C114.546 142.098 114.939 142.307 115.367 142.348C117.634 142.431 119.323 140.541 120.81 138.878C120.998 138.666 121.184 138.459 121.367 138.259C121.695 137.913 122.082 137.559 122.483 137.193C123.529 136.238 124.669 135.196 125.099 133.969C125.187 133.697 125.186 133.404 125.096 133.132C125.006 132.861 124.832 132.626 124.598 132.461C124.365 132.296 124.084 132.21 123.799 132.215C123.513 132.221 123.236 132.318 123.009 132.492C122.753 132.674 122.497 132.855 122.241 133.036ZM142.225 106.106L142.409 106.187L142.432 106.168C144.199 107.062 143.243 109.472 142.68 110.892C142.654 110.958 142.628 111.023 142.604 111.085C142.367 111.693 142.173 112.374 141.975 113.072L141.975 113.072C141.568 114.507 141.141 116.01 140.279 117.079C139.901 117.551 139.357 117.861 138.758 117.946C138.16 118.032 137.551 117.886 137.056 117.539C136.561 117.191 136.217 116.669 136.093 116.077C135.969 115.485 136.076 114.868 136.391 114.351C136.798 113.635 137.119 112.861 137.44 112.086C137.678 111.513 137.915 110.939 138.188 110.388C138.717 108.958 139.465 107.617 140.406 106.416C140.653 106.205 140.952 106.064 141.272 106.01C141.593 105.955 141.922 105.988 142.225 106.106ZM157.596 84.8947C156.311 85.5454 155.545 87.1961 154.89 88.6065L154.89 88.6065L154.89 88.6065C154.739 88.933 154.593 89.2466 154.449 89.532C154.095 90.2387 153.793 90.9685 153.49 91.7005C153.327 92.0921 153.165 92.4844 152.994 92.8741C152.818 93.2855 152.664 93.802 152.521 94.2817C152.398 94.6933 152.284 95.0777 152.17 95.3457C151.265 97.3905 154.238 99.6691 155.857 97.955C156.192 97.5848 156.451 97.1522 156.619 96.6818C156.786 96.2115 156.86 95.7127 156.835 95.2139C157.038 94.2474 157.292 93.2924 157.597 92.3529C157.787 91.6004 157.945 90.8222 158.104 90.0392C158.363 88.758 158.626 87.4637 159.037 86.2463C159.114 86.0441 159.128 85.8237 159.079 85.6132C159.03 85.4026 158.919 85.2114 158.761 85.0639C158.603 84.9164 158.405 84.8192 158.191 84.7847C157.978 84.7502 157.759 84.78 157.563 84.8702L157.596 84.8947ZM127.53 97.0513C126.571 97.8969 126.045 99.1579 125.53 100.392C125.288 100.974 125.047 101.549 124.766 102.073C124.262 103.034 123.772 104.01 123.307 105.017C123.237 105.175 123.163 105.334 123.089 105.492C122.954 105.783 122.817 106.076 122.702 106.373C122.713 106.364 122.677 106.447 122.625 106.573L122.625 106.573L122.625 106.573C122.467 106.946 122.154 107.692 122.421 107.496C122.208 107.7 122.034 107.942 121.907 108.209C121.76 108.519 121.68 108.857 121.672 109.2C121.665 109.544 121.73 109.885 121.863 110.201C121.996 110.517 122.194 110.802 122.445 111.037C122.696 111.271 122.993 111.45 123.318 111.562C123.642 111.674 123.987 111.716 124.329 111.685C124.671 111.655 125.002 111.552 125.302 111.385C125.602 111.217 125.863 110.988 126.068 110.713C126.559 110.001 126.884 109.187 127.019 108.332C127.36 107.131 127.778 105.954 128.27 104.807C128.448 104.359 128.659 103.906 128.872 103.45C129.162 102.826 129.457 102.195 129.673 101.559C129.829 100.689 130.036 99.8288 130.294 98.9833C131.023 97.3692 128.777 95.8913 127.499 97.0127L127.53 97.0513ZM110.442 118.397C108.921 118.851 108.092 120.647 107.386 122.176C107.203 122.573 107.029 122.951 106.852 123.284C106.666 123.636 106.465 123.987 106.262 124.342L106.262 124.342C105.534 125.616 104.782 126.933 104.568 128.479C104.179 131.148 108.547 131.535 108.687 128.864C108.741 127.812 109.225 126.865 109.704 125.929C109.898 125.551 110.09 125.174 110.253 124.793C110.913 123.237 111.59 121.561 112.119 119.956C112.195 119.727 112.203 119.481 112.143 119.248C112.083 119.015 111.957 118.803 111.78 118.639C111.604 118.475 111.384 118.365 111.147 118.322C110.91 118.279 110.665 118.305 110.442 118.397ZM91.9383 116.446C92.3835 114.653 92.8297 112.856 93.6797 111.22L93.7105 111.195C93.8951 110.89 94.173 110.653 94.5031 110.518C94.8332 110.383 95.1978 110.358 95.5432 110.447C95.8885 110.535 96.1961 110.733 96.4205 111.01C96.6449 111.287 96.7741 111.629 96.7891 111.985C96.8375 113.042 96.5251 114.137 96.2221 115.199C96.0914 115.657 95.9624 116.109 95.8649 116.549C95.6547 118.053 95.3401 119.539 94.9233 120.999C94.7771 121.522 94.435 121.968 93.9681 122.245C93.5012 122.522 92.9455 122.608 92.4166 122.486C91.8896 122.347 91.4384 122.006 91.1602 121.537C90.882 121.068 90.7989 120.509 90.9289 119.98C91.3447 118.836 91.6412 117.642 91.9383 116.446ZM85.1858 85.6656C85.0979 87.317 84.9669 88.9684 84.836 90.6178L84.836 90.6182C84.6712 92.6958 84.5066 94.7703 84.4288 96.8376C84.2892 100.546 89.8944 100.312 89.4232 96.6023C89.3654 96.1872 89.3376 95.7787 89.3098 95.3708L89.3098 95.3708L89.3098 95.3707L89.3098 95.3706L89.3098 95.3705L89.3098 95.3705L89.3098 95.3704L89.3098 95.3703L89.3098 95.3703L89.3098 95.3702L89.3098 95.3701L89.3098 95.37L89.3098 95.37L89.3098 95.3699L89.3098 95.3698L89.3098 95.3697L89.3098 95.3697L89.3098 95.3696L89.3098 95.3695L89.3098 95.3694L89.3098 95.3693C89.2707 94.7943 89.2316 94.2207 89.1091 93.6318C88.8763 92.4678 88.7297 91.2881 88.6705 90.1025C88.6526 89.8316 88.641 89.5483 88.6292 89.258C88.5619 87.6105 88.4854 85.7403 87.1988 84.6638C87.0145 84.5388 86.8009 84.4638 86.5789 84.4459C86.3569 84.428 86.134 84.4678 85.932 84.5616C85.73 84.6554 85.5557 84.7999 85.4261 84.981C85.2965 85.1622 85.216 85.3738 85.1925 85.5952L85.1858 85.6656ZM101.471 70.0039C101.473 68.406 101.694 66.2392 102.703 64.9643C102.83 64.826 102.984 64.7142 103.155 64.6355C103.326 64.5567 103.511 64.5124 103.699 64.5052C103.887 64.498 104.075 64.5281 104.251 64.5936C104.428 64.6591 104.589 64.7588 104.727 64.8869C105.968 66.2695 105.862 68.0975 105.755 69.9481C105.679 71.2679 105.601 72.5991 106.012 73.7884C106.997 76.6451 102.265 78.0774 101.529 75.1449C101.237 73.9644 101.321 72.7171 101.4 71.5304C101.435 71.006 101.47 70.4936 101.471 70.0039ZM110.449 39.5695L110.449 39.5696C110.458 39.6503 110.465 39.718 110.469 39.763C110.556 40.6378 110.701 41.504 110.86 42.3714C111.043 43.3682 111.138 44.3691 111.232 45.3677C111.311 46.2088 111.391 47.0483 111.522 47.8824C111.917 50.6048 116.356 49.791 115.678 47.2121C115.536 46.6951 115.398 46.1822 115.26 45.6715L115.259 45.6672L115.258 45.6652L115.258 45.6651L115.258 45.665L115.258 45.6649L115.258 45.6649L115.258 45.6648L115.258 45.6647C114.771 43.8583 114.292 42.08 113.698 40.2475C113.613 40.0004 113.539 39.7434 113.466 39.486C113.133 38.3211 112.797 37.1485 111.435 36.8503C110.46 36.6439 110.034 37.9174 110.525 38.575L110.502 38.5941C110.32 38.3743 110.404 39.1492 110.449 39.5695ZM125.743 33.9913C125.51 32.7256 125.182 30.9392 125.859 30.0035L125.882 29.9844C127.185 28.155 129.07 32.6813 129.284 33.2699C129.504 33.878 129.816 34.5076 130.134 35.1466C131.141 37.1744 132.195 39.2977 130.476 41.1325C129.204 42.4819 127.031 41.2808 126.749 39.7624C126.695 39.4865 126.735 39.2114 126.775 38.9433C126.788 38.8498 126.802 38.7572 126.811 38.6656C126.713 38.4552 126.478 37.5347 126.478 37.5347C126.411 37.2274 126.34 36.9204 126.268 36.6131L126.268 36.6131L126.268 36.613L126.268 36.6129L126.268 36.6128L126.268 36.6128L126.268 36.6127L126.268 36.6126L126.268 36.6125L126.268 36.6125L126.268 36.6124L126.268 36.6123L126.268 36.6122L126.268 36.6122L126.268 36.6121L126.268 36.612L126.268 36.6119L126.268 36.6118C126.111 35.9406 125.955 35.2684 125.849 34.5911C125.82 34.4113 125.783 34.2092 125.743 33.9918L125.743 33.9913ZM121.722 56.2536C121.557 56.6712 121.355 57.0728 121.117 57.4534C120.691 58.4981 120.36 59.5792 120.128 60.6835C119.559 62.6126 119.212 64.6007 119.096 66.6087C119.149 67.0629 119.356 67.4854 119.682 67.8056C120.008 68.1259 120.435 68.3247 120.89 68.3688C121.345 68.4129 121.801 68.2997 122.183 68.0481C122.565 67.7964 122.849 67.4216 122.988 66.9859C123.147 65.8218 123.24 64.6496 123.265 63.475C123.319 62.792 123.408 62.1124 123.497 61.4327L123.497 61.4326C123.576 60.8284 123.656 60.2243 123.71 59.6178C123.727 59.4311 123.752 59.2271 123.779 59.0127C123.937 57.747 124.141 56.1205 122.845 55.572C122.726 55.5307 122.599 55.5166 122.474 55.5307C122.349 55.5449 122.229 55.587 122.122 55.6539C122.016 55.7209 121.925 55.8109 121.858 55.9174C121.791 56.0238 121.749 56.144 121.734 56.2691L121.722 56.2536ZM137.954 52.1933C137.392 50.8942 136.954 49.5444 136.647 48.1623C136.631 48.0393 136.646 47.9141 136.691 47.7985C136.736 47.6829 136.81 47.5808 136.906 47.5017C137.001 47.4226 137.116 47.3693 137.238 47.3467C137.36 47.324 137.485 47.3329 137.603 47.3724C138.663 47.8858 139.486 48.9866 140.252 50.0126C140.502 50.347 140.746 50.6734 140.99 50.969C142.11 52.2617 143.204 53.6798 142.608 55.4699C142.459 55.8208 142.212 56.1217 141.897 56.3371C141.583 56.5526 141.213 56.6736 140.832 56.6858C140.451 56.6981 140.074 56.6012 139.746 56.4064C139.418 56.2117 139.153 55.9273 138.981 55.5867C138.771 55.0523 138.632 54.5047 138.493 53.9548C138.343 53.3659 138.193 52.7743 137.954 52.1933ZM93.317 147.375C94.232 146.866 96.1778 146.049 96.7545 147.454C96.7813 147.515 96.7955 147.581 96.7964 147.647C96.7973 147.714 96.7849 147.78 96.7598 147.842C96.7347 147.904 96.6975 147.96 96.6504 148.007C96.6033 148.054 96.5472 148.092 96.4854 148.117C95.8412 148.335 95.1419 149.099 94.5194 149.78C94.1917 150.138 93.8854 150.473 93.6195 150.693C91.8925 152.272 90.0244 153.69 88.0387 154.928C85.7679 156.325 83.7058 152.165 86.2917 151.04C88.6949 149.94 91.0398 148.717 93.317 147.375ZM83.8626 137.818C81.9049 138.413 80.0039 139.18 78.1823 140.112C76.5978 140.804 75.1125 141.705 73.7654 142.789C73.4494 143.064 73.2199 143.425 73.1047 143.828C72.9894 144.231 72.9934 144.659 73.116 145.06C73.2387 145.46 73.4748 145.817 73.7958 146.087C74.1168 146.356 74.509 146.527 74.925 146.578C76.5643 146.745 77.7498 145.671 78.9048 144.625C79.2566 144.306 79.6056 143.99 79.9637 143.712C80.3744 143.393 80.8636 143.063 81.379 142.715L81.379 142.715C82.7884 141.763 84.3936 140.679 85.1238 139.344C85.231 139.156 85.2782 138.939 85.2594 138.723C85.2405 138.507 85.1564 138.302 85.0183 138.134C84.8801 137.967 84.6944 137.846 84.4857 137.787C84.277 137.727 84.0553 137.733 83.8499 137.803L83.8626 137.818ZM60.9806 134.912C62.7666 133.52 64.5412 132.136 66.6809 131.468L66.6976 131.441C66.9037 131.365 67.1281 131.355 67.3401 131.412C67.552 131.47 67.7409 131.591 67.8807 131.761C68.0206 131.93 68.1044 132.138 68.1207 132.357C68.137 132.576 68.0849 132.795 67.9716 132.983C66.9078 134.986 65.1873 136.473 63.4655 137.962C62.1067 139.137 60.7471 140.313 59.7088 141.743C57.1387 145.242 52.6646 139.781 56.5239 137.889C58.1417 137.126 59.5648 136.016 60.9806 134.912ZM88.8742 69.8788C89.3549 69.4145 89.6366 68.7818 89.66 68.1139C89.7304 67.7228 89.8061 67.333 89.8819 66.9432C90.0333 66.1637 90.1848 65.3841 90.2931 64.5942C90.4977 62.7168 90.5278 60.8246 90.3831 58.9417C90.2963 56.7173 87.0197 56.7396 86.3285 58.5561C86.069 59.2998 86.0902 60.1127 86.3881 60.8418C86.5942 61.8674 86.6877 62.9123 86.6671 63.9581C86.6728 64.3158 86.6657 64.6952 86.6585 65.0859C86.6307 66.5833 86.5999 68.2481 87.2689 69.506C87.3282 69.657 87.4233 69.7913 87.546 69.8973C87.6688 70.0033 87.8155 70.0779 87.9735 70.1146C88.1315 70.1513 88.2961 70.149 88.453 70.1079C88.6099 70.0669 88.7545 69.9882 88.8742 69.8788ZM96.4875 48.7575L96.4853 48.7751L96.5137 48.6899C96.506 48.7129 96.4972 48.7355 96.4875 48.7575ZM96.4875 48.7575C96.6543 47.399 96.3873 46.0224 95.7245 44.8245C94.8994 42.8951 93.8336 41.0778 92.5525 39.4159C90.7802 36.9886 86.8488 40.2372 88.9525 42.3906C90.3948 43.7823 91.722 45.2886 92.9209 46.8948C92.9614 46.9531 93.0032 47.0138 93.0462 47.0764L93.0468 47.0772L93.0471 47.0777C93.6606 47.9689 94.527 49.2277 95.6678 49.2301C95.8501 49.2502 96.0337 49.207 96.1879 49.1079C96.3205 49.0227 96.4244 48.9007 96.4875 48.7575ZM109.048 24.0084C108.626 22.9368 107.474 22.1929 106.411 21.5069C106.017 21.2528 105.636 21.0067 105.308 20.7548C104.125 19.735 102.782 18.9162 101.334 18.3312C97.4971 17.0003 96.5303 23.507 100.181 23.4351C101.327 23.4608 102.449 23.7676 103.449 24.3283C103.674 24.4331 103.897 24.5404 104.121 24.6479C104.528 24.8427 104.935 25.0381 105.353 25.2197C105.697 25.3694 106.066 25.4513 106.435 25.5334C106.762 25.6058 107.089 25.6784 107.4 25.798C107.643 25.8768 107.904 25.8846 108.151 25.8203C108.398 25.756 108.622 25.6223 108.796 25.435C108.97 25.2478 109.086 25.0147 109.132 24.7633C109.178 24.5119 109.151 24.2526 109.054 24.0161L109.048 24.0084ZM147.708 40.7472C147.389 39.3722 147.243 37.9622 147.276 36.5509C147.241 34.9848 149.235 34.4003 150.353 35.1245C151.288 35.7299 151.562 36.6473 151.845 37.5933C151.967 38.0006 152.09 38.4131 152.268 38.8084C152.533 39.4037 152.807 39.9898 153.081 40.5756L153.081 40.5756C153.496 41.464 153.911 42.3517 154.295 43.27C155.727 46.6523 150.28 48.8832 149.228 45.537C149.051 44.9745 148.864 44.4137 148.677 43.8528C148.334 42.822 147.991 41.7906 147.708 40.7472ZM155.061 61.576C155.046 62.2034 154.961 62.8147 154.877 63.4248L154.877 63.4248C154.783 64.1032 154.689 64.7801 154.691 65.4758C154.836 66.8063 154.863 68.1471 154.771 69.4824C154.172 72.7923 159.697 73.4029 160.023 69.9818C160.061 69.1903 159.991 68.3974 159.813 67.625C159.741 67.1973 159.706 66.7638 159.671 66.3304C159.632 65.8421 159.593 65.3541 159.5 64.8748C159.462 64.6848 159.428 64.496 159.393 64.309L159.393 64.3088L159.393 64.3087L159.393 64.3086L159.393 64.3084L159.393 64.3083C159.118 62.8138 158.862 61.4298 157.55 60.4276C157.322 60.2727 157.058 60.1795 156.783 60.1569C156.508 60.1344 156.232 60.1832 155.981 60.2988C155.731 60.4143 155.515 60.5927 155.354 60.8164C155.192 61.0402 155.092 61.3019 155.061 61.576ZM110.226 90.4904C110.703 88.4087 111.568 86.4355 112.776 84.674L112.732 84.6841C112.907 84.4455 113.149 84.2634 113.427 84.1602C113.704 84.057 114.006 84.0371 114.295 84.1031C114.583 84.169 114.847 84.3179 115.052 84.5314C115.257 84.7449 115.396 85.0137 115.45 85.3048C115.729 86.5118 115.293 87.7206 114.865 88.9068C114.668 89.455 114.472 89.9983 114.349 90.5344C114.216 91.1113 114.102 91.6953 113.988 92.2793L113.988 92.2795L113.988 92.2796L113.988 92.2798L113.988 92.28C113.874 92.8638 113.76 93.4476 113.627 94.0243C113.596 94.1602 113.532 94.3387 113.463 94.529C113.339 94.8743 113.201 95.2586 113.224 95.4989C113.526 98.1416 109.399 98.8146 109.14 96.1618C109.005 94.8235 109.438 93.3135 109.841 91.912C109.982 91.4208 110.119 90.9429 110.226 90.4904ZM135.289 71.6359C135.357 72.0908 135.247 72.5485 135.136 73.0145L135.136 73.0146C135.083 73.235 135.03 73.4573 134.995 73.682C134.947 74.4481 134.945 75.2164 134.989 75.9828C134.988 76.834 134.854 77.6707 134.72 78.5038C134.591 79.3111 134.462 80.1151 134.455 80.9254C134.403 81.4724 134.571 82.0177 134.921 82.4413C135.271 82.8649 135.775 83.1321 136.322 83.1841C136.869 83.2361 137.414 83.0687 137.837 82.7187C138.261 82.3687 138.528 81.8647 138.58 81.3177C138.892 79.2125 138.829 77.0687 138.394 74.9854C138.342 74.7068 138.302 74.3995 138.26 74.0799L138.26 74.0798C138.082 72.7241 137.875 71.1466 136.617 70.5902C136.457 70.5378 136.286 70.5268 136.12 70.5582C135.954 70.5896 135.799 70.6624 135.669 70.7698C135.539 70.8773 135.439 71.0158 135.377 71.1726C135.314 71.3295 135.293 71.4994 135.314 71.6667L135.289 71.6359ZM77.3851 116.305C78.0954 115.281 79.0177 114.421 80.0895 113.785L80.0509 113.817C81.401 113.064 82.2266 114.99 81.3508 115.908C80.7156 116.813 80.1845 117.787 79.7677 118.812C79.4809 119.318 79.1251 119.786 78.7724 120.25L78.7723 120.25C78.4636 120.656 78.1571 121.059 77.9014 121.482C76.6004 123.66 73.058 121.1 74.7036 119.182C75.078 118.742 75.4858 118.337 75.8928 117.932C76.4159 117.412 76.9376 116.894 77.3851 116.305ZM60.6389 154.894C59.1623 153.501 57.0503 154.057 55.2195 154.54C55.0058 154.596 54.7959 154.651 54.5912 154.703C54.3321 154.761 54.0733 154.825 53.8122 154.891C53.3568 155.005 52.8947 155.121 52.4125 155.206C52.4982 155.189 52.0208 155.26 51.817 155.302C51.5526 155.273 50.5562 155.248 50.4315 155.273C50.0411 155.342 49.6714 155.499 49.35 155.731C49.0287 155.963 48.764 156.265 48.5757 156.614C48.3875 156.963 48.2805 157.35 48.2629 157.746C48.2453 158.142 48.3175 158.537 48.4741 158.901L48.5696 159.017C48.7658 159.459 49.0762 159.84 49.4688 160.122C49.8615 160.404 50.3222 160.577 50.8036 160.621C52.2548 160.55 53.6557 160.068 54.8426 159.23C56.5174 158.319 58.2845 157.589 60.114 157.053C60.3086 156.966 60.4806 156.835 60.6166 156.671C60.7526 156.507 60.8489 156.313 60.8982 156.106C60.9474 155.898 60.9483 155.682 60.9007 155.474C60.853 155.266 60.7582 155.072 60.6235 154.907L60.6389 154.894ZM126.23 16.167C128.004 17.0795 129.594 18.3119 130.92 19.8023L130.933 19.8177C131.101 20.0301 131.196 20.2913 131.202 20.5621C131.209 20.8329 131.128 21.0987 130.971 21.3193C130.814 21.5399 130.589 21.7035 130.331 21.7854C130.073 21.8673 129.795 21.8631 129.539 21.7735C128.663 21.5826 127.799 21.3391 126.952 21.0445C126.773 20.9692 126.594 20.8928 126.414 20.8164C125.938 20.6133 125.46 20.4098 124.977 20.2245C124.441 19.9633 123.88 19.7576 123.302 19.6106C123.087 19.5649 122.886 19.5391 122.692 19.5144C122.18 19.4487 121.728 19.3908 121.245 18.9888C120.817 18.6836 120.527 18.2223 120.436 17.7046C120.346 17.1869 120.463 16.6545 120.762 16.2225C122.21 14.4423 124.481 15.1342 126.23 16.167Z" fill="#FFC300"/>
</svg>
