<svg width="599" height="231" viewBox="0 0 599 231" fill="none" xmlns="http://www.w3.org/2000/svg">
<path fill-rule="evenodd" clip-rule="evenodd" d="M362.251 16.1795C367.294 15.3456 371.978 13.0372 375.714 9.54485C379.298 6.27887 376.521 -0.0237711 371.819 6.74316e-05C366.721 0.0356755 361.744 1.56421 357.503 4.39707C356.2 5.19045 355.22 6.42151 354.739 7.87052C354.259 9.31954 354.308 10.8922 354.878 12.3079C355.449 13.7235 356.503 14.89 357.854 15.5992C359.204 16.3084 360.763 16.514 362.251 16.1795ZM190.625 73.8798C201.223 67.8319 191.859 51.3336 181.244 57.3922C170.629 63.4508 179.999 79.9217 190.625 73.8798ZM270.88 71.6964C268.17 72.3758 265.401 72.7972 262.612 72.955L262.664 72.9807C261.755 72.9553 260.869 72.696 260.09 72.2278C259.312 71.7596 258.667 71.0983 258.218 70.3078C257.769 69.5173 257.531 68.6243 257.528 67.7148C257.524 66.8054 257.755 65.9104 258.198 65.116C259.738 62.7828 261.499 60.6032 263.456 58.6073C266.918 54.8558 273.312 55.9932 275.751 60.2576C278.19 64.522 275.882 70.6352 270.88 71.6964ZM369.365 90.0299C371.237 89.0093 373.072 87.8947 374.857 86.683C375.346 86.3533 375.859 86.031 376.376 85.7054C378.028 84.666 379.735 83.5922 380.93 82.1311C383.366 79.1997 383.96 75.4034 381.537 72.2319C380.433 70.7838 378.844 69.7821 377.062 69.4102C375.28 69.0383 373.423 69.3209 371.832 70.2064C368.448 71.9426 365.437 75.4479 362.813 78.502L362.812 78.5035C362.406 78.9761 362.01 79.4378 361.622 79.8804C356.982 85.2069 362.777 93.7371 369.406 90.0389L369.365 90.0299ZM307.755 125.521C305.376 127.113 302.889 128.538 300.314 129.785C298.887 130.536 297.241 130.758 295.667 130.41C294.093 130.063 292.693 129.169 291.715 127.887C290.737 126.605 290.244 125.018 290.323 123.407C290.403 121.796 291.049 120.264 292.148 119.084C294.072 116.97 296.136 114.988 298.326 113.151C298.95 112.625 299.57 112.062 300.196 111.494L300.197 111.493C301.966 109.887 303.78 108.24 305.859 107.301C314.161 103.614 321.455 112.876 315.478 119.914C313.904 121.767 311.713 123.097 309.579 124.392L309.579 124.392C308.961 124.767 308.347 125.14 307.755 125.521ZM385.42 127.683C381.911 129.499 377.971 130.316 374.031 130.045L374.034 130.031C372.728 129.982 371.463 129.56 370.39 128.815C369.316 128.071 368.477 127.034 367.972 125.828C367.485 124.621 367.358 123.298 367.607 122.02C367.856 120.741 368.47 119.563 369.374 118.626C372.165 115.844 375.664 113.879 379.491 112.945C381.361 112.499 383.329 112.739 385.036 113.622C386.744 114.505 388.078 115.972 388.796 117.756C389.514 119.541 389.568 121.524 388.948 123.346C388.329 125.168 387.077 126.706 385.42 127.683ZM198.441 138.85L198.442 138.85C198.764 139.196 199.119 139.577 199.563 139.977C200.901 141.111 202.447 141.973 204.115 142.515C206.961 143.863 210.146 144.326 213.259 143.843C219.544 142.677 220.673 133.208 215.14 130.311C212.302 128.961 209.124 128.49 206.016 128.959C204.348 128.998 202.701 129.35 201.162 129.996C200.584 130.314 200.027 130.67 199.495 131.061C199.31 131.18 199.174 131.269 199.075 131.334C199.143 131.26 199.069 131.239 198.439 131.502C196.087 132.489 195.684 136.398 197.57 137.975L197.521 137.936C197.834 138.197 198.122 138.507 198.441 138.85ZM249.676 223.757C249.002 223.312 248.332 222.87 247.662 222.45C246.238 221.605 245.167 220.273 244.646 218.7C244.125 217.127 244.191 215.418 244.829 213.888C245.468 212.359 246.638 211.112 248.123 210.377C249.607 209.642 251.307 209.469 252.909 209.89C253.713 210.104 254.544 210.301 255.385 210.501L255.385 210.501L255.385 210.501L255.385 210.501L255.386 210.501L255.386 210.501L255.386 210.501L255.386 210.501L255.386 210.501L255.387 210.502L255.387 210.502L255.387 210.502L255.387 210.502L255.387 210.502L255.387 210.502L255.388 210.502L255.388 210.502C259.098 211.383 263.005 212.31 265.723 214.966C270.483 219.613 266.945 228.579 260.14 228.268C256.226 228.081 252.901 225.886 249.676 223.757ZM303.11 183.278C302.228 182.976 301.411 182.527 300.69 181.957C298.74 181.885 296.754 181.002 295.406 179.772C294.287 178.617 293.568 177.133 293.355 175.538C293.143 173.943 293.447 172.321 294.224 170.912C298.565 162.653 311.613 164.785 313.673 173.624C314.136 175.529 313.899 177.537 313.004 179.282C312.11 181.026 310.617 182.39 308.8 183.124C306.984 183.858 304.964 183.913 303.11 183.278ZM299.645 180.967C299.644 181.128 299.394 180.949 298.708 179.669C298.979 180.134 299.293 180.568 299.645 180.967ZM195.697 213.227C193.007 214.62 190.18 215.731 187.262 216.542L187.234 216.607C181.203 218.631 176.274 209.876 181.048 205.697C183.238 203.595 185.637 201.723 188.208 200.109C189.071 199.537 190.043 199.147 191.062 198.965C192.082 198.784 193.128 198.813 194.135 199.053C195.143 199.292 196.091 199.736 196.92 200.356C197.749 200.977 198.441 201.762 198.955 202.662C199.469 203.561 199.792 204.557 199.906 205.587C200.019 206.617 199.92 207.66 199.615 208.651C199.309 209.641 198.804 210.558 198.13 211.346C197.456 212.133 196.628 212.773 195.697 213.227ZM133.233 146.22C142.25 141.042 134.282 127.045 125.257 132.192C116.232 137.34 124.194 151.365 133.233 146.22ZM471.073 91.6021C467.163 94.008 463.158 93.3398 459.079 91.7093L459.089 91.7259C457.76 91.3034 456.595 90.4776 455.756 89.3629C454.916 88.2482 454.444 86.8998 454.404 85.5042C454.436 84.1022 454.923 82.7485 455.791 81.6472C456.659 80.546 457.861 79.7568 459.216 79.3986C461.137 78.8166 463.132 78.5178 465.139 78.5118C467.846 78.6373 470.423 79.7128 472.416 81.5498C475.772 84.2534 474.294 89.6606 471.073 91.6021ZM454.612 162.619L455.588 162.347C455.958 162.264 456.315 162.13 456.65 161.951L456.742 161.913C456.756 161.916 456.77 161.92 456.785 161.923C457.368 162.115 457.963 162.267 458.566 162.376C458.624 162.396 458.706 162.423 458.815 162.457C460.185 162.739 461.598 162.739 462.968 162.455C464.059 162.206 465.071 161.69 465.913 160.952C466.756 160.215 467.402 159.279 467.794 158.23C468.198 157.212 468.377 156.119 468.319 155.025C468.261 153.931 467.968 152.862 467.459 151.893C465.593 147.368 459.57 146.24 455.339 147.371C451.561 148.402 447.941 150.986 447.11 155.017C446.278 159.047 449.917 164.236 454.638 162.697L454.612 162.619ZM456.593 161.881L456.625 161.876C456.609 161.87 456.593 161.865 456.578 161.859C456.561 161.852 456.544 161.845 456.527 161.838C456.548 161.851 456.57 161.865 456.593 161.881ZM360.743 194.007C360.272 195.803 359.263 197.411 357.851 198.616C357.012 199.462 355.99 200.103 354.863 200.488C353.736 200.874 352.536 200.993 351.355 200.837C350.175 200.68 349.047 200.253 348.059 199.588C347.072 198.923 346.251 198.038 345.662 197.003C345.073 195.968 344.731 194.81 344.663 193.62C344.595 192.43 344.804 191.241 345.271 190.145C345.739 189.049 346.454 188.076 347.36 187.302C348.265 186.528 349.338 185.974 350.492 185.684C352.254 185.078 354.16 185.037 355.945 185.568C357.667 186.1 359.122 187.269 360.013 188.837C360.904 190.404 361.165 192.253 360.743 194.007ZM577.551 109.405C581.031 109.884 584.567 109.767 588.009 109.059C591.942 108.364 595.611 107.052 597.676 103.336C598.573 101.696 598.804 99.7732 598.322 97.9672C597.841 96.1612 596.683 94.6102 595.09 93.6356C591.917 91.4023 587.998 91.8998 584.453 92.9098C581.436 93.6427 578.552 94.8447 575.906 96.4719C574.719 97.1847 573.761 98.2231 573.144 99.464C572.528 100.705 572.28 102.096 572.429 103.474C572.786 106.075 574.737 108.985 577.536 109.473L577.551 109.405ZM457.163 35.5808C453.525 36.1024 450.315 38.7142 450.744 43.0737L450.744 43.128L450.744 43.1665C450.744 43.1984 450.744 43.2303 450.745 43.2622L450.649 43.6978C450.607 44.9341 450.91 46.1576 451.523 47.2317C452.135 48.3057 453.034 49.1882 454.119 49.7805L454.693 50.036C454.716 50.0459 454.739 50.0557 454.762 50.0654C458.264 52.6144 462.156 51.176 464.465 48.3075C466.456 46.3907 467.381 43.5351 466.113 40.4007C465.977 40.0107 465.803 39.6269 465.591 39.2526C463.53 35.6363 460.17 34.7169 457.163 35.5808ZM19.6292 198.139C13.9801 196.679 6.80091 196.572 2.27328 200.805C1.42849 201.67 0.79101 202.715 0.409017 203.862C0.0270231 205.01 -0.0894936 206.229 0.0682673 207.427C0.226028 208.626 0.653943 209.773 1.31967 210.781C1.98541 211.79 2.87154 212.634 3.91111 213.249C9.3878 216.077 16.2198 214.186 21.265 211.242C26.3102 208.298 25.6987 199.707 19.6292 198.139ZM111.248 212.649C111.722 212.547 112.191 212.446 112.652 212.345C113.621 212.123 114.635 212.219 115.545 212.619C116.455 213.019 117.212 213.702 117.703 214.566C118.195 215.43 118.397 216.429 118.277 217.417C118.157 218.404 117.723 219.327 117.039 220.049C116.726 220.383 116.41 220.723 116.09 221.067C113.184 224.196 110 227.624 106.111 229.349C102.574 230.905 98.4809 230.246 96.4311 226.684C94.3813 223.122 95.9805 219.246 99.0974 216.995C102.508 214.53 107.081 213.546 111.248 212.649L111.248 212.649ZM60.9083 113.345C59.3883 109.949 57.1113 106.946 54.2521 104.568C51.4393 101.998 46.6288 101.539 43.8802 104.588C42.9933 105.495 42.3446 106.608 41.9919 107.827C41.5093 109.71 41.779 111.708 42.7437 113.395C43.7084 115.082 45.2922 116.326 47.159 116.864C50.6566 117.821 54.5621 118.682 58.1726 117.959C59.1445 117.707 59.9776 117.08 60.4901 116.216C61.0026 115.352 61.1529 114.32 60.9083 113.345ZM126.019 55.2911C126.859 56.3319 127.753 57.328 128.697 58.2753L128.749 58.3011C130.973 60.225 129.853 64.5931 126.887 65.0571C125.585 65.3478 124.3 65.7105 123.038 66.1435C121.264 66.5468 119.454 66.7718 117.635 66.8154C112.436 67.0162 108.721 61.3954 110.015 56.693C111.31 51.9905 117.405 48.9628 121.727 51.8939C123.27 52.8759 124.708 54.0143 126.019 55.2911ZM242.979 10.032C240.381 8.82367 237.888 7.40139 235.526 5.77985C233.505 4.37157 231.053 3.72126 228.6 3.94317C226.147 4.16507 223.85 5.245 222.113 6.99322C220.156 8.85499 219.412 12.7473 221.02 15.0655C222.263 17.1999 224.201 18.8418 226.51 19.716C229.041 20.4675 231.755 20.3106 234.183 19.2722C236.735 18.2129 239.366 17.3553 242.051 16.7073C245.054 16.0794 245.996 11.285 242.994 9.96367L242.979 10.032ZM169.954 1.69863C171.879 2.33127 173.672 3.3095 175.246 4.58544L175.192 4.57339C178.414 7.10422 178.1 12.4243 175.85 15.3538C174.641 16.9037 172.921 17.973 170.997 18.3707C169.073 18.7683 167.071 18.4683 165.348 17.5243C164.178 16.8641 163.137 15.9985 162.274 14.9689C161.098 13.7143 160.34 12.1238 160.108 10.4184C159.876 8.7131 160.18 6.97751 160.979 5.45275C161.857 3.92857 163.211 2.7354 164.833 2.05703C166.455 1.37866 168.255 1.25273 169.954 1.69863ZM506.931 113.025L507.655 112.081C511.818 106.707 508.053 100.143 501.309 100.921L500.116 101.073C487.895 102.593 499.3 122.823 506.917 113.022L506.931 113.025ZM412.167 188.28C411.876 187.829 411.592 187.388 411.311 186.969L411.352 186.978C410.631 185.715 410.397 184.232 410.695 182.808C410.993 181.384 411.803 180.119 412.969 179.251C414.125 178.39 415.548 177.966 416.986 178.055C418.424 178.144 419.784 178.739 420.824 179.736C421.334 180.173 421.866 180.579 422.399 180.987C423.137 181.551 423.878 182.117 424.566 182.768C426.445 184.568 427.592 187.002 427.785 189.598C427.787 190.531 427.562 191.449 427.131 192.275C426.699 193.102 426.074 193.81 425.308 194.341C424.562 194.905 423.699 195.296 422.783 195.483C421.867 195.67 420.921 195.65 420.014 195.424C416.358 194.78 414.109 191.292 412.167 188.28Z" fill="white"/>
</svg>
