<svg width="338" height="514" viewBox="0 0 338 514" fill="none" xmlns="http://www.w3.org/2000/svg">
<path d="M141.259 374.161C117.56 347.964 95.5916 320.097 73.4267 292.506C56.8148 271.746 40.502 248.66 40.172 219.803C39.7695 169.726 109.2 136.941 145.419 118.664C205.125 88.5395 268.025 68.2121 328.847 41.5263C329.297 41.2926 329.782 41.1529 330.271 41.1161C330.76 41.0792 331.243 41.1459 331.689 41.3121C349.235 34.1609 367.071 29.9622 382.384 33.9927C412.655 41.9642 384.381 110.531 378.084 128.576C361.06 177.821 344.546 225.539 330.288 275.68C321.5 306.687 311.504 337.281 301.039 367.829C293.675 389.448 285.347 414.05 268.728 430.766C220.137 479.973 168.111 403.766 141.259 374.161Z" fill="#00A5CE"/>
<path d="M337.496 87.963L338.009 87.7666C340.155 87.2165 341.375 89.318 341.517 91.2151L341.87 91.401C343.401 92.1238 342.486 96.4014 340.757 96.7672C340.757 96.7672 340.623 96.8184 340.578 96.8355C340.174 97.7831 339.585 98.6486 338.849 99.3748C332.461 105.378 330.859 89.6154 337.496 87.963Z" fill="#FFFBE9"/>
<path d="M313.972 114.434C314.134 114.372 314.305 114.343 314.473 114.351C314.642 114.359 314.804 114.402 314.95 114.479C315.198 114.592 315.431 114.734 315.645 114.902C317.202 114.897 317.557 117.42 317.46 118.59C317.414 121.091 316.55 123.571 315.004 125.634C314.655 126.1 314.192 126.467 313.668 126.692C313.144 126.918 312.58 126.993 312.04 126.91C311.5 126.827 311.006 126.589 310.613 126.222C310.221 125.856 309.946 125.376 309.819 124.836C308.716 121.713 310.851 114.84 313.972 114.434Z" fill="#FFFBE9"/>
<path d="M344.335 115.088C345.535 115.094 345.839 116.515 345.811 117.892L345.982 118.461C346.54 120.322 345.358 127.066 342.088 125.214C338.818 123.362 339.659 114.992 344.335 115.088Z" fill="#FFFBE9"/>
<path d="M307.49 197.751C307.699 197.779 307.897 197.846 308.075 197.95C308.711 198.154 309.368 198.175 310.024 198.446C310.68 198.717 310.685 200.681 310.332 201.264C309.219 203.841 307.786 206.282 306.07 208.523C305.717 209.045 305.23 209.463 304.67 209.724C304.109 209.985 303.499 210.079 302.915 209.993C302.331 209.908 301.799 209.647 301.383 209.244C300.968 208.84 300.687 208.31 300.576 207.72C300.079 206.159 300.005 204.457 300.364 202.786C300.722 201.115 301.5 199.534 302.617 198.203C302.898 197.792 303.263 197.445 303.684 197.191C304.106 196.936 304.571 196.781 305.044 196.737C305.517 196.693 305.984 196.762 306.408 196.938C306.833 197.114 307.204 197.393 307.49 197.751Z" fill="#FFFBE9"/>
<path d="M72.7172 199.592C72.997 201.952 70.5055 211.519 66.4673 208.45C66.1721 208.292 66.3883 208.184 66.8906 208.288C62.6924 209.106 64.5669 201.972 65.9332 200.14C65.4908 200.655 65.3794 200.698 65.5991 200.268C67.0587 195.662 72.0888 194.304 72.7172 199.592Z" fill="#FFFBE9"/>
<path d="M39.1482 223.937C43.3109 225.756 39.4533 236.426 35.8289 233.936C32.9673 231.939 35.2878 222.224 39.1482 223.937Z" fill="#FFFBE9"/>
<path d="M71.9001 255.452L71.7954 256.182C71.5241 258.183 70.4002 262.727 67.5028 262.308C64.6053 261.889 65.1835 257.259 66.0293 255.358C66.1323 255.122 66.2064 254.872 66.316 254.658C68.053 250.594 72.5458 250.55 71.9001 255.452Z" fill="#FFFBE9"/>
<path d="M126.823 203.052C126.926 203.003 127.032 202.962 127.14 202.93C127.299 202.869 127.457 202.808 127.639 202.738C129.361 202.076 130.27 203.106 130.748 204.728C130.782 204.841 130.795 204.886 130.828 204.999L130.954 205.427C131.325 206.896 131.329 208.465 130.968 209.999C130.606 211.533 129.89 212.984 128.88 214.226C126.84 216.465 124.371 216.561 121.697 216.736C119.024 216.91 120.143 211.463 120.963 210.22C122.345 207.42 124.359 204.957 126.823 203.052Z" fill="#FFFBE9"/>
<path d="M79.3233 218.351C80.1238 219.929 80.4874 221.728 80.3779 223.566C80.2684 225.405 79.6896 227.22 78.6993 228.829C77.295 231.232 74.0797 233.516 72.2123 230.645C71.4104 229.073 71.0445 227.281 71.1512 225.447C71.258 223.614 71.8338 221.803 72.8207 220.198C74.2251 217.795 77.4404 215.511 79.3233 218.351Z" fill="#FFFBE9"/>
<path d="M102.819 237.156C103.473 238.454 103.767 239.932 103.672 241.442C103.577 242.952 103.096 244.441 102.278 245.759C101.149 247.762 98.508 249.655 96.9379 247.284C96.2646 245.985 95.956 244.498 96.0437 242.976C96.1314 241.454 96.6123 239.952 97.4371 238.624C98.6742 236.653 101.229 234.719 102.819 237.156Z" fill="#FFFBE9"/>
<path d="M121.462 234.913L121.355 235.542C120.969 237.868 118.245 243.144 115.28 241.118C112.315 239.091 113.751 232.715 115.937 229.995L116.233 229.588C120.149 224.763 121.955 231.958 121.462 234.913Z" fill="#FFFBE9"/>
<path d="M102.069 191.4C104.317 194.808 99.721 205.391 96.6805 200.814C94.4189 197.363 99.0086 186.757 102.069 191.4Z" fill="#FFFBE9"/>
<path d="M234.866 352.547C237.99 351.918 238.742 354.761 238.511 357.759C238.974 361.274 236.881 371.169 232.15 367.986C227.419 364.802 228.502 353.826 234.866 352.547Z" fill="#FFFBE9"/>
<path d="M260.632 337.557L260.586 337.404C260.727 337.452 260.861 337.515 260.986 337.593L261.117 337.543C260.582 337.308 261.848 337.777 261.854 337.799C262.059 337.955 262.218 338.165 262.317 338.409C262.416 338.653 262.451 338.923 262.419 339.194C262.505 339.478 262.59 339.763 262.682 340.069C263.155 341.646 261.551 348.698 258.99 346.356C258.01 345.468 257.394 344.23 257.252 342.86C257.11 341.491 257.45 340.077 258.213 338.87C258.451 338.43 258.812 338.067 259.246 337.832C259.679 337.597 260.164 337.501 260.632 337.557Z" fill="#FFFBE9"/>
<path d="M232.519 306.287C232.616 306.896 232.793 307.484 233.044 308.035C233.635 310.001 231.807 318.537 228.518 315.87C228.2 315.574 227.858 315.305 227.496 315.066C223.95 313.738 224.71 308.311 226.377 305.412C228.56 301.635 231.801 302.519 232.519 306.287Z" fill="#FFFBE9"/>
<path d="M198.214 336.566C200.772 338.041 198.724 345.128 197.371 346.7C196.722 347.558 195.828 348.193 194.83 348.504C192.14 349.066 191.095 345.81 191.386 343.565C191.679 341.324 192.367 339.124 193.414 337.075C193.572 336.547 193.884 336.072 194.307 335.713C194.729 335.355 195.24 335.132 195.769 335.076C196.297 335.02 196.817 335.133 197.256 335.4C197.694 335.668 198.029 336.075 198.214 336.566Z" fill="#FFFBE9"/>
<path d="M225.648 330.416C228.728 330.422 228.722 335.166 228.15 337.336C227.578 339.506 226.569 342.214 224.319 342.828C223.946 342.964 223.56 343.045 223.174 343.069C219.169 343.714 219.793 336.955 221.374 334.67C221.652 334.268 221.901 333.852 222.172 333.427C222.369 332.626 222.818 331.894 223.448 331.348C224.078 330.803 224.853 330.475 225.648 330.416Z" fill="#FFFBE9"/>
<path d="M256.54 308.782C260.265 307.676 259.876 314.174 259.036 316.168C258.298 318.387 256.854 320.338 254.945 321.694C251.76 323.7 252.086 318.9 252.974 316.321C252.771 313.397 253.722 309.613 256.54 308.782Z" fill="#FFFBE9"/>
<path d="M208.716 294C210.919 295.175 211.316 297.753 211.841 300.012C212.189 301.182 211.651 306.012 209.366 305.312C207.653 304.786 206.506 305.914 204.852 305.587C201.384 304.897 202.568 299.082 203.856 296.769L204.182 296.202C205.24 294.444 206.937 293.008 208.716 294Z" fill="#FFFBE9"/>
<path d="M185.193 365.639C188.5 363.272 189.819 367.771 189.791 370.234C189.856 371.837 189.516 373.463 188.802 374.955C188.087 376.447 187.023 377.756 185.712 378.756C181.956 381.27 181.29 376.154 181.957 372.613C181.962 371.316 182.256 370.014 182.816 368.806C183.377 367.598 184.19 366.514 185.193 365.639Z" fill="#FFFBE9"/>
<path d="M145.163 283.443L145.517 283.479C147.811 283.606 147.888 286.975 147.433 289.226C147.38 292.326 145.865 297.916 142.694 295.923C141.278 294.807 140.386 293.137 140.206 291.267C140.026 289.396 140.572 287.472 141.73 285.902C142.04 285.218 142.527 284.625 143.135 284.189C143.743 283.754 144.446 283.495 145.163 283.443Z" fill="#FFFBE9"/>
<path d="M199.129 235.402C201.246 238.616 196.931 248.506 194.064 244.18C191.989 241.024 196.297 231.112 199.129 235.402Z" fill="#FFFBE9"/>
<path d="M219.91 258.185L220.208 260.008C220.415 261.278 219.37 265.944 217.195 265.254L216.056 264.905C209.949 262.922 218.675 250.418 219.91 258.185Z" fill="#FFFBE9"/>
<path d="M205.41 201.763C206.2 203.267 206.563 204.992 206.461 206.758C206.359 208.524 205.796 210.267 204.83 211.804C203.518 214.097 200.467 216.27 198.668 213.545C197.886 212.041 197.525 210.32 197.623 208.557C197.721 206.795 198.274 205.054 199.226 203.513C200.605 201.194 203.611 199.039 205.41 201.763Z" fill="#FFFBE9"/>
</svg>
