<svg width="106" height="124" viewBox="0 0 106 124" fill="none" xmlns="http://www.w3.org/2000/svg">
<path fill-rule="evenodd" clip-rule="evenodd" d="M-17.56 88.0954C-18.5838 87.763 -19.5843 87.3884 -20.5572 86.9732C-21.6121 86.4868 -22.4852 85.793 -23.0893 84.9611C-23.6933 84.1291 -24.0073 83.188 -23.9999 82.2318C-24.0001 81.7565 -23.9184 81.2834 -23.7569 80.8251C-23.3409 79.6809 -22.4608 78.6727 -21.2486 77.9518C-20.0364 77.2309 -18.5575 76.836 -17.0335 76.8265C-14.5387 76.9489 -12.0781 77.3426 -9.72283 77.9961C-7.44587 78.3825 -5.24109 78.9933 -3.16146 79.8136C-1.79647 80.4588 -0.731968 81.4281 -0.123793 82.5795L0.058468 82.6585C0.166508 82.6987 0.274548 82.7378 0.381924 82.7767L0.382599 82.7769C0.697649 82.891 1.00697 83.0031 1.29379 83.1327C2.16144 83.5569 2.9812 84.038 3.74417 84.5709C4.85757 85.4424 5.57049 86.5768 5.77194 87.7974C5.97339 89.018 5.65207 90.2563 4.85799 91.3196C3.91022 92.5746 2.38026 93.497 0.584998 93.8958C-0.663371 94.1488 -1.97384 94.1488 -3.22222 93.8958C-4.97636 93.5816 -6.68594 93.1316 -8.3255 92.5524L-12.9428 91.0983C-14.1548 90.842 -15.2586 90.3404 -16.1424 89.6443L-17.2765 88.5063L-17.56 88.0954ZM5.2218 120.859C3.60171 120.242 2.04237 119.563 0.48303 118.867C-0.626631 118.356 -1.54294 117.625 -2.17259 116.748C-2.80224 115.87 -3.12273 114.879 -3.10142 113.873C-3.09863 113.218 -2.9619 112.567 -2.6964 111.945C-2.58289 111.131 -2.25173 110.345 -1.72434 109.637C-1.09381 108.766 -0.178384 108.041 0.928556 107.535L2.6904 106.951C4.08027 106.682 5.53303 106.682 6.92289 106.951C7.71743 107.168 8.49504 107.421 9.25177 107.709C9.44945 107.786 9.62784 107.848 9.81048 107.912L9.81057 107.912L9.81082 107.912C10.0023 107.979 10.1984 108.047 10.4263 108.136C10.8718 108.31 11.3376 108.468 11.8033 108.626L11.8034 108.626C13.742 109.165 15.5859 109.892 17.2915 110.791C18.3878 111.373 19.3996 112.046 20.3089 112.798C21.2605 113.585 21.9443 114.546 22.2981 115.592C22.6518 116.639 22.6642 117.737 22.334 118.788C21.99 119.799 21.3051 120.719 20.3505 121.453C19.396 122.187 18.2067 122.708 16.9067 122.961C15.1633 123.243 13.3592 123.2 11.6414 122.834C9.41018 122.373 7.25568 121.71 5.2218 120.859ZM43.5372 115.137C44.1313 115.259 44.7246 115.381 45.3172 115.502C47.5724 115.965 49.8177 116.425 52.0629 116.876L52.2249 116.876L52.549 117.018C53.1362 117.303 53.7438 117.556 54.3513 117.793C55.2829 118.156 56.2549 118.472 57.227 118.772C59.1543 119.392 61.2901 119.498 63.3023 119.073C64.5599 118.789 65.6942 118.242 66.583 117.492C67.7604 116.847 68.6779 115.953 69.2281 114.916C69.7783 113.878 69.9385 112.74 69.6899 111.634C69.4413 110.528 68.7943 109.5 67.8244 108.671C66.8546 107.841 65.6021 107.245 64.2136 106.95C60.4983 106.108 56.7461 105.36 53.0005 104.612C51.193 104.252 49.387 103.891 47.5874 103.521C45.6251 103.116 43.5378 103.329 41.7735 104.112C40.0092 104.895 38.7085 106.186 38.1504 107.709C37.9615 108.223 37.8661 108.755 37.8669 109.29C37.862 110.614 38.414 111.904 39.4382 112.96C40.4625 114.016 41.9024 114.781 43.5372 115.137ZM36.3681 86.4201C36.0403 86.1527 35.7547 85.8555 35.5175 85.535L35.558 85.535C35.0416 84.85 34.7693 84.0697 34.7693 83.2749C34.7693 82.4802 35.0416 81.6999 35.558 81.0149C36.0777 80.3179 36.8165 79.7358 37.7046 79.3237L37.9072 79.2289L38.5552 78.5809C39.597 77.6737 40.9669 77.0344 42.4839 76.7475C44.189 76.4467 45.9629 76.4793 47.648 76.8424C48.256 76.934 48.8576 77.0501 49.4503 77.1901C50.5103 77.4468 51.5539 77.7422 52.6107 78.0413L52.6112 78.0415L52.9537 78.1384C54.6495 78.5388 56.0934 79.4178 57.004 80.6039C57.8277 81.648 58.1705 82.8801 57.976 84.0968C58.1463 84.5806 58.2281 85.0808 58.219 85.5825L58.219 85.6931C58.5427 86.1256 58.7525 86.6043 58.8359 87.101C58.9194 87.5976 58.8749 88.1023 58.7051 88.5854C58.362 89.5254 57.5726 90.328 56.4977 90.8297C55.9449 91.0923 55.3278 91.2617 54.686 91.3271C54.0443 91.3924 53.3921 91.3522 52.7715 91.209L52.2855 91.0667C50.3663 91.2564 48.4173 91.0266 46.6556 90.4029L46.6553 90.4028C45.1973 89.9287 43.7394 89.4546 42.2814 88.9647L41.9341 88.8452C41.175 88.5842 40.4068 88.3201 39.669 88.0322C39.3646 87.9253 39.0488 87.8006 38.7388 87.6781L38.7384 87.6779C38.636 87.6375 38.5342 87.5973 38.4337 87.5581L37.6641 87.2262C37.1777 87.0156 36.7397 86.7432 36.3681 86.4201ZM36.8954 45.1693C36.9048 44.6342 37.007 44.1025 37.1992 43.5888C37.7184 41.9968 39.0112 40.625 40.8039 39.764C41.7201 39.3285 42.7429 39.0472 43.8066 38.9383C44.8702 38.8295 45.9514 38.8954 46.9805 39.1318L48.4791 39.606C49.4177 39.5419 50.3634 39.606 51.2737 39.7956C53.4067 40.2193 55.5035 40.7471 57.5516 41.3761C59.1109 41.8028 60.65 42.2454 62.1688 42.7353L62.3511 42.7353C63.6278 43.0265 64.7861 43.5711 65.7128 44.3158L66.8873 45.517C67.5031 46.3376 67.8561 47.2619 67.9163 48.2117C67.9766 49.1615 67.7424 50.1086 67.2336 50.9726C66.7247 51.8367 65.9563 52.5921 64.9935 53.1749C64.0307 53.7577 62.9019 54.1506 61.703 54.3203C60.7485 54.8161 59.6663 55.1424 58.5326 55.2762C57.3989 55.41 56.2414 55.3481 55.1417 55.0947C52.9281 54.5339 50.7577 53.8743 48.6411 53.1191L48.6396 53.1186L48.6387 53.1184L48.637 53.1178C46.6133 52.4861 44.5896 51.8543 42.6872 51.2383C41.3496 50.9616 40.1279 50.4167 39.1433 49.6578L37.8877 48.3777C37.1988 47.3956 36.8563 46.2884 36.8954 45.1693ZM83.8164 88.0004C82.2132 87.6157 80.8586 86.7677 80.0295 85.6297C79.4406 84.7989 79.1469 83.8604 79.1789 82.9113C79.1788 82.4412 79.2605 81.9733 79.4219 81.5204C79.8068 80.4723 80.5968 79.5424 81.6842 78.8578C82.7716 78.1733 84.1032 77.7674 85.4973 77.6956C86.7278 77.1364 88.1236 76.8368 89.5475 76.8264L91.7346 77.0635C92.7983 77.232 93.8366 77.4863 94.8331 77.8221C95.7021 78.0063 96.5241 78.3056 97.2632 78.7072L98.0125 78.9126C98.9845 79.1971 99.9161 79.5132 100.868 79.8451C101.914 80.2438 102.866 80.7783 103.683 81.4256C104.917 82.3871 105.708 83.6402 105.934 84.9895C106.159 86.3388 105.806 87.7084 104.93 88.8848C104.054 90.0612 102.704 90.9783 101.09 91.493C99.4756 92.0077 97.6887 92.0912 96.0076 91.7304C94.7318 91.3985 93.4762 91.0349 92.2207 90.6556C91.7549 90.545 91.2891 90.4186 90.8436 90.2921C90.477 90.2018 90.1059 90.0971 89.7323 89.9917C89.3216 89.8759 88.908 89.7592 88.4945 89.6599C88.1097 89.5967 87.7452 89.5335 87.3806 89.4545C86.2206 89.2083 85.1473 88.7598 84.2417 88.1427L83.8164 88.0004ZM-7.2929 30.0916C-6.90021 31.1847 -6.15404 32.1807 -5.12603 32.9839C-4.07713 33.8441 -2.87709 34.5838 -1.56183 35.1808C-0.993408 35.4738 -0.405283 35.7429 0.20002 35.9868C1.28692 36.4268 2.41798 36.7968 3.58196 37.0932C4.94819 37.3974 6.3548 37.5777 7.77394 37.6305C9.66382 37.7892 11.5697 37.4795 13.2215 36.7455C14.9636 36.1902 16.4275 35.2085 17.3932 33.948C18.2847 32.737 18.6665 31.338 18.4848 29.9486C18.3032 28.5591 17.5672 27.2492 16.3807 26.2036C15.9185 25.6547 15.3438 25.1688 14.6796 24.7654C13.688 24.14 12.6464 23.5646 11.5609 23.0427C10.257 22.4271 8.84473 21.9639 7.36892 21.6676C5.7973 21.336 4.14102 21.336 2.5694 21.6676L2.12387 21.7783C0.955291 21.6305 -0.240582 21.6845 -1.37957 21.9363C-1.73455 22.0455 -2.08381 22.1591 -2.4395 22.2747C-2.75344 22.3769 -3.07238 22.4806 -3.40468 22.5843C-4.62688 23.1435 -5.64487 23.938 -6.36135 24.8918L-6.48285 25.0183C-7.22689 26.0215 -7.61159 27.1624 -7.59666 28.3215L-7.2929 30.0916ZM27.2733 12.8348C26.5779 12.4277 25.9934 11.9165 25.554 11.3312C24.929 10.5257 24.5998 9.60174 24.6022 8.66015C24.6262 7.72432 24.9611 6.80939 25.5742 6.00493L26.6273 4.94601C27.4819 4.29242 28.5445 3.82866 29.7055 3.6026L30.6775 3.36552C31.3507 2.35638 32.3487 1.50127 33.5734 0.88416C34.8715 0.304769 36.3409 -1.0267e-05 37.8363 -1.03323e-05C39.3316 -1.03977e-05 40.8011 0.304769 42.0991 0.88416C43.3403 1.42663 44.5815 1.85628 45.8227 2.28594C46.6067 2.5573 47.3906 2.82866 48.1745 3.12845C48.7648 3.34028 49.3395 3.57773 49.8958 3.83967C50.6149 4.1688 51.2929 4.54978 51.9209 4.97763C52.6579 5.38143 53.2504 5.92546 53.6423 6.55811C54.5416 7.55619 55.0098 8.75203 54.9789 9.97195C54.8979 10.6041 54.7966 11.2521 54.6548 11.8843C54.2953 12.9221 53.5976 13.8695 52.6297 14.6344C51.4675 15.5533 50.0029 16.2041 48.3973 16.5152C46.7168 16.8076 44.9744 16.8076 43.294 16.5152L42.4839 16.3887C40.3373 16.0252 38.2717 15.6143 36.1048 15.1559C35.6012 15.0494 35.09 14.9446 34.5764 14.8393C32.8802 14.4916 31.1587 14.1386 29.6042 13.7019C28.7611 13.5366 27.9687 13.2418 27.2733 12.8348ZM82.967 35.2596C83.6458 37.1224 85.2299 38.7046 87.3818 39.6691C88.5067 40.1894 89.6935 40.6234 90.9257 40.9651C91.4036 41.1387 91.9069 41.266 92.4243 41.3444C93.4166 41.4709 94.4494 41.5973 95.4215 41.6763C97.2442 41.8207 99.0736 41.4567 100.585 40.649C102.187 39.9913 103.461 38.9338 104.203 37.6453C104.945 36.3568 105.112 34.9115 104.679 33.54C104.245 32.1684 103.236 30.9498 101.811 30.0783C100.386 29.2069 98.6288 28.733 96.8188 28.7322C96.2518 28.6215 95.6847 28.5109 95.1177 28.4161C94.5507 28.3212 94.1456 28.2422 93.6799 28.1474L92.9711 28.0209C92.1972 27.8663 91.4005 27.7919 90.6017 27.7997C89.8094 27.7654 89.0154 27.8348 88.2526 28.0051C86.3514 28.409 84.7296 29.3796 83.7366 30.7078C83.0707 31.5879 82.7275 32.5939 82.7442 33.6159C82.7503 34.1681 82.8249 34.7186 82.967 35.2596ZM-19.0792 58.1927L-20.4967 56.7703C-21.3275 55.6914 -21.7683 54.4571 -21.7726 53.1984C-21.7742 51.65 -21.1255 50.144 -19.9258 48.9108C-18.7261 47.6777 -17.0416 46.7854 -15.1302 46.3707C-13.2643 45.9619 -11.2857 45.9893 -9.43963 46.4497C-9.01435 46.5761 -8.58908 46.7026 -8.1638 46.8132L-7.47527 47.0029C-7.07757 46.9793 -6.67815 46.9793 -6.28045 47.0029C-5.42504 47.0177 -4.57508 47.1132 -3.74906 47.2873C-3.03922 47.4659 -2.34854 47.6878 -1.68344 47.9511C-0.610135 48.3937 0.483426 48.7888 1.59724 49.1839C2.80218 49.4289 4.00712 49.6699 5.21206 49.9109C6.417 50.152 7.62195 50.393 8.82689 50.638C9.98603 50.8699 11.0744 51.2798 12.0284 51.8435C12.9824 52.4073 13.783 53.1136 14.3835 53.9215C14.984 54.7293 15.3723 55.6223 15.5258 56.5485C15.6793 57.4747 15.5949 58.4155 15.2776 59.316C14.9602 60.2164 14.4162 61.0586 13.6774 61.7932C12.9385 62.5278 12.0196 63.1403 10.9743 63.5948C9.92889 64.0493 8.778 64.3368 7.58875 64.4404C6.39951 64.5441 5.19572 64.4619 4.04762 64.1985L1.33397 63.677C0.160003 63.7814 -1.02868 63.7117 -2.16947 63.4715C-4.25568 63.1003 -6.29044 62.5709 -8.24481 61.891L-10.7965 61.1166C-12.2343 60.8005 -13.6316 60.437 -15.0289 60.0102C-16.561 59.6942 -17.9585 59.0671 -19.0792 58.1927Z" fill="#136E65"/>
</svg>
