<svg width="870" height="630" viewBox="0 0 870 630" fill="none" xmlns="http://www.w3.org/2000/svg">
<g clip-path="url(#clip0)">
<path d="M750.934 312.134C750.108 314.875 749.093 317.555 747.897 320.155C746.637 323.027 745.619 326.284 743.579 328.666C737.572 335.679 727.275 329.938 729.606 321.158C730.417 318.178 732.586 315.474 734.193 312.796C735.662 310.344 737.294 307.993 739.078 305.76C740.07 304.488 741.48 303.608 743.058 303.276C744.637 302.943 746.282 303.18 747.702 303.943C749.122 304.707 750.226 305.948 750.817 307.447C751.409 308.946 751.45 310.607 750.934 312.134Z" fill="#00A5CE"/>
<path d="M762.822 384.887C763.712 388.735 763.527 392.754 762.287 396.506C761.585 398.296 760.263 399.775 758.562 400.675C756.861 401.574 754.894 401.833 753.018 401.406C751.143 400.979 749.484 399.893 748.342 398.346C747.201 396.799 746.653 394.894 746.799 392.977C747.117 389.05 748.505 385.286 750.812 382.091C751.594 381.05 752.661 380.258 753.884 379.81C755.107 379.363 756.434 379.279 757.702 379.57C758.973 379.878 760.129 380.542 761.034 381.485C761.939 382.428 762.555 383.61 762.809 384.892L762.822 384.887Z" fill="#00A5CE"/>
<path d="M722.573 386.594C721.86 388.603 721.049 390.592 720.135 392.546C719.093 394.79 718.245 397.409 716.598 399.261C714.088 402.129 710.433 403.314 706.919 401.423C705.315 400.561 704.075 399.15 703.426 397.449C702.778 395.748 702.764 393.87 703.387 392.158C704.75 387.983 708.522 383.926 711.329 380.55C715.856 375.128 725.194 379.503 722.588 386.633L722.573 386.594Z" fill="#00A5CE"/>
<path d="M688.865 283.874C689.15 286.653 689.17 289.453 688.927 292.236C688.669 297.344 682.996 300.587 678.4 298.851C673.804 297.116 671.672 290.982 674.83 286.971C676.493 284.723 678.367 282.641 680.428 280.751C681.142 280.189 681.99 279.82 682.888 279.68C683.787 279.54 684.706 279.633 685.558 279.952C686.409 280.27 687.164 280.803 687.749 281.498C688.334 282.193 688.73 283.028 688.899 283.92L688.865 283.874Z" fill="#00A5CE"/>
<path d="M742.761 209.343C743.379 209.881 744.172 210.29 745.098 211.037C746.429 212.18 747.524 213.571 748.323 215.132C750.104 217.73 751.063 220.802 751.077 223.952C750.918 230.342 741.746 232.951 738.012 227.945C736.23 225.355 735.264 222.292 735.237 219.149C735.012 217.495 735.1 215.814 735.494 214.192C735.717 213.57 735.981 212.964 736.284 212.378C737.073 210.563 736.124 213.042 736.552 211.265C737.155 208.787 740.953 207.772 742.807 209.385L742.761 209.343Z" fill="#00A5CE"/>
<path d="M834.127 245.52C837.139 248.962 840.872 252.285 841.842 256.923C843.223 263.593 834.927 268.502 829.587 264.535C825.844 261.757 824.386 256.8 822.553 252.683C821.885 251.167 821.787 249.461 822.279 247.879C822.77 246.297 823.817 244.946 825.226 244.073C826.636 243.201 828.313 242.867 829.948 243.133C831.584 243.399 833.068 244.246 834.127 245.52Z" fill="#00A5CE"/>
<path d="M802.141 307.956C801.492 309.249 802.21 305.614 802.203 305.557L801.832 304.425C802.063 305.011 802.042 304.959 801.666 304.31C801.49 303.937 801.223 303.613 800.889 303.369C800.351 302.92 800.253 302.823 800.602 303.061C800.992 303.554 802.536 303.577 799.939 302.677C801.767 303.383 803.279 304.724 804.198 306.454C805.117 308.184 805.382 310.188 804.944 312.098C804.505 314.007 803.394 315.696 801.812 316.855C800.231 318.014 798.285 318.565 796.331 318.408C787.277 317.769 783.113 305.221 790.584 299.631C791.853 298.641 793.406 298.085 795.015 298.043C796.623 298.002 798.202 298.477 799.52 299.4C801.867 301.27 803.56 304.992 802.086 307.933L802.141 307.956Z" fill="#00A5CE"/>
<path d="M818.762 186.809C818.422 189.818 817.771 192.785 816.82 195.661C816.519 196.652 816.017 197.571 815.346 198.36C814.675 199.15 813.849 199.794 812.919 200.252C811.989 200.71 810.975 200.972 809.94 201.023C808.905 201.073 807.871 200.911 806.901 200.545C805.932 200.18 805.048 199.62 804.304 198.899C803.56 198.178 802.972 197.313 802.577 196.356C802.182 195.398 801.987 194.37 802.006 193.335C802.024 192.299 802.256 191.279 802.685 190.336C803.872 187.542 805.343 184.878 807.073 182.383C810.446 177.01 819.869 180.495 818.822 186.77L818.762 186.809Z" fill="#00A5CE"/>
<path d="M740.796 144.553C737.105 154.275 722.026 148.616 725.685 138.891C729.344 129.167 744.449 134.816 740.796 144.553Z" fill="#00A5CE"/>
<path d="M678.418 212.642C674.119 224.062 656.349 217.419 660.657 205.981C664.964 194.542 682.708 201.196 678.418 212.642Z" fill="#00A5CE"/>
<path d="M738.389 474.919C740.643 478.69 741.935 482.539 740.176 486.78C738.767 490.266 733.661 492.58 730.461 489.692C728.333 488.014 726.864 485.639 726.313 482.986C726.002 481.003 725.982 478.985 726.254 476.997C726.394 475.602 726.984 474.291 727.934 473.26C728.885 472.229 730.145 471.535 731.524 471.282C732.908 471.101 734.314 471.354 735.547 472.007C736.781 472.66 737.78 473.68 738.407 474.926L738.389 474.919Z" fill="#00A5CE"/>
<path d="M807.705 459.318L807.59 460.325C807.566 460.704 807.491 461.077 807.366 461.435L807.265 461.866C807.088 460.538 807.528 462.304 807.299 462.334L807.288 461.391C807.423 461.999 807.392 461.997 807.288 461.391C806.733 460.783 807.191 461.144 807.36 461.573C807.772 462.37 808.102 463.207 808.345 464.071C808.227 463.772 807.755 462.575 808.208 463.494C808.703 464.802 808.925 466.197 808.861 467.595C808.788 468.712 808.437 469.793 807.842 470.741C807.247 471.689 806.425 472.475 805.451 473.028C804.509 473.587 803.458 473.936 802.369 474.052C801.279 474.167 800.178 474.046 799.14 473.697C794.377 472.568 792.314 466.798 792.763 462.442C793.184 458.549 795.165 454.566 799.014 453.109C802.863 451.652 808.56 454.426 807.785 459.331L807.705 459.318Z" fill="#00A5CE"/>
<path d="M827.98 358.089C827.014 359.673 825.585 360.923 823.886 361.672C822.221 362.365 820.354 362.399 818.665 361.767C816.977 361.134 815.593 359.882 814.796 358.266C813.99 356.587 813.729 354.698 814.05 352.863C814.154 351.677 814.532 350.531 815.153 349.514C815.774 348.498 816.622 347.638 817.631 347.003C818.639 346.369 819.781 345.975 820.966 345.854C822.152 345.734 823.349 345.888 824.465 346.307C825.58 346.725 826.583 347.396 827.396 348.266C828.208 349.137 828.808 350.183 829.149 351.324C829.489 352.465 829.561 353.669 829.358 354.843C829.156 356.016 828.684 357.127 827.98 358.089Z" fill="#00A5CE"/>
<path d="M774.558 589.114C775.58 592.475 776.023 595.985 775.867 599.495C775.801 603.489 775.084 607.319 771.741 609.945C770.263 611.089 768.401 611.621 766.542 611.43C764.682 611.24 762.968 610.341 761.754 608.922C759.048 606.141 758.921 602.192 759.359 598.533C759.606 595.438 760.338 592.4 761.528 589.531C762.044 588.246 762.918 587.136 764.046 586.331C765.174 585.527 766.509 585.062 767.893 584.993C770.518 584.935 773.699 586.401 774.623 589.088L774.558 589.114Z" fill="#00A5CE"/>
<path d="M696.116 476.762L696.56 477.203C702.349 482.918 694.518 492.212 687.616 489.627C679.651 486.634 681.958 476.496 689.062 474.402L689.648 474.171C690.862 473.935 692.118 474.041 693.275 474.476C694.433 474.912 695.446 475.66 696.202 476.638L696.545 477.164C700.509 483.403 695.566 492.581 687.601 489.588C680.735 487.019 680.847 474.86 689.047 474.363C690.326 474.153 691.637 474.258 692.867 474.669C694.096 475.08 695.206 475.786 696.1 476.723L696.116 476.762Z" fill="#00A5CE"/>
<path d="M774.136 24.1802C771.803 18.8323 770.564 11.7599 774.03 6.62098C774.751 5.65034 775.682 4.85588 776.755 4.29764C777.827 3.7394 779.012 3.43199 780.221 3.39862C781.43 3.36525 782.63 3.6068 783.731 4.10503C784.832 4.60325 785.805 5.3451 786.577 6.27454C790.233 11.2364 789.444 18.2812 787.333 23.7277C785.223 29.1742 776.642 29.9262 774.136 24.1802Z" fill="#00A5CE"/>
<path d="M802.843 113.796C803.115 109.18 803.185 103.861 805.297 99.6768C807.028 96.2438 810.602 94.0531 814.444 95.515C818.285 96.977 819.581 100.915 818.602 104.653C817.393 109.218 813.975 113.256 811.143 116.912C810.538 117.702 809.696 118.276 808.74 118.55C807.783 118.824 806.765 118.783 805.834 118.433C804.903 118.084 804.11 117.444 803.571 116.609C803.033 115.774 802.778 114.788 802.843 113.796Z" fill="#00A5CE"/>
<path d="M696.919 78.3231C693.325 77.3581 690.001 75.5835 687.201 73.1355C684.22 70.7634 683.008 66.0856 685.585 62.8903C686.34 61.8714 687.337 61.0552 688.484 60.5146C690.268 59.7408 692.283 59.6919 694.101 60.3783C695.92 61.0647 697.398 62.4323 698.224 64.1909C699.721 67.4935 701.188 71.2142 701.043 74.8935C700.948 75.8932 700.46 76.8147 699.688 77.4571C698.915 78.0996 697.92 78.4109 696.919 78.3231Z" fill="#00A5CE"/>
<path d="M653.236 153.953C652.152 153.17 651.027 152.444 649.867 151.779C648.399 150.687 647.048 149.446 645.835 148.077C642.259 144.272 644.287 137.775 648.726 135.755C653.165 133.734 659.302 136.516 659.924 141.682C660.168 143.485 660.231 145.308 660.113 147.124C659.885 148.438 659.729 149.764 659.647 151.095C659.657 154.097 655.521 155.893 653.27 154L653.236 153.953Z" fill="#00A5CE"/>
<path d="M623.633 274.416C622.029 272.042 620.232 269.804 618.258 267.727C616.548 265.954 615.519 263.635 615.351 261.178C615.183 258.72 615.887 256.282 617.339 254.291C618.869 252.064 622.595 250.716 625.138 251.938C627.442 252.829 629.369 254.483 630.596 256.625C631.738 259.006 632.011 261.71 631.369 264.272C630.726 266.959 630.294 269.692 630.078 272.447C629.932 275.51 625.346 277.198 623.568 274.442L623.633 274.416Z" fill="#00A5CE"/>
<path d="M607.566 208.391C606.057 207.039 604.808 205.422 603.88 203.622C603.171 202.013 603.012 200.216 603.426 198.508C603.839 196.799 604.804 195.274 606.171 194.166C607.55 193.137 609.216 192.563 610.937 192.523C612.657 192.483 614.347 192.979 615.772 193.943C616.925 194.633 617.944 195.525 618.78 196.575C619.984 198.128 620.597 200.057 620.507 202.02C620.418 203.983 619.634 205.85 618.294 207.289C615.757 209.972 610.553 211.122 607.545 208.339L607.566 208.391Z" fill="#00A5CE"/>
<path d="M766.989 518.808L766.171 519.671C761.521 524.631 754.445 521.948 754.149 515.166L754.111 513.964C753.683 501.657 775.46 509.726 766.983 518.795L766.989 518.808Z" fill="#00A5CE"/>
<path d="M824.917 412.716C828.43 414.338 833.245 415.942 834.64 419.976C835.006 420.836 835.175 421.768 835.135 422.702C835.094 423.636 834.845 424.549 834.405 425.375C834.002 426.215 833.401 426.944 832.653 427.501C831.906 428.058 831.034 428.424 830.113 428.57C827.518 428.789 824.935 428.04 822.861 426.468C821.567 425.476 820.497 424.289 819.276 423.252C818.128 422.382 817.325 421.133 817.01 419.727C816.696 418.322 816.89 416.85 817.557 415.572C818.23 414.283 819.352 413.285 820.711 412.765C822.07 412.246 823.572 412.243 824.932 412.755L824.917 412.716Z" fill="#00A5CE"/>
</g>
<path d="M144.155 276.803C142.805 279.277 141.285 281.639 139.606 283.874C137.811 286.358 136.171 289.288 133.724 291.077C126.518 296.343 117.763 287.877 121.786 279.867C123.171 277.153 125.807 275.082 127.898 272.884C129.809 270.87 131.856 269.001 134.027 267.288C135.24 266.307 136.776 265.825 138.364 265.928C139.952 266.032 141.488 266.714 142.702 267.854C143.915 268.993 144.726 270.517 144.992 272.155C145.258 273.793 144.962 275.44 144.155 276.803Z" fill="#00A5CE"/>
<path d="M138.541 350.219C138.619 354.234 137.631 358.125 135.685 361.466C134.65 363.031 133.084 364.122 131.271 364.541C129.458 364.96 127.519 364.68 125.806 363.751C124.093 362.822 122.721 361.306 121.938 359.479C121.155 357.652 121.014 355.635 121.54 353.795C122.637 350.032 124.728 346.717 127.585 344.212C128.545 343.404 129.728 342.917 130.992 342.811C132.255 342.705 133.544 342.984 134.702 343.613C135.859 344.261 136.834 345.227 137.512 346.397C138.189 347.568 138.542 348.894 138.528 350.22L138.541 350.219Z" fill="#00A5CE"/>
<path d="M99.1216 342.463C98.0277 344.25 96.843 345.988 95.5652 347.664C94.1068 349.592 92.7584 351.943 90.7954 353.318C87.7944 355.46 84.0309 355.63 81.0269 352.804C79.6551 351.516 78.7459 349.786 78.4655 347.931C78.1851 346.077 78.5523 344.221 79.4999 342.705C81.6601 338.961 86.1181 335.992 89.5076 333.431C94.9707 329.323 103.085 336.189 99.1285 342.506L99.1216 342.463Z" fill="#00A5CE"/>
<path d="M94.1201 256.322C93.8317 259.131 93.2857 261.889 92.4893 264.558C91.2085 269.507 85.0996 271.148 81.0319 268.19C76.9642 265.233 76.1542 258.623 80.0011 255.542C82.0533 253.786 84.2763 252.25 86.6395 250.955C87.4401 250.597 88.3294 250.465 89.2216 250.572C90.1138 250.679 90.9787 251.022 91.7329 251.567C92.4871 252.112 93.1051 252.841 93.5272 253.684C93.9493 254.526 94.1614 255.454 94.1428 256.378L94.1201 256.322Z" fill="#00A5CE"/>
<path d="M160.338 174.643C160.819 175.334 161.492 175.948 162.225 176.927C163.263 178.401 164.027 180.054 164.474 181.792C165.65 184.807 165.949 188.063 165.332 191.138C163.902 197.327 154.65 197.39 152.097 191.498C150.919 188.491 150.612 185.242 151.215 182.169C151.332 180.496 151.752 178.88 152.452 177.405C152.788 176.86 153.16 176.34 153.566 175.85C154.68 174.294 153.281 176.454 154.044 174.837C155.114 172.584 158.931 172.621 160.374 174.696L160.338 174.643Z" fill="#00A5CE"/>
<path d="M240.627 231.394C242.806 235.567 245.696 239.819 245.692 244.605C245.672 251.486 236.789 254.029 232.497 248.715C229.488 244.992 229.092 239.762 228.17 235.25C227.837 233.591 228.086 231.901 228.87 230.49C229.655 229.08 230.922 228.045 232.439 227.575C233.956 227.106 235.62 227.233 237.125 227.935C238.629 228.637 239.873 229.865 240.627 231.394Z" fill="#00A5CE"/>
<path d="M195.07 284.723C194.189 285.813 195.609 282.448 195.613 282.39L195.486 281.181C195.589 281.817 195.58 281.76 195.35 281.023C195.257 280.609 195.066 280.22 194.795 279.89C194.37 279.304 194.296 279.183 194.583 279.511C194.857 280.099 196.331 280.541 194.025 278.954C195.634 280.143 196.812 281.867 197.344 283.811C197.876 285.755 197.726 287.789 196.922 289.54C196.117 291.292 194.712 292.644 192.964 293.35C191.216 294.055 189.241 294.067 187.4 293.382C178.856 290.297 177.394 276.876 185.676 273.43C187.091 272.806 188.691 272.682 190.241 273.078C191.79 273.475 193.207 274.369 194.283 275.631C196.155 278.1 197.027 282.205 195.023 284.685L195.07 284.723Z" fill="#00A5CE"/>
<path d="M239.674 170.933C238.739 173.797 237.514 176.535 236.018 179.103C235.528 179.995 234.86 180.761 234.055 181.355C233.251 181.948 232.326 182.355 231.34 182.552C230.353 182.749 229.326 182.73 228.32 182.498C227.315 182.265 226.353 181.824 225.495 181.201C224.637 180.578 223.9 179.786 223.331 178.875C222.761 177.964 222.371 176.953 222.185 175.905C221.998 174.857 222.019 173.793 222.246 172.781C222.473 171.768 222.902 170.828 223.505 170.018C225.211 167.597 227.163 165.378 229.331 163.398C233.66 159.037 242.015 165.029 239.74 170.911L239.674 170.933Z" fill="#00A5CE"/>
<path d="M117.772 139.325C116.716 144.325 114.234 148.795 110.641 152.172C107.275 155.422 101.244 151.9 101.491 147.153C101.769 142.006 103.502 137.152 106.475 133.19C107.313 131.963 108.564 131.113 110.004 130.792C111.444 130.471 112.98 130.699 114.337 131.436C115.694 132.174 116.785 133.372 117.414 134.817C118.043 136.262 118.17 137.859 117.772 139.325Z" fill="#00A5CE"/>
<path d="M93.5692 431.877C94.9643 436.172 95.4251 440.283 92.8952 443.949C90.8504 446.973 85.5113 447.85 83.0363 444.163C81.341 441.946 80.4154 439.228 80.4217 436.486C80.5229 434.465 80.9088 432.489 81.5672 430.619C81.9805 429.295 82.8066 428.173 83.9209 427.424C85.0352 426.674 86.3774 426.337 87.745 426.464C89.103 426.662 90.3945 427.291 91.4408 428.263C92.487 429.235 93.2364 430.502 93.585 431.889L93.5692 431.877Z" fill="#00A5CE"/>
<path d="M164.668 433.113L164.356 434.067C164.257 434.431 164.109 434.777 163.918 435.094L163.734 435.488C163.832 434.14 163.898 435.987 163.673 435.955L163.852 435.029C163.859 435.661 163.829 435.65 163.852 435.029C163.443 434.283 163.809 434.76 163.884 435.227C164.118 436.119 164.266 437.028 164.324 437.939C164.272 437.614 164.061 436.315 164.309 437.337C164.52 438.752 164.452 440.179 164.11 441.529C163.814 442.602 163.261 443.566 162.501 444.332C161.74 445.099 160.795 445.645 159.752 445.922C158.737 446.214 157.66 446.271 156.594 446.088C155.528 445.905 154.498 445.488 153.575 444.864C149.243 442.466 148.428 436.257 149.735 432.115C150.922 428.418 153.619 425.057 157.597 424.675C161.575 424.294 166.471 428.556 164.743 433.147L164.668 433.113Z" fill="#00A5CE"/>
<path d="M208.55 339.585C207.301 340.879 205.674 341.719 203.889 341.992C202.147 342.22 200.344 341.744 198.848 340.662C197.352 339.58 196.274 337.972 195.834 336.166C195.399 334.295 195.53 332.367 196.21 330.651C196.55 329.513 197.145 328.489 197.948 327.659C198.751 326.829 199.74 326.215 200.838 325.866C201.936 325.517 203.114 325.441 204.278 325.646C205.443 325.85 206.563 326.329 207.551 327.044C208.539 327.759 209.368 328.692 209.974 329.769C210.58 330.846 210.945 332.039 211.042 333.253C211.138 334.468 210.964 335.671 210.532 336.77C210.1 337.868 209.421 338.832 208.55 339.585Z" fill="#00A5CE"/>
<path d="M101.681 551.423C101.984 554.987 101.701 558.541 100.847 561.931C99.9811 565.82 98.5258 569.371 94.8013 571.032C93.1577 571.75 91.2705 571.765 89.5309 571.075C87.7913 570.384 86.3327 569.041 85.4574 567.323C83.4288 563.869 84.1008 559.973 85.2552 556.513C86.114 553.553 87.4243 550.78 89.1382 548.297C89.8904 547.18 90.9494 546.331 92.1897 545.851C93.4301 545.37 94.7999 545.277 96.137 545.584C98.6588 546.24 101.406 548.537 101.749 551.415L101.681 551.423Z" fill="#00A5CE"/>
<path d="M241.944 95.7673C243.137 91.307 244.279 86.1021 247.154 82.5672C249.51 79.6665 253.388 78.4882 256.783 80.9702C260.179 83.4522 260.629 87.6734 258.934 91.0782C256.849 95.2329 252.749 98.2683 249.29 101.089C248.549 101.699 247.623 102.034 246.649 102.042C245.675 102.051 244.704 101.733 243.881 101.137C243.057 100.54 242.424 99.6956 242.075 98.7287C241.726 97.7617 241.68 96.7234 241.944 95.7673Z" fill="#00A5CE"/>
<path d="M147.266 36.7251C144.03 34.8092 141.214 32.1757 139.033 29.0264C136.664 25.9022 136.445 21.0053 139.545 18.5825C140.471 17.7921 141.585 17.2648 142.789 17.0477C144.646 16.7751 146.579 17.273 148.176 18.4359C149.774 19.5987 150.91 21.3349 151.345 23.276C152.112 26.9072 152.765 30.9382 151.889 34.4926C151.597 35.443 150.948 36.211 150.081 36.6292C149.215 37.0474 148.203 37.0819 147.266 36.7251Z" fill="#00A5CE"/>
<path d="M104.701 53.5735C103.651 50.8245 102.387 48.1568 100.924 45.5978C99.6519 43.4065 99.1363 40.8671 99.4679 38.4258C99.7994 35.9846 100.957 33.7975 102.737 32.2488C104.638 30.4918 108.453 30.1845 110.628 32.0638C112.643 33.5552 114.145 35.6898 114.885 38.1102C115.495 40.7399 115.215 43.4509 114.091 45.7748C112.942 48.2209 111.985 50.7691 111.228 53.3961C110.476 56.3438 105.775 56.749 104.634 53.5809L104.701 53.5735Z" fill="#00A5CE"/>
<path d="M111.411 481.38L110.449 482.006C104.973 485.615 98.7094 481.049 99.7958 474.298L100.003 473.105C102.08 460.886 121.396 474.759 111.408 481.366L111.411 481.38Z" fill="#00A5CE"/>
<path d="M192.372 391.56C195.416 394.106 199.712 396.988 200.236 401.325C200.414 402.268 200.389 403.227 200.162 404.132C199.934 405.037 199.511 405.865 198.923 406.555C198.367 407.27 197.642 407.822 196.813 408.165C195.983 408.507 195.073 408.63 194.16 408.522C191.626 408.031 189.299 406.595 187.626 404.489C186.584 403.163 185.798 401.709 184.835 400.36C183.909 399.194 183.391 397.751 183.373 396.287C183.354 394.822 183.837 393.431 184.735 392.36C185.641 391.279 186.918 390.604 188.327 390.465C189.736 390.325 191.177 390.73 192.379 391.603L192.372 391.56Z" fill="#00A5CE"/>
<defs>
<clipPath id="clip0">
<rect width="562" height="288" fill="white" transform="matrix(0.366737 0.930325 0.930325 -0.366737 517 106.62)"/>
</clipPath>
</defs>
</svg>
