<svg width="136" height="241" viewBox="0 0 136 241" fill="none" xmlns="http://www.w3.org/2000/svg">
<path fill-rule="evenodd" clip-rule="evenodd" d="M36.7938 94.8127L36.7939 94.8122L36.794 94.8121C37.5553 92.8114 38.3115 90.824 38.9856 88.754C39.2024 88.0999 39.4663 87.4583 39.7277 86.8228C40.6086 84.6806 41.4618 82.6059 40.3952 80.3465C40.1239 79.8459 39.665 79.4734 39.1193 79.3109C38.5735 79.1485 37.9856 79.2094 37.4847 79.4802C34.9264 81.0635 34.4629 84.3925 34.0549 87.3231L34.0549 87.3233L34.0548 87.3233C34.0031 87.6953 33.9522 88.0609 33.898 88.4156C33.7928 89.0395 33.6277 89.7146 33.4568 90.4137C33.0105 92.2388 32.5243 94.2278 32.9576 95.8974C33.0613 96.2621 33.2789 96.5841 33.5786 96.8163C33.8783 97.0485 34.2444 97.1788 34.6234 97.188C35.0025 97.1973 35.3745 97.0851 35.6852 96.8678C35.9959 96.6505 36.229 96.3395 36.3503 95.9803C36.498 95.5901 36.646 95.2011 36.7938 94.8127ZM34.6826 139.232L34.4198 139.279L34.4084 139.317C31.8025 139.638 31.0744 136.278 30.6455 134.299C30.6253 134.205 30.6058 134.115 30.5867 134.028C30.3987 133.185 30.1084 132.291 29.8111 131.376C29.2001 129.495 28.5599 127.525 28.7183 125.711C28.7865 124.912 29.1563 124.168 29.7526 123.632C30.3489 123.096 31.1269 122.807 31.9287 122.824C32.7304 122.84 33.4957 123.162 34.0691 123.722C34.6425 124.283 34.981 125.041 35.0159 125.842C35.0971 126.932 35.3156 128.022 35.5342 129.112C35.6959 129.919 35.8577 130.726 35.9642 131.534C36.4383 133.501 36.6046 135.529 36.4572 137.547C36.3411 137.962 36.1148 138.338 35.8024 138.634C35.4899 138.931 35.103 139.138 34.6826 139.232ZM33.4256 173.945C34.3595 172.279 33.9838 169.896 33.6628 167.859C33.5885 167.387 33.5171 166.934 33.4656 166.513C33.3334 165.473 33.1269 164.447 32.9198 163.417C32.8089 162.866 32.6979 162.314 32.598 161.759C32.4888 161.175 32.2766 160.493 32.0795 159.859C31.9105 159.315 31.7526 158.807 31.6802 158.428C31.1659 155.507 26.2092 155.194 25.6925 158.278C25.5969 158.933 25.6315 159.601 25.7941 160.243C25.9568 160.885 26.2444 161.488 26.6404 162.019C27.1308 163.233 27.5561 164.473 27.9147 165.733C28.2613 166.702 28.6623 167.675 29.066 168.655C29.7263 170.258 30.3934 171.877 30.84 173.521C30.9052 173.8 31.0519 174.054 31.2615 174.249C31.4711 174.445 31.7342 174.574 32.0172 174.619C32.3002 174.665 32.5905 174.626 32.851 174.506C33.1115 174.386 33.3305 174.192 33.4802 173.947L33.4256 173.945ZM57.5527 138.347C57.9844 136.707 57.6321 134.93 57.2872 133.19C57.1248 132.371 56.964 131.559 56.8875 130.775C56.732 129.345 56.5511 127.908 56.3194 126.455C56.2795 126.229 56.2437 126 56.2079 125.771L56.2079 125.771L56.2079 125.771L56.2078 125.771L56.2078 125.771L56.2078 125.771L56.2078 125.771L56.2078 125.77L56.2077 125.77L56.2077 125.77L56.2077 125.77L56.2077 125.77L56.2077 125.77L56.2076 125.77L56.2076 125.77L56.2076 125.769L56.2076 125.769L56.2075 125.769L56.2075 125.769L56.2075 125.769L56.2075 125.769L56.2075 125.769L56.2074 125.769L56.2074 125.768L56.2074 125.768C56.1417 125.348 56.0757 124.927 55.9837 124.515C55.9784 124.533 55.9555 124.415 55.9209 124.238C55.8183 123.711 55.6131 122.658 55.4638 123.07C55.5469 122.688 55.5601 122.294 55.5022 121.906C55.4351 121.455 55.2737 121.024 55.0285 120.641C54.7834 120.257 54.4601 119.93 54.0797 119.68C53.6994 119.429 53.2705 119.262 52.8212 119.189C52.3718 119.116 51.9122 119.139 51.4722 119.256C51.0322 119.372 50.6218 119.581 50.2678 119.867C49.9138 120.153 49.6242 120.511 49.4179 120.917C49.2116 121.323 49.0932 121.767 49.0706 122.222C49.0555 123.37 49.2989 124.506 49.7826 125.547C50.2942 127.121 50.7037 128.726 51.0084 130.353C51.1439 130.978 51.2458 131.632 51.3487 132.291L51.3487 132.291C51.4893 133.193 51.6315 134.105 51.8629 134.966C52.3346 136.039 52.7416 137.139 53.0817 138.261C53.4715 140.577 57.0367 140.546 57.6163 138.366L57.5527 138.347ZM60.6013 102.217C61.9414 100.594 61.5274 98.0041 61.1749 95.7982C61.0835 95.2264 60.9963 94.6805 60.9448 94.1839C60.8903 93.6585 60.8517 93.1235 60.8129 92.5834L60.8128 92.5826L60.8128 92.5823C60.6732 90.6422 60.5289 88.6362 59.6219 86.7755C58.0781 83.5489 52.9833 86.349 54.8023 89.3947C55.5195 90.5935 55.6856 91.9933 55.85 93.3775C55.9164 93.9369 55.9825 94.4938 56.0845 95.0339C56.5084 97.2354 56.9999 99.5815 57.6027 101.739C57.6889 102.047 57.8615 102.324 58.1001 102.536C58.3387 102.749 58.6333 102.889 58.949 102.939C59.2646 102.989 59.588 102.948 59.8809 102.82C60.1738 102.692 60.4238 102.483 60.6013 102.217ZM82.4193 90.6962C83.2533 92.9991 84.0894 95.3076 84.362 97.7371L84.3469 97.7879C84.3689 98.2601 84.2383 98.7269 83.9743 99.1191C83.7104 99.5114 83.3273 99.8082 82.8815 99.9657C82.4358 100.123 81.9512 100.133 81.4994 99.9938C81.0477 99.8545 80.6528 99.5735 80.3731 99.1923C79.5392 98.0644 79.0741 96.6275 78.623 95.2338C78.4285 94.6328 78.2366 94.0398 78.0188 93.483C77.1398 91.6725 76.388 89.8029 75.7688 87.8879C75.5436 87.2041 75.5906 86.4598 75.9 85.8098C76.2095 85.1598 76.7575 84.6541 77.4303 84.3978C78.1137 84.1621 78.8623 84.2042 79.515 84.5149C80.1678 84.8256 80.6724 85.3802 80.9203 86.0593C81.307 87.6252 81.8626 89.1593 82.4192 90.6961L82.4193 90.6962ZM112.594 119.603C111.471 117.72 110.395 115.805 109.321 113.892L109.321 113.891C107.967 111.481 106.616 109.075 105.175 106.741C102.589 102.554 96.589 106.953 99.8485 110.69C100.219 111.105 100.551 111.534 100.883 111.963L100.883 111.963L100.884 111.963L100.884 111.964L100.884 111.964L100.884 111.964L100.884 111.964C101.352 112.568 101.819 113.171 102.389 113.729C103.505 114.839 104.538 116.03 105.479 117.292C105.699 117.576 105.92 117.879 106.147 118.19L106.147 118.19L106.147 118.19L106.147 118.19L106.148 118.19L106.148 118.19L106.148 118.19L106.148 118.19L106.148 118.19L106.148 118.19L106.148 118.19L106.148 118.191L106.148 118.191L106.148 118.191L106.148 118.191L106.148 118.191L106.148 118.191L106.148 118.191L106.148 118.191C107.44 119.956 108.906 121.959 111.118 122.194C111.413 122.195 111.704 122.12 111.961 121.976C112.219 121.831 112.435 121.623 112.588 121.37C112.741 121.118 112.826 120.83 112.835 120.535C112.844 120.24 112.777 119.947 112.639 119.686L112.594 119.603ZM106.232 148.88C107.409 150.642 108.767 153.19 108.598 155.34C108.559 155.586 108.473 155.823 108.343 156.036C108.213 156.249 108.042 156.434 107.84 156.581C107.638 156.728 107.409 156.834 107.166 156.892C106.924 156.95 106.672 156.96 106.425 156.921C104.038 156.315 102.804 154.224 101.555 152.107C100.664 150.597 99.7655 149.074 98.4351 148.067C95.2394 145.649 99.392 140.577 102.37 143.262C103.563 144.346 104.392 145.781 105.181 147.147C105.53 147.75 105.871 148.34 106.232 148.88ZM119.49 190.141C119.853 190.249 119.188 189.457 118.828 189.028C118.759 188.946 118.701 188.876 118.663 188.83C117.921 187.931 117.121 187.084 116.305 186.246C115.368 185.284 114.525 184.252 113.683 183.222L113.683 183.222L113.683 183.222L113.683 183.222L113.683 183.222L113.683 183.222L113.683 183.222L113.683 183.222L113.683 183.222L113.683 183.222L113.683 183.222L113.683 183.222L113.683 183.222L113.683 183.222L113.683 183.221L113.683 183.221L113.683 183.221L113.683 183.221L113.682 183.221C112.974 182.354 112.266 181.488 111.505 180.667C109.059 177.96 104.773 182.135 107.425 184.474C107.965 184.941 108.498 185.405 109.028 185.868L109.029 185.868L109.029 185.868L109.029 185.868L109.029 185.868C110.9 187.498 112.741 189.102 114.75 190.681C115.026 190.891 115.297 191.12 115.568 191.349C116.795 192.385 118.031 193.429 119.751 192.751C120.977 192.258 120.506 190.54 119.479 190.179L119.49 190.141ZM106.107 206.469C107.298 207.691 108.979 209.415 108.925 210.946L108.914 210.984C108.83 213.961 103.41 210.37 102.74 209.88C102.049 209.372 101.239 208.91 100.418 208.44C97.8112 206.951 95.0817 205.392 95.6194 202.101C96.0232 199.676 99.3033 199.393 100.735 200.857C100.998 201.121 101.157 201.454 101.312 201.778C101.366 201.891 101.42 202.003 101.477 202.111C101.741 202.27 102.68 203.11 102.68 203.11C102.98 203.399 103.286 203.684 103.592 203.97L103.592 203.97L103.592 203.97L103.592 203.97L103.592 203.97L103.592 203.97L103.592 203.97L103.592 203.97L103.592 203.97L103.592 203.97L103.592 203.97L103.592 203.971L103.592 203.971L103.592 203.971L103.593 203.971L103.593 203.971L103.593 203.971C104.261 204.595 104.93 205.219 105.547 205.887C105.712 206.063 105.902 206.259 106.107 206.469ZM94.0888 178.983C93.9614 178.402 93.8874 177.81 93.8679 177.215C93.5657 175.75 93.1316 174.315 92.5708 172.928C91.7727 170.383 90.6855 167.938 89.3303 165.64C88.9367 165.179 88.3969 164.867 87.8008 164.755C87.2048 164.643 86.5886 164.74 86.0548 165.027C85.521 165.315 85.1019 165.777 84.8673 166.336C84.6327 166.895 84.5968 167.518 84.7656 168.1C85.4503 169.5 86.2144 170.859 87.0542 172.171C87.4997 172.963 87.9036 173.777 88.3075 174.592L88.3076 174.592L88.3077 174.592L88.3078 174.592L88.3079 174.592L88.308 174.592L88.3081 174.593L88.3081 174.593L88.3082 174.593L88.3083 174.593L88.3084 174.593L88.3085 174.593L88.3086 174.594L88.3087 174.594L88.3088 174.594L88.3089 174.594C88.6675 175.317 89.026 176.04 89.4138 176.747C89.5333 176.965 89.6559 177.209 89.7847 177.465C90.5454 178.976 91.5229 180.917 93.3556 180.563C93.517 180.521 93.6669 180.443 93.7942 180.335C93.9214 180.227 94.0228 180.092 94.0907 179.939C94.1587 179.787 94.1915 179.621 94.1868 179.454C94.1821 179.287 94.1399 179.124 94.0634 178.975L94.0888 178.983ZM79.2129 195.446C80.7924 196.461 82.2715 197.624 83.6303 198.92C83.7395 199.043 83.8154 199.192 83.851 199.352C83.8866 199.513 83.8807 199.68 83.8337 199.838C83.7868 199.996 83.7004 200.139 83.5827 200.254C83.465 200.369 83.3199 200.452 83.1612 200.496C81.6145 200.713 79.8956 200.109 78.2935 199.545C77.7714 199.361 77.2617 199.182 76.7744 199.037C74.5859 198.441 72.3337 197.688 71.668 195.276C71.5732 194.779 71.6223 194.266 71.8097 193.796C71.997 193.326 72.3148 192.92 72.7254 192.625C73.1361 192.33 73.6225 192.158 74.1275 192.13C74.6324 192.103 75.1347 192.22 75.5753 192.468C76.2011 192.902 76.7588 193.402 77.3188 193.904C77.9185 194.442 78.521 194.983 79.2129 195.446ZM58.0519 57.6552C57.4208 58.8924 55.8813 61.2289 54.2087 60.1084C54.1341 60.0609 54.0698 59.9989 54.0195 59.9261C53.9692 59.8533 53.934 59.7712 53.9159 59.6846C53.8979 59.598 53.8973 59.5087 53.9143 59.4218C53.9313 59.335 53.9655 59.2525 54.0149 59.1791C54.5634 58.4632 54.7687 57.1047 54.9515 55.8955C55.0477 55.2589 55.1376 54.6638 55.2681 54.2255C56.0032 51.2105 57.013 48.2693 58.2848 45.4386C59.7538 42.2233 65.0975 45.2805 63.0809 48.4296C61.2471 51.4163 59.5686 54.4956 58.0519 57.6552ZM75.5241 61.1952C77.2407 59.0941 78.7669 56.8444 80.0847 54.4728C81.3179 52.5397 82.2886 50.4511 82.9711 48.262C83.1156 47.7253 83.1016 47.1583 82.9308 46.6293C82.76 46.1004 82.4396 45.6323 82.0085 45.2815C81.5773 44.9308 81.0538 44.7124 80.5012 44.6527C79.9486 44.5931 79.3905 44.6948 78.8945 44.9456C76.9661 45.9729 76.4541 48.0315 75.9552 50.0369C75.8033 50.6479 75.6525 51.2539 75.4634 51.8243C75.2464 52.4785 74.9518 53.2037 74.6413 53.9678C73.7925 56.0571 72.8257 58.4367 73.0076 60.4461C73.029 60.733 73.1371 61.0065 73.3175 61.2306C73.4979 61.4546 73.7421 61.6185 74.0178 61.7005C74.2935 61.7826 74.5876 61.7789 74.8611 61.69C75.1347 61.6012 75.3747 61.4312 75.5495 61.2027L75.5241 61.1952ZM102.868 47.4912C101.93 50.3441 100.998 53.1788 99.1357 55.4953L99.1371 55.5372C98.9662 55.7729 98.7264 55.9497 98.4507 56.0432C98.175 56.1367 97.8772 56.1423 97.5981 56.0593C97.3192 55.9762 97.0728 55.8086 96.8932 55.5796C96.7135 55.3505 96.6094 55.0713 96.5952 54.7806C96.2871 51.7891 97.0826 48.8797 97.8786 45.9681C98.5069 43.6703 99.1355 41.3712 99.2224 39.0292C99.4679 33.2775 108.429 35.9865 105.577 40.9208C104.359 42.9565 103.612 45.2296 102.868 47.4912ZM120.195 139.713C120.009 140.579 120.166 141.484 120.633 142.237C120.845 142.72 121.049 143.205 121.254 143.69C121.663 144.66 122.072 145.631 122.537 146.581C123.698 148.799 125.063 150.905 126.613 152.872C128.352 155.257 131.944 152.812 131.363 150.301C131.099 149.29 130.475 148.411 129.609 147.828C128.624 146.851 127.749 145.769 126.999 144.602C126.729 144.213 126.457 143.791 126.177 143.356L126.176 143.355L126.176 143.354L126.176 143.354L126.176 143.354C125.1 141.685 123.904 139.829 122.238 138.938C122.061 138.815 121.857 138.738 121.644 138.711C121.43 138.685 121.214 138.712 121.013 138.788C120.812 138.864 120.632 138.988 120.49 139.149C120.347 139.311 120.246 139.504 120.195 139.713ZM127.414 168.596L127.404 168.575L127.435 168.69C127.427 168.659 127.42 168.628 127.414 168.596ZM127.414 168.596C128.234 170.215 129.545 171.534 131.16 172.363C133.494 173.879 136.01 175.092 138.649 175.976C142.394 177.34 144.323 170.858 140.416 170.041C137.799 169.574 135.225 168.895 132.718 168.012L132.633 167.979L132.444 167.904C131.11 167.376 129.226 166.63 127.968 167.47C127.752 167.583 127.582 167.766 127.485 167.989C127.402 168.181 127.378 168.392 127.414 168.596ZM131.867 205.129C133.123 205.997 134.941 205.965 136.619 205.935C137.24 205.924 137.841 205.913 138.388 205.949C140.444 206.198 142.528 206.108 144.555 205.682C149.764 204.313 146.021 196.433 142.054 199.209C140.773 200.028 139.311 200.519 137.796 200.64C137.472 200.691 137.147 200.738 136.822 200.785L136.822 200.785L136.821 200.785L136.82 200.785L136.82 200.785L136.819 200.785L136.819 200.785C136.228 200.871 135.635 200.956 135.041 201.065C134.551 201.154 134.085 201.337 133.617 201.519C133.204 201.681 132.79 201.842 132.359 201.941C132.033 202.033 131.74 202.217 131.516 202.471C131.291 202.724 131.143 203.037 131.09 203.371C131.037 203.706 131.081 204.049 131.216 204.36C131.351 204.67 131.573 204.936 131.854 205.125L131.867 205.129ZM76.9275 215.256C78.2957 216.534 79.4971 217.98 80.5033 219.558C81.6996 221.256 79.9348 223.374 78.1694 223.402C76.692 223.426 75.7124 222.618 74.7022 221.785C74.2674 221.427 73.8269 221.064 73.3385 220.76C72.6068 220.3 71.8723 219.857 71.1381 219.414C70.0246 218.743 68.912 218.072 67.8112 217.344C63.7348 214.678 68.085 208.197 71.7162 211.104C72.3264 211.593 72.9462 212.073 73.5662 212.552C74.7056 213.434 75.8455 214.316 76.9275 215.256ZM52.2808 195.579L52.2808 195.579C51.8829 194.763 51.4858 193.948 50.9706 193.183C49.8275 191.825 48.8072 190.369 47.9218 188.831C46.1362 184.743 39.601 188.152 41.7701 192.16C42.3126 193.06 42.9759 193.881 43.7415 194.601C44.1378 195.018 44.4962 195.47 44.8544 195.921C45.2581 196.43 45.6616 196.939 46.1188 197.398C46.3004 197.58 46.4784 197.762 46.6548 197.943C48.0622 199.385 49.3655 200.721 51.551 200.855C51.9167 200.857 52.2767 200.764 52.596 200.586C52.9154 200.408 53.1832 200.15 53.3736 199.838C53.564 199.525 53.6705 199.169 53.6827 198.804C53.6948 198.438 53.6123 198.076 53.4431 197.751C52.9972 197.049 52.6387 196.313 52.2808 195.579ZM81.4549 132.789C82.4677 135.434 82.9731 138.245 82.9447 141.077L82.9853 141.034C82.9682 141.426 82.8368 141.805 82.6074 142.124C82.3779 142.443 82.0603 142.687 81.6936 142.828C81.327 142.969 80.9271 142.999 80.5434 142.916C80.1596 142.832 79.8085 142.639 79.5334 142.358C78.3348 141.235 77.9217 139.582 77.5163 137.96C77.329 137.21 77.1433 136.467 76.8825 135.786C76.6027 135.053 76.297 134.325 75.9912 133.598C75.6855 132.87 75.3797 132.143 75.1 131.409C75.0333 131.237 74.9722 130.993 74.907 130.733C74.7888 130.261 74.6572 129.735 74.4545 129.488C72.1688 126.801 76.2162 123.011 78.4613 125.741C79.5994 127.115 80.2374 129.098 80.8296 130.938L80.8296 130.938C81.0371 131.584 81.239 132.211 81.4549 132.789ZM67.785 172.066C67.3744 171.615 67.1567 171.03 66.9351 170.435C66.8303 170.153 66.7246 169.869 66.5972 169.596C66.084 168.717 65.5185 167.869 64.9037 167.058C64.2767 166.119 63.8061 165.099 63.3375 164.083C62.8833 163.099 62.4311 162.118 61.8404 161.221C61.4936 160.58 60.9064 160.103 60.208 159.895C59.5097 159.687 58.7573 159.765 58.1165 160.112C57.4757 160.459 56.9989 161.046 56.7911 161.744C56.5832 162.443 56.6612 163.195 57.0081 163.836C58.2203 166.384 59.8734 168.698 61.8911 170.671C62.1544 170.94 62.4258 171.249 62.7081 171.57C63.9056 172.931 65.2989 174.515 67.0948 174.199C67.31 174.138 67.5064 174.024 67.6657 173.867C67.8249 173.71 67.9419 173.515 68.0057 173.301C68.0695 173.087 68.0781 172.86 68.0306 172.641C67.9831 172.423 67.8811 172.22 67.7341 172.051L67.785 172.066ZM98.5496 80.1003C98.5241 81.7529 98.1434 83.3807 97.4333 84.8733L97.4522 84.8097C96.5213 86.6356 94.1899 85.1254 94.4759 83.4672C94.5067 82.001 94.3719 80.5361 94.0741 79.1001C94.0156 78.3302 94.0617 77.5521 94.1075 76.7807C94.1476 76.1054 94.1873 75.4353 94.1563 74.7802C93.9802 71.4211 99.7724 71.6234 99.3769 74.9507C99.2896 75.7117 99.14 76.4595 98.9907 77.2058C98.7989 78.1649 98.6075 79.1215 98.5496 80.1003ZM88.4834 25.2345C91.1389 25.678 93.0535 23.5048 94.713 21.6211C94.9068 21.4011 95.0971 21.1851 95.2847 20.9777C95.5271 20.7222 95.7642 20.4597 96.0034 20.1949C96.4207 19.7329 96.8441 19.2641 97.3123 18.8141C97.2302 18.8957 97.7033 18.4647 97.897 18.2683C98.2092 18.1045 99.3254 17.3966 99.4441 17.2765C99.8229 16.9119 100.114 16.4664 100.297 15.9733C100.479 15.4802 100.548 14.9523 100.497 14.429C100.447 13.9057 100.278 13.4005 100.005 12.9514C99.732 12.5022 99.3608 12.1206 98.9193 11.8351L98.7286 11.7784C98.1862 11.4367 97.5625 11.2458 96.9217 11.2253C96.281 11.2048 95.6463 11.3554 95.0831 11.6617C93.5375 12.8119 92.3514 14.3784 91.6635 16.178C90.4919 18.4181 89.0849 20.5271 87.4665 22.4691C87.3165 22.7089 87.2238 22.9799 87.1954 23.2613C87.1671 23.5427 87.2038 23.8269 87.3029 24.0918C87.4019 24.3567 87.5606 24.5952 87.7666 24.789C87.9727 24.9827 88.2205 25.1265 88.491 25.2091L88.4834 25.2345ZM118.738 226.457C116.111 226.762 113.449 226.58 110.888 225.918L110.862 225.911C110.52 225.801 110.223 225.584 110.015 225.29C109.808 224.997 109.701 224.645 109.711 224.286C109.721 223.926 109.848 223.58 110.071 223.299C110.295 223.018 110.604 222.818 110.952 222.728C112.058 222.291 113.189 221.92 114.34 221.619C114.593 221.57 114.846 221.522 115.1 221.473C115.775 221.345 116.451 221.216 117.12 221.063C117.903 220.955 118.673 220.767 119.418 220.502C119.689 220.393 119.93 220.273 120.161 220.158C120.774 219.851 121.314 219.581 122.143 219.667C122.84 219.687 123.5 219.98 123.982 220.484C124.464 220.987 124.728 221.66 124.718 222.357C124.439 225.386 121.427 226.302 118.738 226.457Z" fill="#388172"/>
</svg>
