<svg width="116" height="96" viewBox="0 0 116 96" fill="none" xmlns="http://www.w3.org/2000/svg">
<path fill-rule="evenodd" clip-rule="evenodd" d="M82.9842 91.2656C82.6711 92.0182 82.3183 92.7537 81.9272 93.469C81.469 94.2445 80.8155 94.8864 80.0318 95.3305C79.2481 95.7746 78.3616 96.0054 77.4609 95.9999C77.0132 96.0001 76.5675 95.94 76.1358 95.8212C75.058 95.5154 74.1083 94.8684 73.4292 93.9773C72.7501 93.0861 72.3782 91.9989 72.3692 90.8785C72.4845 89.0444 72.8553 87.2355 73.4709 85.504C73.835 83.83 74.4103 82.2092 75.183 80.6803C75.7907 79.6768 76.7038 78.8942 77.7884 78.4471L77.8628 78.3131C77.9007 78.2335 77.9377 78.1539 77.9744 78.0748C78.0819 77.8432 78.1874 77.6158 78.3095 77.405C78.7091 76.7671 79.1623 76.1644 79.6643 75.6035C80.4852 74.785 81.5538 74.2609 82.7035 74.1128C83.8533 73.9647 85.0198 74.2009 86.0214 74.7847C87.2036 75.4815 88.0724 76.6062 88.4481 77.926C88.6864 78.8438 88.6864 79.8072 88.4481 80.725C88.1522 82.0145 87.7283 83.2714 87.1826 84.4767L85.8129 87.8711C85.5715 88.7622 85.099 89.5736 84.4433 90.2234L83.3713 91.0571L82.9842 91.2656ZM113.847 74.5166C113.266 75.7076 112.626 76.854 111.971 78.0003C111.49 78.8161 110.801 79.4898 109.974 79.9527C109.148 80.4155 108.213 80.6512 107.266 80.6355C106.649 80.6334 106.036 80.5329 105.45 80.3377C104.684 80.2543 103.943 80.0108 103.276 79.6231C102.456 79.1596 101.772 78.4866 101.296 77.6728L100.746 76.3776C100.493 75.3558 100.493 74.2878 100.746 73.266C100.95 72.6819 101.189 72.1102 101.46 71.5539C101.533 71.4086 101.591 71.2774 101.651 71.1432C101.714 71.0023 101.778 70.8581 101.862 70.6904C102.026 70.3629 102.175 70.0205 102.324 69.6781L102.324 69.678C102.831 68.2528 103.517 66.8973 104.363 65.6434C104.911 64.8374 105.545 64.0936 106.254 63.4251C106.995 62.7256 107.9 62.2228 108.886 61.9628C109.871 61.7027 110.906 61.6936 111.897 61.9363C112.849 62.1892 113.715 62.6928 114.407 63.3945C115.098 64.0963 115.588 64.9706 115.827 65.9263C116.093 67.2079 116.052 68.5343 115.708 69.7971C115.274 71.4374 114.649 73.0214 113.847 74.5166ZM108.457 46.349C108.572 45.9122 108.686 45.4761 108.801 45.0406C109.237 43.3825 109.67 41.7318 110.095 40.0812L110.095 39.9621L110.229 39.7239C110.497 39.2921 110.735 38.8455 110.958 38.3988C111.301 37.714 111.599 36.9994 111.881 36.2848C112.465 34.8678 112.565 33.2977 112.164 31.8184C111.897 30.8939 111.382 30.06 110.676 29.4066C110.068 28.541 109.226 27.8665 108.248 27.462C107.271 27.0575 106.199 26.9397 105.157 27.1225C104.115 27.3052 103.147 27.7809 102.366 28.4939C101.584 29.2069 101.022 30.1277 100.745 31.1484C99.9521 33.8798 99.2468 36.6383 98.5428 39.3919C98.2031 40.7207 97.8636 42.0484 97.5147 43.3714C97.1338 44.814 97.3336 46.3485 98.0712 47.6456C98.8088 48.9426 100.025 49.8988 101.46 50.3091C101.944 50.448 102.445 50.5182 102.949 50.5176C104.197 50.5212 105.411 50.1154 106.406 49.3624C107.401 48.6094 108.122 47.5508 108.457 46.349ZM81.4062 51.6191C81.1543 51.8601 80.8744 52.07 80.5725 52.2444L80.5725 52.2146C79.9273 52.5942 79.1922 52.7944 78.4436 52.7944C77.6949 52.7944 76.9599 52.5942 76.3146 52.2146C75.658 51.8326 75.1097 51.2894 74.7216 50.6365L74.6323 50.4876L74.0219 50.0112C73.1673 49.2453 72.5651 48.2382 72.2949 47.1229C72.0115 45.8694 72.0422 44.5653 72.3842 43.3265C72.4705 42.8795 72.5798 42.4373 72.7117 42.0015C72.9536 41.2221 73.2319 40.4549 73.5137 39.6778L73.5137 39.6778L73.605 39.4259C73.9822 38.1793 74.8102 37.1178 75.9275 36.4484C76.911 35.8428 78.0716 35.5907 79.2177 35.7337C79.6735 35.6086 80.1446 35.5484 80.6172 35.5551L80.7214 35.5551C81.1289 35.3171 81.5797 35.1629 82.0476 35.1016C82.5154 35.0402 82.9908 35.0729 83.4459 35.1978C84.3314 35.45 85.0874 36.0303 85.5599 36.8206C85.8074 37.227 85.967 37.6806 86.0285 38.1524C86.09 38.6242 86.0521 39.1037 85.9173 39.5599L85.7833 39.9172C85.962 41.3281 85.7455 42.7609 85.158 44.0561C84.7113 45.128 84.2647 46.1999 83.8032 47.2718L83.6906 47.5272C83.4448 48.0852 83.196 48.65 82.9248 49.1924C82.8241 49.4161 82.7067 49.6482 82.5913 49.876L82.5913 49.8761L82.5913 49.8761L82.5913 49.8762L82.5912 49.8762L82.5912 49.8763L82.5912 49.8763C82.5531 49.9517 82.5151 50.0266 82.4782 50.1005L82.1655 50.6663C81.9672 51.0239 81.7105 51.3459 81.4062 51.6191ZM42.5487 51.2322C42.0446 51.2253 41.5438 51.1502 41.0599 51.0088C39.5603 50.6272 38.2681 49.6767 37.4571 48.3588C37.0468 47.6852 36.7818 46.9333 36.6793 46.1514C36.5767 45.3694 36.6388 44.5746 36.8615 43.818L37.3082 42.7163C37.2478 42.0263 37.3082 41.331 37.4868 40.6618C37.8859 39.0937 38.3831 37.5522 38.9756 36.0465C39.3776 34.9002 39.7944 33.7687 40.256 32.6521L40.256 32.5181C40.5303 31.5795 41.0432 30.728 41.7448 30.0467L42.8762 29.1832C43.6492 28.7306 44.52 28.4711 45.4146 28.4268C46.3093 28.3824 47.2014 28.5546 48.0153 28.9287C48.8292 29.3028 49.5409 29.8677 50.0899 30.5755C50.6388 31.2833 51.009 32.1131 51.1688 32.9945C51.6358 33.6962 51.9432 34.4919 52.0693 35.3253C52.1953 36.1588 52.1369 37.0098 51.8983 37.8182C51.37 39.4455 50.7486 41.0412 50.0373 42.5972L50.0366 42.5988L50.0365 42.5992C49.4412 44.0873 48.846 45.5754 48.2656 46.9742C48.0049 47.9576 47.4917 48.8558 46.7769 49.5796L45.5709 50.5027C44.6459 51.0091 43.6029 51.2609 42.5487 51.2322ZM82.8948 16.7369C82.5324 17.9156 81.7336 18.9114 80.6616 19.5209C79.8791 19.9539 78.995 20.1697 78.1009 20.1462C77.6581 20.1463 77.2174 20.0862 76.7908 19.9676C75.8035 19.6847 74.9275 19.1038 74.2827 18.3044C73.6378 17.505 73.2555 16.526 73.1879 15.5012C72.6611 14.5966 72.3789 13.5704 72.3691 12.5236L72.5924 10.9157C72.7512 10.1338 72.9907 9.37042 73.307 8.63789C73.4805 7.999 73.7625 7.39469 74.1408 6.85135L74.3343 6.3005C74.6023 5.58588 74.9 4.90104 75.2127 4.20131C75.5883 3.43224 76.0917 2.73249 76.7015 2.1319C77.6072 1.22493 78.7876 0.643132 80.0586 0.477261C81.3296 0.311391 82.6197 0.57076 83.7279 1.21492C84.8361 1.85908 85.6999 2.85182 86.1848 4.03835C86.6696 5.22488 86.7482 6.53851 86.4084 7.7744C86.0957 8.71234 85.7533 9.63538 85.396 10.5584C85.2918 10.9009 85.1727 11.2433 85.0536 11.5708C84.9685 11.8403 84.8698 12.1131 84.7706 12.3878L84.7705 12.3879C84.6614 12.6898 84.5516 12.9938 84.458 13.2978C84.3985 13.5807 84.3389 13.8486 84.2645 14.1166C84.0326 14.9695 83.6101 15.7585 83.0288 16.4242L82.8948 16.7369ZM28.3459 83.7173C29.3756 83.4286 30.3138 82.88 31.0704 82.1243C31.8807 81.3532 32.5774 80.471 33.1398 79.504C33.4158 79.0861 33.6693 78.6538 33.8991 78.2088C34.3135 77.4097 34.662 76.5782 34.9412 75.7225C35.2278 74.7181 35.3977 73.684 35.4474 72.6407C35.5969 71.2514 35.3052 69.8502 34.6137 68.6359C34.0906 67.3552 33.1659 66.2789 31.9786 65.569C30.8378 64.9136 29.52 64.6329 28.2112 64.7665C26.9023 64.9 25.6684 65.4411 24.6835 66.3134C24.1664 66.6531 23.7087 67.0756 23.3287 67.564C22.7396 68.2929 22.1975 69.0587 21.7059 69.8567C21.1261 70.8152 20.6897 71.8535 20.4107 72.9385C20.0983 74.0939 20.0983 75.3115 20.4107 76.4669L20.5149 76.7944C20.3757 77.6535 20.4265 78.5327 20.6638 79.37C20.7666 79.6311 20.8736 79.8879 20.9826 80.1494C21.0788 80.3802 21.1765 80.6146 21.2742 80.8588C21.8009 81.7573 22.5493 82.5057 23.4478 83.0324L23.5669 83.1218C24.5119 83.6688 25.5866 83.9516 26.6785 83.9406L28.3459 83.7173ZM12.0902 58.3053C11.7068 58.8166 11.2253 59.2463 10.6739 59.5693C9.91518 60.0287 9.04479 60.2708 8.15782 60.269C7.27629 60.2514 6.41445 60.0052 5.65666 59.5544L4.65918 58.7802C4.04351 58.152 3.60665 57.3708 3.39371 56.5173L3.17039 55.8027C2.2198 55.3077 1.4143 54.5741 0.832996 53.6737C0.28722 52.7194 0.000118319 51.6391 0.000118415 50.5398C0.000118511 49.4405 0.28722 48.3602 0.832997 47.4059C1.34398 46.4934 1.74871 45.581 2.15343 44.6685C2.40905 44.0922 2.66468 43.5159 2.94707 42.9396C3.14661 42.5056 3.37028 42.0831 3.61703 41.6741C3.92706 41.1454 4.28594 40.647 4.68896 40.1853C5.06933 39.6436 5.5818 39.208 6.17775 38.9198C7.11791 38.2587 8.24437 37.9145 9.39352 37.9372C9.98903 37.9968 10.5994 38.0712 11.195 38.1754C12.1725 38.4398 13.0649 38.9527 13.7854 39.6642C14.651 40.5187 15.264 41.5954 15.5571 42.7758C15.8325 44.0112 15.8325 45.2921 15.5571 46.5275L15.438 47.123C15.0956 48.7012 14.7085 50.2197 14.2767 51.8127C14.1764 52.183 14.0776 52.5589 13.9784 52.9365C13.6509 54.1835 13.3184 55.449 12.9071 56.5917C12.7513 57.2115 12.4737 57.7941 12.0902 58.3053ZM33.214 17.3622C34.9687 16.8631 36.4592 15.6986 37.3677 14.1166C37.8578 13.2896 38.2667 12.4171 38.5885 11.5112C38.752 11.1599 38.872 10.7899 38.9458 10.4095C39.0649 9.68002 39.184 8.92074 39.2585 8.20612C39.3944 6.86608 39.0516 5.52117 38.2908 4.40972C37.6712 3.23208 36.6751 2.29586 35.4613 1.75045C34.2476 1.20504 32.8861 1.08186 31.5942 1.40056C30.3022 1.71926 29.1543 2.46148 28.3334 3.5088C27.5125 4.55612 27.0661 5.84819 27.0653 7.17886L27.0653 7.17902L27.0652 7.17918C26.961 7.59594 26.8569 8.01269 26.7676 8.42944C26.6782 8.84631 26.6038 9.14406 26.5145 9.48648L26.3954 10.0076C26.2497 10.5765 26.1796 11.1622 26.1869 11.7494C26.1546 12.3319 26.22 12.9156 26.3805 13.4764C26.7609 14.8741 27.6752 16.0664 28.9263 16.7964C29.7554 17.2859 30.703 17.5383 31.6657 17.5259C32.1859 17.5215 32.7044 17.4666 33.214 17.3622ZM54.8165 92.3822L53.4766 93.4244C52.4603 94.0351 51.2976 94.3592 50.1119 94.3623C48.6535 94.3635 47.2348 93.8866 46.0732 93.0046C44.9115 92.1227 44.071 90.8843 43.6804 89.4791C43.2953 88.1073 43.3212 86.6528 43.7548 85.2956C43.8739 84.9829 43.993 84.6703 44.0972 84.3577L44.2759 83.8515C44.2537 83.5591 44.2537 83.2655 44.2759 82.9731C44.2899 82.3442 44.3798 81.7194 44.5439 81.1121C44.712 80.5903 44.9211 80.0825 45.1692 79.5935C45.586 78.8045 45.9582 78.0005 46.3304 77.1817C46.5613 76.2956 46.7883 75.4096 47.0155 74.5235C47.2424 73.6379 47.4694 72.7523 47.7001 71.8667C47.9186 71.0146 48.3047 70.2145 48.8357 69.5131C49.3667 68.8118 50.0321 68.2232 50.7931 67.7817C51.554 67.3403 52.3953 67.0548 53.2677 66.942C54.1402 66.8291 55.0264 66.8911 55.8746 67.1245C56.7228 67.3578 57.5161 67.7577 58.2081 68.3008C58.9001 68.844 59.477 69.5196 59.9052 70.2881C60.3333 71.0566 60.6041 71.9027 60.7017 72.777C60.7994 73.6513 60.7219 74.5362 60.4739 75.3803L59.9826 77.3752C60.0809 78.2383 60.0153 79.1122 59.789 79.9509C59.4394 81.4845 58.9407 82.9804 58.3003 84.4172L57.5708 86.2931C57.273 87.3501 56.9306 88.3774 56.5286 89.4046C56.2309 90.531 55.6402 91.5583 54.8165 92.3822Z" fill="#136E65"/>
</svg>
