<svg width="214" height="394" viewBox="0 0 214 394" fill="none" xmlns="http://www.w3.org/2000/svg">
<path fill-rule="evenodd" clip-rule="evenodd" d="M115.421 124.338C115.869 123.865 116.318 123.393 116.766 122.922C119.072 120.497 121.362 118.088 123.584 115.51C124.292 114.698 125.06 113.932 125.821 113.174C128.384 110.617 130.868 108.141 130.694 104.239C130.605 103.353 130.168 102.539 129.48 101.975C128.791 101.411 127.906 101.144 127.021 101.232C122.375 101.97 119.697 106.49 117.339 110.469L117.339 110.469C117.039 110.975 116.745 111.471 116.453 111.95C115.924 112.786 115.279 113.66 114.61 114.564C112.864 116.927 110.962 119.501 110.579 122.17C110.508 122.759 110.627 123.354 110.919 123.87C111.211 124.386 111.66 124.795 112.201 125.037C112.742 125.279 113.346 125.342 113.926 125.216C114.505 125.091 115.029 124.783 115.421 124.338ZM86.8968 185.698L86.4899 185.606L86.4505 185.654C82.4991 184.543 83.4783 179.259 84.0551 176.146L84.0554 176.144C84.0825 175.998 84.1087 175.857 84.1335 175.721C84.3719 174.39 84.493 172.926 84.6169 171.428C84.8715 168.347 85.1384 165.119 86.4625 162.599C87.0434 161.488 88.0254 160.64 89.2089 160.227C90.3925 159.814 91.689 159.867 92.8349 160.375C93.9808 160.883 94.8903 161.808 95.3786 162.963C95.8669 164.118 95.8973 165.415 95.4638 166.591C94.9226 168.212 94.5795 169.915 94.2362 171.62C93.9823 172.88 93.7282 174.142 93.3938 175.371C92.8897 178.493 91.9045 181.519 90.4734 184.339C90.0554 184.867 89.5022 185.272 88.8725 185.512C88.2428 185.751 87.5601 185.815 86.8968 185.698ZM64.1217 234.991C66.4742 233.153 67.372 229.489 68.139 226.359L68.1391 226.358C68.3166 225.634 68.4872 224.938 68.6672 224.299C69.1046 222.72 69.4269 221.115 69.7502 219.505L69.7503 219.504C69.9232 218.643 70.0964 217.781 70.2877 216.92C70.4826 216.012 70.5888 214.9 70.6874 213.867C70.772 212.981 70.851 212.153 70.9758 211.563C71.9977 207.041 65.0397 203.596 62.4325 207.731C61.8989 208.618 61.5455 209.601 61.3924 210.625C61.2393 211.649 61.2895 212.693 61.5401 213.697C61.5137 215.745 61.3784 217.789 61.1348 219.822C61.0493 221.428 61.0397 223.074 61.0301 224.73L61.0301 224.731C61.0143 227.44 60.9984 230.178 60.6494 232.819C60.5747 233.26 60.6332 233.715 60.8174 234.123C61.0015 234.532 61.303 234.876 61.6835 235.113C62.064 235.35 62.5064 235.468 62.9543 235.453C63.4022 235.438 63.8355 235.29 64.199 235.027L64.1217 234.991ZM120.408 198.232C122.021 196.128 122.586 193.353 123.14 190.636C123.4 189.356 123.658 188.089 124.022 186.912C124.661 184.756 125.268 182.574 125.811 180.34C125.891 179.99 125.977 179.639 126.064 179.287C126.223 178.64 126.383 177.991 126.499 177.34C126.481 177.362 126.519 177.179 126.576 176.902C126.746 176.08 127.086 174.438 126.622 174.943C126.972 174.442 127.23 173.881 127.381 173.287C127.556 172.597 127.583 171.878 127.461 171.177C127.34 170.476 127.071 169.808 126.674 169.218C126.276 168.628 125.759 168.128 125.155 167.751C124.551 167.374 123.875 167.129 123.17 167.032C122.465 166.935 121.747 166.987 121.064 167.186C120.381 167.385 119.747 167.726 119.205 168.187C118.662 168.647 118.223 169.217 117.916 169.859C117.201 171.505 116.866 173.29 116.934 175.083C116.722 177.662 116.343 180.224 115.8 182.753C115.618 183.736 115.37 184.741 115.12 185.754L115.12 185.754C114.778 187.139 114.432 188.54 114.246 189.92C114.278 191.753 114.2 193.585 114.013 195.409C113.177 198.983 118.337 201.091 120.489 198.298L120.408 198.232ZM146.623 147.977C149.535 146.446 150.503 142.462 151.327 139.068C151.54 138.188 151.744 137.349 151.97 136.601C152.208 135.81 152.476 135.015 152.746 134.212C153.717 131.331 154.72 128.351 154.536 125.12C154.259 119.536 145.221 120.496 146.005 125.986C146.315 128.148 145.709 130.267 145.11 132.362C144.868 133.209 144.627 134.051 144.448 134.892C143.73 138.322 143.022 142.002 142.588 145.478C142.526 145.973 142.608 146.476 142.824 146.927C143.039 147.378 143.38 147.757 143.805 148.02C144.229 148.283 144.721 148.419 145.22 148.411C145.72 148.404 146.207 148.253 146.623 147.977ZM185.039 144.54C184.851 148.364 184.663 152.198 183.589 155.866L183.536 155.93C183.283 156.624 182.813 157.218 182.195 157.624C181.578 158.031 180.846 158.227 180.108 158.185C179.37 158.143 178.666 157.865 178.098 157.391C177.531 156.917 177.131 156.274 176.958 155.555C176.437 153.425 176.634 151.072 176.825 148.79C176.908 147.806 176.989 146.835 177.011 145.901C176.837 142.76 176.882 139.61 177.146 136.475C177.234 135.353 177.751 134.308 178.59 133.557C179.429 132.807 180.525 132.409 181.649 132.446C182.777 132.518 183.831 133.031 184.585 133.873C185.338 134.716 185.731 135.82 185.678 136.949C185.29 139.44 185.165 141.988 185.039 144.54L185.039 144.54ZM211.093 204.446C210.611 201.052 210.216 197.64 209.822 194.233C209.326 189.941 208.831 185.655 208.161 181.419C206.961 173.82 195.654 176.539 198.097 183.897C198.381 184.719 198.601 185.539 198.821 186.359L198.821 186.359C199.131 187.513 199.44 188.664 199.925 189.813C200.864 192.087 201.634 194.428 202.229 196.816C202.374 197.358 202.51 197.929 202.65 198.513L202.651 198.516L202.651 198.517C203.448 201.841 204.351 205.614 207.399 207.289C207.824 207.469 208.289 207.537 208.747 207.484C209.206 207.432 209.643 207.261 210.017 206.99C210.39 206.718 210.687 206.355 210.878 205.934C211.069 205.514 211.148 205.051 211.107 204.592L211.093 204.446ZM184.238 242.817C184.872 246.069 185.291 250.564 183.749 253.561C183.545 253.893 183.277 254.182 182.96 254.411C182.644 254.639 182.286 254.803 181.906 254.893C181.527 254.983 181.133 254.997 180.748 254.935C180.363 254.872 179.994 254.734 179.662 254.528C176.585 252.213 176.068 248.452 175.546 244.646C175.173 241.931 174.798 239.192 173.487 236.937C170.339 231.521 179.39 226.714 182.063 232.384C183.128 234.668 183.457 237.239 183.77 239.684L183.771 239.685C183.909 240.765 184.044 241.821 184.238 242.817ZM178.438 310.319C178.896 310.693 178.416 309.15 178.155 308.313L178.155 308.313L178.155 308.312L178.153 308.307C178.104 308.149 178.063 308.017 178.038 307.928C177.51 306.183 176.869 304.48 176.198 302.779C175.427 300.825 174.834 298.827 174.243 296.833L174.243 296.833C173.745 295.154 173.248 293.478 172.646 291.835C170.754 286.455 162.051 289.887 164.463 294.861C164.959 295.859 165.447 296.849 165.932 297.836L165.934 297.839C167.647 301.319 169.334 304.745 171.277 308.234C171.548 308.703 171.8 309.196 172.053 309.691C173.197 311.927 174.349 314.177 177.239 314.239C179.304 314.268 179.662 311.507 178.399 310.367L178.438 310.319ZM149.281 325.779C150.26 328.26 151.643 331.762 150.641 333.936L150.601 333.984C148.682 338.227 143.037 329.775 142.366 328.663C141.676 327.514 140.788 326.359 139.887 325.186L139.887 325.186C137.028 321.464 134.034 317.568 136.796 313.148C138.843 309.894 143.743 311.467 144.924 314.443C145.144 314.983 145.172 315.559 145.2 316.119C145.209 316.315 145.219 316.509 145.237 316.699C145.52 317.088 146.367 318.866 146.367 318.866C146.626 319.464 146.894 320.06 147.163 320.656L147.163 320.656L147.163 320.657L147.163 320.657L147.163 320.657L147.163 320.657L147.163 320.657L147.163 320.657L147.163 320.657L147.163 320.658L147.164 320.658L147.164 320.658L147.164 320.658L147.164 320.658L147.164 320.658L147.164 320.658L147.164 320.659C147.751 321.961 148.338 323.266 148.825 324.601C148.956 324.955 149.112 325.352 149.281 325.779ZM148.55 278.89C148.717 277.975 148.968 277.077 149.299 276.208C149.748 273.913 149.989 271.581 150.018 269.242C150.404 265.091 150.313 260.908 149.746 256.778C149.457 255.875 148.868 255.098 148.076 254.578C147.284 254.057 146.337 253.823 145.394 253.915C144.45 254.008 143.567 254.421 142.891 255.085C142.215 255.75 141.787 256.626 141.679 257.568C141.821 259.999 142.102 262.421 142.521 264.82C142.685 266.231 142.775 267.649 142.866 269.067L142.866 269.067C142.946 270.328 143.027 271.588 143.159 272.843C143.2 273.23 143.23 273.655 143.261 274.102C143.445 276.74 143.682 280.129 146.538 280.726C146.797 280.763 147.06 280.741 147.309 280.662C147.557 280.583 147.785 280.449 147.975 280.27C148.165 280.092 148.313 279.872 148.407 279.629C148.501 279.385 148.539 279.124 148.518 278.864L148.55 278.89ZM117.158 293.644C118.823 296.061 120.253 298.631 121.43 301.32C121.513 301.563 121.533 301.824 121.487 302.077C121.441 302.331 121.332 302.568 121.169 302.767C121.006 302.966 120.795 303.12 120.556 303.215C120.317 303.31 120.057 303.342 119.802 303.309C117.44 302.689 115.327 300.779 113.357 298.999L113.357 298.999C112.715 298.419 112.089 297.853 111.474 297.349C108.678 295.168 105.885 292.722 106.382 288.842C106.545 288.069 106.926 287.358 107.48 286.794C108.034 286.23 108.737 285.835 109.508 285.658C110.278 285.48 111.083 285.527 111.828 285.792C112.573 286.057 113.226 286.529 113.712 287.153C114.352 288.156 114.854 289.214 115.358 290.276L115.358 290.277L115.358 290.277C115.898 291.415 116.44 292.558 117.158 293.644ZM169.857 82.1832C168.2 83.586 164.569 86.0254 162.834 83.3997C162.755 83.2861 162.7 83.1578 162.671 83.0225C162.643 82.8872 162.642 82.7476 162.668 82.6118C162.694 82.476 162.747 82.3468 162.824 82.2319C162.901 82.117 163 82.0187 163.116 81.9427C164.339 81.2416 165.456 79.4067 166.449 77.7735C166.972 76.9138 167.462 76.1099 167.914 75.5567C170.795 71.6534 174.027 68.0222 177.571 64.7087C181.631 60.9596 187.489 68.5948 182.68 71.9178C178.232 75.1169 173.952 78.5433 169.857 82.1832ZM192.913 97.8387C196.657 95.8458 200.216 93.5236 203.548 90.8997C206.494 88.8571 209.155 86.4317 211.461 83.6875C211.993 83.0009 212.316 82.1748 212.389 81.309C212.462 80.4431 212.283 79.5747 211.873 78.8085C211.463 78.0424 210.84 77.4113 210.079 76.9916C209.318 76.572 208.452 76.3816 207.586 76.4436C204.185 76.7604 202.203 79.4194 200.273 82.0099C199.685 82.799 199.101 83.5818 198.484 84.2901C197.776 85.1023 196.913 85.9701 196.004 86.8843C193.519 89.3844 190.688 92.2317 189.737 95.239C189.594 95.6655 189.585 96.1252 189.71 96.5572C189.834 96.9891 190.088 97.373 190.436 97.6578C190.783 97.9426 191.21 98.1149 191.658 98.1519C192.106 98.1889 192.555 98.0888 192.945 97.865L192.913 97.8387ZM240.617 94.592C237.542 98.1393 234.486 101.664 230.401 103.879L230.378 103.94C229.989 104.177 229.537 104.287 229.083 104.255C228.629 104.224 228.196 104.052 227.844 103.764C227.492 103.476 227.238 103.085 227.117 102.646C226.996 102.208 227.015 101.742 227.17 101.314C228.532 96.8148 231.436 93.1001 234.342 89.3826C236.636 86.4488 238.931 83.5133 240.47 80.1888C244.298 72.0437 255.583 81.3616 248.491 86.7538C245.505 88.9538 243.055 91.7801 240.617 94.592ZM209.908 238.031C209.116 239.168 208.796 240.567 209.016 241.935C209.029 242.759 209.031 243.582 209.033 244.405C209.037 246.051 209.041 247.697 209.137 249.347C209.472 253.248 210.168 257.109 211.216 260.88C212.283 265.37 218.938 264.013 219.617 260.042C219.847 258.426 219.479 256.781 218.581 255.417C217.752 253.413 217.143 251.325 216.767 249.19C216.613 248.468 216.476 247.697 216.334 246.903L216.334 246.899L216.334 246.898L216.333 246.894L216.333 246.893C215.79 243.836 215.186 240.437 213.322 238.147C213.141 237.863 212.894 237.628 212.602 237.462C212.31 237.295 211.982 237.202 211.646 237.191C211.31 237.179 210.976 237.25 210.673 237.396C210.37 237.543 210.108 237.76 209.908 238.031ZM202.875 284.037L202.872 284L202.849 284.185C202.851 284.164 202.855 284.142 202.858 284.121C202.863 284.093 202.869 284.065 202.875 284.037ZM202.875 284.037C203.079 286.867 204.173 289.56 206.001 291.731C208.451 295.325 211.346 298.595 214.617 301.463C219.193 305.691 225.89 297.51 220.749 293.972C217.258 291.718 213.956 289.185 210.875 286.398C210.768 286.295 210.658 286.188 210.545 286.077C208.94 284.51 206.674 282.296 204.353 282.748C203.974 282.78 203.618 282.941 203.344 283.204C203.109 283.431 202.946 283.721 202.875 284.037ZM187.232 339.403C188.519 341.414 191.161 342.466 193.597 343.436C194.499 343.795 195.374 344.143 196.14 344.524C198.955 346.125 202.014 347.253 205.194 347.863C213.531 349.035 212.893 335.413 205.497 337.021C203.156 337.427 200.751 337.252 198.493 336.512C197.993 336.389 197.495 336.26 196.996 336.131C196.092 335.897 195.185 335.663 194.263 335.461C193.503 335.294 192.721 335.275 191.936 335.256C191.243 335.239 190.549 335.222 189.867 335.104C189.341 335.041 188.808 335.129 188.331 335.359C187.854 335.589 187.452 335.95 187.174 336.401C186.895 336.851 186.751 337.372 186.759 337.902C186.766 338.431 186.925 338.948 187.216 339.39L187.232 339.403ZM101.9 320.829C103.101 323.498 103.96 326.307 104.458 329.191C105.157 332.362 101.334 334.349 98.7715 333.323C96.6263 332.467 95.7017 330.71 94.7482 328.899C94.3377 328.12 93.9219 327.33 93.4011 326.597C92.6236 325.492 91.8321 324.41 91.041 323.328L91.0408 323.328L91.0408 323.328C89.8409 321.687 88.6418 320.048 87.4942 318.333C83.2264 312.027 93.4127 305.31 96.8929 311.694C97.4776 312.768 98.0816 313.833 98.6858 314.9L98.6859 314.9C99.7963 316.859 100.907 318.82 101.9 320.829ZM78.2444 277.572L78.2444 277.572C78.1635 276.154 78.0829 274.74 77.8021 273.325C76.9739 270.677 76.3824 267.961 76.0346 265.208C75.9281 258.237 64.4463 259.206 65.1537 266.294C65.3925 267.919 65.853 269.504 66.5223 271.004C66.8417 271.845 67.0857 272.713 67.3295 273.58C67.6043 274.558 67.8789 275.535 68.2612 276.472C68.4131 276.844 68.5595 277.215 68.7046 277.582L68.7047 277.582L68.7047 277.582L68.7047 277.582L68.7048 277.582L68.7048 277.582C69.8632 280.512 70.936 283.224 74.0061 284.738C74.5323 284.961 75.1073 285.045 75.6754 284.981C76.2435 284.917 76.7854 284.707 77.2485 284.372C77.7116 284.037 78.0802 283.587 78.3184 283.068C78.5567 282.548 78.6567 281.976 78.6085 281.406C78.3899 280.123 78.317 278.846 78.2444 277.572ZM158.23 204.652C158.093 209.077 157.124 213.437 155.373 217.503L155.457 217.465C155.196 218.02 154.778 218.487 154.254 218.808C153.731 219.129 153.125 219.291 152.511 219.272C151.898 219.253 151.303 219.056 150.8 218.704C150.297 218.352 149.908 217.86 149.68 217.29C148.63 214.947 149.033 212.314 149.428 209.73L149.428 209.73C149.611 208.536 149.792 207.352 149.827 206.213C149.866 204.986 149.865 203.752 149.863 202.519C149.862 201.285 149.86 200.052 149.9 198.825C149.908 198.537 149.967 198.148 150.03 197.734L150.03 197.733C150.145 196.981 150.272 196.144 150.129 195.665C148.456 190.411 156.581 187.39 158.169 192.682C158.981 195.35 158.703 198.595 158.446 201.607L158.446 201.607C158.355 202.663 158.267 203.689 158.23 204.652ZM114.799 253.032C114.48 252.134 114.519 251.159 114.559 250.167L114.559 250.166L114.559 250.166L114.559 250.166C114.578 249.697 114.597 249.224 114.578 248.753C114.369 247.175 114.066 245.612 113.669 244.071C113.332 242.339 113.269 240.583 113.207 238.835C113.147 237.141 113.087 235.455 112.777 233.804C112.664 232.67 112.105 231.628 111.224 230.907C110.342 230.185 109.211 229.843 108.077 229.957C106.944 230.07 105.902 230.628 105.18 231.51C104.459 232.391 104.117 233.523 104.23 234.657C104.439 239.063 105.425 243.398 107.143 247.462C107.36 248.008 107.566 248.617 107.779 249.25C108.683 251.936 109.735 255.062 112.516 255.69C112.863 255.733 113.215 255.687 113.54 255.557C113.864 255.426 114.15 255.216 114.372 254.946C114.593 254.675 114.743 254.353 114.806 254.009C114.87 253.666 114.845 253.311 114.735 252.979L114.799 253.032ZM214.698 139.003C213.663 141.37 212.131 143.488 210.206 145.211L210.271 145.131C207.826 147.201 205.377 143.616 206.79 141.398C207.72 139.302 208.411 137.108 208.848 134.858C209.229 133.713 209.765 132.618 210.297 131.534C210.763 130.584 211.225 129.642 211.576 128.679C213.35 123.729 221.58 127.518 219 132.077C218.415 133.122 217.748 134.11 217.082 135.096C216.226 136.363 215.372 137.627 214.698 139.003ZM233.316 53.8134C236.877 56.0566 240.95 54.0792 244.48 52.3652C244.893 52.1651 245.297 51.9685 245.693 51.7827C246.197 51.5607 246.698 51.3253 247.202 51.0879L247.203 51.0878C248.083 50.6737 248.977 50.2535 249.923 49.8875C249.756 49.9555 250.698 49.6198 251.096 49.4535C251.645 49.4059 253.682 49.0593 253.926 48.9578C254.692 48.6608 255.381 48.1945 255.942 47.5936C256.503 46.9927 256.92 46.2728 257.164 45.4877C257.407 44.7027 257.47 43.8728 257.347 43.0602C257.224 42.2475 256.919 41.4731 256.455 40.7949L256.214 40.5979C255.639 39.7777 254.855 39.1257 253.943 38.7092C253.032 38.2927 252.025 38.1267 251.028 38.2282C248.105 38.9532 245.449 40.4957 243.37 42.6752C240.328 45.1977 237.026 47.3889 233.519 49.2117C233.158 49.467 232.861 49.8018 232.65 50.1904C232.439 50.579 232.321 51.011 232.304 51.4528C232.286 51.8945 232.371 52.3343 232.551 52.7381C232.731 53.1419 233.002 53.4988 233.342 53.7813L233.316 53.8134ZM155.423 362.228C151.45 361.082 147.722 359.212 144.428 356.711L144.396 356.685C143.969 356.32 143.672 355.827 143.55 355.279C143.427 354.731 143.486 354.158 143.718 353.646C143.949 353.135 144.341 352.712 144.833 352.442C145.325 352.172 145.892 352.069 146.448 352.149C148.307 352.187 150.161 352.336 152.002 352.597C152.397 352.678 152.791 352.762 153.186 352.845C154.237 353.068 155.29 353.291 156.347 353.474C157.541 353.791 158.765 353.985 159.999 354.053C160.455 354.06 160.875 354.031 161.278 354.004C162.347 353.933 163.29 353.87 164.433 354.494C165.425 354.944 166.2 355.766 166.591 356.783C166.982 357.799 166.957 358.929 166.522 359.928C164.289 364.128 159.393 363.629 155.423 362.228Z" fill="#F55116"/>
</svg>
