<svg width="24" height="24" viewBox="0 0 24 24" fill="none" xmlns="http://www.w3.org/2000/svg">
<path d="M17.823 10C18.2319 10 18.5996 10.249 18.7514 10.6286L22.3514 19.6286C22.6142 20.2855 22.1296 21 21.4222 21C21.0134 21 20.6454 20.7512 20.4935 20.3717L19.544 18H15.454L14.5063 20.3712C14.3545 20.7509 13.9868 21 13.5778 21C12.8704 21 12.3867 20.2856 12.6494 19.6288L16.2486 10.6287C16.4004 10.249 16.7682 10 17.1771 10H17.823ZM9 2C9.55228 2 10 2.44772 10 3V4H15C15.5523 4 16 4.44772 16 5C16 5.55228 15.5523 6 15 6H14.032C13.2606 8.32208 12.0295 10.465 10.412 12.301C10.9199 12.7542 11.4581 13.1718 12.0227 13.5508C12.4323 13.8258 12.6097 14.3538 12.4265 14.8119C12.2015 15.3746 11.5261 15.6215 11.0203 15.2877C10.3091 14.8185 9.63373 14.2961 9 13.725C7.46937 15.1103 5.69711 16.1972 3.77483 16.9335C3.24708 17.1356 2.67286 16.819 2.52156 16.2745C2.37763 15.7565 2.66987 15.2181 3.17031 15.0216C4.79078 14.3853 6.28781 13.4651 7.59 12.302C6.79613 11.4033 6.09451 10.4288 5.49487 9.39329C5.12795 8.75968 5.60727 8 6.33945 8H6.41141C6.77839 8 7.11369 8.20234 7.30035 8.51829C7.79409 9.35403 8.36291 10.1436 9 10.877C10.2501 9.4361 11.2353 7.7853 11.91 6.001L2.9999 6.0001C2.44765 6.00005 2 5.5523 2 5.00005C2 4.44777 2.44772 4 3 4H8V3C8 2.44772 8.44772 2 9 2ZM17.5 12.885L16.253 16H18.745L17.5 12.885Z" fill="#F55116"/>
</svg>
