<svg width="162" height="32" viewBox="0 0 162 32" fill="none" xmlns="http://www.w3.org/2000/svg">
<path fill-rule="evenodd" clip-rule="evenodd" d="M152.485 6.51465C150.314 4.34308 147.314 2.99994 144 2.99994C137.373 2.99994 132 8.37253 132 14.9999C132 18.3136 133.343 21.3136 135.515 23.4852L132.686 26.3136C135.687 29.3142 139.757 30.9999 144 30.9999C148.243 30.9999 152.313 29.3142 155.314 26.3136C158.314 23.3131 160 19.2434 160 14.9999C160 10.7565 158.314 6.68681 155.314 3.68623L152.485 6.51465ZM152.485 6.51465L144 14.9999L135.515 23.4852C137.686 25.6568 140.686 26.9999 144 26.9999C150.627 26.9999 156 21.6274 156 14.9999C156 11.6862 154.657 8.68623 152.485 6.51465Z" fill="#0A0B09"/>
<path fill-rule="evenodd" clip-rule="evenodd" d="M85.5 16.144L72.6769 2.81896L70 3.49992V26.9999H74V9.96251L85.5 21.9126L97 9.96251V26.9999H101V3.49992L98.6017 2.52954L85.5 16.144ZM24 2.99994H19.0606L11.9683 11.8404L4.9392 2.99994H0V3.03189L9.59363 14.968L0 26.9681V26.9999H4.87597L11.9683 18.1276L19.124 26.9999H24V26.9681L14.3747 14.968L24 3.03189V2.99994ZM115 26.9999H119V2.99994H115V26.9999ZM47 22.9999C51.4183 22.9999 55 19.4182 55 14.9999C55 10.5817 51.4183 6.99994 47 6.99994C42.5817 6.99994 39 10.5817 39 14.9999C39 19.4182 42.5817 22.9999 47 22.9999ZM47 26.9999C53.6274 26.9999 59 21.6274 59 14.9999C59 8.37252 53.6274 2.99994 47 2.99994C40.3726 2.99994 35 8.37252 35 14.9999C35 21.6274 40.3726 26.9999 47 26.9999Z" fill="#0A0B09"/>
</svg>
