<svg width="162" height="59" viewBox="0 0 162 59" fill="none" xmlns="http://www.w3.org/2000/svg">
<path fill-rule="evenodd" clip-rule="evenodd" d="M152.485 6.51465C150.314 4.34308 147.314 2.99994 144 2.99994C137.373 2.99994 132 8.37253 132 14.9999C132 18.3136 133.343 21.3136 135.515 23.4852L132.686 26.3136C135.687 29.3142 139.757 30.9999 144 30.9999C148.243 30.9999 152.313 29.3142 155.314 26.3136C158.314 23.3131 160 19.2434 160 14.9999C160 10.7565 158.314 6.68681 155.314 3.68623L152.485 6.51465ZM152.485 6.51465L144 14.9999L135.515 23.4852C137.686 25.6568 140.686 26.9999 144 26.9999C150.627 26.9999 156 21.6274 156 14.9999C156 11.6862 154.657 8.68623 152.485 6.51465Z" fill="white"/>
<path fill-rule="evenodd" clip-rule="evenodd" d="M85.5 16.144L72.6769 2.81896L70 3.49992V26.9999H74V9.96251L85.5 21.9126L97 9.96251V26.9999H101V3.49992L98.6017 2.52954L85.5 16.144ZM24 2.99994H19.0606L11.9683 11.8404L4.9392 2.99994H0V3.03189L9.59363 14.968L0 26.9681V26.9999H4.87597L11.9683 18.1276L19.124 26.9999H24V26.9681L14.3747 14.968L24 3.03189V2.99994ZM115 26.9999H119V2.99994H115V26.9999ZM47 22.9999C51.4183 22.9999 55 19.4182 55 14.9999C55 10.5817 51.4183 6.99994 47 6.99994C42.5817 6.99994 39 10.5817 39 14.9999C39 19.4182 42.5817 22.9999 47 22.9999ZM47 26.9999C53.6274 26.9999 59 21.6274 59 14.9999C59 8.37252 53.6274 2.99994 47 2.99994C40.3726 2.99994 35 8.37252 35 14.9999C35 21.6274 40.3726 26.9999 47 26.9999Z" fill="white"/>
<path d="M4.76 43C5.45133 43 6.05767 43.1473 6.579 43.442C7.11167 43.7253 7.51967 44.1277 7.803 44.649C8.09767 45.1703 8.245 45.771 8.245 46.451C8.245 47.131 8.09767 47.726 7.803 48.236C7.50833 48.746 7.089 49.1427 6.545 49.426C6.01233 49.7093 5.39467 49.851 4.692 49.851H1.7C1.65467 49.851 1.632 49.8737 1.632 49.919V54.747C1.632 54.8603 1.57533 54.917 1.462 54.917H0.17C0.0566666 54.917 0 54.8603 0 54.747V43.17C0 43.0567 0.0566666 43 0.17 43H4.76ZM4.539 48.525C5.16233 48.525 5.661 48.338 6.035 47.964C6.42033 47.59 6.613 47.097 6.613 46.485C6.613 45.8617 6.42033 45.363 6.035 44.989C5.661 44.6037 5.16233 44.411 4.539 44.411H1.7C1.65467 44.411 1.632 44.4337 1.632 44.479V48.457C1.632 48.5023 1.65467 48.525 1.7 48.525H4.539Z" fill="white"/>
<path d="M13.5293 55.053C12.6906 55.053 11.9596 54.8433 11.3363 54.424C10.713 53.9933 10.2766 53.3983 10.0273 52.639C9.82331 52.027 9.72131 51.3357 9.72131 50.565C9.72131 49.7603 9.81765 49.0803 10.0103 48.525C10.2596 47.777 10.696 47.1933 11.3193 46.774C11.9426 46.3433 12.685 46.128 13.5463 46.128C14.3623 46.128 15.0706 46.3433 15.6713 46.774C16.2833 47.1933 16.7196 47.7713 16.9803 48.508C17.1843 49.086 17.2863 49.766 17.2863 50.548C17.2863 51.3413 17.1843 52.0383 16.9803 52.639C16.731 53.3983 16.3003 53.9933 15.6883 54.424C15.0763 54.8433 14.3566 55.053 13.5293 55.053ZM13.5293 53.642C13.9826 53.642 14.3793 53.5173 14.7193 53.268C15.0593 53.0073 15.303 52.6447 15.4503 52.18C15.575 51.7493 15.6373 51.2167 15.6373 50.582C15.6373 49.9473 15.5806 49.4203 15.4673 49.001C15.32 48.5363 15.0763 48.1793 14.7363 47.93C14.3963 47.6693 13.9826 47.539 13.4953 47.539C13.0306 47.539 12.6283 47.6693 12.2883 47.93C11.9483 48.1793 11.7046 48.5363 11.5573 49.001C11.4326 49.3977 11.3703 49.9247 11.3703 50.582C11.3703 51.2393 11.4326 51.772 11.5573 52.18C11.6933 52.6447 11.9313 53.0073 12.2713 53.268C12.6226 53.5173 13.042 53.642 13.5293 53.642Z" fill="white"/>
<path d="M21.3456 54.917C21.2549 54.917 21.1926 54.8717 21.1586 54.781L18.7106 46.451L18.6936 46.4C18.6936 46.3093 18.7502 46.264 18.8636 46.264H20.1896C20.2916 46.264 20.3539 46.315 20.3766 46.417L21.9916 52.588C22.0029 52.6107 22.0142 52.622 22.0256 52.622C22.0482 52.622 22.0652 52.6107 22.0766 52.588L23.7256 46.417C23.7482 46.315 23.8106 46.264 23.9126 46.264H25.0856C25.1876 46.264 25.2499 46.315 25.2726 46.417L26.9556 52.571C26.9669 52.5937 26.9782 52.605 26.9896 52.605C27.0122 52.605 27.0292 52.5937 27.0406 52.571L28.7236 46.417C28.7462 46.315 28.8086 46.264 28.9106 46.264L30.2196 46.281C30.2762 46.281 30.3159 46.298 30.3386 46.332C30.3726 46.366 30.3839 46.4113 30.3726 46.468L27.9076 54.781C27.8736 54.8717 27.8112 54.917 27.7206 54.917H26.3946C26.3039 54.917 26.2416 54.8717 26.2076 54.781L24.5416 49.035C24.5302 49.0123 24.5132 49.001 24.4906 49.001C24.4792 49.001 24.4679 49.0123 24.4566 49.035L22.8756 54.764C22.8529 54.866 22.7906 54.917 22.6886 54.917H21.3456Z" fill="white"/>
<path d="M39.0805 49.511C39.1259 49.9757 39.1428 50.497 39.1315 51.075C39.1315 51.1883 39.0749 51.245 38.9615 51.245H33.5385C33.4932 51.245 33.4705 51.2677 33.4705 51.313C33.4705 51.6983 33.5045 51.993 33.5725 52.197C33.6972 52.6503 33.9465 53.0073 34.3205 53.268C34.7059 53.5173 35.1875 53.642 35.7655 53.642C36.6042 53.642 37.2502 53.2963 37.7035 52.605C37.7602 52.4917 37.8339 52.4747 37.9245 52.554L38.8935 53.2C38.9729 53.268 38.9899 53.3417 38.9445 53.421C38.6272 53.931 38.1739 54.3333 37.5845 54.628C37.0065 54.9227 36.3492 55.07 35.6125 55.07C34.7852 55.07 34.0882 54.8887 33.5215 54.526C32.9548 54.1633 32.5299 53.6477 32.2465 52.979C31.9745 52.3103 31.8385 51.5 31.8385 50.548C31.8385 49.7207 31.9009 49.0917 32.0255 48.661C32.2295 47.879 32.6375 47.2613 33.2495 46.808C33.8615 46.3547 34.6039 46.128 35.4765 46.128C36.6212 46.128 37.4769 46.417 38.0435 46.995C38.6102 47.5617 38.9558 48.4003 39.0805 49.511ZM35.4765 47.539C34.9892 47.539 34.5868 47.6637 34.2695 47.913C33.9522 48.151 33.7369 48.474 33.6235 48.882C33.5442 49.1313 33.4932 49.4487 33.4705 49.834C33.4705 49.8793 33.4932 49.902 33.5385 49.902H37.4315C37.4769 49.902 37.4995 49.8793 37.4995 49.834C37.4768 49.46 37.4429 49.1823 37.3975 49.001C37.2842 48.559 37.0575 48.2077 36.7175 47.947C36.3889 47.675 35.9752 47.539 35.4765 47.539Z" fill="white"/>
<path d="M45.3818 46.179C45.7444 46.179 46.0731 46.2527 46.3678 46.4C46.4471 46.434 46.4754 46.502 46.4528 46.604L46.1808 47.879C46.1694 47.981 46.1014 48.015 45.9768 47.981C45.7841 47.9017 45.5574 47.862 45.2968 47.862L45.0588 47.879C44.5261 47.9017 44.0841 48.0887 43.7328 48.44C43.3928 48.78 43.2228 49.2277 43.2228 49.783V54.747C43.2228 54.8603 43.1661 54.917 43.0528 54.917H41.7608C41.6474 54.917 41.5908 54.8603 41.5908 54.747V46.434C41.5908 46.3207 41.6474 46.264 41.7608 46.264H43.0528C43.1661 46.264 43.2228 46.3207 43.2228 46.434V47.335C43.2228 47.369 43.2284 47.3917 43.2398 47.403C43.2624 47.403 43.2794 47.3917 43.2908 47.369C43.8008 46.5757 44.4978 46.179 45.3818 46.179Z" fill="white"/>
<path d="M55.1706 49.511C55.2159 49.9757 55.2329 50.497 55.2216 51.075C55.2216 51.1883 55.1649 51.245 55.0516 51.245H49.6286C49.5832 51.245 49.5606 51.2677 49.5606 51.313C49.5606 51.6983 49.5946 51.993 49.6626 52.197C49.7872 52.6503 50.0366 53.0073 50.4106 53.268C50.7959 53.5173 51.2776 53.642 51.8556 53.642C52.6942 53.642 53.3402 53.2963 53.7936 52.605C53.8502 52.4917 53.9239 52.4747 54.0146 52.554L54.9836 53.2C55.0629 53.268 55.0799 53.3417 55.0346 53.421C54.7172 53.931 54.2639 54.3333 53.6746 54.628C53.0966 54.9227 52.4392 55.07 51.7026 55.07C50.8752 55.07 50.1782 54.8887 49.6116 54.526C49.0449 54.1633 48.6199 53.6477 48.3366 52.979C48.0646 52.3103 47.9286 51.5 47.9286 50.548C47.9286 49.7207 47.9909 49.0917 48.1156 48.661C48.3196 47.879 48.7276 47.2613 49.3396 46.808C49.9516 46.3547 50.6939 46.128 51.5666 46.128C52.7112 46.128 53.5669 46.417 54.1336 46.995C54.7002 47.5617 55.0459 48.4003 55.1706 49.511ZM51.5666 47.539C51.0792 47.539 50.6769 47.6637 50.3596 47.913C50.0422 48.151 49.8269 48.474 49.7136 48.882C49.6342 49.1313 49.5832 49.4487 49.5606 49.834C49.5606 49.8793 49.5832 49.902 49.6286 49.902H53.5216C53.5669 49.902 53.5896 49.8793 53.5896 49.834C53.5669 49.46 53.5329 49.1823 53.4876 49.001C53.3742 48.559 53.1476 48.2077 52.8076 47.947C52.4789 47.675 52.0652 47.539 51.5666 47.539Z" fill="white"/>
<path d="M63.0528 43.187C63.0528 43.0737 63.1095 43.017 63.2228 43.017H64.5148C64.6282 43.017 64.6848 43.0737 64.6848 43.187V54.747C64.6848 54.8603 64.6282 54.917 64.5148 54.917H63.2228C63.1095 54.917 63.0528 54.8603 63.0528 54.747V54.186C63.0528 54.1633 63.0415 54.1463 63.0188 54.135C63.0075 54.1237 62.9905 54.1293 62.9678 54.152C62.7185 54.4353 62.4238 54.6563 62.0838 54.815C61.7438 54.9737 61.3755 55.053 60.9788 55.053C60.1628 55.053 59.4828 54.8547 58.9388 54.458C58.4062 54.05 58.0151 53.4777 57.7658 52.741C57.5505 52.1403 57.4428 51.415 57.4428 50.565C57.4428 49.7717 57.5335 49.086 57.7148 48.508C57.9528 47.76 58.3438 47.1763 58.8878 46.757C59.4318 46.3377 60.1288 46.128 60.9788 46.128C61.3641 46.128 61.7268 46.2073 62.0668 46.366C62.4181 46.5133 62.7185 46.7287 62.9678 47.012C62.9905 47.0347 63.0075 47.0403 63.0188 47.029C63.0415 47.0177 63.0528 47.0007 63.0528 46.978V43.187ZM62.6278 52.724C62.8885 52.248 63.0188 51.534 63.0188 50.582C63.0188 49.63 62.8771 48.9047 62.5938 48.406C62.2651 47.828 61.7835 47.539 61.1488 47.539C60.4688 47.539 59.9645 47.811 59.6358 48.355C59.2731 48.9217 59.0918 49.6697 59.0918 50.599C59.0918 51.4717 59.2335 52.1743 59.5168 52.707C59.8455 53.3303 60.3838 53.642 61.1318 53.642C61.7891 53.642 62.2878 53.336 62.6278 52.724Z" fill="white"/>
<path d="M78.2676 48.508C78.449 49.086 78.5396 49.7717 78.5396 50.565C78.5396 51.415 78.4319 52.1403 78.2166 52.741C77.9673 53.4777 77.5706 54.05 77.0266 54.458C76.4939 54.8547 75.8196 55.053 75.0036 55.053C74.6069 55.053 74.2386 54.9737 73.8986 54.815C73.5586 54.6563 73.264 54.4353 73.0146 54.152C72.992 54.1293 72.9693 54.1237 72.9466 54.135C72.9353 54.1463 72.9296 54.1633 72.9296 54.186V54.747C72.9296 54.8603 72.8729 54.917 72.7596 54.917H71.4676C71.3543 54.917 71.2976 54.8603 71.2976 54.747V43.187C71.2976 43.0737 71.3543 43.017 71.4676 43.017H72.7596C72.8729 43.017 72.9296 43.0737 72.9296 43.187V46.978C72.9296 47.0007 72.9353 47.0177 72.9466 47.029C72.9693 47.0403 72.992 47.0347 73.0146 47.012C73.264 46.7287 73.5586 46.5133 73.8986 46.366C74.2499 46.2073 74.6183 46.128 75.0036 46.128C75.8536 46.128 76.5506 46.3377 77.0946 46.757C77.6386 47.1763 78.0296 47.76 78.2676 48.508ZM76.4656 52.707C76.7489 52.1743 76.8906 51.4717 76.8906 50.599C76.8906 49.6697 76.7093 48.9217 76.3466 48.355C76.018 47.811 75.5136 47.539 74.8336 47.539C74.199 47.539 73.7173 47.828 73.3886 48.406C73.0939 48.9273 72.9466 49.6527 72.9466 50.582C72.9466 51.5113 73.0826 52.2253 73.3546 52.724C73.6946 53.336 74.1933 53.642 74.8506 53.642C75.5986 53.642 76.1369 53.3303 76.4656 52.707Z" fill="white"/>
<path d="M80.5897 58.3C80.5103 58.3 80.4707 58.2433 80.4707 58.13V57.127C80.4707 57.0137 80.5273 56.957 80.6407 56.957H80.6747C81.128 56.9457 81.485 56.889 81.7457 56.787C82.0063 56.685 82.2217 56.4923 82.3917 56.209C82.5617 55.937 82.726 55.5233 82.8847 54.968C82.896 54.9567 82.896 54.9397 82.8847 54.917C82.8847 54.883 82.8847 54.866 82.8847 54.866L80.0457 46.451L80.0287 46.383C80.0287 46.3037 80.0797 46.264 80.1817 46.264H81.5587C81.6607 46.264 81.7287 46.3093 81.7627 46.4L83.6837 52.809C83.695 52.8317 83.712 52.843 83.7347 52.843C83.7573 52.843 83.7743 52.8317 83.7857 52.809L85.6897 46.4C85.7237 46.3093 85.7917 46.264 85.8937 46.264H87.2367C87.3613 46.264 87.4067 46.3263 87.3727 46.451L84.2787 55.512C84.018 56.294 83.7573 56.872 83.4967 57.246C83.236 57.6313 82.896 57.9033 82.4767 58.062C82.0573 58.2207 81.468 58.3 80.7087 58.3H80.5897Z" fill="white"/>
<path d="M93.507 54.917C93.3936 54.917 93.337 54.8603 93.337 54.747V43.187C93.337 43.0737 93.3936 43.017 93.507 43.017H94.799C94.9123 43.017 94.969 43.0737 94.969 43.187V54.747C94.969 54.8603 94.9123 54.917 94.799 54.917H93.507Z" fill="white"/>
<path d="M106.942 46.145C107.803 46.145 108.483 46.4057 108.982 46.927C109.481 47.437 109.73 48.151 109.73 49.069V54.747C109.73 54.8603 109.673 54.917 109.56 54.917H108.285C108.172 54.917 108.115 54.8603 108.115 54.747V49.409C108.115 48.8423 107.956 48.3947 107.639 48.066C107.333 47.726 106.919 47.556 106.398 47.556C105.877 47.556 105.452 47.7203 105.123 48.049C104.794 48.3777 104.63 48.8197 104.63 49.375V54.747C104.63 54.8603 104.573 54.917 104.46 54.917H103.185C103.072 54.917 103.015 54.8603 103.015 54.747V49.409C103.015 48.8423 102.856 48.3947 102.539 48.066C102.233 47.726 101.819 47.556 101.298 47.556C100.777 47.556 100.357 47.7203 100.04 48.049C99.734 48.3777 99.581 48.8197 99.581 49.375V54.747C99.581 54.8603 99.5243 54.917 99.411 54.917H98.119C98.0056 54.917 97.949 54.8603 97.949 54.747V46.434C97.949 46.3207 98.0056 46.264 98.119 46.264H99.411C99.5243 46.264 99.581 46.3207 99.581 46.434V47.012C99.581 47.0347 99.5866 47.0517 99.598 47.063C99.6206 47.0743 99.6433 47.0687 99.666 47.046C100.165 46.4453 100.89 46.145 101.842 46.145C102.42 46.145 102.913 46.2583 103.321 46.485C103.729 46.7003 104.046 47.0233 104.273 47.454C104.307 47.4993 104.341 47.4993 104.375 47.454C104.647 47.012 105.004 46.6833 105.446 46.468C105.899 46.2527 106.398 46.145 106.942 46.145Z" fill="white"/>
<path d="M121.387 46.145C122.248 46.145 122.928 46.4057 123.427 46.927C123.926 47.437 124.175 48.151 124.175 49.069V54.747C124.175 54.8603 124.118 54.917 124.005 54.917H122.73C122.617 54.917 122.56 54.8603 122.56 54.747V49.409C122.56 48.8423 122.401 48.3947 122.084 48.066C121.778 47.726 121.364 47.556 120.843 47.556C120.322 47.556 119.897 47.7203 119.568 48.049C119.239 48.3777 119.075 48.8197 119.075 49.375V54.747C119.075 54.8603 119.018 54.917 118.905 54.917H117.63C117.517 54.917 117.46 54.8603 117.46 54.747V49.409C117.46 48.8423 117.301 48.3947 116.984 48.066C116.678 47.726 116.264 47.556 115.743 47.556C115.222 47.556 114.802 47.7203 114.485 48.049C114.179 48.3777 114.026 48.8197 114.026 49.375V54.747C114.026 54.8603 113.969 54.917 113.856 54.917H112.564C112.451 54.917 112.394 54.8603 112.394 54.747V46.434C112.394 46.3207 112.451 46.264 112.564 46.264H113.856C113.969 46.264 114.026 46.3207 114.026 46.434V47.012C114.026 47.0347 114.032 47.0517 114.043 47.063C114.066 47.0743 114.088 47.0687 114.111 47.046C114.61 46.4453 115.335 46.145 116.287 46.145C116.865 46.145 117.358 46.2583 117.766 46.485C118.174 46.7003 118.491 47.0233 118.718 47.454C118.752 47.4993 118.786 47.4993 118.82 47.454C119.092 47.012 119.449 46.6833 119.891 46.468C120.344 46.2527 120.843 46.145 121.387 46.145Z" fill="white"/>
<path d="M130.275 55.053C129.437 55.053 128.706 54.8433 128.082 54.424C127.459 53.9933 127.023 53.3983 126.773 52.639C126.569 52.027 126.467 51.3357 126.467 50.565C126.467 49.7603 126.564 49.0803 126.756 48.525C127.006 47.777 127.442 47.1933 128.065 46.774C128.689 46.3433 129.431 46.128 130.292 46.128C131.108 46.128 131.817 46.3433 132.417 46.774C133.029 47.1933 133.466 47.7713 133.726 48.508C133.93 49.086 134.032 49.766 134.032 50.548C134.032 51.3413 133.93 52.0383 133.726 52.639C133.477 53.3983 133.046 53.9933 132.434 54.424C131.822 54.8433 131.103 55.053 130.275 55.053ZM130.275 53.642C130.729 53.642 131.125 53.5173 131.465 53.268C131.805 53.0073 132.049 52.6447 132.196 52.18C132.321 51.7493 132.383 51.2167 132.383 50.582C132.383 49.9473 132.327 49.4203 132.213 49.001C132.066 48.5363 131.822 48.1793 131.482 47.93C131.142 47.6693 130.729 47.539 130.241 47.539C129.777 47.539 129.374 47.6693 129.034 47.93C128.694 48.1793 128.451 48.5363 128.303 49.001C128.179 49.3977 128.116 49.9247 128.116 50.582C128.116 51.2393 128.179 51.772 128.303 52.18C128.439 52.6447 128.677 53.0073 129.017 53.268C129.369 53.5173 129.788 53.642 130.275 53.642Z" fill="white"/>
<path d="M143.556 48.508C143.737 49.086 143.828 49.7717 143.828 50.565C143.828 51.415 143.72 52.1403 143.505 52.741C143.256 53.4777 142.859 54.05 142.315 54.458C141.782 54.8547 141.108 55.053 140.292 55.053C139.895 55.053 139.527 54.9737 139.187 54.815C138.847 54.6563 138.552 54.4353 138.303 54.152C138.28 54.1293 138.258 54.1237 138.235 54.135C138.224 54.1463 138.218 54.1633 138.218 54.186V54.747C138.218 54.8603 138.161 54.917 138.048 54.917H136.756C136.643 54.917 136.586 54.8603 136.586 54.747V43.187C136.586 43.0737 136.643 43.017 136.756 43.017H138.048C138.161 43.017 138.218 43.0737 138.218 43.187V46.978C138.218 47.0007 138.224 47.0177 138.235 47.029C138.258 47.0403 138.28 47.0347 138.303 47.012C138.552 46.7287 138.847 46.5133 139.187 46.366C139.538 46.2073 139.907 46.128 140.292 46.128C141.142 46.128 141.839 46.3377 142.383 46.757C142.927 47.1763 143.318 47.76 143.556 48.508ZM141.754 52.707C142.037 52.1743 142.179 51.4717 142.179 50.599C142.179 49.6697 141.998 48.9217 141.635 48.355C141.306 47.811 140.802 47.539 140.122 47.539C139.487 47.539 139.006 47.828 138.677 48.406C138.382 48.9273 138.235 49.6527 138.235 50.582C138.235 51.5113 138.371 52.2253 138.643 52.724C138.983 53.336 139.482 53.642 140.139 53.642C140.887 53.642 141.425 53.3303 141.754 52.707Z" fill="white"/>
<path d="M153.27 49.511C153.315 49.9757 153.332 50.497 153.321 51.075C153.321 51.1883 153.264 51.245 153.151 51.245H147.728C147.682 51.245 147.66 51.2677 147.66 51.313C147.66 51.6983 147.694 51.993 147.762 52.197C147.886 52.6503 148.136 53.0073 148.51 53.268C148.895 53.5173 149.377 53.642 149.955 53.642C150.793 53.642 151.439 53.2963 151.893 52.605C151.949 52.4917 152.023 52.4747 152.114 52.554L153.083 53.2C153.162 53.268 153.179 53.3417 153.134 53.421C152.816 53.931 152.363 54.3333 151.774 54.628C151.196 54.9227 150.538 55.07 149.802 55.07C148.974 55.07 148.277 54.8887 147.711 54.526C147.144 54.1633 146.719 53.6477 146.436 52.979C146.164 52.3103 146.028 51.5 146.028 50.548C146.028 49.7207 146.09 49.0917 146.215 48.661C146.419 47.879 146.827 47.2613 147.439 46.808C148.051 46.3547 148.793 46.128 149.666 46.128C150.81 46.128 151.666 46.417 152.233 46.995C152.799 47.5617 153.145 48.4003 153.27 49.511ZM149.666 47.539C149.178 47.539 148.776 47.6637 148.459 47.913C148.141 48.151 147.926 48.474 147.813 48.882C147.733 49.1313 147.682 49.4487 147.66 49.834C147.66 49.8793 147.682 49.902 147.728 49.902H151.621C151.666 49.902 151.689 49.8793 151.689 49.834C151.666 49.46 151.632 49.1823 151.587 49.001C151.473 48.559 151.247 48.2077 150.907 47.947C150.578 47.675 150.164 47.539 149.666 47.539Z" fill="white"/>
<path d="M155.95 54.917C155.837 54.917 155.78 54.8603 155.78 54.747V43.187C155.78 43.0737 155.837 43.017 155.95 43.017H157.242C157.355 43.017 157.412 43.0737 157.412 43.187V54.747C157.412 54.8603 157.355 54.917 157.242 54.917H155.95Z" fill="white"/>
</svg>
