<svg width="680" height="462" viewBox="0 0 680 462" fill="none" xmlns="http://www.w3.org/2000/svg">
<g filter="url(#filter0_dd)">
<rect x="40" y="24" width="600" height="382" rx="16" fill="#E4EBEB"/>
</g>
<path d="M192.585 228.909H195.67V221.938H195.798C196.284 222.892 197.298 224.23 199.548 224.23C202.634 224.23 204.943 221.784 204.943 217.472C204.943 213.108 202.565 210.739 199.54 210.739C197.23 210.739 196.267 212.128 195.798 213.074H195.619V210.909H192.585V228.909ZM195.611 217.455C195.611 214.915 196.702 213.27 198.688 213.27C200.741 213.27 201.798 215.017 201.798 217.455C201.798 219.909 200.724 221.699 198.688 221.699C196.719 221.699 195.611 219.994 195.611 217.455ZM210.67 206.545H207.585V224H210.67V206.545ZM217.61 224.264C219.664 224.264 220.891 223.301 221.454 222.202H221.556V224H224.522V215.239C224.522 211.778 221.701 210.739 219.204 210.739C216.451 210.739 214.337 211.966 213.656 214.352L216.536 214.761C216.843 213.866 217.712 213.099 219.221 213.099C220.653 213.099 221.437 213.832 221.437 215.119V215.17C221.437 216.057 220.508 216.099 218.198 216.347C215.658 216.619 213.229 217.378 213.229 220.327C213.229 222.901 215.113 224.264 217.61 224.264ZM218.411 221.997C217.124 221.997 216.204 221.409 216.204 220.276C216.204 219.091 217.235 218.597 218.616 218.401C219.425 218.29 221.045 218.085 221.445 217.761V219.304C221.445 220.761 220.269 221.997 218.411 221.997ZM233.335 224.256C236.624 224.256 238.721 222.304 238.942 219.526H235.994C235.729 220.932 234.715 221.741 233.36 221.741C231.434 221.741 230.19 220.131 230.19 217.455C230.19 214.812 231.46 213.227 233.36 213.227C234.843 213.227 235.755 214.182 235.994 215.443H238.942C238.729 212.605 236.513 210.739 233.317 210.739C229.482 210.739 227.062 213.509 227.062 217.506C227.062 221.469 229.423 224.256 233.335 224.256ZM247.271 224.256C250.322 224.256 252.419 222.764 252.964 220.489L250.084 220.165C249.666 221.273 248.643 221.852 247.314 221.852C245.32 221.852 243.999 220.54 243.973 218.298H253.092V217.352C253.092 212.759 250.331 210.739 247.109 210.739C243.359 210.739 240.913 213.491 240.913 217.531C240.913 221.639 243.325 224.256 247.271 224.256ZM243.982 216.219C244.075 214.548 245.311 213.142 247.152 213.142C248.925 213.142 250.118 214.438 250.135 216.219H243.982ZM258.788 216.33C258.788 214.438 259.964 213.347 261.617 213.347C263.237 213.347 264.191 214.378 264.191 216.142V224H267.276V215.665C267.276 212.503 265.487 210.739 262.768 210.739C260.756 210.739 259.478 211.651 258.873 213.134H258.719V206.545H255.702V224H258.788V216.33ZM276.131 224.256C279.967 224.256 282.404 221.554 282.404 217.506C282.404 213.449 279.967 210.739 276.131 210.739C272.296 210.739 269.859 213.449 269.859 217.506C269.859 221.554 272.296 224.256 276.131 224.256ZM276.148 221.784C274.026 221.784 272.987 219.892 272.987 217.497C272.987 215.102 274.026 213.185 276.148 213.185C278.237 213.185 279.276 215.102 279.276 217.497C279.276 219.892 278.237 221.784 276.148 221.784ZM288.108 206.545H285.023V224H288.108V206.545ZM296.138 224.23C298.388 224.23 299.403 222.892 299.888 221.938H300.076V224H303.11V206.545H300.016V213.074H299.888C299.42 212.128 298.457 210.739 296.147 210.739C293.121 210.739 290.744 213.108 290.744 217.472C290.744 221.784 293.053 224.23 296.138 224.23ZM296.999 221.699C294.962 221.699 293.888 219.909 293.888 217.455C293.888 215.017 294.945 213.27 296.999 213.27C298.985 213.27 300.076 214.915 300.076 217.455C300.076 219.994 298.968 221.699 296.999 221.699ZM312.193 224.256C315.244 224.256 317.341 222.764 317.886 220.489L315.006 220.165C314.588 221.273 313.565 221.852 312.236 221.852C310.241 221.852 308.92 220.54 308.895 218.298H318.014V217.352C318.014 212.759 315.253 210.739 312.031 210.739C308.281 210.739 305.835 213.491 305.835 217.531C305.835 221.639 308.247 224.256 312.193 224.256ZM308.903 216.219C308.997 214.548 310.233 213.142 312.074 213.142C313.847 213.142 315.04 214.438 315.057 216.219H308.903ZM320.624 224H323.71V216.304C323.71 214.642 324.962 213.466 326.658 213.466C327.178 213.466 327.826 213.56 328.09 213.645V210.807C327.809 210.756 327.323 210.722 326.982 210.722C325.482 210.722 324.229 211.574 323.752 213.091H323.616V210.909H320.624V224ZM342.724 210.909H340.005V209.878C340.005 208.855 340.431 208.284 341.582 208.284C342.067 208.284 342.477 208.395 342.732 208.472L343.354 206.085C342.954 205.949 342.076 205.727 341.011 205.727C338.735 205.727 336.92 207.031 336.92 209.673V210.909H334.985V213.295H336.92V224H340.005V213.295H342.724V210.909ZM350.358 224.256C354.193 224.256 356.631 221.554 356.631 217.506C356.631 213.449 354.193 210.739 350.358 210.739C346.523 210.739 344.085 213.449 344.085 217.506C344.085 221.554 346.523 224.256 350.358 224.256ZM350.375 221.784C348.253 221.784 347.213 219.892 347.213 217.497C347.213 215.102 348.253 213.185 350.375 213.185C352.463 213.185 353.503 215.102 353.503 217.497C353.503 219.892 352.463 221.784 350.375 221.784ZM359.249 224H362.335V216.304C362.335 214.642 363.587 213.466 365.283 213.466C365.803 213.466 366.451 213.56 366.715 213.645V210.807C366.434 210.756 365.948 210.722 365.607 210.722C364.107 210.722 362.854 211.574 362.377 213.091H362.241V210.909H359.249V224ZM378.485 224.264C380.539 224.264 381.766 223.301 382.329 222.202H382.431V224H385.397V215.239C385.397 211.778 382.576 210.739 380.079 210.739C377.326 210.739 375.212 211.966 374.531 214.352L377.411 214.761C377.718 213.866 378.587 213.099 380.096 213.099C381.528 213.099 382.312 213.832 382.312 215.119V215.17C382.312 216.057 381.383 216.099 379.073 216.347C376.533 216.619 374.104 217.378 374.104 220.327C374.104 222.901 375.988 224.264 378.485 224.264ZM379.286 221.997C377.999 221.997 377.079 221.409 377.079 220.276C377.079 219.091 378.11 218.597 379.491 218.401C380.3 218.29 381.92 218.085 382.32 217.761V219.304C382.32 220.761 381.144 221.997 379.286 221.997ZM391.585 216.33C391.585 214.438 392.727 213.347 394.354 213.347C395.948 213.347 396.903 214.395 396.903 216.142V224H399.988V215.665C399.996 212.528 398.207 210.739 395.505 210.739C393.545 210.739 392.198 211.676 391.602 213.134H391.448V210.909H388.499V224H391.585V216.33ZM403.124 224H406.21V210.909H403.124V224ZM404.675 209.051C405.656 209.051 406.457 208.301 406.457 207.381C406.457 206.452 405.656 205.702 404.675 205.702C403.687 205.702 402.886 206.452 402.886 207.381C402.886 208.301 403.687 209.051 404.675 209.051ZM409.382 224H412.467V216.04C412.467 214.429 413.541 213.338 414.871 213.338C416.175 213.338 417.07 214.216 417.07 215.562V224H420.095V215.835C420.095 214.361 420.973 213.338 422.464 213.338C423.709 213.338 424.697 214.071 424.697 215.69V224H427.791V215.213C427.791 212.29 426.104 210.739 423.7 210.739C421.8 210.739 420.351 211.676 419.771 213.134H419.635C419.132 211.651 417.862 210.739 416.098 210.739C414.342 210.739 413.03 211.642 412.484 213.134H412.331V210.909H409.382V224ZM434.688 224.264C436.742 224.264 437.969 223.301 438.532 222.202H438.634V224H441.6V215.239C441.6 211.778 438.779 210.739 436.282 210.739C433.529 210.739 431.415 211.966 430.734 214.352L433.614 214.761C433.921 213.866 434.79 213.099 436.299 213.099C437.731 213.099 438.515 213.832 438.515 215.119V215.17C438.515 216.057 437.586 216.099 435.276 216.347C432.737 216.619 430.308 217.378 430.308 220.327C430.308 222.901 432.191 224.264 434.688 224.264ZM435.489 221.997C434.202 221.997 433.282 221.409 433.282 220.276C433.282 219.091 434.313 218.597 435.694 218.401C436.504 218.29 438.123 218.085 438.523 217.761V219.304C438.523 220.761 437.347 221.997 435.489 221.997ZM451.239 210.909H448.657V207.773H445.572V210.909H443.714V213.295H445.572V220.574C445.555 223.037 447.344 224.247 449.663 224.179C450.54 224.153 451.146 223.983 451.478 223.872L450.958 221.46C450.788 221.503 450.438 221.58 450.055 221.58C449.279 221.58 448.657 221.307 448.657 220.062V213.295H451.239V210.909ZM453.82 224H456.905V210.909H453.82V224ZM455.371 209.051C456.351 209.051 457.152 208.301 457.152 207.381C457.152 206.452 456.351 205.702 455.371 205.702C454.382 205.702 453.581 206.452 453.581 207.381C453.581 208.301 454.382 209.051 455.371 209.051ZM465.788 224.256C469.623 224.256 472.06 221.554 472.06 217.506C472.06 213.449 469.623 210.739 465.788 210.739C461.952 210.739 459.515 213.449 459.515 217.506C459.515 221.554 461.952 224.256 465.788 224.256ZM465.805 221.784C463.683 221.784 462.643 219.892 462.643 217.497C462.643 215.102 463.683 213.185 465.805 213.185C467.893 213.185 468.933 215.102 468.933 217.497C468.933 219.892 467.893 221.784 465.805 221.784ZM477.764 216.33C477.764 214.438 478.906 213.347 480.534 213.347C482.128 213.347 483.082 214.395 483.082 216.142V224H486.168V215.665C486.176 212.528 484.386 210.739 481.685 210.739C479.724 210.739 478.378 211.676 477.781 213.134H477.628V210.909H474.679V224H477.764V216.33Z" fill="#1E5C5A"/>
<defs>
<filter id="filter0_dd" x="0" y="0" width="680" height="462" filterUnits="userSpaceOnUse" color-interpolation-filters="sRGB">
<feFlood flood-opacity="0" result="BackgroundImageFix"/>
<feColorMatrix in="SourceAlpha" type="matrix" values="0 0 0 0 0 0 0 0 0 0 0 0 0 0 0 0 0 0 127 0" result="hardAlpha"/>
<feOffset dy="16"/>
<feGaussianBlur stdDeviation="20"/>
<feColorMatrix type="matrix" values="0 0 0 0 0 0 0 0 0 0.211765 0 0 0 0 0.168627 0 0 0 0.02 0"/>
<feBlend mode="normal" in2="BackgroundImageFix" result="effect1_dropShadow"/>
<feColorMatrix in="SourceAlpha" type="matrix" values="0 0 0 0 0 0 0 0 0 0 0 0 0 0 0 0 0 0 127 0" result="hardAlpha"/>
<feOffset dy="16"/>
<feGaussianBlur stdDeviation="12"/>
<feColorMatrix type="matrix" values="0 0 0 0 0 0 0 0 0 0.2125 0 0 0 0 0.16727 0 0 0 0.02 0"/>
<feBlend mode="normal" in2="effect1_dropShadow" result="effect2_dropShadow"/>
<feBlend mode="normal" in="SourceGraphic" in2="effect2_dropShadow" result="shape"/>
</filter>
</defs>
</svg>
