<svg width="40" height="40" viewBox="0 0 40 40" fill="none" xmlns="http://www.w3.org/2000/svg">
<path opacity="0.1" d="M2.64026 12.9288C0.327824 16.9744 -1.01734 21.2865 0.950496 25.832C8.25144 42.6007 29.5102 45.7072 38.0969 28.5096C40.2739 24.1443 40.8537 19.1571 38.3963 14.8247C35.9389 10.4923 31.8084 6.48478 28.0605 3.46455C24.3126 0.444317 20.0323 -0.880524 15.4977 0.621978C9.98161 2.45696 5.54448 7.84516 2.64026 12.9288Z" fill="#388172"/>
<path d="M23.2779 16.4517C22.7594 13.162 21.4631 10.8334 20.0187 10.8334C18.5372 10.8334 17.2779 13.162 16.7224 16.4517H23.2779ZM16.4631 20C16.4631 20.8502 16.5002 21.6264 16.5742 22.3656H23.4261C23.5002 21.6264 23.5372 20.8502 23.5372 20C23.5372 19.1869 23.5002 18.4107 23.4261 17.6344H16.5742C16.5002 18.4107 16.4631 19.1869 16.4631 20ZM28.4631 16.4517C27.4261 13.9752 25.2779 12.0162 22.6113 11.24C23.5372 12.4967 24.1298 14.3818 24.4631 16.4517H28.4631ZM17.3891 11.24C14.7224 12.0162 12.5742 13.9752 11.5372 16.4517H15.5372C15.8705 14.3818 16.4631 12.4967 17.3891 11.24ZM28.8705 17.6344H24.6113C24.6853 18.4107 24.7594 19.2238 24.7594 20C24.7594 20.8132 24.6853 21.5894 24.6113 22.3656H28.8705C29.0557 21.6264 29.1668 20.8502 29.1668 20C29.1668 19.1869 29.0557 18.4107 28.8705 17.6344ZM15.2779 20C15.2779 19.2238 15.315 18.4107 15.3891 17.6344H11.1298C10.9446 18.4107 10.8335 19.1869 10.8335 20C10.8335 20.8502 10.9446 21.6264 11.1298 22.3656H15.3891C15.315 21.5894 15.2779 20.8132 15.2779 20ZM16.7224 23.5484C17.2779 26.875 18.5372 29.1667 20.0187 29.1667C21.4631 29.1667 22.7594 26.875 23.2779 23.5484H16.7224ZM22.6113 28.7971C25.2779 28.0209 27.4261 26.0619 28.4631 23.5484H24.4631C24.1668 25.6553 23.5372 27.5404 22.6113 28.7971ZM11.5372 23.5484C12.5742 26.0619 14.7224 28.0209 17.3891 28.7971C16.4631 27.5404 15.8705 25.6553 15.5372 23.5484H11.5372Z" fill="#388172"/>
</svg>
