<svg width="40" height="40" viewBox="0 0 40 40" fill="none" xmlns="http://www.w3.org/2000/svg">
<path opacity="0.1" d="M0.330116 24.3436C0.926042 29.2764 2.49376 33.8186 6.9665 36.4426C23.5011 46.0961 43.1445 35.1615 39.5756 14.987C38.6675 9.86772 36.0415 5.23816 31.2939 3.10909C26.5463 0.98002 20.6076 0.197758 15.6031 0.0140505C10.5986 -0.169657 6.2076 1.43471 3.36732 5.61608C-0.083231 10.7087 -0.420023 18.1461 0.330116 24.3436Z" fill="#00A5CE"/>
<path d="M19.7619 16.1857L13.9155 21.0153V26.1944C13.9155 26.4804 14.1379 26.7028 14.4239 26.7028H17.9825C18.2367 26.7028 18.4591 26.4804 18.4591 26.1944V23.1441C18.4591 22.8899 18.7133 22.6358 18.9675 22.6358H21.001C21.287 22.6358 21.5094 22.8899 21.5094 23.1441V26.1944C21.5094 26.4804 21.7636 26.7028 22.0178 26.7028H25.6082C25.8624 26.7028 26.1166 26.4804 26.1166 26.1944V20.9835L20.2385 16.1857C20.1749 16.1222 20.0796 16.0904 20.016 16.0904C19.9207 16.0904 19.8254 16.1222 19.7619 16.1857ZM29.008 19.4584L26.3708 17.266V12.8813C26.3708 12.6589 26.1801 12.5 25.9895 12.5H24.2102C23.9877 12.5 23.8289 12.6589 23.8289 12.8813V15.169L20.9693 12.8177C20.7151 12.6271 20.3656 12.5 20.016 12.5C19.6348 12.5 19.2853 12.6271 19.0311 12.8177L10.9924 19.4584C10.897 19.522 10.8335 19.649 10.8335 19.7444C10.8335 19.8397 10.897 19.935 10.9288 19.9986L11.7549 20.9835C11.8185 21.0789 11.9138 21.1106 12.0409 21.1106C12.1362 21.1106 12.2315 21.0789 12.2951 21.0153L19.7619 14.883C19.8254 14.8195 19.9207 14.7877 20.016 14.7877C20.0796 14.7877 20.1749 14.8195 20.2385 14.883L27.7052 21.0153C27.7688 21.0789 27.8641 21.1106 27.9594 21.1106C28.0865 21.1106 28.1818 21.0789 28.2454 20.9835L29.0715 19.9986C29.1351 19.935 29.1668 19.8397 29.1668 19.7444C29.1668 19.649 29.1033 19.522 29.008 19.4584Z" fill="#00A5CE"/>
</svg>
