<svg width="40" height="40" viewBox="0 0 40 40" fill="none" xmlns="http://www.w3.org/2000/svg">
<path opacity="0.1" d="M0.330116 24.3436C0.926042 29.2764 2.49376 33.8186 6.9665 36.4426C23.5011 46.0961 43.1445 35.1615 39.5756 14.987C38.6675 9.86772 36.0415 5.23816 31.2939 3.10909C26.5463 0.98002 20.6076 0.197758 15.6031 0.0140505C10.5986 -0.169657 6.2076 1.43471 3.36732 5.61608C-0.083231 10.7087 -0.420023 18.1461 0.330116 24.3436Z" fill="#F68A22"/>
<path d="M18.3379 15.0821C18.9683 13.4509 19.2836 12.6353 19.7957 12.5223C19.9304 12.4926 20.0696 12.4926 20.2043 12.5223C20.7164 12.6353 21.0317 13.4509 21.6621 15.0821C22.0207 16.0097 22.2 16.4735 22.5354 16.7889C22.6295 16.8774 22.7316 16.9562 22.8404 17.0242C23.2281 17.2667 23.7121 17.3117 24.6801 17.4017C26.3187 17.554 27.138 17.6301 27.3882 18.1149C27.44 18.2153 27.4753 18.324 27.4925 18.4365C27.5754 18.9797 26.9731 19.5484 25.7684 20.6858L25.4339 21.0016C24.8707 21.5333 24.5891 21.7992 24.4263 22.131C24.3285 22.3301 24.263 22.5444 24.2323 22.7655C24.1812 23.1341 24.2636 23.5198 24.4285 24.2912L24.4875 24.5668C24.7832 25.9501 24.9311 26.6418 24.7465 26.9818C24.5807 27.2872 24.2753 27.4827 23.9379 27.4994C23.5623 27.5181 23.033 27.0705 21.9745 26.1754C21.2771 25.5857 20.9284 25.2908 20.5413 25.1756C20.1876 25.0703 19.8124 25.0703 19.4587 25.1756C19.0716 25.2908 18.7229 25.5857 18.0255 26.1754C16.967 27.0705 16.4377 27.5181 16.0621 27.4994C15.7247 27.4827 15.4193 27.2872 15.2535 26.9818C15.0689 26.6418 15.2168 25.9501 15.5125 24.5668L15.5715 24.2912C15.7364 23.5198 15.8188 23.1341 15.7677 22.7655C15.737 22.5444 15.6715 22.3301 15.5737 22.131C15.4109 21.7992 15.1293 21.5333 14.5661 21.0016L14.2316 20.6858C13.0269 19.5484 12.4246 18.9797 12.5075 18.4365C12.5247 18.324 12.56 18.2153 12.6118 18.1149C12.862 17.6301 13.6813 17.554 15.3199 17.4017C16.2879 17.3117 16.7719 17.2667 17.1596 17.0242C17.2684 16.9562 17.3705 16.8774 17.4646 16.7889C17.8 16.4735 17.9793 16.0097 18.3379 15.0821Z" fill="#F68A22"/>
</svg>
