<svg width="40" height="40" viewBox="0 0 40 40" fill="none" xmlns="http://www.w3.org/2000/svg">
<path opacity="0.1" d="M0.330116 24.3436C0.926042 29.2764 2.49376 33.8186 6.9665 36.4426C23.5011 46.0961 43.1445 35.1615 39.5756 14.987C38.6675 9.86772 36.0415 5.23816 31.2939 3.10909C26.5463 0.98002 20.6076 0.197758 15.6031 0.0140505C10.5986 -0.169657 6.2076 1.43471 3.36732 5.61608C-0.083231 10.7087 -0.420023 18.1461 0.330116 24.3436Z" fill="#7D50B2"/>
<path d="M26.3761 27.0045C26.8368 26.9085 27.1111 26.4264 26.8822 26.0153C26.3776 25.1089 25.5826 24.3124 24.5655 23.7054C23.2557 22.9237 21.6508 22.5 19.9998 22.5C18.3488 22.5 16.7439 22.9237 15.4341 23.7054C14.4171 24.3124 13.6221 25.1089 13.1174 26.0153C12.8885 26.4264 13.1629 26.9085 13.6235 27.0045C17.8292 27.881 22.1704 27.881 26.3761 27.0045Z" fill="#7D50B2"/>
<ellipse cx="20.0002" cy="16.6667" rx="4.16667" ry="4.16667" fill="#7D50B2"/>
</svg>
