<svg width="24" height="23" xmlns="http://www.w3.org/2000/svg"><path d="M11.576 1.765c.115 2.108.22 4.21.35 6.313.01.17-.02.333-.084.48.264.03.529.053.795.072.018-.202.094-.4.23-.568 1.524-1.878 3.037-3.735 4.373-5.75a1.044 1.044 0 0 1 1.743 1.153c-1.378 2.072-2.932 3.987-4.498 5.912a1.04 1.04 0 0 1-.118.125.987.987 0 0 1 .01.371 109.8 109.8 0 0 0 8.037-.073 1.048 1.048 0 0 1 1.09.996 1.048 1.048 0 0 1-.996 1.09c-3.013.132-6.178.16-9.247.041 1.511 1.827 3.008 3.666 4.4 5.584.338.464.234 1.116-.23 1.455-.47.34-1.122.235-1.461-.23-1.417-1.955-2.946-3.828-4.486-5.692-1.393 3.11-2.27 6.45-3.9 9.429a1.044 1.044 0 0 1-1.831-1.002c1.527-2.79 2.386-5.9 3.632-8.835-2.728.395-5.455.64-8.196.962a1.04 1.04 0 0 1-1.158-.913 1.04 1.04 0 0 1 .913-1.159c2.783-.33 5.55-.572 8.315-.978l.098.081A23.767 23.767 0 0 1 3.451 3.45a1.047 1.047 0 0 1 .428-1.414 1.047 1.047 0 0 1 1.414.428 21.466 21.466 0 0 0 4.561 5.839l-.01-.095c-.13-2.108-.235-4.215-.35-6.323a1.04 1.04 0 0 1 .981-1.101 1.044 1.044 0 0 1 1.101.98Z" fill="#000" fill-rule="evenodd"/></svg>