<svg width="24" height="15" fill="none" xmlns="http://www.w3.org/2000/svg"><path d="M14.434 7.742c0 1.393-.291 2.635-.874 3.727a6.276 6.276 0 0 1-2.49 2.541c-1.079.616-2.314.924-3.707.924a7.223 7.223 0 0 1-2.863-.582 7.375 7.375 0 0 1-2.35-1.567 7.374 7.374 0 0 1-1.567-2.35A7.224 7.224 0 0 1 0 7.57C0 6.574.194 5.62.583 4.71c.388-.911.91-1.694 1.567-2.35A7.374 7.374 0 0 1 4.5.79 7.223 7.223 0 0 1 7.363.21c1.915 0 3.559.643 4.932 1.928l-2 1.919c-.783-.757-1.76-1.135-2.932-1.135-.824 0-1.587.207-2.29.623A4.582 4.582 0 0 0 3.415 5.24a4.59 4.59 0 0 0-.613 2.33 4.645 4.645 0 0 0 2.27 4.028 4.425 4.425 0 0 0 2.29.623c.557 0 1.065-.077 1.528-.23.468-.155.853-.346 1.155-.574a4.18 4.18 0 0 0 .783-.793c.228-.295.392-.572.492-.834.107-.26.181-.509.221-.743H7.363V6.517h6.95c.081.422.121.83.121 1.225Zm8.709-1.225v2.11h-2.1v2.098h-2.109V8.626h-2.1v-2.11h2.1V4.418h2.11v2.1h2.099Z" fill="#000"/></svg>