<svg width="24" height="24" viewBox="0 0 24 24" fill="none" xmlns="http://www.w3.org/2000/svg"><path d="M17.823 10a1 1 0 0 1 .928.629l3.6 9a1 1 0 0 1-1.857.743L19.544 18h-4.09l-.948 2.371a1 1 0 1 1-1.857-.742l3.6-9a1 1 0 0 1 .928-.629h.646ZM9 2a1 1 0 0 1 1 1v1h5a1 1 0 1 1 0 2h-.968a18.222 18.222 0 0 1-3.62 6.301c.508.453 1.046.87 1.61 1.25.41.275.588.803.405 1.26-.226.564-.9.81-1.407.477A17.013 17.013 0 0 1 9 13.725a16.676 16.676 0 0 1-5.225 3.208c-.528.203-1.102-.114-1.253-.659-.144-.518.148-1.056.648-1.252a14.7 14.7 0 0 0 4.42-2.72 18.075 18.075 0 0 1-2.095-2.909C5.128 8.76 5.607 8 6.339 8h.072c.367 0 .703.202.89.518A16.03 16.03 0 0 0 9 10.877a16.165 16.165 0 0 0 2.91-4.876H3A1 1 0 0 1 3 4h5V3a1 1 0 0 1 1-1Zm8.5 10.885L16.253 16h2.492L17.5 12.885Z" fill="#000"/></svg>