<svg width="20" height="20" viewBox="0 0 20 20" fill="none" xmlns="http://www.w3.org/2000/svg"><path fill-rule="evenodd" clip-rule="evenodd" d="M9.206 6.625a6.925 6.925 0 0 1 6.512-2.342 6.926 6.926 0 0 1-2.343 6.511l-2.846 2.409-.66.389-3.461-3.462.386-.654 2.412-2.85Zm-3.66 1.737 2.383-2.817.056-.065c-.978.217-2.271.776-3.782 2.089l1.342.793Zm4.463-4.6a8.598 8.598 0 0 1 6.569-1.005.914.914 0 0 1 .665.665 8.598 8.598 0 0 1-1.005 6.57c.067.388.108.899.053 1.512-.13 1.412-.766 3.3-2.644 5.444-.763.87-2.09.658-2.637-.267l-.69-1.166a.996.996 0 0 1-1.093-.2l.095.095-.591.592a1.673 1.673 0 0 1-2.366 0l-2.366-2.366a1.673 1.673 0 0 1 0-2.366l.591-.592.096.095a.996.996 0 0 1-.2-1.094l-1.167-.69c-.925-.546-1.138-1.874-.267-2.636 2.143-1.879 4.031-2.516 5.444-2.644a5.765 5.765 0 0 1 1.513.053Zm-4.236 8.1-.591.59 2.366 2.367.591-.592-2.366-2.366Zm5.865 2.594.793 1.341c1.311-1.51 1.87-2.803 2.088-3.78l-.063.054-2.818 2.385Z" fill="#000"/></svg>