<svg width="16" height="16" viewBox="0 0 16 16" fill="none" xmlns="http://www.w3.org/2000/svg"><path fill-rule="evenodd" clip-rule="evenodd" d="M8 1.333c.481 0 .924.26 1.161.678l1.624 2.873 2.804.548a1.333 1.333 0 0 1 .667 2.272l-2.134 2.043.494 3.395a1.333 1.333 0 0 1-1.921 1.381L8 13.161l-2.694 1.362a1.333 1.333 0 0 1-1.921-1.381l.493-3.395-2.133-2.043a1.333 1.333 0 0 1 .666-2.272l2.805-.548L6.839 2.01c.237-.419.68-.678 1.161-.678ZM6.074 6.074l-3.407.667 2.63 2.518-.593 4.074L8 11.667l3.296 1.666-.592-4.074 2.63-2.518-3.408-.667L8 2.667 6.074 6.074Z" fill="#000"/></svg>