<svg width="17" height="13" fill="none" xmlns="http://www.w3.org/2000/svg"><path d="M16.272 1.67a6.797 6.797 0 0 1-1.627 1.677 9.267 9.267 0 0 1-.372 3.033 9.35 9.35 0 0 1-1.165 2.492 9.806 9.806 0 0 1-1.848 2.12c-.716.608-1.58 1.097-2.591 1.466A9.564 9.564 0 0 1 5.424 13a9.01 9.01 0 0 1-4.982-1.457c.234.027.495.04.783.04 1.507 0 2.85-.461 4.028-1.386a3.18 3.18 0 0 1-1.888-.642A3.2 3.2 0 0 1 2.22 7.948c.22.033.425.05.613.05.288 0 .572-.037.853-.11a3.224 3.224 0 0 1-1.868-1.116 3.167 3.167 0 0 1-.733-2.069v-.04c.455.254.944.392 1.466.412A3.24 3.24 0 0 1 1.497 3.92a3.161 3.161 0 0 1-.392-1.547c0-.59.147-1.135.442-1.638A9.273 9.273 0 0 0 4.5 3.136a9.123 9.123 0 0 0 3.737.995 3.604 3.604 0 0 1-.08-.744c0-.897.314-1.66.943-2.29a3.135 3.135 0 0 1 2.3-.954c.938 0 1.728.341 2.371 1.024a6.362 6.362 0 0 0 2.06-.783 3.15 3.15 0 0 1-1.427 1.788 6.464 6.464 0 0 0 1.868-.502Z" fill="#000"/></svg>