<svg width="64" height="64" viewBox="0 0 64 64" xmlns="http://www.w3.org/2000/svg"><g fill="currentColor" fill-rule="nonzero"><path d="M4.224 20.686c-3.7 6.473-5.852 13.372-2.703 20.645 11.681 26.83 45.695 31.8 59.434 4.284 3.483-6.984 4.411-14.964.48-21.896-3.933-6.931-10.542-13.343-16.538-18.176C38.9.711 32.052-1.409 24.797.995 15.97 3.931 8.87 12.552 4.223 20.686Z" opacity=".1"/><path d="M41.731 23.046c1.05-.287 1.769.825 1.769 1.838 0 1.014-.885 1.491-1.77 1.836a.923.923 0 0 1-.089.03l-4.936 1.795c-.635.247-.907.505-.967.62a.054.054 0 0 1-.004.009c-.063.116-.25.614-.018 2.122l.32 2.587L37.84 43.93c.017.077.031.155.042.233.132.932-.524 1.837-1.769 1.837-1.084 0-1.562-.778-1.77-1.837 0 0-1.594-9.06-2.368-9.06-.774 0-2.115 8.002-2.322 9.06-.207 1.059-.686 1.837-1.77 1.837-1.241 0-1.897-.901-1.769-1.83l.013-.073.015-.084 1.78-10.131.32-2.588c.065-.42.248-1.626.02-2.235-.071-.19-.215-.41-.753-.624l-5.265-1.71v-.016c-.876-.343-1.744-.821-1.744-1.826 0-1.014.719-2.124 1.77-1.836.15.04.297.09.442.148 1.453.43 5.995 1.694 9.264 1.694 3.518 0 8.512-1.464 9.541-1.777.056-.018.11-.036.166-.052l.023-.007Zm-8.583-4.818a3 3 0 1 1-2.295 5.542 3 3 0 0 1 2.295-5.542Z"/></g></svg>