<svg width="64" height="64" viewBox="0 0 64 64" fill="none" xmlns="http://www.w3.org/2000/svg"><path opacity=".1" d="M20.886 2.25C13.138 4.279 6.243 7.748 3.102 15.364-8.436 43.51 13.685 72.001 45.107 61.932c7.973-2.56 14.758-7.713 17.043-15.653s2.135-17.456 1.248-25.37C62.51 12.995 58.909 6.44 51.552 2.895 42.594-1.41 30.62-.298 20.886 2.25Z" fill="currentColor"/><path d="M45.333 32c0 7.365-5.97 13.333-13.334 13.333-7.363 0-13.333-5.968-13.333-13.333 0-7.361 5.97-13.333 13.333-13.333 7.364 0 13.334 5.972 13.334 13.333Zm-13.334 2.688a2.473 2.473 0 1 0 0 4.947 2.473 2.473 0 0 0 0-4.947Zm-2.348-8.89.4 7.312c.018.343.3.61.643.61h2.61a.645.645 0 0 0 .645-.61l.398-7.311a.645.645 0 0 0-.644-.68h-3.408c-.37 0-.664.31-.644.68Z" fill="currentColor"/></svg>