<svg width="40" height="40" viewBox="0 0 40 40" xmlns="http://www.w3.org/2000/svg"><g fill="currentColor" fill-rule="evenodd"><path d="M2.64 12.929C.328 16.974-1.017 21.286.95 25.832c7.301 16.769 28.56 19.875 37.147 2.678 2.177-4.366 2.757-9.353.3-13.685-2.458-4.333-6.589-8.34-10.336-11.36C24.313.445 20.032-.881 15.498.622 9.982 2.457 5.544 7.845 2.64 12.929Z" fill-rule="nonzero" opacity=".1"/><path d="M20 12a8 8 0 1 1-7.204 11.484l6.626-1.776.044-.011c.185-.05.448-.12.671-.213.282-.118.701-.35.983-.837.281-.488.272-.967.233-1.27a5.451 5.451 0 0 0-.151-.687l-.012-.044-1.775-6.625A8.1 8.1 0 0 1 20 12Zm-4.456-.953c.763-.38 1.145-.569 1.577-.374.432.195.558.663.808 1.6l1.553 5.795c.244.91.366 1.366.16 1.725-.208.359-.663.48-1.574.725l-5.795 1.553c-.937.25-1.405.376-1.79.1-.385-.278-.411-.703-.464-1.553A9.992 9.992 0 0 1 11.34 15a10 10 0 0 1 4.205-3.953Z"/></g></svg>