<svg width="64" height="64" viewBox="0 0 64 64" xmlns="http://www.w3.org/2000/svg"><g fill="currentColor" fill-rule="evenodd"><path d="M63.415 24.858C62.41 16.966 59.854 9.71 52.67 5.558 26.118-9.719-5.192 8.007.729 40.273c1.506 8.187 5.756 15.572 13.373 18.928 7.618 3.357 17.127 4.544 25.135 4.783 8.008.239 15.016-2.379 19.515-9.105 5.467-8.193 5.928-20.106 4.663-30.022Z" fill-rule="nonzero" opacity=".1"/><path d="M32 18.667v2.666h-1.333c-2.552 0-4.332.003-5.675.184-1.304.175-1.995.496-2.487.988s-.813 1.183-.988 2.487c-.16 1.185-.18 2.71-.183 4.805v4.405c0 .649.004 1.243.011 1.789l2.477-2.48c1.893-1.893 2.84-2.84 3.882-2.639 1.042.201 1.569 1.431 2.623 3.892l.51 1.188c.527 1.23.79 1.845 1.311 1.945.489.094.935-.316 1.769-1.147l.588-.588c1.333-1.334 2-2 2.828-2 .829 0 1.495.666 2.829 2l1.09 1.09c.239.239.358.358.482.464.255.216.534.398.83.543.087-1.066.1-2.378.103-4.057V32h2.667v1.43c0 2.432 0 4.392-.208 5.933-.215 1.6-.675 2.948-1.745 4.018-1.07 1.07-2.417 1.53-4.018 1.745-1.335.18-2.985.204-4.984.207h-4.757c-1.999-.003-3.649-.027-4.985-.207-1.6-.215-2.947-.675-4.017-1.745-1.07-1.07-1.53-2.418-1.746-4.018-.18-1.336-.203-2.986-.207-4.985v-4.756c.004-2 .028-3.65.207-4.985.215-1.6.675-2.948 1.746-4.018 1.07-1.07 2.417-1.53 4.017-1.745 1.336-.18 2.986-.204 4.985-.207H32Zm13.333 0v8h-2.667v-3.893l-4.5 3.6a1.333 1.333 0 0 1-1.666-2.082l3.699-2.959h-2.866v-2.666h8Z"/></g></svg>