<svg width="40" height="40" viewBox="0 0 40 40" xmlns="http://www.w3.org/2000/svg"><g fill="currentColor" fill-rule="nonzero"><path d="M13.054 1.407C8.21 2.673 3.902 4.842 1.939 9.602-5.272 27.193 8.553 45 28.192 38.707c4.983-1.6 9.223-4.82 10.651-9.783 1.429-4.962 1.335-10.91.78-15.856-.554-4.946-2.805-9.043-7.403-11.259-5.599-2.69-13.082-1.995-19.166-.402Z" opacity=".1"/><path d="M21.455 9.508a1 1 0 0 1 .875 1l-.008.117-2.384 19a1 1 0 0 1-1.993-.133l.008-.117 2.385-19a1 1 0 0 1 .886-.87l.114-.005Zm-4.76 4.273a1 1 0 0 1 .024 1.413l-5.305 5.497 5.28 5.089a1 1 0 1 1-1.388 1.44l-6-5.784a1 1 0 0 1-.025-1.414l6-6.216a1 1 0 0 1 1.414-.025Zm8.024.024 6 6.217a1 1 0 0 1-.025 1.414l-6 5.784a1 1 0 1 1-1.388-1.44l5.28-5.09-5.305-5.496a1 1 0 1 1 1.439-1.389Z"/></g></svg>