<svg width="64" height="64" viewBox="0 0 64 64" fill="none" xmlns="http://www.w3.org/2000/svg"><path opacity=".1" d="M63.415 24.858C62.41 16.966 59.854 9.71 52.67 5.558 26.118-9.719-5.192 8.007.729 40.273c1.506 8.187 5.756 15.572 13.373 18.928 7.618 3.357 17.127 4.544 25.135 4.783 8.008.239 15.016-2.379 19.515-9.105 5.467-8.193 5.928-20.106 4.663-30.022Z" fill="currentColor"/><path fill-rule="evenodd" clip-rule="evenodd" d="M32 20c-6.627 0-12 5.373-12 12s5.373 12 12 12h6c1.864 0 2.796 0 3.53-.304a4 4 0 0 0 2.166-2.165C44 40.796 44 39.864 44 38v-6c0-6.627-5.373-12-12-12Zm-5.333 10.667c0-.737.597-1.334 1.333-1.334h8A1.333 1.333 0 0 1 36 32h-8a1.333 1.333 0 0 1-1.333-1.333Zm4 5.333c0-.736.597-1.333 1.333-1.333h4a1.333 1.333 0 1 1 0 2.666h-4A1.333 1.333 0 0 1 30.667 36Z" fill="currentColor"/></svg>