<svg width="64" height="64" viewBox="0 0 64 64" fill="none" xmlns="http://www.w3.org/2000/svg"><path opacity=".1" d="M4.224 20.686c-3.7 6.473-5.852 13.372-2.703 20.645 11.681 26.83 45.695 31.8 59.434 4.284 3.483-6.984 4.411-14.964.48-21.896-3.933-6.931-10.542-13.343-16.538-18.176C38.9.711 32.052-1.409 24.797.995 15.97 3.931 8.87 12.552 4.223 20.686Z" fill="currentColor"/><path fill-rule="evenodd" clip-rule="evenodd" d="M33.331 25.335 36 22.667c1.176-1.177 1.765-1.766 2.487-1.83.12-.011.24-.011.359 0 .722.064 1.31.653 2.487 1.83 1.177 1.176 1.765 1.765 1.83 2.487.011.12.011.24 0 .359-.065.722-.653 1.31-1.83 2.487l-2.639 2.639a14.866 14.866 0 0 1-5.363-5.304Zm-1.454 1.454-9.688 9.688c-.425.425-.637.638-.777.899-.14.26-.198.556-.316 1.145l-.95 4.744c-.066.332-.099.498-.004.593.094.095.26.061.593-.005l4.744-.949c.59-.118.884-.177 1.145-.316.261-.14.474-.353.899-.778l9.713-9.713a16.87 16.87 0 0 1-5.359-5.308Z" fill="currentColor"/></svg>