<svg width="40" height="40" viewBox="0 0 40 40" xmlns="http://www.w3.org/2000/svg"><g fill="currentColor" fill-rule="evenodd"><path d="M.33 24.344c.596 4.932 2.164 9.475 6.636 12.099 16.535 9.653 36.178-1.282 32.61-21.456-.909-5.12-3.535-9.749-8.282-11.878C26.546.98 20.608.198 15.604.014 10.598-.17 6.207 1.434 3.366 5.616-.083 10.71-.42 18.146.33 24.344Z" fill-rule="nonzero" opacity=".1"/><path d="M25.204 18.796 27 17c.545-.545.818-.818.963-1.112a2 2 0 0 0 0-1.776c-.145-.294-.418-.567-.963-1.112-.546-.545-.818-.818-1.112-.964a2 2 0 0 0-1.776 0c-.294.146-.567.419-1.112.964l-1.819 1.819a10.9 10.9 0 0 0 4.023 3.977Zm-5.477-2.523-6.87 6.87c-.426.426-.638.638-.778.9-.14.26-.199.555-.317 1.145l-.615 3.077c-.067.332-.1.498-.005.593.094.095.26.061.593-.005l3.077-.616c.59-.117.884-.176 1.146-.316.26-.14.473-.352.898-.777l6.89-6.89a12.903 12.903 0 0 1-4.02-3.98Z"/></g></svg>