<svg width="40" height="40" viewBox="0 0 40 40" xmlns="http://www.w3.org/2000/svg"><g fill="currentColor" fill-rule="evenodd"><path d="M2.64 12.929C.328 16.974-1.017 21.286.95 25.832c7.301 16.769 28.56 19.875 37.147 2.678 2.177-4.366 2.757-9.353.3-13.685-2.458-4.333-6.589-8.34-10.336-11.36C24.313.445 20.032-.881 15.498.622 9.982 2.457 5.544 7.845 2.64 12.929Z" fill-rule="nonzero" opacity=".1"/><path d="M30 27a1 1 0 1 1 0 2H10a1 1 0 1 1 0-2h20Zm-1.5-16a2 2 0 0 1 2 2v10a2 2 0 0 1-2 2h-17a2 2 0 0 1-2-2V13a2 2 0 0 1 2-2h17ZM21 14h-2a1 1 0 1 0 0 2h2a1 1 0 1 0 0-2Z"/></g></svg>