<svg width="64" height="64" viewBox="0 0 64 64" xmlns="http://www.w3.org/2000/svg"><path opacity=".1" d="M4.224 20.686c-3.7 6.473-5.852 13.372-2.703 20.645 11.681 26.83 45.695 31.8 59.434 4.284 3.483-6.984 4.411-14.964.48-21.896-3.933-6.931-10.542-13.343-16.538-18.176C38.9.711 32.052-1.409 24.797.995 15.97 3.931 8.87 12.552 4.223 20.686Z" fill="currentColor"/><path fill-rule="evenodd" clip-rule="evenodd" d="M32 22.08c-2.88 0-5.467 1.314-7.518 2.847-2.063 1.54-3.7 3.389-4.71 4.662l-.1.125c-.428.532-1.006 1.25-1.006 2.286 0 1.035.578 1.754 1.006 2.286l.1.125c1.01 1.273 2.648 3.122 4.71 4.662 2.05 1.533 4.638 2.847 7.517 2.847 2.88 0 5.467-1.314 7.518-2.847 2.062-1.54 3.7-3.389 4.71-4.662l.1-.125c.428-.532 1.006-1.25 1.006-2.286 0-1.035-.578-1.754-1.006-2.286a23.963 23.963 0 0 1-.1-.125c-1.01-1.273-2.648-3.122-4.71-4.662-2.05-1.533-4.638-2.847-7.518-2.847Zm-.001 14.172c2.26 0 4.094-1.904 4.094-4.252s-1.833-4.252-4.094-4.252-4.094 1.904-4.094 4.252 1.833 4.252 4.094 4.252Z" fill="currentColor"/></svg>