<svg width="64" height="64" viewBox="0 0 64 64" xmlns="http://www.w3.org/2000/svg"><g fill="currentColor" fill-rule="nonzero"><path d="M4.224 20.686c-3.7 6.473-5.852 13.372-2.703 20.645 11.681 26.83 45.695 31.8 59.434 4.284 3.483-6.984 4.411-14.964.48-21.896-3.933-6.931-10.542-13.343-16.538-18.176C38.9.711 32.052-1.409 24.797.995 15.97 3.931 8.87 12.552 4.223 20.686Z" opacity=".1"/><path d="m38.935 21.667.307.005c.053.002.1.004.144.008l.133.016c.455.064.834.265 1.032.742.198.478.071.888-.205 1.255l-.105.131c-.037.044-.08.09-.133.145l-5.36 5.364 5.36 5.364c.064.067.112.12.155.171l.083.105c.276.368.403.778.205 1.255-.198.478-.577.679-1.032.743a3.19 3.19 0 0 1-.464.028L25 37v4.333a1 1 0 0 1-.883.994l-.117.006a1 1 0 0 1-.993-.883L23 41.333l.002-18.368c.002-.079.006-.133.016-.206.036-.27.137-.516.348-.726.21-.21.457-.312.726-.348.073-.01.128-.015.206-.017l14.637-.001Z"/></g></svg>