<svg width="64" height="64" viewBox="0 0 64 64" xmlns="http://www.w3.org/2000/svg"><path opacity=".1" d="M4.224 20.686c-3.7 6.473-5.852 13.372-2.703 20.645 11.681 26.83 45.695 31.8 59.434 4.284 3.483-6.984 4.411-14.964.48-21.896-3.933-6.931-10.542-13.343-16.538-18.176C38.9.711 32.052-1.409 24.797.995 15.97 3.931 8.87 12.552 4.223 20.686Z" fill="currentColor"/><path d="M37.245 26.323c-.83-5.264-2.904-8.99-5.215-8.99-2.37 0-4.385 3.726-5.274 8.99h10.49ZM26.341 32c0 1.36.06 2.602.178 3.785h10.963c.119-1.183.178-2.425.178-3.785 0-1.301-.06-2.543-.178-3.785H26.52A39.523 39.523 0 0 0 26.341 32Zm19.2-5.677c-1.659-3.963-5.096-7.097-9.363-8.34 1.482 2.012 2.43 5.028 2.963 8.34h6.4Zm-17.718-8.34c-4.267 1.243-7.704 4.377-9.363 8.34h6.4c.533-3.312 1.481-6.328 2.963-8.34Zm18.37 10.232h-6.815c.119 1.242.237 2.543.237 3.785 0 1.301-.118 2.543-.237 3.785h6.815c.297-1.183.474-2.425.474-3.785 0-1.301-.178-2.543-.474-3.785ZM24.445 32c0-1.242.06-2.543.178-3.785h-6.815c-.296 1.242-.474 2.484-.474 3.785 0 1.36.178 2.602.474 3.785h6.815A39.523 39.523 0 0 1 24.445 32Zm2.311 5.678c.89 5.322 2.904 8.989 5.274 8.989 2.311 0 4.386-3.667 5.215-8.99H26.756Zm9.422 8.397a14.553 14.553 0 0 0 9.363-8.398h-6.4c-.474 3.371-1.481 6.388-2.963 8.398ZM18.46 37.677a14.553 14.553 0 0 0 9.363 8.398c-1.482-2.01-2.43-5.027-2.963-8.398h-6.4Z" fill="currentColor"/></svg>