<svg width="64" height="64" viewBox="0 0 64 64" fill="none" xmlns="http://www.w3.org/2000/svg"><path opacity=".1" d="M.528 38.95c.954 7.892 3.462 15.16 10.618 19.358 26.456 15.446 57.885-2.05 52.175-34.329-1.453-8.19-5.654-15.598-13.25-19.004C42.473 1.568 32.971.316 24.964.022 16.958-.27 9.932 2.296 5.388 8.986-.133 17.134-.672 29.034.528 38.95Z" fill="currentColor"/><path d="M44.974 19.661a.9.9 0 0 0-.635-.635c-1.677-.36-2.99-.36-4.298-.36-5.376 0-8.6 2.876-11.008 6.667h-5.428c-.851.001-1.851.619-2.233 1.38l-2.575 5.146c-.08.176-.124.365-.131.558a1.25 1.25 0 0 0 1.25 1.25h5.407l-1.17 1.17c-.592.592-.677 1.68 0 2.357l2.65 2.651c.582.583 1.676.685 2.359 0l1.17-1.17v5.408a1.25 1.25 0 0 0 1.25 1.25c.194-.007.383-.051.559-.13l5.142-2.573c.761-.38 1.38-1.38 1.38-2.232v-5.44c3.781-2.412 6.669-5.646 6.669-10.994.005-1.313.005-2.626-.358-4.303Zm-6.306 7.756a2.083 2.083 0 1 1 .001-4.167 2.083 2.083 0 0 1 0 4.167Z" fill="currentColor"/></svg>