<svg width="40" height="40" viewBox="0 0 40 40" xmlns="http://www.w3.org/2000/svg"><g fill="currentColor" fill-rule="nonzero"><path d="M39.634 15.536c-.628-4.932-2.225-9.467-6.715-12.063C16.324-6.074-3.245 5.005.456 25.171c.941 5.117 3.597 9.733 8.358 11.83 4.761 2.099 10.704 2.84 15.709 2.99 5.005.149 9.385-1.487 12.197-5.691 3.417-5.12 3.705-12.566 2.914-18.764Z" opacity=".1"/><path d="M23.584 13.998H20.9a1 1 0 0 0-.675.262l-3.072 2.813c-.003.003-.006.01-.01.012a1.243 1.243 0 0 0-.065 1.75c.397.435 1.231.55 1.753.085.003-.003.01-.003.013-.007l2.497-2.287a.5.5 0 1 1 .675.737l-.816.747 4.55 3.694c.09.075.172.156.247.24v-6.046l-1.706-1.706a.993.993 0 0 0-.707-.294ZM27 16.004v6.997c0 .553.447 1 1 1h2v-7.997h-3Zm1.5 6.997a.501.501 0 0 1-.5-.5c0-.275.225-.5.5-.5s.5.225.5.5-.225.5-.5.5Zm-18.5.997h2c.553 0 1-.447 1-1v-6.994h-3v7.994ZM11.5 22c.275 0 .5.225.5.5s-.225.5-.5.5a.5.5 0 1 1 0-1Zm13.622.581-4.666-3.787-.937.86a2.253 2.253 0 0 1-3.178-.138 2.251 2.251 0 0 1 .137-3.179l2.556-2.34h-2.618a.998.998 0 0 0-.707.294L14 15.998v6.997h.572l2.828 2.56a2 2 0 0 0 2.813-.292l.006-.006.56.485a1.161 1.161 0 0 0 1.634-.17l.98-1.205.17.137a.999.999 0 0 0 1.406-.147l.297-.365c.35-.432.284-1.06-.144-1.41Z"/></g></svg>