<svg width="64" height="64" viewBox="0 0 64 64" xmlns="http://www.w3.org/2000/svg"><g fill="currentColor" fill-rule="nonzero"><path d="M20.886 2.25C13.138 4.279 6.243 7.748 3.102 15.364-8.436 43.51 13.685 72.001 45.107 61.932c7.973-2.56 14.758-7.713 17.043-15.653s2.135-17.456 1.248-25.37C62.51 12.995 58.909 6.44 51.552 2.895 42.594-1.41 30.62-.298 20.886 2.25Z" opacity=".1"/><path d="m20.826 24.09-.413.532a7.938 7.938 0 0 0 .642 10.462l.195.19 9.38 8.812c.497.465.627.57.988.674a1.376 1.376 0 0 0 .764 0c.328-.094.466-.19.86-.556l9.509-8.93a7.938 7.938 0 0 0 .836-10.652l-.412-.532c-2.916-3.758-8.611-3.362-11.047.536l-.128.212c-2.36-4.095-8.207-4.573-11.174-.748Z"/></g></svg>