<svg width="40" height="40" viewBox="0 0 40 40" xmlns="http://www.w3.org/2000/svg"><g fill="currentColor" fill-rule="nonzero"><path d="M.33 24.344c.596 4.932 2.164 9.475 6.636 12.099 16.535 9.653 36.178-1.282 32.61-21.456-.909-5.12-3.535-9.749-8.282-11.878C26.546.98 20.608.198 15.604.014 10.598-.17 6.207 1.434 3.366 5.616-.083 10.71-.42 18.146.33 24.344Z" opacity=".1"/><path d="m19.762 16.186-5.847 4.83v5.178c0 .286.223.509.509.509h3.559c.254 0 .476-.223.476-.509v-3.05c0-.254.254-.508.509-.508H21c.286 0 .508.254.508.508v3.05c0 .286.255.509.509.509h3.59a.523.523 0 0 0 .509-.509v-5.21l-5.879-4.798a.344.344 0 0 0-.222-.096.36.36 0 0 0-.254.096Zm9.246 3.272-2.637-2.192v-4.385a.386.386 0 0 0-.381-.381h-1.78a.367.367 0 0 0-.381.381v2.288l-2.86-2.351a1.634 1.634 0 0 0-1.938 0l-8.039 6.64a.379.379 0 0 0-.159.286c0 .096.064.191.096.255l.826.985c.063.095.159.127.286.127a.36.36 0 0 0 .254-.096l7.467-6.132a.36.36 0 0 1 .254-.095c.064 0 .159.031.223.095l7.466 6.132a.36.36 0 0 0 .254.096c.128 0 .223-.032.286-.128l.826-.984a.36.36 0 0 0 .096-.255.38.38 0 0 0-.159-.286Z"/></g></svg>