<svg width="64" height="64" viewBox="0 0 64 64" xmlns="http://www.w3.org/2000/svg"><g fill="currentColor" fill-rule="evenodd"><path d="M63.415 24.858C62.41 16.966 59.854 9.71 52.67 5.558 26.118-9.719-5.192 8.007.729 40.273c1.506 8.187 5.756 15.572 13.373 18.928 7.618 3.357 17.127 4.544 25.135 4.783 8.008.239 15.016-2.379 19.515-9.105 5.467-8.193 5.928-20.106 4.663-30.022Z" fill-rule="nonzero" opacity=".1"/><path d="M39.339 32.824c.703-.356 1.786.125 1.944.905.002.007.002.008.002.005v-.006l.022.22c.009.12.015.238.02.358l.007.36a9.333 9.333 0 1 1-18.606-1.07l-.013.132v.006c.168-.824 1.355-1.314 2.05-.85l.016.01c.004.002-.003-.004-.009-.01l.047.038.079.064c.341.295.468.58.46 1.032 0 .026-.005.106-.014.266a6.667 6.667 0 1 0 13.312 0l-.014-.266c-.008-.451.12-.737.461-1.032.02-.017.054-.045.125-.101.026-.022-.04.031.008 0Zm-7.34-13.198L38.72 25a1 1 0 0 1 .155 1.405l-.416.521a1 1 0 0 1-1.405.156l-3.72-2.975v9.225a1.333 1.333 0 0 1-2.667 0v-9.225l-3.72 2.975a1 1 0 0 1-1.405-.156l-.416-.52A1 1 0 0 1 25.28 25L32 19.626ZM41.27 33.57l.003.025.008.082-.004-.042a11.824 11.824 0 0 0-.004-.039l-.003-.026Z"/></g></svg>