<svg width="64" height="64" viewBox="0 0 64 64" fill="none" xmlns="http://www.w3.org/2000/svg"><path opacity=".1" d="M4.224 20.686c-3.7 6.473-5.852 13.372-2.703 20.645 11.681 26.83 45.695 31.8 59.434 4.284 3.483-6.984 4.411-14.964.48-21.896-3.933-6.931-10.542-13.343-16.538-18.176C38.9.711 32.052-1.409 24.797.995 15.97 3.931 8.87 12.552 4.223 20.686Z" fill="currentColor"/><path fill-rule="evenodd" clip-rule="evenodd" d="M32 17.818c-.658 0-1.23.421-2.374 1.265l-3.206 2.363c-.18.132-.27.199-.367.255-.096.056-.199.1-.404.19l-3.65 1.595c-1.302.569-1.953.854-2.281 1.423-.33.57-.25 1.275-.092 2.688l.444 3.957c.025.223.037.334.037.446 0 .112-.012.223-.037.445l-.444 3.958c-.158 1.413-.237 2.119.092 2.688.328.57.98.854 2.282 1.423l3.649 1.595c.205.09.308.134.404.19.097.056.187.122.367.255l3.206 2.363c1.144.843 1.716 1.265 2.374 1.265.657 0 1.229-.422 2.373-1.265l3.206-2.363c.18-.133.27-.199.367-.255.097-.056.2-.1.404-.19L42 40.514c1.302-.57 1.953-.854 2.282-1.423.328-.57.25-1.276.091-2.688l-.444-3.958c-.024-.222-.037-.333-.037-.445 0-.112.013-.223.037-.445l.444-3.958c.158-1.413.237-2.119-.091-2.688-.33-.57-.98-.854-2.282-1.423l-3.65-1.595c-.205-.09-.307-.134-.404-.19-.097-.056-.187-.123-.367-.255l-3.206-2.363c-1.144-.843-1.716-1.265-2.373-1.265Zm0 19.515a5.333 5.333 0 1 0 0-10.666 5.333 5.333 0 0 0 0 10.666Z" fill="currentColor"/></svg>