<svg width="40" height="40" viewBox="0 0 40 40" xmlns="http://www.w3.org/2000/svg"><g fill="currentColor" fill-rule="evenodd"><path d="M39.634 15.536c-.628-4.932-2.225-9.467-6.715-12.063C16.324-6.074-3.245 5.005.456 25.171c.941 5.117 3.597 9.733 8.358 11.83 4.761 2.099 10.704 2.84 15.709 2.99 5.005.149 9.385-1.487 12.197-5.691 3.417-5.12 3.705-12.566 2.914-18.764Z" fill-rule="nonzero" opacity=".1"/><path d="M20 9.485c-.657 0-1.23.421-2.373 1.264l-1.721 1.269c-.18.133-.27.2-.367.255-.097.056-.2.1-.405.19l-1.959.856c-1.302.57-1.953.854-2.282 1.423-.328.57-.25 1.276-.091 2.688l.238 2.125c.025.222.038.333.038.445 0 .112-.013.223-.038.445l-.238 2.125c-.158 1.412-.237 2.118.091 2.688.33.57.98.854 2.282 1.423l1.96.856c.204.09.307.134.404.19.096.056.187.122.367.255l1.72 1.269c1.145.843 1.716 1.264 2.374 1.264.657 0 1.23-.421 2.373-1.264l1.721-1.269c.18-.133.27-.199.367-.255.097-.056.2-.1.405-.19l1.959-.856c1.302-.57 1.953-.854 2.282-1.423.328-.57.25-1.276.09-2.688l-.237-2.125c-.025-.222-.038-.333-.038-.445 0-.112.013-.223.038-.445l.238-2.125c.158-1.412.237-2.118-.091-2.688-.33-.569-.98-.854-2.282-1.423l-1.96-.856a4.108 4.108 0 0 1-.404-.19c-.096-.056-.187-.122-.367-.255l-1.72-1.269C21.228 9.906 20.656 9.485 20 9.485ZM20 24a4 4 0 1 0 0-8 4 4 0 0 0 0 8Z"/></g></svg>