<svg width="40" height="40" viewBox="0 0 40 40" xmlns="http://www.w3.org/2000/svg"><g fill="currentColor" fill-rule="nonzero"><path d="M.33 24.344c.596 4.932 2.164 9.475 6.636 12.099 16.535 9.653 36.178-1.282 32.61-21.456-.909-5.12-3.535-9.749-8.282-11.878C26.546.98 20.608.198 15.604.014 10.598-.17 6.207 1.434 3.366 5.616-.083 10.71-.42 18.146.33 24.344Z" opacity=".1"/><path d="M18.338 15.082c.63-1.631.946-2.447 1.458-2.56a.948.948 0 0 1 .408 0c.512.113.828.929 1.458 2.56.359.928.538 1.392.873 1.707.095.088.197.167.305.235.388.243.872.288 1.84.378 1.639.152 2.458.228 2.708.713.052.1.087.209.104.322.083.543-.519 1.111-1.724 2.249l-.334.316c-.563.531-.845.797-1.008 1.129-.098.2-.163.413-.194.634-.05.37.032.755.197 1.526l.059.276c.295 1.383.443 2.075.259 2.415a.978.978 0 0 1-.81.517c-.375.02-.904-.428-1.963-1.324-.697-.59-1.046-.884-1.433-1a1.895 1.895 0 0 0-1.082 0c-.387.116-.736.41-1.433 1-1.059.895-1.588 1.343-1.964 1.324a.978.978 0 0 1-.809-.517c-.184-.34-.036-1.032.26-2.415l.059-.276c.164-.771.247-1.157.196-1.526a2.092 2.092 0 0 0-.194-.634c-.163-.332-.445-.598-1.008-1.13l-.334-.315c-1.205-1.138-1.807-1.706-1.724-2.25.017-.112.052-.22.104-.321.25-.485 1.07-.561 2.708-.713.968-.09 1.452-.135 1.84-.378.108-.068.21-.147.305-.235.335-.316.514-.78.873-1.707Z"/></g></svg>