<svg width="40" height="40" viewBox="0 0 40 40" xmlns="http://www.w3.org/2000/svg"><g fill="currentColor" fill-rule="nonzero"><path d="M2.64 12.929C.328 16.974-1.017 21.286.95 25.832c7.301 16.769 28.56 19.875 37.147 2.678 2.177-4.366 2.757-9.353.3-13.685-2.458-4.333-6.589-8.34-10.336-11.36C24.313.445 20.032-.881 15.498.622 9.982 2.457 5.544 7.845 2.64 12.929Z" opacity=".1"/><path d="M18.005 14.098c.757-1.957 1.135-2.936 1.75-3.071.162-.036.329-.036.49 0 .615.135.993 1.114 1.75 3.072.43 1.113.645 1.67 1.047 2.048.113.106.236.2.366.282.466.291 1.046.345 2.208.453 1.966.183 2.95.274 3.25.856.062.12.104.25.125.386.1.652-.623 1.334-2.069 2.699l-.401.379c-.676.638-1.014.957-1.21 1.355a2.513 2.513 0 0 0-.232.762c-.062.442.037.905.235 1.83l.071.331c.355 1.66.532 2.49.31 2.898a1.174 1.174 0 0 1-.97.621c-.45.023-1.085-.514-2.356-1.588-.837-.708-1.255-1.062-1.72-1.2a2.275 2.275 0 0 0-1.299 0c-.464.138-.883.492-1.72 1.2-1.27 1.074-1.905 1.61-2.355 1.588a1.174 1.174 0 0 1-.97-.62c-.222-.409-.045-1.239.31-2.899l.07-.33c.199-.926.298-1.39.236-1.831a2.513 2.513 0 0 0-.232-.762c-.196-.398-.534-.717-1.21-1.355l-.401-.38c-1.446-1.364-2.168-2.046-2.069-2.698.02-.135.063-.266.125-.386.3-.582 1.284-.673 3.25-.856 1.162-.108 1.742-.162 2.207-.453.131-.081.254-.176.366-.282.403-.379.618-.935 1.048-2.048Z"/></g></svg>