<svg width="40" height="40" viewBox="0 0 40 40" xmlns="http://www.w3.org/2000/svg"><g fill="currentColor" fill-rule="nonzero"><path d="M2.64 12.929C.328 16.974-1.017 21.286.95 25.832c7.301 16.769 28.56 19.875 37.147 2.678 2.177-4.366 2.757-9.353.3-13.685-2.458-4.333-6.589-8.34-10.336-11.36C24.313.445 20.032-.881 15.498.622 9.982 2.457 5.544 7.845 2.64 12.929Z" opacity=".1"/><path d="M20 23c1.981 0 3.907.509 5.479 1.447 1.22.728 2.174 1.684 2.78 2.771.275.494-.055 1.072-.608 1.187a37.503 37.503 0 0 1-15.303 0c-.552-.115-.882-.693-.607-1.187.606-1.087 1.56-2.043 2.78-2.771C16.093 23.509 18.02 23 20 23Zm0-12a5 5 0 1 1 0 10 5 5 0 0 1 0-10Z"/></g></svg>