<svg width="40" height="40" viewBox="0 0 40 40" fill="none" xmlns="http://www.w3.org/2000/svg"><path opacity=".1" d="M.33 24.344c.596 4.932 2.164 9.475 6.636 12.099 16.535 9.653 36.178-1.282 32.61-21.456-.909-5.12-3.535-9.749-8.282-11.878C26.546.98 20.608.198 15.604.014 10.598-.17 6.207 1.434 3.366 5.616-.083 10.71-.42 18.146.33 24.344Z" fill="currentColor"/><path d="M26.666 14.333a1 1 0 1 0 0-2v2Zm-12.083 0h12.083v-2H14.583v2Zm0 4.167h6.667v-2h-6.667v2ZM13.5 15.417c0-.599.485-1.084 1.083-1.084v-2a3.083 3.083 0 0 0-3.083 3.084h2Zm-2 0a3.083 3.083 0 0 0 3.083 3.083v-2a1.083 1.083 0 0 1-1.083-1.083h-2Z" fill="currentColor"/><path d="M13.5 20v-4.583h-2V20h2Z" fill="currentColor"/><path d="M12 17h13.533c.443 0 .825 0 1.13.041.329.044.643.143.898.398s.354.57.398.897c.041.306.041.688.041 1.131V20.5h-3a2 2 0 1 0 0 4h3v1.033c0 .443 0 .825-.041 1.13-.044.329-.143.643-.398.898L12 17Zm0 0v.5m0-.5v.5m0 0v8.033c0 .443 0 .825.041 1.13.044.329.143.643.398.898s.57.354.897.398c.306.041.688.041 1.131.041H25.5M12 17.5 25.5 28m0 0h.033m-.033 0h.033m0 0c.443 0 .825 0 1.13-.041m-1.13.041 1.13-.041m0 0c.329-.044.643-.143.898-.398l-.897.398Z" fill="currentColor" stroke="currentColor"/></svg>