<svg width="172" height="172" viewBox="0 0 172 172" fill="none" xmlns="http://www.w3.org/2000/svg"><g filter="url(#a)"><path d="M40.76 79.99c1.37 11.346 4.976 21.793 15.263 27.828 38.03 22.203 83.209-2.947 75.001-49.348-2.089-11.774-8.128-22.422-19.048-27.32-10.919-4.896-24.578-6.695-36.089-7.118-11.51-.422-21.61 3.268-28.142 12.885-7.936 11.713-8.711 28.819-6.986 43.073Z" fill="#EBF2F1"/><path d="m103.977 79.708 1.065 2.146a1.198 1.198 0 0 1-.54 1.606L99.6 85.922a2.396 2.396 0 0 1-3.233-1.127l-4.7-10.003H81.209a2.396 2.396 0 0 1-2.372-2.057c-2.537-17.76-2.391-16.657-2.42-17.11a4.792 4.792 0 0 1 5.02-4.786c2.492.115 4.496 2.164 4.562 4.657a4.792 4.792 0 0 1-4.089 4.87l.35 2.447h9.73c.662 0 1.198.536 1.198 1.197v2.396c0 .662-.536 1.198-1.198 1.198h-9.045L83.287 70h9.901a2.396 2.396 0 0 1 2.168 1.377l4.307 9.165 2.708-1.374a1.198 1.198 0 0 1 1.606.54Zm-13.832-2.52h-1.834c-.584 4.058-4.083 7.187-8.3 7.187-4.624 0-8.385-3.762-8.385-8.385a8.39 8.39 0 0 1 4.217-7.274l-.71-4.967c-4.858 1.943-8.299 6.697-8.299 12.24 0 7.266 5.911 13.178 13.177 13.178 5.381 0 10.018-3.243 12.062-7.876l-1.928-4.103Z" fill="#388172"/></g></svg>