<svg width="122" height="84" viewBox="0 0 122 84" fill="none" xmlns="http://www.w3.org/2000/svg">
<path d="M61 -25C43.9961 -25 30.2117 -11.2156 30.2117 5.78833L30.2117 53.2117C30.2117 70.2156 43.9961 84 61 84C78.0039 84 91.7883 70.2156 91.7883 53.2117L91.7883 5.78834C91.7883 -11.2156 78.0039 -25 61 -25Z" fill="white"/>
<path d="M90.9483 55.2347L70.7959 -0.662704L121.177 -0.662707L117.651 -0.341864C102.966 0.994292 91.7234 13.3067 91.7234 28.0517L90.9483 55.2347Z" fill="white"/>
<path d="M31.0512 55.2347L51.2036 -0.662704L0.82269 -0.662702L4.34877 -0.34186C19.0331 0.994295 30.2761 13.3067 30.2761 28.0517L31.0512 55.2347Z" fill="white"/>
</svg>
