<svg width="121" height="35" viewBox="0 0 121 35" fill="none" xmlns="http://www.w3.org/2000/svg">
<path fill-rule="evenodd" clip-rule="evenodd" d="M86.8971 26.0191C86.8514 25.9461 85.2078 25.9944 83.2444 26.1263C81.2811 26.2584 78.9841 26.3604 78.1401 26.3534C75.8808 26.3347 75.3525 26.3774 75.2107 26.5902C75.1406 26.6958 75.0441 26.7197 74.9964 26.6433C74.8845 26.4644 73.4112 26.4235 70.6556 26.5226C69.4477 26.5658 68.4053 26.5461 68.3389 26.4784C68.2725 26.4107 67.6567 26.3274 66.9705 26.2932C66.2842 26.259 65.6933 26.1285 65.657 26.0032C65.6209 25.8778 65.4648 25.8845 65.31 26.0182C65.0585 26.235 64.7045 26.2888 63.9492 26.2241C63.7806 26.2098 63.7217 26.0557 63.7536 25.7125C63.7966 25.2551 63.7857 25.2569 63.5964 25.7399C63.4293 26.1656 63.251 26.2409 62.5986 26.1618C62.1616 26.1088 61.5104 26.1084 61.1511 26.161C60.7478 26.2199 60.4867 26.1372 60.4686 25.9451C60.4489 25.7364 60.2975 25.7143 60.0092 25.8776C59.7726 26.0117 59.5159 26.1147 59.4384 26.1062C59.3609 26.0979 58.8289 26.1104 58.2562 26.1339C57.6834 26.1574 57.1519 26.1187 57.0753 26.0483C56.9063 25.893 56.4754 25.8475 54.7401 25.8021C54.0099 25.7829 53.2213 25.7351 52.9877 25.6962C51.9695 25.526 50.798 25.4384 49.8291 25.4602C49.2553 25.473 48.4303 25.3721 47.9958 25.2363C47.1881 24.9836 45.4779 24.8387 44.6354 24.9517C44.3769 24.9865 44.0993 24.8592 44.0185 24.6691C43.899 24.388 43.8775 24.3912 43.9035 24.6852C43.9336 25.0245 43.6083 25.0413 42.5144 24.7578C41.6927 24.5445 40.9115 24.4156 40.2487 24.3834C39.8251 24.3626 39.1301 24.3098 38.7043 24.2657C38.2785 24.2214 37.5209 24.1701 37.0208 24.1514C36.5207 24.1328 36.11 24.1004 36.108 24.0797C36.1042 24.0392 35.8838 23.9505 35.3306 23.7663C35.1433 23.7039 34.508 23.6188 33.9187 23.5769C32.764 23.4949 32.2831 23.4308 32.2763 23.358C32.2739 23.3326 31.8935 23.2899 31.4309 23.263C30.087 23.1844 29.515 23.1039 28.6762 22.8756C28.2434 22.7576 27.5403 22.6191 27.1138 22.5676C26.6872 22.5159 26.0887 22.4437 25.7836 22.4069C25.4786 22.3701 25.1573 22.2252 25.0698 22.0853C24.967 21.9209 24.8293 21.9358 24.6812 22.1273C24.5313 22.3211 24.3553 22.3386 24.1739 22.1783C24.021 22.0431 23.5562 21.9377 23.1412 21.9441C22.726 21.9505 22.2199 21.854 22.0166 21.73C21.8131 21.6057 21.426 21.4912 21.1561 21.4753C20.0023 21.408 18.9559 21.1759 18.784 20.9494C18.6681 20.7962 18.5775 20.8084 18.5414 20.982C18.5038 21.1611 18.3171 21.1793 18.0112 21.0338C17.7512 20.9101 17.1981 20.7805 16.7818 20.7459C16.3654 20.7115 15.9636 20.6207 15.8887 20.5441C15.8138 20.4677 15.4845 20.377 15.157 20.3424C14.3222 20.2538 13.799 20.1333 13.1294 19.8754C12.8111 19.7528 12.4483 19.7292 12.3229 19.8231C12.1976 19.917 12.0854 19.8926 12.0735 19.7685C12.0616 19.6448 11.8712 19.5479 11.6502 19.5532C11.4294 19.5588 11.124 19.4792 10.9718 19.3765C10.8195 19.2738 10.3697 19.1936 9.97204 19.1987C9.57456 19.2037 9.15189 19.0765 9.03286 18.9158C8.91381 18.7549 8.69445 18.6285 8.54515 18.6343C7.67765 18.669 6.91444 18.5284 6.74179 18.3019C6.63308 18.1589 6.33384 17.975 6.07701 17.893C5.82003 17.811 5.60174 17.6606 5.59188 17.5592C5.58185 17.4575 5.36929 17.3647 5.11937 17.353C4.35029 17.3169 4.09091 17.1771 4.10009 16.8038C4.10651 16.5428 4.06727 16.5287 3.95584 16.7523C3.742 17.1814 2.96601 16.9719 2.57048 16.3782C2.3884 16.105 2.13888 15.8911 2.01592 15.9027C1.7135 15.9313 0.791054 14.4392 0.957061 14.1899C1.02759 14.0837 1.0254 13.764 0.952057 13.4792C0.804733 12.9071 0.887859 12.1953 1.05983 12.5562C1.11962 12.6815 1.3232 12.9271 1.51213 13.1017C1.81515 13.3818 1.84995 13.3576 1.80649 12.8978C1.77879 12.6048 1.87464 12.3003 2.02529 12.2027C2.25105 12.0562 2.28734 12.1245 2.25493 12.634C2.23371 12.967 2.13221 13.4136 2.02923 13.6263C1.86556 13.9653 1.88354 13.9903 2.17303 13.8263C2.35497 13.7235 2.54828 13.6332 2.6028 13.6261C2.65717 13.6187 2.64826 13.4301 2.58311 13.2068C2.51782 12.9835 2.53325 12.7944 2.61739 12.7864C2.70153 12.7784 2.78169 12.8921 2.79558 13.0391C2.80944 13.1857 2.91308 13.2204 3.02599 13.1157C3.13876 13.0111 3.30253 13.0935 3.38966 13.2986C3.51875 13.6026 3.54049 13.5878 3.50742 13.2188C3.48497 12.9695 3.5669 12.6638 3.68926 12.5396C4.02324 12.2005 5.0712 12.186 5.31663 12.5174C5.47913 12.7368 5.57633 12.6945 5.71206 12.3445C5.85734 11.9704 5.89921 11.9561 5.92901 12.2715C5.94931 12.4862 6.10502 12.8653 6.27514 13.1138C6.57582 13.5534 6.57839 13.5379 6.37142 12.5515C6.21175 11.7897 6.19932 11.4327 6.32149 11.1177C6.53998 10.555 6.90662 10.8223 6.98279 11.6003C7.02501 12.0308 7.06939 12.1139 7.12344 11.8643C7.16949 11.6525 7.31252 11.5686 7.46498 11.6641C7.60928 11.7544 7.75598 11.6916 7.79092 11.5245C7.86288 11.1798 8.93258 11.6046 8.96924 11.9925C8.98091 12.116 8.92828 12.1535 8.85239 12.0761C8.77633 11.9985 8.6959 12.1268 8.67331 12.3612C8.64003 12.7081 8.67789 12.7281 8.87813 12.4695C9.01315 12.2948 9.13178 12.2374 9.14168 12.3422C9.15156 12.4467 9.26276 12.296 9.38881 12.0073C9.59494 11.5351 9.62232 11.5283 9.66109 11.9385C9.6848 12.1893 9.79746 12.3859 9.91144 12.3751C10.0254 12.3644 10.2793 12.6124 10.4757 12.9265C10.7072 13.2967 10.7888 13.3474 10.708 13.0706C10.5304 12.4632 10.6643 12.2586 10.9451 12.708C11.2574 13.2072 11.4505 13.1737 11.399 12.6287C11.3763 12.3885 11.4407 12.2398 11.542 12.2981C11.6434 12.3563 11.7366 12.6874 11.7492 13.0336C11.7697 13.5913 11.7945 13.6173 11.9659 13.2615C12.1409 12.8987 12.1614 12.9463 12.1781 13.7543C12.1931 14.4702 12.2274 14.5854 12.3498 14.3311C12.442 14.1399 12.4444 13.7508 12.3557 13.3529C12.2185 12.7381 12.243 12.6938 12.7105 12.7122C13.2156 12.732 13.4487 13.1136 13.3817 13.8105C13.3619 14.0174 13.4503 14.3277 13.5783 14.5006C13.7711 14.7608 13.813 14.6698 13.8239 13.9656C13.8338 13.3178 13.9126 13.1095 14.1565 13.0864C14.4988 13.0541 14.7592 13.6347 14.5936 14.0611C14.5343 14.2139 14.6248 14.4559 14.8143 14.6511C14.9908 14.833 15.0815 14.8525 15.0158 14.6946C14.9456 14.5263 15.0107 14.3964 15.1723 14.3811C15.3243 14.3667 15.4988 14.4754 15.5601 14.6226C15.7862 15.1658 15.9326 14.8463 15.7771 14.1487C15.6561 13.6064 15.667 13.4585 15.8215 13.5401C15.9337 13.5993 16.0752 13.9687 16.136 14.3607C16.2473 15.0783 16.6611 15.843 16.7769 15.5447C16.8112 15.4566 16.7035 15.0733 16.5376 14.6934C16.3563 14.2778 16.2974 13.9966 16.3901 13.9879C16.4748 13.9799 16.5534 14.0709 16.5647 14.1903C16.5759 14.3096 16.779 14.4184 17.0157 14.4319C17.2799 14.4467 17.4024 14.3505 17.3324 14.1828C17.158 13.764 17.4504 13.8342 17.6802 14.2667C17.7916 14.4765 17.9593 14.5772 18.0527 14.4904C18.1462 14.404 18.2694 14.4455 18.3267 14.583C18.3839 14.7203 18.575 14.7618 18.7514 14.6747C18.9277 14.5877 19.1267 14.6482 19.1938 14.8093C19.3503 15.1852 20.2754 15.1064 20.2389 14.7202C20.2237 14.5598 20.2881 14.5067 20.3821 14.6024C20.5041 14.7269 20.5105 14.84 20.4047 14.9991C20.2001 15.3066 20.492 15.5827 21.2232 15.7736C21.6361 15.8817 21.8385 15.8112 21.9516 15.5198C22.1706 14.956 22.4036 14.9915 22.3487 15.5802C22.3068 16.0306 22.3181 16.0328 22.4848 15.6093C22.6963 15.072 23.2055 15.1402 23.6424 15.7642C24.0546 16.3529 24.3587 16.4279 24.2054 15.9029C24.1384 15.6733 24.1438 15.4801 24.2173 15.4731C24.291 15.4662 24.3642 15.5983 24.3801 15.7667C24.3991 15.9677 24.5698 15.995 24.8756 15.8465C25.2806 15.6497 25.3488 15.6913 25.3934 16.1636C25.4475 16.7356 26.2394 17.9232 26.3521 17.6013C26.3881 17.4983 26.3347 17.3659 26.2333 17.3074C26.132 17.2485 26.0276 16.9744 26.0015 16.6979C25.9371 16.017 26.4385 16.2264 26.6844 16.983L26.8679 17.5478L27.096 16.9605C27.3013 16.4316 27.364 16.4078 27.7256 16.7208C28.0768 17.0244 28.1223 17.0151 28.0874 16.646C28.0649 16.4075 28.1677 16.2123 28.3238 16.1975C28.4758 16.1832 28.6118 16.2955 28.6262 16.4471C28.6405 16.5987 28.8077 16.7081 28.9976 16.6901C29.1876 16.6722 29.356 16.7948 29.3718 16.9626C29.3877 17.1305 29.48 17.1941 29.577 17.1043C29.6833 17.0058 29.7625 17.1129 29.7768 17.3741C29.791 17.6364 29.9252 17.8162 30.1168 17.8298C30.4078 17.8504 30.4134 17.8068 30.1871 17.2886C29.9601 16.7682 29.9667 16.7245 30.2712 16.7222C30.4529 16.7211 30.6506 16.7987 30.7107 16.8945C30.7708 16.9906 30.8844 16.9354 30.9632 16.7719C31.1561 16.3715 31.915 16.9348 31.8662 17.442C31.8232 17.8916 31.9967 17.9122 32.1655 17.4774C32.2532 17.2516 32.3748 17.2387 32.5933 17.4319C32.8311 17.642 32.9075 17.6097 32.9386 17.2861C32.9605 17.0573 33.0932 16.8593 33.2334 16.846C33.5934 16.812 34.4303 18.2587 34.3762 18.8218C34.3491 19.1047 34.382 19.2003 34.4641 19.0769C34.5363 18.9683 34.5399 18.6367 34.4721 18.3396C34.3247 17.6944 34.3705 17.0167 34.5625 16.9985C34.6385 16.9914 34.6825 17.1749 34.6602 17.4065C34.6149 17.8783 34.9726 17.9663 35.0686 17.507C35.1013 17.3509 35.234 17.2232 35.3636 17.2229C35.5087 17.2228 35.538 17.2824 35.4397 17.3779C35.3521 17.4635 35.31 17.8018 35.3463 18.1296C35.4104 18.7071 35.4147 18.7083 35.4791 18.1635C35.5158 17.8541 35.5655 17.7629 35.5896 17.9609C35.6136 18.1589 35.6883 18.2383 35.7555 18.1374C35.8226 18.0365 35.8948 18.1162 35.916 18.3144C35.9393 18.5325 36.0162 18.4498 36.1108 18.1052C36.245 17.6164 36.2913 17.5922 36.4373 17.9353C36.5309 18.155 36.5944 18.4864 36.5781 18.6712C36.5613 18.865 36.6233 18.9384 36.7247 18.8446C36.9338 18.6504 37.0232 17.9311 36.8806 17.5888C36.7479 17.2698 36.9592 17.2607 37.4488 17.564C37.7088 17.7253 37.83 17.9511 37.8035 18.2258C37.7814 18.4552 37.8237 18.6372 37.8972 18.6303C37.9709 18.6233 38.0201 18.5013 38.0067 18.3591C37.9531 17.7926 38.5819 18.1631 38.7692 18.8085C38.9279 19.355 38.9823 19.4047 39.0543 19.0677C39.103 18.839 39.0864 18.4286 39.017 18.1562C38.907 17.7233 38.9514 17.6776 39.3695 17.7958C39.6327 17.8702 39.9579 17.9188 40.0924 17.9041C40.2268 17.8892 40.3117 17.9971 40.2811 18.1438C40.2503 18.2902 40.317 18.4016 40.4292 18.391C40.5413 18.3804 40.6446 18.2143 40.6586 18.0216C40.6785 17.7486 40.7423 17.7498 40.9488 18.027C41.0943 18.2224 41.333 18.305 41.479 18.2103C41.6252 18.1155 41.8496 18.2056 41.9778 18.4107C42.1208 18.6394 42.2334 18.6744 42.2696 18.5016C42.3497 18.1182 42.9918 18.1902 43.2133 18.6071C43.3497 18.8637 43.3211 18.9521 43.0949 18.9734C42.8272 18.9987 42.8203 19.0628 43.027 19.6056C43.2259 20.1278 43.2578 20.1437 43.2623 19.7225C43.265 19.4544 43.3828 19.2244 43.5237 19.211C43.6646 19.1977 43.8467 19.0156 43.9283 18.8062C44.0103 18.5957 44.4451 18.3607 44.9022 18.28C45.6104 18.1549 45.7938 18.2258 46.1899 18.778C46.6121 19.3666 47.1324 19.4293 46.8965 18.863C46.8417 18.7314 46.8575 18.6178 46.9317 18.6108C47.0057 18.6038 47.1124 18.7503 47.1687 18.9361C47.2504 19.2065 47.2666 19.2049 47.2492 18.9284C47.2153 18.3882 48.1476 18.406 48.357 18.9497C48.5004 19.3217 48.5655 19.3394 48.7077 19.044C48.8476 18.7537 48.9036 18.7512 48.9882 19.0305C49.0618 19.2739 49.1198 19.2862 49.1797 19.0708C49.227 18.9009 49.4842 18.7514 49.7514 18.7387C50.1618 18.7191 50.2394 18.8058 50.252 19.2974C50.2602 19.6173 50.382 20.0344 50.5227 20.2244C50.7484 20.5291 50.7601 20.4879 50.6225 19.8707C50.5337 19.4727 50.5234 19.0865 50.5986 18.9735C50.6712 18.8645 50.7434 18.9108 50.759 19.0765C50.7756 19.2518 50.9416 19.3107 51.1556 19.2173C51.3581 19.1292 51.5219 19.0364 51.5195 19.0116C51.5172 18.9868 51.6888 18.891 51.9009 18.7992C52.2414 18.6519 52.2841 18.7023 52.265 19.2304C52.2449 19.7858 52.2579 19.7954 52.4449 19.3669C52.696 18.7919 52.9582 18.7477 53.0077 19.2717C53.0284 19.4903 53.1264 19.7517 53.2257 19.853C53.3471 19.9767 53.3631 19.8895 53.2746 19.5866C53.1777 19.2551 53.2192 19.1291 53.432 19.109C53.6614 19.0873 53.6958 19.1627 53.599 19.4756C53.5011 19.7922 53.5456 19.8631 53.8251 19.8367C54.0283 19.8174 54.1582 19.6461 54.1373 19.4247C54.0893 18.9169 54.3181 18.9195 54.4669 19.4283C54.532 19.6516 54.6642 19.8169 54.7605 19.7958C54.8974 19.7656 54.8951 19.7308 54.7496 19.6347C54.6474 19.567 54.5526 19.3938 54.5389 19.2494C54.5243 19.0944 54.6384 19.097 54.8183 19.2561C54.9856 19.4041 55.1129 19.4237 55.1012 19.2997C55.051 18.7685 55.8336 18.924 56.3306 19.5439C56.838 20.1774 56.8572 20.1812 56.8059 19.6386C56.7387 18.9271 57.2124 18.8234 57.4778 19.4914C57.5813 19.7517 57.6517 19.8071 57.6359 19.6155C57.6194 19.4155 57.7876 19.2535 58.0367 19.23C58.3327 19.202 58.4551 19.3031 58.4309 19.5552C58.3853 20.0298 59.3622 20.0988 59.4607 19.6278C59.499 19.4453 59.6108 19.3777 59.7092 19.4783C59.8397 19.6114 59.8564 19.7634 59.771 20.0395C59.701 20.2662 59.7119 20.4773 59.7982 20.5654C59.8775 20.6464 59.9518 20.4483 59.9634 20.1257L59.9847 19.539L60.4498 20.0828C60.9942 20.7194 61.1532 20.7592 60.9956 20.22C60.9332 20.0062 60.9507 19.7642 61.0344 19.6821C61.1182 19.5996 61.0646 19.534 60.9152 19.5362C60.7499 19.5385 60.6859 19.4388 60.7518 19.2813C60.8112 19.1391 61.0658 19.0661 61.3176 19.1191C61.6819 19.1959 61.7805 19.3365 61.8009 19.8085C61.816 20.1586 61.8945 20.3667 61.9926 20.3163C62.0841 20.2693 62.1744 20.3859 62.1934 20.5755C62.2166 20.8049 62.2598 20.7778 62.323 20.4937C62.3751 20.2593 62.4314 20.1914 62.4481 20.3428C62.4648 20.4942 62.5151 20.4485 62.56 20.2415C62.6049 20.0345 62.8918 19.7721 63.1976 19.6587C63.6679 19.4838 63.8071 19.549 64.1013 20.0808C64.4161 20.6502 64.4367 20.6574 64.3196 20.1559C64.2233 19.7433 64.2594 19.5803 64.461 19.5167C64.886 19.3831 65.18 19.362 65.6377 19.4319C65.8711 19.4677 66.2507 19.5028 66.4814 19.5096C66.864 19.5213 66.8823 19.5571 66.6909 19.9165C66.4921 20.2893 66.4966 20.317 66.7743 20.4301C66.9636 20.507 67.0549 20.4152 67.0317 20.1705C67.0111 19.9524 67.0873 19.8484 67.211 19.926C67.3294 19.9999 67.4931 19.96 67.5749 19.8371C67.6568 19.7139 67.9796 19.6133 68.2923 19.6133C68.605 19.6132 69.1587 19.6129 69.5228 19.6124C69.9431 19.6119 70.1968 19.7375 70.2174 19.9561C70.2373 20.1662 70.4389 20.2829 70.7336 20.255C70.9995 20.2299 71.2047 20.0778 71.1895 19.9174C71.1744 19.7569 71.2344 19.6993 71.323 19.7896C71.4115 19.88 71.5592 19.7976 71.6512 19.6067C71.767 19.3666 71.9439 19.3276 72.2256 19.4807C72.4495 19.6022 72.8678 19.6286 73.155 19.5394C73.5235 19.425 73.6574 19.473 73.6095 19.702C73.5677 19.9015 73.6207 19.9855 73.7467 19.9193C73.8594 19.8603 74.0752 20.0504 74.226 20.3421C74.4964 20.865 74.4982 20.864 74.356 20.2603C74.2528 19.8214 74.271 19.6425 74.4203 19.6284C74.5349 19.6176 74.6822 19.7375 74.7477 19.8945C74.8131 20.0519 74.9475 20.1057 75.046 20.0143C75.1456 19.922 75.2411 20.0151 75.2608 20.2232C75.328 20.9344 75.7353 20.8979 75.9013 20.1657C76.0342 19.5799 76.1599 19.4573 76.6174 19.4678C76.9298 19.475 77.2192 19.6409 77.2796 19.8474C77.3385 20.0493 77.4731 20.1342 77.5787 20.0364C77.6843 19.9385 77.8816 20.0066 78.0173 20.1877C78.2295 20.4705 78.2447 20.431 78.1253 19.904C78.049 19.5672 78.0048 19.2896 78.0269 19.2876C78.1673 19.2743 78.9328 20.0628 79.0618 20.3534C79.1602 20.5753 79.1604 20.4356 79.0622 19.9749L78.9067 19.2447L80.1252 19.2364C80.7953 19.232 81.4169 19.3454 81.5066 19.4888C81.5962 19.6322 81.7507 20.2072 81.85 20.7666C81.9491 21.326 82.1133 21.8284 82.2146 21.8828C82.3563 21.959 82.3493 21.8114 82.1846 21.244C82.0668 20.8385 81.9954 20.4425 82.0257 20.3642C82.0561 20.286 81.9969 19.9959 81.8942 19.72C81.7494 19.331 81.7551 19.2133 81.9194 19.1978C82.036 19.1868 82.1425 19.2941 82.1559 19.4363C82.1694 19.5786 82.2879 19.6711 82.4193 19.6417C82.5506 19.6126 82.7998 19.6639 82.9729 19.7554C83.1618 19.8552 83.349 19.7733 83.4414 19.5501C83.6902 18.9486 84.1274 19.0659 84.3744 19.8001L84.6011 20.4741L84.5397 19.7058C84.4788 18.9414 84.4822 18.938 85.2854 18.9956C85.7293 19.0274 86.3841 19.0322 86.7407 19.0063C87.2803 18.967 87.4141 19.0573 87.5401 19.5463C87.6743 20.0679 87.7009 20.0807 87.7768 19.661C87.8436 19.2929 87.9277 19.2465 88.1584 19.4506C88.3619 19.6302 88.4461 19.6228 88.4276 19.4268C88.4128 19.2699 88.4939 19.1327 88.6079 19.1219C88.7218 19.1111 88.8038 18.9829 88.79 18.8371C88.7501 18.4145 91.3545 18.4395 91.6709 18.8649C91.8904 19.1596 91.9434 19.1576 91.9655 18.8538C91.9854 18.5829 92.1059 18.6464 92.4139 19.0895C92.6458 19.4231 92.7298 19.4838 92.6009 19.2245C92.3104 18.6404 92.4177 18.2781 92.7487 18.725C92.9467 18.9924 92.9864 18.9831 92.9609 18.6749C92.9398 18.4204 93.0119 18.464 93.1811 18.8084C93.3195 19.0902 93.4661 19.2346 93.5069 19.1297C93.5477 19.0246 93.6892 19.1456 93.8213 19.3985C93.9974 19.7353 94.072 19.7639 94.1009 19.505C94.1227 19.3107 94.2198 19.2184 94.3167 19.3002C94.4138 19.3817 94.322 19.2213 94.1128 18.9437C93.8675 18.6181 93.7805 18.3668 93.8677 18.2359C93.942 18.1243 94.1699 18.335 94.3742 18.7046C94.7687 19.4179 95.2149 19.5955 95.0309 18.966C94.9238 18.5995 95.0762 17.9543 95.2743 17.9356C95.3298 17.9303 95.4292 18.2027 95.495 18.5405C95.6123 19.1416 95.6157 19.1424 95.6571 18.5761C95.6955 18.0504 95.7976 17.9932 96.7662 17.9559C97.3528 17.9332 97.8509 17.9393 97.8729 17.9692C97.9939 18.1344 99.1421 17.9769 99.4034 17.7595C99.5989 17.5966 99.794 17.618 99.9423 17.8181C100.096 18.0263 100.197 18.0341 100.241 17.841C100.363 17.3058 100.88 17.1646 101.109 17.6038C101.296 17.9616 101.29 18.0006 101.069 17.866C100.909 17.7679 100.823 17.8392 100.843 18.0542C100.901 18.6709 101.407 18.4712 101.435 17.8206C101.456 17.3107 101.489 17.2767 101.636 17.6125C101.732 17.8328 101.798 17.8713 101.783 17.6978C101.742 17.2258 102.12 16.9745 102.442 17.2597C102.606 17.4042 102.749 17.4032 102.779 17.2574C102.843 16.9532 103.956 16.927 104.246 17.223C104.383 17.362 104.409 17.3292 104.324 17.125C104.241 16.927 104.309 16.8116 104.515 16.7999C104.823 16.7825 105.781 16.4645 105.773 16.3823C105.771 16.3602 106.061 16.2758 106.417 16.1943C106.773 16.1128 107.073 16.1259 107.083 16.2235C107.092 16.3207 107.38 16.3853 107.723 16.3662C108.182 16.3412 108.337 16.2262 108.309 15.9309C108.284 15.6688 108.369 15.5698 108.554 15.645C108.71 15.7084 108.853 15.6156 108.872 15.4388C108.891 15.2621 108.933 15.3429 108.965 15.6183C109.018 16.0739 109.04 16.0783 109.2 15.6657C109.366 15.2384 109.5 15.1659 110.517 14.9538C110.743 14.9065 111.054 14.7703 111.208 14.6509C111.363 14.5312 111.539 14.5542 111.601 14.7017C111.672 14.8721 111.825 14.8669 112.02 14.6874C112.234 14.4905 112.358 14.503 112.426 14.7291C112.481 14.9075 112.509 14.8361 112.49 14.5701C112.471 14.304 112.502 14.0775 112.558 14.0663C112.99 13.9813 113.775 13.5778 113.954 13.3489C114.131 13.1222 114.183 13.1871 114.233 13.7003C114.283 14.2079 114.313 14.2473 114.39 13.9038C114.468 13.5529 114.492 13.5465 114.524 13.8681C114.545 14.0827 114.595 14.1762 114.633 14.076C114.672 13.9758 114.832 14.0066 114.988 14.1448C115.316 14.4343 115.32 14.3841 115.047 13.4426C114.889 12.8998 114.888 12.7442 115.041 12.7297C115.148 12.7196 115.284 12.8263 115.343 12.9671C115.463 13.2545 115.856 12.9823 115.958 12.541C115.995 12.3828 116.189 12.1924 116.388 12.1184C116.588 12.0442 116.823 11.7983 116.911 11.5717C117.04 11.2399 117.13 11.22 117.373 11.47C117.538 11.6407 117.682 11.8635 117.691 11.9652C117.715 12.2197 117.988 12.0751 118.322 11.6317C118.534 11.3496 118.608 11.3393 118.632 11.5893C118.65 11.7856 118.755 11.7059 118.892 11.3906C119.233 10.6099 119.369 11.069 119.154 12.2745C119.009 13.0875 119.011 13.4876 119.161 14.0041C119.295 14.4664 119.311 14.7128 119.212 14.7934C119.132 14.8579 119.037 15.2254 119.001 15.6102C118.965 15.9946 118.821 16.3828 118.683 16.4727C118.544 16.5625 118.415 16.7978 118.396 16.9954C118.359 17.3883 115.974 19.2343 115.729 19.0606C115.697 19.038 115.638 19.1794 115.597 19.3746C115.556 19.5695 114.963 20.0014 114.278 20.3339C113.594 20.6667 112.885 21.026 112.703 21.1327C112.522 21.2395 112.038 21.4282 111.628 21.5517C111.218 21.6756 110.769 21.8588 110.63 21.959C110.49 22.0595 110.034 22.2108 109.616 22.2954C109.198 22.3803 108.708 22.5459 108.527 22.6636C108.346 22.7814 107.674 22.9704 107.033 23.0838C106.392 23.1972 105.87 23.3078 105.872 23.3293C105.874 23.3508 105.616 23.4414 105.298 23.5304C104.945 23.6294 104.71 23.577 104.693 23.3954C104.674 23.1944 104.613 23.2074 104.503 23.4359C104.413 23.6215 103.838 23.8408 103.224 23.923C102.611 24.0055 102.115 24.1419 102.123 24.2262C102.131 24.3103 101.131 24.5078 99.8997 24.665C98.6687 24.822 97.5688 24.9649 97.4555 24.9825C97.3422 25.0002 96.8412 25.0086 96.3422 25.0015C95.8432 24.9945 95.2868 25.0807 95.1058 25.1932C94.9248 25.3057 94.5661 25.3268 94.3088 25.2404C94.0513 25.1538 93.8506 25.1856 93.8624 25.3113C93.8743 25.437 93.7066 25.487 93.4896 25.4227C92.9337 25.258 88.0796 25.6707 87.4782 25.9336C87.2042 26.0535 86.9427 26.0918 86.8971 26.0191ZM98.5825 19.2308C98.5733 19.1218 98.4829 19.1094 98.3817 19.2033C98.2804 19.2971 98.2509 19.5569 98.3162 19.7805C98.4128 20.111 98.4502 20.116 98.517 19.808C98.5621 19.5995 98.5916 19.34 98.5825 19.2308ZM72.1074 22.1416C72.1025 22.0275 72.0987 21.7141 72.0991 21.4457C72.0994 21.1773 72.0562 21.0231 72.0031 21.1029C71.8575 21.3217 71.8475 22.3748 71.9912 22.3612C72.06 22.3547 72.1122 22.2558 72.1074 22.1416ZM88.131 20.7131C88.1247 20.6461 88.0501 20.5208 87.9652 20.4342C87.8804 20.3477 87.8234 20.4084 87.8386 20.5689C87.8537 20.7293 87.9283 20.8549 88.0043 20.8477C88.0803 20.8405 88.1373 20.7801 88.131 20.7131ZM82.5811 20.2478C82.6137 20.0917 82.5745 19.9703 82.4941 19.9779C82.4137 19.9855 82.3595 20.1157 82.3739 20.2674C82.3882 20.419 82.4273 20.5404 82.4608 20.5373C82.4944 20.5341 82.5484 20.4038 82.5811 20.2478ZM70.4548 20.9931C70.4485 20.9261 70.3739 20.8008 70.2891 20.7142C70.2043 20.6277 70.1473 20.6884 70.1624 20.8488C70.1776 21.0093 70.2522 21.1349 70.3282 21.1277C70.4042 21.1205 70.4612 21.0601 70.4548 20.9931ZM71.2421 20.8734C71.1876 20.7862 71.0674 20.7875 70.9753 20.8766C70.8734 20.975 70.9123 21.0372 71.0745 21.0352C71.2213 21.0333 71.2966 20.9605 71.2421 20.8734ZM71.7528 20.7149C71.7854 20.5589 71.7115 20.4407 71.5886 20.4523C71.4656 20.464 71.4152 20.5939 71.4765 20.7411C71.5378 20.8882 71.6117 21.0064 71.6407 21.0037C71.6697 21.0009 71.7201 20.871 71.7528 20.7149ZM73.2065 20.6101C73.1938 20.4761 73.0368 20.3093 72.8578 20.2395C72.5433 20.1171 72.5426 20.1255 72.8381 20.4872C73.195 20.9238 73.2375 20.9381 73.2065 20.6101ZM68.2183 20.9264C68.212 20.8594 68.1374 20.734 68.0525 20.6475C67.9677 20.5609 67.9107 20.6217 67.9259 20.7821C67.941 20.9425 68.0156 21.0682 68.0916 21.061C68.1676 21.0538 68.2246 20.9933 68.2183 20.9264ZM61.7953 21.2099C61.7408 21.1228 61.6207 21.1241 61.5286 21.2132C61.4266 21.3115 61.4656 21.3738 61.6278 21.3718C61.7745 21.3699 61.8499 21.2971 61.7953 21.2099ZM63.2153 20.0789C63.1505 19.8634 63.1239 19.9318 63.1477 20.2536C63.1692 20.5447 63.2171 20.7043 63.2544 20.6084C63.2916 20.5125 63.2741 20.2742 63.2153 20.0789ZM111.744 15.4055C111.678 14.7119 111.464 14.7633 111.501 15.4637C111.522 15.8598 111.589 16.0737 111.659 15.9687C111.725 15.8684 111.764 15.615 111.744 15.4055ZM54.3269 20.6932C54.3595 20.5371 54.3203 20.4156 54.2399 20.4232C54.1595 20.4308 54.1053 20.5611 54.1196 20.7127C54.134 20.8644 54.1731 20.9858 54.2066 20.9827C54.2402 20.9795 54.2942 20.8492 54.3269 20.6932ZM61.933 19.821C61.9545 19.5973 62.0276 19.4091 62.0954 19.4027C62.2941 19.3839 62.2823 19.8675 62.0796 20.0555C61.9554 20.1707 61.9068 20.093 61.933 19.821ZM115.849 14.7124C115.659 14.3559 115.657 14.2449 115.835 14.0048C116.131 13.6035 116.06 13.0907 115.762 13.4765C115.634 13.6416 115.472 13.6925 115.402 13.5898C115.331 13.4872 115.336 13.6263 115.413 13.8995C115.489 14.1723 115.568 14.5718 115.588 14.7868C115.609 15.0018 115.726 15.1682 115.849 15.1565C116.039 15.1386 116.039 15.0702 115.849 14.7124ZM46.8087 20.5171C46.7438 20.3015 46.7172 20.3699 46.741 20.6917C46.7625 20.9828 46.8105 21.1424 46.8477 21.0465C46.8849 20.9507 46.8674 20.7123 46.8087 20.5171ZM113.213 14.7268C113.207 14.6598 113.132 14.5344 113.047 14.4479C112.962 14.3613 112.905 14.4221 112.921 14.5825C112.936 14.7429 113.01 14.8686 113.086 14.8614C113.162 14.8542 113.219 14.7937 113.213 14.7268ZM113.613 14.5335C113.599 14.3819 113.525 14.2637 113.449 14.2709C113.373 14.2781 113.322 14.408 113.337 14.5596C113.351 14.7112 113.425 14.8294 113.501 14.8222C113.577 14.815 113.627 14.6851 113.613 14.5335ZM46.4168 20.3282C46.3882 20.025 46.3083 19.7822 46.2395 19.7887C46.1706 19.7953 46.1703 20.0456 46.2386 20.3451C46.307 20.6446 46.3869 20.8873 46.416 20.8846C46.445 20.8818 46.4455 20.6315 46.4168 20.3282ZM47.2458 20.2499C47.2314 20.0983 47.1923 19.9768 47.1588 19.98C47.1252 19.9832 47.0712 20.1134 47.0385 20.2695C47.0059 20.4255 47.0451 20.547 47.1255 20.5394C47.2059 20.5318 47.2601 20.4015 47.2458 20.2499ZM45.9016 19.7684C45.8367 19.5529 45.8101 19.6213 45.8339 19.9431C45.8554 20.2342 45.9034 20.3937 45.9406 20.2979C45.9778 20.202 45.9603 19.9637 45.9016 19.7684ZM117.428 12.1333C117.409 11.931 117.3 11.7744 117.186 11.7852C116.968 11.8058 116.94 12.0543 117.123 12.3474C117.305 12.6373 117.465 12.5245 117.428 12.1333ZM26.7536 16.6054C26.6882 16.4486 26.6588 16.2581 26.6882 16.1825C26.7175 16.1068 26.7965 16.2329 26.8637 16.4626C27.003 16.9395 26.9315 17.0325 26.7536 16.6054ZM12.8336 14.2637C12.7158 14.0754 12.6499 14.0652 12.6662 14.2377C12.681 14.3946 12.7424 14.6016 12.8027 14.6977C12.8628 14.7941 12.9382 14.8059 12.97 14.7236C13.0018 14.6416 12.9405 14.4346 12.8336 14.2637ZM4.91099 13.2989C4.9056 13.2418 4.77634 13.0349 4.62362 12.8393C4.37212 12.5174 4.3682 12.5275 4.58125 12.9485C4.80523 13.3906 4.93244 13.5258 4.91099 13.2989ZM6.82492 11.8325C6.74461 11.2276 6.51354 11.082 6.56922 11.6711C6.60031 12 6.76126 12.3947 6.86045 12.3854C6.88104 12.3834 6.86505 12.1346 6.82492 11.8325Z" fill="#FFC300"/>
</svg>
