<svg width="460" height="405" viewBox="0 0 460 405" fill="none" xmlns="http://www.w3.org/2000/svg"><path d="M421.427 45.569c6.641-11.432 28.544-42.607 31.059-44.208 3.584-2.28 3.988-2.04 5.721 3.403 2.54 7.983 2.478 8.984-.808 12.935-1.617 1.943-2.755 3.97-2.529 4.5.226.532.115.967-.246.967s-3.435 4.111-6.832 9.137c-3.396 5.026-6.938 9.585-7.87 10.132-.933.548-1.491 1.477-1.241 2.065.249.587.177 1.069-.162 1.069-.339 0-2.73 3.72-5.313 8.267-2.584 4.548-5.063 8.748-5.511 9.334-.448.587-1.957 3.468-3.354 6.401-1.397 2.934-2.707 5.574-2.911 5.868-2.074 2.981-8.802 17.686-8.802 19.239 0 .566-.292 1.03-.648 1.03-.607 0-1.569 3.61-1.306 4.899.065.321-.422 1.024-1.083 1.563-.661.538-1.42 2.237-1.686 3.776-.506 2.927-2.687 10.558-4.494 15.717-.582 1.661-1.058 3.957-1.058 5.102 0 1.144-.52 3.866-1.155 6.047-.636 2.182-1.292 5.887-1.458 8.234-.327 4.605-1.631 9.984-2.86 11.794-1.195 1.759-3.381 2.692-4.317 1.841-.469-.424-1.512-.915-2.319-1.089-.808-.174-2.363-1.268-3.457-2.431-1.094-1.163-2.332-2.114-2.752-2.114-.42 0-.764-.681-.764-1.512s-.333-1.673-.741-1.87c-.407-.197-.892-1.503-1.078-2.902-.185-1.398-.925-3.52-1.644-4.714-.907-1.506-.97-1.888-.206-1.249.949.795.962.673.094-.883-.554-.993-1.412-1.805-1.908-1.805-.494 0-1.495-1.921-2.223-4.268-.728-2.346-1.724-4.267-2.213-4.267-.49 0-1.467-2.195-2.172-4.879-.705-2.684-1.738-5.135-2.297-5.446-.558-.312-.833-.995-.609-1.521.223-.525-.036-.955-.575-.955-.982 0-2.095-1.59-5.916-8.445-1.542-2.77-1.81-3.87-1.101-4.525.744-.685.729-.87-.068-.882-.757-.012-.805-.37-.195-1.44.638-1.116 2.829-1.522 4.321-.798.101.049.316-.031.479-.179.162-.147 1.321 1.294 2.576 3.2 1.253 1.907 2.606 3.468 3.007 3.468.4 0 .727.483.727 1.074 0 .59.825 2.117 1.835 3.393 1.009 1.274 1.834 2.712 1.834 3.192 0 1.236 2.788 5.142 3.67 5.142.404 0 .734.8.734 1.779 0 .977.205 1.48.454 1.117.566-.823 2.481 1.861 2.481 3.477 0 .655.853 2.431 1.895 3.946 1.043 1.515 2.025 3.738 2.185 4.941.317 2.398 1.757 5.01 1.848 3.356.114-2.058.565-4.781 1.619-9.768a925.674 925.674 0 0 0 2.027-9.914c.52-2.641 1.493-6.481 2.162-8.535 3.98-12.214 5.7-17.01 7.515-20.957 1.118-2.432 2.033-5.192 2.033-6.134 0-.942.33-1.712.734-1.712.403 0 .734-.735.734-1.633 0-.9.495-1.91 1.1-2.248.606-.338 1.101-1.283 1.101-2.1 0-.818.578-2.346 1.285-3.397 2.363-3.516 7.155-12.424 7.155-13.302 0-.477.331-1.21.734-1.628.404-.419 2.547-3.882 4.763-7.696Z" fill="#388172"/><path fill-rule="evenodd" clip-rule="evenodd" d="M24.068 268.425c-.022.834-1.03 1.04-3.085.632-2.584-.513-3.052-.294-3.052 1.431 0 1.121.716 2.311 1.59 2.644.875.333 1.282 1.102.905 1.709-1.006 1.615 2.819 8.104 4.578 7.768.822-.158 3.115 1.191 5.096 2.997 1.98 1.805 3.868 3.285 4.195 3.287.326.003 2.577 1.823 5.001 4.044 2.425 2.222 4.79 4.04 5.256 4.04.467 0 .849.681.849 1.514s.595 1.515 1.323 1.515c1.701 0 6.797 2.338 6.808 3.124.004.33 1.151 1.921 2.55 3.534 1.398 1.615 2.528 3.389 2.511 3.944-.049 1.599-2.325 4.091-4.545 4.976-1.299.519-1.575.984-.763 1.285 1.952.723 1.51 2.192-.508 1.691-1.055-.261-3.41 1.01-5.781 3.124-2.2 1.961-4.375 3.566-4.833 3.566-.458 0-.832.481-.832 1.069s.458.789 1.017.445c.56-.343 1.018.085 1.018.951 0 .865-.631 1.574-1.402 1.574-.77 0-1.984.697-2.696 1.548-.712.852-1.798 1.381-2.413 1.176-1.401-.466-9.665 8.064-10.906 11.258-.507 1.303-1.792 2.596-2.857 2.872-1.065.276-2.208 1.58-2.542 2.896-.333 1.317-1.745 3.525-3.138 4.907-1.393 1.384-2.533 3.217-2.533 4.076 0 .858-.427 1.56-.95 1.56-1.215 0-2.576 3.973-2.209 6.452.2 1.346-.17 1.736-1.256 1.323-1.899-.723-4.154 1.773-3.39 3.75.31.8-.05 1.958-.798 2.575-1.888 1.555-.824 5.094 1.328 4.415 1.359-.428 1.406-.338.246.481-.789.557-1.99.801-2.667.543-1.579-.601-2.367 1.458-1.962 5.123.189 1.714-.5 3.982-1.701 5.594-1.807 2.425-1.895 3.209-.831 7.4.77 3.037 1.866 4.902 3.112 5.294 1.057.333 1.922 1.029 1.922 1.547s.801.932 1.78.921c2.12-.026 6.773-6.319 7.815-10.571.407-1.66 1.275-3.358 1.93-3.772.784-.494.582-.757-.589-.767-.978-.008-1.78-.47-1.78-1.025 0-.556.474-1.01 1.053-1.01.69 0 .65-.75-.118-2.173-1.011-1.874-.935-2.082.552-1.516 2.491.949 7.582-4.446 8.03-8.509.198-1.795 1.114-3.812 2.034-4.48.921-.669 1.675-1.541 1.675-1.939 0-.398 1.38-2.094 3.069-3.769 1.686-1.675 4.518-5.161 6.291-7.748 1.772-2.586 3.655-4.993 4.183-5.347.528-.354.65-1.145.269-1.756-.434-.699-.106-.888.887-.51.918.35 1.58.064 1.58-.683 0-.707.665-2.006 1.478-2.885 2.6-2.812 5.452-5.602 7.061-6.908.86-.699 1.302-1.949.982-2.777-.327-.844-.02-1.508.695-1.508.703 0 2.834-1.59 4.736-3.534 1.902-1.944 3.954-3.534 4.562-3.534.606 0 1.945-.963 2.973-2.141 1.495-1.71 1.648-2.571.758-4.291-.916-1.771-.875-1.928.233-.889 1.791 1.681 4.345 1.615 3.683-.095-.908-2.349 4.434-.633 5.543 1.782.55 1.197 3.331 3.75 6.182 5.672 2.85 1.923 6.72 4.974 8.6 6.778 1.88 1.805 4.098 3.282 4.927 3.282.829 0 1.508.454 1.508 1.009 0 .556.609 1.01 1.354 1.01.744 0 1.966 1.136 2.715 2.525.749 1.388 1.949 2.524 2.67 2.524 1.831 0 6.164 4.494 5.691 5.904-.216.64.105 1.164.711 1.164s1.102.64 1.102 1.42c0 .901.711 1.236 1.941.917 1.15-.299 2.807.356 4.07 1.61 1.17 1.161 2.815 2.112 3.654 2.112s1.526.682 1.526 1.515c0 1.833 1.663 2.01 2.382.252.389-.952.724-.972 1.366-.08.468.651 2.068 1.486 3.555 1.856 2.117.527 2.95.216 3.841-1.435.625-1.159 1.808-2.108 2.627-2.108.977 0 1.49-1.042 1.49-3.029 0-2.02-.509-3.03-1.526-3.03-.839 0-1.541-.567-1.56-1.262-.036-1.342-3.451-5.806-4.442-5.806-1.419 0-4.681-3.635-4.681-5.216 0-.956-.912-2.372-2.028-3.148-1.115-.775-1.688-1.772-1.272-2.214.416-.443-.513-.577-2.064-.298-2.302.414-3.138-.026-4.543-2.386-.947-1.592-2.238-2.894-2.867-2.894-1.418 0-9.608-7.864-9.608-9.225 0-.546-.377-.762-.836-.479-.46.282-1.6-.373-2.534-1.455-.934-1.082-2.332-1.968-3.109-1.968-.776 0-1.998-.702-2.716-1.561-.718-.858-1.823-1.363-2.456-1.122-1.78.678-4.088-1.593-4.395-4.323-.2-1.781.785-3.381 3.56-5.787 2.112-1.828 4.182-3.333 4.601-3.344.42-.01.763-.701.763-1.534 0-.833.608-1.514 1.35-1.514 1.567 0 5.184-3.745 6.097-6.312.345-.971 1.215-1.774 1.932-1.782.974-.012.945-.241-.118-.909-.972-.611-.233-.893 2.342-.893 4.014 0 12.241-4.731 11.183-6.43-.954-1.532 1.492-3.617 4.243-3.617 3.143 0 5.857-3.185 4.302-5.046-1.551-1.855-10.67-1.642-11.75.275-.477.847-2.331 1.641-4.119 1.767-1.787.125-3.25.687-3.251 1.25-.002 1.063-1.015 1.703-7.86 4.966-3.963 1.888-7.534 5.623-5.376 5.623.563 0 1.025.636 1.025 1.415 0 1.065-1.127 1.309-4.578.989-3.606-.334-4.578-.098-4.578 1.11 0 .946-.935 1.535-2.435 1.535-1.339 0-2.698.682-3.02 1.515-.322.833-1.106 1.514-1.742 1.514-.637 0-2.517 1.136-4.18 2.525-3.288 2.745-7.954 3.402-7.954 1.118 0-.772-1.144-1.69-2.543-2.038-2.204-.549-3.083-2.143-2.676-4.85.06-.397-.536-.476-1.323-.176-1.903.724-6.346-2.154-10.881-7.049-2.801-3.022-4.427-3.96-6.754-3.895-2.601.074-2.983-.224-2.52-1.975.486-1.849.212-1.989-2.658-1.363-2.603.568-3.2.379-3.2-1.006 0-1.039-.552-1.492-1.415-1.163-.778.296-2.361-.337-3.518-1.406-1.158-1.071-2.645-1.946-3.307-1.946-.661 0-1.81-.796-2.553-1.767-.793-1.036-1.366-1.257-1.384-.531Zm64.758 27.732c-.325.804-.566.565-.615-.611-.044-1.065.197-1.66.534-1.325.338.335.375 1.207.08 1.936Z" fill="#F68A22"/></svg>