<svg width="701" height="473" viewBox="0 0 701 473" xmlns="http://www.w3.org/2000/svg"><g fill-rule="nonzero" fill="none"><g style="box-shadow: 0 16px 24px rgba(0, 54, 43, 0.02), 0 16px 40px rgba(0, 54, 43, 0.02);"><rect fill="#222525" x="380" y="295" width="319" height="108" rx="8"/><path d="M422.759 314.369h-.285c-.501 0-.88.089-1.135.267-.253.174-.379.436-.379.785 0 .314.095.559.285.733.19.175.453.262.79.262.473 0 .846-.164 1.117-.491.271-.33.408-.785.411-1.364v-.192h-.804Zm1.668-.355V317h-.864v-.776a1.79 1.79 0 0 1-.696.692c-.278.146-.616.22-1.014.22-.533 0-.958-.15-1.276-.449-.318-.302-.477-.706-.477-1.21 0-.583.195-1.025.585-1.327.392-.302.967-.454 1.724-.454h1.154v-.135c-.003-.418-.109-.72-.318-.907-.209-.19-.542-.285-1-.285-.293 0-.589.042-.888.127a3.85 3.85 0 0 0-.873.369v-.86c.317-.122.621-.212.911-.271.293-.062.576-.094.85-.094.433 0 .802.064 1.108.192.308.128.557.319.747.575.119.156.203.349.253.579.049.228.074.57.074 1.028Zm5.755-2.247-1.874 2.504 2.056 2.729h-.995l-1.533-2.098-1.528 2.098h-.995l2.056-2.729-1.874-2.504h.954l1.387 1.892 1.379-1.892h.967Zm1.732.018h2.2v4.547h1.706V317h-4.271v-.668h1.706v-3.879h-1.341v-.668Zm1.341-2.032h.859v1.084h-.859v-1.084Zm5.539 2.616c-.436 0-.766.17-.99.51-.225.339-.337.842-.337 1.509 0 .663.112 1.167.337 1.509.224.34.554.51.99.51.44 0 .771-.17.996-.51.224-.342.336-.846.336-1.509 0-.667-.112-1.17-.336-1.509-.225-.34-.556-.51-.996-.51Zm0-.729c.726 0 1.281.236 1.664.706.386.47.579 1.151.579 2.042 0 .894-.191 1.576-.575 2.047-.383.467-.939.701-1.668.701-.726 0-1.28-.234-1.663-.701-.383-.471-.575-1.153-.575-2.047 0-.891.192-1.572.575-2.042.383-.47.937-.706 1.663-.706Zm7.147.309v.841a3.242 3.242 0 0 0-.743-.322 2.728 2.728 0 0 0-.761-.108c-.39 0-.681.064-.874.192-.19.124-.285.316-.285.574 0 .234.072.408.215.524.143.115.5.227 1.07.336l.346.066c.427.081.749.243.967.486.221.242.332.559.332.948 0 .517-.184.922-.552 1.215-.367.29-.878.435-1.532.435-.259 0-.53-.029-.813-.085a7.124 7.124 0 0 1-.921-.243v-.887a5.1 5.1 0 0 0 .921.373c.293.081.57.122.831.122.38 0 .675-.076.884-.229a.767.767 0 0 0 .313-.65c0-.398-.382-.674-1.145-.827l-.038-.009-.322-.065c-.495-.097-.857-.259-1.084-.486-.227-.231-.341-.544-.341-.94 0-.501.17-.887.509-1.158.34-.274.824-.412 1.453-.412.281 0 .55.027.809.08.258.05.512.126.761.229Zm-30.123 21.163h1.644V335h-1.644v-1.888Zm7.67-.771c0-.645-.106-1.134-.318-1.467a1.012 1.012 0 0 0-.915-.505c-.421 0-.742.169-.963.505-.221.333-.332.822-.332 1.467 0 .645.111 1.137.332 1.477.224.336.548.504.972.504a1 1 0 0 0 .906-.509c.212-.339.318-.83.318-1.472Zm.86 2.323c0 .785-.185 1.38-.556 1.785-.371.404-.916.607-1.636.607-.236 0-.484-.022-.743-.065a5.48 5.48 0 0 1-.775-.192v-.85c.305.143.582.249.832.317.249.069.478.103.686.103.465 0 .803-.126 1.014-.378.212-.253.318-.653.318-1.201v-.622a1.456 1.456 0 0 1-.561.654c-.236.144-.524.215-.864.215a1.733 1.733 0 0 1-1.463-.733c-.364-.489-.546-1.143-.546-1.963 0-.822.182-1.478.546-1.967a1.734 1.734 0 0 1 1.463-.734c.336 0 .621.067.855.201.234.134.424.341.57.622v-.678h.86v4.879Zm5.843-2.711v.421h-3.724v.028c-.025.713.111 1.226.407 1.537.299.312.719.468 1.261.468.275 0 .561-.044.86-.131.299-.087.618-.22.958-.397v.855a5.642 5.642 0 0 1-.949.299 3.991 3.991 0 0 1-.878.103c-.813 0-1.448-.243-1.906-.729-.458-.49-.687-1.162-.687-2.019 0-.835.224-1.502.673-2 .448-.498 1.046-.748 1.794-.748.667 0 1.191.226 1.575.678.386.452.591.997.616 1.635Zm-.859-.252a1.645 1.645 0 0 0-.398-.934c-.224-.265-.548-.398-.972-.398-.414 0-.755.137-1.023.412-.268.274-.414.582-.439.925l2.832-.005Zm3.974-3.42v1.486h1.953v.668h-1.953v2.841c0 .386.073.656.22.808.146.153.401.229.766.229h.967V335h-1.051c-.645 0-1.1-.129-1.365-.388-.264-.258-.397-.704-.397-1.336v-2.841h-1.397v-.668h1.397v-1.486h.86Zm6.605-1.01a9.527 9.527 0 0 0-.93 2.126 7.696 7.696 0 0 0-.304 2.131c0 .714.102 1.424.304 2.131.206.707.516 1.419.93 2.135h-.748a9.78 9.78 0 0 1-1.051-2.163 6.741 6.741 0 0 1-.346-2.103c0-.694.116-1.394.346-2.098a9.589 9.589 0 0 1 1.051-2.159h.748Zm244.185 0h.748c.47.736.821 1.455 1.051 2.159a6.7 6.7 0 0 1 .346 2.098c0 .701-.115 1.404-.346 2.108-.23.704-.581 1.423-1.051 2.158h-.748a9.657 9.657 0 0 0 .925-2.144 7.562 7.562 0 0 0 .309-2.122c0-.71-.103-1.419-.309-2.126a9.413 9.413 0 0 0-.925-2.131Zm-235.404 23.841h1.644V353h-1.644v-1.888Zm6.53-4.831v1.486h1.953v.668h-1.953v2.841c0 .386.073.656.22.808.146.153.401.229.766.229h.967V353h-1.051c-.645 0-1.1-.129-1.365-.388-.264-.258-.397-.704-.397-1.336v-2.841h-1.397v-.668h1.397v-1.486h.86Zm7.521 3.476V353h-.865v-3.243c0-.47-.082-.816-.247-1.037-.165-.221-.424-.332-.776-.332-.402 0-.712.143-.93.43-.215.283-.322.692-.322 1.224V353h-.86v-7.271h.86v2.823c.152-.299.36-.525.621-.678.262-.156.572-.234.93-.234.533 0 .93.176 1.192.528.264.349.397.879.397 1.589Zm5.801.196v.421h-3.724v.028c-.025.713.111 1.226.407 1.537.299.312.719.468 1.261.468.274 0 .561-.044.86-.131.299-.087.618-.22.958-.397v.855a5.642 5.642 0 0 1-.949.299 3.998 3.998 0 0 1-.878.103c-.813 0-1.449-.243-1.907-.729-.457-.49-.686-1.162-.686-2.019 0-.835.224-1.502.672-2 .449-.498 1.047-.748 1.795-.748.666 0 1.191.226 1.574.678.387.452.592.997.617 1.635Zm-.86-.252a1.638 1.638 0 0 0-.397-.934c-.224-.265-.548-.398-.972-.398-.414 0-.755.137-1.023.412-.268.274-.414.582-.439.925l2.831-.005Zm6.017.056V353h-.865v-3.243c0-.47-.082-.816-.247-1.037-.165-.221-.424-.332-.776-.332-.402 0-.712.143-.93.43-.215.283-.322.692-.322 1.224V353h-.86v-5.233h.86v.785c.152-.299.36-.525.621-.678.262-.156.572-.234.93-.234.533 0 .93.176 1.192.528.264.349.397.879.397 1.589Zm4.563-4.486a9.527 9.527 0 0 0-.93 2.126 7.696 7.696 0 0 0-.304 2.131c0 .714.102 1.424.304 2.131.206.707.516 1.419.93 2.135h-.748c-.47-.741-.821-1.462-1.051-2.163a6.712 6.712 0 0 1-.346-2.103 6.7 6.7 0 0 1 .346-2.098c.23-.704.581-1.423 1.051-2.159h.748Zm54.79 0a9.436 9.436 0 0 0-.93 2.126 7.659 7.659 0 0 0-.304 2.131c0 .714.101 1.424.304 2.131.205.707.515 1.419.93 2.135h-.748c-.47-.741-.821-1.462-1.051-2.163a6.712 6.712 0 0 1-.346-2.103 6.7 6.7 0 0 1 .346-2.098c.23-.704.581-1.423 1.051-2.159h.748Zm6.881 3.575a1.947 1.947 0 0 0-.561-.313 1.925 1.925 0 0 0-.626-.098c-.536 0-.946.168-1.229.504-.284.337-.425.823-.425 1.458V353h-.865v-5.233h.865v1.023a1.73 1.73 0 0 1 .658-.85c.299-.2.653-.3 1.061-.3.212 0 .41.027.594.08.183.053.359.135.528.248v.878Zm5.315 1.107v.421h-3.724v.028c-.025.713.11 1.226.406 1.537.299.312.72.468 1.262.468.274 0 .561-.044.86-.131.299-.087.618-.22.958-.397v.855a5.671 5.671 0 0 1-.949.299 3.998 3.998 0 0 1-.878.103c-.813 0-1.449-.243-1.907-.729-.458-.49-.687-1.162-.687-2.019 0-.835.225-1.502.673-2 .449-.498 1.047-.748 1.794-.748.667 0 1.192.226 1.575.678.386.452.592.997.617 1.635Zm-.86-.252a1.644 1.644 0 0 0-.397-.934c-.224-.265-.548-.398-.972-.398-.414 0-.755.137-1.023.412-.268.274-.415.582-.439.925l2.831-.005Zm5.652-1.752v.841a3.26 3.26 0 0 0-.743-.322 2.73 2.73 0 0 0-.762-.108c-.389 0-.68.064-.873.192-.19.124-.285.316-.285.574 0 .234.071.408.215.524.143.115.5.227 1.07.336l.345.066c.427.081.75.243.968.486.221.242.331.559.331.948 0 .517-.183.922-.551 1.215-.368.29-.878.435-1.533.435a4.21 4.21 0 0 1-.813-.085 7.154 7.154 0 0 1-.92-.243v-.887c.321.165.628.289.92.373.293.081.57.122.832.122.38 0 .675-.076.883-.229a.764.764 0 0 0 .313-.65c0-.398-.381-.674-1.145-.827l-.037-.009-.322-.065c-.496-.097-.857-.259-1.084-.486-.228-.231-.341-.544-.341-.94 0-.501.169-.887.509-1.158.339-.274.824-.412 1.453-.412.28 0 .55.027.808.08.259.05.513.126.762.229Zm2.685 4.392v2.65h-.865v-7.224h.865v.668c.143-.259.333-.455.57-.589.24-.137.515-.206.827-.206.632 0 1.128.245 1.486.734.361.489.542 1.167.542 2.033 0 .85-.181 1.518-.542 2.004-.362.483-.857.725-1.486.725-.318 0-.597-.067-.836-.201a1.451 1.451 0 0 1-.561-.594Zm2.523-1.953c0-.667-.106-1.17-.318-1.509-.208-.34-.52-.51-.934-.51-.418 0-.734.172-.949.514-.215.34-.322.841-.322 1.505 0 .66.107 1.162.322 1.505.215.342.531.514.949.514.414 0 .726-.17.934-.51.212-.339.318-.842.318-1.509Zm4.082-2.019c-.436 0-.766.17-.991.51-.224.339-.336.842-.336 1.509 0 .663.112 1.167.336 1.509.225.34.555.51.991.51.439 0 .771-.17.995-.51.224-.342.337-.846.337-1.509 0-.667-.113-1.17-.337-1.509-.224-.34-.556-.51-.995-.51Zm0-.729c.726 0 1.28.236 1.663.706.387.47.58 1.151.58 2.042 0 .894-.192 1.576-.575 2.047-.383.467-.939.701-1.668.701-.726 0-1.28-.234-1.664-.701-.383-.471-.574-1.153-.574-2.047 0-.891.191-1.572.574-2.042.384-.47.938-.706 1.664-.706Zm7.511 2.117V353h-.864v-3.243c0-.47-.083-.816-.248-1.037-.165-.221-.423-.332-.775-.332-.402 0-.712.143-.93.43-.215.283-.323.692-.323 1.224V353h-.859v-5.233h.859v.785c.153-.299.36-.525.622-.678.262-.156.572-.234.93-.234.532 0 .93.176 1.191.528.265.349.397.879.397 1.589Zm5.115-1.808v.841a3.26 3.26 0 0 0-.743-.322 2.73 2.73 0 0 0-.762-.108c-.389 0-.68.064-.873.192-.19.124-.285.316-.285.574 0 .234.071.408.215.524.143.115.499.227 1.07.336l.345.066c.427.081.75.243.968.486.221.242.331.559.331.948 0 .517-.183.922-.551 1.215-.368.29-.879.435-1.533.435a4.21 4.21 0 0 1-.813-.085 7.154 7.154 0 0 1-.92-.243v-.887c.321.165.627.289.92.373.293.081.57.122.832.122.38 0 .674-.076.883-.229a.764.764 0 0 0 .313-.65c0-.398-.381-.674-1.145-.827l-.037-.009-.322-.065c-.496-.097-.857-.259-1.084-.486-.228-.231-.342-.544-.342-.94 0-.501.17-.887.51-1.158.339-.274.824-.412 1.453-.412.28 0 .55.027.808.08.259.05.513.126.762.229Zm6.166 2.004v.421H574.4v.028c-.025.713.11 1.226.406 1.537.299.312.72.468 1.262.468.274 0 .561-.044.86-.131.299-.087.618-.22.958-.397v.855a5.7 5.7 0 0 1-.949.299 3.998 3.998 0 0 1-.878.103c-.814 0-1.449-.243-1.907-.729-.458-.49-.687-1.162-.687-2.019 0-.835.224-1.502.673-2 .449-.498 1.047-.748 1.794-.748.667 0 1.192.226 1.575.678.386.452.592.997.617 1.635Zm-.86-.252a1.644 1.644 0 0 0-.397-.934c-.224-.265-.548-.398-.972-.398-.414 0-.755.137-1.023.412-.268.274-.415.582-.44.925l2.832-.005Zm2.732-4.43h.747a9.552 9.552 0 0 1 1.052 2.159c.23.704.345 1.404.345 2.098 0 .701-.115 1.404-.345 2.108a9.526 9.526 0 0 1-1.052 2.158h-.747a9.704 9.704 0 0 0 .925-2.144 7.597 7.597 0 0 0 .308-2.122c0-.71-.103-1.419-.308-2.126a9.458 9.458 0 0 0-.925-2.131Zm14.154 7.967v.673h-.299c-.776 0-1.296-.115-1.561-.346-.262-.23-.393-.69-.393-1.378v-.935a1.38 1.38 0 0 0-.289-.878c-.19-.246-.486-.369-.888-.369h-.57v-.668h.57c.439 0 .744-.105.916-.313.174-.209.261-.516.261-.921v-1.215c0-.688.131-1.146.393-1.374.265-.23.785-.345 1.561-.345h.299v.668h-.327c-.437 0-.722.068-.856.205-.13.134-.196.422-.196.865v1.252c0 .548-.107.918-.322 1.108-.215.186-.634.322-1.257.406.604.072 1.018.21 1.243.416.224.202.336.57.336 1.103v.976c0 .446.066.735.196.869.134.134.419.201.856.201h.327Zm-83.012 10.033a9.527 9.527 0 0 0-.93 2.126 7.659 7.659 0 0 0-.304 2.131c0 .714.101 1.424.304 2.131.206.707.516 1.419.93 2.135h-.748c-.47-.741-.821-1.462-1.051-2.163a6.712 6.712 0 0 1-.346-2.103 6.7 6.7 0 0 1 .346-2.098c.23-.704.581-1.423 1.051-2.159h.748Zm6.881 3.575a1.947 1.947 0 0 0-.561-.313 1.925 1.925 0 0 0-.626-.098c-.536 0-.946.168-1.229.504-.284.337-.425.823-.425 1.458V371h-.865v-5.233h.865v1.023c.143-.371.363-.654.658-.85.3-.2.653-.3 1.061-.3.212 0 .41.027.594.08.183.053.359.135.528.248v.878Zm5.315 1.107v.421h-3.724v.028c-.025.713.111 1.226.406 1.537.299.312.72.468 1.262.468.274 0 .561-.044.86-.131.299-.087.618-.22.958-.397v.855a5.671 5.671 0 0 1-.949.299 3.998 3.998 0 0 1-.878.103c-.813 0-1.449-.243-1.907-.729-.458-.49-.687-1.162-.687-2.019 0-.835.225-1.502.673-2 .449-.498 1.047-.748 1.795-.748.666 0 1.191.226 1.574.678.387.452.592.997.617 1.635Zm-.86-.252a1.644 1.644 0 0 0-.397-.934c-.224-.265-.548-.398-.972-.398-.414 0-.755.137-1.023.412-.268.274-.414.582-.439.925l2.831-.005Zm5.652-1.752v.841a3.26 3.26 0 0 0-.743-.322 2.728 2.728 0 0 0-.761-.108c-.39 0-.681.064-.874.192-.19.124-.285.316-.285.574 0 .234.071.408.215.524.143.115.5.227 1.07.336l.345.066c.427.081.75.243.968.486.221.242.331.559.331.948 0 .517-.183.922-.551 1.215-.367.29-.878.435-1.533.435a4.21 4.21 0 0 1-.813-.085 7.154 7.154 0 0 1-.92-.243v-.887c.321.165.628.289.92.373.293.081.57.122.832.122.38 0 .675-.076.883-.229a.764.764 0 0 0 .313-.65c0-.398-.381-.674-1.144-.827l-.038-.009-.322-.065c-.496-.097-.857-.259-1.084-.486-.228-.231-.341-.544-.341-.94 0-.501.169-.887.509-1.158.339-.274.824-.412 1.453-.412.28 0 .55.027.808.08.259.05.513.126.762.229Zm2.685 4.392v2.65h-.865v-7.224h.865v.668c.143-.259.333-.455.57-.589.24-.137.515-.206.827-.206.632 0 1.128.245 1.486.734.361.489.542 1.167.542 2.033 0 .85-.181 1.518-.542 2.004-.361.483-.857.725-1.486.725-.318 0-.597-.067-.836-.201a1.451 1.451 0 0 1-.561-.594Zm2.523-1.953c0-.667-.106-1.17-.318-1.509-.208-.34-.52-.51-.934-.51-.418 0-.734.172-.949.514-.215.34-.322.841-.322 1.505 0 .66.107 1.162.322 1.505.215.342.531.514.949.514.414 0 .726-.17.934-.51.212-.339.318-.842.318-1.509Zm4.082-2.019c-.436 0-.766.17-.991.51-.224.339-.336.842-.336 1.509 0 .663.112 1.167.336 1.509.225.34.555.51.991.51.439 0 .771-.17.995-.51.225-.342.337-.846.337-1.509 0-.667-.112-1.17-.337-1.509-.224-.34-.556-.51-.995-.51Zm0-.729c.726 0 1.28.236 1.663.706.387.47.58 1.151.58 2.042 0 .894-.192 1.576-.575 2.047-.383.467-.939.701-1.668.701-.726 0-1.28-.234-1.664-.701-.383-.471-.574-1.153-.574-2.047 0-.891.191-1.572.574-2.042.384-.47.938-.706 1.664-.706Zm7.512 2.117V371h-.865v-3.243c0-.47-.082-.816-.248-1.037-.165-.221-.423-.332-.775-.332-.402 0-.712.143-.93.43-.215.283-.322.692-.322 1.224V371h-.86v-5.233h.86v.785a1.6 1.6 0 0 1 .621-.678c.262-.156.572-.234.93-.234.533 0 .93.176 1.191.528.265.349.398.879.398 1.589Zm5.114-1.808v.841a3.26 3.26 0 0 0-.743-.322 2.73 2.73 0 0 0-.762-.108c-.389 0-.68.064-.873.192-.19.124-.285.316-.285.574 0 .234.071.408.215.524.143.115.5.227 1.07.336l.345.066c.427.081.75.243.968.486.221.242.331.559.331.948 0 .517-.183.922-.551 1.215-.368.29-.878.435-1.533.435a4.21 4.21 0 0 1-.813-.085 7.154 7.154 0 0 1-.92-.243v-.887c.321.165.628.289.92.373.293.081.57.122.832.122.38 0 .675-.076.883-.229a.764.764 0 0 0 .313-.65c0-.398-.381-.674-1.145-.827l-.037-.009-.322-.065c-.496-.097-.857-.259-1.084-.486-.228-.231-.341-.544-.341-.94 0-.501.169-.887.509-1.158.339-.274.824-.412 1.453-.412.28 0 .55.027.808.08.259.05.513.126.762.229Zm6.166 2.004v.421h-3.724v.028c-.025.713.11 1.226.406 1.537.299.312.72.468 1.262.468.274 0 .561-.044.86-.131.299-.087.618-.22.958-.397v.855a5.671 5.671 0 0 1-.949.299 3.998 3.998 0 0 1-.878.103c-.813 0-1.449-.243-1.907-.729-.458-.49-.687-1.162-.687-2.019 0-.835.225-1.502.673-2 .449-.498 1.047-.748 1.794-.748.667 0 1.192.226 1.575.678.386.452.592.997.617 1.635Zm-.86-.252a1.644 1.644 0 0 0-.397-.934c-.224-.265-.548-.398-.972-.398-.414 0-.755.137-1.023.412-.268.274-.415.582-.439.925l2.831-.005Zm2.732-4.43h.747a9.552 9.552 0 0 1 1.052 2.159c.23.704.345 1.404.345 2.098 0 .701-.115 1.404-.345 2.108a9.526 9.526 0 0 1-1.052 2.158h-.747a9.704 9.704 0 0 0 .925-2.144 7.597 7.597 0 0 0 .308-2.122c0-.71-.103-1.419-.308-2.126a9.458 9.458 0 0 0-.925-2.131Zm5.918 6.042h1.458v1.238l-.921 1.785h-1l.463-1.785v-1.238Zm-.061-3.542h1.458v1.687h-1.458v-1.687Zm-115.713 22.467c.436 0 .72-.067.851-.201.134-.134.201-.423.201-.869v-.976c0-.533.112-.901.336-1.103.224-.206.639-.344 1.243-.416-.623-.084-1.042-.22-1.257-.406-.215-.19-.322-.56-.322-1.108v-1.252c0-.443-.067-.731-.201-.865-.131-.137-.415-.205-.851-.205h-.327v-.668h.299c.776 0 1.295.115 1.556.345.265.228.397.686.397 1.374v1.215c0 .405.086.712.257.921.175.208.482.313.921.313h.57v.668h-.57c-.402 0-.699.123-.893.369-.19.246-.285.539-.285.878v.935c0 .688-.132 1.148-.397 1.378-.261.231-.78.346-1.556.346h-.299v-.673h.327Zm5.755-7.967h.748c.47.736.82 1.455 1.051 2.159a6.73 6.73 0 0 1 .346 2.098c0 .701-.116 1.404-.346 2.108a9.562 9.562 0 0 1-1.051 2.158h-.748a9.657 9.657 0 0 0 .925-2.144 7.562 7.562 0 0 0 .309-2.122c0-.71-.103-1.419-.309-2.126a9.413 9.413 0 0 0-.925-2.131Z" fill="#FFF"/><path d="M445.811 327.771v2.86h-1.047v-2.86h1.047Zm-2.491 0v2.86h-1.047v-2.86h1.047Zm8.465 3.986V335h-.865v-3.243c0-.47-.082-.816-.247-1.037-.165-.221-.424-.332-.776-.332-.402 0-.712.143-.93.43-.215.283-.322.692-.322 1.224V335h-.86v-7.271h.86v2.823c.152-.299.36-.525.621-.678.262-.156.572-.234.93-.234.533 0 .93.176 1.192.528.264.349.397.879.397 1.589Zm3.437-3.476v1.486h1.953v.668h-1.953v2.841c0 .386.073.656.22.808.146.153.401.229.766.229h.967V335h-1.051c-.645 0-1.1-.129-1.365-.388-.264-.258-.397-.704-.397-1.336v-2.841h-1.397v-.668h1.397v-1.486h.86Zm5.479 0v1.486h1.953v.668h-1.953v2.841c0 .386.073.656.219.808.147.153.402.229.767.229h.967V335h-1.051c-.645 0-1.1-.129-1.365-.388-.265-.258-.397-.704-.397-1.336v-2.841h-1.397v-.668h1.397v-1.486h.86Zm4.362 6.06v2.65h-.864v-7.224h.864v.668c.143-.259.333-.455.57-.589a1.64 1.64 0 0 1 .827-.206c.633 0 1.128.245 1.486.734.361.489.542 1.167.542 2.033 0 .85-.181 1.518-.542 2.004-.361.483-.857.725-1.486.725-.318 0-.596-.067-.836-.201a1.451 1.451 0 0 1-.561-.594Zm2.523-1.953c0-.667-.106-1.17-.317-1.509-.209-.34-.521-.51-.935-.51-.417 0-.734.172-.948.514-.215.34-.323.841-.323 1.505 0 .66.108 1.162.323 1.505.214.342.531.514.948.514.414 0 .726-.17.935-.51.211-.339.317-.842.317-1.509Zm5.75-2.439v.841a3.242 3.242 0 0 0-.743-.322 2.728 2.728 0 0 0-.761-.108c-.39 0-.681.064-.874.192-.19.124-.285.316-.285.574 0 .234.072.408.215.524.143.115.5.227 1.07.336l.346.066c.426.081.749.243.967.486.221.242.332.559.332.948 0 .517-.184.922-.552 1.215-.367.29-.878.435-1.532.435-.259 0-.53-.029-.813-.085a7.124 7.124 0 0 1-.921-.243v-.887a5.1 5.1 0 0 0 .921.373c.292.081.57.122.831.122.38 0 .675-.076.883-.229a.765.765 0 0 0 .314-.65c0-.398-.382-.674-1.145-.827l-.038-.009-.322-.065c-.495-.097-.857-.259-1.084-.486-.228-.231-.341-.544-.341-.94 0-.501.17-.887.509-1.158.34-.274.824-.412 1.453-.412.281 0 .55.027.809.08.258.05.512.126.761.229Zm2.937-.178h1.458v1.687h-1.458v-1.687Zm0 3.528h1.458V335h-1.458v-1.701Zm7.629-5.275h.888l-3.673 7.864h-.893l3.678-7.864Zm5.479 0h.888l-3.673 7.864h-.893l3.678-7.864Zm4.128 7.069v-4.658h-1.481v-.668h2.341v5.326c0 .608-.14 1.075-.42 1.402-.278.33-.673.496-1.187.496h-1.187v-.729h1.093c.281 0 .491-.099.631-.295.14-.193.21-.484.21-.874Zm0-7.364h.86v1.089h-.86v-1.089Zm7.222 2.22v.841a3.26 3.26 0 0 0-.743-.322 2.728 2.728 0 0 0-.761-.108c-.39 0-.681.064-.874.192-.19.124-.285.316-.285.574 0 .234.071.408.215.524.143.115.5.227 1.07.336l.346.066c.426.081.749.243.967.486.221.242.332.559.332.948 0 .517-.184.922-.552 1.215-.367.29-.878.435-1.532.435-.259 0-.53-.029-.813-.085a7.124 7.124 0 0 1-.921-.243v-.887a5.1 5.1 0 0 0 .921.373c.292.081.57.122.831.122.38 0 .675-.076.883-.229a.764.764 0 0 0 .313-.65c0-.398-.381-.674-1.144-.827l-.038-.009-.322-.065c-.495-.097-.857-.259-1.084-.486-.228-.231-.341-.544-.341-.94 0-.501.169-.887.509-1.158.34-.274.824-.412 1.453-.412.281 0 .55.027.809.08.258.05.512.126.761.229Zm3.811.42c-.436 0-.766.17-.991.51-.224.339-.336.842-.336 1.509 0 .663.112 1.167.336 1.509.225.34.555.51.991.51.439 0 .771-.17.995-.51.225-.342.337-.846.337-1.509 0-.667-.112-1.17-.337-1.509-.224-.34-.556-.51-.995-.51Zm0-.729c.726 0 1.28.236 1.664.706.386.47.579 1.151.579 2.042 0 .894-.192 1.576-.575 2.047-.383.467-.939.701-1.668.701-.726 0-1.28-.234-1.663-.701-.384-.471-.575-1.153-.575-2.047 0-.891.191-1.572.575-2.042.383-.47.937-.706 1.663-.706Zm7.512 2.117V335h-.865v-3.243c0-.47-.082-.816-.247-1.037-.166-.221-.424-.332-.776-.332-.402 0-.712.143-.93.43-.215.283-.322.692-.322 1.224V335h-.86v-5.233h.86v.785a1.6 1.6 0 0 1 .621-.678c.262-.156.572-.234.93-.234.533 0 .93.176 1.191.528.265.349.398.879.398 1.589Zm2.32 2.584v2.65h-.865v-7.224h.865v.668c.143-.259.333-.455.57-.589a1.64 1.64 0 0 1 .827-.206c.632 0 1.128.245 1.486.734.361.489.542 1.167.542 2.033 0 .85-.181 1.518-.542 2.004-.361.483-.857.725-1.486.725-.318 0-.596-.067-.836-.201a1.451 1.451 0 0 1-.561-.594Zm2.523-1.953c0-.667-.106-1.17-.318-1.509-.208-.34-.52-.51-.934-.51-.418 0-.734.172-.949.514-.215.34-.322.841-.322 1.505 0 .66.107 1.162.322 1.505.215.342.531.514.949.514.414 0 .726-.17.934-.51.212-.339.318-.842.318-1.509Zm4.563.72c0 .386.07.677.211.873.143.197.353.295.63.295h1.005V335h-1.089c-.514 0-.912-.164-1.196-.491-.28-.33-.42-.797-.42-1.401v-4.734h-1.379v-.673h2.238v5.407Zm5.4-.739h-.285c-.502 0-.88.089-1.136.267-.252.174-.378.436-.378.785 0 .314.095.559.285.733.19.175.453.262.79.262.473 0 .845-.164 1.116-.491.271-.33.408-.785.412-1.364v-.192h-.804Zm1.668-.355V335h-.864v-.776a1.787 1.787 0 0 1-.697.692c-.277.146-.615.22-1.014.22-.532 0-.958-.15-1.275-.449-.318-.302-.477-.706-.477-1.21 0-.583.195-1.025.584-1.327.393-.302.967-.454 1.724-.454h1.155v-.135c-.004-.418-.109-.72-.318-.907-.209-.19-.542-.285-1-.285-.293 0-.589.042-.888.127-.299.084-.59.207-.874.369v-.86a5.78 5.78 0 0 1 .911-.271c.293-.062.577-.094.851-.094.433 0 .802.064 1.107.192.309.128.558.319.748.575.118.156.202.349.252.579.05.228.075.57.075 1.028Zm5.488 2.72c-.23.134-.469.233-.715.299a2.76 2.76 0 0 1-.747.103c-.81 0-1.444-.243-1.902-.729-.455-.486-.682-1.159-.682-2.019 0-.86.227-1.533.682-2.019.458-.486 1.092-.729 1.902-.729.252 0 .498.033.738.099.24.065.481.166.724.303v.902a2.307 2.307 0 0 0-.687-.439 2.092 2.092 0 0 0-.775-.136c-.539 0-.953.175-1.243.524-.29.349-.435.847-.435 1.495 0 .645.145 1.143.435 1.495.293.349.707.524 1.243.524.299 0 .567-.046.803-.136.237-.093.457-.237.659-.43v.893Zm5.755-2.781v.421h-3.724v.028c-.025.713.11 1.226.406 1.537.299.312.72.468 1.262.468.274 0 .561-.044.86-.131.299-.087.618-.22.958-.397v.855a5.671 5.671 0 0 1-.949.299 3.998 3.998 0 0 1-.878.103c-.813 0-1.449-.243-1.907-.729-.458-.49-.687-1.162-.687-2.019 0-.835.225-1.502.673-2 .449-.498 1.047-.748 1.795-.748.666 0 1.191.226 1.574.678.386.452.592.997.617 1.635Zm-.86-.252a1.644 1.644 0 0 0-.397-.934c-.224-.265-.548-.398-.972-.398-.414 0-.755.137-1.023.412-.268.274-.415.582-.439.925l2.831-.005Zm6.017.056V335h-.865v-3.243c0-.47-.082-.816-.248-1.037-.165-.221-.423-.332-.775-.332-.402 0-.712.143-.93.43-.215.283-.322.692-.322 1.224V335h-.86v-7.271h.86v2.823a1.6 1.6 0 0 1 .621-.678c.262-.156.572-.234.93-.234.533 0 .93.176 1.191.528.265.349.398.879.398 1.589Zm3.446-1.388c-.436 0-.766.17-.991.51-.224.339-.336.842-.336 1.509 0 .663.112 1.167.336 1.509.225.34.555.51.991.51.439 0 .771-.17.995-.51.224-.342.337-.846.337-1.509 0-.667-.113-1.17-.337-1.509-.224-.34-.556-.51-.995-.51Zm0-.729c.726 0 1.28.236 1.663.706.387.47.58 1.151.58 2.042 0 .894-.192 1.576-.575 2.047-.383.467-.939.701-1.668.701-.726 0-1.28-.234-1.664-.701-.383-.471-.574-1.153-.574-2.047 0-.891.191-1.572.574-2.042.384-.47.938-.706 1.664-.706Zm5.96 3.468c0 .386.07.677.21.873.144.197.354.295.631.295h1.005V335h-1.089c-.514 0-.913-.164-1.196-.491-.28-.33-.421-.797-.421-1.401v-4.734h-1.378v-.673h2.238v5.407Zm6.129-2.673v-2.706h.859V335h-.859v-.659a1.51 1.51 0 0 1-.575.594 1.641 1.641 0 0 1-.822.201c-.633 0-1.131-.245-1.496-.734-.361-.492-.542-1.17-.542-2.033 0-.85.182-1.517.547-2 .364-.486.861-.729 1.491-.729.314 0 .591.069.831.206.24.134.429.33.566.589Zm-2.528 1.953c0 .667.106 1.17.317 1.509.212.34.525.51.94.51.414 0 .729-.172.944-.514.218-.343.327-.845.327-1.505 0-.664-.109-1.165-.327-1.505-.215-.342-.53-.514-.944-.514-.415 0-.728.17-.94.51-.211.339-.317.842-.317 1.509Zm9.231-.435v.421h-3.724v.028c-.025.713.11 1.226.406 1.537.299.312.72.468 1.262.468.274 0 .561-.044.86-.131.299-.087.618-.22.958-.397v.855a5.671 5.671 0 0 1-.949.299 3.998 3.998 0 0 1-.878.103c-.813 0-1.449-.243-1.907-.729-.458-.49-.687-1.162-.687-2.019 0-.835.225-1.502.673-2 .449-.498 1.047-.748 1.794-.748.667 0 1.192.226 1.575.678.386.452.592.997.617 1.635Zm-.86-.252a1.644 1.644 0 0 0-.397-.934c-.224-.265-.548-.398-.972-.398-.414 0-.755.137-1.023.412-.268.274-.415.582-.44.925l2.832-.005Zm6.502-.855a1.93 1.93 0 0 0-.56-.313 1.925 1.925 0 0 0-.626-.098c-.536 0-.946.168-1.229.504-.284.337-.426.823-.426 1.458V335h-.864v-5.233h.864v1.023c.144-.371.363-.654.659-.85.299-.2.653-.3 1.061-.3.212 0 .41.027.593.08.184.053.36.135.528.248v.878Zm1.9 2.266h1.645V335h-1.645v-1.888Zm6.53-4.831v1.486h1.954v.668h-1.954v2.841c0 .386.074.656.22.808.146.153.402.229.766.229h.968V335h-1.052c-.645 0-1.099-.129-1.364-.388-.265-.258-.397-.704-.397-1.336v-2.841h-1.397v-.668h1.397v-1.486h.859Zm6.62 5.037c-.144.364-.326.844-.547 1.439-.309.822-.516 1.324-.622 1.505a1.452 1.452 0 0 1-.537.546 1.499 1.499 0 0 1-.752.183h-.692v-.72h.51c.252 0 .45-.073.593-.22.143-.146.325-.525.547-1.135l-2.024-5.149h.912l1.551 4.093 1.528-4.093h.911l-1.378 3.551Zm3.222 1.023v2.65h-.865v-7.224h.865v.668c.143-.259.333-.455.57-.589.24-.137.515-.206.827-.206.632 0 1.127.245 1.486.734.361.489.542 1.167.542 2.033 0 .85-.181 1.518-.542 2.004-.362.483-.857.725-1.486.725-.318 0-.597-.067-.837-.201a1.455 1.455 0 0 1-.56-.594Zm2.523-1.953c0-.667-.106-1.17-.318-1.509-.209-.34-.52-.51-.934-.51-.418 0-.734.172-.949.514-.215.34-.322.841-.322 1.505 0 .66.107 1.162.322 1.505.215.342.531.514.949.514.414 0 .725-.17.934-.51.212-.339.318-.842.318-1.509Zm2.68-2.603h2.201v4.547h1.705V335h-4.271v-.668h1.706v-3.879h-1.341v-.668Zm1.341-2.032h.86v1.084h-.86v-1.084Zm7.619 6.981c-.23.134-.469.233-.715.299a2.76 2.76 0 0 1-.747.103c-.81 0-1.444-.243-1.902-.729-.455-.486-.682-1.159-.682-2.019 0-.86.227-1.533.682-2.019.458-.486 1.092-.729 1.902-.729.252 0 .498.033.738.099.24.065.481.166.724.303v.902a2.307 2.307 0 0 0-.687-.439 2.092 2.092 0 0 0-.775-.136c-.539 0-.954.175-1.243.524-.29.349-.435.847-.435 1.495 0 .645.145 1.143.435 1.495.292.349.707.524 1.243.524.299 0 .566-.046.803-.136.237-.093.457-.237.659-.43v.893Zm3.4-4.365c-.436 0-.767.17-.991.51-.224.339-.336.842-.336 1.509 0 .663.112 1.167.336 1.509.224.34.555.51.991.51.439 0 .771-.17.995-.51.224-.342.336-.846.336-1.509 0-.667-.112-1.17-.336-1.509-.224-.34-.556-.51-.995-.51Zm0-.729c.726 0 1.28.236 1.663.706.386.47.58 1.151.58 2.042 0 .894-.192 1.576-.575 2.047-.383.467-.939.701-1.668.701-.726 0-1.281-.234-1.664-.701-.383-.471-.574-1.153-.574-2.047 0-.891.191-1.572.574-2.042.383-.47.938-.706 1.664-.706Zm6.609.795v-2.706h.86V335h-.86v-.659a1.5 1.5 0 0 1-.574.594 1.643 1.643 0 0 1-.823.201c-.632 0-1.13-.245-1.495-.734-.361-.492-.542-1.17-.542-2.033 0-.85.182-1.517.547-2 .364-.486.861-.729 1.49-.729.315 0 .592.069.832.206.24.134.428.33.565.589Zm-2.527 1.953c0 .667.105 1.17.317 1.509.212.34.525.51.94.51.414 0 .728-.172.943-.514.218-.343.327-.845.327-1.505 0-.664-.109-1.165-.327-1.505-.215-.342-.529-.514-.943-.514-.415 0-.728.17-.94.51-.212.339-.317.842-.317 1.509Zm9.231-.435v.421h-3.724v.028c-.025.713.11 1.226.406 1.537.299.312.72.468 1.262.468.274 0 .56-.044.86-.131.299-.087.618-.22.957-.397v.855a5.661 5.661 0 0 1-.948.299 4 4 0 0 1-.879.103c-.813 0-1.448-.243-1.906-.729-.458-.49-.687-1.162-.687-2.019 0-.835.224-1.502.673-2 .448-.498 1.047-.748 1.794-.748.667 0 1.192.226 1.575.678.386.452.592.997.617 1.635Zm-.86-.252a1.644 1.644 0 0 0-.397-.934c-.225-.265-.548-.398-.972-.398-.414 0-.756.137-1.023.412-.268.274-.415.582-.44.925l2.832-.005Zm2.923 1.411h1.645V335h-1.645v-1.888Zm8.619 1.622a2.934 2.934 0 0 1-1.463.402c-.809 0-1.443-.243-1.901-.729-.455-.486-.683-1.159-.683-2.019 0-.86.228-1.533.683-2.019.458-.486 1.092-.729 1.901-.729.253 0 .499.033.739.099.24.065.481.166.724.303v.902a2.307 2.307 0 0 0-.687-.439 2.093 2.093 0 0 0-.776-.136c-.538 0-.953.175-1.242.524-.29.349-.435.847-.435 1.495 0 .645.145 1.143.435 1.495.292.349.707.524 1.242.524.299 0 .567-.046.804-.136.237-.093.456-.237.659-.43v.893Zm3.4-4.365c-.436 0-.767.17-.991.51-.224.339-.336.842-.336 1.509 0 .663.112 1.167.336 1.509.224.34.555.51.991.51.439 0 .771-.17.995-.51.224-.342.336-.846.336-1.509 0-.667-.112-1.17-.336-1.509-.224-.34-.556-.51-.995-.51Zm0-.729c.725 0 1.28.236 1.663.706.386.47.58 1.151.58 2.042 0 .894-.192 1.576-.575 2.047-.383.467-.939.701-1.668.701-.726 0-1.281-.234-1.664-.701-.383-.471-.575-1.153-.575-2.047 0-.891.192-1.572.575-2.042.383-.47.938-.706 1.664-.706Zm5.759.659c.106-.224.24-.389.402-.495.165-.109.363-.164.593-.164.421 0 .717.164.888.491.174.324.262.936.262 1.836V335h-.785v-2.995c0-.738-.042-1.196-.126-1.374-.081-.181-.231-.271-.449-.271-.249 0-.421.097-.514.29-.09.19-.136.641-.136 1.355V335h-.785v-2.995c0-.748-.045-1.209-.135-1.383-.087-.175-.246-.262-.477-.262-.227 0-.386.097-.476.29-.087.19-.131.641-.131 1.355V335h-.78v-5.233h.78v.448c.103-.187.23-.328.383-.425.156-.1.332-.15.528-.15.237 0 .433.055.589.164.159.109.282.274.369.495Zm6.474-2.275h.888l-3.673 7.864h-.892l3.677-7.864Zm3.077 6.317v2.65h-.864v-7.224h.864v.668c.144-.259.334-.455.571-.589.239-.137.515-.206.827-.206.632 0 1.127.245 1.486.734.361.489.542 1.167.542 2.033 0 .85-.181 1.518-.542 2.004-.362.483-.857.725-1.486.725-.318 0-.597-.067-.837-.201a1.457 1.457 0 0 1-.561-.594Zm2.524-1.953c0-.667-.106-1.17-.318-1.509-.209-.34-.52-.51-.935-.51-.417 0-.733.172-.948.514-.215.34-.323.841-.323 1.505 0 .66.108 1.162.323 1.505.215.342.531.514.948.514.415 0 .726-.17.935-.51.212-.339.318-.842.318-1.509Zm4.082-2.019c-.437 0-.767.17-.991.51-.224.339-.336.842-.336 1.509 0 .663.112 1.167.336 1.509.224.34.554.51.991.51.439 0 .771-.17.995-.51.224-.342.336-.846.336-1.509 0-.667-.112-1.17-.336-1.509-.224-.34-.556-.51-.995-.51Zm0-.729c.725 0 1.28.236 1.663.706.386.47.579 1.151.579 2.042 0 .894-.191 1.576-.574 2.047-.383.467-.94.701-1.668.701-.726 0-1.281-.234-1.664-.701-.383-.471-.575-1.153-.575-2.047 0-.891.192-1.572.575-2.042.383-.47.938-.706 1.664-.706Zm7.147.309v.841a3.26 3.26 0 0 0-.743-.322 2.73 2.73 0 0 0-.762-.108c-.389 0-.681.064-.874.192-.19.124-.285.316-.285.574 0 .234.072.408.215.524.144.115.5.227 1.07.336l.346.066c.427.081.749.243.967.486.221.242.332.559.332.948 0 .517-.184.922-.551 1.215-.368.29-.879.435-1.533.435-.259 0-.53-.029-.813-.085a7.209 7.209 0 0 1-.921-.243v-.887a5.1 5.1 0 0 0 .921.373c.293.081.57.122.832.122.38 0 .674-.076.883-.229a.764.764 0 0 0 .313-.65c0-.398-.382-.674-1.145-.827l-.037-.009-.323-.065c-.495-.097-.856-.259-1.084-.486-.227-.231-.341-.544-.341-.94 0-.501.17-.887.509-1.158.34-.274.824-.412 1.454-.412.28 0 .549.027.808.08.259.05.512.126.762.229Zm3.801-1.668v1.486h1.953v.668h-1.953v2.841c0 .386.073.656.22.808.146.153.402.229.766.229h.967V335h-1.051c-.645 0-1.1-.129-1.364-.388-.265-.258-.398-.704-.398-1.336v-2.841h-1.397v-.668h1.397v-1.486h.86Zm7.157 1.668v.841a3.26 3.26 0 0 0-.743-.322 2.735 2.735 0 0 0-.762-.108c-.389 0-.681.064-.874.192-.19.124-.285.316-.285.574 0 .234.072.408.215.524.143.115.5.227 1.07.336l.346.066c.427.081.749.243.967.486.221.242.332.559.332.948 0 .517-.184.922-.551 1.215-.368.29-.879.435-1.533.435-.259 0-.53-.029-.813-.085a7.166 7.166 0 0 1-.921-.243v-.887a5.1 5.1 0 0 0 .921.373c.293.081.57.122.832.122.38 0 .674-.076.883-.229a.764.764 0 0 0 .313-.65c0-.398-.382-.674-1.145-.827l-.037-.009-.323-.065c-.495-.097-.856-.259-1.084-.486-.227-.231-.341-.544-.341-.94 0-.501.17-.887.509-1.158.34-.274.824-.412 1.454-.412.28 0 .549.027.808.08.259.05.512.126.762.229Zm5.348-2.178v2.86h-1.047v-2.86h1.047Zm-2.491 0v2.86h-1.046v-2.86h1.046Z" fill="#14A38B"/></g><path d="M484.715 345.729v.715h-.977c-.308 0-.523.064-.645.192-.118.124-.177.347-.177.668v.463h1.799v.668h-1.799V353h-.86v-4.565h-1.397v-.668h1.397v-.365c0-.573.131-.995.393-1.266.264-.271.676-.407 1.233-.407h1.033Zm1.423 5.29v-3.243h.86v3.243c0 .47.082.816.247 1.037.169.221.427.332.776.332.405 0 .715-.142.93-.425.215-.287.322-.697.322-1.229v-2.958h.865V353h-.865v-.785a1.616 1.616 0 0 1-.626.687 1.763 1.763 0 0 1-.92.234c-.536 0-.935-.175-1.197-.524-.261-.352-.392-.883-.392-1.593Zm9.479-1.262V353h-.865v-3.243c0-.47-.082-.816-.247-1.037-.165-.221-.424-.332-.776-.332-.402 0-.712.143-.93.43-.215.283-.322.692-.322 1.224V353h-.86v-5.233h.86v.785a1.6 1.6 0 0 1 .621-.678c.262-.156.572-.234.93-.234.533 0 .93.176 1.192.528.264.349.397.879.397 1.589Zm5.525 2.977c-.23.134-.468.233-.714.299a2.767 2.767 0 0 1-.748.103c-.81 0-1.444-.243-1.902-.729-.455-.486-.682-1.159-.682-2.019 0-.86.227-1.533.682-2.019.458-.486 1.092-.729 1.902-.729.252 0 .498.033.738.099.24.065.481.166.724.303v.902a2.316 2.316 0 0 0-.686-.439 2.097 2.097 0 0 0-.776-.136c-.539 0-.953.175-1.243.524-.29.349-.435.847-.435 1.495 0 .645.145 1.143.435 1.495.293.349.707.524 1.243.524.299 0 .567-.046.804-.136.236-.093.456-.237.658-.43v.893Zm3.391-6.453v1.486h1.953v.668h-1.953v2.841c0 .386.073.656.219.808.147.153.402.229.767.229h.967V353h-1.051c-.645 0-1.1-.129-1.365-.388-.265-.258-.397-.704-.397-1.336v-2.841h-1.397v-.668h1.397v-1.486h.86Zm4.086 1.504h2.201v4.547h1.706V353h-4.271v-.668h1.705v-3.879h-1.341v-.668Zm1.341-2.032h.86v1.084h-.86v-1.084Zm5.54 2.616c-.436 0-.766.17-.991.51-.224.339-.336.842-.336 1.509 0 .663.112 1.167.336 1.509.225.34.555.51.991.51.439 0 .771-.17.995-.51.225-.342.337-.846.337-1.509 0-.667-.112-1.17-.337-1.509-.224-.34-.556-.51-.995-.51Zm0-.729c.726 0 1.28.236 1.664.706.386.47.579 1.151.579 2.042 0 .894-.192 1.576-.575 2.047-.383.467-.939.701-1.668.701-.726 0-1.28-.234-1.663-.701-.384-.471-.575-1.153-.575-2.047 0-.891.191-1.572.575-2.042.383-.47.937-.706 1.663-.706Zm7.512 2.117V353h-.865v-3.243c0-.47-.082-.816-.247-1.037-.166-.221-.424-.332-.776-.332-.402 0-.712.143-.93.43-.215.283-.322.692-.322 1.224V353h-.86v-5.233h.86v.785a1.6 1.6 0 0 1 .621-.678c.262-.156.572-.234.93-.234.533 0 .93.176 1.191.528.265.349.398.879.398 1.589Z" fill="#00A5CE"/><path d="M451.832 370.734a2.934 2.934 0 0 1-1.463.402c-.81 0-1.444-.243-1.902-.729-.455-.486-.682-1.159-.682-2.019 0-.86.227-1.533.682-2.019.458-.486 1.092-.729 1.902-.729.252 0 .498.033.738.099.24.065.482.166.725.303v.902a2.332 2.332 0 0 0-.687-.439 2.097 2.097 0 0 0-.776-.136c-.539 0-.953.175-1.243.524-.29.349-.434.847-.434 1.495 0 .645.144 1.143.434 1.495.293.349.707.524 1.243.524.299 0 .567-.046.804-.136.236-.093.456-.237.659-.43v.893Zm3.399-4.365c-.436 0-.766.17-.99.51-.225.339-.337.842-.337 1.509 0 .663.112 1.167.337 1.509.224.34.554.51.99.51.439 0 .771-.17.996-.51.224-.342.336-.846.336-1.509 0-.667-.112-1.17-.336-1.509-.225-.34-.557-.51-.996-.51Zm0-.729c.726 0 1.281.236 1.664.706.386.47.579 1.151.579 2.042 0 .894-.191 1.576-.575 2.047-.383.467-.939.701-1.668.701-.726 0-1.28-.234-1.663-.701-.383-.471-.575-1.153-.575-2.047 0-.891.192-1.572.575-2.042.383-.47.937-.706 1.663-.706Zm7.512 2.117V371h-.865v-3.243c0-.47-.082-.816-.247-1.037-.165-.221-.424-.332-.776-.332-.402 0-.712.143-.93.43-.215.283-.322.692-.322 1.224V371h-.86v-5.233h.86v.785c.152-.299.36-.525.621-.678.262-.156.572-.234.93-.234.533 0 .93.176 1.192.528.264.349.397.879.397 1.589Zm5.114-1.808v.841a3.242 3.242 0 0 0-.743-.322 2.728 2.728 0 0 0-.761-.108c-.39 0-.681.064-.874.192-.19.124-.285.316-.285.574 0 .234.072.408.215.524.143.115.5.227 1.07.336l.346.066c.426.081.749.243.967.486.221.242.332.559.332.948 0 .517-.184.922-.552 1.215-.367.29-.878.435-1.532.435-.259 0-.53-.029-.813-.085a7.124 7.124 0 0 1-.921-.243v-.887a5.1 5.1 0 0 0 .921.373c.292.081.57.122.831.122.38 0 .675-.076.883-.229a.765.765 0 0 0 .314-.65c0-.398-.382-.674-1.145-.827l-.038-.009-.322-.065c-.495-.097-.857-.259-1.084-.486-.227-.231-.341-.544-.341-.94 0-.501.17-.887.509-1.158.34-.274.824-.412 1.453-.412.281 0 .55.027.809.08.258.05.512.126.761.229Zm3.811.42c-.436 0-.766.17-.99.51-.225.339-.337.842-.337 1.509 0 .663.112 1.167.337 1.509.224.34.554.51.99.51.439 0 .771-.17.995-.51.225-.342.337-.846.337-1.509 0-.667-.112-1.17-.337-1.509-.224-.34-.556-.51-.995-.51Zm0-.729c.726 0 1.28.236 1.664.706.386.47.579 1.151.579 2.042 0 .894-.192 1.576-.575 2.047-.383.467-.939.701-1.668.701-.726 0-1.28-.234-1.663-.701-.383-.471-.575-1.153-.575-2.047 0-.891.192-1.572.575-2.042.383-.47.937-.706 1.663-.706Zm5.96 3.468c0 .386.071.677.211.873.143.197.353.295.631.295h1.004V371h-1.089c-.514 0-.912-.164-1.196-.491-.28-.33-.42-.797-.42-1.401v-4.734h-1.379v-.673h2.238v5.407Zm7.353-1.155v.421h-3.724v.028c-.025.713.111 1.226.407 1.537.299.312.719.468 1.261.468.274 0 .561-.044.86-.131.299-.087.618-.22.958-.397v.855a5.642 5.642 0 0 1-.949.299 3.998 3.998 0 0 1-.878.103c-.813 0-1.449-.243-1.907-.729-.458-.49-.686-1.162-.686-2.019 0-.835.224-1.502.672-2 .449-.498 1.047-.748 1.795-.748.666 0 1.191.226 1.574.678.387.452.592.997.617 1.635Zm-.86-.252a1.638 1.638 0 0 0-.397-.934c-.224-.265-.548-.398-.972-.398-.414 0-.755.137-1.023.412-.268.274-.414.582-.439.925l2.831-.005Zm2.923 1.411h1.645V371h-1.645v-1.888Zm7.021-.004c0 .386.07.677.211.873.143.197.353.295.63.295h1.005V371h-1.089c-.514 0-.912-.164-1.196-.491-.28-.33-.42-.797-.42-1.401v-4.734h-1.379v-.673h2.238v5.407Zm4.998-2.739c-.436 0-.766.17-.991.51-.224.339-.336.842-.336 1.509 0 .663.112 1.167.336 1.509.225.34.555.51.991.51.439 0 .771-.17.995-.51.225-.342.337-.846.337-1.509 0-.667-.112-1.17-.337-1.509-.224-.34-.556-.51-.995-.51Zm0-.729c.726 0 1.28.236 1.664.706.386.47.579 1.151.579 2.042 0 .894-.192 1.576-.575 2.047-.383.467-.939.701-1.668.701-.726 0-1.28-.234-1.663-.701-.384-.471-.575-1.153-.575-2.047 0-.891.191-1.572.575-2.042.383-.47.937-.706 1.663-.706Zm6.61 2.701c0-.645-.106-1.134-.318-1.467a1.014 1.014 0 0 0-.916-.505c-.42 0-.741.169-.962.505-.221.333-.332.822-.332 1.467 0 .645.111 1.137.332 1.477.224.336.548.504.972.504.395 0 .697-.169.906-.509.212-.339.318-.83.318-1.472Zm.86 2.323c0 .785-.186 1.38-.556 1.785-.371.404-.916.607-1.636.607-.237 0-.484-.022-.743-.065a5.48 5.48 0 0 1-.775-.192v-.85c.305.143.582.249.831.317.249.069.478.103.687.103.464 0 .802-.126 1.014-.378.212-.253.318-.653.318-1.201v-.622a1.456 1.456 0 0 1-.561.654c-.237.144-.525.215-.864.215a1.733 1.733 0 0 1-1.463-.733c-.364-.489-.547-1.143-.547-1.963 0-.822.183-1.478.547-1.967a1.734 1.734 0 0 1 1.463-.734c.336 0 .621.067.855.201.233.134.423.341.57.622v-.678h.86v4.879Z" fill="#E05794"/><path d="M380 303a8 8 0 0 1 8-8h19v108h-19a8 8 0 0 1-8-8v-92Z" fill="#B3BAC5" opacity=".1"/><path d="M391.81 315.78h1.467v-5.271l-1.757.846v-.907l1.748-.831h.944v6.163h1.448v.79h-3.85v-.79Zm.481 17.995h3.206v.795h-4.238v-.795c.582-.613 1.091-1.155 1.528-1.626.436-.47.736-.802.901-.995.312-.38.522-.687.631-.921.109-.236.164-.478.164-.724 0-.389-.115-.695-.346-.916-.227-.221-.54-.331-.939-.331-.284 0-.581.051-.893.154a5.014 5.014 0 0 0-.99.467v-.953c.321-.153.635-.268.944-.346.311-.078.618-.117.92-.117.682 0 1.231.182 1.645.547.417.361.626.836.626 1.425a2.1 2.1 0 0 1-.21.897c-.137.299-.362.629-.673.991a32.11 32.11 0 0 1-.762.841c-.33.358-.835.894-1.514 1.607Zm1.883 15.061c.458.122.809.338 1.052.65.243.308.364.694.364 1.159 0 .641-.216 1.146-.649 1.513-.43.365-1.027.547-1.79.547-.321 0-.648-.029-.981-.089a6.156 6.156 0 0 1-.981-.257v-.939c.317.165.63.288.939.369.308.081.615.122.92.122.517 0 .915-.117 1.192-.351.277-.233.416-.57.416-1.009 0-.405-.139-.726-.416-.963-.277-.239-.653-.359-1.126-.359h-.72v-.776h.72c.433 0 .771-.095 1.014-.285.243-.19.364-.455.364-.794 0-.359-.114-.633-.341-.823-.224-.193-.545-.289-.963-.289-.277 0-.563.031-.859.093a6.132 6.132 0 0 0-.93.28v-.869c.377-.099.712-.174 1.004-.224.296-.05.558-.075.785-.075.68 0 1.222.172 1.627.514.408.34.612.791.612 1.355 0 .383-.108.703-.323.958-.212.256-.522.436-.93.542Zm-.191 15.617-2.201 3.687h2.201v-3.687Zm-.154-.86h1.093v4.547h.93v.766h-.93v1.664h-.939v-1.664h-2.958v-.892l2.804-4.421Zm-2.313 17h3.532v.795h-2.673v1.715a2.14 2.14 0 0 1 .402-.108c.137-.025.274-.037.411-.037.723 0 1.296.213 1.72.64.424.427.635 1.004.635 1.733 0 .736-.222 1.315-.668 1.739-.442.423-1.048.635-1.817.635-.371 0-.711-.025-1.019-.075a3.7 3.7 0 0 1-.822-.224v-.958c.286.156.574.273.864.351.29.074.586.112.888.112.52 0 .92-.137 1.201-.411.283-.275.425-.664.425-1.169 0-.498-.146-.886-.439-1.163-.29-.277-.695-.416-1.215-.416-.253 0-.499.03-.738.089a2.86 2.86 0 0 0-.687.257v-3.505Z" fill="#FFF" opacity=".65"/><path d="M609.759 177.99c1.371 11.346 4.977 21.793 15.264 27.828 38.03 22.203 83.209-2.947 75.001-49.348-2.089-11.774-8.128-22.422-19.048-27.319-10.919-4.897-24.578-6.696-36.089-7.119-11.51-.422-21.61 3.268-28.142 12.885-7.936 11.713-8.711 28.819-6.986 43.073Z" fill="#FCEEF4"/><path d="M652.006 168.299a2.097 2.097 0 0 1-4.193 0 5.996 5.996 0 0 1 5.99-5.989 5.996 5.996 0 0 1 5.989 5.989 2.096 2.096 0 1 1-4.192 0 1.8 1.8 0 0 0-1.797-1.796c-.991 0-1.797.806-1.797 1.796Zm1.797-13.177c-7.266 0-13.177 5.912-13.177 13.177a2.096 2.096 0 1 0 4.192 0c0-4.954 4.031-8.984 8.985-8.984s8.984 4.03 8.984 8.984c0 5.628-5.316 5.265-5.39 10.753l-.001.029a3.898 3.898 0 0 1-3.893 3.893 2.096 2.096 0 0 0 0 4.193c4.453 0 8.077-3.619 8.086-8.069.045-2.578 5.391-3.612 5.391-10.799 0-7.265-5.911-13.177-13.177-13.177Zm20.101-3.908-2.118-2.118a.9.9 0 0 0-1.27 0L664 155.612a.899.899 0 0 0 0 1.271l2.118 2.118a.9.9 0 0 0 1.27 0l6.516-6.516a.899.899 0 0 0 0-1.271Zm-25.419 21.184a.899.899 0 0 0-1.271 0l-11.117 11.117a.899.899 0 0 0 0 1.271l2.118 2.117a.897.897 0 0 0 1.27 0l11.117-11.117a.897.897 0 0 0 0-1.27l-2.117-2.118Z" fill="#E05794"/><path d="M98.759 55.99c1.371 11.346 4.977 21.793 15.264 27.828 38.03 22.203 83.209-2.947 75.001-49.348-2.089-11.774-8.128-22.422-19.048-27.32C159.057 2.255 145.398.456 133.887.033c-11.51-.422-21.61 3.268-28.142 12.885-7.936 11.713-8.711 28.819-6.986 43.073Z" fill="#EBF2F1"/><path d="m161.977 55.708 1.065 2.146a1.198 1.198 0 0 1-.54 1.606l-4.902 2.462a2.396 2.396 0 0 1-3.233-1.127l-4.7-10.003h-10.458a2.397 2.397 0 0 1-2.372-2.057c-2.537-17.76-2.391-16.657-2.42-17.11a4.792 4.792 0 0 1 5.02-4.786c2.491.115 4.496 2.164 4.562 4.657a4.792 4.792 0 0 1-4.089 4.87l.35 2.447h9.73c.662 0 1.198.536 1.198 1.197v2.396c0 .662-.536 1.198-1.198 1.198h-9.045l.342 2.396h9.901a2.395 2.395 0 0 1 2.169 1.377l4.306 9.165 2.708-1.374a1.198 1.198 0 0 1 1.606.54Zm-13.832-2.52h-1.834c-.584 4.058-4.083 7.187-8.3 7.187-4.624 0-8.385-3.762-8.385-8.385a8.39 8.39 0 0 1 4.217-7.275l-.711-4.966c-4.857 1.943-8.298 6.697-8.298 12.24 0 7.267 5.911 13.178 13.177 13.178 5.381 0 10.018-3.243 12.062-7.876l-1.928-4.103Z" fill="#388172"/><g><path d="M6.073 410.736c-5.319 9.305-8.413 19.223-3.887 29.678 16.792 38.568 65.687 45.713 85.437 6.158 5.007-10.04 6.341-21.511.689-31.475-5.652-9.965-15.153-19.182-23.773-26.129-8.62-6.946-18.465-9.993-28.894-6.537-12.687 4.22-22.893 16.613-29.572 28.305Z" fill="#E6F6FA"/><path d="M64.724 425.378c-3.752-6.368-10.75-10.623-18.723-10.623-1.895 0-3.734.24-5.487.692L37 410.644a1.597 1.597 0 0 0-2.224-.392l-.873.611a1.596 1.596 0 0 0-.392 2.224l2.87 3.886a21.616 21.616 0 0 0-9.103 8.402l-.003.003a3.194 3.194 0 0 0 0 3.244 21.621 21.621 0 0 0 11.504 9.407l-8.265-11.808c.56-.848 1.19-1.647 1.883-2.389l7.946 11.352h.001l2.704 3.862c1.742.236 3.506.263 5.254.078l-12.644-18.062a18.552 18.552 0 0 1 2.581-1.435L55 443.356a1.597 1.597 0 0 0 2.224.392l.873-.611a1.596 1.596 0 0 0 .393-2.224l-2.87-3.885v-.001a21.584 21.584 0 0 0 9.104-8.405 3.189 3.189 0 0 0 0-3.244Zm-11.933 7.608-1.27-1.813a6.919 6.919 0 0 0 .586-7.432v.002a2.85 2.85 0 1 1-2.85-2.85h.003a6.934 6.934 0 0 0-5.292-.511L42.7 418.57a9.023 9.023 0 0 1 3.302-.621A9.046 9.046 0 0 1 55.05 427a9.018 9.018 0 0 1-2.26 5.986Z" fill="#00A5CE"/></g></g></svg>