<svg width="765" height="609" viewBox="0 0 765 609" xmlns="http://www.w3.org/2000/svg"><g fill="none" fill-rule="evenodd"><path d="m697.623 586.088-.065.026a30.956 30.956 0 0 1 1.309 10.381c-.066 3.994-.783 7.824-4.126 10.45a7.28 7.28 0 0 1-9.987-1.023c-2.706-2.781-2.833-6.73-2.395-10.389a29.655 29.655 0 0 1 2.169-9.002 7.252 7.252 0 0 1 6.365-4.538c2.625-.058 5.806 1.408 6.73 4.095ZM19.291 542.62c2.54.63 5.291 2.892 5.61 5.754l-.068.008a31.52 31.52 0 0 1-.943 10.466c-.911 3.877-2.414 7.425-6.19 9.111-1.667.728-3.572.76-5.322.088a7.705 7.705 0 0 1-4.077-3.699c-2.015-3.419-1.299-7.303-.1-10.757a28.666 28.666 0 0 1 3.998-8.211 6.726 6.726 0 0 1 3.105-2.461 6.916 6.916 0 0 1 3.987-.299Zm670.692-26.825.006.013-.818.863c-4.65 4.96-11.726 2.277-12.022-4.505l-.038-1.202c-.428-12.307 21.349-4.238 12.872 4.831Zm-31.436-46.788a6.724 6.724 0 0 1 2.86 2.919l-.018-.007c2.254 3.771 3.546 7.62 1.787 11.861-1.409 3.486-6.515 5.8-9.715 2.913a11.532 11.532 0 0 1-4.148-6.707 20.618 20.618 0 0 1-.059-5.989 6.468 6.468 0 0 1 5.27-5.715 6.73 6.73 0 0 1 4.023.725ZM34.389 478.29l.003.014-.975.631c-5.552 3.634-11.82-.85-10.661-7.567l.22-1.187c2.21-12.161 21.54 1.457 11.413 8.109Zm696.397-21.959-.08-.013-.115 1.007a4.163 4.163 0 0 1-.224 1.11l-.023.098.017.04c.275.531.513 1.08.713 1.643l.013.04c.03.054.07.132.122.238.495 1.308.717 2.703.653 4.101a6.769 6.769 0 0 1-3.41 5.433 7.62 7.62 0 0 1-6.311.669c-4.763-1.129-6.826-6.899-6.377-11.255.421-3.893 2.402-7.876 6.251-9.333 3.849-1.457 9.546 1.317 8.771 6.222Zm.56 4.74c-.04-.144-.083-.287-.129-.43l-.13-.385c-.227-.417.155.55.259.815Zm-1.031-2.415-.022.094.007.584c.103-.013.07-.376.02-.652l-.005-.026Zm-.063.1.014.11.027-.116-.002-.211-.007-.029c-.05-.199-.091-.235-.032.245Zm.079-.17-.004.02.012.062c.05.26.058.236-.007-.078l-.001-.003Zm-.042-.164.002.117.005.023.013.058.006.036.012-.05-.003-.016-.016-.092-.011-.061-.008-.015Zm.01.02.013.056.019.089.013-.054-.009-.02-.029-.06-.006-.011Zm-.007-.032.005.027.003.005-.008-.032Zm-.053-.074.036.06.014.026v-.031l-.003-.003-.01-.01-.002-.003-.002-.003-.005-.005-.028-.031Zm-.023-.025.023.025-.03-.046c-.167-.247-.322-.35.007.02ZM10.844 423.506c1.37.185 2.668.8 3.716 1.759a7.21 7.21 0 0 1 2.131 3.591l-.016-.012c1.368 4.264 1.795 8.352-.796 12.025-2.094 3.028-7.496 3.948-9.96.298a12.274 12.274 0 0 1-2.568-7.619c.121-2.013.53-3.984 1.213-5.851a6.102 6.102 0 0 1 2.408-3.202 6.057 6.057 0 0 1 3.872-.989Zm76.99 6.589-.075-.034-.324.953a4.09 4.09 0 0 1-.452 1.025l-.044.089.009.043c.151.59.264 1.189.337 1.79l.004.042c.017.06.04.147.067.264.2 1.406.117 2.827-.241 4.173a6.462 6.462 0 0 1-1.651 2.803 6.255 6.255 0 0 1-2.789 1.606 7.262 7.262 0 0 1-3.188.193 7.735 7.735 0 0 1-3.036-1.192c-4.349-2.348-5.112-8.518-3.753-12.651 1.233-3.689 3.987-7.057 8.006-7.471 4.018-.415 8.918 3.784 7.13 8.367Zm-.468 4.771c-.008-.151-.02-.302-.033-.453l-.044-.41c-.13-.466.033.578.077.863Zm-.48-2.625-.042.086-.117.571c.102.013.148-.348.158-.631v-.026Zm.03-.064-.009.017v.051c-.007.26.004.265.008.003l.001-.071Zm-.112.143-.01.112.05-.105.043-.21v-.027c-.006-.207-.038-.254-.083.23Zm.106-.318-.023.116v.086l-.002.037.022-.047.002-.026.003-.09.002-.06-.004-.016Zm.006.024v.15l.023-.048-.003-.023a1.45 1.45 0 0 0-.016-.065l-.004-.014Zm0-.04-.002.033.002.006v-.038Zm-.035-.075.021.065.008.026.007-.027-.009-.014v-.001l-.008-.014v-.001l-.002-.004-.017-.03Zm-.017-.033.016.03-.019-.053c-.108-.284-.236-.425.003.023Zm661.068-22.123-.015-.039c3.513 1.622 8.328 3.226 9.723 7.26a6.269 6.269 0 0 1-.235 5.399 5.753 5.753 0 0 1-4.292 3.195 10.542 10.542 0 0 1-7.252-2.101c-1.294-.993-2.364-2.18-3.585-3.217a6.095 6.095 0 0 1-1.719-7.68 5.954 5.954 0 0 1 7.375-2.817Zm-632.473-21.113-.007-.042c3.045 2.505 7.35 5.334 7.838 9.642.17.936.135 1.89-.102 2.792a6.03 6.03 0 0 1-1.273 2.421 5.35 5.35 0 0 1-2.143 1.619 5.45 5.45 0 0 1-2.679.378c-2.55-.466-4.884-1.874-6.551-3.953-1.038-1.31-1.817-2.75-2.775-4.083a6.503 6.503 0 0 1-1.436-4.037 5.992 5.992 0 0 1 1.412-3.917 5.53 5.53 0 0 1 3.64-1.916c1.422-.151 2.872.239 4.076 1.096Zm530.128-5.009-.015-.039a66.706 66.706 0 0 1-2.438 5.952c-1.042 2.244-1.89 4.863-3.537 6.715-2.51 2.868-6.165 4.053-9.679 2.162a7.579 7.579 0 0 1-3.493-3.974 7.58 7.58 0 0 1-.039-5.291c1.363-4.175 5.135-8.232 7.942-11.608 4.527-5.422 13.865-1.047 11.259 6.083Zm35.115-7.063a6.84 6.84 0 0 1 5.107 5.322l.013-.005a21.55 21.55 0 0 1-.535 11.619 8.038 8.038 0 0 1-13.945 1.84 8.02 8.02 0 0 1-1.543-5.369 21.568 21.568 0 0 1 4.013-10.886 6.742 6.742 0 0 1 6.89-2.521ZM57.84 340.628a7.302 7.302 0 0 1 2.807 2.744 7.27 7.27 0 0 1 .988 3.793l.014-.001c.04 3.993-.994 7.871-2.988 11.211a7.467 7.467 0 0 1-4.481 3.096c-1.833.433-3.786.171-5.505-.738a8.575 8.575 0 0 1-3.86-4.214c-.772-1.811-.895-3.815-.347-5.65 1.142-3.752 3.283-7.067 6.189-9.584a6.27 6.27 0 0 1 3.448-1.423 6.687 6.687 0 0 1 3.735.766Zm689.625 2.679a7.723 7.723 0 0 1 4.684 5.017 7.717 7.717 0 0 1-1.169 6.765 9.088 9.088 0 0 1-4.094 3.583 7.09 7.09 0 0 1-9.09-3.406 8.93 8.93 0 0 1-.746-5.403 7.721 7.721 0 0 1 3.581-5.86 7.73 7.73 0 0 1 6.834-.696Zm-725.258-3.878-.006-.043a62.843 62.843 0 0 1-3.63 5.196c-1.488 1.928-2.868 4.273-4.858 5.656-3.042 2.153-6.833 2.354-9.83-.425a8.174 8.174 0 0 1-2.534-4.817c-.264-1.839.123-3.685 1.092-5.199 2.21-3.737 6.728-6.724 10.165-9.297 5.54-4.127 13.646 2.621 9.601 8.929Zm105.157-16.742a7.903 7.903 0 0 1 3.284 1.361 8.285 8.285 0 0 1 3.458 6.141 7.806 7.806 0 0 1-.547 3.499 7.332 7.332 0 0 1-2.024 2.815 8.455 8.455 0 0 1-4.72 2.433c-1.758.241-3.569-.215-5.067-1.278a7.626 7.626 0 0 1-2.994-4.442c-.421-1.855-.271-3.773.431-5.484a7.396 7.396 0 0 1 1.78-2.989 7.182 7.182 0 0 1 2.93-1.807 7.407 7.407 0 0 1 3.469-.249Zm543.338-21.744a6.821 6.821 0 0 1 3.232 8.191 62 62 0 0 1-3.037 8.021c-1.26 2.872-2.278 6.129-4.318 8.511-6.007 7.013-16.304 1.272-13.973-7.508.811-2.98 2.98-5.684 4.587-8.362a63.818 63.818 0 0 1 4.885-7.036 6.831 6.831 0 0 1 8.624-1.817Zm51.818-4.543c1.408 1.122 2.581 2.91 2.975 4.797l.015.077.136.125a8.143 8.143 0 0 1 2.298 7.699 8.166 8.166 0 0 1-8.613 6.31c-9.054-.639-13.218-13.187-5.747-18.777a7.522 7.522 0 0 1 8.936-.231Zm1.369 3.969c.334.244.601.568.777.941.133.23.221.384.27.462l.02.032-.124-.379c.136.345.185.469.125.38l.246.752c.007.055-.672 3.493-.113 2.496l.051-.097-.055-.023c.553-1.103.66-2.316.455-3.5l-.031-.16-.1-.091a8.147 8.147 0 0 0-1.027-.775l-.016-.01-.02.003c-.151.009-.525-.103-.714-.303l-.031-.036c-.349-.238-.251-.141.287.308Zm-.95-.692c.406.157.797.345 1.169.562l.259.158c.157-.03-.065-.248-1.428-.72Zm-114.382-22.725a5.281 5.281 0 0 1 3.341 3.968l-.034-.046c.285 2.779.305 5.579.062 8.362-.258 5.108-5.931 8.351-10.527 6.615-4.596-1.735-6.728-7.869-3.57-11.88a43.704 43.704 0 0 1 5.598-6.22 5.299 5.299 0 0 1 5.13-.799Zm-547.025-13.98c1.598.089 3.139.753 4.35 1.874a7.351 7.351 0 0 1 2.266 4.253c.253 1.625-.062 3.263-.887 4.624a59.188 59.188 0 0 1-4.649 7.063c-1.832 2.483-3.512 5.408-5.994 7.207-7.307 5.293-16.045-3.04-11.917-11.032 1.421-2.708 4.096-4.787 6.223-6.989a59.511 59.511 0 0 1 6.226-5.612 6.413 6.413 0 0 1 4.382-1.388Zm486.606-14.034a10.761 10.761 0 0 1 5.458 4.687 11.318 11.318 0 0 1 .773 7.647 52.887 52.887 0 0 0-1.291 8.175c-.146 3.063-4.732 4.751-6.51 1.995l.065-.026a51.82 51.82 0 0 0-5.375-6.689 10.461 10.461 0 0 1-2.907-6.549 10.475 10.475 0 0 1 1.988-6.887c1.53-2.227 5.256-3.575 7.799-2.353ZM12.34 247.603a5.389 5.389 0 0 1 2.522.967 5.683 5.683 0 0 1 1.788 2.089c.417.833.622 1.754.595 2.672l-.023-.055a44.476 44.476 0 0 1-1.722 8.2c-1.338 4.929-7.51 6.614-11.582 3.71-4.07-2.905-4.824-9.467-.918-12.562a40.512 40.512 0 0 1 6.735-4.618 5.03 5.03 0 0 1 2.606-.403Zm740.608-7.47a6.865 6.865 0 0 1 4.179 2.387c3.012 3.442 6.745 6.765 7.715 11.403 1.381 6.67-6.915 11.579-12.255 7.612-3.743-2.778-5.201-7.735-7.034-11.852a6.86 6.86 0 0 1-.274-4.804 6.876 6.876 0 0 1 7.669-4.746Zm-592.711-15.154a7.277 7.277 0 0 1 3.507 3.415c2.164 4.136 5.044 8.346 4.994 13.114-.086 6.853-9.09 9.464-13.377 4.208-3.006-3.682-3.357-8.887-4.246-13.373-.32-1.649-.053-3.335.754-4.747a6.37 6.37 0 0 1 3.635-2.935c1.538-.481 3.219-.368 4.733.318Zm505.57-18.594-.04-.035.206.169c.584.457 1.302.854 2.125 1.518a13.513 13.513 0 0 1 3.225 4.095 15.72 15.72 0 0 1 2.754 8.82c-.159 6.391-9.331 8.999-13.065 3.993a15.756 15.756 0 0 1-2.775-8.796 13.366 13.366 0 0 1 .257-4.957c.223-.622.487-1.228.79-1.814.079-.181.14-.32.188-.424l.017-.038-.006.009c-.06.07-.088-.008.069-.66.603-2.478 4.401-3.493 6.255-1.88Zm-64.388 3.257c-4.299 11.42-22.069 4.777-17.761-6.661 4.307-11.438 22.051-4.785 17.761 6.661Zm58.095-.781-.025.055.011-.014c.082-.122.192-.425.014-.041Zm-120.742-17.918a11.192 11.192 0 0 1 3.008 2.632 8.28 8.28 0 0 1-.486 10.714c-2.537 2.683-7.741 3.833-10.749 1.05l.021.052a16.644 16.644 0 0 1-3.686-4.769 8.013 8.013 0 0 1 2.291-9.456 8.291 8.291 0 0 1 9.601-.223Zm203.05-7.173-.06.039a43.898 43.898 0 0 1-1.942 8.852 7.576 7.576 0 0 1-12.516 3.238 7.555 7.555 0 0 1-1.619-8.563 44.482 44.482 0 0 1 4.388-7.953c3.373-5.373 12.796-1.888 11.749 4.387ZM83.495 171.713l-.036-.053c.48.685 1.154 1.29 1.885 2.259a14.454 14.454 0 0 1 2.229 4.827c1.16 2.993 1.43 6.233.777 9.302-1.504 6.177-10.859 6.321-13.384.474-1.162-2.985-1.442-6.218-.803-9.285.135-1.667.574-3.28 1.296-4.756.345-.546.727-1.067 1.142-1.559.114-.156.202-.275.27-.364l.023-.031c-.078.06-.089-.025.2-.618 1.103-2.253 4.962-2.25 6.401-.196Zm79.326-3.868-.066.022a42.63 42.63 0 0 1-3.763 8.153 7.06 7.06 0 0 1-4.747 3.468 7.328 7.328 0 0 1-3.043-.027 7.779 7.779 0 0 1-2.835-1.265 8.109 8.109 0 0 1-2.159-2.292 8.104 8.104 0 0 1-1.127-2.943 7.777 7.777 0 0 1 .092-3.105 7.327 7.327 0 0 1 1.295-2.757 41.817 41.817 0 0 1 5.934-6.63c4.405-4.373 12.768 1.511 10.419 7.376Zm-85.89 4.634-.037.048.015-.011c.104-.097.274-.363.022-.037Zm505.993-33.797c.244 1.803.307 3.626.189 5.442a36.28 36.28 0 0 0-.466 3.971c.01 3.002-4.126 4.798-6.377 2.905l-.034-.047a38.206 38.206 0 0 0-3.369-2.174 26.597 26.597 0 0 1-4.032-3.702c-3.576-3.805-1.548-10.302 2.891-12.322 4.439-2.021 10.576.761 11.198 5.927ZM37.481 128.451a6.867 6.867 0 0 1 3.073 3.336 6.686 6.686 0 0 1 .317 4.482c-1.113 4.983-3.659 9.451-7.317 12.842-3.426 3.262-9.478-.189-9.183-4.914.33-5.122 2.124-9.965 5.161-13.933a5.983 5.983 0 0 1 3.584-2.416 6.321 6.321 0 0 1 4.365.603Zm626.314 13.102c-3.691 9.722-18.77 4.063-15.111-5.662 3.659-9.724 18.765-4.075 15.111 5.662Zm73.649-49.038c3.841 1.462 5.137 5.4 4.158 9.138-1.209 4.565-4.627 8.603-7.459 12.259a4.634 4.634 0 0 1-7.572-.303 4.633 4.633 0 0 1-.728-2.813c.272-4.616.342-9.935 2.454-14.12 1.731-3.432 5.305-5.623 9.147-4.161Zm-557.517-14.54c3.399 2.437 3.812 6.63 2.071 10.029-2.141 4.148-6.303 7.201-9.817 10.035a4.337 4.337 0 0 1-2.671.971 4.673 4.673 0 0 1-2.782-.876 4.972 4.972 0 0 1-1.797-2.378 4.804 4.804 0 0 1-.104-2.943c1.246-4.444 2.446-9.628 5.378-13.167 2.403-2.904 6.323-4.11 9.722-1.671Zm437.175-20.597a7.467 7.467 0 0 1 4.123 3.813c1.497 3.303 2.964 7.023 2.819 10.703a3.805 3.805 0 0 1-4.124 3.43 24.362 24.362 0 0 1-9.718-5.189c-2.981-2.372-4.193-7.05-1.617-10.245a7.699 7.699 0 0 1 2.9-2.375 7.478 7.478 0 0 1 5.617-.137ZM33.769 29.082a11.518 11.518 0 0 1 4.247 5.986c.592 2.614.282 5.317-.876 7.642a51.501 51.501 0 0 0-2.968 7.617c-.789 2.942-5.546 3.387-6.67.241l.068-.008a55.461 55.461 0 0 0-3.743-7.912c-1.265-2.171-1.762-4.696-1.404-7.131.359-2.435 1.55-4.624 3.365-6.182 1.939-1.767 5.799-2.106 7.981-.253Zm37.525-13.637a7.993 7.993 0 0 1 3.155 4.791c.74 3.609 1.361 7.617.443 11.163a3.574 3.574 0 0 1-1.847 2.143 3.643 3.643 0 0 1-2.846.12 25.854 25.854 0 0 1-8.244-7.593c-2.363-3.09-2.537-7.964.618-10.403a7.113 7.113 0 0 1 3.292-1.556c1.879-.288 3.826.19 5.429 1.335Zm635.438-14.34a7.972 7.972 0 0 1 2.846 2.17c3.656 4.961 2.867 12.006.756 17.453-2.11 5.446-10.691 6.198-13.197.452-2.333-5.348-3.572-12.42-.106-17.559a7.976 7.976 0 0 1 6.191-3.222 7.979 7.979 0 0 1 3.51.706ZM619.116 473.762l.444.441c5.789 5.715-2.042 15.009-8.944 12.424-7.965-2.993-5.658-13.131 1.446-15.225l.586-.231a6.667 6.667 0 0 1 6.554 2.467l.343.526c3.964 6.239-.979 15.417-8.944 12.424-6.866-2.569-6.754-14.728 1.446-15.225a7.959 7.959 0 0 1 7.053 2.36l.016.039ZM118.116 281.661c-.9 1.092.565-2.268.57-2.326l-.117-1.201c.098.632.089.576-.135-.156a2.668 2.668 0 0 0-.549-1.122c-.424-.579-.498-.699-.212-.376.271.583 1.755 1.01-.557-.549a8.747 8.747 0 0 1 3.302 4.803c.519 1.929.348 3.954-.48 5.704a7.626 7.626 0 0 1-4.03 3.824c-1.771.717-3.764.746-5.614.081-8.591-2.995-9.938-16.334-1.549-19.835a7.176 7.176 0 0 1 4.609-.389 7.814 7.814 0 0 1 4.054 2.504c1.865 2.44 2.706 6.516.661 9.001l.047.037Z" fill="#00A5CE" fill-rule="nonzero"/></g></svg>