<svg width="599" height="231" xmlns="http://www.w3.org/2000/svg"><path d="M362.251 16.18a25.904 25.904 0 0 0 13.463-6.635c3.584-3.266.807-9.569-3.895-9.545a26.104 26.104 0 0 0-14.316 4.397 6.444 6.444 0 0 0-2.625 7.91 6.434 6.434 0 0 0 7.373 3.873Zm-171.626 57.7c10.598-6.048 1.234-22.546-9.381-16.488-10.615 6.059-1.245 22.53 9.381 16.488Zm80.255-2.184a44.26 44.26 0 0 1-8.268 1.259l.052.026a5.282 5.282 0 0 1-5.136-5.266 5.289 5.289 0 0 1 .67-2.599 43.611 43.611 0 0 1 5.258-6.509c3.462-3.751 9.856-2.614 12.295 1.65 2.439 4.265.131 10.378-4.871 11.44v-.001Zm98.485 18.334a66.18 66.18 0 0 0 5.492-3.347c.489-.33 1.002-.652 1.519-.978 1.652-1.039 3.359-2.113 4.554-3.574 2.436-2.931 3.03-6.728.607-9.9a7.573 7.573 0 0 0-9.705-2.025c-3.384 1.737-6.395 5.242-9.019 8.296l-.001.002c-.406.472-.802.934-1.19 1.376-4.64 5.327 1.155 13.857 7.784 10.159l-.041-.01v.001Zm-61.61 35.491a61.863 61.863 0 0 1-7.441 4.264 6.817 6.817 0 0 1-8.599-1.898 6.834 6.834 0 0 1 .433-8.803 63.753 63.753 0 0 1 6.178-5.933c.624-.526 1.244-1.089 1.87-1.657l.001-.001c1.769-1.606 3.583-3.253 5.662-4.192 8.302-3.687 15.596 5.575 9.619 12.613-1.574 1.853-3.765 3.183-5.899 4.478a81.65 81.65 0 0 0-1.824 1.129Zm77.665 2.162a21.561 21.561 0 0 1-11.389 2.362l.003-.014a6.854 6.854 0 0 1-6.062-4.203 6.736 6.736 0 0 1 1.402-7.202 21.58 21.58 0 0 1 10.117-5.681 8.02 8.02 0 0 1 9.305 4.811 8.039 8.039 0 0 1-3.376 9.927ZM198.441 138.85h.001c.322.346.677.727 1.121 1.127a13.486 13.486 0 0 0 4.552 2.538 15.727 15.727 0 0 0 9.144 1.328c6.285-1.166 7.414-10.635 1.881-13.532a15.766 15.766 0 0 0-9.124-1.352 13.35 13.35 0 0 0-4.854 1.037c-.578.318-1.135.674-1.667 1.065-.185.119-.321.208-.42.273.068-.074-.006-.095-.636.168-2.352.987-2.755 4.896-.869 6.473l-.049-.039c.313.261.601.571.92.914Zm51.235 84.907c-.674-.445-1.344-.887-2.014-1.307a6.873 6.873 0 0 1 5.247-12.56c.804.214 1.635.411 2.476.611h.001l.001.001h.001c3.71.881 7.617 1.808 10.335 4.464 4.76 4.647 1.222 13.613-5.583 13.302-3.914-.187-7.239-2.382-10.464-4.511Zm53.434-40.479a8.17 8.17 0 0 1-2.42-1.321c-1.95-.072-3.936-.955-5.284-2.185a7.514 7.514 0 0 1-1.182-8.86c4.341-8.259 17.389-6.127 19.449 2.712a8.17 8.17 0 0 1-4.873 9.5 8.143 8.143 0 0 1-5.69.154Zm-3.465-2.311c-.001.161-.251-.018-.937-1.298.271.465.585.899.937 1.298Zm-103.948 32.26a43.92 43.92 0 0 1-8.435 3.315l-.028.065c-6.031 2.024-10.96-6.731-6.186-10.91a44.53 44.53 0 0 1 7.16-5.588 7.558 7.558 0 0 1 10.747 2.553 7.57 7.57 0 0 1-3.258 10.565Zm-62.464-67.007c9.017-5.178 1.049-19.175-7.976-14.028-9.025 5.148-1.063 19.173 7.976 14.028Zm337.84-54.618c-3.91 2.406-7.915 1.738-11.994.107l.01.017a6.731 6.731 0 0 1-4.685-6.222 6.47 6.47 0 0 1 4.812-6.105c1.92-.582 3.916-.88 5.923-.887a11.525 11.525 0 0 1 7.277 3.038c3.356 2.703 1.878 8.11-1.343 10.052Zm-16.461 71.017.976-.272a4.21 4.21 0 0 0 1.062-.396l.092-.038.043.01c.583.192 1.178.344 1.781.453.058.02.14.047.249.081 1.37.282 2.783.282 4.153-.002a6.757 6.757 0 0 0 4.826-4.225 7.597 7.597 0 0 0-.335-6.337c-1.866-4.525-7.889-5.653-12.12-4.522-3.778 1.031-7.398 3.615-8.229 7.646-.832 4.03 2.807 9.219 7.528 7.68l-.026-.078Zm-93.869 31.388a9.09 9.09 0 0 1-2.892 4.609 7.726 7.726 0 0 1-6.496 2.221 7.727 7.727 0 0 1-5.693-3.834 7.732 7.732 0 0 1 4.83-11.319 8.933 8.933 0 0 1 5.453-.116 7.085 7.085 0 0 1 4.068 3.269 7.1 7.1 0 0 1 .73 5.17Zm216.808-84.602c3.48.479 7.016.362 10.458-.346 3.933-.695 7.602-2.007 9.667-5.723a7.278 7.278 0 0 0-2.586-9.7c-3.173-2.234-7.092-1.736-10.637-.726a29.7 29.7 0 0 0-8.547 3.562 7.259 7.259 0 0 0-3.477 7.002c.357 2.601 2.308 5.511 5.107 5.999l.015-.068ZM457.163 35.581c-3.638.521-6.848 3.133-6.419 7.493v.092l.001.096-.096.436a6.673 6.673 0 0 0 3.47 6.083l.574.255.069.03c3.502 2.548 7.394 1.11 9.703-1.759 1.991-1.916 2.916-4.772 1.648-7.906a7.02 7.02 0 0 0-.522-1.148c-2.061-3.617-5.421-4.536-8.428-3.672ZM19.629 198.139c-5.649-1.46-12.828-1.567-17.356 2.666a7.987 7.987 0 0 0-.953 9.976 7.962 7.962 0 0 0 2.591 2.468c5.477 2.828 12.309.937 17.354-2.007s4.434-11.535-1.636-13.103Zm91.619 14.51c.468-.1.936-.202 1.404-.304a4.632 4.632 0 0 1 4.387 7.704c-.313.334-.629.674-.949 1.018-2.906 3.129-6.09 6.557-9.979 8.282-3.537 1.556-7.63.897-9.68-2.665-2.05-3.562-.45-7.438 2.666-9.689 3.411-2.465 7.984-3.449 12.151-4.346Zm-50.34-99.304a24.36 24.36 0 0 0-6.656-8.777c-2.813-2.57-7.623-3.029-10.372.02a7.69 7.69 0 0 0-1.888 3.239 7.468 7.468 0 0 0 5.167 9.037c3.498.957 7.403 1.818 11.014 1.095a3.806 3.806 0 0 0 2.735-4.614Zm65.111-58.054a38.346 38.346 0 0 0 2.678 2.984l.052.026c2.224 1.924 1.104 6.292-1.862 6.756-1.302.29-2.587.653-3.849 1.087a27.326 27.326 0 0 1-5.403.671c-5.199.201-8.914-5.42-7.62-10.122 1.295-4.703 7.39-7.73 11.712-4.8a26.694 26.694 0 0 1 4.292 3.398Zm116.96-45.259a51.665 51.665 0 0 1-7.453-4.252 10.464 10.464 0 0 0-13.413 1.213c-1.957 1.862-2.701 5.754-1.093 8.072a10.764 10.764 0 0 0 5.49 4.651c2.531.752 5.245.595 7.673-.444a52.891 52.891 0 0 1 7.868-2.565c3.003-.628 3.945-5.422.943-6.743l-.015.068Zm-73.025-8.333a16.667 16.667 0 0 1 5.292 2.886l-.054-.012c3.222 2.531 2.908 7.851.658 10.78a8.272 8.272 0 0 1-10.502 2.17 11.18 11.18 0 0 1-3.074-2.554 8.29 8.29 0 0 1-1.295-9.516 8.006 8.006 0 0 1 8.975-3.754Zm336.977 111.326.724-.944c4.163-5.374.398-11.938-6.346-11.16l-1.193.152c-12.221 1.52-.816 21.75 6.801 11.949l.014.003Zm-94.764 75.255c-.291-.451-.575-.892-.856-1.311l.041.009a5.951 5.951 0 0 1 1.617-7.727 6.095 6.095 0 0 1 7.855.485c.51.437 1.042.843 1.575 1.251.738.564 1.479 1.13 2.167 1.781a10.542 10.542 0 0 1 3.219 6.83 5.759 5.759 0 0 1-2.477 4.743 6.268 6.268 0 0 1-5.294 1.083c-3.656-.644-5.905-4.132-7.847-7.144Z" fill="#fff" fill-rule="evenodd"/></svg>