<svg width="184" height="555" xmlns="http://www.w3.org/2000/svg"><path d="M25.594 533.948a29.5 29.5 0 0 1-1.46 10.218c-1.129 3.815-2.86 7.338-6.883 9.167-1.775.792-3.767.919-5.565.354-1.798-.565-3.263-1.779-4.092-3.389-1.95-3.222-1.027-7.032.383-10.449a30.44 30.44 0 0 1 4.551-8.181 7.952 7.952 0 0 1 3.356-2.549 7.928 7.928 0 0 1 4.18-.492c2.626.484 5.399 2.544 5.602 5.31l-.072.011ZM15.85 426.204c2.882-3.706 2.622-7.666 1.384-11.748l.016.011a6.133 6.133 0 0 0-2.07-3.39c-1.053-.88-2.386-1.413-3.812-1.525a7.184 7.184 0 0 0-4.102 1.158c-1.221.794-2.158 1.93-2.669 3.239a20.135 20.135 0 0 0-1.538 5.759c-.16 2.659.67 5.24 2.342 7.289 2.415 3.429 8.116 2.262 10.449-.793Zm6.76-101.459a69.416 69.416 0 0 1-3.975 5.165c-.386.459-.767.94-1.152 1.426v.001c-1.23 1.552-2.499 3.156-4.109 4.242-3.233 2.218-7.153 2.601-10.122.086a6.84 6.84 0 0 1-2.4-4.493c-.19-1.75.29-3.54 1.357-5.041 2.118-3.199 5.995-5.946 9.372-8.34.524-.371 1.035-.733 1.526-1.087 5.897-4.237 13.96 1.828 9.508 8.081l-.005-.04Zm35.986 18.902c2.223-3.333 3.472-7.138 3.61-10.999l-.014.002a6.229 6.229 0 0 0-.857-3.621 6.416 6.416 0 0 0-2.795-2.514 7.058 7.058 0 0 0-3.849-.552 7.466 7.466 0 0 0-3.65 1.551c-3.135 2.582-5.509 5.897-6.865 9.586-.653 1.803-.615 3.737.107 5.449.721 1.713 2.079 3.091 3.825 3.884 1.746.793 3.765.948 5.689.437a8.831 8.831 0 0 0 4.799-3.223Zm4.084-77.563a64.578 64.578 0 0 0 5.115-7.019c.913-1.349 1.311-2.939 1.122-4.487a6.16 6.16 0 0 0-2.152-3.972c-1.201-1.017-2.763-1.577-4.41-1.582a7.528 7.528 0 0 0-4.587 1.554 69.247 69.247 0 0 0-6.68 5.704c-.6.581-1.238 1.156-1.882 1.736-1.819 1.639-3.683 3.318-4.855 5.292-4.62 7.886 4.036 15.452 11.819 9.999 2.049-1.437 3.631-3.499 5.171-5.509h.001v-.001h.001v-.001c.446-.581.888-1.158 1.337-1.714Zm-47.092-19.283a43.002 43.002 0 0 0 2.15-7.992l.02.052a4.802 4.802 0 0 0-.496-2.546 4.869 4.869 0 0 0-1.76-1.923 5.353 5.353 0 0 0-2.568-.805 5.812 5.812 0 0 0-2.718.519 48.034 48.034 0 0 0-7.182 4.791c-4.184 3.181-3.697 9.469.391 12.064 4.088 2.595 10.557.66 12.163-4.16Zm68.509-89.236c.235.321.523.62.841.952.322.335.675.703 1.039 1.159a12.245 12.245 0 0 1 2.123 4.603c1.083 2.865 1.219 6.017.389 9.047-1.87 6.109-11.727 6.72-14.114 1.136-1.086-2.857-1.231-6.001-.416-9.029a13.213 13.213 0 0 1 1.584-4.71c.389-.552.815-1.08 1.274-1.581.142-.176.248-.305.325-.398-.083.063-.097-.011.241-.616 1.266-2.257 5.329-2.448 6.749-.513l-.035-.05Zm81.39 58.673-.001-.001-.003-.005c-.384-.683-.766-1.362-1.125-2.039-.716-1.442-1.971-2.564-3.532-3.157-1.561-.594-3.324-.619-4.965-.072a7.554 7.554 0 0 0-3.96 3.048c-.913 1.419-1.273 3.078-1.011 4.672.134.801.248 1.626.364 2.462v.003c.51 3.688 1.046 7.571 3.485 10.377 4.268 4.916 13.861 1.914 14.267-4.781.226-3.852-1.675-7.23-3.519-10.507Zm-44.673 49.852a7.365 7.365 0 0 0-1.095-2.433c.132-1.91-.561-3.897-1.675-5.279-1.063-1.153-2.504-1.932-4.112-2.223a8.21 8.21 0 0 0-4.819.611c-8.899 3.817-8.097 16.681.719 19.151 1.898.551 3.976.423 5.853-.362 1.877-.784 3.429-2.173 4.371-3.911.942-1.738 1.211-3.71.758-5.554Zm-1.997-3.506c.165.007.009-.246-1.227-.984.447.289.857.619 1.227.984Zm40.098-101.245a44.652 44.652 0 0 0 4.261-8.049l.07-.024c2.695-5.773-5.706-11.024-10.464-6.587a47.738 47.738 0 0 0-6.443 6.691 7.704 7.704 0 0 0-1.465 2.723 7.103 7.103 0 0 0-.233 2.999 6.81 6.81 0 0 0 1.036 2.78 7.014 7.014 0 0 0 2.134 2.101 7.57 7.57 0 0 0 2.88 1.076 8.17 8.17 0 0 0 3.151-.126 8.395 8.395 0 0 0 2.901-1.309 8.105 8.105 0 0 0 2.172-2.275ZM41.381 121.742c-1.384 4.885-4.237 9.344-8.2 12.814-3.714 3.334-9.86.295-9.34-4.298.574-4.98 2.66-9.765 6.002-13.763a7.086 7.086 0 0 1 3.84-2.522c1.532-.395 3.133-.266 4.52.364 1.386.631 2.466 1.722 3.049 3.078.582 1.356.627 2.89.129 4.327Zm46.851 293.822-.381.94c-.125.358-.299.7-.518 1.018l-.048.088.002.018.004.024c.135.58.226 1.17.275 1.766.014.058.033.139.056.247a9.722 9.722 0 0 1-.441 4.062 7.028 7.028 0 0 1-1.848 2.803c-.85.79-1.87 1.37-2.982 1.699a8.286 8.286 0 0 1-3.333.347 7.706 7.706 0 0 1-3.112-1.003c-4.43-2.058-4.947-8.007-3.343-12.086 1.452-3.642 4.478-7.049 8.687-7.653 4.21-.605 9.131 3.221 7.059 7.759l-.077-.029Zm38.285-91.151a10.029 10.029 0 0 0 4.996-2.582 8.128 8.128 0 0 0 2.221-2.814 7.411 7.411 0 0 0 .722-3.399 6.976 6.976 0 0 0-.925-3.274 7.124 7.124 0 0 0-2.382-2.467 7.769 7.769 0 0 0-3.34-1.146 8.413 8.413 0 0 0-3.602.414 8.52 8.52 0 0 0-3.114 1.889 7.996 7.996 0 0 0-1.976 2.969c-.802 1.684-1.044 3.539-.69 5.305.361 1.704 1.399 3.181 2.902 4.129 1.503.948 3.358 1.297 5.188.976Zm38.266-246.885c-.154.457-.306.909-.458 1.353a4.305 4.305 0 0 0-.024 2.834c.312.907.928 1.68 1.757 2.204.85.53 1.846.776 2.845.705a5.123 5.123 0 0 0 2.812-1.072l1.138-.873c3.494-2.673 7.321-5.6 9.488-9.304 1.957-3.368 1.715-7.391-1.7-9.572-3.415-2.181-7.532-.82-10.153 2.102-2.871 3.199-4.354 7.607-5.705 11.623ZM69.922 19.101c-3.322-1.667-6.16-4.056-8.296-6.983-2.337-2.89-2.296-7.63 1.123-10.165A8.572 8.572 0 0 1 66.272.271c1.983-.375 4.003-.007 5.631 1.027 1.629 1.033 2.737 2.65 3.089 4.509.611 3.478 1.079 7.351-.047 10.853a4.08 4.08 0 0 1-2.034 2.18 4.153 4.153 0 0 1-2.989.26v.001Zm-46.53 9.643a46.866 46.866 0 0 1 3.576 7.542l-.072.011c1.039 3.018 6.07 2.344 7.037-.57a53.467 53.467 0 0 1 3.48-7.592c1.327-2.33 1.779-4.987 1.276-7.511-.652-2.313-2.133-4.303-4.196-5.635-2.213-1.701-6.295-1.176-8.42.648-1.983 1.614-3.34 3.812-3.83 6.21-.49 2.396-.084 4.838 1.148 6.897h.001Zm10.953 434.924-1.037.656c-5.908 3.78-12.195-.223-10.697-6.75l.28-1.155c2.829-11.822 22.23.319 11.452 7.235l.002.014Zm82.78-88.133c-.43-.307-.85-.607-1.248-.903l.005.04c-1.213-.768-2.702-1.072-4.187-.855a6.575 6.575 0 0 0-3.869 2.038c-1 1.084-1.582 2.451-1.643 3.859a5.527 5.527 0 0 0 1.311 3.834c.393.52.751 1.06 1.111 1.601.498.75.998 1.502 1.59 2.207 1.639 1.928 4.002 3.172 6.632 3.494a6.304 6.304 0 0 0 2.8-.501 6.302 6.302 0 0 0 2.3-1.674 6.446 6.446 0 0 0 1.432-2.405c.287-.885.366-1.81.231-2.707-.272-3.602-3.596-5.977-6.465-8.028Z" fill="#00A5CE" fill-rule="evenodd"/></svg>