<svg width="130" height="124" viewBox="0 0 130 124" xmlns="http://www.w3.org/2000/svg"><path d="M6.44 88.095a35.813 35.813 0 0 1-2.997-1.122c-1.055-.486-1.928-1.18-2.532-2.012-.604-.832-.918-1.773-.911-2.73 0-.474.082-.948.243-1.406.416-1.144 1.296-2.152 2.508-2.873 1.213-.721 2.692-1.116 4.216-1.126 2.494.123 4.955.517 7.31 1.17 2.277.386 4.482.997 6.562 1.818 1.364.645 2.429 1.614 3.037 2.766l.182.079.324.118c.316.114.625.226.912.356a18.37 18.37 0 0 1 2.45 1.438c1.114.871 1.826 2.006 2.028 3.226.201 1.221-.12 2.46-.914 3.523-.948 1.255-2.478 2.177-4.273 2.576a9.643 9.643 0 0 1-3.807 0 32.573 32.573 0 0 1-5.103-1.344l-4.618-1.454c-1.212-.256-2.316-.758-3.2-1.454l-1.134-1.138-.283-.41Zm22.782 32.764c-1.62-.617-3.18-1.296-4.739-1.992-1.11-.511-2.026-1.242-2.656-2.119-.63-.878-.95-1.869-.928-2.875.002-.655.14-1.306.405-1.928.113-.814.444-1.6.972-2.308.63-.871 1.546-1.596 2.653-2.102l1.761-.584a11.2 11.2 0 0 1 4.233 0c.794.217 1.572.47 2.329.758.197.077.376.139.558.203.192.067.388.135.616.224.446.174.912.332 1.377.49a27.674 27.674 0 0 1 5.489 2.165 17.903 17.903 0 0 1 3.017 2.007c.952.787 1.635 1.748 1.99 2.794a5.107 5.107 0 0 1 .035 3.196c-.344 1.011-1.029 1.931-1.984 2.665-.954.734-2.143 1.255-3.443 1.508a14.381 14.381 0 0 1-5.266-.127 34.986 34.986 0 0 1-6.42-1.975Zm38.315-5.722 1.78.365c2.255.463 4.5.923 6.746 1.374h.162l.324.142c.587.285 1.195.538 1.802.775a42.33 42.33 0 0 0 2.876.979c1.927.62 4.063.726 6.075.301 1.258-.284 2.392-.831 3.281-1.581 1.177-.645 2.095-1.539 2.645-2.576.55-1.038.71-2.176.462-3.282-.249-1.106-.896-2.134-1.866-2.963-.97-.83-2.222-1.426-3.61-1.721-3.716-.842-7.468-1.59-11.213-2.338-1.808-.36-3.614-.721-5.414-1.091-1.962-.405-4.05-.192-5.814.591-1.764.783-3.064 2.074-3.623 3.597a4.552 4.552 0 0 0-.283 1.581c-.005 1.324.547 2.614 1.571 3.67 1.025 1.056 2.464 1.821 4.1 2.177ZM60.368 86.42a4.937 4.937 0 0 1-.85-.885h.04c-.516-.685-.789-1.465-.789-2.26 0-.795.273-1.575.789-2.26.52-.697 1.258-1.28 2.147-1.691l.202-.095.648-.648c1.042-.907 2.412-1.547 3.929-1.834 1.705-.3 3.479-.268 5.164.095.608.092 1.21.208 1.802.348 1.06.257 2.104.552 3.16.851h.001l.343.097c1.696.4 3.14 1.28 4.05 2.466.824 1.044 1.166 2.276.972 3.493.17.484.252.984.243 1.486v.11c.324.433.534.911.617 1.408a2.967 2.967 0 0 1-.13 1.484c-.344.94-1.133 1.743-2.208 2.245a5.544 5.544 0 0 1-1.812.497 5.896 5.896 0 0 1-1.915-.118l-.486-.142c-1.919.19-3.868-.04-5.63-.664a470.795 470.795 0 0 1-4.374-1.438l-.347-.12c-.759-.26-1.527-.525-2.265-.813-.304-.107-.62-.231-.93-.354l-.305-.12-.77-.332a5 5 0 0 1-1.296-.806Zm.527-41.25c.01-.536.112-1.068.304-1.581.52-1.592 1.812-2.964 3.605-3.825a9.196 9.196 0 0 1 3.003-.826 9.787 9.787 0 0 1 3.174.194l1.498.474c.939-.064 1.884 0 2.795.19 2.133.423 4.23.951 6.278 1.58 1.559.427 3.098.87 4.617 1.36h.182c1.277.29 2.435.835 3.362 1.58l1.174 1.201c.616.82.97 1.745 1.03 2.695.06.95-.175 1.897-.683 2.76-.51.865-1.278 1.62-2.24 2.203-.963.583-2.092.976-3.291 1.145a9.249 9.249 0 0 1-3.17.956 9.967 9.967 0 0 1-3.391-.181 71.872 71.872 0 0 1-6.5-1.976h-.003l-.002-.001a601.6 601.6 0 0 1-5.95-1.88c-1.337-.276-2.56-.821-3.544-1.58l-1.255-1.28c-.69-.982-1.032-2.09-.993-3.209ZM107.816 88c-1.603-.384-2.957-1.232-3.787-2.37-.588-.831-.882-1.77-.85-2.719 0-.47.082-.938.243-1.39.385-1.049 1.175-1.979 2.262-2.663 1.088-.685 2.419-1.09 3.813-1.162a10.022 10.022 0 0 1 4.051-.87l2.187.238c1.063.168 2.102.422 3.098.758a9.007 9.007 0 0 1 2.43.885l.749.206c.973.284 1.904.6 2.856.932 1.046.399 1.998.933 2.815 1.58 1.234.962 2.025 2.215 2.251 3.565.225 1.349-.128 2.718-1.004 3.895-.876 1.176-2.226 2.093-3.84 2.608a9.995 9.995 0 0 1-5.082.237 100.638 100.638 0 0 1-3.787-1.074 32.61 32.61 0 0 1-1.377-.364c-.367-.09-.738-.195-1.112-.3-.41-.116-.824-.233-1.238-.332a22.278 22.278 0 0 1-1.113-.206c-1.16-.246-2.234-.694-3.139-1.311l-.426-.143ZM16.707 30.092c.393 1.093 1.139 2.089 2.167 2.892 1.049.86 2.249 1.6 3.564 2.197.569.293 1.157.562 1.762.806 1.087.44 2.218.81 3.382 1.106 1.366.304 2.773.485 4.192.537 1.89.16 3.796-.15 5.447-.885 1.743-.555 3.207-1.536 4.172-2.797.892-1.211 1.273-2.61 1.092-4-.182-1.389-.918-2.699-2.104-3.744a6.89 6.89 0 0 0-1.701-1.439 31.137 31.137 0 0 0-3.12-1.722 18.24 18.24 0 0 0-4.191-1.375 11.702 11.702 0 0 0-4.8 0l-.445.11a10.311 10.311 0 0 0-3.504.158c-.355.11-.704.223-1.06.339-.313.102-.632.206-.965.31-1.222.558-2.24 1.353-2.956 2.307l-.122.126c-.744 1.003-1.129 2.144-1.114 3.303l.304 1.77Zm34.566-17.257a5.799 5.799 0 0 1-1.719-1.504c-.625-.805-.954-1.73-.952-2.67.024-.937.36-1.852.972-2.656l1.053-1.059c.855-.654 1.917-1.117 3.078-1.343l.973-.237c.673-1.01 1.67-1.865 2.895-2.482A10.514 10.514 0 0 1 61.836 0c1.496 0 2.965.305 4.263.884 1.241.543 2.483.972 3.724 1.402.784.271 1.568.543 2.352.842.59.212 1.165.45 1.72.712.72.329 1.398.71 2.026 1.138.737.403 1.33.947 1.721 1.58.9.998 1.368 2.194 1.337 3.414-.081.632-.182 1.28-.324 1.912-.36 1.038-1.057 1.986-2.025 2.75-1.162.92-2.627 1.57-4.233 1.881-1.68.293-3.423.293-5.103 0l-.81-.126a157.54 157.54 0 0 1-6.38-1.233c-.503-.107-1.014-.211-1.528-.317-1.696-.347-3.417-.7-4.972-1.137a7.465 7.465 0 0 1-2.33-.867Zm55.694 22.425c.679 1.862 2.263 3.445 4.415 4.41 1.125.52 2.312.953 3.544 1.295.478.174.981.301 1.498.38.993.126 2.025.252 2.997.331 1.823.145 3.653-.22 5.164-1.027 1.602-.658 2.876-1.715 3.618-3.004.742-1.288.909-2.734.476-4.105-.434-1.372-1.443-2.59-2.868-3.462-1.425-.871-3.182-1.345-4.992-1.346a63.83 63.83 0 0 0-1.701-.316 38.56 38.56 0 0 1-1.438-.269l-.709-.126a11.535 11.535 0 0 0-2.369-.221 9.013 9.013 0 0 0-2.349.205c-1.902.404-3.523 1.375-4.516 2.703-.666.88-1.01 1.886-.993 2.908.006.552.081 1.103.223 1.644ZM4.921 58.193 3.503 56.77c-.83-1.079-1.271-2.313-1.276-3.572-.001-1.548.647-3.054 1.847-4.287s2.884-2.126 4.796-2.54a12.581 12.581 0 0 1 5.69.079c.426.126.85.253 1.276.363l.689.19a10.09 10.09 0 0 1 1.195 0c.855.015 1.705.11 2.53.284.71.179 1.401.4 2.067.664 1.073.443 2.166.838 3.28 1.233 1.205.245 2.41.486 3.615.727s2.41.482 3.615.727a10.26 10.26 0 0 1 3.201 1.206c.954.563 1.755 1.27 2.355 2.078.601.807.99 1.7 1.143 2.627a5.55 5.55 0 0 1-.248 2.767c-.318.9-.862 1.743-1.6 2.477-.74.735-1.658 1.347-2.704 1.802a10.884 10.884 0 0 1-3.385.845c-1.19.104-2.393.022-3.541-.242l-2.714-.521a11.932 11.932 0 0 1-3.503-.206c-2.087-.37-4.121-.9-6.076-1.58l-2.552-.774a54.39 54.39 0 0 1-4.232-1.107c-1.532-.316-2.93-.943-4.05-1.817Z" fill="#136E65" fill-rule="evenodd"/></svg>