<svg width="1423" height="1589" viewBox="0 0 1423 1589" xmlns="http://www.w3.org/2000/svg"><g fill="#fff" fill-rule="nonzero"><path d="M96.626 1562.65a10.12 10.12 0 0 1 4.037 2.14c1.178 1.03 2.085 2.29 2.611 3.64 1.214 3.02 1.943 6.11 2.161 9.14.411 3.62.222 7.39-2.67 9.47-1.3 1.09-3.12 1.58-5.083 1.35-1.963-.23-3.919-1.15-5.462-2.58-3.488-3.27-4.19-7.11-4.204-10.97-.108-3.21.342-6.304 1.333-9.166l.192-.534-.068-.04c1.012-2.38 4.386-3.09 7.153-2.45Zm23.856-68.853-.011.343-.056 1.13c-.395 6.301-7.604 7.354-12.37 1.86l-.177-.21-.838-1 .006-.01c-8.593-10.355 13.596-13.301 13.446-2.113Zm26.319-39.627a9.128 9.128 0 0 1 3.771 2.7c.991 1.21 1.597 2.61 1.725 3.98.26 1.98.211 3.93-.146 5.77-.621 2.44-2.208 4.4-4.484 5.55-3.426 2.07-8.797-1.29-10.239-4.97-1.76-4.373-.447-7.746 1.885-10.825l.172-.225h-.019c.681-1.06 1.753-1.82 3.067-2.18 1.314-.35 2.806-.29 4.268.2Zm-64.916-26c4.026 2.25 6.053 6.51 6.442 10.34.412 4.28-1.838 9.37-6.861 9.4-1.096.1-2.256-.03-3.399-.38a10.508 10.508 0 0 1-3.227-1.66 9.155 9.155 0 0 1-2.482-2.73c-.613-1.04-.966-2.15-1.028-3.24-.048-1.36.206-2.65.744-3.79.04-.066.075-.119.102-.16l.023-.034.02-.049c.164-.373.35-.732.558-1.077l.215-.34.018-.034-.022-.096a4.292 4.292 0 0 1-.195-.84l-.026-.28-.106-.99-.085-.01c-.746-4.88 5.283-6.28 9.309-4.03Zm-9.672 7.725-.014.02-.136.33c-.05.126-.097.255-.141.385.112-.228.519-1.06.291-.735Zm.826-1.358-.013.059c-.052.248-.083.56.02.594l.015-.557-.022-.096Zm.029-.11-.002.006-.005.2.027.117c.095-.571.041-.534-.02-.323Zm-.045.043c-.074.293-.066.317-.01.076l.014-.06-.004-.016Zm.046-.147-.009.012-.01.053-.02.086-.003.013.013.048.014-.056.012-.046.003-.11Zm-.012.017-.034.053-.013.023.013.054.021-.082.013-.048Zm.079-.102-.066.052-.001.033.027-.037c.013-.017.026-.033.04-.048Zm104.493-67.538c2.853 3.8 6.693 8.45 8.044 12.69.621 1.75.581 3.52-.112 4.98-.693 1.47-1.992 2.53-3.661 3-3.654 1.02-7.412-.89-9.966-4.15-1.676-2.1-2.516-4.76-3.561-7.11a72.288 72.288 0 0 1-2.074-5.12l-.363-1.03-.016.04c-2.595-7.3 7.107-9.41 11.709-3.3Zm-46.281-7.02c1.332.01 2.718.38 3.992 1.07a9.33 9.33 0 0 1 3.183 2.86c2.37 3.56 3.771 7.47 4.05 11.29.125 1.87-.474 3.57-1.69 4.8-1.215 1.22-2.967 1.9-4.935 1.89-1.968 0-4.023-.68-5.791-1.92-1.767-1.23-3.13-2.94-3.841-4.8-1.195-3.706-1.37-7.439-.512-10.81l.113-.42.013.01a4.964 4.964 0 0 1 1.905-2.87c.96-.7 2.179-1.08 3.513-1.1Zm1130.612-16.57c2.46.31 4.71 1.43 6.4 3.19 2.08 1.84 2.21 5.74.7 7.97a10.752 10.752 0 0 1-5.68 4.41c-2.35.78-4.89.72-7.18-.16a51.693 51.693 0 0 0-7.296-2.155l-.934-.195v.07c-3.23-.57-3.36-5.38-.56-6.67 2.49-1.24 4.88-2.66 7.14-4.26 2.15-1.56 4.77-2.33 7.41-2.2Zm-355.866-4.61c.449 1.29.512 2.68.181 4.01a7.298 7.298 0 0 1-2.048 3.51 30.486 30.486 0 0 1-7.587 5.39c-3.249 1.78-6.977 3.16-10.574 1.76a7.125 7.125 0 0 1-4.116-3.41 7.044 7.044 0 0 1-.546-5.3c1.206-4.03 4.51-6.14 8.209-7.71a31.603 31.603 0 0 1 9.506-2.68l.658-.07v-.07c2.848-.18 5.397 2.16 6.317 4.57Zm415.976-6.91c1.29.37 2.5.96 3.57 1.75 1.43.93 2.52 2.28 3.12 3.87.6 1.58.69 3.32.24 4.97a8.09 8.09 0 0 1-3.03 4.16 8.25 8.25 0 0 1-4.94 1.52 16.775 16.775 0 0 1-5.362-1.332l-.458-.208.06-.01c-3.72-1.68-4.58-6.87-3.02-10.2.85-1.77 2.3-3.2 4.1-4.02a8.426 8.426 0 0 1 5.72-.5Zm-303.223-6.837.343.047-.01-.01c1.39.1 2.71.62 3.78 1.49a6.52 6.52 0 0 1 2.17 3.39c.28 1.35.1 2.76-.51 4.01a6.58 6.58 0 0 1-2.86 2.95c-1.75 1-3.64 1.74-5.61 2.21-2.67.51-5.43.07-7.79-1.23-3.88-1.81-3.62-7.33-.89-9.94 3.213-3.116 7.156-3.473 11.377-2.917Zm-945.802-5.823c1.23.37 2.411.99 3.451 1.82 1.039.82 1.908 1.82 2.54 2.93.632 1.1 1.008 2.27 1.101 3.42.308 1.81.012 3.55-.849 4.97-.851 1.36-2.306 2.25-4.07 2.48-1.763.23-3.703-.21-5.424-1.23-1.755-1.09-3.223-2.59-4.206-4.3-.718-1.07-1.192-2.23-1.387-3.39-.195-1.16-.104-2.29.266-3.3a5.52 5.52 0 0 1 1.863-2.52c.857-.65 1.909-1.06 3.073-1.22 1.165-.15 2.411-.04 3.642.34Zm1043.795-4.5c-2.11 3.86-4.49 8.85-7.88 11.68a7.798 7.798 0 0 1-4.96 1.98c-1.83.06-3.6-.54-5-1.68-3.08-2.49-3.33-6.28-1.59-9.66 1.12-2.22 3.25-3.99 4.96-5.79a67.007 67.007 0 0 1 3.85-3.783l.8-.717h-.04c5.68-5.09 13.24 1.77 9.86 7.97Zm-139.459 10.098-.341.132-1.14.42c-6.365 2.283-11.45-2.995-8.768-9.046l.098-.214.5-1.07h.02c5.257-11.078 20.619 5.287 9.631 9.778Zm240.149-25.158c.86.27 1.64.75 2.25 1.41.62.66 1.05 1.46 1.25 2.33.2.88.17 1.79-.08 2.66-1 2.6-2.25 5.1-3.73 7.47-2.57 4.41-9.08 4.8-12.41 1.26-3.33-3.53-2.41-9.94 2.26-12.12a46.08 46.08 0 0 1 7.022-2.883l.808-.247-.06-.01c.9-.18 1.82-.14 2.69.13Zm-1062.856-13.42a9.383 9.383 0 0 1 4.086 3.22 79.315 79.315 0 0 1 4.96 7.72c1.627 2.88 3.835 5.91 4.634 8.91 2.294 8.82-8.442 12.01-14.564 4.07-2.079-2.7-3.088-6.01-4.353-9a67.929 67.929 0 0 1-3.034-8.25c-.514-1.56-.449-3.12.184-4.41.632-1.29 1.791-2.23 3.272-2.64 1.48-.42 3.186-.28 4.815.38Zm1142.956 10.1c-9.07 8.28-21.88-5.41-12.82-13.68 9.09-8.27 21.89 5.4 12.82 13.68Zm-1193.355-21.49a10.35 10.35 0 0 1 4.629 2.5c7.765 7.01 3.22 18.12-6.293 16.73-2.054-.28-4.089-1.24-5.733-2.7-1.644-1.46-2.788-3.32-3.221-5.25-.433-1.93-.128-3.79.861-5.24a5.958 5.958 0 0 1 1.789-1.714l.013-.01.037-.144c.44-1.622 1.604-3.002 3.001-3.772l.169-.09c1.395-.6 3.06-.7 4.748-.31Zm113.449-4.97c.933.33 1.81.86 2.545 1.55a57.867 57.867 0 0 1 5.737 7.14c3.231 4.51.929 9.88-3.876 10.52-4.804.64-10.66-3.68-10.859-8.59a38.442 38.442 0 0 1 .087-7.164l.092-.776-.036.03a3.81 3.81 0 0 1 1.229-2.05c.618-.53 1.411-.87 2.301-.99.89-.12 1.848 0 2.78.33Zm1149.536 11.28c-.24 4.81-5.54 9.12-10.42 7.3-1.72-.58-3.38-1.34-4.95-2.26a35.533 35.533 0 0 0-2.597-1.82l-.673-.42-.06-.02c-2.6-1.33-2.46-5.77.34-6.9 1.21-.58 2.39-1.23 3.53-1.93 1.65-.8 3.37-1.43 5.14-1.89 5.05-1.4 9.92 3.13 9.69 7.94Zm-269.87-12.05c1.21.47 2.26 1.27 3.02 2.31a6.465 6.465 0 0 1 1.19 3.57 6.62 6.62 0 0 1-.98 3.67 22.012 22.012 0 0 1-8.67 7.79 8.229 8.229 0 0 1-5.58.64 7.992 7.992 0 0 1-4.59-3.1 7.778 7.778 0 0 1-1.37-5.34c.2-1.89 1.09-3.65 2.5-4.98a22.243 22.243 0 0 1 10.151-4.813l.489-.087v.02c1.29-.26 2.62-.15 3.84.32Zm-999.05 9.32c-.193.176-.644.202-.8.15l-.006-.002-.214.083a6.64 6.64 0 0 0-.771.37l-.229.136-.012.051a5.31 5.31 0 0 0 .406 3.552l-.057.01c.663 1.38-.041-2.26-.032-2.31l.27-.673.02-.024c.053-.064.148-.192.29-.383.191-.32.476-.57.829-.73.571-.31.676-.38.306-.23Zm-1.31 1.03-.135.337c-.06.066-.022-.017.094-.253l.041-.084Zm2.011-1.26c-1.402.149-1.661.305-1.524.371l.017.007.057-.02c.274-.099.559-.181.852-.247l.296-.061.302-.05Zm1075.279-25.77a6.64 6.64 0 0 1 2.35 3.99 6.75 6.75 0 0 1-.84 4.58 64.12 64.12 0 0 1-4.75 7.14c-1.91 2.49-3.62 5.5-6.1 7.38-7.33 5.47-16.52-1.75-12.21-9.91 1.47-2.77 4.13-4.94 6.34-7.18 1.99-2.09 4.11-4.03 6.36-5.83a6.974 6.974 0 0 1 4.42-1.68c1.62-.03 3.19.5 4.43 1.51Zm-887.807.71c1.519 2.25 2.235 4.78 2.021 7.12-.213 2.35-1.343 4.37-3.191 5.71a38.125 38.125 0 0 0-5.295 4.71l-.529.58.069.04c-1.935 2.27-6.799-.39-6.911-3.39a51.868 51.868 0 0 0-1.261-8.23c-.648-2.62-.319-5.19.932-7.24 1.339-1.81 3.416-2.98 5.885-3.33 2.728-.62 6.681 1.52 8.28 4.03Zm730.227 7.42c.07 4.06-2.91 7.37-6.39 9.23-3.89 2.07-10.04 2.38-12.86-1.53a7.347 7.347 0 0 1-1.53-2.81 7.462 7.462 0 0 1-.19-3.19c.16-1.1.58-2.15 1.25-3.05.66-.9 1.54-1.63 2.55-2.12 1.28-.59 2.66-.92 4.07-.96.118.007.205.013.266.02h.012l.207-.011c.36-.014.72-.014 1.079 0l.536.031h.046l.084-.06c.232-.2.483-.374.748-.518l.202-.102.9-.49-.04-.07c4.28-2.56 8.98 1.57 9.06 5.63Zm-11.063-4.311-.019.004c-.276.06-.625.168-.598.267l.538-.214.08-.057Zm.155-.028-.034.005-.2.08-.088.064c.583-.152.54-.182.322-.149Zm.165-.032h-.002l.047.016c.496.167.292.038-.04-.015l-.005-.001Zm-.263.018-.063.013c-.256.049-.249.056.006.005l.047-.01.01-.008Zm.17-.03-.064.014-.088.019-.028.005-.047.034.043-.008.059-.011.02-.004.118-.047-.013-.002Zm-1.986-.027-.332.02c-.18.013-.358.03-.536.05.27 0 1.236-.021.909-.064l-.04-.006Zm1.868.02-.052.037.014-.002.09-.017.062-.011-.026-.003-.067-.004h-.02Zm.154 0-.023.009.022.002.056.008-.029-.01-.026-.009Zm0 0-.04.007h.004l.036-.007Zm-929.764-39.94c1.745.11 3.524.81 5.012 1.97 1.487 1.16 2.582 2.7 3.083 4.35.5 1.64.372 3.27-.36 4.59-2.009 3.58-3.63 8.06-7.652 9.91-5.739 2.66-14.497-3.95-12.933-10.11 1.098-4.28 5.117-6.67 8.37-9.33 1.145-1 2.736-1.49 4.48-1.38Zm1180.204 2.48c1.75.14 3.46.6 5.02 1.38.936.504 1.572 1.008 2.222 1.366l.218.114-.05-.02c2.19 1.07 2.65 4.9.57 6.39-.55.389-.635.393-.59.311l.006-.014-.03.033-.123.125-.203.205c-.44.5-.9.97-1.4 1.4-1.36.98-2.9 1.69-4.52 2.11a16.104 16.104 0 0 1-9.23.81c-6.05-1.49-7.02-10.81-1.13-13.37 2.94-1.18 6.16-1.47 9.24-.84Zm-212.107 2.54.217.2h-.04a5.722 5.722 0 0 1 1.56 3.86c.02 1.43-.49 2.83-1.45 3.94a6.216 6.216 0 0 1-3.67 2.07c-1.43.25-2.89-.01-4.13-.72-1.42-.72-2.92-1.25-4.33-2.05a10.17 10.17 0 0 1-4.65-5.81c-.21-.9-.19-1.83.05-2.72.24-.9.7-1.72 1.33-2.41.61-.71 1.37-1.29 2.22-1.68.86-.39 1.79-.59 2.73-.58 4.17-.253 7.4 3.329 10.163 5.9Zm219.511 6.977-.008.01.041-.04c.292-.306.05-.09-.033.03Zm151.326-19.547c1.95.08 3.77.91 5.08 2.3a7.147 7.147 0 0 1 1.96 5.16 7.553 7.553 0 0 1-1.14 3.53c-2.02 3.56-6.83 4.23-10.14 2.42a23.836 23.836 0 0 1-8.45-6.87c-.45-.88-.53-1.9-.22-2.85.31-.94.99-1.74 1.89-2.2 3.37-1.53 7.39-1.6 11.02-1.49Zm-264.33-7.58c.871.08 1.713.296 2.496.634l.158.072.14-.027c1.805-.324 3.78.017 5.31.788l.216.113c1.35.85 2.38 2.11 2.94 3.59s.62 3.11.16 4.64c-2.43 8.93-15.68 9.9-19.64 1.89a7.921 7.921 0 0 1-.59-5.58c.49-1.88 1.66-3.53 3.28-4.66a8.367 8.367 0 0 1 5.53-1.46Zm-977.505-5.06c.153.646.129.733.07.662l-.012-.016.023.05.116.27.073.174c.315.64.587 1.28.816 1.94.397 1.66.466 3.31.204 4.86-.073 3.04-1.146 5.8-3.081 7.91-4.048 4.02-13.782-.56-13.861-6.79.059-3.05 1.125-5.82 3.059-7.94a10.002 10.002 0 0 1 3.492-3.25c.887-.462 1.657-.687 2.286-.999l.229-.121-.051.03c1.999-1.15 6.03.68 6.637 3.22Zm1162.245 14.92c-7.72 7.04-18.6-4.58-10.9-11.64 7.73-7.04 18.61 4.6 10.9 11.64Zm-232.18-15.81c1.12.41 2.12 1.07 2.92 1.93.81.86 1.39 1.89 1.72 3.02.33 1.13.39 2.32.17 3.48-.22 1.16-.7 2.26-1.42 3.22-.72.95-1.65 1.73-2.72 2.28a9.15 9.15 0 0 1-5.32 1.37 7.03 7.03 0 0 1-4.7-2.2 6.822 6.822 0 0 1-1.85-4.8c.07-1.83.7-3.61 1.82-5.1.64-1.01 1.5-1.86 2.52-2.49a8.06 8.06 0 0 1 3.36-1.15c1.19-.12 2.39.03 3.5.44Zm-853.577 4.92c4.316 11.8-14.226 14.22-18.535 2.44-4.298-11.8 14.218-14.24 18.535-2.44Zm50.06-8.02c1.792.42 3.52 1.33 4.944 2.61 1.409 1.36 2.393 3.02 2.801 4.74.408 1.72.217 3.4-.544 4.77a12.135 12.135 0 0 1-3.544 3.513l-.362.227.022-.05c-3.172 1.99-8.579-.24-11.187-3.36-1.376-1.66-2.168-3.61-2.234-5.5-.066-1.89.599-3.59 1.875-4.81a8.749 8.749 0 0 1 3.171-1.84c1.498-.61 3.265-.71 5.058-.3Zm853.611 9.756-.117.024c-1.192.26-2.295.82-3.127 1.75l-.04-.04c-.97 1.08 2.16-.95 2.21-.96l.796-.067.088.014.476.063c.42.02.82.14 1.17.35.62.32.75.37.39.15-.27-.076-.54-.402-.59-.553l-.008-.023-.01-.008a8.086 8.086 0 0 0-1.104-.64l-.134-.06Zm1.25.708h-.002l.249.178c.255.192.5.4.731.621l.228.227c-.95-1.06-1.236-1.178-1.207-1.026Zm-1.124-.034-.404.033c-.096-.018.003-.02.298-.03l.106-.003Zm-980.231-5.8.004.006-.02-.049c-.197-.441-.071-.087.016.043Zm-66.858-37.82a53.037 53.037 0 0 1 4.455 8.52c.434.99.66 2.01.665 3 .006.99-.211 1.92-.635 2.75a5.436 5.436 0 0 1-1.831 2.04c-.784.52-1.711.86-2.724 1a8.378 8.378 0 0 1-3.168-.22 9.983 9.983 0 0 1-3.088-1.38 10.392 10.392 0 0 1-2.499-2.33 9.025 9.025 0 0 1-1.496-2.89 44.269 44.269 0 0 1-1.806-8.04l-.093-.8-.062-.05c-1.003-6.2 8.847-7.45 12.282-1.6Zm1089.639-8.45c1.58.48 2.92 1.51 3.77 2.9a6.56 6.56 0 0 1 .88 4.64 6.866 6.866 0 0 1-2.46 4.12 7.087 7.087 0 0 1-4.57 1.57c-4.52-.11-9.68.44-13.66-1.9-5.68-3.35-4.18-12.75 2.55-14.02 4.68-.87 9.16 1.26 13.49 2.69Zm68.66 1.37a45.185 45.185 0 0 1-5.79 7.03c-.72.75-1.59 1.35-2.55 1.76-.95.41-1.99.62-3.03.62a7.437 7.437 0 0 1-7.09-4.94c-.33-.96-.47-1.99-.38-3.01.08-1.03.37-2.02.86-2.94.49-.91 1.16-1.72 1.97-2.37a45.505 45.505 0 0 1 6.813-4.735l.727-.405.01-.07c5.47-3.34 12.22 3.94 8.46 9.06Zm-995.576-20.33c4.652 2.93 6.699 9.63 2.876 12.5a20.862 20.862 0 0 1-4.302 2.67c-.986.304-1.95.653-2.886 1.041l-.697.299-.036.04c-2.399 1.32-6.735-1.32-6.683-4.21a34.15 34.15 0 0 0-.435-3.92c-.1-1.78-.007-3.52.275-5.2.728-4.83 7.236-6.15 11.888-3.22Zm-76.004-5.9c3.667 10.03-12.068 12.11-15.767 2.08-3.662-10.05 12.101-12.11 15.767-2.08Zm1149.42-13.02c2.79 2.95 2.07 7.05-.49 9.93-3.12 3.52-8.05 5.61-12.26 7.61-.9.44-1.91.58-2.89.41-.98-.18-1.87-.66-2.55-1.37a4.51 4.51 0 0 1-1.18-2.61c-.1-.98.12-1.97.63-2.82 2.36-3.97 4.86-8.63 8.67-11.47 3.12-2.31 7.28-2.62 10.07.32Zm-1089.72-16.23-.068.03c1.125 3.01 1.64 6.29 1.525 9.7-.013 3.86-.716 7.7-4.204 10.97-1.543 1.43-3.499 2.35-5.462 2.58-1.963.23-3.783-.25-5.082-1.35-2.893-2.08-3.082-5.85-2.671-9.46.218-3.04.947-6.12 2.161-9.15.527-1.35 1.433-2.61 2.611-3.63a9.876 9.876 0 0 1 4.037-2.14c2.767-.64 6.142.06 7.153 2.45Zm-134.594-19.26c2.142 4.45 2.142 9.53 2.362 13.98.055.96-.224 1.84-.797 2.52-.572.68-1.407 1.11-2.381 1.24-.975.13-2.036-.05-3.029-.52a6.437 6.437 0 0 1-2.481-2.09c-2.899-4.1-6.404-8.7-7.601-13.31-.968-3.77.437-7.24 4.457-7.79 4.021-.55 7.714 2.32 9.47 5.97Zm1158.074-18.65-.07.04c1.12 3.01 1.64 6.29 1.52 9.7-.01 3.86-.71 7.7-4.2 10.97-1.54 1.43-3.5 2.35-5.46 2.58-1.96.23-3.78-.26-5.08-1.35-2.9-2.08-3.08-5.85-2.67-9.47.21-3.03.94-6.12 2.16-9.14.52-1.35 1.43-2.61 2.61-3.64 1.18-1.02 2.58-1.76 4.04-2.14 2.76-.64 6.14.07 7.15 2.45Zm-1037.637-6.42c1.209.78 2.253 1.79 3.039 2.94 2.685 3.66 1.335 7.91-1.856 9.53-3.001 1.75-6.548 2.72-10.368 2.85-1.062-.14-2.112-.66-2.921-1.45-.809-.79-1.313-1.79-1.4-2.78-.101-3.58 1.505-6.85 3.137-9.71.899-1.51 2.485-2.5 4.421-2.76 1.935-.26 4.069.24 5.948 1.38Zm-3.406-24.86.006.01-.838 1c-4.761 5.72-12.146 4.72-12.547-1.65l-.055-1.14c-.613-11.59 22.114-8.68 13.434 1.78Zm-35.497-41.94c1.314.35 2.386 1.12 3.067 2.18h-.019c2.438 3.13 3.859 6.56 2.057 11.04-1.442 3.68-6.813 7.05-10.239 4.97-2.276-1.14-3.863-3.11-4.484-5.55-.356-1.84-.406-3.78-.146-5.76.128-1.38.734-2.77 1.725-3.98a9.061 9.061 0 0 1 3.771-2.71c1.463-.48 2.954-.55 4.268-.19Zm1058.98 4.03v.01l-.84 1c-4.76 5.73-12.14 4.73-12.54-1.65l-.06-1.13c-.61-11.59 22.11-8.69 13.44 1.77Zm-989.023-25.8h-.085l-.106 1a4.2 4.2 0 0 1-.22 1.11l-.025.103.02.037c.296.447.554.92.773 1.417l.012.03.03.044.103.159c.539 1.15.792 2.44.744 3.79-.062 1.09-.415 2.21-1.028 3.25a9.107 9.107 0 0 1-2.482 2.72c-.982.75-2.083 1.32-3.226 1.67-1.144.35-2.303.48-3.399.37-5.023-.03-7.273-5.11-6.861-9.39.388-3.83 2.415-8.09 6.441-10.34 4.027-2.25 10.055-.85 9.309 4.03Zm.654 4.43a9.802 9.802 0 0 0-.141-.386l-.144-.347-.006-.01c-.228-.319.179.507.291.743Zm-1.183-1.987.017.107.026-.118.016.558c.103-.034.073-.348.02-.597l-.013-.06.011-.05-.002-.013a10.675 10.675 0 0 1-.02-.083l-.012-.056-.008-.012.003.11v-.006c-.058-.198-.109-.243-.038.22Zm954.052-18.583c1.31.36 2.38 1.12 3.07 2.18h-.02c2.43 3.14 3.86 6.57 2.05 11.05-1.44 3.68-6.81 7.04-10.24 4.97-2.27-1.15-3.86-3.11-4.48-5.55-.36-1.84-.41-3.79-.15-5.77.13-1.37.74-2.77 1.73-3.98.99-1.2 2.31-2.15 3.77-2.7 1.46-.49 2.95-.55 4.27-.2Zm-953.97 18.406-.005.017.014.058c.057.237.065.213-.008-.07l-.002-.005Zm-.044-.036.014.045.014.057v.001l-.023.098-.005-.201Zm.008-.095.015.052.02.08.012-.054-.011-.022a1.005 1.005 0 0 0-.036-.056Zm-.003-.004.003.004-.006-.021.003.017Zm-.064-.085.03.037.026.036v-.029l-.007-.006-.006-.004-.043-.034Zm-.024-.019.023.018-.008-.011c-.186-.22-.377-.297-.015-.007ZM1293.27 925.2l-.09.01-.11.99c-.02.37-.09.75-.22 1.12l-.021.09.021.04c.293.447.551.92.77 1.417l.014.034.034.048.102.161c.54 1.14.79 2.43.74 3.79-.06 1.09-.41 2.2-1.03 3.24a9.07 9.07 0 0 1-2.48 2.73c-.98.74-2.08 1.31-3.22 1.66-1.15.35-2.31.48-3.4.38-5.03-.04-7.28-5.12-6.86-9.4.38-3.83 2.41-8.09 6.44-10.34 4.02-2.25 10.05-.85 9.31 4.03ZM98.296 909.149c1.565-.002 2.96.528 3.935 1.497.975.974 1.467 2.314 1.388 3.794.042 4.9-1.505 10.02-4.445 14.72-2.734 4.47-9.746 4.26-10.564-.03-.877-4.66-.189-9.76 1.979-14.67.587-1.48 1.684-2.83 3.095-3.799 1.412-.973 3.046-1.509 4.612-1.512Zm182.872 6.621-.017-.03c3.696.78 8.753 1.25 10.268 4.8.395.74.584 1.59.555 2.49-.03.9-.277 1.83-.726 2.72a7.404 7.404 0 0 1-1.803 2.41c-.774.7-1.68 1.24-2.641 1.58-2.71.78-5.423.64-7.613-.41-1.367-.66-2.502-1.56-3.793-2.28-1.213-.58-2.069-1.6-2.418-2.87-.348-1.28-.166-2.73.515-4.09.685-1.38 1.845-2.58 3.259-3.38 1.414-.79 2.984-1.13 4.414-.94Zm1012.752 13.86c-.045-.13-.092-.259-.142-.386l-.144-.343-.004-.006c-.228-.325.176.508.29.735Zm-1.189-2.001.019.121.03-.133.02.573c.111-.037.066-.4.004-.655l-.002-.007-.021.087-.005-.188.014.052.012.048.01-.045-.02-.094-.013-.057-.008-.011.004.105-.014-.043c-.051-.154-.09-.16-.03.247Zm.085-.163-.004.016.043.177c.029.107.022.046-.037-.185l-.002-.008Zm-.034-.131.014.053.02.078.013-.055-.01-.018-.017-.028-.02-.03Zm-.009-.028.006.024.003.004-.009-.028Zm-.056-.06.03.039.024.034-.001-.03-.006-.005-.047-.037Zm-.027-.02.027.02-.009-.01c-.184-.216-.378-.3-.018-.01ZM176.444 900.902l-.017-.033a73.639 73.639 0 0 1-2.437 6.15c-1.045 2.345-1.885 5.001-3.561 7.111-2.553 3.25-6.312 5.17-9.966 4.14-1.669-.46-2.968-1.53-3.661-2.99-.692-1.47-.732-3.24-.112-4.989 1.351-4.239 5.191-8.89 8.044-12.688 4.602-6.104 14.304-4 11.71 3.299Zm34.571-10.313c1.334.014 2.553.395 3.513 1.097a4.963 4.963 0 0 1 1.905 2.866l.013-.007c.985 3.483.847 7.366-.399 11.226-.71 1.866-2.073 3.572-3.841 4.806-1.767 1.233-3.822 1.913-5.791 1.923-1.968 0-3.719-.67-4.935-1.9-1.216-1.227-1.815-2.928-1.689-4.793.278-3.824 1.679-7.729 4.049-11.292a9.318 9.318 0 0 1 3.183-2.856c1.274-.697 2.66-1.069 3.992-1.07Zm910.755-19.345c1.57-.002 2.96.528 3.94 1.497.97.969 1.47 2.313 1.39 3.793.04 4.903-1.51 10.023-4.45 14.716-2.73 4.471-9.74 4.267-10.56-.027-.88-4.658-.19-9.757 1.98-14.667.58-1.48 1.68-2.827 3.09-3.8 1.41-.973 3.05-1.509 4.61-1.512Zm182.88 6.624-.02-.034c3.7.776 8.75 1.25 10.27 4.798.39.741.58 1.593.55 2.495-.03.901-.28 1.829-.72 2.714a7.423 7.423 0 0 1-1.81 2.417 7.904 7.904 0 0 1-2.64 1.58c-2.71.781-5.42.634-7.61-.412-1.37-.664-2.5-1.562-3.79-2.284a4.429 4.429 0 0 1-2.42-2.87c-.35-1.274-.17-2.723.51-4.09.69-1.38 1.85-2.581 3.26-3.376 1.42-.795 2.99-1.129 4.42-.938Zm-104.73-14.871-.01-.033a73.674 73.674 0 0 1-2.44 6.15c-1.05 2.345-1.89 5.003-3.56 7.109-2.56 3.254-6.31 5.168-9.97 4.145-1.67-.466-2.97-1.529-3.66-2.995-.69-1.465-.73-3.236-.11-4.987 1.35-4.239 5.19-8.89 8.04-12.688 4.6-6.104 14.31-4 11.71 3.299Zm34.57-10.313c1.34.014 2.56.395 3.52 1.097a4.935 4.935 0 0 1 1.9 2.867l.01-.008c.99 3.483.85 7.366-.39 11.226-.72 1.866-2.08 3.572-3.85 4.806-1.76 1.234-3.82 1.915-5.79 1.92-1.97.004-3.72-.669-4.93-1.897-1.22-1.227-1.82-2.928-1.69-4.793.28-3.824 1.68-7.729 4.05-11.292a9.3 9.3 0 0 1 3.18-2.856c1.27-.697 2.66-1.069 3.99-1.07Zm-961.53-3.187c1.165.153 2.216.571 3.073 1.22a5.53 5.53 0 0 1 1.863 2.522c.37 1.01.461 2.138.266 3.298-.194 1.159-.669 2.318-1.387 3.385-.983 1.716-2.451 3.217-4.206 4.299-1.721 1.024-3.661 1.464-5.424 1.232-1.764-.231-3.219-1.118-4.07-2.48-.86-1.419-1.157-3.156-.848-4.97.092-1.15.469-2.321 1.1-3.423a10.29 10.29 0 0 1 2.541-2.927 10.505 10.505 0 0 1 3.45-1.821c1.231-.374 2.477-.489 3.642-.335Zm-80.455-33.025c1.48.413 2.639 1.348 3.271 2.638.633 1.291.698 2.853.184 4.411a68.008 68.008 0 0 1-3.033 8.253c-1.266 2.992-2.275 6.297-4.354 8.996-6.122 7.945-16.858 4.754-14.564-4.064.799-2.997 3.007-6.029 4.634-8.913a79.856 79.856 0 0 1 4.96-7.723 9.364 9.364 0 0 1 4.086-3.218c1.63-.659 3.335-.793 4.816-.38Zm1103.935-4.88c1.16.153 2.21.571 3.07 1.22.86.65 1.5 1.513 1.86 2.522.37 1.01.46 2.138.27 3.298-.19 1.159-.67 2.318-1.39 3.385-.98 1.716-2.45 3.217-4.2 4.299-1.72 1.024-3.66 1.464-5.43 1.232-1.76-.231-3.22-1.118-4.07-2.479-.86-1.419-1.15-3.157-.85-4.971.1-1.15.47-2.321 1.11-3.423a10.27 10.27 0 0 1 2.54-2.927 10.514 10.514 0 0 1 3.45-1.821c1.23-.374 2.47-.489 3.64-.335Zm-1053.603-5.821c1.47.753 2.711 2.177 3.169 3.864l.036.146.014.01a5.958 5.958 0 0 1 1.789 1.71c.989 1.456 1.295 3.318.861 5.245-.433 1.928-1.576 3.793-3.221 5.253-1.644 1.46-3.679 2.418-5.732 2.699-9.513 1.386-14.058-9.724-6.294-16.733 1.319-1.229 2.941-2.105 4.629-2.5 1.689-.395 3.353-.288 4.749.306Zm-115.418-5.605c.89.116 1.683.457 2.301.99a3.813 3.813 0 0 1 1.229 2.052l-.036-.037a38.21 38.21 0 0 1 .179 7.939c-.199 4.913-6.055 9.239-10.859 8.594-4.804-.644-7.106-6.01-3.876-10.516a57.56 57.56 0 0 1 5.737-7.139 7.288 7.288 0 0 1 2.545-1.558c.933-.33 1.89-.442 2.78-.325Zm116.91 9.108c.354.16.639.411.829.731.143.19.238.318.29.383l.02.024-.135-.334c.131.267.188.382.154.354l-.019-.019.27.668c.009.052-.657 3.503-.083 2.415l.051-.101-.057-.011c.582-1.215.666-2.437.406-3.553l-.013-.05-.228-.134a6.617 6.617 0 0 0-.77-.37l-.215-.082c-.153.05-.566.029-.772-.126l-.033-.027c-.371-.151-.266-.08.305.232Zm-1.007-.454a7.45 7.45 0 0 1 1.45.354l.057.021.018-.006c.136-.065-.123-.221-1.525-.369Zm972.658-30.253c1.48.414 2.64 1.348 3.27 2.639.64 1.29.7 2.852.19 4.411a67.213 67.213 0 0 1-3.04 8.252c-1.26 2.993-2.27 6.297-4.35 8.996-6.12 7.945-16.86 4.754-14.56-4.064.8-2.997 3-6.028 4.63-8.913a79.788 79.788 0 0 1 4.96-7.723 9.39 9.39 0 0 1 4.09-3.218c1.63-.659 3.33-.793 4.81-.38ZM64.13 779.724c2.469.349 4.547 1.524 5.885 3.328 1.251 2.054 1.58 4.618.932 7.247a51.66 51.66 0 0 0-1.26 8.221c-.113 3.006-4.977 5.669-6.912 3.393l.069-.04a38.382 38.382 0 0 0-5.824-5.289c-1.847-1.338-2.977-3.358-3.191-5.705-.214-2.347.502-4.87 2.022-7.127 1.599-2.503 5.552-4.645 8.279-4.028Zm1202.18-11.858c1.506.77 2.77 2.243 3.203 3.983l.006.028.013.009a5.976 5.976 0 0 1 1.788 1.71c.99 1.456 1.3 3.318.86 5.245-.43 1.928-1.57 3.793-3.22 5.253-1.64 1.46-3.68 2.418-5.73 2.699-9.51 1.386-14.06-9.724-6.29-16.733 1.32-1.228 2.94-2.105 4.63-2.5 1.68-.395 3.35-.288 4.74.306Zm-115.41-5.605c.89.117 1.68.458 2.3.991a3.817 3.817 0 0 1 1.23 2.052l-.04-.038c.34 2.581.4 5.239.18 7.939-.2 4.913-6.05 9.239-10.86 8.595-4.8-.645-7.11-6.011-3.87-10.516a56.677 56.677 0 0 1 5.73-7.14 7.296 7.296 0 0 1 2.55-1.558c.93-.329 1.89-.442 2.78-.325Zm116.91 9.108c.35.16.64.411.83.731.141.19.235.318.286.383l.02.025.274.668c0 .052-.663 3.503-.09 2.415l.05-.101-.05-.01a5.324 5.324 0 0 0 .429-3.43l-.04-.173-.228-.135a6.602 6.602 0 0 0-.77-.37l-.213-.081c-.153.05-.567.028-.775-.127l-.033-.027c-.37-.151-.26-.08.31.232Zm1 .804c.147.3.2.408.139.337l-.002-.002-.137-.335Zm-2.01-1.258a7.43 7.43 0 0 1 1.45.354l.058.022.018-.006c.137-.065-.123-.221-1.526-.37Zm-996.133-22.689c3.254 2.664 7.272 5.051 8.37 9.328 1.564 6.156-7.194 12.766-12.933 10.114-4.022-1.856-5.643-6.334-7.652-9.915-.732-1.319-.86-2.95-.359-4.593.5-1.643 1.595-3.187 3.082-4.347 1.488-1.16 3.268-1.858 5.012-1.966 1.744-.108 3.335.382 4.48 1.379Zm816.943-6.407c2.47.349 4.54 1.524 5.88 3.328 1.25 2.055 1.58 4.618.94 7.247a52.514 52.514 0 0 0-1.27 8.222c-.11 3.006-4.97 5.669-6.91 3.392l.07-.039a38.448 38.448 0 0 0-5.82-5.289c-1.85-1.339-2.98-3.359-3.19-5.706-.22-2.347.5-4.87 2.02-7.127 1.6-2.503 5.55-4.645 8.28-4.028Zm-911.885-18.384-.05-.031c.666.384 1.516.603 2.514 1.121a10.042 10.042 0 0 1 3.492 3.251c1.934 2.121 3 4.886 3.059 7.938-.079 6.234-9.813 10.814-13.861 6.793-1.934-2.113-3.007-4.868-3.081-7.911-.262-1.553-.193-3.203.205-4.865.228-.652.501-1.299.815-1.936.079-.187.141-.332.19-.442l.02-.049-.01.015c-.059.07-.083-.018.07-.663.608-2.538 4.638-4.372 6.637-3.221Zm-64.59 9.693c-4.309 11.782-22.851 9.357-18.534-2.444 4.316-11.801 22.832-9.36 18.534 2.444Zm-63.537-10.167a8.733 8.733 0 0 1 3.172 1.847c1.276 1.215 1.94 2.919 1.874 4.808-.066 1.889-.857 3.839-2.234 5.503-2.607 3.113-8.014 5.349-11.187 3.358l.022.045a12.117 12.117 0 0 1-3.906-3.735c-.76-1.376-.951-3.053-.543-4.771.407-1.718 1.392-3.383 2.8-4.738 1.424-1.282 3.152-2.195 4.944-2.61 1.793-.415 3.561-.313 5.058.293Zm1246.552-12.639c3.25 2.663 7.27 5.05 8.37 9.328 1.56 6.156-7.2 12.765-12.94 10.114-4.02-1.857-5.64-6.335-7.65-9.915-.73-1.319-.86-2.951-.36-4.594.5-1.643 1.6-3.187 3.08-4.347 1.49-1.16 3.27-1.858 5.01-1.966 1.75-.108 3.34.382 4.49 1.38Zm-1125.1 16.932-.023.05.007-.008c.087-.13.213-.483.017-.042Zm79.124-36.182-.062.05a43.983 43.983 0 0 1-1.899 8.843 9.005 9.005 0 0 1-1.496 2.89 10.407 10.407 0 0 1-2.498 2.33 10.134 10.134 0 0 1-3.089 1.385 8.386 8.386 0 0 1-3.167.211c-1.014-.135-1.941-.475-2.725-.997a5.448 5.448 0 0 1-1.831-2.041 5.907 5.907 0 0 1-.635-2.747c.005-.989.231-2.01.665-3.001a53.276 53.276 0 0 1 4.455-8.523c3.436-5.848 13.285-4.596 12.282 1.6Zm951.026-5.542-.05-.03c.67.383 1.52.603 2.52 1.12 1.43.811 2.62 1.915 3.49 3.251 1.93 2.121 3 4.887 3.06 7.938-.08 6.234-9.81 10.815-13.86 6.794-1.94-2.114-3.01-4.868-3.08-7.911-.27-1.554-.2-3.204.2-4.865.23-.653.5-1.3.82-1.936.078-.187.14-.332.188-.442l.02-.05-.009.015c-.058.07-.082-.018.071-.663.6-2.537 4.63-4.372 6.63-3.221Zm-64.59 9.693c-4.31 11.782-22.85 9.357-18.53-2.443 4.32-11.801 22.83-9.361 18.53 2.443Zm-63.53-10.166a8.744 8.744 0 0 1 3.17 1.847c1.27 1.214 1.94 2.918 1.87 4.807-.06 1.889-.85 3.84-2.23 5.504-2.61 3.113-8.02 5.349-11.19 3.358l.02.045a12.088 12.088 0 0 1-3.9-3.735c-.76-1.377-.95-3.054-.55-4.772.41-1.718 1.4-3.383 2.8-4.737 1.43-1.283 3.16-2.195 4.95-2.61 1.79-.416 3.56-.313 5.06.293Zm121.451 4.293-.022.05.007-.009c.085-.13.21-.482.015-.041ZM85.057 665.287c.283 1.681.375 3.421.276 5.194a34.147 34.147 0 0 0-.436 3.924c.053 2.886-4.283 5.531-6.683 4.208l-.036-.038a32.747 32.747 0 0 0-3.582-1.344 20.743 20.743 0 0 1-4.302-2.668c-3.824-2.869-1.777-9.568 2.875-12.496 4.652-2.928 11.16-1.612 11.888 3.22Zm1186.593-12.119-.06.05c-.31 2.936-.95 5.899-1.9 8.842a9.138 9.138 0 0 1-1.49 2.89c-.69.898-1.54 1.691-2.5 2.33s-2.02 1.11-3.09 1.385c-1.08.274-2.16.346-3.17.211-1.01-.135-1.94-.474-2.72-.997a5.344 5.344 0 0 1-1.83-2.04 5.781 5.781 0 0 1-.64-2.748c.01-.989.23-2.01.67-3.001a52.24 52.24 0 0 1 4.45-8.522c3.44-5.848 13.29-4.596 12.28 1.6Zm-1106.709 5.073c-3.699 10.036-19.435 7.958-15.768-2.074 3.667-10.031 19.429-7.969 15.768 2.074Zm943.599-30.858c.28 1.68.37 3.42.27 5.193a33.048 33.048 0 0 0-.43 3.924c.05 2.886-4.29 5.531-6.69 4.208l-.03-.038a32.931 32.931 0 0 0-3.59-1.344c-1.56-.726-3-1.62-4.3-2.668-3.82-2.869-1.77-9.568 2.88-12.496 4.65-2.927 11.16-1.611 11.89 3.221Zm79.88-7.046c-3.7 10.036-19.44 7.957-15.77-2.075 3.67-10.031 19.43-7.968 15.77 2.075Zm-954.883-18.648c4.021.55 5.425 4.015 4.457 7.789-1.197 4.611-4.702 9.205-7.601 13.307a6.39 6.39 0 0 1-2.481 2.085c-.992.471-2.054.655-3.028.526-.974-.128-1.809-.564-2.382-1.241-.572-.677-.852-1.56-.797-2.518.22-4.455.22-9.534 2.362-13.981 1.756-3.648 5.449-6.517 9.47-5.967Zm-123.958-20.487c1.936.259 3.521 1.25 4.42 2.765 1.633 2.857 3.239 6.124 3.137 9.709-.087.987-.59 1.985-1.4 2.778-.809.792-1.859 1.314-2.921 1.452-3.82-.132-7.367-1.106-10.367-2.847-3.192-1.627-4.541-5.875-1.856-9.535a10.701 10.701 0 0 1 3.038-2.94c1.879-1.144 4.013-1.64 5.949-1.382Zm1147.441-17.418c4.02.55 5.42 4.016 4.45 7.789-1.19 4.611-4.7 9.205-7.6 13.307a6.42 6.42 0 0 1-2.48 2.086c-.99.47-2.05.654-3.03.526-.97-.129-1.81-.564-2.38-1.241-.57-.677-.85-1.561-.8-2.519.22-4.455.22-9.534 2.37-13.981 1.75-3.648 5.44-6.517 9.47-5.967Zm-123.96-20.486c1.93.258 3.52 1.25 4.42 2.764 1.63 2.857 3.24 6.124 3.13 9.71-.08.986-.59 1.985-1.4 2.777-.81.793-1.86 1.315-2.92 1.453-3.82-.133-7.36-1.107-10.36-2.848-3.2-1.627-4.55-5.875-1.86-9.535a10.735 10.735 0 0 1 3.04-2.94c1.88-1.144 4.01-1.64 5.95-1.381Zm31.18-19.647a10.01 10.01 0 0 1 4.04 2.141c1.18 1.024 2.08 2.286 2.61 3.637 1.22 3.024 1.94 6.109 2.16 9.142.41 3.618.22 7.389-2.67 9.465-1.3 1.097-3.12 1.581-5.08 1.352-1.96-.229-3.92-1.153-5.46-2.581-3.49-3.268-4.19-7.112-4.21-10.969-.104-3.211.342-6.305 1.337-9.165l.193-.534-.07-.039c1.01-2.38 4.39-3.086 7.15-2.449ZM46.625 512.597a9.998 9.998 0 0 1 4.037 2.141c1.178 1.024 2.085 2.286 2.611 3.637 1.214 3.024 1.943 6.109 2.161 9.141.411 3.619.222 7.39-2.67 9.466-1.3 1.097-3.12 1.581-5.083 1.352-1.963-.229-3.919-1.153-5.462-2.582-3.488-3.267-4.19-7.111-4.204-10.968-.108-3.211.342-6.306 1.333-9.166l.192-.533-.068-.039c1.012-2.381 4.386-3.087 7.153-2.449Zm1141.476-57.801-.011.343-.06 1.134c-.395 6.296-7.599 7.35-12.363 1.86l-.177-.209-.84-.999v-.011c-8.593-10.36 13.599-13.308 13.451-2.118ZM70.481 443.742l-.011.343-.056 1.133c-.396 6.297-7.604 7.351-12.37 1.86l-.177-.209-.838-.999.006-.011c-8.592-10.358 13.597-13.308 13.446-2.117Zm1143.939-28.575a9.121 9.121 0 0 1 3.77 2.707c.99 1.207 1.6 2.603 1.72 3.98.26 1.979.21 3.922-.14 5.766-.62 2.438-2.21 4.403-4.49 5.55-3.42 2.075-8.79-1.293-10.24-4.971-1.757-4.376-.446-7.747 1.887-10.824l.173-.225-.02.004c.68-1.063 1.76-1.825 3.07-2.181 1.31-.356 2.8-.288 4.27.194ZM96.799 404.113a9.093 9.093 0 0 1 3.771 2.707c.991 1.206 1.597 2.603 1.725 3.979.26 1.98.211 3.922-.146 5.767-.621 2.438-2.208 4.402-4.484 5.549-3.426 2.075-8.797-1.293-10.239-4.971-1.76-4.376-.447-7.746 1.885-10.823l.172-.225-.019.003c.681-1.063 1.753-1.825 3.067-2.181 1.314-.356 2.806-.288 4.268.195ZM1149.5 389.171c4.03 2.25 6.05 6.511 6.44 10.341.42 4.281-1.83 9.363-6.86 9.393-1.09.106-2.25-.021-3.4-.373a10.42 10.42 0 0 1-3.22-1.664 9.265 9.265 0 0 1-2.49-2.724c-.61-1.042-.96-2.157-1.02-3.245-.05-1.356.2-2.646.74-3.793l.073-.114.062-.093.012-.029c.163-.372.348-.732.556-1.078l.217-.342.014-.027-.024-.106a4.692 4.692 0 0 1-.201-.894l-.019-.222-.1-.992-.09-.005c-.74-4.879 5.29-6.283 9.31-4.033ZM31.884 378.117c4.026 2.249 6.053 6.51 6.442 10.341.412 4.28-1.838 9.362-6.861 9.393-1.096.106-2.256-.021-3.399-.373a10.456 10.456 0 0 1-3.227-1.665 9.183 9.183 0 0 1-2.482-2.724c-.613-1.041-.966-2.157-1.028-3.245-.048-1.355.206-2.646.745-3.792.04-.065.074-.118.102-.159l.026-.039-.14.338c-.05.127-.096.255-.141.384.112-.228.519-1.057.292-.737l-.01.013.016-.036c.164-.372.35-.732.557-1.078l.215-.342.018-.035-.022-.099a4.3 4.3 0 0 1-.195-.837l-.026-.278-.106-.992-.085-.005c-.746-4.88 5.283-6.283 9.309-4.033Zm1107.946 18.776-.005.006-.143.347c-.05.127-.097.255-.142.384l.05-.103c.15-.304.442-.916.24-.634Zm.867-1.51-.011.035-.008.238-.027-.11-.01.052c-.053.249-.084.562.019.596l.017-.536.023.095c.09-.53.051-.54-.003-.37Zm-.058.103-.015.059c-.054.217-.043.219.009.001l.009-.044-.003-.016Zm.05-.17-.007.01-.013.063-.02.085-.007.028.01.042.03-.116.004-.01.003-.101Zm-.01.014a1.22 1.22 0 0 0-.038.062l-.017.03.015.064.003-.013.022-.085.016-.058Zm.003-.012-.002.012.002-.004v-.008Zm.057-.066-.049.039-.001.026.024-.032.026-.033Zm.052-.06-.052.06.035-.028c.329-.265.186-.214.017-.032ZM23.037 384.485l-.012.058c-.052.25-.083.562.02.596l.014-.559-.022-.095Zm.03-.111-.003.005.003-.111-.008.011-.01.056-.02.085-.004.012.012.053.016-.06.011-.045-.005.2.028.118c.095-.573.041-.536-.02-.324Zm-.046.04c-.073.291-.065.317-.008.078l.012-.06-.004-.018Zm.034-.129-.033.053-.013.023.012.053.022-.08.012-.049Zm.007-.023-.007.023.004-.006.003-.017Zm.065-.072-.058.047-.002.031.028-.038.032-.04Zm.008-.008-.008.008.027-.02c.356-.286.165-.205-.02.012Zm1288.545-44.937c1.57.002 3.2.538 4.62 1.511 1.41.973 2.5 2.32 3.09 3.8 2.17 4.91 2.86 10.009 1.98 14.667-.82 4.294-7.83 4.498-10.56.027-2.94-4.693-4.49-9.813-4.45-14.716-.08-1.48.41-2.824 1.39-3.793.97-.969 2.37-1.499 3.93-1.496Zm-178.45 7.561c1.41.795 2.57 1.996 3.26 3.376.68 1.367.86 2.816.51 4.09a4.429 4.429 0 0 1-2.42 2.87c-1.29.722-2.42 1.62-3.79 2.284-2.19 1.046-4.9 1.193-7.61.412a7.904 7.904 0 0 1-2.64-1.58 7.434 7.434 0 0 1-1.81-2.417 6.482 6.482 0 0 1-.72-2.714c-.03-.902.16-1.754.55-2.495 1.485-3.465 6.337-3.998 10.01-4.744l.26-.054-.02.034c1.43-.191 3 .143 4.42.938ZM194.067 328.19c1.565.003 3.199.538 4.611 1.511 1.412.973 2.508 2.32 3.095 3.801 2.168 4.91 2.856 10.008 1.979 14.667-.818 4.293-7.83 4.498-10.563.027-2.941-4.693-4.487-9.814-4.445-14.716-.079-1.48.412-2.824 1.387-3.793.976-.969 2.37-1.5 3.936-1.497Zm-178.458 7.562c1.414.795 2.573 1.996 3.259 3.376.68 1.367.862 2.816.514 4.09s-1.205 2.29-2.417 2.869c-1.292.722-2.427 1.621-3.794 2.285-2.19 1.046-4.902 1.192-7.613.412a7.978 7.978 0 0 1-2.641-1.58 7.493 7.493 0 0 1-1.803-2.417c-.448-.886-.696-1.813-.726-2.715-.03-.901.16-1.754.556-2.495 1.479-3.465 6.338-3.997 10.007-4.744l.26-.054-.017.034c1.43-.19 3.001.144 4.415.939Zm1229.641-8.054c2.85 3.798 6.69 8.449 8.04 12.688.62 1.751.58 3.522-.11 4.987-.69 1.466-1.99 2.529-3.66 2.995-3.66 1.023-7.42-.891-9.97-4.145-1.67-2.106-2.51-4.764-3.56-7.109a73.41 73.41 0 0 1-2.077-5.124l-.363-1.026-.01.033c-2.6-7.299 7.1-9.403 11.71-3.299Zm-46.28-7.014c1.33.001 2.71.373 3.99 1.07a9.292 9.292 0 0 1 3.18 2.857c2.37 3.562 3.77 7.467 4.05 11.291.13 1.865-.47 3.566-1.69 4.793-1.22 1.228-2.97 1.901-4.93 1.897-1.97-.005-4.03-.686-5.8-1.92-1.76-1.234-3.13-2.939-3.84-4.806-1.19-3.705-1.367-7.432-.512-10.806l.112-.42.02.008a4.93 4.93 0 0 1 1.9-2.866c.96-.703 2.18-1.084 3.52-1.098Zm-1071.342-4.04c2.853 3.798 6.693 8.449 8.044 12.687.621 1.752.581 3.522-.112 4.988-.693 1.466-1.992 2.528-3.661 2.994-3.654 1.023-7.412-.89-9.966-4.144-1.676-2.107-2.516-4.764-3.561-7.11a73.81 73.81 0 0 1-2.074-5.124l-.363-1.026-.016.034c-2.595-7.299 7.107-9.403 11.709-3.299Zm-46.281-7.015c1.332.002 2.719.374 3.992 1.071a9.309 9.309 0 0 1 3.183 2.856c2.37 3.563 3.771 7.468 4.05 11.292.125 1.864-.474 3.565-1.69 4.793-1.215 1.228-2.967 1.901-4.935 1.896-1.968-.004-4.023-.685-5.791-1.92-1.767-1.234-3.13-2.939-3.841-4.805-1.195-3.706-1.37-7.432-.512-10.807l.113-.42.014.008a4.963 4.963 0 0 1 1.904-2.866c.96-.702 2.179-1.083 3.513-1.098Zm1059.313-29.702c1.23.374 2.41.997 3.45 1.821 1.04.823 1.91 1.825 2.54 2.927.63 1.102 1.01 2.273 1.1 3.423.31 1.814.02 3.551-.84 4.97-.86 1.362-2.31 2.248-4.07 2.48-1.77.232-3.71-.208-5.43-1.232-1.75-1.082-3.22-2.583-4.2-4.299-.72-1.068-1.2-2.226-1.39-3.386-.2-1.159-.11-2.287.26-3.297a5.518 5.518 0 0 1 1.87-2.522c.85-.649 1.91-1.067 3.07-1.22 1.17-.154 2.41-.039 3.64.335ZM23.044 268.872a10.52 10.52 0 0 1 3.451 1.821 10.33 10.33 0 0 1 2.54 2.927c.632 1.102 1.009 2.274 1.101 3.424.308 1.813.012 3.551-.849 4.97-.851 1.361-2.306 2.248-4.07 2.48-1.763.232-3.703-.209-5.424-1.232-1.755-1.083-3.223-2.583-4.206-4.3-.718-1.067-1.192-2.226-1.387-3.385-.195-1.159-.104-2.288.266-3.297a5.52 5.52 0 0 1 1.863-2.522c.857-.65 1.909-1.067 3.073-1.221 1.165-.154 2.411-.039 3.642.335Zm1199.246-21.925a9.375 9.375 0 0 1 4.09 3.218 81.61 81.61 0 0 1 4.96 7.723c1.62 2.884 3.83 5.916 4.63 8.913 2.3 8.818-8.44 12.009-14.56 4.064-2.08-2.699-3.09-6.003-4.36-8.996a68.775 68.775 0 0 1-3.03-8.253c-.51-1.558-.45-3.12.18-4.41.64-1.291 1.8-2.225 3.28-2.639 1.48-.413 3.18-.279 4.81.38ZM104.673 235.892a9.373 9.373 0 0 1 4.086 3.219 79.477 79.477 0 0 1 4.96 7.723c1.627 2.884 3.835 5.915 4.634 8.913 2.294 8.817-8.442 12.009-14.564 4.064-2.079-2.699-3.088-6.004-4.353-8.996a67.848 67.848 0 0 1-3.034-8.253c-.514-1.558-.449-3.121.184-4.411.632-1.29 1.791-2.225 3.272-2.638 1.48-.414 3.186-.279 4.815.379Zm1067.217-.332c1.69.395 3.31 1.272 4.63 2.5 7.77 7.009 3.22 18.119-6.29 16.733-2.06-.281-4.09-1.239-5.73-2.699-1.65-1.46-2.79-3.325-3.23-5.253-.43-1.927-.12-3.789.87-5.245a5.895 5.895 0 0 1 1.784-1.71l.014-.01.006-.027c.413-1.673 1.595-3.098 3.023-3.891l.173-.092c1.4-.594 3.06-.701 4.75-.306Zm113.45-4.974c.93.33 1.81.866 2.55 1.558a57.501 57.501 0 0 1 5.73 7.139c3.23 4.506.93 9.872-3.87 10.516-4.81.645-10.66-3.681-10.86-8.594-.198-2.43-.17-4.826.086-7.162l.094-.777-.04.037a3.82 3.82 0 0 1 1.23-2.052c.62-.533 1.41-.874 2.3-.99.89-.117 1.85-.005 2.78.325Zm-1231.066-6.08c1.688.395 3.311 1.271 4.629 2.5 7.765 7.008 3.219 18.118-6.293 16.732-2.054-.281-4.089-1.239-5.733-2.699-1.644-1.46-2.788-3.324-3.221-5.252-.433-1.928-.128-3.79.861-5.246a5.964 5.964 0 0 1 1.789-1.71l.012-.009.038-.147c.44-1.622 1.604-3 3.001-3.774l.169-.09c1.395-.593 3.06-.7 4.748-.305Zm1111.686 14.631c-.195.18-.647.207-.804.156l-.006-.002-.213.08a6.616 6.616 0 0 0-.771.371l-.228.134-.04.174c-.225 1.083-.126 2.26.432 3.43l-.06.01c.67 1.383-.04-2.261-.03-2.314l.274-.671.02-.022c.051-.065.145-.193.286-.383.19-.32.48-.571.83-.731.57-.312.68-.383.31-.232Zm-1.31 1.036-.136.332c-.058.07-.02-.012.095-.248l.041-.084Zm2.01-1.258c-1.403.149-1.663.305-1.526.37l.016.006.058-.022c.275-.098.56-.18.854-.245l.296-.06.302-.049Zm-998.937-19.383c.933.329 1.81.866 2.545 1.557a57.644 57.644 0 0 1 5.737 7.14c3.231 4.505.929 9.871-3.876 10.516-4.804.644-10.66-3.681-10.859-8.594a38.439 38.439 0 0 1 .087-7.163l.092-.776-.036.037a3.819 3.819 0 0 1 1.229-2.052c.619-.533 1.411-.874 2.301-.991.89-.116 1.848-.004 2.78.326Zm1186.407-5.685c1.52 2.257 2.24 4.78 2.02 7.127-.21 2.347-1.34 4.367-3.19 5.706a38.579 38.579 0 0 0-5.292 4.71l-.528.579.07.039c-1.94 2.277-6.8-.387-6.92-3.392-.19-2.721-.61-5.47-1.26-8.222-.65-2.629-.32-5.192.94-7.247 1.33-1.804 3.41-2.979 5.88-3.328 2.73-.617 6.68 1.525 8.28 4.028ZM48.339 228.083c-.193.179-.644.206-.8.155l-.009-.003-.211.082a6.62 6.62 0 0 0-.771.37l-.23.135-.011.05c-.26 1.115-.176 2.338.406 3.553l-.057.011c.663 1.382-.041-2.261-.032-2.314l.27-.67.02-.024c.053-.064.148-.193.29-.383.191-.319.476-.57.829-.731.572-.311.676-.382.306-.231Zm-1.31 1.036-.135.333c-.06.068-.022-.013.094-.249l.041-.084Zm2.011-1.259c-1.402.149-1.661.305-1.524.37l.014.005.06-.021c.274-.098.559-.18.852-.245l.296-.06.302-.049Zm187.472-25.068c1.519 2.257 2.235 4.781 2.021 7.128-.213 2.347-1.343 4.367-3.191 5.705a38.559 38.559 0 0 0-5.295 4.71l-.529.579.069.04c-1.935 2.276-6.799-.387-6.911-3.393a51.759 51.759 0 0 0-1.261-8.221c-.648-2.629-.319-5.193.932-7.248 1.339-1.803 3.416-2.978 5.885-3.327 2.728-.617 6.681 1.525 8.28 4.027Zm907.278-25.85c1.75.108 3.53.806 5.02 1.966 1.48 1.16 2.58 2.704 3.08 4.347.5 1.643.37 3.274-.36 4.594-2.01 3.58-3.63 8.058-7.65 9.914-5.74 2.652-14.5-3.957-12.94-10.113 1.1-4.278 5.12-6.665 8.37-9.328 1.15-.998 2.74-1.488 4.48-1.38ZM26.175 165.887c1.745.108 3.525.806 5.012 1.967 1.487 1.16 2.582 2.703 3.083 4.346.5 1.643.372 3.275-.36 4.594-2.009 3.58-3.63 8.058-7.652 9.915-5.739 2.652-14.497-3.958-12.933-10.114 1.098-4.278 5.117-6.665 8.37-9.328 1.145-.997 2.736-1.487 4.48-1.38Zm1214.715-9.136c.153.645.129.732.071.663l-.01-.014.021.048.115.269.073.173c.32.637.59 1.284.82 1.936.4 1.662.46 3.312.2 4.866-.07 3.042-1.14 5.797-3.08 7.911-4.05 4.021-13.78-.56-13.86-6.794.06-3.052 1.13-5.817 3.06-7.938.87-1.336 2.06-2.44 3.49-3.251.889-.46 1.66-.685 2.29-.998l.23-.123-.05.031c1.99-1.151 6.02.683 6.63 3.221Zm76.49 4.028c4.32 11.801-14.23 14.226-18.54 2.444-4.29-11.804 14.22-14.244 18.54-2.444Zm50.06-8.016c1.79.416 3.52 1.328 4.94 2.611 1.41 1.354 2.4 3.019 2.8 4.737.41 1.718.22 3.395-.54 4.771a12.053 12.053 0 0 1-3.548 3.509l-.362.226.03-.045c-3.18 1.991-8.58-.245-11.19-3.358-1.38-1.664-2.17-3.614-2.23-5.503-.07-1.889.59-3.593 1.87-4.807a8.746 8.746 0 0 1 3.17-1.848c1.5-.606 3.27-.708 5.06-.293Zm-1244.166-7.066c.153.645.129.732.07.663l-.012-.016.023.05.116.269.073.173c.315.637.587 1.283.816 1.936.397 1.661.466 3.311.204 4.865-.074 3.043-1.146 5.798-3.081 7.911-4.048 4.021-13.782-.559-13.861-6.793.059-3.052 1.125-5.817 3.059-7.939a10.05 10.05 0 0 1 3.492-3.251c.887-.46 1.657-.684 2.286-.997l.229-.123-.05.03c1.998-1.15 6.029.684 6.636 3.222Zm76.488 4.028c4.316 11.801-14.226 14.226-18.535 2.444-4.298-11.804 14.218-14.245 18.535-2.444Zm50.059-8.016c1.792.415 3.52 1.327 4.944 2.61 1.409 1.355 2.393 3.019 2.801 4.737.408 1.719.217 3.395-.544 4.772a12.084 12.084 0 0 1-3.544 3.508l-.362.227.022-.045c-3.172 1.991-8.579-.245-11.187-3.358-1.376-1.664-2.168-3.615-2.234-5.504-.066-1.889.599-3.593 1.875-4.807a8.72 8.72 0 0 1 3.171-1.847c1.498-.606 3.266-.709 5.058-.293Zm991.123 15.682.007.009-.022-.051c-.196-.441-.07-.088.015.042ZM123.328 146.337l.004.007-.02-.05c-.197-.44-.071-.087.016.043Zm1050.762-26.77c1.76 2.751 3.26 5.607 4.45 8.523.44.991.66 2.012.67 3.001 0 .989-.21 1.924-.64 2.747a5.34 5.34 0 0 1-1.83 2.041c-.78.523-1.71.862-2.72.997-1.02.135-2.09.063-3.17-.211a10.096 10.096 0 0 1-3.09-1.385 10.491 10.491 0 0 1-2.5-2.33 9.138 9.138 0 0 1-1.49-2.89 44.123 44.123 0 0 1-1.807-8.041l-.093-.802-.06-.05c-1.01-6.196 8.84-7.448 12.28-1.6ZM56.47 108.513a53.233 53.233 0 0 1 4.455 8.523c.434.99.66 2.011.665 3a5.899 5.899 0 0 1-.635 2.748 5.44 5.44 0 0 1-1.831 2.041c-.784.522-1.711.861-2.724.997a8.37 8.37 0 0 1-3.168-.212 10.115 10.115 0 0 1-3.088-1.385 10.412 10.412 0 0 1-2.499-2.33 9.01 9.01 0 0 1-1.496-2.889 44.289 44.289 0 0 1-1.806-8.042l-.093-.801-.062-.05c-1.003-6.196 8.847-7.448 12.282-1.6Zm1280.34-16.351c4.65 2.928 6.7 9.627 2.88 12.496a20.624 20.624 0 0 1-4.31 2.667c-.984.306-1.942.655-2.88 1.045l-.7.3-.03.038c-2.4 1.323-6.74-1.322-6.69-4.208a33.048 33.048 0 0 0-.43-3.924c-.1-1.773-.01-3.513.27-5.194.73-4.832 7.24-6.148 11.89-3.22ZM219.193 81.108c4.652 2.928 6.699 9.627 2.876 12.496a20.723 20.723 0 0 1-4.302 2.667c-.986.306-1.95.655-2.886 1.045l-.697.3-.036.037c-2.399 1.323-6.735-1.322-6.683-4.208a34.367 34.367 0 0 0-.435-3.924c-.1-1.773-.007-3.512.275-5.193.728-4.832 7.236-6.148 11.888-3.22Zm1041.617 5.154c3.66 10.032-12.07 12.11-15.77 2.074-3.66-10.043 12.1-12.105 15.77-2.074ZM143.189 75.208c3.667 10.031-12.068 12.11-15.767 2.074-3.662-10.043 12.101-12.106 15.767-2.074ZM1185.91 37.751c2.14 4.447 2.14 9.526 2.36 13.98.06.959-.22 1.842-.79 2.519-.58.677-1.41 1.113-2.38 1.241-.98.129-2.04-.055-3.03-.526a6.409 6.409 0 0 1-2.48-2.085c-2.9-4.102-6.41-8.696-7.6-13.307-.97-3.774.43-7.239 4.45-7.789 4.02-.55 7.72 2.319 9.47 5.967ZM68.295 26.697c2.142 4.446 2.142 9.525 2.362 13.98.055.959-.224 1.842-.797 2.519-.572.677-1.407 1.112-2.381 1.241-.975.129-2.036-.056-3.029-.526a6.401 6.401 0 0 1-2.481-2.086c-2.899-4.102-6.404-8.695-7.601-13.307-.968-3.773.437-7.238 4.457-7.788 4.021-.551 7.714 2.319 9.47 5.967ZM1306.35 12.679c1.21.778 2.25 1.788 3.04 2.94 2.68 3.66 1.33 7.908-1.86 9.535-3 1.741-6.54 2.715-10.36 2.848-1.07-.138-2.12-.661-2.93-1.453s-1.31-1.791-1.4-2.778c-.1-3.585 1.51-6.852 3.14-9.709.9-1.515 2.49-2.506 4.42-2.765 1.94-.258 4.07.238 5.95 1.382ZM188.732 1.625a10.684 10.684 0 0 1 3.039 2.94c2.685 3.659 1.335 7.907-1.856 9.535-3.001 1.741-6.548 2.715-10.368 2.847-1.062-.138-2.112-.66-2.921-1.453-.809-.792-1.313-1.79-1.4-2.777-.101-3.586 1.505-6.853 3.137-9.71.899-1.514 2.485-2.506 4.421-2.764 1.936-.258 4.069.237 5.948 1.382ZM131.396 412.99l-.468.321c-6.09 4.162 1.916 14.699 9.119 13.753 8.314-1.102 6.056-11.233-1.293-14.774l-.605-.347c-1.258-.49-2.564-.664-3.772-.503-1.208.16-2.271.65-3.069 1.413l-.364.424c-4.202 5.058.806 14.854 9.12 13.753 7.166-.94 7.216-12.51-1.293-14.774-1.326-.479-2.69-.666-3.972-.544-1.283.122-2.445.549-3.387 1.244l-.016.034ZM181.397 1463.04l-.468.33c-6.09 4.16 1.916 14.69 9.119 13.75 8.314-1.1 6.056-11.23-1.293-14.78l-.605-.34c-1.258-.49-2.564-.67-3.772-.51-1.208.16-2.271.65-3.069 1.42l-.364.42c-4.202 5.06.806 14.86 9.12 13.75 7.166-.93 7.216-12.51-1.293-14.77-1.327-.48-2.69-.67-3.972-.54-1.283.12-2.445.55-3.387 1.24l-.016.03ZM160.967 993.95l.467.32c6.09 4.16-1.916 14.7-9.119 13.75-8.314-1.1-6.056-11.23 1.293-14.77l.606-.35c1.258-.49 2.563-.66 3.771-.5 1.208.16 2.271.65 3.07 1.41l.363.43c4.202 5.05-.806 14.85-9.12 13.75-7.165-.94-7.215-12.51 1.294-14.77 1.326-.48 2.689-.67 3.972-.55 1.282.12 2.444.55 3.386 1.25l.017.03ZM1249.01 424.044l-.46.322c-6.09 4.161 1.91 14.699 9.12 13.752 8.31-1.101 6.05-11.233-1.3-14.774l-.6-.347c-1.26-.49-2.57-.664-3.77-.503-1.21.161-2.28.65-3.07 1.413l-.37.425c-4.2 5.058.81 14.854 9.12 13.752 7.17-.939 7.22-12.51-1.29-14.773-1.33-.48-2.69-.666-3.97-.544-1.29.121-2.45.548-3.39 1.243l-.02.034ZM1033.3 1364.68l-.58-.24c-7.48-3.11-13.25 7.58-8.27 12.89 5.76 6.14 14.36.17 13.67-7.11v-.62c-.23-1.2-.8-2.3-1.63-3.2a6.505 6.505 0 0 0-3.11-1.84l-.62-.12c-7.29-1.24-14.02 6.76-8.27 12.89 4.95 5.29 16.26.57 13.67-7.11-.27-1.25-.86-2.4-1.7-3.37a7.86 7.86 0 0 0-3.12-2.17h-.04ZM1184.44 956.04l.47.33c6.09 4.16-1.91 14.69-9.12 13.75-8.31-1.1-6.05-11.23 1.3-14.78l.6-.34c1.26-.49 2.57-.67 3.77-.51 1.21.16 2.27.65 3.07 1.42l.37.42c4.2 5.06-.81 14.86-9.12 13.75-7.17-.94-7.22-12.51 1.29-14.77 1.33-.48 2.69-.67 3.97-.54 1.28.12 2.45.55 3.39 1.24l.01.03Z"/></g></svg>