<svg width="313" height="285" viewBox="0 0 313 285" xmlns="http://www.w3.org/2000/svg"><path d="M59.72 0c.75 2.52-3.22 6.56-9.84 12.92a63.297 63.297 0 0 0-6.43 6.67A164.852 164.852 0 0 0 23 61.36c-2.19 7.08-5 14.11-7.63 20.9-3.73 9.5-7.6 19.32-9.87 29.3a90.66 90.66 0 0 0-1.83 29.12c.26 2.61.44 5.39.62 8.23.41 6.54.85 13.31 2.31 19.08 5.71 22.41 25.18 51.85 43.4 65.63l4.55 3.45c16.87 12.79 34.31 26 53.77 33.86 14.31 5.77 33.46 12.26 54.63 11.23l3-.15c12.47-.61 25.36-1.24 37.81-.76 2.14.09 4.28.21 6.43.34 7.19.43 14.63.87 21.79-.43 38.11-6.92 70.18-44.05 79.1-55.27l1.77 1.41c-9 11.38-41.57 49-80.47 56.09-7.42 1.35-15 .9-22.32.46-2.13-.12-4.26-.25-6.39-.33-12.35-.48-25.19.15-37.61.76l-3 .15c-21.61 1.05-41.06-5.54-55.59-11.4-19.74-7.95-37.3-21.27-54.29-34.16l-4.55-3.44c-18.61-14-38.45-44.05-44.22-66.88-1.51-6-1.95-12.85-2.38-19.49-.18-2.82-.35-5.57-.61-8.16a93.11 93.11 0 0 1 1.87-29.84c2.32-10.15 6.22-20 10-29.63 2.66-6.75 5.41-13.74 7.57-20.74A166.912 166.912 0 0 1 41.59 18.3a61.416 61.416 0 0 1 6.72-7c3.32-3.21 9.52-9.16 9.24-10.66L59.72 0Zm18.15 3.44 2.19.49C79 8.84 75.3 13.34 71.73 17.69c-1.5 1.84-2.93 3.58-4.13 5.32-5.16 7.43-9.27 15.85-13.25 24-.84 1.71-1.67 3.42-2.51 5.11-1.13 2.29-2.29 4.57-3.45 6.86-7.5 14.82-15.26 30.14-17.17 46.54-.67 5.66-2.42 10.63-4.12 15.45-.9 2.54-1.82 5.17-2.58 7.87-2.32 8.27-2.05 20.26-1.68 26.67 1.51 26.56 21.33 50.3 29.78 59.28 6.17 6.55 13.76 11.52 21.1 16.33 1.72 1.12 3.437 2.253 5.15 3.4 3.61 2.48 7.13 5.18 10.43 7.82 5.34 4.21 10.86 8.57 17 11.66 17.87 9 37 10.46 51.59 10.7a194.306 194.306 0 0 0 23.73-1.56c10.39-1.12 21.13-2.27 31.92-1.08 11.07 1.22 20.1 1.47 30.88-1.06 8.58-2 14.84-7.23 21.47-12.76 2.63-2.19 5.35-4.46 8.22-6.51 4.42-3.15 8.84-7.54 13.12-11.79 6.43-6.38 13.08-13 20.25-16l.88 2.09c-6.77 2.85-13.26 9.3-19.53 15.53-4.34 4.31-8.83 8.77-13.4 12-2.8 2-5.49 4.24-8.08 6.4-6.55 5.46-13.31 11.1-22.41 13.23-11.06 2.6-20.65 2.32-31.65 1.11-10.54-1.17-21.16 0-31.43 1.07a196.123 196.123 0 0 1-24 1.58c-14.87-.25-34.29-1.71-52.57-10.94-6.32-3.2-11.94-7.63-17.37-11.91-3.31-2.62-6.74-5.32-10.29-7.71-1.69-1.14-3.41-2.26-5.12-3.39-7.51-4.86-15.18-9.9-21.51-16.65-8.62-9.16-28.84-33.4-30.4-60.7-.37-6.55-.64-18.82 1.77-27.41.77-2.78 1.71-5.44 2.62-8 1.73-4.91 3.37-9.55 4-15C30.93 88.47 38.78 73 46.37 58c1.15-2.29 2.31-4.57 3.44-6.84.83-1.69 1.67-3.4 2.5-5.11 4-8.23 8.17-16.74 13.43-24.31C67 19.9 68.51 18.05 70 16.25c3.39-4.14 6.9-8.42 7.87-12.81Zm7.39 11.21 2.1.86C82.15 27.78 76 40.23 70.09 52.26c-8 16.18-16.21 32.91-22.56 49.82-8.84 23.56-4.81 58 9.38 80 19.09 29.72 40.21 47.21 70.66 58.51 26.51 9.84 59.44 14.6 92.71 13.39 31.91-1.16 54.6-23.49 76.92-48.25l1.69 1.52c-22.67 25.14-45.73 47.8-78.53 49-33.56 1.22-66.79-3.58-93.58-13.53-30.94-11.49-52.41-29.24-71.78-59.37-14.55-22.62-18.68-57.9-9.6-82.07 6.38-17 14.65-33.79 22.64-50 5.92-12 12-24.42 17.22-36.63Zm13.67 13.46 1.84 1.21-1.13 1.78C87.75 49.83 76.52 67.53 68.47 89l-1.3 3.43c-4.12 10.87-8 21.14-8.11 33.05-.06 12.3 1.94 22.83 4.34 34.34l.12.53c2.33 11.05 4 19 12.47 27.07 9.75 9.27 21.91 15.39 33.67 21.32l3.85 1.94c25.24 12.83 59.81 30.39 93.13 25.65 1.82-.26 3.75-.48 5.73-.69 6.22-.69 12.65-1.4 17.79-3.72 3.29-1.48 6.25-4.09 9.12-6.62a60.315 60.315 0 0 1 6.35-5.1c2.78-1.84 5.85-3.72 9.1-5.71 10.29-6.3 22-13.44 28.43-21.76l1.79 1.39c-6.73 8.65-18.58 15.9-29 22.3-3.24 2-6.29 3.86-9 5.67a57.784 57.784 0 0 0-6.09 4.91c-3 2.64-6.09 5.37-9.69 7-5.46 2.46-12.08 3.19-18.47 3.9-2 .21-3.86.42-5.66.68-34 4.84-69-12.91-94.48-25.87l-3.84-1.94c-11.91-6-24.2-12.19-34.21-21.7-9-8.52-10.71-16.79-13.13-28.24l-.12-.53c-2.46-11.65-4.5-22.31-4.39-34.82.1-12.31 4.07-22.76 8.26-33.83l1.29-3.42c8.14-21.71 19.43-39.5 31.38-58.33l1.13-1.79Zm3.91 10.63 2.04.99c-3.3 7.15-7.33 14.43-11.6 22.14-5 9-10.14 18.34-14 27.42-13.7 32.09-13.72 59.93-.06 82.76 11.08 18.53 40.75 27.72 62.41 34.43 1.87.58 3.68 1.14 5.4 1.69l5.56 1.78c18.24 5.91 43.2 14 59.91 6.73 16.71-7.27 41.16-21.57 55.79-36l1.59 1.62c-14.84 14.59-39.67 29.1-56.47 36.42-17.5 7.61-42.94-.63-61.51-6.65l-5.55-1.78-5.39-1.68c-22-6.82-52.15-16.16-63.69-35.43-14-23.49-14.08-52-.07-84.82 3.92-9.19 9.1-18.56 14.12-27.62 4.25-7.68 8.26-14.92 11.52-22Zm11.24 6.14c.16.87-.56 2.49-4.55 10.19-1.36 2.61-2.63 5.08-3.22 6.41-1.55 3.54-3.29 6.84-5 10C97.67 78.47 94.21 85 93 93.29c-4.92 32.42-3.42 54.36 4.6 67.07 7.91 12.55 27.19 25.37 42.16 31.55 22.4 9.25 44.47 17.12 68.19 11.9 8.17-1.81 15.37-6.34 22.05-10.81 6.44-4.33 18.12-12.73 24-20.31l1.79 1.39c-6.09 7.83-18 16.4-24.53 20.8-6.86 4.59-14.26 9.25-22.86 11.12-24.35 5.36-47.71-3-69.55-12-15.29-6.32-35-19.49-43.21-32.44-8.32-13.19-9.93-35.64-4.92-68.62 1.3-8.63 4.85-15.36 8.61-22.49 1.66-3.16 3.39-6.43 4.91-9.89.61-1.4 1.9-3.9 3.27-6.54 1.67-3.22 4.19-8.08 4.33-9l2.24-.14Zm4.29 14.66 2.22.46c-.63 2.79-2.28 5.73-3.88 8.58a38.582 38.582 0 0 0-3.71 7.86A103.646 103.646 0 0 0 110.6 89c-.38 2.51-.78 5.12-1.26 7.57-2.79 14.21-4.93 35 .8 53.47 3.67 11.8 16.09 22.69 33.23 29.15 1.814.667 3.634 1.363 5.46 2.09 15.59 6 31.71 12.26 47.79 7.25l2-.61c15.15-4.7 32.31-10 42.41-22.4l1.76 1.43c-10.53 12.9-28 18.34-43.5 23.13l-2 .61c-16.84 5.25-33.33-1.13-49.29-7.29-1.82-.71-3.64-1.41-5.44-2.09-17.79-6.7-30.72-18.14-34.59-30.6-5.87-18.89-3.71-40.11-.86-54.58.47-2.4.86-5 1.24-7.47a105.061 105.061 0 0 1 2.48-12.8 40.613 40.613 0 0 1 3.89-8.32c1.59-2.82 3.09-5.49 3.65-8Zm9.48 7.69 1.91 1.08c-8.73 16.33-13.61 34.85-13 49.56.75 19.5 8 31.38 25.17 41 2.23 1.25 4.6 2.65 7.09 4.13 11.44 6.77 25.67 15.19 37.9 15.53 15.38.41 31-7 41.71-19.74l1.74 1.46c-11.18 13.3-27.45 21-43.51 20.54-12.82-.35-27.33-8.94-39-15.84a580.08 580.08 0 0 0-7-4.11c-17.91-10.07-25.54-22.5-26.32-42.9-.58-15.09 4.4-34 13.31-50.71ZM139.53 84l1.62 1.59a60.117 60.117 0 0 0-14.91 27.83c-3.26 14.94-2.5 24 10.87 34.74 13.37 10.74 47.12 32.44 74 1.6l1.71 1.49c-19.82 22.75-47.95 22.3-77.13-1.31-14.13-11.48-15-21.45-11.67-37A62.576 62.576 0 0 1 139.53 84Zm6.53 13.56 1.44 1.75c-5.57 4.63-6 13.49-6.31 20.61-.05 1-.09 1.94-.15 2.86-.67 11.05 4.33 15.84 15.08 21.83 6.19 3.44 25.56 9.19 35 4.67a8.471 8.471 0 0 0 5-6.53l2.23.39a10.726 10.726 0 0 1-6.3 8.19c-10 4.75-29.72-.64-37.09-4.74-11.35-6.32-17-11.76-16.24-24 .05-.9.1-1.85.14-2.82.41-7.52.85-16.94 7.2-22.21Zm13.63 9.93 1.68 1.53c-4.6 5-7.07 11.1-6.62 16.2a13.368 13.368 0 0 0 5.54 9.61c4.7 3.62 13.45 6.15 19 4.15a8.108 8.108 0 0 0 5.33-6.27l2.22.5a10.366 10.366 0 0 1-6.78 7.9c-6.43 2.33-16-.52-21.12-4.49a15.478 15.478 0 0 1-6.42-11.2c-.52-5.8 2.08-12.34 7.17-17.93Z" fill="#FF4617" fill-rule="nonzero" opacity=".7"/></svg>