<svg width="198" height="326" viewBox="0 0 198 326" xmlns="http://www.w3.org/2000/svg"><path d="M55.421 86.339c.448-.474.897-.946 1.345-1.417 2.306-2.425 4.596-4.834 6.818-7.412.708-.812 1.476-1.578 2.237-2.336 2.563-2.557 5.047-5.033 4.873-8.935a3.358 3.358 0 0 0-3.673-3.007c-4.646.738-7.324 5.258-9.682 9.237v.001c-.3.505-.594 1.001-.886 1.48-.529.836-1.174 1.71-1.843 2.615-1.746 2.362-3.648 4.936-4.031 7.605a2.775 2.775 0 0 0 1.622 2.867 2.786 2.786 0 0 0 1.725.18 2.785 2.785 0 0 0 1.495-.878Zm-28.524 61.359-.407-.092-.04.048c-3.95-1.111-2.972-6.395-2.395-9.508v-.002l.079-.423c.238-1.331.359-2.794.483-4.293.255-3.081.521-6.309 1.845-8.829a4.933 4.933 0 0 1 9.002 3.992c-.541 1.621-.884 3.324-1.228 5.029-.254 1.26-.508 2.522-.842 3.751a30.596 30.596 0 0 1-2.92 8.968 3.738 3.738 0 0 1-3.577 1.359ZM4.122 196.991c2.352-1.837 3.25-5.502 4.017-8.632a62.61 62.61 0 0 1 .528-2.059c.438-1.58.76-3.185 1.083-4.795.173-.862.346-1.724.538-2.585.195-.908.3-2.02.4-3.053.084-.886.163-1.714.288-2.304 1.022-4.522-5.936-7.967-8.543-3.832a7.877 7.877 0 0 0-.893 5.966 57.73 57.73 0 0 1-.405 6.125c-.086 1.607-.095 3.252-.105 4.909-.016 2.709-.032 5.447-.38 8.088a2.256 2.256 0 0 0 1.034 2.294 2.26 2.26 0 0 0 2.515-.085l-.077-.037Zm56.286-36.759c1.613-2.103 2.178-4.879 2.732-7.596.26-1.28.518-2.546.882-3.724a136.408 136.408 0 0 0 1.789-6.572c.08-.35.166-.701.253-1.053.159-.647.319-1.296.435-1.947-.018.023.02-.161.077-.438.17-.821.51-2.463.046-1.959a5.056 5.056 0 0 0 .052-5.725 5.072 5.072 0 0 0-3.504-2.186 5.063 5.063 0 0 0-3.965 1.155 5.041 5.041 0 0 0-1.289 1.672 11.971 11.971 0 0 0-.982 5.224 59.923 59.923 0 0 1-1.134 7.67c-.182.983-.43 1.988-.68 3.001-.342 1.385-.688 2.786-.874 4.166a45.935 45.935 0 0 1-.233 5.489c-.836 3.574 4.324 5.682 6.476 2.889l-.081-.066Zm26.215-50.255c2.912-1.531 3.88-5.515 4.704-8.909.213-.879.417-1.719.643-2.467.238-.79.506-1.586.776-2.389.971-2.881 1.974-5.861 1.79-9.092-.277-5.584-9.315-4.624-8.531.866.31 2.162-.296 4.281-.895 6.376-.242.847-.483 1.69-.662 2.53-.718 3.43-1.426 7.11-1.86 10.586a2.604 2.604 0 0 0 1.217 2.542 2.61 2.61 0 0 0 2.818-.043Zm38.416-3.437c-.188 3.824-.376 7.658-1.45 11.326l-.053.064a3.434 3.434 0 0 1-1.341 1.694 3.435 3.435 0 0 1-4.097-.233 3.443 3.443 0 0 1-1.14-1.836c-.521-2.13-.324-4.482-.133-6.764.083-.985.164-1.956.186-2.89a67.707 67.707 0 0 1 .135-9.426 4.37 4.37 0 0 1 4.503-4.029 4.311 4.311 0 0 1 4.029 4.503c-.388 2.491-.513 5.039-.639 7.591Zm26.054 59.906c-.482-3.394-.877-6.805-1.271-10.213-.496-4.292-.991-8.577-1.661-12.814-1.2-7.599-12.507-4.88-10.064 2.478.284.822.504 1.642.724 2.462.31 1.154.619 2.305 1.104 3.454a50.06 50.06 0 0 1 2.304 7.003c.145.542.281 1.113.421 1.697l.001.003v.001c.797 3.324 1.7 7.097 4.748 8.772a2.669 2.669 0 0 0 3.479-1.355c.191-.42.27-.882.229-1.342l-.014-.146Zm-26.855 38.371c.634 3.252 1.053 7.747-.489 10.744a2.961 2.961 0 0 1-3.001 1.374 2.985 2.985 0 0 1-1.086-.406c-3.077-2.316-3.594-6.076-4.116-9.883-.373-2.715-.748-5.454-2.059-7.709-3.148-5.416 5.903-10.223 8.576-4.553 1.065 2.285 1.394 4.855 1.707 7.301h.001c.138 1.08.273 2.136.467 3.132Zm-5.8 67.502c.458.374-.022-1.169-.283-2.006v-.001l-.002-.005c-.049-.158-.09-.29-.115-.379-.528-1.744-1.169-3.448-1.84-5.149-.771-1.954-1.364-3.952-1.955-5.946-.498-1.679-.995-3.354-1.597-4.998-1.892-5.38-10.595-1.948-8.183 3.026.496.998.984 1.988 1.469 2.975l.002.003c1.713 3.48 3.4 6.906 5.343 10.395.271.469.523.963.776 1.457 1.144 2.236 2.296 4.486 5.186 4.548 2.065.03 2.423-2.731 1.16-3.872l.039-.048Zm-29.157 15.46c.979 2.481 2.362 5.983 1.36 8.157l-.04.048c-1.919 4.243-7.564-4.209-8.235-5.321-.69-1.148-1.578-2.304-2.479-3.477-2.859-3.721-5.853-7.618-3.091-12.038 2.047-3.254 6.947-1.68 8.128 1.295.22.54.248 1.116.276 1.677.009.195.019.389.037.579.283.389 1.13 2.167 1.13 2.167.259.598.527 1.194.796 1.79v.002h.001v.001c.587 1.302 1.174 2.607 1.661 3.942.131.355.287.751.456 1.178Zm-.731-46.889a15.23 15.23 0 0 1 .749-2.682 38.79 38.79 0 0 0 .719-6.966 54.53 54.53 0 0 0-.272-12.464 4.14 4.14 0 0 0-4.352-2.862 4.141 4.141 0 0 0-3.715 3.652c.142 2.431.423 4.853.842 7.252.164 1.411.254 2.829.345 4.247v.001c.08 1.26.161 2.52.293 3.776.041.386.071.811.102 1.258.184 2.638.421 6.027 3.277 6.624a1.735 1.735 0 0 0 1.437-.456 1.74 1.74 0 0 0 .543-1.406l.032.026Zm-31.392 14.754a46.188 46.188 0 0 1 4.272 7.676 1.51 1.51 0 0 1-.874 1.895 1.516 1.516 0 0 1-.754.094c-2.362-.62-4.475-2.53-6.445-4.31-.642-.58-1.268-1.146-1.883-1.65-2.796-2.181-5.589-4.627-5.092-8.507a4.143 4.143 0 0 1 3.126-3.184 4.15 4.15 0 0 1 4.204 1.495c.64 1.003 1.142 2.061 1.646 3.123v.001c.54 1.138 1.082 2.281 1.8 3.367Zm52.699-211.46c-1.657 1.402-5.288 3.842-7.023 1.216a1.042 1.042 0 0 1-.166-.788 1.03 1.03 0 0 1 .448-.67c1.223-.7 2.34-2.535 3.333-4.168.523-.86 1.013-1.664 1.465-2.217a79.403 79.403 0 0 1 9.657-10.848c4.06-3.75 9.918 3.886 5.109 7.209a159.341 159.341 0 0 0-12.823 10.265Zm23.056 15.655a71.475 71.475 0 0 0 10.635-6.94 40.415 40.415 0 0 0 7.913-7.211 4.502 4.502 0 0 0 .412-4.88 4.498 4.498 0 0 0-4.287-2.364c-3.401.316-5.383 2.975-7.313 5.566-.588.79-1.172 1.572-1.789 2.28-.708.812-1.571 1.68-2.48 2.595-2.485 2.5-5.316 5.347-6.267 8.354a2.212 2.212 0 0 0 .699 2.419 2.214 2.214 0 0 0 2.509.207l-.032-.026Zm47.704-3.247c-3.075 3.547-6.131 7.072-10.216 9.287l-.023.062a2.201 2.201 0 0 1-3.261-1.295 2.197 2.197 0 0 1 .053-1.332c1.362-4.5 4.266-8.214 7.172-11.931 2.294-2.934 4.589-5.87 6.128-9.194 3.828-8.145 15.113 1.173 8.021 6.565-2.986 2.2-5.436 5.026-7.874 7.838Zm-30.709 143.439a5.344 5.344 0 0 0-.892 3.904c.013.824.015 1.647.017 2.47.004 1.646.008 3.293.104 4.943a63.33 63.33 0 0 0 2.079 11.533c1.067 4.489 7.722 3.133 8.401-.839a6.695 6.695 0 0 0-1.036-4.625 29.789 29.789 0 0 1-1.814-6.227c-.154-.722-.291-1.493-.433-2.287v-.005l-.001-.004v-.001c-.543-3.057-1.147-6.456-3.011-8.746a2.063 2.063 0 0 0-1.676-.956 2.072 2.072 0 0 0-1.738.84Zm-7.033 46.006-.003-.037-.023.185.009-.064.017-.084Zm0 0a13.446 13.446 0 0 0 3.126 7.694 51.59 51.59 0 0 0 8.616 9.732c4.576 4.228 11.273-3.953 6.132-7.491a76.8 76.8 0 0 1-9.874-7.574 45.54 45.54 0 0 1-.33-.321c-1.605-1.567-3.871-3.781-6.192-3.329a1.654 1.654 0 0 0-1.478 1.289Zm-15.643 55.366c1.287 2.011 3.929 3.063 6.365 4.033.902.359 1.777.707 2.543 1.089a29.615 29.615 0 0 0 9.054 3.338c8.337 1.172 7.699-12.449.303-10.842a14.522 14.522 0 0 1-7.004-.509c-.5-.123-.998-.252-1.497-.381a74.638 74.638 0 0 0-2.733-.67c-.76-.167-1.542-.186-2.327-.205-.693-.017-1.387-.034-2.069-.152a2.776 2.776 0 0 0-3.108 2.798c.007.529.166 1.046.457 1.488l.016.013ZM41.9 282.829a34.81 34.81 0 0 1 2.558 8.362c.699 3.171-3.124 5.158-5.686 4.133-2.146-.857-3.07-2.614-4.024-4.425-.41-.779-.826-1.569-1.347-2.302a226.69 226.69 0 0 0-2.36-3.269c-1.2-1.641-2.4-3.28-3.547-4.995-4.268-6.306 5.919-13.023 9.399-6.638a219.987 219.987 0 0 0 1.793 3.205c1.11 1.959 2.221 3.92 3.214 5.929Zm-23.656-43.257c-.08-1.418-.161-2.832-.442-4.246a46.882 46.882 0 0 1-1.767-8.118c-.107-6.971-11.589-6.002-10.881 1.086.239 1.625.699 3.21 1.368 4.71.32.841.564 1.709.808 2.577.274.977.549 1.954.931 2.892.152.371.299.742.444 1.109 1.158 2.93 2.231 5.643 5.301 7.156a3.325 3.325 0 0 0 3.242-.366 3.318 3.318 0 0 0 1.36-2.966c-.218-1.282-.291-2.56-.364-3.834Zm79.986-72.92a35.25 35.25 0 0 1-2.857 12.851l.084-.038a3.147 3.147 0 0 1-4.657 1.239 3.151 3.151 0 0 1-1.12-1.414c-1.05-2.343-.647-4.976-.252-7.56.183-1.194.364-2.378.399-3.517.039-1.227.038-2.46.036-3.694-.001-1.234-.003-2.467.037-3.694.008-.288.067-.677.13-1.091v-.001c.115-.752.242-1.589.099-2.068-1.673-5.254 6.452-8.275 8.04-2.983.812 2.668.534 5.913.277 8.925v.001a65.528 65.528 0 0 0-.216 3.044Zm-43.431 48.38c-.319-.898-.28-1.873-.24-2.865v-.001c.019-.469.038-.942.019-1.413a39.61 39.61 0 0 0-.909-4.682c-.337-1.732-.4-3.488-.462-5.236-.06-1.693-.12-3.38-.43-5.031a4.294 4.294 0 1 0-8.547.853 37.442 37.442 0 0 0 2.913 12.805c.217.546.423 1.155.636 1.788.904 2.686 1.956 5.812 4.737 6.441a2.083 2.083 0 0 0 1.856-.745 2.075 2.075 0 0 0 .363-1.966l.064.052Zm99.899-114.029a18.013 18.013 0 0 1-4.492 6.208l.065-.08c-2.445 2.071-4.894-1.515-3.481-3.733a30.417 30.417 0 0 0 2.058-6.54c.381-1.145.917-2.239 1.449-3.324.466-.95.928-1.892 1.279-2.855 1.774-4.95 10.004-1.16 7.424 3.398-.585 1.045-1.252 2.033-1.918 3.019-.856 1.267-1.71 2.531-2.384 3.907Zm18.618-85.19c3.561 2.244 7.634.266 11.164-1.448.413-.2.817-.396 1.213-.582a65.767 65.767 0 0 0 1.509-.695h.001c.88-.414 1.774-.834 2.72-1.2-.167.068.775-.268 1.173-.434.549-.048 2.586-.395 2.83-.496a5.457 5.457 0 0 0 3.421-5.898 5.459 5.459 0 0 0-.892-2.265l-.241-.197a5.629 5.629 0 0 0-5.186-2.37 15.86 15.86 0 0 0-7.658 4.447 55.619 55.619 0 0 1-9.851 6.537 2.882 2.882 0 0 0-.177 4.57l-.026.031ZM95.423 324.229a33.547 33.547 0 0 1-10.995-5.517l-.032-.026a2.586 2.586 0 0 1-.678-3.039 2.593 2.593 0 0 1 2.73-1.496 46.3 46.3 0 0 1 5.554.447c.395.081.789.165 1.184.249 1.051.222 2.104.445 3.161.628 1.194.317 2.418.511 3.652.579.456.007.876-.021 1.279-.048 1.069-.072 2.012-.135 3.155.489a4.147 4.147 0 0 1 2.089 5.434c-2.233 4.2-7.129 3.701-11.099 2.3Z" fill="#F55116" fill-rule="evenodd"/></svg>