<svg width="129" height="190" viewBox="0 0 129 190" fill="none" xmlns="http://www.w3.org/2000/svg"><path fill-rule="evenodd" clip-rule="evenodd" d="M4.688 88.384c.145-1.938.288-3.863.338-5.838.02-.625.083-1.251.146-1.872.211-2.091.416-4.117-1.097-5.806a1.95 1.95 0 0 0-2.756 0c-1.815 2.04-1.356 5.055-.952 7.71.05.337.101.668.146.991.07.57.101 1.2.134 1.852.084 1.704.176 3.56.985 4.9a1.613 1.613 0 0 0 2.973-.807l.083-1.13Zm9.666 39.186-.217.109v.036c-2.184.954-3.687-1.78-4.572-3.391l-.121-.22c-.383-.685-.866-1.387-1.362-2.106-1.018-1.478-2.086-3.026-2.417-4.645a2.865 2.865 0 0 1 5.512-1.517c.352.927.825 1.819 1.297 2.711.35.66.7 1.32 1.001 1.995a17.755 17.755 0 0 1 1.986 5.103 2.165 2.165 0 0 1-1.107 1.925Zm7.894 30.52c.381-1.69-.563-3.667-1.37-5.355a37.83 37.83 0 0 1-.52-1.119c-.384-.871-.83-1.71-1.276-2.553-.24-.45-.479-.902-.71-1.359-.245-.479-.607-1.018-.942-1.518-.288-.429-.557-.83-.718-1.142-1.204-2.406-5.596-1.396-5.247 1.421a4.571 4.571 0 0 0 1.793 3.008 33.58 33.58 0 0 1 2.07 2.901c.552.753 1.153 1.496 1.758 2.244.99 1.223 1.989 2.459 2.803 3.773a1.314 1.314 0 0 0 1.309.651 1.312 1.312 0 0 0 1.098-.964l-.048.012Zm11.77-37.212c-.049-1.538-.816-2.993-1.566-4.417-.354-.671-.703-1.335-.973-1.997a79.089 79.089 0 0 0-1.613-3.611c-.093-.186-.183-.376-.274-.566a18.455 18.455 0 0 0-.52-1.035c0 .017-.05-.079-.127-.225-.225-.431-.676-1.294-.7-.896a2.944 2.944 0 0 0-1.007-2.001 2.94 2.94 0 0 0-2.296-.691 2.931 2.931 0 0 0-2.513 2.384c-.075.406-.062.823.036 1.225a6.945 6.945 0 0 0 1.48 2.708 34.857 34.857 0 0 1 2.31 3.863c.28.508.538 1.051.798 1.598.356.748.716 1.505 1.14 2.193a26.582 26.582 0 0 1 1.914 2.551c.939 1.914 4.032.963 3.971-1.083h-.06Zm-6.703-32.216c.745-1.759-.285-3.905-1.163-5.732-.228-.474-.445-.926-.619-1.345-.183-.443-.355-.899-.529-1.359-.624-1.651-1.269-3.359-2.54-4.743-2.178-2.407-5.884 1.348-3.514 3.527.935.857 1.442 2.031 1.943 3.193.203.47.404.936.633 1.38.939 1.805 1.974 3.719 3.057 5.44a1.516 1.516 0 0 0 2.732-.361ZM43.309 72.99c1.322 1.787 2.647 3.579 3.513 5.621v.048a1.998 1.998 0 0 1-3.093 2.25c-1.017-.764-1.794-1.894-2.547-2.99a28.45 28.45 0 0 0-.98-1.366 39.357 39.357 0 0 1-3.405-4.284 2.54 2.54 0 0 1 .541-3.466 2.503 2.503 0 0 1 3.466.541c.742 1.262 1.623 2.453 2.505 3.646Zm33.734 17.333a229.695 229.695 0 0 1-4.326-4.12l-.001-.001c-1.801-1.746-3.6-3.489-5.457-5.146-3.334-2.972-7.414 2.407-3.611 4.814.43.265.83.553 1.23.84.564.405 1.126.808 1.767 1.146a29.057 29.057 0 0 1 3.61 2.299c.265.19.537.397.815.609 1.58 1.2 3.374 2.563 5.36 2.195a1.553 1.553 0 0 0 .673-2.576l-.06-.06Zm2.047 27.112c1.48 1.228 3.321 3.093 3.73 5.007a1.723 1.723 0 0 1-1.48 1.938c-2.234.091-3.849-1.409-5.483-2.927-1.166-1.083-2.342-2.175-3.76-2.706-3.406-1.276-1.107-6.763 2.179-5.199 1.319.634 2.412 1.668 3.452 2.652.459.434.908.859 1.362 1.235Zm22.215 32.459c.344 0-.44-.516-.864-.797h-.001l-.194-.129c-.878-.59-1.793-1.12-2.72-1.637-1.064-.595-2.066-1.274-3.064-1.952-.842-.571-1.681-1.141-2.556-1.659-2.828-1.721-5.476 3.021-2.563 4.369.59.266 1.174.532 1.755.797h.001c2.05.933 4.067 1.852 6.223 2.705.294.111.588.24.884.369 1.336.584 2.681 1.172 4.002.137.939-.747.084-2.118-.903-2.167v-.036Zm-7.413 17.668c1.352.754 3.261 1.819 3.61 3.165v.036c.699 2.611-4.946.89-5.656.638-.732-.263-1.556-.455-2.392-.651-2.653-.62-5.431-1.27-5.816-4.272-.276-2.214 2.503-3.309 4.128-2.407.297.162.522.41.74.652.077.084.152.168.23.247.27.07 1.305.558 1.305.558.336.173.676.343 1.016.512h.001c.743.37 1.486.739 2.196 1.16.19.112.405.232.638.362ZM76.32 146.768a8.875 8.875 0 0 1-.65-1.481 22.567 22.567 0 0 0-2.238-3.394 31.69 31.69 0 0 0-4.706-5.5 2.41 2.41 0 0 0-3.008.315 2.41 2.41 0 0 0-.326 3.007 37.127 37.127 0 0 0 3.045 2.949c.593.573 1.155 1.177 1.717 1.78v.001c.5.536 1 1.073 1.52 1.588.161.159.33.339.51.528 1.052 1.118 2.405 2.553 3.908 1.771a1.013 1.013 0 0 0 .436-1.18 1.006 1.006 0 0 0-.232-.384h.024Zm-8.677 18.172a26.76 26.76 0 0 1 4.742 1.877.883.883 0 0 1 .414.746.876.876 0 0 1-.414.746c-1.29.591-2.941.51-4.48.434-.502-.024-.992-.048-1.454-.048-2.058.048-4.212-.024-5.415-1.95a2.408 2.408 0 0 1 2.671-3.454c.657.215 1.272.506 1.889.798.66.312 1.325.627 2.047.851ZM13.559 50.557c-.228 1.24-.962 3.671-2.708 3.13a.601.601 0 0 1-.409-.759c.292-.765.119-2-.035-3.099-.081-.578-.157-1.12-.157-1.534a46.107 46.107 0 0 1 .349-8.425c.445-3.177 5.885-1.901 4.946 1.36a92.542 92.542 0 0 0-1.986 9.327Zm16.115-1.443a41.515 41.515 0 0 0 2.226-7.028c.572-2.001.876-4.07.903-6.15a2.612 2.612 0 0 0-4.405-1.83c-1.411 1.393-1.324 3.317-1.238 5.19.026.571.051 1.137.035 1.682-.02.626-.088 1.333-.16 2.078-.198 2.037-.423 4.357.256 6.058a1.288 1.288 0 0 0 2.407 0h-.024Zm20.238-19.002c-.077 2.725-.154 5.432-1.175 7.93l.012.035a1.276 1.276 0 0 1-2.407 0c-1.042-2.522-1.103-5.259-1.165-7.998-.048-2.161-.097-4.324-.628-6.384-1.275-5.066 7.221-5.03 6.018 0-.532 2.087-.594 4.257-.655 6.417Zm38.95 75.734a3.105 3.105 0 0 0 1.035 2.082c.308.364.612.733.915 1.102v.001c.608.738 1.215 1.476 1.865 2.182a36.769 36.769 0 0 0 5.175 4.417c2.13 1.625 4.621-1.432 3.466-3.466a3.89 3.89 0 0 0-2.166-1.697 17.3 17.3 0 0 1-3.106-2.13 38.891 38.891 0 0 1-1.04-.873c-1.367-1.173-2.888-2.478-4.568-2.822a1.208 1.208 0 0 0-1.105.187 1.208 1.208 0 0 0-.471 1.017Zm13.758 23.256-.015-.015.057.091a.925.925 0 0 1-.042-.076Zm0 0a7.815 7.815 0 0 0 4.233 2.308 30.01 30.01 0 0 0 7.45 1.203c3.611.217 3.611-5.921 0-5.62a44.663 44.663 0 0 1-7.221.228l-.266-.023c-1.297-.114-3.129-.275-4.006.782a.962.962 0 0 0-.19 1.122Zm13.331 30.626c1.318.431 2.891-.068 4.343-.528a19.566 19.566 0 0 1 1.542-.446 17.164 17.164 0 0 0 5.296-1.83c4.176-2.539-1.12-8.424-3.851-4.982a8.444 8.444 0 0 1-3.334 2.347c-.27.128-.541.253-.812.379a43.07 43.07 0 0 0-1.475.704c-.403.204-.761.484-1.121.764-.317.247-.635.495-.985.692a1.619 1.619 0 0 0-.733 1.573 1.609 1.609 0 0 0 1.118 1.327h.012Zm-45.166 23.034a20.247 20.247 0 0 1 4.224 2.816c1.48 1.168.493 3.466-1.035 3.948-1.279.404-2.34-.045-3.434-.508-.472-.2-.949-.402-1.452-.539-.756-.211-1.51-.406-2.262-.601a85.612 85.612 0 0 1-3.43-.94c-4.237-1.263-2.13-8.027 1.78-6.438.658.267 1.321.524 1.985.78 1.22.472 2.44.944 3.624 1.482Zm-24.96-9.146c-.57-.496-1.073-1.043-1.574-1.588-.558-.608-1.114-1.213-1.76-1.745a27.265 27.265 0 0 1-3.78-2.997c-2.61-3.093-7.413 1.564-4.488 4.489a10.453 10.453 0 0 0 2.346 1.613c.453.26.882.56 1.31.86.483.338.966.676 1.483.957.205.111.407.224.607.335 1.597.89 3.077 1.715 5.013 1.265a1.922 1.922 0 0 0 1.323-2.336 1.925 1.925 0 0 0-.48-.853Zm7.545-63.761a20.453 20.453 0 0 1 3.442 6.824l.024-.048a1.83 1.83 0 0 1-2.66 2.046c-1.333-.667-2.12-1.998-2.893-3.304-.357-.604-.711-1.202-1.114-1.727-.434-.566-.888-1.119-1.342-1.673a62.545 62.545 0 0 1-1.342-1.673c-.103-.132-.22-.329-.343-.538-.225-.38-.476-.803-.716-.966-2.684-1.745-.145-6.09 2.515-4.296 1.346.9 2.414 2.46 3.406 3.907a38.98 38.98 0 0 0 1.023 1.448Zm-1.72 37.704c-.474-.286-.815-.738-1.162-1.199-.164-.218-.33-.437-.511-.642a22.95 22.95 0 0 0-2.13-1.769c-.789-.654-1.463-1.42-2.133-2.182-.65-.739-1.297-1.475-2.044-2.103a2.496 2.496 0 0 0-3.526 0 2.495 2.495 0 0 0 0 3.527 21.734 21.734 0 0 0 6.017 4.681c.299.166.615.364.944.57 1.394.874 3.016 1.891 4.496 1.151a1.196 1.196 0 0 0 .56-1.017 1.202 1.202 0 0 0-.56-1.017h.049Zm2.948-87.963a10.46 10.46 0 0 1 .265 4.441v-.06c-.337 1.83-2.756 1.12-2.937-.397a17.694 17.694 0 0 0-1.48-3.695c-.25-.654-.412-1.343-.572-2.026-.14-.598-.279-1.19-.475-1.753-1.023-2.876 4.068-4.2 4.585-1.203.121.684.185 1.374.248 2.061.082.884.163 1.766.366 2.632ZM31.635 14.48c2.425-.302 3.527-2.688 4.483-4.756.112-.242.221-.48.33-.708.146-.285.284-.575.423-.867.244-.51.49-1.028.781-1.54-.05.092.25-.405.368-.626.229-.224 1.016-1.128 1.089-1.264A3.165 3.165 0 0 0 37.243.121h-.18a3.273 3.273 0 0 0-3.202.842 9.207 9.207 0 0 0-1.805 4.814 32.3 32.3 0 0 1-2.022 6.56 1.673 1.673 0 0 0 1.6 2.118v.024Zm78.419 167.201a19.501 19.501 0 0 1-6.968 1.565h-.024a1.51 1.51 0 0 1-1.423-1.116 1.504 1.504 0 0 1 .676-1.676 26.847 26.847 0 0 1 2.66-1.842l.624-.324a51.099 51.099 0 0 0 1.651-.879c.653-.297 1.274-.66 1.853-1.083.208-.165.386-.332.557-.493.454-.425.854-.8 1.597-.94a2.411 2.411 0 0 1 2.937 1.673c.541 2.708-1.841 4.285-4.14 5.115Z" fill="#F55116"/></svg>