<svg width="204" height="238" viewBox="0 0 204 238" fill="none" xmlns="http://www.w3.org/2000/svg"><path fill-rule="evenodd" clip-rule="evenodd" d="M97.082 21.292c-.024.04-.05.077-.077.112v-.01c-.416.591-1.007.954-1.642 1.01-.635.057-1.261-.199-1.743-.71-.481-.51-.777-1.234-.823-2.013-.046-.778.162-1.547.579-2.137L104.447 1.07c.406-.602.99-.983 1.624-1.057.634-.075 1.266.162 1.758.66.491.496.801 1.212.862 1.99.061.777-.132 1.553-.538 2.155L97.082 21.292Zm-7.51-15.7c-.11.363-.276.696-.49.98l-.031.084-13.204 17.081c-.437.567-1.04.897-1.677.918-.636.021-1.253-.269-1.715-.805-.462-.537-.731-1.277-.749-2.057-.017-.78.22-1.537.657-2.104L85.56 2.57a2.49 2.49 0 0 1 .758-.674 2.003 2.003 0 0 1 1.836-.086c.296.134.567.338.799.601a3 3 0 0 1 .55.93 3.553 3.553 0 0 1 .07 2.252Zm21.668 27.59c.397-.565.603-1.294.578-2.038-.025-.745-.28-1.45-.712-1.974-.433-.523-1.012-.826-1.619-.846-.608-.02-1.199.242-1.654.735L94.171 44.69a2.949 2.949 0 0 0-.584.93 3.556 3.556 0 0 0-.1 2.298c.11.371.28.712.5 1.001.22.29.485.521.78.682.294.16.612.247.935.253.322.007.642-.066.941-.215.299-.148.57-.369.798-.649l13.654-15.629c.036-.038.069-.08.1-.12l.024-.03.021-.028Zm22.037 7.965c.024.78-.201 1.539-.627 2.117l-.015.02-9.734 12.949c-.436.572-1.04.91-1.678.937-.638.027-1.259-.258-1.727-.792-.467-.535-.742-1.275-.764-2.057-.022-.783.21-1.545.646-2.117l9.727-12.912.046-.057c.214-.28.47-.506.755-.665a1.99 1.99 0 0 1 1.824-.076c.293.135.562.339.791.6.46.538.732 1.274.756 2.053Zm16.757 12.415c.393-.582.59-1.328.548-2.082-.041-.755-.318-1.462-.771-1.974-.454-.512-1.051-.79-1.668-.779-.617.012-1.206.314-1.647.843l-5.723 7.496c-.41.578-.62 1.33-.585 2.094.035.765.312 1.483.771 2.002.46.518 1.067.797 1.691.775.624-.02 1.217-.34 1.653-.888l5.731-7.496v.009Zm29.617 1.613a3.088 3.088 0 0 1-.498.973l-.076.084-19.867 24.634a2.43 2.43 0 0 1-.776.644c-.29.15-.602.228-.918.23a2.022 2.022 0 0 1-.92-.217 2.424 2.424 0 0 1-.782-.633 3.05 3.05 0 0 1-.525-.952 3.544 3.544 0 0 1-.01-2.254c.119-.359.294-.684.516-.96l19.867-24.614c.216-.282.475-.508.763-.666.287-.158.597-.246.912-.257a2.01 2.01 0 0 1 .924.191c.294.137.564.345.793.61.229.265.414.583.543.935.129.353.2.733.209 1.12.01.386-.043.77-.155 1.132Zm-.528 35.726c.442-.561.684-1.315.672-2.095-.011-.78-.275-1.523-.733-2.065-.458-.542-1.073-.838-1.709-.824-.636.014-1.242.337-1.684.9l-13.348 15.928c-.446.552-.699 1.293-.708 2.069-.008.776.229 1.525.662 2.091.443.559 1.05.879 1.686.89.637.011 1.25-.289 1.706-.833l13.357-15.93.099-.13Zm24.87-1.763c.045.732-.134 1.457-.503 2.035l-.084.113L186 112.677a2.45 2.45 0 0 1-.779.64 2.021 2.021 0 0 1-.919.225 2.012 2.012 0 0 1-.919-.223 2.44 2.44 0 0 1-.78-.637 3.063 3.063 0 0 1-.521-.955 3.521 3.521 0 0 1-.184-1.127c0-.386.061-.769.182-1.127.12-.357.297-.682.52-.956l17.413-21.364c.449-.485 1.029-.747 1.627-.735.599.012 1.171.298 1.607.801.435.503.701 1.188.746 1.92ZM72.424 58.575c.063-.087.122-.177.176-.272l9.116-15.676a3.48 3.48 0 0 0 .398-2.184c-.107-.765-.455-1.446-.97-1.897-.514-.45-1.153-.634-1.777-.51-.624.124-1.183.544-1.556 1.171l-9.116 15.676a3.46 3.46 0 0 0-.438 2.116c.081.748.393 1.43.872 1.904.478.474 1.088.704 1.7.643.614-.061 1.185-.409 1.595-.971ZM61.535 50.6c.015.78-.224 1.536-.664 2.1l-.092.122-7.259 8.808c-.222.279-.488.501-.78.653a2.024 2.024 0 0 1-.927.233 2.022 2.022 0 0 1-.928-.224c-.294-.15-.561-.37-.785-.647a3.067 3.067 0 0 1-.52-.969 3.536 3.536 0 0 1-.175-1.14c.004-.39.071-.775.198-1.133s.31-.682.54-.952l7.259-8.818c.44-.564 1.044-.89 1.68-.908.637-.018 1.252.276 1.712.815.46.539.727 1.28.741 2.06Zm5.036 38.315.168-.253 13.066-22.207c.185-.314.317-.669.39-1.045.073-.377.084-.767.034-1.15a3.384 3.384 0 0 0-.328-1.077 2.8 2.8 0 0 0-.638-.841 2.226 2.226 0 0 0-.853-.478 1.97 1.97 0 0 0-.937-.041 2.15 2.15 0 0 0-.878.4c-.269.204-.502.47-.686.784L62.85 85.214a3.46 3.46 0 0 0-.435 2.11c.08.746.39 1.426.867 1.9s1.083.706 1.695.648c.612-.057 1.182-.4 1.594-.957Zm19.263.346-.069.104c-.417.589-1.008.95-1.643 1.004-.635.055-1.261-.202-1.742-.714-.48-.512-.775-1.237-.819-2.015-.045-.779.165-1.547.583-2.136l9.979-14.73c.417-.579.999-.94 1.626-1.012.628-.072 1.254.153 1.751.628.49.5.798 1.218.856 1.996.06.779-.136 1.553-.543 2.155l-9.979 14.72Zm27.256-5.284c.438-.565.676-1.321.66-2.102-.016-.78-.283-1.52-.744-2.058-.461-.538-1.078-.83-1.714-.81-.636.019-1.24.347-1.679.913l-8.489 10.438c-.227.27-.407.594-.529.951a3.478 3.478 0 0 0 0 2.258c.122.357.302.68.529.951.222.274.486.492.778.64.291.15.603.225.918.225.315 0 .628-.076.919-.224.291-.149.555-.367.777-.64l8.482-10.43.092-.112Zm10.842 13.83-.099.14c-.42.565-1.003.908-1.625.955-.622.047-1.235-.204-1.708-.7-.474-.497-.771-1.2-.829-1.962-.059-.76.127-1.52.517-2.115l6.021-9.202c.198-.301.442-.552.718-.738.277-.186.581-.303.895-.344.313-.042.63-.008.933.1.303.11.585.29.831.532.246.243.451.542.602.882.152.339.247.712.281 1.096.034.385.006.774-.082 1.145a3.228 3.228 0 0 1-.434 1.019l-6.021 9.192Zm17.697 7.993c.435-.561.673-1.309.662-2.082-.011-.774-.27-1.511-.721-2.052-.452-.542-1.059-.843-1.69-.839-.631.004-1.235.313-1.682.859l-13.555 15.76a3.008 3.008 0 0 0-.541.938 3.551 3.551 0 0 0-.05 2.251c.113.361.282.691.499.972.217.28.477.506.764.663.288.158.598.244.913.255.316.01.629-.056.923-.194.295-.138.564-.346.793-.612l13.555-15.76c.018-.027.036-.042.053-.058a.311.311 0 0 0 .077-.101Zm11.981 12.34-6.449 8.723c-.428.579-1.026.926-1.662.965-.636.039-1.259-.234-1.731-.759-.472-.524-.755-1.257-.787-2.037-.031-.78.191-1.544.619-2.123l6.457-8.723c.43-.566 1.024-.901 1.654-.933.63-.032 1.245.241 1.712.761.467.52.749 1.244.783 2.016.035.772-.179 1.53-.596 2.11Zm4.195 28.503c0-.037.031-.071.06-.103a.323.323 0 0 0 .039-.047l13.838-21.335c.396-.61.578-1.388.506-2.163-.071-.775-.391-1.483-.888-1.969-.505-.468-1.137-.68-1.765-.592-.629.087-1.206.466-1.613 1.06l-13.837 21.336c-.413.595-.615 1.367-.564 2.145.052.779.353 1.5.839 2.006.485.505 1.114.754 1.749.691.635-.064 1.223-.433 1.636-1.029Zm-46.047-30.126c.013.754-.21 1.486-.624 2.044l-.184.216-13.937 15.264c-.235.257-.51.455-.807.582a2 2 0 0 1-1.834-.13 2.522 2.522 0 0 1-.748-.691 3.152 3.152 0 0 1-.474-.99 3.567 3.567 0 0 1 .105-2.249c.137-.348.329-.66.564-.917l13.937-15.254c.458-.505 1.057-.774 1.672-.752.615.021 1.2.332 1.634.867.433.536.683 1.255.696 2.01Zm-17.083-5.348c.402-.559.617-1.284.6-2.029-.017-.745-.264-1.454-.69-1.985-.427-.53-1.002-.842-1.61-.873-.607-.031-1.201.222-1.662.708l-12.226 13.221c-.456.522-.729 1.242-.76 2.007-.03.765.184 1.515.597 2.089.413.575.992.929 1.615.989.622.059 1.24-.182 1.72-.672l12.225-13.221c.071-.068.135-.147.191-.234Zm-57.025-1.125c-.034.06-.073.117-.115.169v-.037c-.424.51-.988.809-1.582.838-.594.03-1.176-.213-1.633-.679-.457-.467-.756-1.125-.84-1.847a3.479 3.479 0 0 1 .388-2.06l16.657-26.152a2.6 2.6 0 0 1 .706-.76c.274-.194.578-.318.892-.365.314-.047.633-.017.937.09.304.106.588.286.835.529.248.238.456.534.611.87.155.337.255.707.294 1.091.038.384.014.773-.07 1.146a3.238 3.238 0 0 1-.423 1.025L37.65 110.044Zm22.808-6.175c.406-.57.617-1.312.589-2.068-.028-.757-.294-1.472-.741-1.995-.447-.522-1.041-.814-1.66-.813-.617.001-1.21.295-1.657.82l-8.13 9.828c-.452.551-.707 1.299-.709 2.08-.002.781.249 1.531.698 2.085.449.555 1.059.867 1.696.87.637.003 1.248-.305 1.7-.856l8.1-9.801.114-.15Zm3.825 20.473c.037.752-.16 1.493-.554 2.072l-.061.093-10.025 12.669c-.219.28-.48.504-.77.66a2.05 2.05 0 0 1-.918.247 2.019 2.019 0 0 1-.925-.205 2.403 2.403 0 0 1-.79-.624 3.036 3.036 0 0 1-.534-.948 3.539 3.539 0 0 1-.024-2.26c.119-.36.293-.688.515-.965l10.025-12.696c.445-.519 1.035-.81 1.65-.813.614-.003 1.206.282 1.654.797.448.515.719 1.221.757 1.973Zm2.456 46.204 14.862-20.22c.427-.579.648-1.342.616-2.122-.032-.779-.316-1.511-.788-2.034-.472-.523-1.094-.794-1.73-.755-.635.04-1.232.387-1.659.966l-14.861 20.23c-.427.579-.648 1.342-.616 2.121.032.78.315 1.511.787 2.035.473.523 1.095.794 1.73.755.636-.04 1.233-.387 1.66-.966v-.01Zm54.782-31.328c.024.78-.205 1.54-.638 2.113l-.061.047-17.329 22.422a2.542 2.542 0 0 1-.764.716 2 2 0 0 1-1.882.11 2.398 2.398 0 0 1-.816-.624 3.027 3.027 0 0 1-.55-.967 3.518 3.518 0 0 1-.197-1.154c-.002-.397.062-.79.188-1.156.126-.366.311-.697.544-.973l17.345-22.422c.433-.573 1.033-.912 1.669-.942.637-.029 1.256.252 1.724.782.467.531.743 1.267.767 2.048Zm20.207 21.34c.44-.565.678-1.322.663-2.103-.015-.781-.282-1.523-.743-2.062-.461-.539-1.078-.832-1.715-.813-.637.018-1.242.346-1.682.911l-9.322 11.488c-.449.554-.7 1.304-.697 2.085.002.781.257 1.529.709 2.08.452.55 1.063.858 1.7.855.637-.002 1.247-.315 1.696-.869l9.315-11.469.076-.103Zm21.846 9.332-15.405 21.682c-.422.584-1.016.938-1.652.985-.636.047-1.26-.218-1.736-.736-.477-.519-.765-1.247-.803-2.027-.038-.779.178-1.545.6-2.129l15.374-21.645c.427-.57 1.016-.917 1.645-.971.63-.054 1.252.189 1.74.681.481.513.776 1.24.82 2.02.044.78-.165 1.55-.583 2.14Zm-60.135 11.628c.402-.551.619-1.268.609-2.007-.01-.739-.247-1.447-.663-1.982-.416-.535-.981-.858-1.583-.906-.601-.047-1.195.185-1.664.651l-12.66 12.734a2.9 2.9 0 0 0-.594.89c-.148.341-.24.715-.27 1.1-.03.385.002.774.095 1.144.092.37.243.714.443 1.012.201.298.448.545.726.727.279.181.584.294.898.331.314.037.63-.002.932-.116.302-.113.582-.298.826-.544l12.645-12.762c.092-.083.178-.174.26-.272Zm17.787 3.042c.015.781-.224 1.537-.664 2.103l-.091.112-7.641 9.37a2.426 2.426 0 0 1-.781.635 2.027 2.027 0 0 1-.92.221 2.037 2.037 0 0 1-.918-.228 2.466 2.466 0 0 1-.778-.642 3.072 3.072 0 0 1-.518-.958 3.522 3.522 0 0 1-.179-1.127 3.55 3.55 0 0 1 .185-1.127c.122-.357.3-.68.524-.953l7.641-9.37c.439-.565 1.044-.893 1.681-.912.637-.018 1.254.274 1.715.814.461.539.729 1.281.744 2.062Zm-55.09 9.112 13.303-17.981c.417-.58.631-1.338.597-2.11-.035-.772-.317-1.497-.784-2.016-.467-.52-1.082-.793-1.712-.761-.63.032-1.224.367-1.654.932l-13.311 17.981c-.428.579-.65 1.343-.619 2.123.032.78.315 1.513.787 2.038.472.524 1.095.797 1.731.758.636-.038 1.234-.385 1.662-.964Zm-13.42-32.338c-.111.362-.28.694-.494.976l-.039.066-10.422 13.249c-.219.278-.48.5-.769.655-.289.154-.6.237-.915.244a2.004 2.004 0 0 1-.92-.204 2.402 2.402 0 0 1-.788-.62c-.447-.549-.703-1.288-.716-2.063-.013-.776.219-1.527.647-2.098l10.414-13.249a2.49 2.49 0 0 1 .761-.67 2.003 2.003 0 0 1 1.836-.076c.295.136.566.342.796.606.23.264.416.581.546.933a3.552 3.552 0 0 1 .062 2.251Zm-18.36-27.856c.407-.573.617-1.316.586-2.074-.03-.758-.298-1.472-.748-1.994-.45-.521-1.047-.809-1.666-.804-.619.006-1.212.305-1.655.834l-12.631 15.751c-.228.269-.41.592-.534.95a3.454 3.454 0 0 0-.188 1.13c0 .388.064.773.188 1.13.124.358.306.681.534.95.222.274.486.492.778.641.29.148.603.224.918.224.316 0 .628-.076.919-.224a2.44 2.44 0 0 0 .778-.641l12.63-15.751.092-.122Zm-13.184-17.396c.031.759-.178 1.503-.584 2.077a.27.27 0 0 1-.061.075L9.226 132.485c-.444.56-1.05.88-1.687.89-.636.011-1.25-.289-1.706-.833a2.853 2.853 0 0 1-.565-.934 3.35 3.35 0 0 1-.208-1.134c-.005-.392.058-.78.183-1.141.126-.36.31-.684.544-.952l11.31-14.251c.441-.532 1.035-.834 1.654-.842.62-.008 1.218.279 1.67.799.45.521.72 1.236.751 1.995Zm4.772 57.734c.412-.56.633-1.293.617-2.048-.016-.754-.268-1.472-.704-2.005-.436-.533-1.022-.84-1.637-.859-.615-.018-1.213.255-1.669.761l-8.932 9.933a2.96 2.96 0 0 0-.571.922 3.562 3.562 0 0 0-.102 2.267c.106.367.27.705.484.994.214.288.472.522.76.687.288.165.6.259.917.275.318.016.635-.045.933-.18a2.39 2.39 0 0 0 .804-.608l8.932-9.932.168-.207Zm20.936 16.323-9.276 12.527c-.21.292-.466.531-.752.701-.286.17-.597.268-.914.29a2.006 2.006 0 0 1-.935-.165c-.3-.13-.575-.332-.81-.594a2.986 2.986 0 0 1-.56-.932 3.547 3.547 0 0 1-.077-2.268c.11-.366.278-.701.495-.986l9.276-12.537c.429-.578 1.027-.923 1.663-.96.636-.037 1.259.238 1.73.763.471.526.753 1.26.783 2.04.03.78-.194 1.543-.623 2.121Zm22.06 24.624c.429-.577.655-1.339.629-2.119-.026-.781-.301-1.517-.767-2.051a2.358 2.358 0 0 0-.79-.601 1.98 1.98 0 0 0-1.826.081c-.284.16-.54.388-.753.67l-11.767 15.723c-.43.577-.655 1.339-.627 2.119.03.78.31 1.515.78 2.041.47.527 1.091.804 1.727.768.637-.035 1.236-.378 1.665-.955l11.721-15.667.008-.009Zm18.776 2.188c.027.756-.184 1.496-.59 2.066l-.07.084-9.398 11.394a2.425 2.425 0 0 1-.778.641 2.022 2.022 0 0 1-.918.225c-.316 0-.628-.077-.919-.225a2.425 2.425 0 0 1-.777-.641 2.987 2.987 0 0 1-.53-.949 3.463 3.463 0 0 1-.185-1.126c0-.387.063-.77.186-1.127.123-.356.302-.679.529-.949l9.398-11.393c.447-.523 1.04-.814 1.658-.813.618.001 1.211.294 1.657.818.446.524.71 1.238.737 1.995Zm3.093 20.066a.619.619 0 0 0 .084-.122l12.5-18.89c.199-.299.348-.644.437-1.013.09-.37.12-.758.087-1.142a3.452 3.452 0 0 0-.277-1.096 2.876 2.876 0 0 0-.598-.881 2.262 2.262 0 0 0-.826-.561 1.92 1.92 0 0 0-.938-.114c-.317.04-.623.159-.9.349-.277.19-.52.448-.713.757l-12.463 18.881c-.387.595-.571 1.352-.513 2.11.058.758.354 1.459.825 1.956.471.496 1.081.749 1.701.706.62-.044 1.202-.381 1.624-.94h-.03ZM12.54 163.159c.002.736-.222 1.446-.626 1.99a3.264 3.264 0 0 1-.313.384l-7.732 7.309a2.27 2.27 0 0 1-.843.508c-.305.1-.624.125-.937.074a2.127 2.127 0 0 1-.889-.371 2.646 2.646 0 0 1-.705-.759 3.265 3.265 0 0 1-.415-1.034 3.593 3.593 0 0 1-.06-1.148c.041-.385.144-.755.302-1.09.159-.336.37-.63.62-.865l7.733-7.318c.475-.45 1.07-.665 1.668-.603.598.062 1.155.397 1.562.938.406.541.633 1.249.635 1.985Z" fill="#F68A22"/></svg>