<svg width="177" height="140" viewBox="0 0 177 140" xmlns="http://www.w3.org/2000/svg"><g fill-rule="nonzero" fill="none"><path d="M157.883 72.212c-7.457-14.708-15.75-28.969-23.915-43.265-6.151-10.729-13.23-21.737-24.306-26.927-19.24-8.934-39.571 14.989-50.63 27.263C40.805 49.518 25.995 72.831 8.968 94.144c-.14.151-.248.334-.316.537-.069.202-.097.42-.082.64C3.868 101.565.27 108.45.124 115.696c-.29 14.327 29.253 14.246 36.9 14.713 20.854 1.344 41.063 2.639 61.954 5.322 12.916 1.671 25.807 2.754 38.732 3.629 9.143.637 19.541 1.384 27.823-2.791 24.342-12.147.771-47.706-7.65-64.357Z" fill="#F68A22"/><path d="M51.957 118.468a4.392 4.392 0 0 1 1.793 1.285c.846 1.218-.327 2.149-1.35 2.316a3.855 3.855 0 0 1-2.102-.198 4.408 4.408 0 0 1-1.793-1.291c-.83-1.205.322-2.141 1.352-2.301a3.843 3.843 0 0 1 2.1.189Zm87.628-2.912c.531.306.955.797 1.197 1.384.64 1.539-2.362.983-2.937.495l-.32-.271a.73.73 0 0 1-.301-.185.8.8 0 0 1-.191-.311c-.007-.006-.043-.55-.023-.416l.006.048.035-.049-.02-.104-.01-.105.056.048a1.01 1.01 0 0 1 .27-.558.9.9 0 0 1 .533-.267 2.417 2.417 0 0 1 1.705.291Zm-115.608.114c1.653 2.402-3.56 2.522-4.77.772-1.658-2.394 3.553-2.529 4.77-.772Zm-11.594-3.753.075.041.423.216c.23.118.436.283.61.484.173.201.309.435.4.688.109.101.182.238.207.387a.637.637 0 0 1-.071.423 2.047 2.047 0 0 1-.918.742 2.051 2.051 0 0 1-1.175.103c-1.084-.1-2.971-.612-3.068-2.076l-.003-.166.004-.272c.043-1.616 2.66-1.01 3.516-.57Zm140.548-1.437c.726 2.635-3.454 1.785-4.801.956-1.221-.434-2.267-1.269-1.658-2.522 1.239-2.552 5.734-1.068 6.459 1.566Zm-25.238-1.063c1.119.073 3.051.785 1.898 1.812a3.792 3.792 0 0 1-2.646.795c-.883.01-3.492-.977-2.633-2.399.648-1.076 2.25-.816 3.381-.208Zm-56.36-1.67c.691.141 1.346.473 1.898.962a1.515 1.515 0 0 1 .623 1.409 1.344 1.344 0 0 1-.301.707 1.188 1.188 0 0 1-.624.391 11.554 11.554 0 0 1-3.302.552c-.267.049-1.03-.3-1.063-.63-.032-.33.033-.617.025-.926a.836.836 0 0 1-.012-.287 1.527 1.527 0 0 1-.195-.609 1.434 1.434 0 0 1 .074-.623 1.27 1.27 0 0 1 .329-.505c.146-.137.322-.233.513-.281a3.642 3.642 0 0 1 2.036-.16Zm-39.811 2.693c.353 1.712-2.309 1.113-3.084.55l-.063-.05-.208-.176c-.553-.234-1.086-.62-.95-1.147.5-2.064 3.942-.939 4.305.823Zm-11.755-5.512c-.368.19-.775.291-1.193.298l-.047.065c-.324.654-1.97.35-2.21-.37l-.023-.1-.034-.186c-.692-.378-1.348-1.211-1.019-2.007l.06-.125.135-.187c1.398-2.581 7.41.911 4.33 2.612Zm122.47-2.044a1.716 1.716 0 0 1-.224.454c-.495.865-1.673.821-2.59.684-.917-.138-2.782-.977-2.437-2.313.113-.334.329-.611.615-.787a1.38 1.38 0 0 1 .96-.184c.198-.042.389-.076.579-.124 1.076-.279 3.802.65 3.097 2.27Zm-13.159-3.198c.054.202.122.4.204.592.688 1.918-2.943 1.197-3.663.587a3.351 3.351 0 0 0-.639-.542c-1.427-.987-1.407-2.567.359-2.85 1.355-.214 3.617.421 3.739 2.213Zm-94.823-1.631c.199.151.357.356.457.592.1.235.138.492.11.742-.029.249-.122.48-.27.668a1.164 1.164 0 0 1-.57.392 4.435 4.435 0 0 1-3.057-.186c-.473-.166-1.428-.769-1.25-1.445a1.899 1.899 0 0 1-.088-.377.593.593 0 0 1 .004-.229.533.533 0 0 1 .09-.203c.513-1.283 3.467-.988 4.574.046Zm125.677-5.851c1.481.341 3.434 1.542 2.009 2.731a3.585 3.585 0 0 1-1.86.669 3.848 3.848 0 0 1-1.986-.41c-.98-.426-2.614-1.802-1.298-2.822a3.266 3.266 0 0 1 1.527-.471 3.498 3.498 0 0 1 1.608.303Zm-14.297-1.423c.923.273 2.095 1.309 1.565 2.381a1.83 1.83 0 0 1-1.005.785c-.777.31-3.82-.061-4.113-1.438a1.273 1.273 0 0 1-.353-.625 1.219 1.219 0 0 1 .041-.706c.082-.22.229-.403.419-.523a.991.991 0 0 1 .641-.146 7.395 7.395 0 0 1 2.805.272Zm-18.974-1.285c-.059.777-.634 1.075-.621 1.913.017 1.118-1.952.492-2.374.133-.833-.63-1.807-1.262-2.02-2.428-.18-.9.492-1.38 1.256-1.553l.128-.026.261-.041c1.059-.148 3.491.372 3.37 2.002Zm-19.678-2.831.009.142.009.559c.024 1.03-1.796.722-2.363.416l-.062-.037-.689-.455c-2.893-1.891 2.825-3.446 3.096-.625Zm-7.595-11.789c1.389 2.02-3.024 2.138-4.058.643-1.378-1.998 3.043-2.109 4.058-.643Zm-18.641-5.088a3.964 3.964 0 0 1 2.18.201 4.53 4.53 0 0 1 1.857 1.343c.874 1.268-.333 2.21-1.391 2.373a3.937 3.937 0 0 1-2.184-.189 4.491 4.491 0 0 1-1.859-1.347c-.874-1.268.322-2.193 1.397-2.381Zm45.314-7.286a3.528 3.528 0 0 1 1.569 1.918c.43 1.741-1.97 1.406-3.211.877-.908-.194-2.167-.783-2.089-1.73l.019-.132.026-.162c.103-.304.287-.565.53-.753.243-.188.536-.295.844-.309.758-.225 1.587-.121 2.312.291ZM104.762 44.66c.452 1.603-1.794 1.886-2.816 1.679l-.095-.022-.262-.066c-1.204-.304-3.767-2.29-1.668-3.172l.15-.058.195-.057c1.331-.469 4.03.041 4.496 1.696Zm-11.885-1.827c-.365 1.112-.676 2.151-1.766 2.631a3.584 3.584 0 0 1-1.862.152 3.964 3.964 0 0 1-1.561-.659l-.2-.149-.152-.129-.095-.081c-.572-.489-.868-1.059-.422-1.679l.13-.18a.937.937 0 0 1 .082-.114 6.808 6.808 0 0 1 3.415-1.249c.57-.132 2.795.344 2.43 1.457Zm14.819-5.244a3.911 3.911 0 0 1 1.604 1.156c.76 1.106-.29 1.918-1.212 2.053a3.421 3.421 0 0 1-1.868-.162 3.909 3.909 0 0 1-1.6-1.134c-.784-1.126.272-1.894 1.193-2.082a3.43 3.43 0 0 1 1.883.169Zm-19.773-6.885c1.468 2.14-3.254 2.258-4.35.671-1.492-2.161 3.238-2.272 4.35-.671Zm28.088-2.27.157.002c.845-.029 2.736.543 2.573 1.876-.157 1.284-1.946 1.033-2.81.8l-.091-.026-.299-.085c-2.006-.591-1.48-2.533.319-2.565l.151-.002Zm-14.204-3.282c.738.28 1.406.758 1.937 1.387.925 1.324-.346 2.317-1.457 2.5a4.176 4.176 0 0 1-2.274-.206 4.773 4.773 0 0 1-1.945-1.388c-.911-1.325.36-2.318 1.471-2.501a4.165 4.165 0 0 1 2.268.208Zm-10.936-6.323c.193-.019.164.021-.088.122.824-.252 3.553.138 3.196 1.587l-.016.047a.083.083 0 0 1 .016.03l.011.043c.751 2.295-3.292 1.676-4.19 1.135-2.008-1.211-.906-3.15 1.07-2.964Zm3.08 1.747c-.028-.006-.061.08-.072.237l.059-.14.025-.088-.011-.009Zm14.538-7.113c.574 2.023-4.097 1.803-4.344-.335-.239-1.987 3.878-1.268 4.344.335Z" fill="#FFF"/></g></svg>